DBRep_DrawableShape

CASCADE Topology V3, (c) Open Cascade
Locations 76
1
              1               0               0              -0 
              0               1               0              -0 
              0               0               1           -1.25 
1
              1               0               0               0 
              0               1               0               0 
              0               0               1            1.25 
2  1 1 2 1 0
2  2 -1 1 -1 0
1
              1               0               0            -1.5 
              0               1               0              -6 
              0               0               1             -10 
1
              1               0               0           19.35 
              0               1               0               0 
              0               0               1             -10 
2  5 1 6 1 2 -1 1 -1 0
1
              1               0               0            -1.5 
              0               1               0              -6 
              0               0               1             -10 
1
              1               0               0          -19.35 
              0               1               0               0 
              0               0               1             -10 
2  8 1 9 1 2 -1 1 -1 0
2  5 1 6 1 0
2  1 1 2 1 6 -1 5 -1 0
2  6 -1 5 -1 0
2  8 1 9 1 0
2  9 -1 8 -1 0
2  1 1 2 1 9 -1 8 -1 0
1
              1               0               0              -0 
              0               1               0              -0 
              0               0               1           -3.75 
1
              1               0               0             -13 
              0               1               0             -13 
              0               0               1               0 
2  17 1 18 1 0
1
              1               0               0              -0 
              0               1               0              -0 
              0               0               1           -3.75 
1
              1               0               0              13 
              0               1               0             -13 
              0               0               1               0 
2  20 1 21 1 0
1
              1               0               0              -0 
              0               1               0              -0 
              0               0               1           -3.75 
1
              1               0               0             -13 
              0               1               0              13 
              0               0               1               0 
2  23 1 24 1 0
1
              1               0               0              -0 
              0               1               0              -0 
              0               0               1           -3.75 
1
              1               0               0              -0 
              0               1               0              -0 
              0               0               1           -3.75 
1
              1               0               0              13 
              0               1               0              13 
              0               0               1               0 
2  27 1 28 1 0
1
              1               0               0              -0 
              0               1               0              -0 
              0               0               1           -0.75 
1
              1               0               0          -5.105 
              0               1               0          -13.97 
              0               0               1            3.25 
2  30 1 31 1 0
2  1 1 2 1 31 -1 30 -1 0
1
              1               0               0              -0 
              0               1               0              -0 
              0               0               1           -0.75 
1
              1               0               0           5.105 
              0               1               0          -13.97 
              0               0               1            3.25 
2  34 1 35 1 0
2  1 1 2 1 35 -1 34 -1 0
1
              1               0               0               0 
              0               1               0               0 
              0               0               1               4 
1
              1               0               0            21.6 
              0               1               0               0 
              0               0               1             -20 
2  38 1 39 1 0
2  38 -1 0
2  39 -1 38 -1 0
1
              1               0               0              -0 
              0               1               0              -0 
              0               0               1               0 
2  39 -1 0
2  39 1 6 -1 5 -1 0
1
              1               0               0           -21.6 
              0               1               0               0 
              0               0               1             -20 
2  46 -1 0
1
              1               0               0               0 
              0               1               0               0 
              0               0               1               4 
1
              1               0               0              -0 
              0               1               0              -0 
              0               0               1               0 
2  48 1 46 1 0
2  48 -1 0
2  46 -1 48 -1 0
2  46 1 9 -1 8 -1 0
2  18 -1 17 -1 0
2  21 -1 20 -1 0
2  24 -1 23 -1 0
2  26 -1 0
2  28 -1 27 -1 0
1
              1               0               0              -0 
              0               1               0              -0 
              0               0               1              -4 
1
              1               0               0           22.75 
              0               1               0               0 
              0               0               1             -18 
2  59 1 60 1 0
1
              1               0               0              -0 
              0               1               0              -0 
              0               0               1              -4 
1
              1               0               0          -22.75 
              0               1               0               0 
              0               0               1             -18 
2  62 1 63 1 0
1
              1               0               0              -0 
              0               1               0              -0 
              0               0               1           -1.75 
1
              1               0               0          -5.105 
              0               1               0          -13.97 
              0               0               1            2.25 
2  65 1 66 1 0
2  30 1 31 1 66 -1 65 -1 0
1
              1               0               0              -0 
              0               1               0              -0 
              0               0               1           -1.75 
1
              1               0               0           5.105 
              0               1               0          -13.97 
              0               0               1            2.25 
2  69 1 70 1 0
2  34 1 35 1 70 -1 69 -1 0
2  60 -1 59 -1 0
2  63 -1 62 -1 0
2  66 -1 65 -1 0
2  70 -1 69 -1 0
Curve2ds 184
1 6.2831853071795862 -0 0 1 
1 0 -0 0 1 
1 0 0 1 0 
2 0 0 1 0 -0 1 21
2 -17.850000000000001 6 1 0 -0 1 21
2 20.850000000000001 6 1 0 -0 1 21
2 20.850000000000001 6 1 0 -0 1 21
2 -17.850000000000001 6 1 0 -0 1 21
1 0 2.5 1 0 
2 0 0 1 0 -0 1 21
1 20 0 0 -1 
1 3 0 0 1 
1 20.850000000000001 -6 0 1 
1 20 0 0 1 
1 0 0 1 0 
1 20 0 0 1 
1 20 0 0 1 
1 0 12 1 0 
1 20 0 0 1 
1 17.850000000000001 6 1 0 
1 20 0 0 -1 
1 0 0 0 1 
1 20 0 0 -1 
1 17.850000000000001 -6 0 1 
1 17.850000000000001 -6 1 0 
1 20 0 0 1 
1 0 0 1 0 
1 20 0 0 1 
1 -20.850000000000001 -6 1 0 
1 20 0 0 -1 
1 3 0 0 1 
1 20 0 0 -1 
1 -17.850000000000001 -6 0 1 
1 20 0 0 1 
1 0 12 1 0 
1 20 0 0 1 
1 -20.850000000000001 6 1 0 
2 -13 -13 1 0 -0 1 1.7
1 0 3.75 1 0 
2 13 -13 1 0 -0 1 1.7
1 0 3.75 1 0 
2 -13 13 1 0 -0 1 1.7
1 0 3.75 1 0 
2 0 0 1 0 -0 1 11.300000000000001
1 0 3.75 1 0 
2 13 13 1 0 -0 1 1.7
1 0 3.75 1 0 
1 20 0 0 -1 
1 0 0 0 1 
1 -20.850000000000001 -6 0 1 
2 -13 -13 1 0 -0 1 1.7
1 0 6.25 1 0 
1 0 0 1 0 
2 0 0 1 0 -0 1 2.5
2 -5.1050000000000004 -13.969999999999999 1 0 -0 1 2.5
1 0 0 1 0 
2 0 0 1 0 -0 1 2.5
2 5.1050000000000004 -13.969999999999999 1 0 -0 1 2.5
2 13 -13 1 0 -0 1 1.7
1 0 6.25 1 0 
2 -13 13 1 0 -0 1 1.7
1 0 6.25 1 0 
2 0 0 1 0 -0 1 11.300000000000001
1 0 6.25 1 0 
2 13 13 1 0 -0 1 1.7
1 0 6.25 1 0 
1 0 0 1 0 
1 0 3 1 0 
1 0 3 1 0 
1 0 -12 1 0 
1 0 3 1 0 
1 0 3 1 0 
8 -9 3
1 4 -3 0 1 
8 -9 3
1 -0.75 -3 0 -1 
1 0 0 0 1 
1 0 0 1 0 
1 0 0 1 0 
1 0 -6 1 0 
1 3.75 0 1 0 
1 3.75 -4 1 0 
1 4 3.75 0 1 
1 0 -6 1 0 
1 5.5 0 0 -1 
1 0 5.5 1 0 
1 20 -12 -1 0 
1 20 0 -1 0 
1 0 6 1 0 
1 3.75 0 1 0 
1 3.75 -4 1 0 
1 4 3.75 0 1 
1 0 6 1 0 
1 5.5 0 0 -1 
1 0 5.5 1 0 
1 0 5.5 0 -1 
1 0 0 0 -1 
1 0 0 0 1 
1 -3.75 -6 0 1 
1 0 0 0 -1 
1 0 -2.5 0 1 
1 0 0 0 -1 
1 0 -2.5 1 0 
1 0 -6 1 0 
1 0 -6 1 0 
1 1.75 0 1 0 
1 1.75 -4 1 0 
1 4 -0.75 0 1 
1 0 0 1 0 
1 0 0 1 0 
1 0 0 1 0 
1 0 3 1 0 
1 0 0 1 0 
1 0 0 0 -1 
1 3 0 0 1 
1 3.75 -6 0 1 
1 0 0 0 -1 
1 0 -12 1 0 
1 0 3 1 0 
1 0 -2.5 0 1 
1 0 0 0 -1 
1 0 -2.5 1 0 
1 0 6 1 0 
1 0 6 1 0 
1 1.75 0 1 0 
1 1.75 -4 1 0 
1 4 -0.75 0 1 
1 0 -12 1 0 
1 0 0 1 0 
1 0 0 1 0 
1 6.2831853071795862 -0 0 1 
1 0 -0 0 1 
1 6.2831853071795862 -0 0 1 
1 0 -0 0 1 
1 6.2831853071795862 -0 0 1 
1 0 -0 0 1 
1 6.2831853071795862 -0 0 1 
1 0 -0 0 1 
1 6.2831853071795862 -0 0 1 
1 0 -0 0 1 
8 -9 3
1 4 -3 0 1 
8 -9 3
1 0.75 -3 0 -1 
1 0 1.5 1 0 
2 0 0 1 0 -0 1 2.5
1 6.2831853071795862 -0 0 1 
1 0 -0 0 1 
1 0 1.5 1 0 
2 0 0 1 0 -0 1 2.5
1 6.2831853071795862 -0 0 1 
1 0 -0 0 1 
1 3.75 4 -0.70710678118654757 0.70710678118654757 
1 3.75 0 0 1 
1 3.75 0 0 1 
1 1.75 -6 0.70710678118654757 0.70710678118654757 
2 1.1499999999999986 0 1 0 -0 1 1.7
1 0 6 1 0 
2 1.1499999999999986 0 1 0 -0 1 1.7
1 0 2 1 0 
1 -3.75 4 0.70710678118654757 0.70710678118654757 
1 -3.75 0 0 1 
1 -3.75 0 0 1 
1 -3.75 -4 0.70710678118654757 -0.70710678118654757 
2 -1.1499999999999986 0 1 0 -0 1 1.7
1 0 2 1 0 
2 -1.1499999999999986 0 1 0 -0 1 1.7
1 0 6 1 0 
1 0 3.5 1 0 
2 0 0 1 0 -0 1 0.80000000000000004
2 0 0 1 0 -0 1 0.80000000000000004
1 0 3.5 1 0 
2 0 0 1 0 -0 1 0.80000000000000004
2 0 0 1 0 -0 1 0.80000000000000004
1 6.2831853071795862 -0 0 1 
1 0 -0 0 1 
1 6.2831853071795862 -0 0 1 
1 0 -0 0 1 
1 6.2831853071795862 -0 0 1 
1 0 -0 0 1 
2 0 0 1 0 -0 1 0.80000000000000004
1 0 2 1 0 
2 -5.1050000000000004 -13.969999999999999 1 0 -0 1 0.79999999999999982
1 6.2831853071795862 -0 0 1 
1 0 -0 0 1 
2 0 0 1 0 -0 1 0.80000000000000004
1 0 2 1 0 
2 5.1050000000000004 -13.969999999999999 1 0 -0 1 0.79999999999999982
Curves 84
1 21 -5.1435165564188833e-15 0 0 0 1 
2 0 0 0 0 0 1 1 0 -0 -0 1 0 21
2 0 0 2.5 0 0 1 1 0 -0 -0 1 0 21
1 3 0 20 -0 1 0 
1 0 0 20 1 0 -0 
1 0 12 20 1 0 -0 
1 0 0 20 -0 1 0 
1 0 0 20 1 0 -0 
1 3 0 20 -0 1 0 
1 0 12 20 1 0 -0 
2 -13 -13 0 0 0 1 1 0 -0 -0 1 0 1.7
2 13 -13 0 0 0 1 1 0 -0 -0 1 0 1.7
2 -13 13 0 0 0 1 1 0 -0 -0 1 0 1.7
2 0 0 0 0 0 1 1 0 -0 -0 1 0 11.300000000000001
2 13 13 0 0 0 1 1 0 -0 -0 1 0 1.7
1 0 0 20 -0 1 0 
2 -13 -13 2.5 0 0 1 1 0 -0 -0 1 0 1.7
2 0 0 0 0 0 1 1 0 -0 -0 1 0 2.5
2 0 0 0 0 0 1 1 0 -0 -0 1 0 2.5
2 13 -13 2.5 0 0 1 1 0 -0 -0 1 0 1.7
2 -13 13 2.5 0 0 1 1 0 -0 -0 1 0 1.7
2 0 0 2.5 0 0 1 1 0 -0 -0 1 0 11.300000000000001
2 13 13 2.5 0 0 1 1 0 -0 -0 1 0 1.7
1 3 0 0 0 0 1 
1 3 12 0 0 0 1 
1 20.850000000000001 -3 -16 0 -1 0 
8 0 5.5
1 17.850000000000001 -6 -20 1 0 0 
8 0 20
1 17.850000000000001 -6 -20 0 0 1 
1 0 -6 0 1 0 -0 
1 0 -6 0 1 0 -0 
1 1.75 -6 0 0 0 1 
8 0 20
1 17.850000000000001 6 0 0 0 -1 
1 0 6 0 1 0 -0 
1 0 6 0 1 0 -0 
1 1.75 6 0 0 0 1 
8 0 5.5
1 23.350000000000001 6 -20 -1 0 0 
1 0 0 0 -0 1 0 
8 0 5.5
1 -23.350000000000001 -6 -20 1 0 0 
1 -1.75 -6 0 0 0 1 
1 0 -6 0 1 0 -0 
1 0 -6 0 1 0 -0 
1 0 0 0 0 0 1 
8 0 20
1 -17.850000000000001 -6 -20 0 0 1 
1 3 0 0 -0 1 0 
8 0 20
1 -17.850000000000001 6 -20 0 0 1 
8 0 5.5
1 -23.350000000000001 6 -20 1 0 0 
1 -1.75 6 0 0 0 1 
1 0 6 0 1 0 -0 
1 0 6 0 1 0 -0 
1 0 12 0 0 0 1 
1 1.7 -4.1637991171010006e-16 0 0 0 1 
1 1.7 -4.1637991171010006e-16 0 0 0 1 
1 1.7 -4.1637991171010006e-16 0 0 0 1 
1 11.300000000000001 -2.7677017660730185e-15 0 0 0 1 
1 1.7 -4.1637991171010006e-16 0 0 0 1 
1 -20.850000000000001 -3 -16 0 -1 0 
2 0 0 1.5 0 0 1 1 0 -0 -0 1 0 2.5
1 2.5 -6.1232339957367663e-16 0 0 0 1 
2 0 0 1.5 0 0 1 1 0 -0 -0 1 0 2.5
1 2.5 -6.1232339957367663e-16 0 0 0 1 
1 3.75 4 0 -0.70710678118654746 0.70710678118654746 0 
1 3.75 0 0 -0 1 0 
1 3.75 0 0 -0 1 0 
1 1.75 -6 0 0.70710678118654746 0.70710678118654746 0 
2 22.75 0 -16 0 0 1 1 0 -0 -0 1 0 1.7
2 22.75 0 -20 0 0 1 1 0 -0 -0 1 0 1.7
1 3.75 -4 0 0 0 1 
1 3.75 4 0 0 0 1 
1 -3.75 4 0 0.70710678118654746 0.70710678118654746 0 
1 -3.75 0 0 -0 1 0 
1 -3.75 0 0 -0 1 0 
1 -3.75 -4 0 0.70710678118654746 -0.70710678118654746 0 
2 -22.75 0 -20 0 0 1 1 0 -0 -0 1 0 1.7
1 -3.75 -4 0 0 0 1 
2 -22.75 0 -16 0 0 1 1 0 -0 -0 1 0 1.7
1 -3.75 4 0 0 0 1 
2 0 0 3.5 0 0 1 1 0 -0 -0 1 0 0.80000000000000004
2 0 0 3.5 0 0 1 1 0 -0 -0 1 0 0.80000000000000004
1 1.7 -4.1637991171010006e-16 0 0 0 1 
1 1.7 -4.1637991171010006e-16 0 0 0 1 
1 0.80000000000000004 -1.9594348786357652e-16 0 0 0 1 
2 -5.1050000000000004 -13.969999999999999 2.5 0 0 1 1 0 -0 -0 1 0 0.80000000000000004
1 0.80000000000000004 -1.9594348786357652e-16 0 0 0 1 
2 5.1050000000000004 -13.969999999999999 2.5 0 0 1 1 0 -0 -0 1 0 0.80000000000000004
Polygon3D 0
PolygonOnTriangulations 0
Surfaces 54
2 0 0 0 0 0 1 1 0 -0 -0 1 0 21
1 0 0 0 0 0 1 1 0 -0 -0 1 0 
1 0 0 20 0 0 1 1 0 -0 -0 1 0 
1 0 0 20 0 0 1 1 0 -0 -0 1 0 
1 0 0 2.5 0 0 1 1 0 -0 -0 1 0 
1 3 0 0 1 0 -0 0 0 1 0 -1 0 
1 0 0 0 -0 1 0 0 0 1 1 0 -0 
1 17.850000000000001 -6 -20 -0 1 0 0 0 1 1 0 -0 
1 0 12 0 -0 1 0 0 0 1 1 0 -0 
1 17.850000000000001 6 -20 -0 1 0 0 0 1 1 0 -0 
1 0 0 0 1 0 -0 0 0 1 0 -1 0 
1 17.850000000000001 -6 -20 1 0 -0 0 0 1 0 -1 0 
1 0 0 0 -0 1 0 0 0 1 1 0 -0 
1 -20.850000000000001 -6 -20 -0 1 0 0 0 1 1 0 -0 
1 3 0 0 1 0 -0 0 0 1 0 -1 0 
1 -17.850000000000001 -6 -20 1 0 -0 0 0 1 0 -1 0 
1 0 12 0 -0 1 0 0 0 1 1 0 -0 
1 -20.850000000000001 6 -20 -0 1 0 0 0 1 1 0 -0 
2 0 0 0 0 0 1 1 0 -0 -0 1 0 1.7
2 0 0 0 0 0 1 1 0 -0 -0 1 0 1.7
2 0 0 0 0 0 1 1 0 -0 -0 1 0 1.7
2 0 0 0 0 0 1 1 0 -0 -0 1 0 11.300000000000001
2 0 0 0 0 0 1 1 0 -0 -0 1 0 1.7
1 0 0 0 1 0 -0 0 0 1 0 -1 0 
2 0 0 0 0 0 1 1 0 -0 -0 1 0 2.5
1 0 0 0 0 0 1 1 0 -0 -0 1 0 
2 0 0 0 0 0 1 1 0 -0 -0 1 0 2.5
1 0 0 0 0 0 1 1 0 -0 -0 1 0 
1 0 0 0 0 0 1 1 0 -0 -0 1 0 
1 -3.75 -6 0 -0 1 0 1 0 -0 -0 0 -1 
1 0 0 0 0 0 1 1 0 -0 -0 1 0 
1 -3.75 6 0 -0 1 0 1 0 -0 -0 0 -1 
1 0 0 0 0 0 1 1 0 -0 -0 1 0 
1 -1.75 -6 0 -0 1 0 1 0 -0 -0 0 -1 
1 0 0 0 0 0 1 1 0 -0 -0 1 0 
1 0 0 0 0 0 1 1 0 -0 -0 1 0 
1 0 0 0 0 0 1 1 0 -0 -0 1 0 
1 -1.75 6 0 -0 1 0 1 0 -0 -0 0 -1 
1 0 0 1.5 0 0 1 1 0 -0 -0 1 0 
1 0 0 1.5 0 0 1 1 0 -0 -0 1 0 
2 0 0 0 0 0 1 1 0 -0 -0 1 0 1.7
1 17.850000000000001 -6 -20 0 0 1 1 0 -0 -0 1 0 
1 1.75 -6 0 -0.70710678118654757 0.70710678118654757 0 0.70710678118654757 0.70710678118654757 0 0 0 -1 
1 3.75 4 0 -0.70710678118654757 -0.70710678118654757 0 -0.70710678118654757 0.70710678118654757 0 -0 0 -1 
1 -20.850000000000001 -6 -20 0 0 1 1 0 -0 -0 1 0 
2 0 0 0 0 0 1 1 0 -0 -0 1 0 1.7
1 -3.75 -4 0 0.70710678118654757 0.70710678118654757 -0 0.70710678118654757 -0.70710678118654757 0 0 -0 -1 
1 -3.75 4 0 -0.70710678118654757 0.70710678118654757 0 0.70710678118654757 0.70710678118654757 0 0 0 -1 
2 0 0 0 0 0 1 1 0 -0 -0 1 0 0.80000000000000004
1 0 0 3.5 0 0 1 1 0 -0 -0 1 0 
2 0 0 0 0 0 1 1 0 -0 -0 1 0 0.80000000000000004
1 0 0 3.5 0 0 1 1 0 -0 -0 1 0 
1 3.75 -4 0 -1 -0 0 -0 1 0 -0 0 -1 
1 -3.75 -4 0 -1 -0 0 -0 1 0 -0 0 -1 
Triangulations 0

TShapes 263
Ve
1e-07
21 -5.14351655641888e-15 2.5
0 0

0101101
*
Ve
1e-07
21 -5.14351655641888e-15 0
0 0

0101101
*
Ed
 1e-07 1 1 0
1  1 0 0 2.5
3  1 2CN 1 0 0 2.5
0

0101000
-263 0 +262 0 *
Ve
1.00000043302683e-07
20.85 -2.50549396327286 0
0 0

0101101
*
Ed
 1e-07 1 1 0
1  2 0 6.16359118710297 6.28318530717959
2  3 1 0 6.16359118710297 6.28318530717959
2  4 2 0 6.16359118710297 6.28318530717959
0

0101000
+260 4 -262 0 *
Ve
1.00000405453449e-07
20.1246117974983 -5.99999999999959 0
0 0

0101101
*
Ed
 1e-07 1 1 0
1  2 0 5.99343360574356 6.16359118710297
2  3 1 0 5.99343360574356 6.16359118710297
2  4 2 0 5.99343360574356 6.16359118710297
2  5 3 7 5.99343360574356 6.16359118710297
0

0101000
+258 4 -260 4 *
Ve
1.0000024735769e-07
-20.124611797498 -6.00000000000025 0
0 0

0101101
*
Ed
 1e-07 1 1 0
1  2 0 3.43134435502585 5.99343360574356
2  3 1 0 3.43134435502585 5.99343360574356
2  4 2 0 3.43134435502585 5.99343360574356
0

0101000
+256 4 -258 4 *
Ve
1.00000031974423e-07
-20.85 -2.50549396327296 0
0 0

0101101
*
Ed
 1e-07 1 1 0
1  2 0 3.26118677366642 3.43134435502585
2  3 1 0 3.26118677366642 3.43134435502585
2  4 2 0 3.26118677366642 3.43134435502585
2  6 4 10 3.26118677366642 3.43134435502585
0

0101000
+254 4 -256 4 *
Ve
1.00000035529912e-07
-20.85 2.50549396327295 0
0 0

0101101
*
Ed
 1e-07 1 1 0
1  2 0 3.02199853351317 3.26118677366642
2  3 1 0 3.02199853351317 3.26118677366642
2  4 2 0 3.02199853351317 3.26118677366642
0

0101000
+252 4 -254 4 *
Ve
1.00000250466314e-07
-20.124611797498 6.00000000000025 0
0 0

0101101
*
Ed
 1e-07 1 1 0
1  2 0 2.85184095215373 3.02199853351317
2  3 1 0 2.85184095215373 3.02199853351317
2  4 2 0 2.85184095215373 3.02199853351317
2  7 4 10 2.85184095215373 3.02199853351317
0

0101000
+250 4 -252 4 *
Ve
1.00000405009359e-07
20.1246117974983 5.99999999999959 0
0 0

0101101
*
Ed
 1e-07 1 1 0
1  2 0 0.289751701436026 2.85184095215373
2  3 1 0 0.289751701436026 2.85184095215373
2  4 2 0 0.289751701436026 2.85184095215373
0

0101000
+248 4 -250 4 *
Ve
1.00000039331365e-07
20.85 2.50549396327288 0
0 0

0101101
*
Ed
 1e-07 1 1 0
1  2 0 0.119594120076621 0.289751701436026
2  3 1 0 0.119594120076621 0.289751701436026
2  4 2 0 0.119594120076621 0.289751701436026
2  8 3 7 0.119594120076621 0.289751701436026
0

0101000
+246 4 -248 4 *
Ed
 1e-07 1 1 0
1  2 0 0 0.119594120076621
2  3 1 0 0 0.119594120076621
2  4 2 0 0 0.119594120076621
0

0101000
+262 0 -246 4 *
Ed
 1e-07 1 1 0
1  3 0 0 6.28318530717959
2  9 1 0 0 6.28318530717959
2  10 5 0 0 6.28318530717959
0

0101000
+263 0 -263 0 *
Wi

0101100
+261 3 +259 3 +257 3 +255 3 +253 3 +251 3 +249 3 +247 3 +245 3 +244 3 
-261 3 -243 3 *
Fa
0  1e-07 1 3

0101000
+242 0 *
Ed
 1e-07 1 1 0
1  4 0 3.49450603672714 8.50549396327288
2  11 6 0 3.49450603672714 8.50549396327288
2  12 3 0 3.49450603672714 8.50549396327288
2  13 2 12 3.49450603672714 8.50549396327288
0

0101000
+260 13 -246 13 *
Wi

0101100
+259 3 -240 11 +244 3 *
Fa
0  1e-07 2 3

0101000
+239 0 *
Ve
1e-07
3 0 20
0 0

0101101
*
Ed
 1e-07 1 1 0
1  4 0 0 3.49450603672714
2  11 6 0 0 3.49450603672714
2  12 3 0 0 3.49450603672714
0

0101000
+237 0 -260 13 *
Ed
 1e-07 1 1 0
1  5 0 2.27461179749835 3
2  14 7 0 2.27461179749835 3
2  15 3 0 2.27461179749835 3
2  16 8 13 2.27461179749835 3
0

0101000
+258 13 -237 0 *
Wi

0101100
-257 3 +236 11 +235 11 *
Fa
0  1e-07 3 11

0101000
+234 0 *
Ve
1e-07
0 12 20
0 0

0101101
*
Ed
 1e-07 1 1 0
1  6 0 0 2.27461179749835
2  17 9 0 0 2.27461179749835
2  18 3 0 0 2.27461179749835
2  19 10 13 0 2.27461179749835
2  20 2 12 0 2.27461179749835
0

0101000
+232 0 -248 13 *
Ve
1e-07
0 0 20
0 0

0101101
*
Ed
 1e-07 1 1 0
1  7 0 0 12
2  21 11 0 0 12
2  22 3 0 0 12
2  23 12 13 0 12
2  24 2 12 0 12
0

0101000
-232 0 +230 0 *
Ed
 1e-07 1 1 0
1  5 0 0 2.27461179749835
2  14 7 0 0 2.27461179749835
2  15 3 0 0 2.27461179749835
2  16 8 13 0 2.27461179749835
2  25 2 12 0 2.27461179749835
0

0101000
+230 0 -258 13 *
Ve
1e-07
3 0 20
0 0

0101101
*
Ed
 1e-07 1 1 0
1  8 0 0.725388202502042 3
2  26 13 0 0.725388202502042 3
2  27 4 0 0.725388202502042 3
2  28 14 15 0.725388202502042 3
2  29 2 16 0.725388202502042 3
0

0101000
+256 15 -227 0 *
Ve
1e-07
3 12 20
0 0

0101101
*
Ed
 1e-07 1 1 0
1  9 0 0 12
2  30 15 0 0 12
2  31 4 0 0 12
2  32 16 15 0 12
2  33 2 16 0 12
0

0101000
-225 0 +227 0 *
Ed
 1e-07 1 1 0
1  10 0 0.725388202502042 3
2  34 17 0 0.725388202502042 3
2  35 4 0 0.725388202502042 3
2  36 18 15 0.725388202502042 3
2  37 2 16 0.725388202502042 3
0

0101000
+250 15 -225 0 *
Wi

0101100
+231 11 +229 11 -228 11 +255 3 -226 14 -224 14 +223 14 +247 3 *
Ve
1e-07
-11.3 -13 0
0 0

0101101
*
Ed
 1e-07 1 1 0
1  11 0 0 6.28318530717959
2  38 2 3 0 6.28318530717959
2  39 19 19 0 6.28318530717959
0

0101100
+221 0 -221 0 *
Wi

0101100
-220 0 *
Ve
1e-07
14.7 -13 0
0 0

0101101
*
Ed
 1e-07 1 1 0
1  12 0 0 6.28318530717959
2  40 2 3 0 6.28318530717959
2  41 20 22 0 6.28318530717959
0

0101100
+218 0 -218 0 *
Wi

0101100
-217 0 *
Ve
1e-07
-11.3 13 0
0 0

0101101
*
Ed
 1e-07 1 1 0
1  13 0 0 6.28318530717959
2  42 2 3 0 6.28318530717959
2  43 21 25 0 6.28318530717959
0

0101100
+215 0 -215 0 *
Wi

0101100
-214 0 *
Ve
1.00000002767702e-07
11.3 -2.76770176607302e-15 0
0 0

0101101
*
Ed
 1e-07 1 1 0
1  14 0 0 6.28318530717959
2  44 2 3 0 6.28318530717959
2  45 22 26 0 6.28318530717959
0

0101100
+212 0 -212 0 *
Wi

0101100
-211 0 *
Ve
1e-07
14.7 13 0
0 0

0101101
*
Ed
 1e-07 1 1 0
1  15 0 0 6.28318530717959
2  46 2 3 0 6.28318530717959
2  47 23 29 0 6.28318530717959
0

0101100
+209 0 -209 0 *
Wi

0101100
-208 0 *
Fa
0  1e-07 2 3

0101000
+222 0 +219 0 +216 0 +213 0 +210 0 +207 0 *
Ve
1e-07
0 0 20
0 0

0101101
*
Ed
 1e-07 1 1 0
1  16 0 0 3.49450603672704
2  48 24 0 0 3.49450603672704
2  49 4 0 0 3.49450603672704
0

0101000
+205 0 -254 15 *
Ed
 1e-07 1 1 0
1  8 0 0 0.725388202502042
2  26 13 0 0 0.725388202502042
2  27 4 0 0 0.725388202502042
2  28 14 15 0 0.725388202502042
0

0101000
+205 0 -256 15 *
Wi

0101100
-204 14 -253 3 +203 14 *
Fa
0  1e-07 4 14

0101000
+202 0 *
Ed
 1e-07 1 1 0
1  16 0 3.49450603672704 8.50549396327295
2  48 24 0 3.49450603672704 8.50549396327295
2  49 4 0 3.49450603672704 8.50549396327295
2  50 2 16 3.49450603672704 8.50549396327295
0

0101000
+254 15 -252 15 *
Wi

0101100
+200 14 +251 3 *
Fa
0  1e-07 2 3

0101000
+199 0 *
Ve
1e-07
0 12 20
0 0

0101101
*
Ed
 1e-07 1 1 0
1  16 0 8.50549396327295 12
2  48 24 0 8.50549396327295 12
2  49 4 0 8.50549396327295 12
0

0101000
+252 15 -197 0 *
Ed
 1e-07 1 1 0
1  10 0 0 0.725388202502042
2  34 17 0 0 0.725388202502042
2  35 4 0 0 0.725388202502042
2  36 18 15 0 0.725388202502042
0

0101000
+197 0 -250 15 *
Wi

0101100
-196 14 -195 14 -249 3 *
Fa
0  1e-07 4 14

0101000
+194 0 *
Ve
1e-07
3 12 20
0 0

0101101
*
Ed
 1e-07 1 1 0
1  6 0 2.27461179749835 3
2  17 9 0 2.27461179749835 3
2  18 3 0 2.27461179749835 3
2  19 10 13 2.27461179749835 3
0

0101000
+248 13 -192 0 *
Ed
 1e-07 1 1 0
1  4 0 8.50549396327288 12
2  11 6 0 8.50549396327288 12
2  12 3 0 8.50549396327288 12
0

0101000
+246 13 -192 0 *
Wi

0101100
-191 11 +190 11 -245 3 *
Fa
0  1e-07 3 11

0101000
+189 0 *
Wi

0101100
+243 3 *
Ve
1e-07
-11.3 -13 2.5
0 0

0101101
*
Ed
 1e-07 1 1 0
1  17 0 0 6.28318530717959
2  51 5 3 0 6.28318530717959
2  52 19 19 0 6.28318530717959
0

0101100
+186 0 -186 0 *
Wi

0101100
-185 0 *
Ve
1e-07
2.5 -6.12323399573677e-16 0
0 0

0101101
*
Ed
 1e-07 1 1 0
1  18 0 0 6.28318530717959
2  53 25 0 0 6.28318530717959
2  54 26 0 0 6.28318530717959
2  55 5 33 0 6.28318530717959
0

0101000
+183 0 -183 0 *
Wi

0101100
-182 32 *
Ve
1e-07
2.5 -6.12323399573677e-16 0
0 0

0101101
*
Ed
 1e-07 1 1 0
1  19 0 0 6.28318530717959
2  56 27 0 0 6.28318530717959
2  57 28 0 0 6.28318530717959
2  58 5 37 0 6.28318530717959
0

0101000
+180 0 -180 0 *
Wi

0101100
-179 36 *
Ve
1e-07
14.7 -13 2.5
0 0

0101101
*
Ed
 1e-07 1 1 0
1  20 0 0 6.28318530717959
2  59 5 3 0 6.28318530717959
2  60 20 22 0 6.28318530717959
0

0101100
+177 0 -177 0 *
Wi

0101100
-176 0 *
Ve
1e-07
-11.3 13 2.5
0 0

0101101
*
Ed
 1e-07 1 1 0
1  21 0 0 6.28318530717959
2  61 5 3 0 6.28318530717959
2  62 21 25 0 6.28318530717959
0

0101100
+174 0 -174 0 *
Wi

0101100
-173 0 *
Ve
1.00000002767702e-07
11.3 -2.76770176607302e-15 2.5
0 0

0101101
*
Ed
 1e-07 1 1 0
1  22 0 0 6.28318530717959
2  63 5 3 0 6.28318530717959
2  64 22 26 0 6.28318530717959
0

0101100
+171 0 -171 0 *
Wi

0101100
-170 0 *
Ve
1e-07
14.7 13 2.5
0 0

0101101
*
Ed
 1e-07 1 1 0
1  23 0 0 6.28318530717959
2  65 5 3 0 6.28318530717959
2  66 23 29 0 6.28318530717959
0

0101100
+168 0 -168 0 *
Wi

0101100
-167 0 *
Fa
0  1e-07 5 3

0101000
+187 0 +184 0 +181 0 +178 0 +175 0 +172 0 +169 0 +166 0 *
Ve
6e-07
20.85 -6 -16
0 0

0101101
*
Ed
 1e-07 1 1 0
1  24 0 4 20
2  67 6 0 4 20
2  68 7 0 4 20
2  69 8 13 4 20
0

0101000
+164 13 -237 0 *
Ve
6e-07
20.85 6 -16
0 0

0101101
*
Ed
 1e-07 1 1 0
1  25 0 4 20
2  70 6 0 4 20
2  71 9 0 4 20
2  72 10 13 4 20
0

0101000
+162 13 -192 0 *
Ed
 6e-07 1 1 0
1  26 0 -9 3
2  73 6 11 -9 3
2  74 29 40 -9 3
0

0101000
+162 0 -164 0 *
Wi

0101100
-163 11 -236 11 -240 11 -190 11 +161 11 -160 0 *
Fa
0  1e-07 6 11

0101000
+159 0 *
Ve
1e-07
17.85 -6 -20
0 0

0101101
*
Ve
1e-07
1.75 -6 0
0 0

0101101
*
Ed
 1e-07 1 1 0
1  27 0 0 5.5
2  75 8 0 0 5.5
0

0101000
+157 0 -156 39 *
Ed
 1e-07 1 1 0
1  28 0 0 20
2  76 12 0 0 20
2  77 8 0 0 20
0

0101000
+157 0 -230 11 *
Ve
1e-07
1.75 -6 0
1.75 1 30 43
1.75 2 82 31 43
0 0

0101101
*
Ed
 1e-07 1 1 0
1  29 0 -0.75 1.75
2  78 29 0 -0.75 1.75
2  79 30 0 -0.75 1.75
2  80 30 41 -0.75 1.75
2  81 8 42 -0.75 1.75
0

0101000
+164 42 -153 0 *
Ed
 1e-07 1 1 0
1  31 0 0 4
2  83 30 0 0 4
2  84 8 44 0 4
0

0101000
+156 0 -153 38 *
Wi

0101100
-155 0 +154 0 +228 11 +235 11 -163 11 +152 40 -151 39 *
Fa
0  1e-07 8 0

0101000
+150 0 *
Ve
1e-07
17.85 6 -20
0 0

0101101
*
Ed
 1e-07 1 1 0
1  32 0 0 20
2  85 12 0 0 20
2  86 10 0 0 20
0

0101000
+232 11 -148 0 *
Ve
1e-07
1.75 6 0
1.75 1 34 43
1.75 2 91 31 43
0 0

0101101
*
Ed
 1e-07 1 1 0
1  33 0 -0.75 1.75
2  87 29 0 -0.75 1.75
2  88 32 0 -0.75 1.75
2  89 32 41 -0.75 1.75
2  90 10 42 -0.75 1.75
0

0101000
+162 42 -146 0 *
Ve
1e-07
1.75 6 0
0 0

0101101
*
Ed
 1e-07 1 1 0
1  35 0 0 4
2  92 32 0 0 4
2  93 10 44 0 4
0

0101000
+144 0 -146 38 *
Ed
 1e-07 1 1 0
1  36 0 0 5.5
2  94 10 0 0 5.5
0

0101000
+144 39 -148 0 *
Wi

0101100
-147 0 +231 11 +191 11 -161 11 +145 40 -143 39 +142 0 *
Fa
0  1e-07 10 0

0101000
+141 0 *
Ed
 1e-07 1 1 0
1  37 0 0 12
2  95 11 0 0 12
2  96 33 0 0 12
2  97 29 45 0 12
2  98 12 13 0 12
0

0101000
+157 13 -148 13 *
Wi

0101100
-154 0 +139 11 -147 0 -229 11 *
Fa
0  0 12 0

0111000
+138 0 *
Ve
1e-07
-1.75 -6 0
0 0

0101101
*
Ve
1e-07
-17.85 -6 -20
0 0

0101101
*
Ed
 1e-07 1 1 0
1  38 0 0 5.5
2  99 14 0 0 5.5
0

0101000
+136 46 -135 0 *
Ve
1e-07
-1.75 -6 0
-1.75 1 40 49
-1.75 2 102 35 49
0 0

0101101
*
Ed
 1e-07 1 1 0
1  39 0 0 4
2  100 34 0 0 4
2  101 14 47 0 4
0

0101000
+136 0 -133 48 *
Ve
6e-07
-20.85 -6 -16
0 0

0101101
*
Ed
 1e-07 1 1 0
1  41 0 -1.75 0.75
2  103 36 0 -1.75 0.75
2  104 34 0 -1.75 0.75
2  105 34 51 -1.75 0.75
2  106 14 52 -1.75 0.75
0

0101000
+133 0 -131 52 *
Ed
 1e-07 1 1 0
1  42 0 4 20
2  107 24 0 4 20
2  108 13 0 4 20
2  109 14 15 4 20
0

0101000
+131 15 -205 0 *
Ed
 1e-07 1 1 0
1  43 0 0 20
2  110 14 0 0 20
2  111 16 0 0 20
0

0101000
+135 0 -227 14 *
Wi

0101100
-134 0 +132 46 +130 50 +129 14 +203 14 +226 14 -128 0 *
Fa
0  1e-07 14 0

0101000
+127 0 *
Ve
1e-07
-17.85 6 -20
0 0

0101101
*
Ed
 1e-07 1 1 0
1  44 0 0 12
2  112 15 0 0 12
2  113 37 0 0 12
2  114 36 53 0 12
2  115 16 15 0 12
0

0101000
+135 15 -125 15 *
Ed
 1e-07 1 1 0
1  45 0 0 20
2  116 16 0 0 20
2  117 18 0 0 20
0

0101000
+125 0 -225 14 *
Wi

0101100
-128 0 +124 14 +123 0 -224 14 *
Fa
0  0 16 0

0111000
+122 0 *
Ve
1e-07
-1.75 6 0
0 0

0101101
*
Ed
 1e-07 1 1 0
1  46 0 0 5.5
2  118 18 0 0 5.5
0

0101000
+120 46 -125 0 *
Ve
1e-07
-1.75 6 0
-1.75 1 48 49
-1.75 2 121 35 49
0 0

0101101
*
Ed
 1e-07 1 1 0
1  47 0 0 4
2  119 38 0 0 4
2  120 18 47 0 4
0

0101000
+120 0 -118 48 *
Ve
6e-07
-20.85 6 -16
0 0

0101101
*
Ed
 1e-07 1 1 0
1  49 0 -1.75 0.75
2  122 36 0 -1.75 0.75
2  123 38 0 -1.75 0.75
2  124 38 51 -1.75 0.75
2  125 18 52 -1.75 0.75
0

0101000
+118 0 -116 52 *
Ed
 1e-07 1 1 0
1  50 0 4 20
2  126 24 0 4 20
2  127 17 0 4 20
2  128 18 15 4 20
0

0101000
+116 15 -197 0 *
Wi

0101100
-119 0 +117 46 +115 50 +114 14 +195 14 +223 14 -123 0 *
Fa
0  1e-07 18 0

0101000
+113 0 *
Ed
 1e-07 1 1 0
1  51 0 3.75 6.25
3  129 130CN 19 0 3.75 6.25
0

0101000
+221 54 -186 54 *
Wi

0101100
-185 0 +111 19 +220 0 -111 19 *
Fa
0  1e-07 19 19

0101000
+110 0 *
Ed
 1e-07 1 1 0
1  52 0 3.75 6.25
3  131 132CN 20 0 3.75 6.25
0

0101000
+218 55 -177 55 *
Wi

0101100
-176 0 +108 22 +217 0 -108 22 *
Fa
0  1e-07 20 22

0101000
+107 0 *
Ed
 1e-07 1 1 0
1  53 0 3.75 6.25
3  133 134CN 21 0 3.75 6.25
0

0101000
+215 56 -174 56 *
Wi

0101100
-173 0 +105 25 +214 0 -105 25 *
Fa
0  1e-07 21 25

0101000
+104 0 *
Ed
 1e-07 1 1 0
1  54 0 3.75 6.25
3  135 136CN 22 0 3.75 6.25
0

0101000
+212 57 -171 57 *
Wi

0101100
-170 0 +102 26 +211 0 -102 26 *
Fa
0  1e-07 22 26

0101000
+101 0 *
Ed
 1e-07 1 1 0
1  55 0 3.75 6.25
3  137 138CN 23 0 3.75 6.25
0

0101000
+209 58 -168 58 *
Wi

0101100
-167 0 +99 29 +208 0 -99 29 *
Fa
0  1e-07 23 29

0101000
+98 0 *
Ed
 6e-07 1 1 0
1  56 0 -9 3
2  139 24 14 -9 3
2  140 36 50 -9 3
0

0101000
+116 0 -131 0 *
Wi

0101100
-129 14 -204 14 -200 14 -196 14 +114 14 -96 0 *
Fa
0  1e-07 24 14

0101000
+95 0 *
Ve
1e-07
2.5 -6.12323399573677e-16 1.5
0 0

0101101
*
Ed
 1e-07 1 1 0
1  57 0 0 6.28318530717959
2  141 25 0 0 6.28318530717959
2  142 39 0 0 6.28318530717959
0

0101000
+93 0 -93 0 *
Ed
 1e-07 1 1 0
1  58 0 0 1.5
3  143 144CN 25 0 0 1.5
0

0101000
-93 0 +183 0 *
Wi

0101100
-92 0 +91 0 +182 0 -91 0 *
Fa
0  1e-07 25 0

0111000
+90 0 *
Ve
1e-07
2.5 -6.12323399573677e-16 1.5
0 0

0101101
*
Ed
 1e-07 1 1 0
1  59 0 0 6.28318530717959
2  145 27 0 0 6.28318530717959
2  146 40 0 0 6.28318530717959
0

0101000
+88 0 -88 0 *
Ed
 1e-07 1 1 0
1  60 0 0 1.5
3  147 148CN 27 0 0 1.5
0

0101000
-88 0 +180 0 *
Wi

0101100
-87 0 +86 0 +179 0 -86 0 *
Fa
0  1e-07 27 0

0111000
+85 0 *
Ve
1e-07
3.75 4 0
4 1 62 0
0 0

0101101
*
Ed
 1e-07 1 1 0
1  61 0 0 2.82842712474619
2  149 29 0 0 2.82842712474619
0

0101000
+83 0 -146 0 *
Ve
1e-07
3.75 -4 0
-4 1 63 43
-4 2 151 31 43
0 0

0101101
*
Ed
 1e-07 1 1 0
1  62 0 -4 4
2  150 29 0 -4 4
0

0101000
+81 0 -83 0 *
Ed
 1e-07 1 1 0
1  64 0 0 2.82842712474619
2  152 29 0 0 2.82842712474619
0

0101000
+153 0 -81 0 *
Wi

0101100
+160 0 -145 40 +82 40 +80 40 +79 40 +152 40 *
Ve
1.0000000041638e-07
24.45 -4.163799117101e-16 -16
0 0

0101101
*
Ed
 1e-07 1 1 0
1  65 0 0 6.28318530717959
2  153 29 40 0 6.28318530717959
2  154 41 61 0 6.28318530717959
0

0101100
+77 0 -77 0 *
Wi

0101100
-76 0 *
Fa
0  1e-07 29 40

0101000
+78 0 +75 0 *
Ed
 1e-07 1 1 0
1  64 0 0 2.82842712474619
2  152 29 0 0 2.82842712474619
0

0101000
+156 0 -81 0 *
Ed
 1e-07 1 1 0
1  61 0 0 2.82842712474619
2  149 29 0 0 2.82842712474619
0

0101000
+83 0 -144 0 *
Wi

0101100
-139 11 +155 0 +73 39 +80 39 +72 39 +142 0 *
Ve
1.0000000041638e-07
24.45 -4.163799117101e-16 -20
0 0

0101101
*
Ed
 1e-07 1 1 0
1  66 0 0 6.28318530717959
2  155 29 39 0 6.28318530717959
2  156 41 61 0 6.28318530717959
0

0101100
+70 0 -70 0 *
Wi

0101100
-69 0 *
Fa
0  0 42 0

0111000
+71 0 +68 0 *
Ed
 1e-07 1 1 0
1  67 0 0 4
0

0101000
+81 0 -81 38 *
Wi

0101100
+151 0 -66 0 -73 0 +79 38 *
Fa
0  1e-07 43 0

0101000
+65 0 *
Ed
 1e-07 1 1 0
1  68 0 0 4
0

0101000
+83 0 -83 38 *
Wi

0101100
+63 0 -143 0 -72 0 +82 38 *
Fa
0  1e-07 44 0

0101000
+62 0 *
Ve
1e-07
-3.75 4 0
4 1 70 0
0 0

0101101
*
Ed
 1e-07 1 1 0
1  69 0 0 2.82842712474619
2  157 36 0 0 2.82842712474619
0

0101000
+60 0 -120 0 *
Ve
1e-07
-3.75 -4 0
-4 1 71 49
-4 2 159 35 49
0 0

0101101
*
Ed
 1e-07 1 1 0
1  70 0 -4 4
2  158 36 0 -4 4
0

0101000
+58 0 -60 0 *
Ed
 1e-07 1 1 0
1  72 0 0 2.82842712474619
2  160 36 0 0 2.82842712474619
0

0101000
+58 0 -136 0 *
Wi

0101100
-119 0 -59 46 -57 46 +56 46 +134 0 +124 14 *
Ve
1.0000000041638e-07
-21.05 -4.163799117101e-16 -20
0 0

0101101
*
Ed
 1e-07 1 1 0
1  73 0 0 6.28318530717959
2  161 36 46 0 6.28318530717959
2  162 46 64 0 6.28318530717959
0

0101100
+54 0 -54 0 *
Wi

0101100
-53 0 *
Fa
0  0 45 0

0111000
+55 0 +52 0 *
Ed
 1e-07 1 1 0
1  74 0 0 4
0

0101000
+58 0 -58 48 *
Ed
 1e-07 1 1 0
1  72 0 0 2.82842712474619
2  160 36 0 0 2.82842712474619
0

0101000
+58 0 -133 0 *
Wi

0101100
+50 0 -132 0 -56 0 +49 48 *
Fa
0  1e-07 47 0

0101000
+48 0 *
Ed
 1e-07 1 1 0
1  69 0 0 2.82842712474619
2  157 36 0 0 2.82842712474619
0

0101000
+60 0 -118 0 *
Wi

0101100
-57 50 -46 50 -115 50 -96 0 +130 50 +49 50 *
Ve
1.0000000041638e-07
-21.05 -4.163799117101e-16 -16
0 0

0101101
*
Ed
 1e-07 1 1 0
1  75 0 0 6.28318530717959
2  163 36 50 0 6.28318530717959
2  164 46 64 0 6.28318530717959
0

0101100
+44 0 -44 0 *
Wi

0101100
-43 0 *
Fa
0  1e-07 36 50

0101000
+45 0 +42 0 *
Ed
 1e-07 1 1 0
1  76 0 0 4
0

0101000
+60 0 -60 48 *
Wi

0101100
+40 0 -117 0 -59 0 +46 48 *
Fa
0  1e-07 48 0

0101000
+39 0 *
Wi

0101100
+92 32 *
Ve
1e-07
0.8 -1.95943487863577e-16 3.5
0 0

0101101
*
Ed
 1e-07 1 1 0
1  77 0 0 6.28318530717959
2  165 49 0 0 6.28318530717959
2  166 50 0 0 6.28318530717959
2  167 39 68 0 6.28318530717959
0

0101000
+36 0 -36 0 *
Wi

0101100
-35 67 *
Fa
0  1e-07 39 32

0101000
+37 0 +34 0 *
Wi

0101100
+87 36 *
Ve
1e-07
0.8 -1.95943487863577e-16 3.5
0 0

0101101
*
Ed
 1e-07 1 1 0
1  78 0 0 6.28318530717959
2  168 51 0 0 6.28318530717959
2  169 52 0 0 6.28318530717959
2  170 40 72 0 6.28318530717959
0

0101000
+31 0 -31 0 *
Wi

0101100
-30 71 *
Fa
0  1e-07 40 36

0101000
+32 0 +29 0 *
Wi

0101100
+66 0 -63 0 -80 0 +80 38 *
Fa
0  1e-07 53 0

0101000
+27 0 *
Ed
 1e-07 1 1 0
1  79 0 2 6
3  171 172CN 41 0 2 6
0

0101000
+70 73 -77 73 *
Wi

0101100
-76 0 +25 61 +69 0 -25 61 *
Fa
0  1e-07 41 61

0101000
+24 0 *
Wi

0101100
+50 0 -40 0 -57 0 +57 48 *
Fa
0  1e-07 54 0

0101000
+22 0 *
Ed
 1e-07 1 1 0
1  80 0 2 6
3  173 174CN 46 0 2 6
0

0101000
+54 74 -44 74 *
Wi

0101100
-43 0 +20 64 +53 0 -20 64 *
Fa
0  1e-07 46 64

0101000
+19 0 *
Ve
1e-07
-4.305 -13.97 2.5
0 0

0101101
*
Ed
 1e-07 1 1 0
1  81 0 2 3.5
3  175 176CN 49 0 2 3.5
0

0101000
+17 75 -36 0 *
Ed
 1e-07 1 1 0
1  82 0 0 6.28318530717959
2  177 26 32 0 6.28318530717959
2  178 49 67 0 6.28318530717959
2  179 5 3 0 6.28318530717959
0

0101100
+17 0 -17 0 *
Wi

0101100
+16 67 +15 0 -16 67 -35 67 *
Fa
0  1e-07 49 67

0101000
+14 0 *
Ve
1e-07
5.905 -13.97 2.5
0 0

0101101
*
Ed
 1e-07 1 1 0
1  83 0 2 3.5
3  180 181CN 51 0 2 3.5
0

0101000
+12 76 -31 0 *
Ed
 1e-07 1 1 0
1  84 0 0 6.28318530717959
2  182 28 36 0 6.28318530717959
2  183 51 71 0 6.28318530717959
2  184 5 3 0 6.28318530717959
0

0101100
+12 0 -12 0 *
Wi

0101100
+11 71 +10 0 -11 71 -30 71 *
Fa
0  1e-07 51 71

0101000
+9 0 *
Wi

0101100
+15 0 *
Fa
0  1e-07 5 3

0101000
+7 0 *
Wi

0101100
+10 0 *
Fa
0  1e-07 5 3

0101000
+5 0 *
Sh

0101100
+241 0 -238 0 +233 0 -206 0 +201 0 -198 0 +193 0 +188 0 +165 0 +158 0 
-149 0 +140 0 -137 0 -126 0 +121 0 +112 0 -109 0 -106 0 -103 0 -100 0 
-97 0 -94 0 +89 32 +84 36 +74 0 -67 0 -64 39 -61 39 -51 0 -47 46 
+41 0 +38 46 +33 0 +28 0 -26 39 -23 0 +21 46 -18 0 -13 0 -8 0 
+6 0 +4 0 *
So

0100000
+3 0 *
Co

1100000
+2 0 *

+1 0 