DBRep_DrawableShape

CASCADE Topology V3, (c) Open Cascade
Locations 81
1
              1               0               0              -0 
              0               1               0              -0 
              0               0               1               0 
1
              1               0               0           -2.25 
              0               1               0              -6 
              0               0               1          -11.85 
1
              1               0               0            23.1 
              0               1               0               0 
              0               0               1           -8.35 
2  2 1 3 1 0
1
              1               0               0              -0 
              0               1               0              -0 
              0               0               1               0 
1
              1               0               0               0 
              0               1               0               0 
              0               0               1            23.7 
1
              1               0               0               0 
              0               1               0               0 
              0               0               1           -20.2 
2  5 1 6 1 7 1 0
1
              1               0               0           -2.25 
              0               1               0              -6 
              0               0               1          -11.85 
1
              1               0               0           -23.1 
              0               1               0               0 
              0               0               1           -8.35 
2  9 1 10 1 0
1
              1               0               0            -1.5 
              0               1               0              -9 
              0               0               1          -11.85 
1
              1               0               0          -19.35 
              0               1               0               0 
              0               0               1           -8.35 
2  12 1 13 1 0
1
              1               0               0            -1.5 
              0               1               0              -9 
              0               0               1          -11.85 
1
              1               0               0           19.35 
              0               1               0               0 
              0               0               1           -8.35 
2  15 1 16 1 0
1
              1               0               0              -0 
              0               1               0              -0 
              0               0               1           -5.25 
1
              1               0               0             -13 
              0               1               0             -13 
              0               0               1               0 
2  18 1 19 1 0
1
              1               0               0              -0 
              0               1               0              -0 
              0               0               1           -5.25 
1
              1               0               0              13 
              0               1               0             -13 
              0               0               1               0 
2  21 1 22 1 0
1
              1               0               0              -0 
              0               1               0              -0 
              0               0               1           -5.25 
1
              1               0               0             -13 
              0               1               0              13 
              0               0               1               0 
2  24 1 25 1 0
1
              1               0               0              -0 
              0               1               0              -0 
              0               0               1           -5.25 
1
              1               0               0              -0 
              0               1               0              -0 
              0               0               1           -5.25 
1
              1               0               0              13 
              0               1               0              13 
              0               0               1               0 
2  28 1 29 1 0
2  3 -1 2 -1 0
2  5 1 6 1 7 1 3 -1 2 -1 0
2  15 1 16 1 3 -1 2 -1 0
2  5 1 7 1 3 -1 2 -1 0
2  5 -1 0
2  6 -1 5 -1 0
2  7 -1 6 -1 5 -1 0
1
              1               0               0            -4.5 
              0               1               0            -3.5 
              0               0               1            -9.6 
1
              1               0               0           27.25 
              0               1               0               0 
              0               0               1            -5.1 
2  38 1 39 1 0
1
              1               0               0              -0 
              0               1               0              -0 
              0               0               1            -9.6 
1
              1               0               0           22.75 
              0               1               0               0 
              0               0               1            -5.1 
2  41 1 42 1 0
2  10 -1 9 -1 0
2  5 1 6 1 7 1 10 -1 9 -1 0
1
              1               0               0            -4.5 
              0               1               0            -3.5 
              0               0               1            -9.6 
1
              1               0               0          -27.25 
              0               1               0               0 
              0               0               1            -5.1 
2  46 1 47 1 0
1
              1               0               0               0 
              0               1               0               0 
              0               0               1             3.5 
2  1 1 49 1 0
2  12 1 13 1 10 -1 9 -1 0
2  5 1 7 1 10 -1 9 -1 0
2  13 -1 12 -1 0
2  5 1 7 1 13 -1 12 -1 0
2  9 1 10 1 13 -1 12 -1 0
2  16 -1 15 -1 0
2  5 1 7 1 16 -1 15 -1 0
2  2 1 3 1 16 -1 15 -1 0
2  19 -1 18 -1 0
2  22 -1 21 -1 0
2  25 -1 24 -1 0
2  27 -1 0
2  29 -1 28 -1 0
2  5 1 7 1 0
2  7 -1 5 -1 0
1
              1               0               0              -0 
              0               1               0              -0 
              0               0               1           -8.25 
1
              1               0               0           22.75 
              0               1               0               0 
              0               0               1          -17.45 
2  66 1 67 1 0
2  39 -1 38 -1 0
2  41 1 42 1 39 -1 38 -1 0
2  42 -1 41 -1 0
2  38 1 39 1 42 -1 41 -1 0
2  47 -1 46 -1 0
1
              1               0               0              -0 
              0               1               0              -0 
              0               0               1            -9.6 
1
              1               0               0          -22.75 
              0               1               0               0 
              0               0               1            -5.1 
2  74 1 75 1 47 -1 46 -1 0
1
              1               0               0              -0 
              0               1               0              -0 
              0               0               1           -8.25 
1
              1               0               0          -22.75 
              0               1               0               0 
              0               0               1          -17.45 
2  77 1 78 1 0
2  67 -1 66 -1 0
2  78 -1 77 -1 0
Curve2ds 312
1 3.406695718183141 0 1 0 
2 1.9108333729808534e-15 -1.9314363361221341e-15 -0.96506550218340625 -0.26200873362445393 0.26200873362445393 -0.96506550218340625 22.899999999999999
8 -3.5000024000000001 2.3999999999999999e-06
1 6.0180822425862379 0 0 1 
8 -3.5000024000000001 2.3999999999999999e-06
1 20.199999999999999 1.2499999999999964 -1 0 
1 9.1596748961760195 -3.5 -1 -0 
2 1.9108333729808534e-15 -1.9314363361221341e-15 -0.96506550218340303 0.26200873362446564 0.26200873362446564 0.96506550218340303 22.899999999999999
2 1.9108333729808534e-15 -1.9314363361221341e-15 -0.96506550218340303 0.26200873362446564 0.26200873362446564 0.96506550218340303 22.899999999999999
2 1.7160033035788841e-15 -6.7505352430363358e-16 -0.96506550218340303 0.26200873362446564 0.26200873362446564 0.96506550218340303 22.899999999999999
8 -3.5000024000000001 2.3999999999999999e-06
1 3.406695718183141 0 0 1 
8 -3.5000024000000001 2.3999999999999999e-06
1 20.199999999999999 3.2500000000000036 -1 0 
8 -3.5 -0
1 3.406695718183141 0 0 1 
8 8.1749999999999989 10.224999999999994
1 -12.675000000000001 -6.0000000000000018 -1 0 
8 8.1749999999999989 10.224999999999994
1 20.199999999999999 12.674999999999999 0 -1 
8 -4.5000000000000009 -1.5000000000000009
1 -20.849999999999998 -4.5000000000000009 0 1 
8 -4.5000000000000009 -1.5000000000000009
1 20.199999999999999 -4.5000000000000009 0 -1 
8 7.4249999999999989 10.424999999999999
1 -10.425000000000001 -9.0000000000000018 -1 0 
8 7.4249999999999989 10.424999999999999
1 20.199999999999999 10.424999999999999 0 -1 
8 -4.5000000000000009 13.5
1 -17.849999999999998 -4.5000000000000009 0 1 
8 -4.5000000000000009 13.5
1 20.199999999999999 -4.5000000000000009 0 -1 
8 7.4249999999999989 10.424999999999999
1 -10.425000000000001 8.9999999999999982 -1 0 
8 7.4249999999999989 10.424999999999999
1 20.199999999999999 10.424999999999999 0 -1 
8 10.5 13.5
1 -20.849999999999998 -4.5000000000000009 0 1 
8 10.5 13.5
1 20.199999999999999 -4.5000000000000009 0 -1 
8 8.1749999999999989 10.224999999999994
1 -12.675000000000001 5.9999999999999982 -1 0 
8 8.1749999999999989 10.224999999999994
1 20.199999999999999 12.674999999999999 0 -1 
8 -12.475000000000001 -10.425000000000002
1 10.425000000000001 5.9999999999999982 -1 0 
8 -12.475000000000001 -10.425000000000002
1 20.199999999999999 -10.425000000000002 0 -1 
8 10.5 13.5
1 20.850000000000005 -4.5000000000000009 0 1 
8 10.5 13.5
1 20.199999999999999 -4.5000000000000009 0 -1 
8 -11.925000000000002 -8.9250000000000025
1 8.9250000000000007 8.9999999999999982 -1 0 
8 -11.925000000000002 -8.9250000000000025
1 20.199999999999999 -8.9250000000000025 0 -1 
8 -4.5000000000000009 13.5
1 17.850000000000005 -4.5000000000000009 0 1 
8 -4.5000000000000009 13.5
1 20.199999999999999 -4.5000000000000009 0 -1 
8 -11.925000000000002 -8.9250000000000025
1 8.9250000000000007 -9.0000000000000018 -1 0 
8 -11.925000000000002 -8.9250000000000025
1 20.199999999999999 -8.9250000000000025 0 -1 
8 -4.5000000000000009 -1.5000000000000009
1 20.850000000000005 -4.5000000000000009 0 1 
8 -4.5000000000000009 -1.5000000000000009
1 20.199999999999999 -4.5000000000000009 0 -1 
8 -12.475000000000001 -10.425000000000002
1 10.425000000000001 -6.0000000000000018 -1 0 
8 -12.475000000000001 -10.425000000000002
1 20.199999999999999 -10.425000000000002 0 -1 
2 -12.999999999999998 -13.000000000000002 1 0 -0 1 1.7
1 0 5.25 1 0 
2 13.000000000000002 -13.000000000000002 1 0 -0 1 1.7
1 0 5.25 1 0 
2 -12.999999999999998 12.999999999999998 1 0 -0 1 1.7
1 0 5.25 1 0 
2 1.9108333729808534e-15 -1.9314363361221341e-15 1 0 -0 1 11.300000000000001
1 0 5.25 1 0 
2 13.000000000000002 12.999999999999998 1 0 -0 1 1.7
1 0 5.25 1 0 
1 23.699999999999999 0 0 1 
1 0 0 1 0 
1 3 3 1 0 
1 20.850000000000005 -6.0000000000000018 1 0 
1 20.850000000000001 -6.0000000000000009 1 0 
1 0 0 1 0 
1 0 0 1 0 
1 0 -3 1 0 
1 0 0 0 1 
1 0 0 1 0 
1 3 3 1 0 
1 20.850000000000001 -6.0000000000000009 1 0 
8 -23.700000599999999 5.999999999062311e-07
1 0 3.934067462787457 -1 0 
8 -23.700000599999999 5.999999999062311e-07
1 6.0456641363981403 0 0 1 
2 1.9108333729808534e-15 -1.9314363361221341e-15 -0.96506550218340303 0.26200873362446564 0.26200873362446564 0.96506550218340303 22.899999999999999
2 1.7160033035788841e-15 -6.7505352430363358e-16 -0.96506550218340303 0.26200873362446564 0.26200873362446564 0.96506550218340303 22.899999999999999
1 23.699999999999999 0 0 1 
1 0 12 1 0 
1 3 15 1 0 
1 20.850000000000005 5.9999999999999982 1 0 
1 20.850000000000001 5.9999999999999991 1 0 
1 0 0 1 0 
1 0 -23.699999999999999 1 0 
2 1.7160033035788841e-15 -6.7505352430363358e-16 1 0 -0 1 25.5
2 1.9108333729808534e-15 -1.9314363361221341e-15 1 0 -0 1 25.5
8 -13.975000000000005 -11.375000000000002
1 11.375 3.4999999999999982 -1 0 
8 -13.975000000000005 -11.375000000000002
1 18.199999999999999 -11.375000000000002 0 -1 
1 11.375 3.4999999999999991 -1 0 
2 22.750000000000004 -1.9314363361221341e-15 1 0 -0 1 3.5
1 0 18.199999999999999 1 0 
2 22.75 -6.7505352430363358e-16 1 0 -0 1 3.5
8 -13.975000000000005 -11.375000000000002
1 11.375 -3.5000000000000018 -1 0 
8 -13.975000000000005 -11.375000000000002
1 18.199999999999999 -11.375000000000002 0 -1 
1 11.375 -3.5000000000000009 -1 0 
2 1.9108333729808534e-15 -1.9314363361221341e-15 1 0 -0 1 25.5
1 23.699999999999999 0 0 1 
1 0 0 1 0 
1 -4.5 3 1 0 
1 -25.349999999999998 -6.0000000000000018 1 0 
1 -25.349999999999998 -6.0000000000000018 1 0 
1 -25.350000000000001 -6.0000000000000009 1 0 
2 1.9108333729808534e-15 -1.9314363361221341e-15 1 0 -0 1 25.5
8 6.8749999999999982 9.4749999999999979
1 -15.875 -3.5000000000000018 -1 0 
8 6.8749999999999982 9.4749999999999979
1 18.199999999999999 15.874999999999998 0 -1 
1 -15.875 -3.5000000000000018 -1 0 
1 -15.875 -3.5000000000000009 -1 0 
2 -22.749999999999996 -1.9314363361221341e-15 1 0 -0 1 3.5
1 0 18.199999999999999 1 0 
2 -22.749999999999996 -1.9314363361221341e-15 1 0 -0 1 3.5
2 -22.75 -6.7505352430363358e-16 1 0 -0 1 3.5
8 6.8749999999999982 9.4749999999999979
1 -15.875 3.4999999999999982 -1 0 
8 6.8749999999999982 9.4749999999999979
1 18.199999999999999 15.874999999999998 0 -1 
1 -15.875 3.4999999999999982 -1 0 
1 -15.875 3.4999999999999991 -1 0 
2 1.9108333729808534e-15 -1.9314363361221341e-15 1 0 -0 1 25.5
1 23.699999999999999 0 0 1 
1 0 12 1 0 
1 -4.5 15 1 0 
1 -25.349999999999998 5.9999999999999982 1 0 
1 -25.349999999999998 5.9999999999999982 1 0 
1 -25.350000000000001 5.9999999999999991 1 0 
2 -12.999999999999998 -13.000000000000002 1 0 -0 1 1.7
1 0 8.75 1 0 
2 -12.999999999999998 -13.000000000000002 1 0 -0 1 1.6999999999999993
2 -12.999999999999998 -13.000000000000002 1 0 -0 1 1.6999999999999993
2 -12.999999999999998 -13 1 0 -0 1 1.6999999999999993
2 13.000000000000002 -13.000000000000002 1 0 -0 1 1.7
1 0 8.75 1 0 
2 13.000000000000002 -13.000000000000002 1 0 -0 1 1.6999999999999993
2 13.000000000000002 -13.000000000000002 1 0 -0 1 1.6999999999999993
2 13.000000000000002 -13 1 0 -0 1 1.6999999999999993
2 -12.999999999999998 12.999999999999998 1 0 -0 1 1.7
1 0 8.75 1 0 
2 -12.999999999999998 12.999999999999998 1 0 -0 1 1.6999999999999993
2 -12.999999999999998 12.999999999999998 1 0 -0 1 1.6999999999999993
2 -12.999999999999998 13 1 0 -0 1 1.6999999999999993
2 1.9108333729808534e-15 -1.9314363361221341e-15 1 0 -0 1 11.300000000000001
1 0 8.75 1 0 
2 1.9108333729808534e-15 -1.9314363361221341e-15 1 0 -0 1 11.300000000000001
2 1.9108333729808534e-15 -1.9314363361221341e-15 1 0 -0 1 11.300000000000001
2 1.7160033035788841e-15 -6.7505352430363358e-16 1 0 -0 1 11.300000000000001
2 13.000000000000002 12.999999999999998 1 0 -0 1 1.7
1 0 8.75 1 0 
2 13.000000000000002 12.999999999999998 1 0 -0 1 1.6999999999999993
2 13.000000000000002 12.999999999999998 1 0 -0 1 1.6999999999999993
2 13.000000000000002 13 1 0 -0 1 1.6999999999999993
1 0 0 1 0 
1 0 4.5 1 0 
1 0 -3 1 0 
8 -23.700000599999999 5.999999999062311e-07
1 0 0.565932537212543 -1 0 
8 -23.700000599999999 5.999999999062311e-07
1 3.3791138243712391 0 0 1 
1 0 0 0 1 
1 0 0 1 0 
1 -4.5 3 1 0 
1 -25.350000000000001 -6.0000000000000009 1 0 
1 0 0 0 -1 
1 0 0 0 1 
1 0 0 0 1 
1 -20.850000000000001 -9 0 1 
1 0 0 1 0 
1 0 0 1 0 
1 0 0 1 0 
1 0 3 1 0 
1 0 0 0 1 
1 0 0 1 0 
1 0 0 1 0 
1 -20.850000000000001 -9 1 0 
1 0 -18 1 0 
1 0 3 1 0 
1 0 0 0 -1 
1 3 0 0 1 
1 3 0 0 1 
1 -17.850000000000001 -9 0 1 
1 0 -18 1 0 
1 0 0 1 0 
1 0 0 0 1 
1 0 18 1 0 
1 0 18 1 0 
1 -20.850000000000001 9 1 0 
1 0 0 0 1 
1 -20.850000000000001 -9 0 1 
1 0 -12 1 0 
1 0 4.5 1 0 
1 0 -15 1 0 
8 -3.5000024000000001 2.3999999999999999e-06
1 2.8764895889964452 0 0 1 
8 -3.5000024000000001 2.3999999999999999e-06
1 20.199999999999999 3.2500000000000036 -1 0 
8 -3.5 0
1 9.1596748961760319 0 0 1 
8 -23.700000599999999 5.999999999062311e-07
1 0 0.565932537212543 -1 0 
8 -23.700000599999999 5.999999999062311e-07
1 2.9040714828083471 0 0 1 
1 0 0 0 1 
1 0 12 1 0 
1 -4.5 15 1 0 
1 -25.350000000000001 5.9999999999999991 1 0 
8 -3.5000024000000001 2.3999999999999999e-06
1 6.5482883717729345 0 0 1 
8 -3.5000024000000001 2.3999999999999999e-06
1 20.199999999999999 1.2499999999999964 -1 0 
1 0 -12 1 0 
1 0 0 1 0 
1 0 -15 1 0 
1 0 0 0 1 
1 0 12 1 0 
1 3 15 1 0 
1 20.850000000000001 5.9999999999999991 1 0 
8 -23.700000599999999 5.999999999062311e-07
1 0 3.934067462787457 -1 0 
8 -23.700000599999999 5.999999999062311e-07
1 0.23752117078144624 0 0 1 
1 0 -18 1 0 
1 0 3 1 0 
1 0 0 0 -1 
1 3 0 0 1 
1 3 0 0 1 
1 20.850000000000001 -9 0 1 
1 0 -18 1 0 
1 0 0 1 0 
1 0 0 0 1 
1 0 18 1 0 
1 0 18 1 0 
1 17.850000000000001 9 1 0 
1 0 0 1 0 
1 0 0 1 0 
1 0 0 0 -1 
1 0 0 0 1 
1 0 0 0 1 
1 17.850000000000001 -9 0 1 
1 0 0 1 0 
1 0 3 1 0 
1 0 0 0 1 
1 0 0 1 0 
1 0 0 1 0 
1 17.850000000000001 -9 1 0 
1 3 0 0 1 
1 20.850000000000001 -9 0 1 
1 6.2831853071795862 -0 0 1 
1 0 -0 0 1 
1 6.2831853071795862 -0 0 1 
1 0 -0 0 1 
1 6.2831853071795862 -0 0 1 
1 0 -0 0 1 
1 6.2831853071795862 -0 0 1 
1 0 -0 0 1 
1 6.2831853071795862 -0 0 1 
1 0 -0 0 1 
2 -17.850000000000001 9 1 0 -0 1 25.5
1 0 0 0 -1 
1 4.5 0 0 1 
1 7.5 3 0 1 
1 25.350000000000001 -6.0000000000000009 0 1 
2 -17.850000000000001 9 1 0 -0 1 25.5
2 4.8999999999999986 9 1 0 -0 1 1.7
1 0 5.5 1 0 
2 22.75 -6.7505352430363358e-16 1 0 -0 1 1.6999999999999993
8 -23.700000599999999 5.999999999062311e-07
1 0 -3.2382071040717153 -1 0 
8 -23.700000599999999 5.999999999062311e-07
1 6.1746668385459156 0 0 1 
2 -22.75 0 1 0 0 -1 25.5
1 6.2831853071795862 -5.5 -1 0 
8 -23.700000599999999 -3.6799999999999997
1 -5.5 2.5086618806301786 -1 0 
8 -23.700000599999999 -3.6799999999999997
1 6.1454957548753573 0 0 1 
8 -23.700000599999999 -3.6799999999999997
1 -5.5 2.5086618806301786 -1 0 
8 -23.700000599999999 -3.6799999999999997
1 0.1376895523042288 0 0 1 
2 -22.75 0 1 0 0 -1 25.5
1 6.2831853071795862 -5.5 -1 0 
8 -23.700000599999999 5.999999999062311e-07
1 0 -8.7617928959282843 -1 0 
8 -23.700000599999999 5.999999999062311e-07
1 0.10851846863367043 0 0 1 
1 0 0 0 1 
1 0 7 1 0 
1 0 3.5 1 0 
1 0 -7 1 0 
1 0 0 1 0 
1 1.5707963267948966 0 0 1 
1 0 0 1 0 
1 0 0 1 0 
1 4.7123889803846897 0 0 1 
1 0 0 1 0 
2 0 0 1 0 -0 1 3.5
2 0 0 1 0 -0 1 3.5
1 0 0 0 1 
1 0 0 1 0 
1 0 -3.5 1 0 
8 -23.700000599999999 -3.6799999999999997
1 -5.5 6.4913381193698214 -1 0 
8 -23.700000599999999 -3.6799999999999997
1 3.2792822058940216 0 0 1 
2 22.75 0 1 0 0 -1 25.5
1 6.2831853071795862 -5.5 -1 0 
8 -23.700000599999999 5.999999999062311e-07
1 0 -3.2382071040717153 -1 0 
8 -23.700000599999999 5.999999999062311e-07
1 3.2501111222234633 0 0 1 
2 20.850000000000001 9 1 0 -0 1 25.5
1 0 0 0 1 
1 0 0 1 0 
1 -9 -3.5 1 0 
1 0 0 1 0 
1 0 9 1 0 
1 4.7123889803846897 0 0 1 
8 0 19.199999999999999
1 4.7123889803846897 0 0 1 
1 0 -7 1 0 
1 0 9 1 0 
1 1.5707963267948966 0 0 1 
8 0 19.199999999999999
1 7.8539816339744828 0 0 1 
1 4.7123889803846897 0 1 0 
2 0 0 0 -1 1 0 3.5
1 0 0 0 1 
1 0 7 1 0 
1 -9 3.5 1 0 
8 -23.700000599999999 -3.6799999999999997
1 -5.5 6.4913381193698214 -1 0 
8 -23.700000599999999 -3.6799999999999997
1 3.0039031012855646 0 0 1 
2 20.850000000000001 9 1 0 -0 1 25.5
8 -23.700000599999999 5.999999999062311e-07
1 0 -8.7617928959282843 -1 0 
8 -23.700000599999999 5.999999999062311e-07
1 3.0330741849561229 0 0 1 
1 0 0 0 -1 
1 0 0 0 1 
1 -4.5 3 0 1 
1 -25.350000000000001 -6.0000000000000009 0 1 
2 -1.8999999999999986 9 1 0 -0 1 1.7
1 0 5.5 1 0 
2 -22.75 -6.7505352430363358e-16 1 0 -0 1 1.6999999999999993
8 -6.5 0.5
1 5.5 -3 0 1 
8 -6.5 0.5
1 2.6000000000000014 -3 0 -1 
2 0 0 1 0 -0 1 1.7
1 0 11 1 0 
1 6.2831853071795862 -0 0 1 
1 0 -0 0 1 
8 -6.5 0.5
1 5.5 -3 0 1 
8 -6.5 0.5
1 -2.6000000000000014 -3 0 -1 
2 0 0 1 0 -0 1 1.7
1 0 11 1 0 
1 6.2831853071795862 -0 0 1 
1 0 -0 0 1 
Curves 105
8 0 5.7529791779928905
2 0 0 0 0 0 1 -0.96506550218340625 -0.26200873362445393 0 0.26200873362445393 -0.96506550218340625 0 22.899999999999999
1 22.099999999999998 -6 0 -0 -0 -1 
8 0 5.7529791779928665
2 0 0 3.5 0 0 -1 -0.96506550218340303 0.26200873362446564 0 0.26200873362446564 0.96506550218340303 0 22.899999999999999
1 -22.099999999999998 -6 0 -0 -0 -1 
1 -12.675000000000002 -6 0 -1 -0 0 
1 -20.850000000000001 -4.4999999999999991 0 -0 1 0 
1 -10.425000000000002 -9 0 -1 -0 0 
1 -17.850000000000001 -4.4999999999999991 0 -0 1 0 
1 -10.425000000000002 9 0 -1 -0 0 
1 -20.850000000000001 -4.4999999999999991 0 -0 1 0 
1 -12.675000000000002 6 0 -1 -0 0 
1 10.424999999999999 6 0 -1 -0 0 
1 20.850000000000001 -4.4999999999999991 0 -0 1 0 
1 8.9249999999999989 9 0 -1 -0 0 
1 17.850000000000001 -4.4999999999999991 0 -0 1 0 
1 8.9249999999999989 -9 0 -1 -0 0 
1 20.850000000000001 -4.4999999999999991 0 -0 1 0 
1 10.424999999999999 -6 0 -1 -0 0 
2 -13 -13 0 0 0 1 1 0 -0 -0 1 0 1.7
2 13 -13 0 0 0 1 1 0 -0 -0 1 0 1.7
2 -13 13 0 0 0 1 1 0 -0 -0 1 0 1.7
2 0 0 0 0 0 1 1 0 -0 -0 1 0 11.300000000000001
2 13 13 0 0 0 1 1 0 -0 -0 1 0 1.7
1 0 0 23.699999999999999 1 0 -0 
1 0 0 0 0 0 1 
1 0 0 0 1 0 -0 
1 24.784067462787458 -6 -20.199999999999999 -0 -0 -1 
1 0 12 23.699999999999999 1 0 -0 
2 0 0 0 0 0 1 1 0 -0 -0 1 0 25.5
1 11.374999999999998 3.5 3.5 -1 -0 0 
2 22.75 0 3.5 0 0 1 1 0 -0 -0 1 0 3.5
1 11.374999999999998 -3.5 3.5 -1 -0 0 
1 0 0 23.699999999999999 1 0 -0 
1 -15.875000000000002 -3.5 3.5 -1 -0 0 
2 -22.75 0 3.5 0 0 1 1 0 -0 -0 1 0 3.5
1 -15.875000000000002 3.5 3.5 -1 -0 0 
1 0 12 23.699999999999999 1 0 -0 
2 -13 -13 3.5 0 0 1 1 0 -0 -0 1 0 1.7
2 13 -13 3.5 0 0 1 1 0 -0 -0 1 0 1.7
2 -13 13 3.5 0 0 1 1 0 -0 -0 1 0 1.7
2 0 0 3.5 0 0 1 1 0 -0 -0 1 0 11.300000000000001
2 13 13 3.5 0 0 1 1 0 -0 -0 1 0 1.7
1 4.5 0 0 0 0 1 
1 -24.784067462787458 -6 -20.199999999999999 -0 -0 -1 
1 0 0 0 1 0 -0 
1 0 0 0 -0 1 0 
1 0 0 0 0 0 1 
1 3 0 0 0 0 1 
1 0 0 0 1 0 -0 
1 3 18 0 0 0 1 
1 3 0 0 -0 1 0 
1 0 18 0 0 0 1 
1 0 18 0 1 0 -0 
1 4.5 12 0 0 0 1 
1 -22.099999999999998 6 0 -0 -0 -1 
1 -24.784067462787458 6 -20.199999999999999 -0 -0 -1 
1 0 12 0 1 0 -0 
1 22.099999999999998 6 0 -0 -0 -1 
1 0 12 0 0 0 1 
1 0 12 0 1 0 -0 
1 24.784067462787458 6 -20.199999999999999 -0 -0 -1 
1 3 18 0 0 0 1 
1 3 0 0 -0 1 0 
1 0 18 0 0 0 1 
1 0 18 0 1 0 -0 
1 0 0 0 0 0 1 
1 0 0 0 -0 1 0 
1 3 0 0 0 0 1 
1 0 0 0 1 0 -0 
1 1.7 -4.1637991171010006e-16 0 0 0 1 
1 1.7 -4.1637991171010006e-16 0 0 0 1 
1 1.7 -4.1637991171010006e-16 0 0 0 1 
1 11.300000000000001 -2.7677017660730185e-15 0 0 0 1 
1 1.7 -4.1637991171010006e-16 0 0 0 1 
1 4.5 0 0 -0 1 0 
2 22.75 0 -20.199999999999999 0 0 1 1 0 -0 -0 1 0 1.7
1 25.350000000000001 -2.7617928959282847 -20.199999999999999 -0 -0 -1 
2 0 0 -14.699999999999999 0 -0 -1 1 0 -0 0 -1 0 25.5
1 25.258661880630179 -3.5 -20.199999999999999 -0 -0 -1 
1 25.258661880630179 3.5 -20.199999999999999 -0 -0 -1 
2 0 0 -14.699999999999999 0 -0 -1 1 0 -0 0 -1 0 25.5
1 25.350000000000001 2.7617928959282847 -20.199999999999999 -0 -0 -1 
1 0 7 0 1 0 -0 
1 0 7 0 0 0 1 
1 0 0 0 0 0 1 
2 0 0 0 0 0 1 1 0 -0 -0 1 0 3.5
1 0 0 0 1 0 -0 
1 -25.258661880630179 -3.5 -20.199999999999999 -0 -0 -1 
2 0 0 -14.699999999999999 0 -0 -1 1 0 -0 0 -1 0 25.5
1 -25.350000000000001 -2.7617928959282847 -20.199999999999999 -0 -0 -1 
1 0 0 0 1 0 -0 
1 9 0 0 0 0 1 
1 9 7 0 0 0 1 
8 0 3.1415926535897931
2 -22.75 0 -14.699999999999999 0 0 1 0 -1 0 1 0 -0 3.5
1 0 7 0 1 0 -0 
1 -25.258661880630179 3.5 -20.199999999999999 -0 -0 -1 
1 -25.350000000000001 2.7617928959282847 -20.199999999999999 -0 -0 -1 
1 0 0 0 -0 1 0 
2 -22.75 0 -20.199999999999999 0 0 1 1 0 -0 -0 1 0 1.7
1 25.350000000000001 -3 -14.699999999999999 0 -1 0 
2 22.75 0 -14.699999999999999 0 0 1 1 0 -0 -0 1 0 1.7
1 1.7 -4.1637991171010006e-16 0 0 0 1 
1 -25.350000000000001 -3 -14.699999999999999 0 -1 0 
2 -22.75 0 -14.699999999999999 0 0 1 1 0 -0 -0 1 0 1.7
1 1.7 -4.1637991171010006e-16 0 0 0 1 
Polygon3D 0
PolygonOnTriangulations 0
Surfaces 54
10 3.1415926535897936 9.4247779607693793 -2e+100 2e+100
2 0 0 0 -0 -0 -1 1 0 -0 -0 1 0 22.899999999999999
1 -1.9108333729808534e-15 1.9314363361221341e-15 0 0 0 1 1 0 -0 -0 1 0 
1 0 0 0 -0 1 0 0 0 1 1 0 -0 
1 -1.9108333729808534e-15 1.9314363361221341e-15 3.5 0 0 1 1 0 -0 -0 1 0 
1 -1.9108333729808534e-15 1.9314363361221341e-15 3.5 0 0 1 1 0 -0 -0 1 0 
1 -1.7160033035788841e-15 6.7505352430363358e-16 0 0 0 1 1 0 -0 -0 1 0 
2 0 0 0 -0 -0 -1 1 0 -0 -0 1 0 22.899999999999999
1 0 0 0 -0 1 0 0 0 1 1 0 -0 
1 0 0 0 1 0 -0 0 0 1 0 -1 0 
1 0 0 0 -0 1 0 0 0 1 1 0 -0 
1 3 0 0 1 0 -0 0 0 1 0 -1 0 
1 0 18 0 -0 1 0 0 0 1 1 0 -0 
1 0 12 0 -0 1 0 0 0 1 1 0 -0 
1 0 12 0 -0 1 0 0 0 1 1 0 -0 
1 3 0 0 1 0 -0 0 0 1 0 -1 0 
1 0 18 0 -0 1 0 0 0 1 1 0 -0 
1 0 0 0 1 0 -0 0 0 1 0 -1 0 
1 0 0 0 -0 1 0 0 0 1 1 0 -0 
2 0 0 0 0 0 1 1 0 -0 -0 1 0 1.7
2 0 0 0 0 0 1 1 0 -0 -0 1 0 1.7
2 0 0 0 0 0 1 1 0 -0 -0 1 0 1.7
2 0 0 0 0 0 1 1 0 -0 -0 1 0 11.300000000000001
2 0 0 0 0 0 1 1 0 -0 -0 1 0 1.7
1 0 0 23.699999999999999 0 0 1 1 0 -0 -0 1 0 
1 17.850000000000001 -9 3.5 0 0 1 1 0 -0 -0 1 0 
1 0 0 0 1 0 -0 0 0 1 0 -1 0 
1 0 0 0 0 0 1 1 0 -0 -0 1 0 
1 17.850000000000001 -9 -20.199999999999999 0 0 1 1 0 -0 -0 1 0 
2 0 0 0 -0 -0 -1 1 0 -0 -0 1 0 25.5
1 0 7 0 -0 1 0 0 0 1 1 0 -0 
2 0 0 0 0 0 1 1 0 -0 -0 1 0 3.5
1 0 0 0 -0 1 0 0 0 1 1 0 -0 
1 0 0 23.699999999999999 0 0 1 1 0 -0 -0 1 0 
1 -20.850000000000001 -9 3.5 0 0 1 1 0 -0 -0 1 0 
1 0 0 0 -0 1 0 0 0 1 1 0 -0 
10 3.1415926535897931 9.4247779607693793 -2e+100 2e+100
2 -22.75 0 -14.699999999999999 0 0 1 1 0 -0 -0 1 0 3.5
1 0 7 0 -0 1 0 0 0 1 1 0 -0 
1 4.5 0 0 1 0 -0 0 0 1 0 -1 0 
1 0 0 0 0 0 1 1 0 -0 -0 1 0 
1 -20.850000000000001 -9 -20.199999999999999 0 0 1 1 0 -0 -0 1 0 
1 0 0 0 0 0 1 1 0 -0 -0 1 0 
1 0 0 0 0 0 1 1 0 -0 -0 1 0 
1 4.5 0 0 1 0 -0 0 0 1 0 -1 0 
2 0 0 0 0 0 1 1 0 -0 -0 1 0 1.7
1 22.75 0 -14.699999999999999 0 0 1 1 0 -0 -0 1 0 
1 0 0 0 0 0 1 1 0 -0 -0 1 0 
1 0 0 0 1 0 -0 0 0 1 0 -1 0 
1 0 0 0 0 0 1 1 0 -0 -0 1 0 
1 -22.75 0 -14.699999999999999 0 0 1 1 0 -0 -0 1 0 
1 0 0 0 1 0 -0 0 0 1 0 -1 0 
1 0 0 0 0 0 1 1 0 -0 -0 1 0 
1 9 0 0 1 0 -0 0 0 1 0 -1 0 
2 0 0 0 0 0 1 1 0 -0 -0 1 0 3.5
2 0 0 0 0 0 1 1 0 -0 -0 1 0 1.7
Triangulations 0

TShapes 294
Ve
6.00000007105427e-07
-22.1 -5.99999999999999 0
0 0

0101101
*
Ve
6.00000001776357e-07
22.1 -6 0
0 0

0101101
*
Ed
 1e-07 1 1 0
1  1 0 0 2.6113865244031
2  1 1 0 0 2.6113865244031
2  2 2 1 0 2.6113865244031
0

0101000
+294 0 -293 0 *
Ve
1.00000410138445e-07
22.0999999999998 -6.00000000000036 3.5
0 0

0101101
*
Ed
 1e-07 1 1 0
1  2 0 -3.5 0
2  3 1 0 -3.5 0
2  4 3 4 -3.5 0
0

0101000
+291 0 -293 0 *
Ve
1.00000275031443e-07
-22.0999999999999 -6.00000000000024 3.5
0 0

0101101
*
Ed
 1e-07 1 1 0
1  3 0 3.14159265358979 5.75297917799287
2  5 1 0 3.14159265358979 5.75297917799287
2  6 4 0 3.14159265358979 5.75297917799287
2  7 5 0 3.14159265358979 5.75297917799287
2  8 6 8 3.14159265358979 5.75297917799287
0

0101000
+291 0 -289 0 *
Ed
 1e-07 1 1 0
1  4 0 -3.5 0
2  9 7 0 -3.5 0
2  10 8 11 -3.5 0
2  11 1 0 -3.5 0
0

0101000
+289 0 -294 0 *
Wi

0101100
-292 0 +290 0 -288 0 -287 0 *
Fa
0  1e-07 1 0

0101000
+286 0 *
Ve
6e-07
-20.85 -6 0
0 0

0101101
*
Ed
 6e-07 1 1 0
1  5 0 8.175 9.425
2  12 2 1 8.175 9.425
2  13 8 11 8.175 9.425
0

0101000
+284 0 -294 0 *
Ve
6e-07
-20.85 -9 0
0 0

0101101
*
Ed
 6e-07 1 1 0
1  6 0 -4.5 -1.5
2  14 2 1 -4.5 -1.5
2  15 9 14 -4.5 -1.5
0

0101000
+282 0 -284 0 *
Ve
6e-07
-17.85 -9 0
0 0

0101101
*
Ed
 6e-07 1 1 0
1  7 0 7.425 10.425
2  16 2 1 7.425 10.425
2  17 10 14 7.425 10.425
0

0101000
+280 0 -282 0 *
Ve
6e-07
-17.85 9 0
0 0

0101101
*
Ed
 6e-07 1 1 0
1  8 0 -4.5 13.5
2  18 2 1 -4.5 13.5
2  19 11 14 -4.5 13.5
0

0101000
+280 0 -278 0 *
Ve
6e-07
-20.85 9 0
0 0

0101101
*
Ed
 6e-07 1 1 0
1  9 0 7.425 10.425
2  20 2 1 7.425 10.425
2  21 12 14 7.425 10.425
0

0101000
+278 0 -276 0 *
Ve
6.00000000888178e-07
-20.85 6 0
0 0

0101101
*
Ed
 6e-07 1 1 0
1  10 0 10.5 13.5
2  22 2 1 10.5 13.5
2  23 9 14 10.5 13.5
0

0101000
+274 0 -276 0 *
Ve
6.00000001776357e-07
-22.1 6 0
0 0

0101101
*
Ed
 6e-07 1 1 0
1  11 0 8.175 9.425
2  24 2 1 8.175 9.425
2  25 13 11 8.175 9.425
0

0101000
+274 0 -272 0 *
Ve
6.00000001776357e-07
22.1 6 0
0 0

0101101
*
Ed
 1e-07 1 1 0
1  1 0 3.14159265358979 5.75297917799289
2  1 1 0 3.14159265358979 5.75297917799289
2  2 2 1 3.14159265358979 5.75297917799289
0

0101000
+270 0 -272 0 *
Ve
6.00000000888178e-07
20.85 6 0
0 0

0101101
*
Ed
 6e-07 1 1 0
1  12 0 -11.675 -10.425
2  26 2 1 -11.675 -10.425
2  27 14 4 -11.675 -10.425
0

0101000
+270 0 -268 0 *
Ve
6e-07
20.85 9 0
0 0

0101101
*
Ed
 6e-07 1 1 0
1  13 0 10.5 13.5
2  28 2 1 10.5 13.5
2  29 15 17 10.5 13.5
0

0101000
+268 0 -266 0 *
Ve
6e-07
17.85 9 0
0 0

0101101
*
Ed
 6e-07 1 1 0
1  14 0 -11.925 -8.925
2  30 2 1 -11.925 -8.925
2  31 16 17 -11.925 -8.925
0

0101000
+266 0 -264 0 *
Ve
6e-07
17.85 -9 0
0 0

0101101
*
Ed
 6e-07 1 1 0
1  15 0 -4.5 13.5
2  32 2 1 -4.5 13.5
2  33 17 17 -4.5 13.5
0

0101000
+262 0 -264 0 *
Ve
6e-07
20.85 -9 0
0 0

0101101
*
Ed
 6e-07 1 1 0
1  16 0 -11.925 -8.925
2  34 2 1 -11.925 -8.925
2  35 18 17 -11.925 -8.925
0

0101000
+260 0 -262 0 *
Ve
6e-07
20.85 -6 0
0 0

0101101
*
Ed
 6e-07 1 1 0
1  17 0 -4.5 -1.5
2  36 2 1 -4.5 -1.5
2  37 15 17 -4.5 -1.5
0

0101000
+260 0 -258 0 *
Ed
 6e-07 1 1 0
1  18 0 -11.675 -10.425
2  38 2 1 -11.675 -10.425
2  39 3 4 -11.675 -10.425
0

0101000
+293 0 -258 0 *
Wi

0101100
+283 0 +281 0 +279 0 -277 0 -275 0 +273 0 -271 0 +269 0 -267 0 -265 0 
-263 0 +261 0 +259 0 -257 0 +256 0 +292 0 *
Ve
1e-07
-11.3 -13 0
0 0

0101101
*
Ed
 1e-07 1 1 0
1  19 0 0 6.28318530717959
2  40 2 1 0 6.28318530717959
2  41 19 20 0 6.28318530717959
0

0101100
+254 0 -254 0 *
Wi

0101100
-253 0 *
Ve
1e-07
14.7 -13 0
0 0

0101101
*
Ed
 1e-07 1 1 0
1  20 0 0 6.28318530717959
2  42 2 1 0 6.28318530717959
2  43 20 23 0 6.28318530717959
0

0101100
+251 0 -251 0 *
Wi

0101100
-250 0 *
Ve
1e-07
-11.3 13 0
0 0

0101101
*
Ed
 1e-07 1 1 0
1  21 0 0 6.28318530717959
2  44 2 1 0 6.28318530717959
2  45 21 26 0 6.28318530717959
0

0101100
+248 0 -248 0 *
Wi

0101100
-247 0 *
Ve
1.00000002767702e-07
11.3 -2.76770176607302e-15 0
0 0

0101101
*
Ed
 1e-07 1 1 0
1  22 0 0 6.28318530717959
2  46 2 1 0 6.28318530717959
2  47 22 27 0 6.28318530717959
0

0101100
+245 0 -245 0 *
Wi

0101100
-244 0 *
Ve
1e-07
14.7 13 0
0 0

0101101
*
Ed
 1e-07 1 1 0
1  23 0 0 6.28318530717959
2  48 2 1 0 6.28318530717959
2  49 23 30 0 6.28318530717959
0

0101100
+242 0 -242 0 *
Wi

0101100
-241 0 *
Fa
0  1e-07 2 1

0101000
+255 0 +252 0 +249 0 +246 0 +243 0 +240 0 *
Ve
1.00000378193004e-07
24.7840674627876 -5.99999999999966 3.5
0 0

0101101
*
Ed
 1e-07 1 1 0
1  24 0 1.2499999999998 3.93406746278762
2  50 3 0 1.2499999999998 3.93406746278762
2  51 24 0 1.2499999999998 3.93406746278762
2  52 25 31 1.2499999999998 3.93406746278762
2  53 5 31 1.2499999999998 3.93406746278762
2  54 6 32 1.2499999999998 3.93406746278762
0

0101000
+291 31 -238 31 *
Ve
1e-07
0 0 0
0 0

0101101
*
Ed
 1e-07 1 1 0
1  25 0 0 20.2
2  55 26 0 0 20.2
2  56 3 0 0 20.2
2  57 15 33 0 20.2
0

0101000
+236 0 -258 31 *
Ve
1.0000011121753e-07
24.7840674627875 -5.9999999999999 -20.2
0 0

0101101
*
Ed
 1e-07 1 1 0
1  26 0 0 3.93406746278751
2  58 3 0 0 3.93406746278751
2  59 27 0 0 3.93406746278751
2  60 28 31 0 3.93406746278751
2  61 6 34 0 3.93406746278751
0

0101000
+236 0 -234 31 *
Ed
 1e-07 1 1 0
1  27 0 -23.7 -0
2  62 3 4 -23.7 -0
2  63 29 7 -23.7 -0
0

0101000
+238 0 -234 0 *
Wi

0101100
+237 4 -290 0 -256 0 +235 4 -233 4 +232 0 *
Fa
0  1e-07 3 4

0101000
+231 0 *
Ve
1.00000279853731e-07
-22.0999999999999 6.00000000000025 3.5
0 0

0101101
*
Ve
1.00000410138445e-07
22.0999999999998 6.00000000000036 3.5
0 0

0101101
*
Ed
 1e-07 1 1 0
1  3 0 0 2.61138652440307
2  5 1 0 0 2.61138652440307
2  6 4 0 0 2.61138652440307
2  64 5 0 0 2.61138652440307
2  65 6 8 0 2.61138652440307
0

0101000
+229 0 -228 0 *
Ve
1.00000386136015e-07
24.7840674627876 5.99999999999965 3.5
0 0

0101101
*
Ed
 1e-07 1 1 0
1  28 0 1.2499999999998 3.93406746278762
2  66 14 0 1.2499999999998 3.93406746278762
2  67 24 0 1.2499999999998 3.93406746278762
2  68 25 31 1.2499999999998 3.93406746278762
2  69 5 31 1.2499999999998 3.93406746278762
2  70 6 32 1.2499999999998 3.93406746278762
0

0101000
+228 31 -226 31 *
Ve
1.50001e-07
25.25866188063 3.50000000000064 3.5
0 0

0101101
*
Ed
 1e-07 1 1 0
1  29 0 0.137689552304254 0.237521170781431
2  71 29 35 0.137689552304254 0.237521170781431
2  72 29 36 0.137689552304254 0.237521170781431
2  73 6 0 0.137689552304254 0.237521170781431
2  74 5 37 0.137689552304254 0.237521170781431
0

0101000
+224 37 -226 37 *
Ve
1.5e-07
22.75 3.5 3.5
0 0

0101101
*
Ed
 1.5e-07 1 1 0
1  30 0 -13.88366188063 -11.375
2  75 5 0 -13.88366188063 -11.375
2  76 30 40 -13.88366188063 -11.375
2  77 6 8 -13.88366188063 -11.375
0

0101000
+224 0 -222 0 *
Ve
1.5e-07
22.75 -3.5 3.5
0 0

0101101
*
Ed
 1e-07 1 1 0
1  31 0 1.5707963267949 4.71238898038469
2  78 5 0 1.5707963267949 4.71238898038469
2  79 31 43 1.5707963267949 4.71238898038469
2  80 6 8 1.5707963267949 4.71238898038469
0

0101000
+222 0 -220 0 *
Ve
1.50001e-07
25.25866188063 -3.50000000000063 3.5
0 0

0101101
*
Ed
 1.5e-07 1 1 0
1  32 0 -13.88366188063 -11.375
2  81 5 0 -13.88366188063 -11.375
2  82 32 40 -13.88366188063 -11.375
2  83 6 8 -13.88366188063 -11.375
0

0101000
+218 0 -220 0 *
Ed
 1e-07 1 1 0
1  29 0 6.04566413639815 6.14549575487533
2  71 29 35 6.04566413639815 6.14549575487533
2  72 29 36 6.04566413639815 6.14549575487533
2  73 6 0 6.04566413639815 6.14549575487533
2  84 5 37 6.04566413639815 6.14549575487533
0

0101000
+238 37 -218 37 *
Ve
1.00000163666004e-07
-24.7840674627875 -5.99999999999985 3.5
0 0

0101101
*
Ed
 1e-07 1 1 0
1  33 0 0.565932537212472 3.25000000000014
2  85 8 0 0.565932537212472 3.25000000000014
2  86 33 0 0.565932537212472 3.25000000000014
2  87 34 44 0.565932537212472 3.25000000000014
2  88 4 44 0.565932537212472 3.25000000000014
2  89 5 44 0.565932537212472 3.25000000000014
2  90 6 45 0.565932537212472 3.25000000000014
0

0101000
+215 44 -289 44 *
Ve
1.50001e-07
-25.2586618806304 -3.49999999999936 3.5
0 0

0101101
*
Ed
 1e-07 1 1 0
1  29 0 3.279282205894 3.37911382437123
2  71 29 35 3.279282205894 3.37911382437123
2  72 29 36 3.279282205894 3.37911382437123
2  73 6 0 3.279282205894 3.37911382437123
2  91 5 37 3.279282205894 3.37911382437123
0

0101000
+213 37 -215 37 *
Ve
1.5e-07
-22.75 -3.5 3.5
0 0

0101101
*
Ed
 1.5e-07 1 1 0
1  34 0 6.875 9.38366188063035
2  92 4 0 6.875 9.38366188063035
2  93 35 48 6.875 9.38366188063035
2  94 5 0 6.875 9.38366188063035
2  95 6 8 6.875 9.38366188063035
0

0101000
+211 0 -213 0 *
Ve
1.5e-07
-22.75 3.5 3.5
0 0

0101101
*
Ed
 1e-07 1 1 0
1  35 0 4.71238898038469 7.85398163397448
2  96 4 0 4.71238898038469 7.85398163397448
2  97 36 0 4.71238898038469 7.85398163397448
2  98 5 0 4.71238898038469 7.85398163397448
2  99 6 8 4.71238898038469 7.85398163397448
0

0101000
+211 0 -209 0 *
Ve
1.50001e-07
-25.2586618806304 3.49999999999936 3.5
0 0

0101101
*
Ed
 1.5e-07 1 1 0
1  36 0 6.875 9.38366188063035
2  100 4 0 6.875 9.38366188063035
2  101 37 48 6.875 9.38366188063035
2  102 5 0 6.875 9.38366188063035
2  103 6 8 6.875 9.38366188063035
0

0101000
+209 0 -207 0 *
Ve
1.00000162067618e-07
-24.7840674627875 5.99999999999985 3.5
0 0

0101101
*
Ed
 1e-07 1 1 0
1  29 0 2.90407148280835 3.00390310128559
2  71 29 35 2.90407148280835 3.00390310128559
2  72 29 36 2.90407148280835 3.00390310128559
2  73 6 0 2.90407148280835 3.00390310128559
2  104 5 37 2.90407148280835 3.00390310128559
0

0101000
+205 37 -207 37 *
Ed
 1e-07 1 1 0
1  37 0 0.565932537212472 3.25000000000014
2  105 13 0 0.565932537212472 3.25000000000014
2  106 33 0 0.565932537212472 3.25000000000014
2  107 34 44 0.565932537212472 3.25000000000014
2  108 4 44 0.565932537212472 3.25000000000014
2  109 5 44 0.565932537212472 3.25000000000014
2  110 6 45 0.565932537212472 3.25000000000014
0

0101000
+205 44 -229 44 *
Wi

0101100
-227 0 -225 4 +223 8 -221 0 -219 0 +217 0 +216 8 +237 4 -288 0 +214 11 
+212 8 +210 0 -208 0 -206 0 +204 8 -203 11 *
Ve
1e-07
-11.3 -13 3.5
0 0

0101101
*
Ed
 1e-07 1 1 0
1  38 0 0 6.28318530717959
2  111 2 50 0 6.28318530717959
2  112 19 20 0 6.28318530717959
2  113 4 0 0 6.28318530717959
2  114 5 0 0 6.28318530717959
2  115 6 8 0 6.28318530717959
0

0101100
+201 0 -201 0 *
Wi

0101100
-200 0 *
Ve
1e-07
14.7 -13 3.5
0 0

0101101
*
Ed
 1e-07 1 1 0
1  39 0 0 6.28318530717959
2  116 2 50 0 6.28318530717959
2  117 20 23 0 6.28318530717959
2  118 4 0 0 6.28318530717959
2  119 5 0 0 6.28318530717959
2  120 6 8 0 6.28318530717959
0

0101100
+198 0 -198 0 *
Wi

0101100
-197 0 *
Ve
1e-07
-11.3 13 3.5
0 0

0101101
*
Ed
 1e-07 1 1 0
1  40 0 0 6.28318530717959
2  121 2 50 0 6.28318530717959
2  122 21 26 0 6.28318530717959
2  123 4 0 0 6.28318530717959
2  124 5 0 0 6.28318530717959
2  125 6 8 0 6.28318530717959
0

0101100
+195 0 -195 0 *
Wi

0101100
-194 0 *
Ve
1.00000002767702e-07
11.3 -2.76770176607302e-15 3.5
0 0

0101101
*
Ed
 1e-07 1 1 0
1  41 0 0 6.28318530717959
2  126 2 50 0 6.28318530717959
2  127 22 27 0 6.28318530717959
2  128 4 0 0 6.28318530717959
2  129 5 0 0 6.28318530717959
2  130 6 8 0 6.28318530717959
0

0101100
+192 0 -192 0 *
Wi

0101100
-191 0 *
Ve
1e-07
14.7 13 3.5
0 0

0101101
*
Ed
 1e-07 1 1 0
1  42 0 0 6.28318530717959
2  131 2 50 0 6.28318530717959
2  132 23 30 0 6.28318530717959
2  133 4 0 0 6.28318530717959
2  134 5 0 0 6.28318530717959
2  135 6 8 0 6.28318530717959
0

0101100
+189 0 -189 0 *
Wi

0101100
-188 0 *
Fa
0  1e-07 5 0

0101000
+202 0 +199 0 +196 0 +193 0 +190 0 +187 0 *
Ve
1e-07
4.5 0 0
0 0

0101101
*
Ed
 1e-07 1 1 0
1  43 0 0 20.2
2  136 38 0 0 20.2
2  137 8 0 0 20.2
2  138 9 51 0 20.2
0

0101000
+185 0 -284 44 *
Ve
1.00000324933735e-07
-24.7840674627873 -6.00000000000029 -20.2
0 0

0101101
*
Ed
 1e-07 1 1 0
1  44 0 -23.7 0
2  139 8 11 -23.7 0
2  140 29 7 -23.7 0
0

0101000
+215 0 -183 0 *
Ed
 1e-07 1 1 0
1  45 0 0.565932537212685 4.5
2  141 8 0 0.565932537212685 4.5
2  142 39 0 0.565932537212685 4.5
2  143 40 44 0.565932537212685 4.5
2  144 6 52 0.565932537212685 4.5
0

0101000
+183 44 -185 0 *
Wi

0101100
-184 11 -283 0 +287 0 +214 11 -182 0 -181 11 *
Fa
0  1e-07 8 11

0101000
+180 0 *
Ve
1e-07
0 0 0
0 0

0101101
*
Ed
 1e-07 1 1 0
1  46 0 0 3
2  145 9 0 0 3
2  146 41 0 0 3
2  147 40 53 0 3
2  148 6 54 0 3
0

0101000
+178 0 -185 55 *
Ed
 1e-07 1 1 0
1  47 0 0 20.2
2  149 9 0 0 20.2
2  150 10 0 0 20.2
0

0101000
+178 0 -282 53 *
Wi

0101100
-281 0 +184 11 +177 14 -176 14 *
Fa
0  1e-07 9 14

0101000
+175 0 *
Ve
1e-07
3 0 0
0 0

0101101
*
Ed
 1e-07 1 1 0
1  48 0 0 20.2
2  151 11 0 0 20.2
2  152 10 0 0 20.2
0

0101000
+173 0 -280 53 *
Ed
 1e-07 1 1 0
1  49 0 0 3
2  153 10 0 0 3
2  154 41 0 0 3
2  155 40 53 0 3
2  156 6 54 0 3
0

0101000
-173 0 +178 0 *
Wi

0101100
-172 14 -279 0 +176 14 -171 14 *
Fa
0  1e-07 10 14

0101000
+170 0 *
Ve
1e-07
3 18 0
0 0

0101101
*
Ed
 1e-07 1 1 0
1  50 0 0 20.2
2  157 11 0 0 20.2
2  158 12 0 0 20.2
0

0101000
+168 0 -278 53 *
Ed
 1e-07 1 1 0
1  51 0 0 18
2  159 11 0 0 18
2  160 41 0 0 18
2  161 40 53 0 18
2  162 6 54 0 18
0

0101000
-168 0 +173 0 *
Wi

0101100
-172 14 -277 0 +167 14 +166 14 *
Fa
0  1e-07 11 14

0101000
+165 0 *
Ve
1e-07
0 18 0
0 0

0101101
*
Ed
 1e-07 1 1 0
1  52 0 0 20.2
2  163 9 0 0 20.2
2  164 12 0 0 20.2
0

0101000
+163 0 -276 53 *
Ed
 1e-07 1 1 0
1  53 0 0 3
2  165 12 0 0 3
2  166 41 0 0 3
2  167 40 53 0 3
2  168 6 54 0 3
0

0101000
-168 0 +163 0 *
Wi

0101100
-167 14 -275 0 +162 14 -161 14 *
Fa
0  1e-07 12 14

0101000
+160 0 *
Ve
1e-07
4.5 12 0
0 0

0101101
*
Ed
 1e-07 1 1 0
1  46 0 15 18
2  145 9 0 15 18
2  146 41 0 15 18
2  169 40 53 15 18
2  170 6 54 15 18
0

0101000
+158 55 -163 0 *
Ed
 1e-07 1 1 0
1  54 0 0 20.2
2  171 38 0 0 20.2
2  172 13 0 0 20.2
2  173 9 51 0 20.2
0

0101000
+158 0 -274 44 *
Wi

0101100
-273 0 +162 14 +157 14 -156 11 *
Fa
0  1e-07 9 14

0101000
+155 0 *
Ed
 1e-07 1 1 0
1  55 0 -3.5 0
2  174 7 0 -3.5 0
2  175 13 11 -3.5 0
2  176 1 0 -3.5 0
0

0101000
+229 0 -272 0 *
Ve
1.00000327332008e-07
-24.7840674627873 6.00000000000029 -20.2
0 0

0101101
*
Ed
 1e-07 1 1 0
1  56 0 -23.7 -0
2  177 13 11 -23.7 -0
2  178 29 7 -23.7 -0
0

0101000
+205 0 -152 0 *
Ed
 1e-07 1 1 0
1  57 0 0.565932537212685 4.5
2  179 13 0 0.565932537212685 4.5
2  180 39 0 0.565932537212685 4.5
2  181 40 44 0.565932537212685 4.5
2  182 6 52 0.565932537212685 4.5
0

0101000
+152 44 -158 0 *
Wi

0101100
-156 11 -271 0 +153 0 +203 11 -151 0 -150 11 *
Fa
0  1e-07 13 11

0101000
+149 0 *
Ed
 1e-07 1 1 0
1  58 0 -3.5 -0
2  183 1 0 -3.5 -0
2  184 14 4 -3.5 -0
0

0101000
+228 0 -270 0 *
Wi

0101100
-269 0 +153 0 -227 0 -147 0 *
Fa
0  1e-07 1 0

0101000
+146 0 *
Ve
1e-07
0 12 0
0 0

0101101
*
Ed
 1e-07 1 1 0
1  59 0 0 20.2
2  185 26 0 0 20.2
2  186 14 0 0 20.2
2  187 15 33 0 20.2
0

0101000
+144 0 -268 31 *
Ve
1.00000104865252e-07
24.7840674627875 5.99999999999991 -20.2
0 0

0101101
*
Ed
 1e-07 1 1 0
1  60 0 0 3.9340674627875
2  188 14 0 0 3.9340674627875
2  189 27 0 0 3.9340674627875
2  190 28 31 0 3.9340674627875
2  191 6 34 0 3.9340674627875
0

0101000
+144 0 -142 31 *
Ed
 1e-07 1 1 0
1  61 0 -23.7 0
2  192 14 4 -23.7 0
2  193 29 7 -23.7 0
0

0101000
+226 0 -142 0 *
Wi

0101100
+225 4 -147 0 -267 0 +143 4 -141 4 +140 0 *
Fa
0  1e-07 14 4

0101000
+139 0 *
Ve
1e-07
3 18 0
0 0

0101101
*
Ed
 1e-07 1 1 0
1  62 0 0 20.2
2  194 15 0 0 20.2
2  195 16 0 0 20.2
0

0101000
+137 0 -266 56 *
Ed
 1e-07 1 1 0
1  63 0 15 18
2  196 15 0 15 18
2  197 42 0 15 18
2  198 28 56 15 18
2  199 6 57 15 18
0

0101000
+144 58 -137 0 *
Wi

0101100
-265 0 +136 17 +135 17 -143 4 *
Fa
0  1e-07 15 17

0101000
+134 0 *
Ve
1e-07
0 18 0
0 0

0101101
*
Ed
 1e-07 1 1 0
1  64 0 0 20.2
2  200 17 0 0 20.2
2  201 16 0 0 20.2
0

0101000
+132 0 -264 56 *
Ed
 1e-07 1 1 0
1  65 0 0 3
2  202 16 0 0 3
2  203 42 0 0 3
2  204 28 56 0 3
2  205 6 57 0 3
0

0101000
-137 0 +132 0 *
Wi

0101100
-136 17 -263 0 +131 17 -130 17 *
Fa
0  1e-07 16 17

0101000
+129 0 *
Ve
1e-07
0 0 0
0 0

0101101
*
Ed
 1e-07 1 1 0
1  66 0 0 20.2
2  206 17 0 0 20.2
2  207 18 0 0 20.2
0

0101000
+127 0 -262 56 *
Ed
 1e-07 1 1 0
1  67 0 0 18
2  208 17 0 0 18
2  209 42 0 0 18
2  210 28 56 0 18
2  211 6 57 0 18
0

0101000
-132 0 +127 0 *
Wi

0101100
-126 17 -261 0 +131 17 +125 17 *
Fa
0  1e-07 17 17

0101000
+124 0 *
Ve
1e-07
3 0 0
0 0

0101101
*
Ed
 1e-07 1 1 0
1  68 0 0 20.2
2  212 15 0 0 20.2
2  213 18 0 0 20.2
0

0101000
+122 0 -260 56 *
Ed
 1e-07 1 1 0
1  69 0 0 3
2  214 18 0 0 3
2  215 42 0 0 3
2  216 28 56 0 3
2  217 6 57 0 3
0

0101000
-122 0 +127 0 *
Wi

0101100
-121 17 -259 0 +126 17 -120 17 *
Fa
0  1e-07 18 17

0101000
+119 0 *
Ed
 1e-07 1 1 0
1  63 0 0 3
2  196 15 0 0 3
2  197 42 0 0 3
2  218 28 56 0 3
2  219 6 57 0 3
0

0101000
+122 0 -236 58 *
Wi

0101100
-257 0 +235 4 +117 17 -121 17 *
Fa
0  1e-07 15 17

0101000
+116 0 *
Ed
 1e-07 1 1 0
1  70 0 5.25 8.75
3  220 221CN 19 0 5.25 8.75
0

0101000
+254 59 -201 59 *
Wi

0101100
-200 0 +114 20 +253 0 -114 20 *
Fa
0  1e-07 19 20

0101000
+113 0 *
Ed
 1e-07 1 1 0
1  71 0 5.25 8.75
3  222 223CN 20 0 5.25 8.75
0

0101000
+251 60 -198 60 *
Wi

0101100
-197 0 +111 23 +250 0 -111 23 *
Fa
0  1e-07 20 23

0101000
+110 0 *
Ed
 1e-07 1 1 0
1  72 0 5.25 8.75
3  224 225CN 21 0 5.25 8.75
0

0101000
+248 61 -195 61 *
Wi

0101100
-194 0 +108 26 +247 0 -108 26 *
Fa
0  1e-07 21 26

0101000
+107 0 *
Ed
 1e-07 1 1 0
1  73 0 5.25 8.75
3  226 227CN 22 0 5.25 8.75
0

0101000
+245 62 -192 62 *
Wi

0101100
-191 0 +105 27 +244 0 -105 27 *
Fa
0  1e-07 22 27

0101000
+104 0 *
Ed
 1e-07 1 1 0
1  74 0 5.25 8.75
3  228 229CN 23 0 5.25 8.75
0

0101000
+242 63 -189 63 *
Wi

0101100
-188 0 +102 30 +241 0 -102 30 *
Fa
0  1e-07 23 30

0101000
+101 0 *
Ve
1.00000931695458e-07
25.35 2.76179289592922 -20.2
0 0

0101101
*
Ed
 1e-07 1 1 0
1  29 0 0.108518468633707 0.237521170781442
2  71 29 35 0.108518468633707 0.237521170781442
2  72 29 36 0.108518468633707 0.237521170781442
2  73 6 0 0.108518468633707 0.237521170781442
2  230 28 65 0.108518468633707 0.237521170781442
0

0101000
+99 65 -142 65 *
Ve
1.00000891343577e-07
25.35 -2.76179289592917 -20.2
0 0

0101101
*
Ed
 1e-07 1 1 0
1  75 0 3.23820710407083 8.76179289592922
2  231 43 0 3.23820710407083 8.76179289592922
2  232 27 0 3.23820710407083 8.76179289592922
2  233 28 31 3.23820710407083 8.76179289592922
2  234 6 34 3.23820710407083 8.76179289592922
0

0101000
+97 31 -99 31 *
Ed
 1e-07 1 1 0
1  29 0 6.04566413639814 6.17466683854588
2  71 29 35 6.04566413639814 6.17466683854588
2  72 29 36 6.04566413639814 6.17466683854588
2  73 6 0 6.04566413639814 6.17466683854588
2  235 28 65 6.04566413639814 6.17466683854588
0

0101000
+234 65 -97 65 *
Wi

0101100
-130 17 +135 17 -141 4 +98 64 +96 4 +95 64 +233 4 +117 17 +120 17 -125 17 
*
Ve
1.0000000041638e-07
24.45 -4.163799117101e-16 -20.2
0 0

0101101
*
Ed
 1e-07 1 1 0
1  76 0 0 6.28318530717959
2  236 28 0 0 6.28318530717959
2  237 44 68 0 6.28318530717959
2  238 6 64 0 6.28318530717959
0

0101100
+93 0 -93 0 *
Wi

0101100
-92 0 *
Fa
0  1e-07 28 0

0101000
+94 0 +91 0 *
Ve
1.5e-07
25.35 -2.76179289592828 -14.7
0 0

0101101
*
Ed
 1e-07 1 1 0
1  77 0 -5.5 0
2  239 43 4 -5.5 0
2  240 29 7 -5.5 0
0

0101000
+89 0 -97 0 *
Ve
1.00000000444089e-07
25.2586618806302 -3.5 -14.7
0 0

0101101
*
Ed
 1e-07 1 1 0
1  78 0 0.10851846863367 0.137689552304229
2  241 45 0 0.10851846863367 0.137689552304229
2  242 29 7 0.10851846863367 0.137689552304229
0

0101000
+89 0 -87 0 *
Ed
 1e-07 1 1 0
1  79 0 -23.7 -5.5
2  243 32 40 -23.7 -5.5
2  244 29 7 -23.7 -5.5
0

0101000
+218 0 -87 0 *
Wi

0101100
+88 0 -86 0 +85 0 +216 8 -232 0 -95 64 *
Fa
0  1e-07 29 7

0101000
+84 0 *
Ve
1.00000012434498e-07
25.2586618806302 3.5 -14.7
0 0

0101101
*
Ed
 1e-07 1 1 0
1  80 0 -23.7 -5.5
2  245 30 40 -23.7 -5.5
2  246 29 7 -23.7 -5.5
0

0101000
+224 0 -82 0 *
Ve
1.5e-07
25.35 2.76179289592828 -14.7
0 0

0101101
*
Ed
 1e-07 1 1 0
1  81 0 6.14549575487536 6.17466683854592
2  247 45 0 6.14549575487536 6.17466683854592
2  248 29 7 6.14549575487536 6.17466683854592
0

0101000
+82 0 -80 0 *
Ed
 1e-07 1 1 0
1  82 0 -5.5 0
2  249 43 4 -5.5 0
2  250 29 7 -5.5 0
0

0101000
+80 0 -99 0 *
Wi

0101100
-98 64 +140 0 +223 8 -81 0 -79 0 -78 0 *
Fa
0  1e-07 29 7

0101000
+77 0 *
Ve
1.0000000116861e-07
0 7 0
0 0

0101101
*
Ed
 1e-07 1 1 0
1  83 0 0 2.50866188063018
2  251 30 0 0 2.50866188063018
2  252 46 0 0 2.50866188063018
2  253 45 69 0 2.50866188063018
0

0101000
+75 0 -82 69 *
Ed
 1e-07 1 1 0
1  84 0 0 18.2
2  254 47 0 0 18.2
2  255 30 0 0 18.2
2  256 31 70 0 18.2
0

0101000
+75 0 -222 69 *
Wi

0101100
-74 40 +81 0 -221 0 +73 40 *
Fa
0  1e-07 30 40

0101000
+72 0 *
Ve
1.0000000116861e-07
0 0 0
0 0

0101101
*
Ed
 1e-07 1 1 0
1  85 0 0 18.2
2  257 47 0 0 18.2
2  258 32 0 0 18.2
2  259 31 70 0 18.2
0

0101000
+70 0 -220 69 *
Ed
 1e-07 1 1 0
1  86 0 1.5707963267949 4.71238898038469
2  260 31 0 1.5707963267949 4.71238898038469
2  261 48 0 1.5707963267949 4.71238898038469
2  262 45 71 1.5707963267949 4.71238898038469
0

0101000
+75 72 -70 72 *
Wi

0101100
-219 0 +69 40 +68 43 -73 40 *
Fa
0  1e-07 31 43

0101000
+67 0 *
Ed
 1e-07 1 1 0
1  87 0 0 2.50866188063018
2  263 32 0 0 2.50866188063018
2  264 46 0 0 2.50866188063018
2  265 45 69 0 2.50866188063018
0

0101000
+70 0 -87 69 *
Wi

0101100
-65 40 +85 0 -217 0 +69 40 *
Fa
0  1e-07 32 40

0101000
+64 0 *
Ve
1.00000008343679e-07
-25.2586618806302 -3.5 -14.7
0 0

0101101
*
Ed
 1e-07 1 1 0
1  88 0 -23.7 -5.5
2  266 35 48 -23.7 -5.5
2  267 29 7 -23.7 -5.5
0

0101000
+213 0 -62 0 *
Ve
1.5e-07
-25.35 -2.76179289592828 -14.7
0 0

0101101
*
Ed
 1e-07 1 1 0
1  89 0 3.00390310128556 3.03307418495612
2  268 49 0 3.00390310128556 3.03307418495612
2  269 29 7 3.00390310128556 3.03307418495612
0

0101000
+62 0 -60 0 *
Ve
1.00001102552598e-07
-25.3500000000001 -2.76179289592718 -20.2
0 0

0101101
*
Ed
 1e-07 1 1 0
1  90 0 -5.5 0
2  270 50 11 -5.5 0
2  271 29 7 -5.5 0
0

0101000
+60 0 -58 0 *
Ed
 1e-07 1 1 0
1  29 0 3.25011112222342 3.37911382437125
2  71 29 35 3.25011112222342 3.37911382437125
2  72 29 36 3.25011112222342 3.37911382437125
2  73 6 0 3.25011112222342 3.37911382437125
2  272 40 65 3.25011112222342 3.37911382437125
0

0101000
+58 65 -183 65 *
Wi

0101100
+182 0 +212 8 -61 0 -59 0 -57 0 -56 64 *
Fa
0  1e-07 29 7

0101000
+55 0 *
Ve
1.0000000116861e-07
9 0 0
0 0

0101101
*
Ed
 1e-07 1 1 0
1  91 0 6.49133811936982 9
2  273 35 0 6.49133811936982 9
2  274 51 0 6.49133811936982 9
2  275 49 73 6.49133811936982 9
0

0101000
+62 73 -53 0 *
Ed
 1e-07 1 1 0
1  92 0 0 18.2
2  276 52 0 0 18.2
2  277 35 0 0 18.2
2  278 53 76 0 18.2
2  279 36 73 0 18.2
0

0101000
+53 0 -211 73 *
Wi

0101100
-52 48 -51 48 -210 0 -61 0 *
Fa
0  1e-07 35 48

0101000
+50 0 *
Ve
1.0000000116861e-07
9 7 0
0 0

0101101
*
Ed
 1e-07 1 1 0
1  93 0 0 18.2
2  280 52 0 0 18.2
2  281 37 0 0 18.2
2  282 53 76 0 18.2
2  283 36 73 0 18.2
0

0101000
+48 0 -209 73 *
Ed
 1e-07 1 1 0
1  94 0 0 3.14159265358979
2  284 36 0 0 3.14159265358979
2  285 49 0 0 3.14159265358979
0

0101000
+53 48 -48 48 *
Wi

0101100
-51 48 -208 0 +47 48 +46 0 *
Fa
0  1e-07 36 0

0101000
+45 0 *
Ve
1.00000024585863e-07
-25.2586618806302 3.5 -14.7
0 0

0101101
*
Ed
 1e-07 1 1 0
1  95 0 6.49133811936982 9
2  286 37 0 6.49133811936982 9
2  287 51 0 6.49133811936982 9
2  288 49 73 6.49133811936982 9
0

0101000
+43 73 -48 0 *
Ed
 1e-07 1 1 0
1  96 0 -23.7 -5.5
2  289 37 48 -23.7 -5.5
2  290 29 7 -23.7 -5.5
0

0101000
+207 0 -43 0 *
Wi

0101100
-42 48 -47 48 -206 0 -41 0 *
Fa
0  1e-07 37 48

0101000
+40 0 *
Ve
1.00001106986849e-07
-25.3500000000001 2.76179289592718 -20.2
0 0

0101101
*
Ed
 1e-07 1 1 0
1  29 0 2.90407148280833 3.03307418495617
2  71 29 35 2.90407148280833 3.03307418495617
2  72 29 36 2.90407148280833 3.03307418495617
2  73 6 0 2.90407148280833 3.03307418495617
2  291 40 65 2.90407148280833 3.03307418495617
0

0101000
+152 65 -38 65 *
Ve
1.5e-07
-25.35 2.76179289592828 -14.7
0 0

0101101
*
Ed
 1e-07 1 1 0
1  97 0 -5.5 0
2  292 50 11 -5.5 0
2  293 29 7 -5.5 0
0

0101000
+36 0 -38 0 *
Ed
 1e-07 1 1 0
1  89 0 3.25011112222346 3.27928220589402
2  268 49 0 3.25011112222346 3.27928220589402
2  269 29 7 3.25011112222346 3.27928220589402
0

0101000
+36 0 -43 0 *
Wi

0101100
-37 64 +35 0 -34 0 +41 0 +204 8 -151 0 *
Fa
0  1e-07 29 7

0101000
+33 0 *
Ed
 1e-07 1 1 0
1  98 0 3.23820710407282 8.76179289592718
2  294 50 0 3.23820710407282 8.76179289592718
2  295 39 0 3.23820710407282 8.76179289592718
2  296 40 44 3.23820710407282 8.76179289592718
2  297 6 52 3.23820710407282 8.76179289592718
0

0101000
+58 44 -38 44 *
Wi

0101100
-177 14 +181 11 +56 64 -31 11 +37 64 -150 11 -157 14 -161 14 +166 14 +171 14 
*
Ve
1.0000000041638e-07
-21.05 -4.163799117101e-16 -20.2
0 0

0101101
*
Ed
 1e-07 1 1 0
1  99 0 0 6.28318530717959
2  298 40 0 0 6.28318530717959
2  299 54 79 0 6.28318530717959
2  300 6 64 0 6.28318530717959
0

0101100
+29 0 -29 0 *
Wi

0101100
-28 0 *
Fa
0  1e-07 40 0

0101000
+30 0 +27 0 *
Ed
 1.5e-07 1 1 0
1  100 0 -5.76179289592828 -0.238207104071718
2  301 43 4 -5.76179289592828 -0.238207104071718
2  302 45 0 -5.76179289592828 -0.238207104071718
0

0101000
+80 0 -89 0 *
Wi

0101100
+88 0 +25 0 -78 0 +96 4 *
Fa
0  1e-07 43 4

0101000
+24 0 *
Ve
1.0000000041638e-07
24.45 -4.163799117101e-16 -14.7
0 0

0101101
*
Ed
 1e-07 1 1 0
1  101 0 0 6.28318530717959
2  303 45 0 0 6.28318530717959
2  304 44 68 0 6.28318530717959
0

0101100
+22 0 -22 0 *
Ed
 1e-07 1 1 0
1  102 0 5.5 11
3  305 306CN 44 0 5.5 11
0

0101000
+93 80 -22 80 *
Wi

0101100
-21 0 +20 68 +92 0 -20 68 *
Fa
0  1e-07 44 68

0101000
+19 0 *
Wi

0101100
-74 40 -79 0 -25 0 -86 0 +65 40 +68 43 *
Wi

0101100
-21 0 *
Fa
0  1e-07 45 0

0101000
+17 0 +16 0 *
Ed
 1.5e-07 1 1 0
1  103 0 -5.76179289592828 -0.238207104071718
2  307 50 11 -5.76179289592828 -0.238207104071718
2  308 49 0 -5.76179289592828 -0.238207104071718
0

0101000
+36 0 -60 0 *
Wi

0101100
-59 0 +14 0 -34 0 -42 48 +46 0 +52 48 *
Ve
1.0000000041638e-07
-21.05 -4.163799117101e-16 -14.7
0 0

0101101
*
Ed
 1e-07 1 1 0
1  104 0 0 6.28318530717959
2  309 49 0 0 6.28318530717959
2  310 54 79 0 6.28318530717959
0

0101100
+12 0 -12 0 *
Wi

0101100
-11 0 *
Fa
0  1e-07 49 0

0101000
+13 0 +10 0 *
Wi

0101100
+57 0 +14 0 -35 0 +31 11 *
Fa
0  1e-07 50 11

0101000
+8 0 *
Ed
 1e-07 1 1 0
1  105 0 5.5 11
3  311 312CN 54 0 5.5 11
0

0101000
+29 81 -12 81 *
Wi

0101100
-11 0 +6 79 +28 0 -6 79 *
Fa
0  1e-07 54 79

0101000
+5 0 *
Sh

0101100
-285 0 -239 0 -230 0 +186 0 -179 0 -174 0 -169 0 +164 0 +159 0 -154 0 
+148 0 -145 0 +138 0 +133 0 +128 0 -123 0 -118 0 +115 0 -112 0 -109 0 
-106 0 -103 0 -100 0 -90 0 -83 0 -76 0 -71 0 -66 0 +63 0 -54 0 
+49 0 -44 0 -39 0 -32 0 -26 0 +23 0 -18 0 +15 0 +9 0 -7 0 
-4 0 *
So

0100000
+3 0 *
Co

1100000
+2 0 *

+1 0 