DBRep_DrawableShape

CASCADE Topology V3, (c) Open Cascade
Locations 100
1
              1               0               0               0 
              0               1               0               0 
              0               0               1           -19.8 
1
              1               0               0          -4.825 
              0               1               0           -25.5 
              0               0               1        -11.2125 
1
              1               0               0         -22.675 
              0               1               0               0 
              0               0               1         -8.5875 
2  2 1 3 1 0
1
              1               0               0              -0 
              0               1               0              -0 
              0               0               1               0 
2  5 1 1 1 0
2  5 -1 0
1
              1               0               0               0 
              0               1               0               0 
              0               0               1            23.3 
2  8 -1 5 -1 0
2  2 1 3 1 1 -1 5 -1 0
2  1 -1 5 -1 0
1
              1               0               0            -4.5 
              0               1               0            -3.5 
              0               0               1         -8.9625 
1
              1               0               0          -27.25 
              0               1               0               0 
              0               0               1         -5.3375 
2  12 1 13 1 0
1
              1               0               0            -2.5 
              0               1               0            -1.2 
              0               0               1            -0.6 
1
              1               0               0              23 
              0               1               0               0 
              0               0               1           2.025 
1
2.22044604925031e-16               1               0               0 
             -1 2.22044604925031e-16              -0               0 
             -0               0               1               0 
2  15 1 16 1 17 1 0
1
              1               0               0            -4.5 
              0               1               0            -3.5 
              0               0               1         -8.9625 
1
              1               0               0           27.25 
              0               1               0               0 
              0               0               1         -5.3375 
2  19 1 20 1 0
2  1 -1 0
1
              1               0               0          -4.825 
              0               1               0           -25.5 
              0               0               1        -11.2125 
1
              1               0               0          22.675 
              0               1               0               0 
              0               0               1         -8.5875 
2  23 1 24 1 1 -1 5 -1 0
2  23 1 24 1 0
2  5 1 1 1 24 -1 23 -1 0
2  24 -1 23 -1 0
1
              1               0               0              -0 
              0               1               0              -0 
              0               0               1           -8.25 
1
              1               0               0           22.75 
              0               1               0               0 
              0               0               1          -17.05 
2  29 1 30 1 0
2  30 -1 29 -1 0
2  20 -1 19 -1 0
1
              1               0               0              -0 
              0               1               0              -0 
              0               0               1         -8.9625 
1
              1               0               0           22.75 
              0               1               0               0 
              0               0               1         -5.3375 
2  34 1 35 1 20 -1 19 -1 0
2  34 1 35 1 0
2  35 -1 34 -1 0
2  19 1 20 1 35 -1 34 -1 0
2  16 -1 15 -1 0
2  17 -1 16 -1 15 -1 0
1
              1               0               0            -1.7 
              0               1               0            -2.2 
              0               0               1            -0.2 
1
              1               0               0            20.5 
              0               1               0               0 
              0               0               1           2.425 
2  42 1 43 1 0
2  15 1 16 1 0
2  43 -1 42 -1 0
2  42 1 43 1 17 1 0
2  17 -1 43 -1 42 -1 0
2  13 -1 12 -1 0
1
              1               0               0              -0 
              0               1               0              -0 
              0               0               1         -8.9625 
1
              1               0               0          -22.75 
              0               1               0               0 
              0               0               1         -5.3375 
2  50 1 51 1 13 -1 12 -1 0
1
              1               0               0              -0 
              0               1               0              -0 
              0               0               1           -8.25 
1
              1               0               0          -22.75 
              0               1               0               0 
              0               0               1          -17.05 
2  53 1 54 1 0
2  54 -1 53 -1 0
1
              1               0               0              -0 
              0               1               0              -0 
              0               0               1               0 
1
              1               0               0               0 
              0               1               0               0 
              0               0               1           2.625 
2  57 1 58 1 0
1
              1               0               0              -0 
              0               1               0              -0 
              0               0               1              -0 
1
              1               0               0             -13 
              0               1               0             -13 
              0               0               1               0 
2  60 1 61 1 0
1
              1               0               0              -0 
              0               1               0              -0 
              0               0               1              -0 
1
              1               0               0              13 
              0               1               0             -13 
              0               0               1               0 
2  63 1 64 1 0
1
              1               0               0              -0 
              0               1               0              -0 
              0               0               1              -0 
1
              1               0               0             -13 
              0               1               0              13 
              0               0               1               0 
2  66 1 67 1 0
1
              1               0               0              -0 
              0               1               0              -0 
              0               0               1           -5.25 
1
              1               0               0              -0 
              0               1               0              -0 
              0               0               1              -0 
1
              1               0               0              13 
              0               1               0              13 
              0               0               1               0 
2  70 1 71 1 0
2  71 -1 70 -1 0
2  5 1 8 1 1 1 71 -1 70 -1 0
1
              1               0               0              -0 
              0               1               0              -0 
              0               0               1           -5.25 
1
              1               0               0              13 
              0               1               0              13 
              0               0               1               0 
2  75 1 76 1 0
2  5 1 8 1 1 1 0
2  76 -1 75 -1 0
2  69 -1 0
2  67 -1 66 -1 0
2  5 1 8 1 1 1 67 -1 66 -1 0
1
              1               0               0              -0 
              0               1               0              -0 
              0               0               1           -5.25 
1
              1               0               0             -13 
              0               1               0              13 
              0               0               1               0 
2  83 1 84 1 0
2  84 -1 83 -1 0
2  64 -1 63 -1 0
2  5 1 8 1 1 1 64 -1 63 -1 0
1
              1               0               0              -0 
              0               1               0              -0 
              0               0               1           -5.25 
1
              1               0               0              13 
              0               1               0             -13 
              0               0               1               0 
2  89 1 90 1 0
2  90 -1 89 -1 0
2  61 -1 60 -1 0
2  5 1 8 1 1 1 61 -1 60 -1 0
1
              1               0               0              -0 
              0               1               0              -0 
              0               0               1           -5.25 
1
              1               0               0             -13 
              0               1               0             -13 
              0               0               1               0 
2  95 1 96 1 0
2  96 -1 95 -1 0
2  5 1 1 1 3 -1 2 -1 0
2  3 -1 2 -1 0
Curve2ds 283
1 3.9369914837739359 0 1 0 
2 1.7160033035788841e-15 -6.7505352430363358e-16 -0.7000000000000004 -0.71414284285428475 0.71414284285428475 -0.7000000000000004 25.5
1 3.9369914837739359 -19.800000000000001 1 0 
1 3.9369914837739359 0 1 0 
8 -23.300000600000001 5.999999999062311e-07
1 0 -7.2893575072157333 -1 0 
8 -23.300000600000001 5.999999999062311e-07
1 3.9369914837739364 0 0 1 
8 -23.300000600000001 5.999999999062311e-07
1 3.9369914837739364 19.800000000000001 0 1 
1 0 0 1 0 
1 0 -23.300000000000001 1 0 
2 1.7160033035788841e-15 -6.7505352430363358e-16 1 0 -0 1 25.5
2 27.5 25.5 1 0 -0 1 25.5
1 0 19.800000000000001 1 0 
8 -23.300000600000001 5.999999999062311e-07
1 0 -43.710642492784267 -1 0 
8 -23.300000600000001 5.999999999062311e-07
1 2.3461938234056499 0 0 1 
8 -23.300000600000001 5.999999999062311e-07
1 2.3461938234056499 19.800000000000001 0 1 
8 -2.6250024000000001 2.3999999999999999e-06
1 2.3461938234056499 0 0 1 
8 -2.6250024000000001 2.3999999999999999e-06
1 19.800000000000001 -43.710642492784267 -1 0 
8 -2.625 0
1 8.6293791305852352 0 0 1 
1 2.3461938234056499 -19.800000000000001 0 1 
8 -2.625 0
1 8.6293791305852352 0 0 1 
1 2.3461938234056499 0 0 1 
2 1.7160033035788841e-15 -6.7505352430363358e-16 1 0 0 -1 25.5
1 6.2831853071795862 -22.425000000000001 -1 0 
1 6.2831853071795862 -2.625 -1 0 
8 -23.300000600000001 -3.8074999999999992
1 -5.5 6.4913381193698214 -1 0 
8 -23.300000600000001 -3.8074999999999992
1 3.0039031012855646 0 0 1 
8 -23.300000600000001 -3.8074999999999992
1 3.0039031012855646 19.800000000000001 0 1 
2 22.75 0 1 0 0 -1 25.5
1 6.2831853071795862 -5.5 -1 0 
1 6.2831853071795862 14.300000000000001 -1 0 
8 -23.300000600000001 -3.8074999999999992
1 -5.5 6.4913381193698214 -1 0 
8 -23.300000600000001 -3.8074999999999992
1 3.2792822058940216 0 0 1 
8 -23.300000600000001 -3.8074999999999992
1 3.2792822058940216 19.800000000000001 0 1 
1 6.1454957548753573 -2.625 -1 0 
2 1.7160033035788841e-15 -6.7505352430363358e-16 0.99053576002471289 -0.13725490196078433 -0.13725490196078433 -0.99053576002471289 25.500000000000004
8 -2.6250005999999999 -1.3049999999999997
1 4.6653127706383719 0 0 1 
8 -2.6250005999999999 -1.3049999999999997
1 -1.4249999999999998 4.9717490565528308 -1 0 
1 4.7594651901310083 -1.4249999999999998 -1 0 
8 -2.6250005999999999 -1.3049999999999997
1 4.7594651901310074 0 0 1 
8 -2.6250005999999999 -1.3049999999999997
1 -1.4249999999999998 4.9717490565528308 -1 0 
8 -23.300000600000001 -3.8074999999999992
1 -5.5 2.5086618806301786 -1 0 
8 -23.300000600000001 -3.8074999999999992
1 6.1454957548753573 0 0 1 
8 -23.300000600000001 -3.8074999999999992
1 6.1454957548753573 19.800000000000001 0 1 
2 -22.75 0 1 0 0 -1 25.5
1 6.2831853071795862 -5.5 -1 0 
1 6.2831853071795862 14.300000000000001 -1 0 
1 0 0 0 -1 
1 6.2831853071795862 0 0 -1 
1 0 19.800000000000001 0 -1 
1 6.2831853071795862 19.800000000000001 0 -1 
2 -17.850000000000001 25.5 1 0 -0 1 25.5
1 0 19.800000000000001 1 0 
8 -23.300000600000001 5.999999999062311e-07
1 0 -7.2893575072157333 -1 0 
8 -23.300000600000001 5.999999999062311e-07
1 5.487786476995443 0 0 1 
8 -23.300000600000001 5.999999999062311e-07
1 5.487786476995443 19.800000000000001 0 1 
8 -12.75 38.25
1 17.850000000000001 -12.75 0 1 
8 -12.75 38.25
1 19.800000000000001 -12.75 0 -1 
8 -23.300000600000001 5.999999999062311e-07
1 0 -43.710642492784267 -1 0 
8 -23.300000600000001 5.999999999062311e-07
1 0.79539883018414348 0 0 1 
8 -23.300000600000001 5.999999999062311e-07
1 0.79539883018414348 19.800000000000001 0 1 
1 0 0 0 -1 
1 0 0 0 1 
1 17.850000000000001 -25.5 0 1 
2 -17.850000000000001 25.5 1 0 -0 1 25.5
1 0 19.800000000000001 1 0 
2 4.8999999999999986 25.5 1 0 -0 1 1.7
1 0 5.5 1 0 
2 22.75 -6.7505352430363358e-16 1 0 -0 1 1.6999999999999993
2 0 0 1 0 -0 1 1.7
1 0 11 1 0 
1 6.2831853071795862 -0 0 1 
1 0 -0 0 1 
2 -22.75 0 1 0 0 -1 25.5
1 6.2831853071795862 -5.5 -1 0 
1 6.2831853071795862 14.300000000000001 -1 0 
8 -23.300000600000001 -3.8074999999999992
1 -5.5 2.5086618806301786 -1 0 
8 -23.300000600000001 -3.8074999999999992
1 0.1376895523042288 0 0 1 
8 -23.300000600000001 -3.8074999999999992
1 0.1376895523042288 19.800000000000001 0 1 
1 6.2831853071795862 -2.625 -1 0 
8 -2.6250024000000001 2.3999999999999999e-06
1 7.0785841373637295 0 0 1 
8 -2.6250024000000001 2.3999999999999999e-06
1 19.800000000000001 -43.710642492784267 -1 0 
1 0.79539883018414348 -19.800000000000001 0 1 
1 0.79539883018414348 0 0 1 
8 -2.6250024000000001 2.3999999999999999e-06
1 7.0785841373637295 0 0 1 
1 0 0 0 1 
1 0 7 1 0 
1 0 3.5 1 0 
8 -16.125 -11.375
1 11.375000000000002 3.4999999999999991 -1 0 
8 -16.125 -11.375
1 16.925000000000001 -11.375 0 -1 
1 0 -7 1 0 
1 0 0 1 0 
1 1.5707963267948966 0 0 1 
2 22.75 -6.7505352430363358e-16 1 0 -0 1 3.5
1 0 16.925000000000001 1 0 
1 0 0 1 0 
1 0 0 1 0 
1 4.7123889803846897 0 0 1 
1 0 0 1 0 
2 0 0 1 0 -0 1 3.5
2 0 0 1 0 -0 1 3.5
1 0 0 0 1 
1 0 0 1 0 
1 0 -3.5 1 0 
8 -16.125 -11.375
1 11.375000000000002 -3.5000000000000009 -1 0 
8 -16.125 -11.375
1 16.925000000000001 -11.375 0 -1 
1 1.2 0 0 1 
1 0 2.3999999999999999 1 0 
1 1.6999999999999993 3.4000000000000004 1 0 
1 1.2000000000000062 -20.5 2.2204460492503131e-16 -1 
8 0.39999999999999991 0.79999999999999993
1 -0.39999999999999991 -3.4000000000000004 1 0 
8 0.39999999999999991 0.79999999999999993
1 0.39999999999999991 1.6999999999999993 1 0 
8 -2.550000000000002 -0.85000000000000142
1 0.84999999999999787 3.4000000000000004 -1 0 
8 -2.550000000000002 -0.85000000000000142
1 0.79999999999999982 -0.85000000000000142 0 -1 
1 0 -2.3999999999999999 1 0 
1 0 0 1 0 
1 0 0 0 1 
1 0 2.3999999999999999 1 0 
1 0 0 1 0 
1 0 0 1 0 
8 0.50000000000000022 2.9000000000000004
1 1.6999999999999993 0.5 0 1 
8 0.50000000000000022 2.9000000000000004
1 0.79999999999999982 0.50000000000000022 0 -1 
1 0 0 0 -1 
1 0 0 0 1 
1 0 0 0 1 
1 0 4.4000000000000004 1 0 
1 0 0 0 -1 
1 3.3999999999999999 0 0 1 
8 -2.550000000000002 -0.85000000000000142
1 0.84999999999999787 1.0000000000000002 -1 0 
8 -2.550000000000002 -0.85000000000000142
1 0.79999999999999982 -0.85000000000000142 0 -1 
1 0 0 0 1 
1 0 0 1 0 
1 0 0 0 -1 
1 0 0 0 1 
1 0 0 1 0 
1 0 0 1 0 
1 0.40000000000000002 0 0 -1 
1 0 0 0 1 
1 0 0 0 1 
1 -2.1999999999999944 -18.800000000000001 1 2.2204460492503131e-16 
1 0 -4.4000000000000004 1 0 
1 0 0 1 0 
1 0 0 1 0 
1 0 3.3999999999999999 1 0 
1 0.40000000000000002 0 0 1 
1 0 0 1 0 
1 0 0 1 0 
1 -2.1999999999999944 -18.800000000000001 2.2204460492503131e-16 -1 
1 0.40000000000000002 0 0 -1 
1 3.3999999999999999 0 0 1 
1 3.3999999999999986 0 0 1 
1 -2.1999999999999935 -22.199999999999999 1 2.2204460492503131e-16 
8 0.39999999999999991 0.79999999999999993
1 -0.39999999999999991 -1.0000000000000002 1 0 
8 0.39999999999999991 0.79999999999999993
1 0.39999999999999991 1.6999999999999993 1 0 
1 0 -4.4000000000000004 1 0 
1 0 3.3999999999999999 1 0 
1 0.40000000000000002 0 0 1 
1 0 4.4000000000000004 1 0 
1 0 4.4000000000000004 1 0 
1 2.200000000000006 -18.800000000000001 2.2204460492503131e-16 -1 
1 3.3999999999999986 0 0 1 
1 -2.1999999999999935 -22.199999999999999 1 2.2204460492503131e-16 
1 0 0 0 1 
1 0 0 1 0 
1 1.2 0 0 1 
1 0 0 1 0 
1 1.6999999999999993 1.0000000000000002 1 0 
1 -1.1999999999999937 -20.5 2.2204460492503131e-16 -1 
1 0 0 0 1 
1 0 0 1 0 
1 -9 -3.5 1 0 
1 0 0 1 0 
1 0 9 1 0 
1 4.7123889803846897 0 0 1 
8 0 17.925000000000001
1 4.7123889803846897 0 0 1 
8 6.875 11.625000000000002
1 -15.874999999999998 -3.5000000000000009 -1 0 
8 6.875 11.625000000000002
1 16.925000000000001 15.875 0 -1 
1 -15.874999999999998 -3.5000000000000009 -1 0 
2 -22.75 -6.7505352430363358e-16 1 0 -0 1 3.5
1 0 16.925000000000001 1 0 
2 -22.75 -6.7505352430363358e-16 1 0 -0 1 3.5
1 0 -7 1 0 
1 0 9 1 0 
1 1.5707963267948966 0 0 1 
8 0 17.925000000000001
1 7.8539816339744828 0 0 1 
1 4.7123889803846897 0 1 0 
2 0 0 0 -1 1 0 3.5
1 0 0 0 1 
1 0 7 1 0 
1 -9 3.5 1 0 
2 0 0 1 0 -0 1 1.7
1 0 11 1 0 
1 6.2831853071795862 -0 0 1 
1 0 -0 0 1 
2 4.75 25.5 1 0 -0 1 1.7
1 0 5.5 1 0 
2 -22.75 -6.7505352430363358e-16 1 0 -0 1 1.6999999999999993
8 6.875 11.625000000000002
1 -15.874999999999998 3.4999999999999991 -1 0 
8 6.875 11.625000000000002
1 16.925000000000001 15.875 0 -1 
1 -15.874999999999998 3.4999999999999991 -1 0 
1 8.6293791305852299 -2.625 -1 -0 
2 1.7160033035788841e-15 -6.7505352430363358e-16 -0.69999999999999563 0.71414284285428942 0.71414284285428942 0.69999999999999563 25.5
2 1.7160033035788841e-15 -6.7505352430363358e-16 -0.69999999999999563 0.71414284285428942 0.71414284285428942 0.69999999999999563 25.5
1 2.3461938234056436 -22.425000000000001 -1 0 
1 8.6293791305852299 -2.625 -1 -0 
2 -12.999999999999998 -13 1 0 -0 1 4
1 0 2.625 1 0 
2 -12.999999999999998 -13 1 0 -0 1 4
2 -12.999999999999998 -13 1 0 -0 1 4
2 13.000000000000002 -13 1 0 -0 1 4
1 0 2.625 1 0 
2 13.000000000000002 -13 1 0 -0 1 4
2 13.000000000000002 -13 1 0 -0 1 4
2 -12.999999999999998 13 1 0 -0 1 4
1 0 2.625 1 0 
2 -12.999999999999998 13 1 0 -0 1 4
2 -12.999999999999998 13 1 0 -0 1 4
2 1.7160033035788841e-15 -6.7505352430363358e-16 1 0 -0 1 11.300000000000001
1 0 7.875 1 0 
2 1.7160033035788841e-15 -6.7505352430363358e-16 1 0 -0 1 11.300000000000001
2 1.7160033035788841e-15 -6.7505352430363358e-16 1 0 -0 1 11.300000000000001
2 13.000000000000002 13 1 0 -0 1 4
1 0 2.625 1 0 
2 13.000000000000002 13 1 0 -0 1 4
2 13.000000000000002 13 1 0 -0 1 4
1 6.2831853071795862 -0 0 1 
1 0 -0 0 1 
1 0 3.5 1 0 
2 0 0 1 0 -0 1 4
2 13.000000000000002 13 1 0 -0 1 4
2 0 0 1 0 -0 1 1.7
1 0 8.75 1 0 
2 13.000000000000002 13 1 0 -0 1 1.6999999999999993
1 6.2831853071795862 -0 0 1 
1 0 -0 0 1 
2 13.000000000000002 13 1 0 -0 1 1.7
1 0 5.25 1 0 
1 6.2831853071795862 -0 0 1 
1 0 -0 0 1 
2 1.7160033035788841e-15 -6.7505352430363358e-16 1 0 -0 1 11.300000000000001
1 0 5.25 1 0 
1 6.2831853071795862 -0 0 1 
1 0 -0 0 1 
1 0 3.5 1 0 
2 0 0 1 0 -0 1 4
2 -12.999999999999998 13 1 0 -0 1 4
2 0 0 1 0 -0 1 1.7
1 0 8.75 1 0 
2 -12.999999999999998 13 1 0 -0 1 1.6999999999999993
1 6.2831853071795862 -0 0 1 
1 0 -0 0 1 
2 -12.999999999999998 13 1 0 -0 1 1.7
1 0 5.25 1 0 
1 6.2831853071795862 -0 0 1 
1 0 -0 0 1 
1 0 3.5 1 0 
2 0 0 1 0 -0 1 4
2 13.000000000000002 -13 1 0 -0 1 4
2 0 0 1 0 -0 1 1.7
1 0 8.75 1 0 
2 13.000000000000002 -13 1 0 -0 1 1.6999999999999993
1 6.2831853071795862 -0 0 1 
1 0 -0 0 1 
2 13.000000000000002 -13 1 0 -0 1 1.7
1 0 5.25 1 0 
1 6.2831853071795862 -0 0 1 
1 0 -0 0 1 
1 0 3.5 1 0 
2 0 0 1 0 -0 1 4
2 -12.999999999999998 -13 1 0 -0 1 4
2 0 0 1 0 -0 1 1.7
1 0 8.75 1 0 
2 -12.999999999999998 -13 1 0 -0 1 1.6999999999999993
1 6.2831853071795862 -0 0 1 
1 0 -0 0 1 
2 -12.999999999999998 -13 1 0 -0 1 1.7
1 0 5.25 1 0 
1 -2.3461938234056503 -19.800000000000001 1 0 
1 3.9369914837739359 0 1 0 
1 0 0 0 -1 
1 9.6499999999999986 0 0 1 
1 -17.850000000000001 -25.5 0 1 
8 -12.75 38.25
1 -17.850000000000001 -12.75 0 1 
8 -12.75 38.25
1 19.800000000000001 -12.75 0 -1 
Curves 99
8 0 4.6923876468112997
2 0 0 0 0 0 1 -0.7000000000000004 -0.71414284285428475 0 0.71414284285428475 -0.7000000000000004 0 25.5
1 -17.850000000000001 -18.210642492784267 -19.800000000000001 -0 -0 -1 
2 0 0 0 0 0 1 1 0 -0 -0 1 0 25.5
1 -17.850000000000001 18.210642492784267 -19.800000000000001 -0 -0 -1 
1 -17.850000000000001 18.210642492784267 0 -0 -0 -1 
2 0 0 2.625 0 -0 -1 1 0 -0 0 -1 0 25.5
1 -25.258661880630179 3.5 -19.800000000000001 -0 -0 -1 
2 0 0 -14.300000000000001 0 -0 -1 1 0 -0 0 -1 0 25.5
1 -25.258661880630179 -3.5 -19.800000000000001 -0 -0 -1 
8 0 2.8662135489813356
2 0 0 2.625 0 0 -1 0.99053576002471289 -0.13725490196078433 0 -0.13725490196078433 -0.99053576002471289 -0 25.5
1 -1.1999999999999946 -25.471749056552831 0 -0 -0 -1 
8 0 0.094152419492635767
2 0 0 1.4249999999999998 0 0 -1 0.047058823529411979 -0.99889211986481685 0 -0.99889211986481685 -0.047058823529411979 -0 25.5
1 1.2000000000000053 -25.471749056552831 0 -0 -0 -1 
1 25.258661880630179 -3.5 -19.800000000000001 -0 -0 -1 
2 0 0 -14.300000000000001 0 -0 -1 1 0 -0 0 -1 0 25.5
1 25.5 0 0 0 0 1 
1 17.850000000000001 -18.210642492784267 -19.800000000000001 -0 -0 -1 
1 17.850000000000001 -12.75 0 -0 1 0 
1 17.850000000000001 18.210642492784267 -19.800000000000001 -0 -0 -1 
1 0 0 0 -0 1 0 
2 22.75 0 -19.800000000000001 0 0 1 1 0 -0 -0 1 0 1.7
2 22.75 0 -14.300000000000001 0 0 1 1 0 -0 -0 1 0 1.7
1 1.7 -4.1637991171010006e-16 0 0 0 1 
2 0 0 -14.300000000000001 0 -0 -1 1 0 -0 0 -1 0 25.5
1 25.258661880630179 3.5 -19.800000000000001 -0 -0 -1 
1 17.850000000000001 18.210642492784267 0 -0 -0 -1 
1 0 7 0 1 0 -0 
1 11.375 3.5 2.625 -1 -0 0 
1 0 7 0 0 0 1 
2 22.75 0 2.625 0 0 1 1 0 -0 -0 1 0 3.5
1 0 0 0 0 0 1 
2 0 0 0 0 0 1 1 0 -0 -0 1 0 3.5
1 0 0 0 1 0 -0 
1 11.375 -3.5 2.625 -1 -0 0 
1 0 2.3999999999999999 1.2 1 0 -0 
1 22.199999999999999 1.2000000000000002 1.8249999999999997 0 0 1 
1 19.649999999999999 1.2000000000000002 2.2249999999999996 -1 -0 0 
1 0 2.3999999999999999 0 0 0 1 
1 0 2.3999999999999999 0 1 0 -0 
1 0 0 0 0 0 1 
1 20.5 -1.7000000000000002 2.2249999999999996 -0 1 0 
1 0 0 0 -0 1 0 
1 0 4.4000000000000004 0 1 0 -0 
1 3.3999999999999999 0 0 -0 1 0 
1 19.649999999999999 -1.2 2.2249999999999996 -1 -0 0 
1 0 0 0 1 0 -0 
1 0 0 0 -0 1 0 
1 0 0 0 0 0 1 
1 0 0 0.40000000000000002 -0 1 0 
1 0 4.4000000000000004 0 0 0 1 
1 3.3999999999999999 0 0 0 0 1 
1 0 0 0.40000000000000002 1 0 -0 
1 3.3999999999999999 0 0.40000000000000002 -0 1 0 
1 22.199999999999999 -1.2 1.8249999999999997 0 0 1 
1 3.3999999999999999 4.4000000000000004 0 0 0 1 
1 0 4.4000000000000004 0.40000000000000002 1 0 -0 
1 0 0 0 1 0 -0 
1 0 0 1.2 1 0 -0 
1 0 0 0 1 0 -0 
1 9 0 0 0 0 1 
1 -15.875 -3.5 2.625 -1 -0 0 
2 -22.75 0 2.625 0 0 1 1 0 -0 -0 1 0 3.5
1 9 7 0 0 0 1 
8 0 3.1415926535897931
2 -22.75 0 -14.300000000000001 0 0 1 0 -1 0 1 0 -0 3.5
1 0 7 0 1 0 -0 
2 -22.75 0 -14.300000000000001 0 0 1 1 0 -0 -0 1 0 1.7
1 1.7 -4.1637991171010006e-16 0 0 0 1 
2 -22.75 0 -19.800000000000001 0 0 1 1 0 -0 -0 1 0 1.7
1 -15.875 3.5 2.625 -1 -0 0 
8 0 4.6923876468112864
2 0 0 2.625 0 0 -1 -0.69999999999999563 0.71414284285428942 0 0.71414284285428942 0.69999999999999563 0 25.5
2 -13 -13 2.625 0 0 1 1 0 -0 -0 1 0 4
2 13 -13 2.625 0 0 1 1 0 -0 -0 1 0 4
2 -13 13 2.625 0 0 1 1 0 -0 -0 1 0 4
2 0 0 2.625 0 0 1 1 0 -0 -0 1 0 11.300000000000001
2 13 13 2.625 0 0 1 1 0 -0 -0 1 0 4
1 4 -9.7971743931788257e-16 0 0 0 1 
2 0 0 3.5 0 0 1 1 0 -0 -0 1 0 4
2 13 13 3.5 0 0 1 1 0 -0 -0 1 0 1.7
1 1.7 -4.1637991171010006e-16 0 0 0 1 
2 13 13 0 0 0 1 1 0 -0 -0 1 0 1.7
1 11.300000000000001 -2.7677017660730185e-15 0 0 0 1 
2 0 0 0 0 0 1 1 0 -0 -0 1 0 11.300000000000001
1 4 -9.7971743931788257e-16 0 0 0 1 
2 0 0 3.5 0 0 1 1 0 -0 -0 1 0 4
2 -13 13 3.5 0 0 1 1 0 -0 -0 1 0 1.7
1 1.7 -4.1637991171010006e-16 0 0 0 1 
2 -13 13 0 0 0 1 1 0 -0 -0 1 0 1.7
1 4 -9.7971743931788257e-16 0 0 0 1 
2 0 0 3.5 0 0 1 1 0 -0 -0 1 0 4
2 13 -13 3.5 0 0 1 1 0 -0 -0 1 0 1.7
1 1.7 -4.1637991171010006e-16 0 0 0 1 
2 13 -13 0 0 0 1 1 0 -0 -0 1 0 1.7
1 4 -9.7971743931788257e-16 0 0 0 1 
2 0 0 3.5 0 0 1 1 0 -0 -0 1 0 4
2 -13 -13 3.5 0 0 1 1 0 -0 -0 1 0 1.7
1 1.7 -4.1637991171010006e-16 0 0 0 1 
2 -13 -13 0 0 0 1 1 0 -0 -0 1 0 1.7
1 9.6499999999999986 0 0 -0 1 0 
1 -17.850000000000001 -12.75 0 -0 1 0 
Polygon3D 0
PolygonOnTriangulations 0
Surfaces 54
2 0 0 0 -0 -0 -1 1 0 -0 -0 1 0 25.5
10 3.1415926535897927 9.4247779607693793 -2e+100 2e+100
2 0 0 0 -0 -0 -1 1 0 -0 -0 1 0 25.5
1 -1.7160033035788841e-15 6.7505352430363358e-16 0 0 0 1 1 0 -0 -0 1 0 
2 0 0 0 -0 -0 -1 1 0 -0 -0 1 0 25.5
1 9.6499999999999986 0 0 1 0 -0 0 0 1 0 -1 0 
1 -1.7160033035788841e-15 6.7505352430363358e-16 0 0 0 1 1 0 -0 -0 1 0 
1 0 0 0 0 0 1 1 0 -0 -0 1 0 
2 0 0 0 -0 -0 -1 1 0 -0 -0 1 0 25.5
1 -1.7160033035788841e-15 6.7505352430363358e-16 2.625 0 0 1 1 0 -0 -0 1 0 
1 0 7 0 -0 1 0 0 0 1 1 0 -0 
1 -22.75 0 -14.300000000000001 0 0 1 1 0 -0 -0 1 0 
1 0 0 0 -0 1 0 0 0 1 1 0 -0 
1 0 0 0 -0 1 0 0 0 1 1 0 -0 
1 0 2.3999999999999999 0 -0 1 0 0 0 1 1 0 -0 
1 0 0 0 -0 1 0 0 0 1 1 0 -0 
1 22.75 0 -14.300000000000001 0 0 1 1 0 -0 -0 1 0 
1 0 0 0 0 0 1 1 0 -0 -0 1 0 
1 0 0 0 1 0 -0 0 0 1 0 -1 0 
2 0 0 0 0 0 1 1 0 -0 -0 1 0 1.7
1 0 7 0 -0 1 0 0 0 1 1 0 -0 
1 0 0 0 0 0 1 1 0 -0 -0 1 0 
1 0 0 0 1 0 -0 0 0 1 0 -1 0 
2 0 0 0 0 0 1 1 0 -0 -0 1 0 3.5
1 0 0 0 0 0 1 1 0 -0 -0 1 0 
1 0 0 1.2 0 0 1 1 0 -0 -0 1 0 
1 18.800000000000001 -2.2000000000000002 2.6249999999999996 0 0 1 1 0 -0 -0 1 0 
1 3.3999999999999999 0 0 1 0 -0 0 0 1 0 -1 0 
1 0 0 0 0 0 1 1 0 -0 -0 1 0 
1 0 0 0 1 0 -0 0 0 1 0 -1 0 
1 0 0 0 0 0 1 1 0 -0 -0 1 0 
1 0 4.4000000000000004 0 -0 1 0 0 0 1 1 0 -0 
1 0 0 0 -0 1 0 0 0 1 1 0 -0 
1 0 0 0 1 0 -0 0 0 1 0 -1 0 
1 0 0 0.40000000000000002 0 0 1 1 0 -0 -0 1 0 
1 0 0 0 0 0 1 1 0 -0 -0 1 0 
1 9 0 0 1 0 -0 0 0 1 0 -1 0 
2 0 0 0 0 0 1 1 0 -0 -0 1 0 3.5
10 3.1415926535897931 9.4247779607693793 -2e+100 2e+100
2 -22.75 0 -14.300000000000001 0 0 1 1 0 -0 -0 1 0 3.5
1 -1.7160033035788841e-15 6.7505352430363358e-16 2.625 0 0 1 1 0 -0 -0 1 0 
2 0 0 0 0 0 1 1 0 -0 -0 1 0 1.7
1 -1.7160033035788841e-15 6.7505352430363358e-16 0 0 0 1 1 0 -0 -0 1 0 
2 0 0 0 0 0 1 1 0 -0 -0 1 0 4
2 0 0 0 0 0 1 1 0 -0 -0 1 0 4
2 0 0 0 0 0 1 1 0 -0 -0 1 0 4
2 0 0 0 0 0 1 1 0 -0 -0 1 0 11.300000000000001
2 0 0 0 0 0 1 1 0 -0 -0 1 0 4
1 0 0 3.5 0 0 1 1 0 -0 -0 1 0 
2 0 0 0 0 0 1 1 0 -0 -0 1 0 1.7
1 0 0 3.5 0 0 1 1 0 -0 -0 1 0 
2 0 0 0 0 0 1 1 0 -0 -0 1 0 1.7
1 0 0 3.5 0 0 1 1 0 -0 -0 1 0 
2 0 0 0 0 0 1 1 0 -0 -0 1 0 1.7
1 0 0 3.5 0 0 1 1 0 -0 -0 1 0 
2 0 0 0 0 0 1 1 0 -0 -0 1 0 1.7
Triangulations 0

TShapes 281
Ve
6.00000007105427e-07
-17.85 -18.2106424927843 0
0 0

0101101
*
Ve
6.00000003552714e-07
17.85 -18.2106424927843 0
0 0

0101101
*
Ed
 1.00000017763568e-07 1 1 0
1  1 0 0 1.55079499322151
2  1 2 0 0 1.55079499322151
2  2 3 0 0 1.55079499322151
2  3 4 1 0 1.55079499322151
2  4 1 0 0 1.55079499322151
0

0101000
+281 0 -280 0 *
Ve
1.00000435363282e-07
-17.8500000000002 -18.2106424927839 -19.8
0 0

0101101
*
Ed
 1e-07 1 1 0
1  2 0 -19.8 0
2  5 5 4 -19.8 0
2  6 4 1 -19.8 0
2  7 1 0 -19.8 0
0

0101000
+281 0 -278 0 *
Ve
1.00000438526346e-07
-17.8500000000002 18.2106424927839 -19.8
0 0

0101101
*
Ed
 1e-07 1 1 0
1  3 0 2.34619382340567 3.93699148377392
2  8 4 7 2.34619382340567 3.93699148377392
2  9 4 9 2.34619382340567 3.93699148377392
2  10 6 0 2.34619382340567 3.93699148377392
2  11 7 10 2.34619382340567 3.93699148377392
2  12 1 11 2.34619382340567 3.93699148377392
0

0101000
+276 11 -278 11 *
Ve
6.00000003552714e-07
-17.85 18.2106424927843 0
0 0

0101101
*
Ed
 1e-07 1 1 0
1  4 0 -19.8 0
2  13 5 4 -19.8 0
2  14 4 1 -19.8 0
2  15 1 0 -19.8 0
0

0101000
+274 0 -276 0 *
Ve
1.00000173469388e-07
-17.8499999999999 18.2106424927844 2.625
0 0

0101101
*
Ed
 1.00000005024296e-07 1 1 0
1  5 0 -2.625 0
2  16 8 0 -2.625 0
2  17 5 4 -2.625 0
2  18 2 0 -2.625 0
2  19 4 1 -2.625 0
3  20 21C0 1 0 -2.625 0
0

0101000
+272 0 -274 0 *
Ve
1.5e-07
-25.2586618806302 3.5 2.625
0 0

0101101
*
Ed
 1e-07 1 1 0
1  6 0 3.27928220589402 3.93699148377394
2  22 9 0 3.27928220589402 3.93699148377394
2  23 4 1 3.27928220589402 3.93699148377394
2  24 1 0 3.27928220589402 3.93699148377394
0

0101000
+270 0 -272 0 *
Ve
1.00000024585863e-07
-25.2586618806302 3.5 -14.3
0 0

0101101
*
Ed
 1e-07 1 1 0
1  7 0 -22.425 -5.5
2  25 10 14 -22.425 -5.5
2  26 4 1 -22.425 -5.5
2  27 1 0 -22.425 -5.5
0

0101000
+270 0 -268 0 *
Ve
1.00000008343679e-07
-25.2586618806302 -3.5 -14.3
0 0

0101101
*
Ed
 1e-07 1 1 0
1  8 0 3.00390310128556 3.27928220589402
2  28 11 0 3.00390310128556 3.27928220589402
2  29 4 1 3.00390310128556 3.27928220589402
2  30 1 0 3.00390310128556 3.27928220589402
0

0101000
+266 0 -268 0 *
Ve
1.5e-07
-25.2586618806302 -3.5 2.625
0 0

0101101
*
Ed
 1e-07 1 1 0
1  9 0 -22.425 -5.5
2  31 12 14 -22.425 -5.5
2  32 4 1 -22.425 -5.5
2  33 1 0 -22.425 -5.5
0

0101000
+264 0 -266 0 *
Ve
1.00000271718824e-07
-1.19999999999972 -25.4717490565529 2.625
0 0

0101101
*
Ed
 1e-07 1 1 0
1  10 0 1.48018298423697 2.86621354898134
2  34 1 0 1.48018298423697 2.86621354898134
2  35 9 0 1.48018298423697 2.86621354898134
0

0101000
+262 0 -264 0 *
Ve
1.00000000666134e-07
-1.19999999999999 -25.4717490565528 1.425
0 0

0101101
*
Ed
 1e-07 1 1 0
1  11 0 -2.625 -1.425
2  36 1 0 -2.625 -1.425
2  37 13 18 -2.625 -1.425
0

0101000
+262 0 -260 0 *
Ve
1.00000003996803e-07
1.20000000000001 -25.4717490565528 1.425
0 0

0101101
*
Ed
 1e-07 1 1 0
1  12 0 0 0.0941524194926358
2  38 1 0 0 0.0941524194926358
0

0101000
+258 0 -260 0 *
Ve
1.00000270927996e-07
1.19999999999974 -25.4717490565529 2.625
0 0

0101101
*
Ed
 1e-07 1 1 0
1  13 0 -2.625 -1.425
2  39 1 0 -2.625 -1.425
2  40 14 18 -2.625 -1.425
0

0101000
+256 0 -258 0 *
Ve
1.5e-07
25.2586618806302 -3.5 2.625
0 0

0101101
*
Ed
 1e-07 1 1 0
1  10 0 0 1.38603056474436
2  34 1 0 0 1.38603056474436
2  35 9 0 0 1.38603056474436
0

0101000
+254 0 -256 0 *
Ve
1.00000000444089e-07
25.2586618806302 -3.5 -14.3
0 0

0101101
*
Ed
 1e-07 1 1 0
1  14 0 -22.425 -5.5
2  41 15 21 -22.425 -5.5
2  42 4 1 -22.425 -5.5
2  43 1 0 -22.425 -5.5
0

0101000
+254 0 -252 0 *
Ve
1.00000006245699e-07
25.5 0 -14.3
0 0

0101101
*
Ed
 1e-07 1 1 0
1  15 0 0 0.137689552304229
2  44 16 0 0 0.137689552304229
2  45 4 1 0 0.137689552304229
2  46 1 0 0 0.137689552304229
0

0101000
+250 0 -252 0 *
Ve
1e-07
25.5 0 0
0 0

0101101
*
Ed
 1e-07 1 1 0
1  16 0 0 5.5
3  47 48CN 4 0 0 5.5
3  49 50C0 1 22 0 5.5
0

0101000
+248 5 -250 22 *
Ve
1.00000231989755e-07
17.8499999999999 -18.2106424927845 -19.8
0 0

0101101
*
Ed
 1e-07 1 1 0
1  3 0 5.48778647699543 6.28318530717959
2  8 4 7 5.48778647699543 6.28318530717959
2  9 4 9 5.48778647699543 6.28318530717959
2  10 6 0 5.48778647699543 6.28318530717959
2  51 17 25 5.48778647699543 6.28318530717959
2  52 1 11 5.48778647699543 6.28318530717959
0

0101000
+246 11 -248 0 *
Ed
 1e-07 1 1 0
1  17 0 -19.8 0
2  53 18 26 -19.8 0
2  54 4 1 -19.8 0
2  55 1 0 -19.8 0
0

0101000
+280 0 -246 0 *
Wi

0101100
-279 0 +277 0 -275 6 -273 0 -271 0 -269 0 +267 0 -265 0 -263 0 -261 0 
+259 0 -257 0 -255 0 -253 0 +251 0 -249 0 -247 1 -245 6 -244 0 *
Fa
0  0 1 0

0111000
+243 0 *
Ve
6.00000003552714e-07
17.85 18.2106424927843 0
0 0

0101101
*
Ed
 6e-07 1 1 0
1  18 0 -5.46064249278426 30.9606424927843
2  56 3 0 -5.46064249278426 30.9606424927843
2  57 18 26 -5.46064249278426 30.9606424927843
0

0101000
+280 0 -241 0 *
Ve
1.00000231989755e-07
17.8499999999999 18.2106424927845 -19.8
0 0

0101101
*
Ed
 1e-07 1 1 0
1  19 0 -19.8 0
2  58 18 26 -19.8 0
2  59 4 1 -19.8 0
2  60 1 0 -19.8 0
0

0101000
+241 0 -239 0 *
Ed
 1e-07 1 1 0
1  20 0 7.28935750721553 43.7106424927845
2  61 18 0 7.28935750721553 43.7106424927845
2  62 17 0 7.28935750721553 43.7106424927845
2  63 6 27 7.28935750721553 43.7106424927845
0

0101000
+246 28 -239 28 *
Wi

0101100
-240 0 -238 0 +237 26 +244 0 *
Fa
0  1e-07 18 26

0101000
+236 0 *
Ed
 1e-07 1 1 0
1  3 0 0 0.795398830184152
2  8 4 7 0 0.795398830184152
2  9 4 9 0 0.795398830184152
2  10 6 0 0 0.795398830184152
2  64 17 25 0 0.795398830184152
2  65 1 11 0 0.795398830184152
0

0101000
+248 0 -239 11 *
Wi

0101100
-237 26 +234 6 +245 6 *
Ve
1.0000000041638e-07
24.45 -4.163799117101e-16 -19.8
0 0

0101101
*
Ed
 1e-07 1 1 0
1  21 0 0 6.28318530717959
2  66 17 26 0 6.28318530717959
2  67 19 31 0 6.28318530717959
2  68 6 6 0 6.28318530717959
0

0101100
+232 0 -232 0 *
Wi

0101100
-231 0 *
Fa
0  1e-07 17 26

0101000
+233 0 +230 0 *
Ve
1.0000000041638e-07
24.45 -4.163799117101e-16 -14.3
0 0

0101101
*
Ed
 1e-07 1 1 0
1  22 0 0 6.28318530717959
2  69 16 0 0 6.28318530717959
2  70 19 31 0 6.28318530717959
0

0101100
+228 0 -228 0 *
Ed
 1e-07 1 1 0
1  23 0 5.5 11
3  71 72CN 19 0 5.5 11
0

0101000
+232 32 -228 32 *
Wi

0101100
-227 0 +226 31 +231 0 -226 31 *
Fa
0  1e-07 19 31

0101000
+225 0 *
Ve
1.00000012434498e-07
25.2586618806302 3.5 -14.3
0 0

0101101
*
Ed
 1e-07 1 1 0
1  24 0 6.14549575487536 6.28318530717959
2  73 16 0 6.14549575487536 6.28318530717959
2  74 4 1 6.14549575487536 6.28318530717959
2  75 1 0 6.14549575487536 6.28318530717959
0

0101000
+223 0 -250 0 *
Ve
1.5e-07
25.2586618806302 3.5 2.625
0 0

0101101
*
Ed
 1e-07 1 1 0
1  25 0 -22.425 -5.5
2  76 20 21 -22.425 -5.5
2  77 4 1 -22.425 -5.5
2  78 1 0 -22.425 -5.5
0

0101000
+221 0 -223 0 *
Ve
1.00000503696624e-07
17.8500000000002 18.2106424927838 2.625
0 0

0101101
*
Ed
 1e-07 1 1 0
1  6 0 5.48778647699546 6.14549575487536
2  22 9 0 5.48778647699546 6.14549575487536
2  23 4 1 5.48778647699546 6.14549575487536
2  79 1 0 5.48778647699546 6.14549575487536
0

0101000
+219 0 -221 0 *
Ed
 1e-07 1 1 0
1  26 0 -2.625 -0
2  80 2 0 -2.625 -0
2  81 18 26 -2.625 -0
2  82 4 1 -2.625 -0
3  83 84C0 1 0 -2.625 -0
0

0101000
+219 0 -241 0 *
Wi

0101100
-234 6 +247 1 -222 0 -220 0 -218 0 +217 0 +238 0 *
Fa
0  0 1 0

0101000
+216 0 *
Ve
1.0000000116861e-07
0 7 0
0 0

0101101
*
Ed
 1e-07 1 1 0
1  27 0 0 2.50866188063018
2  85 20 0 0 2.50866188063018
2  86 21 0 0 2.50866188063018
2  87 16 33 0 2.50866188063018
0

0101000
+214 0 -223 33 *
Ve
1.5e-07
22.75 3.5 2.625
0 0

0101101
*
Ed
 1.5e-07 1 1 0
1  28 0 -13.8836618806302 -11.375
2  88 9 0 -13.8836618806302 -11.375
2  89 20 21 -13.8836618806302 -11.375
0

0101000
+221 0 -212 0 *
Ed
 1e-07 1 1 0
1  29 0 0 16.925
2  90 22 0 0 16.925
2  91 20 0 0 16.925
2  92 23 36 0 16.925
0

0101000
+214 0 -212 33 *
Wi

0101100
-213 21 +220 0 -211 0 +210 21 *
Fa
0  1e-07 20 21

0101000
+209 0 *
Ve
1.5e-07
22.75 -3.5 2.625
0 0

0101101
*
Ed
 1e-07 1 1 0
1  30 0 1.5707963267949 4.71238898038469
2  93 9 0 1.5707963267949 4.71238898038469
2  94 23 37 1.5707963267949 4.71238898038469
0

0101000
+212 0 -207 0 *
Ve
1.0000000116861e-07
0 0 0
0 0

0101101
*
Ed
 1e-07 1 1 0
1  31 0 0 16.925
2  95 22 0 0 16.925
2  96 15 0 0 16.925
2  97 23 36 0 16.925
0

0101000
+205 0 -207 33 *
Ed
 1e-07 1 1 0
1  32 0 1.5707963267949 4.71238898038469
2  98 23 0 1.5707963267949 4.71238898038469
2  99 24 0 1.5707963267949 4.71238898038469
2  100 16 38 1.5707963267949 4.71238898038469
0

0101000
+214 39 -205 39 *
Wi

0101100
-206 0 +204 21 +203 37 -210 21 *
Fa
0  1e-07 23 37

0101000
+202 0 *
Ed
 1e-07 1 1 0
1  33 0 0 2.50866188063018
2  101 15 0 0 2.50866188063018
2  102 21 0 0 2.50866188063018
2  103 16 33 0 2.50866188063018
0

0101000
+205 0 -252 33 *
Wi

0101100
-213 21 -222 0 -249 0 +200 21 +203 37 *
Wi

0101100
-227 0 *
Fa
0  1e-07 16 0

0101000
+199 0 +198 0 *
Ed
 1.5e-07 1 1 0
1  34 0 -13.8836618806302 -11.375
2  104 9 0 -13.8836618806302 -11.375
2  105 15 21 -13.8836618806302 -11.375
0

0101000
+254 0 -207 0 *
Wi

0101100
-200 21 +251 0 -196 0 +204 21 *
Fa
0  1e-07 15 21

0101000
+195 0 *
Ve
6.00000000444089e-07
22.2 1.2 2.625
0 0

0101101
*
Ed
 1e-07 1 1 0
1  35 0 1.7 4.97174905655286
2  106 14 0 1.7 4.97174905655286
2  107 25 0 1.7 4.97174905655286
2  108 26 40 1.7 4.97174905655286
2  109 9 41 1.7 4.97174905655286
0

0101000
+193 40 -256 41 *
Ve
6e-07
22.2 1.2 2.225
0 0

0101101
*
Ed
 6e-07 1 1 0
1  36 0 0.4 0.8
2  110 27 44 0.4 0.8
2  111 14 45 0.4 0.8
0

0101000
+191 0 -193 0 *
Ve
6.00000000222045e-07
20.5 1.2 2.225
0 0

0101101
*
Ed
 6e-07 1 1 0
1  37 0 -2.55 -0.850000000000001
2  112 28 44 -2.55 -0.850000000000001
2  113 14 45 -2.55 -0.850000000000001
0

0101000
+191 0 -189 0 *
Ve
1e-07
0 2.4 0
0 0

0101101
*
Ed
 1e-07 1 1 0
1  38 0 0 0.8
2  114 29 0 0 0.8
2  115 14 0 0 0.8
0

0101000
+187 0 -189 40 *
Ed
 1e-07 1 1 0
1  39 0 0 4.97174905655283
2  116 14 0 0 4.97174905655283
2  117 30 0 0 4.97174905655283
0

0101000
+187 0 -258 41 *
Wi

0101100
+192 18 +190 17 -188 17 +186 18 -185 18 +255 0 *
Fa
0  1e-07 14 18

0101000
+184 0 *
Ve
1e-07
0 0 0
0 0

0101101
*
Ve
6e-07
20.5 -1.2 2.225
0 0

0101101
*
Ed
 1e-07 1 1 0
1  40 0 0 0.8
2  118 29 0 0 0.8
2  119 13 0 0 0.8
0

0101000
+182 0 -181 40 *
Ed
 6e-07 1 1 0
1  41 0 0.5 2.9
2  120 28 44 0.5 2.9
2  121 29 45 0.5 2.9
0

0101000
+181 0 -189 0 *
Ed
 1e-07 1 1 0
1  42 0 0 2.4
2  122 29 0 0 2.4
2  123 30 0 0 2.4
0

0101000
-187 0 +182 0 *
Wi

0101100
-180 45 -179 0 +186 45 +178 45 *
Fa
0  1e-07 29 45

0101000
+177 0 *
Ve
1e-07
3.4 4.4 0
0 0

0101101
*
Ve
1e-07
0 4.4 0
0 0

0101101
*
Ed
 1e-07 1 1 0
1  43 0 0 3.4
2  124 31 0 0 3.4
2  125 28 0 0 3.4
0

0101000
-175 0 +174 0 *
Ed
 1e-07 1 1 0
1  44 0 3.4 4.4
2  126 27 0 3.4 4.4
2  127 28 0 3.4 4.4
0

0101000
+191 46 -175 0 *
Ve
6e-07
22.2 -1.2 2.225
0 0

0101101
*
Ed
 6e-07 1 1 0
1  45 0 -2.55 -0.850000000000001
2  128 28 44 -2.55 -0.850000000000001
2  129 13 45 -2.55 -0.850000000000001
0

0101000
+171 0 -181 0 *
Ve
1e-07
3.4 0 0
0 0

0101101
*
Ed
 1e-07 1 1 0
1  44 0 0 1
2  126 27 0 0 1
2  127 28 0 0 1
0

0101000
+169 0 -171 46 *
Ve
1e-07
0 0 0
0 0

0101101
*
Ed
 1e-07 1 1 0
1  46 0 0 3.4
2  130 32 0 0 3.4
2  131 28 0 0 3.4
0

0101000
-169 0 +167 0 *
Ed
 1e-07 1 1 0
1  47 0 0 4.4
2  132 33 0 0 4.4
2  133 28 0 0 4.4
0

0101000
-174 0 +167 0 *
Wi

0101100
-173 44 +172 44 -188 0 +179 0 +170 0 +168 44 +166 44 -165 44 *
Fa
0  1e-07 28 44

0101000
+164 0 *
Ve
1.00000000444089e-07
0 0 0.4
0 0

0101101
*
Ed
 1e-07 1 1 0
1  48 0 0 0.4
2  134 33 0 0 0.4
2  135 32 0 0 0.4
0

0101000
-162 0 +167 0 *
Ve
1.00000000444089e-07
0 4.4 0.4
0 0

0101101
*
Ed
 1.00000000444089e-07 1 1 0
1  49 0 0 4.4
2  136 33 0 0 4.4
2  137 34 0 0 4.4
2  138 26 46 0 4.4
2  139 9 48 0 4.4
0

0101000
-160 0 +162 0 *
Ed
 1e-07 1 1 0
1  50 0 0 0.4
2  140 33 0 0 0.4
2  141 31 0 0 0.4
0

0101000
-160 0 +174 0 *
Wi

0101100
-161 0 -159 0 +158 0 +165 0 *
Fa
0  1e-07 33 0

0111000
+157 0 *
Ve
1.00000000444089e-07
3.4 0 0.4
0 0

0101101
*
Ed
 1e-07 1 1 0
1  51 0 0 0.4
2  142 27 0 0 0.4
2  143 32 0 0 0.4
0

0101000
-155 0 +169 0 *
Ed
 1.00000000444089e-07 1 1 0
1  52 0 0 3.4
2  144 32 0 0 3.4
2  145 34 0 0 3.4
2  146 26 46 0 3.4
2  147 9 48 0 3.4
0

0101000
-155 0 +162 0 *
Wi

0101100
-166 0 -154 0 +153 0 +161 0 *
Fa
0  1e-07 32 0

0111000
+152 0 *
Ve
6.00000000444089e-07
22.2 -1.2 2.625
0 0

0101101
*
Ed
 1.00000000444089e-07 1 1 0
1  53 0 0 1
2  148 27 0 0 1
2  149 34 0 0 1
2  150 26 46 0 1
2  151 9 48 0 1
0

0101000
+155 0 -150 46 *
Ed
 6e-07 1 1 0
1  54 0 0.4 0.8
2  152 27 44 0.4 0.8
2  153 13 45 0.4 0.8
0

0101000
+171 0 -150 0 *
Wi

0101100
-149 44 +148 0 +168 44 -154 44 *
Fa
0  1e-07 27 44

0101000
+147 0 *
Ve
1.00000000444089e-07
3.4 4.4 0.4
0 0

0101101
*
Ed
 1e-07 1 1 0
1  55 0 0 0.4
2  154 27 0 0 0.4
2  155 31 0 0 0.4
0

0101000
-145 0 +175 0 *
Ed
 1.00000000444089e-07 1 1 0
1  56 0 0 3.4
2  156 31 0 0 3.4
2  157 34 0 0 3.4
2  158 26 46 0 3.4
2  159 9 48 0 3.4
0

0101000
-145 0 +160 0 *
Wi

0101100
-173 0 -144 0 +143 0 +158 0 *
Fa
0  1e-07 31 0

0111000
+142 0 *
Ed
 1.00000000444089e-07 1 1 0
1  53 0 3.4 4.4
2  148 27 0 3.4 4.4
2  149 34 0 3.4 4.4
2  160 26 46 3.4 4.4
2  161 9 48 3.4 4.4
0

0101000
+193 46 -145 0 *
Wi

0101100
-140 44 +144 44 +172 44 -190 0 *
Fa
0  1e-07 27 44

0101000
+139 0 *
Ed
 1e-07 1 1 0
1  57 0 0 4.97174905655283
2  162 13 0 0 4.97174905655283
2  163 30 0 0 4.97174905655283
0

0101000
+182 0 -260 41 *
Wi

0101100
-185 18 -178 18 +137 18 -257 0 *
Fa
0  1e-07 30 18

0111000
+136 0 *
Ed
 1e-07 1 1 0
1  58 0 1.7 4.97174905655286
2  164 13 0 1.7 4.97174905655286
2  165 25 0 1.7 4.97174905655286
2  166 26 40 1.7 4.97174905655286
2  167 9 41 1.7 4.97174905655286
0

0101000
+150 40 -262 41 *
Wi

0101100
+134 18 +148 17 -170 17 +180 18 -137 18 +259 0 *
Fa
0  1e-07 13 18

0101000
+133 0 *
Ve
1.0000000116861e-07
9 0 0
0 0

0101101
*
Ed
 1e-07 1 1 0
1  59 0 6.49133811936982 9
2  168 12 0 6.49133811936982 9
2  169 35 0 6.49133811936982 9
2  170 11 49 6.49133811936982 9
0

0101000
+266 49 -131 0 *
Ve
1.5e-07
-22.75 -3.5 2.625
0 0

0101101
*
Ed
 1e-07 1 1 0
1  60 0 0 16.925
2  171 36 0 0 16.925
2  172 12 0 0 16.925
2  173 37 52 0 16.925
2  174 38 49 0 16.925
0

0101000
+131 0 -129 49 *
Ed
 1.5e-07 1 1 0
1  61 0 6.875 9.38366188063018
2  175 39 0 6.875 9.38366188063018
2  176 12 14 6.875 9.38366188063018
2  177 9 0 6.875 9.38366188063018
0

0101000
+129 0 -264 0 *
Wi

0101100
-130 14 -128 14 -127 0 -263 0 *
Fa
0  1e-07 12 14

0101000
+126 0 *
Ve
1.5e-07
-22.75 3.5 2.625
0 0

0101101
*
Ed
 1e-07 1 1 0
1  62 0 4.71238898038469 7.85398163397448
2  178 39 0 4.71238898038469 7.85398163397448
2  179 38 0 4.71238898038469 7.85398163397448
2  180 9 0 4.71238898038469 7.85398163397448
0

0101000
+129 0 -124 0 *
Ve
1.0000000116861e-07
9 7 0
0 0

0101101
*
Ed
 1e-07 1 1 0
1  63 0 0 16.925
2  181 36 0 0 16.925
2  182 10 0 0 16.925
2  183 37 52 0 16.925
2  184 38 49 0 16.925
0

0101000
+122 0 -124 49 *
Ed
 1e-07 1 1 0
1  64 0 0 3.14159265358979
2  185 38 0 0 3.14159265358979
2  186 11 0 0 3.14159265358979
0

0101000
+131 14 -122 14 *
Wi

0101100
-128 14 -123 0 +121 14 +120 0 *
Fa
0  1e-07 38 0

0101000
+119 0 *
Ed
 1e-07 1 1 0
1  65 0 6.49133811936982 9
2  187 10 0 6.49133811936982 9
2  188 35 0 6.49133811936982 9
2  189 11 49 6.49133811936982 9
0

0101000
+268 49 -122 0 *
Wi

0101100
-265 0 -117 14 +120 0 +130 14 *
Ve
1.0000000041638e-07
-21.05 -4.163799117101e-16 -14.3
0 0

0101101
*
Ed
 1e-07 1 1 0
1  66 0 0 6.28318530717959
2  190 11 0 0 6.28318530717959
2  191 40 55 0 6.28318530717959
0

0101100
+115 0 -115 0 *
Wi

0101100
-114 0 *
Fa
0  1e-07 11 0

0101000
+116 0 +113 0 *
Ve
1.0000000041638e-07
-21.05 -4.163799117101e-16 -19.8
0 0

0101101
*
Ed
 1e-07 1 1 0
1  67 0 5.5 11
3  192 193CN 40 0 5.5 11
0

0101000
+111 56 -115 56 *
Ed
 1e-07 1 1 0
1  68 0 0 6.28318530717959
2  194 7 4 0 6.28318530717959
2  195 40 55 0 6.28318530717959
2  196 6 6 0 6.28318530717959
0

0101100
+111 0 -111 0 *
Wi

0101100
-114 0 +110 55 +109 0 -110 55 *
Fa
0  1e-07 40 55

0101000
+108 0 *
Ed
 1.5e-07 1 1 0
1  69 0 6.875 9.38366188063018
2  197 39 0 6.875 9.38366188063018
2  198 10 14 6.875 9.38366188063018
2  199 9 0 6.875 9.38366188063018
0

0101000
+124 0 -270 0 *
Wi

0101100
-117 14 -121 14 -106 0 -267 0 *
Fa
0  1e-07 10 14

0101000
+105 0 *
Ed
 1.00000005687117e-07 1 1 0
1  70 0 0 1.55079499322152
2  200 2 0 0 1.55079499322152
2  201 39 0 0 1.55079499322152
2  202 9 0 0 1.55079499322152
2  203 4 1 0 1.55079499322152
2  204 1 0 0 1.55079499322152
0

0101000
+272 0 -219 0 *
Wi

0101100
-103 0 -218 0 -211 0 -206 0 +196 0 -253 0 +192 18 -140 47 +143 47 +159 47 
-153 47 -149 47 -134 18 -261 0 +127 0 -123 0 -106 0 -269 0 *
Ve
1.00000001776357e-07
-9 -13 2.625
0 0

0101101
*
Ed
 1e-07 1 1 0
1  71 0 0 6.28318530717959
2  205 41 59 0 6.28318530717959
2  206 42 62 0 6.28318530717959
2  207 39 0 0 6.28318530717959
2  208 9 0 0 6.28318530717959
0

0101100
+101 0 -101 0 *
Wi

0101100
-100 0 *
Ve
1.00000001776357e-07
17 -13 2.625
0 0

0101101
*
Ed
 1e-07 1 1 0
1  72 0 0 6.28318530717959
2  209 41 59 0 6.28318530717959
2  210 43 65 0 6.28318530717959
2  211 39 0 0 6.28318530717959
2  212 9 0 0 6.28318530717959
0

0101100
+98 0 -98 0 *
Wi

0101100
-97 0 *
Ve
1.00000001776357e-07
-9 13 2.625
0 0

0101101
*
Ed
 1e-07 1 1 0
1  73 0 0 6.28318530717959
2  213 41 59 0 6.28318530717959
2  214 44 68 0 6.28318530717959
2  215 39 0 0 6.28318530717959
2  216 9 0 0 6.28318530717959
0

0101100
+95 0 -95 0 *
Wi

0101100
-94 0 *
Ve
1.00000002767702e-07
11.3 -2.76770176607302e-15 2.625
0 0

0101101
*
Ed
 1e-07 1 1 0
1  74 0 0 6.28318530717959
2  217 41 59 0 6.28318530717959
2  218 45 69 0 6.28318530717959
2  219 39 0 0 6.28318530717959
2  220 9 0 0 6.28318530717959
0

0101100
+92 0 -92 0 *
Wi

0101100
-91 0 *
Ve
1.00000001776357e-07
17 13 2.625
0 0

0101101
*
Ed
 1e-07 1 1 0
1  75 0 0 6.28318530717959
2  221 41 59 0 6.28318530717959
2  222 46 72 0 6.28318530717959
2  223 39 0 0 6.28318530717959
2  224 9 0 0 6.28318530717959
0

0101100
+89 0 -89 0 *
Wi

0101100
-88 0 *
Fa
0  1e-07 9 0

0101000
+102 0 +99 0 +96 0 +93 0 +90 0 +87 0 *
Ve
1e-07
4 -9.79717439317883e-16 3.5
0 0

0101101
*
Ed
 1e-07 1 1 0
1  76 0 2.625 3.5
3  225 226CN 46 0 2.625 3.5
0

0101000
+89 73 -85 0 *
Ed
 1e-07 1 1 0
1  77 0 0 6.28318530717959
2  227 46 0 0 6.28318530717959
2  228 47 0 0 6.28318530717959
2  229 6 74 0 6.28318530717959
0

0101000
+85 0 -85 0 *
Wi

0101100
+84 72 +88 0 -84 72 -83 72 *
Fa
0  1e-07 46 72

0101000
+82 0 *
Wi

0101100
+83 72 *
Ve
1e-07
14.7 13 3.5
0 0

0101101
*
Ed
 1e-07 1 1 0
1  78 0 0 6.28318530717959
2  230 47 72 0 6.28318530717959
2  231 48 77 0 6.28318530717959
2  232 6 78 0 6.28318530717959
0

0101100
+79 0 -79 0 *
Wi

0101100
-78 0 *
Fa
0  1e-07 47 72

0101000
+80 0 +77 0 *
Ve
1e-07
14.7 13 0
0 0

0101101
*
Ed
 1e-07 1 1 0
1  79 0 5.25 8.75
3  233 234CN 48 0 5.25 8.75
0

0101000
+75 79 -79 79 *
Ed
 1e-07 1 1 0
1  80 0 0 6.28318530717959
2  235 3 0 0 6.28318530717959
2  236 48 77 0 6.28318530717959
0

0101100
+75 0 -75 0 *
Wi

0101100
-78 0 +74 77 +73 0 -74 77 *
Fa
0  1e-07 48 77

0101000
+72 0 *
Ve
1.00000002767702e-07
11.3 -2.76770176607302e-15 0
0 0

0101101
*
Ed
 1e-07 1 1 0
1  81 0 5.25 7.875
3  237 238CN 45 0 5.25 7.875
0

0101000
+70 80 -92 80 *
Ed
 1e-07 1 1 0
1  82 0 0 6.28318530717959
2  239 3 0 0 6.28318530717959
2  240 45 69 0 6.28318530717959
0

0101100
+70 0 -70 0 *
Wi

0101100
-91 0 +69 69 +68 0 -69 69 *
Fa
0  1e-07 45 69

0101000
+67 0 *
Ve
1e-07
4 -9.79717439317883e-16 3.5
0 0

0101101
*
Ed
 1e-07 1 1 0
1  83 0 2.625 3.5
3  241 242CN 44 0 2.625 3.5
0

0101000
+95 81 -65 0 *
Ed
 1e-07 1 1 0
1  84 0 0 6.28318530717959
2  243 44 0 0 6.28318530717959
2  244 49 0 0 6.28318530717959
2  245 6 82 0 6.28318530717959
0

0101000
+65 0 -65 0 *
Wi

0101100
+64 68 +94 0 -64 68 -63 68 *
Fa
0  1e-07 44 68

0101000
+62 0 *
Wi

0101100
+63 68 *
Ve
1e-07
-11.3 13 3.5
0 0

0101101
*
Ed
 1e-07 1 1 0
1  85 0 0 6.28318530717959
2  246 49 68 0 6.28318530717959
2  247 50 85 0 6.28318530717959
2  248 6 78 0 6.28318530717959
0

0101100
+59 0 -59 0 *
Wi

0101100
-58 0 *
Fa
0  1e-07 49 68

0101000
+60 0 +57 0 *
Ve
1e-07
-11.3 13 0
0 0

0101101
*
Ed
 1e-07 1 1 0
1  86 0 5.25 8.75
3  249 250CN 50 0 5.25 8.75
0

0101000
+55 86 -59 86 *
Ed
 1e-07 1 1 0
1  87 0 0 6.28318530717959
2  251 3 0 0 6.28318530717959
2  252 50 85 0 6.28318530717959
0

0101100
+55 0 -55 0 *
Wi

0101100
-58 0 +54 85 +53 0 -54 85 *
Fa
0  1e-07 50 85

0101000
+52 0 *
Ve
1e-07
4 -9.79717439317883e-16 3.5
0 0

0101101
*
Ed
 1e-07 1 1 0
1  88 0 2.625 3.5
3  253 254CN 43 0 2.625 3.5
0

0101000
+98 87 -50 0 *
Ed
 1e-07 1 1 0
1  89 0 0 6.28318530717959
2  255 43 0 0 6.28318530717959
2  256 51 0 0 6.28318530717959
2  257 6 88 0 6.28318530717959
0

0101000
+50 0 -50 0 *
Wi

0101100
+49 65 +97 0 -49 65 -48 65 *
Fa
0  1e-07 43 65

0101000
+47 0 *
Wi

0101100
+48 65 *
Ve
1e-07
14.7 -13 3.5
0 0

0101101
*
Ed
 1e-07 1 1 0
1  90 0 0 6.28318530717959
2  258 51 65 0 6.28318530717959
2  259 52 91 0 6.28318530717959
2  260 6 78 0 6.28318530717959
0

0101100
+44 0 -44 0 *
Wi

0101100
-43 0 *
Fa
0  1e-07 51 65

0101000
+45 0 +42 0 *
Ve
1e-07
14.7 -13 0
0 0

0101101
*
Ed
 1e-07 1 1 0
1  91 0 5.25 8.75
3  261 262CN 52 0 5.25 8.75
0

0101000
+40 92 -44 92 *
Ed
 1e-07 1 1 0
1  92 0 0 6.28318530717959
2  263 3 0 0 6.28318530717959
2  264 52 91 0 6.28318530717959
0

0101100
+40 0 -40 0 *
Wi

0101100
-43 0 +39 91 +38 0 -39 91 *
Fa
0  1e-07 52 91

0101000
+37 0 *
Ve
1e-07
4 -9.79717439317883e-16 3.5
0 0

0101101
*
Ed
 1e-07 1 1 0
1  93 0 2.625 3.5
3  265 266CN 42 0 2.625 3.5
0

0101000
+101 93 -35 0 *
Ed
 1e-07 1 1 0
1  94 0 0 6.28318530717959
2  267 42 0 0 6.28318530717959
2  268 53 0 0 6.28318530717959
2  269 6 94 0 6.28318530717959
0

0101000
+35 0 -35 0 *
Wi

0101100
+34 62 +100 0 -34 62 -33 62 *
Fa
0  1e-07 42 62

0101000
+32 0 *
Wi

0101100
+33 62 *
Ve
1e-07
-11.3 -13 3.5
0 0

0101101
*
Ed
 1e-07 1 1 0
1  95 0 0 6.28318530717959
2  270 53 62 0 6.28318530717959
2  271 54 97 0 6.28318530717959
2  272 6 78 0 6.28318530717959
0

0101100
+29 0 -29 0 *
Wi

0101100
-28 0 *
Fa
0  1e-07 53 62

0101000
+30 0 +27 0 *
Ve
1e-07
-11.3 -13 0
0 0

0101101
*
Ed
 1e-07 1 1 0
1  96 0 5.25 8.75
3  273 274CN 54 0 5.25 8.75
0

0101000
+25 98 -29 98 *
Ed
 1e-07 1 1 0
1  97 0 0 6.28318530717959
2  275 3 0 0 6.28318530717959
2  276 54 97 0 6.28318530717959
0

0101100
+25 0 -25 0 *
Wi

0101100
-28 0 +24 97 +23 0 -24 97 *
Fa
0  1e-07 54 97

0101000
+22 0 *
Ed
 1.00000005687117e-07 1 1 0
1  1 0 3.14159265358979 4.6923876468113
2  1 2 0 3.14159265358979 4.6923876468113
2  2 3 0 3.14159265358979 4.6923876468113
2  277 4 1 3.14159265358979 4.6923876468113
2  278 1 0 3.14159265358979 4.6923876468113
0

0101000
+241 0 -274 0 *
Wi

0101100
-20 0 -217 0 -103 0 +271 0 *
Fa
0  0 1 0

0101000
+19 0 *
Ed
 1e-07 1 1 0
1  98 0 7.28935750721612 43.7106424927839
2  279 5 0 7.28935750721612 43.7106424927839
2  280 7 0 7.28935750721612 43.7106424927839
2  281 6 99 7.28935750721612 43.7106424927839
0

0101000
+278 100 -276 100 *
Wi

0101100
+17 4 +275 6 *
Wi

0101100
-109 0 *
Fa
0  1e-07 7 4

0101000
+16 0 +15 0 *
Ed
 6e-07 1 1 0
1  99 0 -5.46064249278426 30.9606424927843
2  282 3 0 -5.46064249278426 30.9606424927843
2  283 5 4 -5.46064249278426 30.9606424927843
0

0101000
+281 0 -274 0 *
Wi

0101100
-13 0 -273 0 +17 4 +277 0 *
Fa
0  1e-07 5 4

0101000
+12 0 *
Wi

0101100
-13 0 +20 0 +240 0 +279 0 *
Wi

0101100
-23 0 *
Wi

0101100
-38 0 *
Wi

0101100
-53 0 *
Wi

0101100
-68 0 *
Wi

0101100
-73 0 *
Fa
0  1e-07 3 0

0101000
+10 0 +9 0 +8 0 +7 0 +6 0 +5 0 *
Sh

0101100
-242 0 -235 0 -229 0 -224 0 -215 0 -208 0 -201 0 +197 0 +194 0 -183 0 
+176 17 +163 17 +156 47 +151 47 -146 17 -141 47 -138 17 +135 0 +132 0 +125 0 
-118 0 +112 0 -107 0 -104 0 +86 0 +81 0 +76 0 -71 0 -66 0 +61 0 
+56 0 -51 0 +46 0 +41 0 -36 0 +31 0 +26 0 -21 0 -18 0 -14 0 
+11 0 -4 0 *
So

0100000
+3 0 *
Co

1100000
+2 0 *

+1 0 