DBRep_DrawableShape

CASCADE Topology V3, (c) Open Cascade
Locations 84
1
              1               0               0              -0 
              0               1               0              -0 
              0               0               1               0 
1
              1               0               0               0 
              0               1               0               0 
              0               0               1             3.5 
2  1 1 2 1 0
1
              1               0               0              -0 
              0               1               0              -0 
              0               0               1               0 
1
              1               0               0               0 
              0               1               0               0 
              0               0               1            23.7 
1
              1               0               0               0 
              0               1               0               0 
              0               0               1           -20.2 
2  4 1 5 1 6 1 0
1
              1               0               0              -0 
              0               1               0              -0 
              0               0               1            -9.6 
1
              1               0               0           22.75 
              0               1               0               0 
              0               0               1            -5.1 
2  8 1 9 1 0
2  1 -1 0
2  2 -1 1 -1 0
1
              1               0               0              -0 
              0               1               0              -0 
              0               0               1           -5.25 
1
              1               0               0             -13 
              0               1               0             -13 
              0               0               1               0 
2  13 1 14 1 0
1
              1               0               0              -0 
              0               1               0              -0 
              0               0               1           -5.25 
1
              1               0               0              13 
              0               1               0             -13 
              0               0               1               0 
2  16 1 17 1 0
1
              1               0               0              -0 
              0               1               0              -0 
              0               0               1           -5.25 
1
              1               0               0             -13 
              0               1               0              13 
              0               0               1               0 
2  19 1 20 1 0
1
              1               0               0              -0 
              0               1               0              -0 
              0               0               1           -5.25 
1
              1               0               0              -0 
              0               1               0              -0 
              0               0               1           -5.25 
1
              1               0               0              13 
              0               1               0              13 
              0               0               1               0 
2  23 1 24 1 0
1
              1               0               0            -4.5 
              0               1               0            -3.5 
              0               0               1            -9.6 
1
              1               0               0           27.25 
              0               1               0               0 
              0               0               1            -5.1 
2  26 1 27 1 0
2  8 1 9 1 27 -1 26 -1 0
2  27 -1 26 -1 0
2  9 -1 8 -1 0
2  26 1 27 1 9 -1 8 -1 0
1
              1               0               0           -2.25 
              0               1               0              -6 
              0               0               1           -10.1 
1
              1               0               0            23.1 
              0               1               0               0 
              0               0               1           -10.1 
2  33 1 34 1 0
2  34 -1 33 -1 0
1
              1               0               0           -2.25 
              0               1               0              -6 
              0               0               1           -10.1 
1
              1               0               0           -23.1 
              0               1               0               0 
              0               0               1           -10.1 
2  37 1 38 1 0
2  38 -1 37 -1 0
2  1 1 38 -1 37 -1 0
1
              1               0               0            -1.5 
              0               1               0              -9 
              0               0               1           -10.1 
1
              1               0               0          -19.35 
              0               1               0               0 
              0               0               1           -10.1 
2  42 1 43 1 0
2  43 -1 42 -1 0
2  1 1 43 -1 42 -1 0
2  37 1 38 1 43 -1 42 -1 0
2  1 1 34 -1 33 -1 0
1
              1               0               0            -1.5 
              0               1               0              -9 
              0               0               1           -10.1 
1
              1               0               0           19.35 
              0               1               0               0 
              0               0               1           -10.1 
2  49 1 50 1 0
2  50 -1 49 -1 0
2  1 1 50 -1 49 -1 0
2  33 1 34 1 50 -1 49 -1 0
1
              1               0               0            -4.5 
              0               1               0            -3.5 
              0               0               1            -9.6 
1
              1               0               0          -27.25 
              0               1               0               0 
              0               0               1            -5.1 
2  55 1 56 1 0
1
              1               0               0              -0 
              0               1               0              -0 
              0               0               1            -9.6 
1
              1               0               0          -22.75 
              0               1               0               0 
              0               0               1            -5.1 
2  58 1 59 1 56 -1 55 -1 0
2  56 -1 55 -1 0
2  14 -1 13 -1 0
2  17 -1 16 -1 0
2  20 -1 19 -1 0
2  22 -1 0
2  24 -1 23 -1 0
1
              1               0               0              -0 
              0               1               0              -0 
              0               0               1           -8.25 
1
              1               0               0           22.75 
              0               1               0               0 
              0               0               1          -17.45 
2  67 1 68 1 0
2  4 1 6 1 34 -1 33 -1 0
2  49 1 50 1 34 -1 33 -1 0
2  4 1 6 1 0
2  4 -1 0
2  5 -1 4 -1 0
2  6 -1 4 -1 0
2  4 1 6 1 38 -1 37 -1 0
2  42 1 43 1 38 -1 37 -1 0
2  4 1 6 1 43 -1 42 -1 0
2  4 1 6 1 50 -1 49 -1 0
1
              1               0               0              -0 
              0               1               0              -0 
              0               0               1           -8.25 
1
              1               0               0          -22.75 
              0               1               0               0 
              0               0               1          -17.45 
2  80 1 81 1 0
2  68 -1 67 -1 0
2  81 -1 80 -1 0
Curve2ds 314
1 9.2714271691787715 -3.5 -1 -0 
2 1.9108333729808534e-15 -1.9314363361221341e-15 -0.98826479197658235 0.15275045315639058 0.15275045315639058 0.98826479197658235 22.899999999999999
2 1.7160033035788841e-15 -6.7505352430363358e-16 -0.98826479197658235 0.15275045315639058 0.15275045315639058 0.98826479197658235 22.899999999999999
8 -3.5000005999999999 5.9999999999999997e-07
1 6.4365360987701941 0 0 1 
8 -3.5000005999999999 5.9999999999999997e-07
1 1.6047274841580228 14.699999999999999 0 -1 
1 3.406695718183153 0 1 0 
2 1.9108333729808534e-15 -1.9314363361221341e-15 -0.96506550218340303 -0.26200873362446547 0.26200873362446553 -0.96506550218340315 22.899999999999999
2 -17.850000000000001 9 -0.96506550218340303 -0.26200873362446547 0.26200873362446553 -0.96506550218340315 22.899999999999999
1 0 0 1 0 
1 0 -3.5 1 0 
2 1.9108333729808534e-15 -1.9314363361221341e-15 1 0 -0 1 22.899999999999999
2 20.850000000000001 9 1 0 -0 1 22.899999999999999
8 2.8764895889964333 2.9882418619991853
1 6.2831853071795862 0 1 0 
8 -3.5000005999999999 5.9999999999999997e-07
1 2.9882418619991853 0 0 1 
8 -3.5000005999999999 5.9999999999999997e-07
1 7.8200504766113568 14.699999999999999 0 -1 
8 -3.5 -0
1 9.2714271691787715 0 0 1 
2 -22.749999999999996 -1.9314363361221341e-15 1 0 -0 1 3.5
1 0 18.199999999999999 1 0 
2 -22.75 -6.7505352430363358e-16 1 0 -0 1 3.5
2 22.750000000000004 -1.9314363361221341e-15 1 0 -0 1 3.5
1 0 18.199999999999999 1 0 
2 22.75 -6.7505352430363358e-16 1 0 -0 1 3.5
2 1.7160033035788841e-15 -6.7505352430363358e-16 -0.98826479197658235 0.15275045315639058 0.15275045315639058 0.98826479197658235 22.899999999999999
2 -12.999999999999998 -13.000000000000002 1 0 -0 1 1.7
1 0 8.75 1 0 
2 -12.999999999999998 -13 1 0 -0 1 1.6999999999999993
2 13.000000000000002 -13.000000000000002 1 0 -0 1 1.7
1 0 8.75 1 0 
2 13.000000000000002 -13 1 0 -0 1 1.6999999999999993
2 -12.999999999999998 12.999999999999998 1 0 -0 1 1.7
1 0 8.75 1 0 
2 -12.999999999999998 13 1 0 -0 1 1.6999999999999993
2 1.9108333729808534e-15 -1.9314363361221341e-15 1 0 -0 1 11.300000000000001
1 0 8.75 1 0 
2 1.7160033035788841e-15 -6.7505352430363358e-16 1 0 -0 1 11.300000000000001
2 13.000000000000002 12.999999999999998 1 0 -0 1 1.7
1 0 8.75 1 0 
2 13.000000000000002 13 1 0 -0 1 1.6999999999999993
2 4.8999999999999986 9 1 0 -0 1 3.5
1 0 14.699999999999999 1 0 
8 -3.5000005999999999 5.9999999999999997e-07
1 6.1298345155889784 0 0 1 
8 -3.5000005999999999 5.9999999999999997e-07
1 4.6784578230215637 14.699999999999999 0 -1 
2 4.8999999999999986 9 1 0 -0 1 3.5
1 0 14.699999999999999 1 0 
1 0 0 1 0 
1 0 0 1 0 
1 4.7123889803846897 0 0 1 
1 0 0 1 0 
2 0 0 1 0 -0 1 3.5
2 0 0 1 0 -0 1 3.5
1 0 -7 1 0 
1 0 0 1 0 
1 1.5707963267948966 0 0 1 
1 20.199999999999999 0 0 1 
1 0 12 1 0 
1 3 15 1 0 
2 -17.850000000000001 9 1 0 0 -1 25.5
1 6.2831853071795862 -20.199999999999999 -1 0 
8 -5.0500000000000007 -2.4499999999999993
1 2.4499999999999993 12.5 -1 0 
8 -5.0500000000000007 -2.4499999999999993
1 14.699999999999999 -2.4499999999999993 0 -1 
1 20.199999999999999 0 0 1 
1 0 0 1 0 
1 -4.5 3 1 0 
1 -25.349999999999998 -6.0000000000000018 1 0 
1 20.199999999999999 0 0 -1 
1 0 0 0 1 
1 0 0 0 1 
1 -20.849999999999998 -9.0000000000000018 0 1 
1 20.199999999999999 0 0 1 
1 0 0 1 0 
1 0 0 1 0 
1 -20.849999999999998 -9.0000000000000018 1 0 
1 20.199999999999999 0 0 -1 
1 3 0 0 1 
1 3 0 0 1 
1 -17.849999999999998 -9.0000000000000018 0 1 
1 20.199999999999999 0 0 1 
1 0 18 1 0 
1 0 18 1 0 
1 -20.849999999999998 8.9999999999999982 1 0 
1 0 0 0 1 
1 -20.849999999999998 -9.0000000000000018 0 1 
1 20.199999999999999 0 0 1 
1 0 12 1 0 
1 -4.5 15 1 0 
1 -25.349999999999998 5.9999999999999982 1 0 
1 20.850000000000005 5.9999999999999982 1 0 
1 20.199999999999999 0 0 -1 
1 3 0 0 1 
1 3 0 0 1 
1 20.850000000000005 -9.0000000000000018 0 1 
1 20.199999999999999 0 0 1 
1 0 18 1 0 
1 0 18 1 0 
1 17.850000000000005 8.9999999999999982 1 0 
1 20.199999999999999 0 0 -1 
1 0 0 0 1 
1 0 0 0 1 
1 17.850000000000005 -9.0000000000000018 0 1 
1 20.199999999999999 0 0 1 
1 0 0 1 0 
1 0 0 1 0 
1 17.850000000000005 -9.0000000000000018 1 0 
1 3 0 0 1 
1 20.850000000000005 -9.0000000000000018 0 1 
1 20.199999999999999 0 0 1 
1 0 0 1 0 
1 3 3 1 0 
1 20.850000000000005 -6.0000000000000018 1 0 
2 -12.999999999999998 -13.000000000000002 1 0 -0 1 1.7
1 0 5.25 1 0 
2 13.000000000000002 -13.000000000000002 1 0 -0 1 1.7
1 0 5.25 1 0 
2 -12.999999999999998 12.999999999999998 1 0 -0 1 1.7
1 0 5.25 1 0 
2 1.9108333729808534e-15 -1.9314363361221341e-15 1 0 -0 1 11.300000000000001
1 0 5.25 1 0 
2 13.000000000000002 12.999999999999998 1 0 -0 1 1.7
1 0 5.25 1 0 
2 20.850000000000001 9 1 0 0 -1 25.5
1 6.2831853071795862 -20.199999999999999 -1 0 
2 -1.8999999999999986 9 1 0 -0 1 3.5
1 6.2831853071795862 14.699999999999999 1 0 
8 -3.5500000000000007 -0.94999999999999929
1 -5.4499999999999993 12.5 -1 0 
8 -3.5500000000000007 -0.94999999999999929
1 14.699999999999999 5.4499999999999993 0 -1 
1 0 0 1 0 
1 0 9 1 0 
1 4.7123889803846897 0 0 1 
8 0 19.199999999999999
1 4.7123889803846897 0 0 1 
2 -1.8999999999999986 9 1 0 -0 1 3.5
1 0 14.699999999999999 1 0 
8 -3.5000005999999999 5.9999999999999997e-07
1 3.2949434451804009 0 0 1 
8 -3.5000005999999999 5.9999999999999997e-07
1 4.7463201377478157 14.699999999999999 0 -1 
8 -3.5 -0
1 3.2949434451804009 0 0 1 
1 0 -7 1 0 
1 0 9 1 0 
1 1.5707963267948966 0 0 1 
8 0 19.199999999999999
1 7.8539816339744828 0 0 1 
1 4.7123889803846897 0 1 0 
2 0 0 0 -1 1 0 3.5
8 3.2949434451804009 3.406695718183153
1 0 0 1 0 
1 6.2831853071795862 -0 0 1 
1 0 -0 0 1 
1 6.2831853071795862 -0 0 1 
1 0 -0 0 1 
1 6.2831853071795862 -0 0 1 
1 0 -0 0 1 
1 6.2831853071795862 -0 0 1 
1 0 -0 0 1 
1 6.2831853071795862 -0 0 1 
1 0 -0 0 1 
8 -5.0500000000000007 -2.4499999999999993
1 2.4499999999999993 5.5 -1 0 
8 -5.0500000000000007 -2.4499999999999993
1 14.699999999999999 -2.4499999999999993 0 -1 
2 -17.850000000000001 9 1 0 0 -1 25.5
1 6.2831853071795862 -20.199999999999999 -1 0 
1 0 0 0 1 
1 0 0 1 0 
1 0 -3.5 1 0 
8 -21.669999999999998 -4.0300000000000011
1 -5.5 2.5086618806301786 -1 0 
8 -21.669999999999998 -4.0300000000000011
1 6.1454957548753573 0 0 1 
1 0 0 0 1 
1 0 7 1 0 
1 0 3.5 1 0 
2 -22.75 0 1 0 0 -1 25.5
1 6.2831853071795862 -5.5 -1 0 
8 -6.5 0.5
1 5.5 -3 0 1 
8 -6.5 0.5
1 2.6000000000000014 -3 0 -1 
2 -22.75 0 1 0 0 -1 25.5
1 6.2831853071795862 -5.5 -1 0 
2 0 0 1 0 -0 1 1.7
1 0 11 1 0 
8 -21.669999999999998 -4.0300000000000011
1 -5.5 2.5086618806301786 -1 0 
8 -21.669999999999998 -4.0300000000000011
1 0.1376895523042288 0 0 1 
1 0 0 0 1 
1 0 12 1 0 
1 3 15 1 0 
1 20.850000000000001 5.9999999999999991 1 0 
8 -22.219999999999999 5.999999999062311e-07
1 0 3.934067462787457 -1 0 
8 -22.219999999999999 5.999999999062311e-07
1 0.23752117078144624 0 0 1 
1 0 -12 1 0 
1 0 0 1 0 
1 0 -15 1 0 
1 0 0 1 0 
1 0 -23.699999999999999 1 0 
2 1.7160033035788841e-15 -6.7505352430363358e-16 1 0 -0 1 25.5
2 -17.850000000000001 9 1 0 -0 1 25.5
8 -22.219999999999999 5.999999999062311e-07
1 0 -8.7617928959282843 -1 0 
8 -22.219999999999999 5.999999999062311e-07
1 0.10851846863367043 0 0 1 
1 0 0 0 1 
1 0 0 1 0 
1 -4.5 3 1 0 
1 -25.350000000000001 -6.0000000000000009 1 0 
1 0 0 1 0 
1 0 4.5 1 0 
1 0 -3 1 0 
8 -22.219999999999999 5.999999999062311e-07
1 0 0.565932537212543 -1 0 
8 -22.219999999999999 5.999999999062311e-07
1 3.3791138243712391 0 0 1 
1 0 0 0 -1 
1 0 0 0 1 
1 0 0 0 1 
1 -20.850000000000001 -9 0 1 
1 0 0 1 0 
1 0 0 1 0 
1 0 0 0 1 
1 0 0 1 0 
1 0 0 1 0 
1 -20.850000000000001 -9 1 0 
1 0 0 1 0 
1 0 3 1 0 
1 0 -18 1 0 
1 0 3 1 0 
1 0 0 0 -1 
1 3 0 0 1 
1 3 0 0 1 
1 -17.850000000000001 -9 0 1 
1 0 0 0 1 
1 0 18 1 0 
1 0 18 1 0 
1 -20.850000000000001 9 1 0 
1 0 -18 1 0 
1 0 0 1 0 
1 0 0 0 1 
1 -20.850000000000001 -9 0 1 
1 0 -12 1 0 
1 0 4.5 1 0 
1 0 -15 1 0 
1 0 0 0 1 
1 0 12 1 0 
1 -4.5 15 1 0 
1 -25.350000000000001 5.9999999999999991 1 0 
8 -22.219999999999999 5.999999999062311e-07
1 0 0.565932537212543 -1 0 
8 -22.219999999999999 5.999999999062311e-07
1 2.9040714828083471 0 0 1 
1 0 -18 1 0 
1 0 3 1 0 
1 0 0 0 -1 
1 3 0 0 1 
1 3 0 0 1 
1 20.850000000000001 -9 0 1 
1 0 0 0 1 
1 0 18 1 0 
1 0 18 1 0 
1 17.850000000000001 9 1 0 
1 0 -18 1 0 
1 0 0 1 0 
1 0 0 1 0 
1 0 0 1 0 
1 0 0 0 -1 
1 0 0 0 1 
1 0 0 0 1 
1 17.850000000000001 -9 0 1 
1 0 0 0 1 
1 0 0 1 0 
1 0 0 1 0 
1 17.850000000000001 -9 1 0 
1 0 0 1 0 
1 0 3 1 0 
1 0 0 1 0 
1 0 0 1 0 
1 0 -3 1 0 
1 3 0 0 1 
1 20.850000000000001 -9 0 1 
1 0 0 0 1 
1 0 0 1 0 
1 3 3 1 0 
1 20.850000000000001 -6.0000000000000009 1 0 
8 -22.219999999999999 5.999999999062311e-07
1 0 3.934067462787457 -1 0 
8 -22.219999999999999 5.999999999062311e-07
1 6.0456641363981403 0 0 1 
2 20.850000000000001 9 1 0 -0 1 25.5
8 -22.219999999999999 5.999999999062311e-07
1 0 -8.7617928959282843 -1 0 
8 -22.219999999999999 5.999999999062311e-07
1 3.0330741849561229 0 0 1 
2 22.75 0 1 0 0 -1 25.5
1 6.2831853071795862 -5.5 -1 0 
8 -21.669999999999998 -4.0300000000000011
1 -5.5 6.4913381193698214 -1 0 
8 -21.669999999999998 -4.0300000000000011
1 3.0039031012855646 0 0 1 
1 0 0 0 1 
1 0 7 1 0 
1 -9 3.5 1 0 
1 0 0 0 1 
1 0 0 1 0 
1 -9 -3.5 1 0 
8 -3.5500000000000007 -0.94999999999999929
1 -5.4499999999999993 5.5 -1 0 
8 -3.5500000000000007 -0.94999999999999929
1 14.699999999999999 5.4499999999999993 0 -1 
8 -21.669999999999998 -4.0300000000000011
1 -5.5 6.4913381193698214 -1 0 
8 -21.669999999999998 -4.0300000000000011
1 3.2792822058940216 0 0 1 
2 20.850000000000001 9 1 0 0 -1 25.5
1 6.2831853071795862 -20.199999999999999 -1 0 
8 -6.5 0.5
1 5.5 -3 0 1 
8 -6.5 0.5
1 -2.6000000000000014 -3 0 -1 
2 0 0 1 0 -0 1 1.7
1 0 11 1 0 
8 -22.219999999999999 5.999999999062311e-07
1 0 -3.2382071040717153 -1 0 
8 -22.219999999999999 5.999999999062311e-07
1 6.1746668385459156 0 0 1 
2 -17.850000000000001 9 1 0 -0 1 25.5
1 0 0 0 -1 
1 4.5 0 0 1 
1 7.5 3 0 1 
1 25.350000000000001 -6.0000000000000009 0 1 
1 6.2831853071795862 -0 0 1 
1 0 -0 0 1 
2 4.8999999999999986 9 1 0 -0 1 1.7
1 0 5.5 1 0 
2 22.75 -6.7505352430363358e-16 1 0 -0 1 1.6999999999999993
2 20.850000000000001 9 1 0 -0 1 25.5
1 0 0 0 -1 
1 0 0 0 1 
1 -4.5 3 0 1 
1 -25.350000000000001 -6.0000000000000009 0 1 
2 -1.8999999999999986 9 1 0 -0 1 1.7
1 0 5.5 1 0 
2 -22.75 -6.7505352430363358e-16 1 0 -0 1 1.6999999999999993
8 -22.219999999999999 5.999999999062311e-07
1 0 -3.2382071040717153 -1 0 
8 -22.219999999999999 5.999999999062311e-07
1 3.2501111222234633 0 0 1 
1 6.2831853071795862 -0 0 1 
1 0 -0 0 1 
Curves 108
8 0 5.9764837239983706
2 0 0 3.5 0 0 -1 -0.98826479197658235 0.15275045315639058 0 0.15275045315639058 0.98826479197658235 0 22.899999999999999
1 22.631263736263733 3.4979853772813421 0 -0 -0 -1 
8 0 5.7529791779928665
2 0 0 0 0 0 1 -0.96506550218340303 -0.26200873362446547 0 0.26200873362446553 -0.96506550218340315 0 22.899999999999999
2 0 0 0 0 0 1 1 0 -0 -0 1 0 22.899999999999999
1 -22.631263736263733 3.4979853772813421 0 -0 -0 -1 
2 -22.75 0 3.5 0 0 1 1 0 -0 -0 1 0 3.5
2 22.75 0 3.5 0 0 1 1 0 -0 -0 1 0 3.5
2 -13 -13 3.5 0 0 1 1 0 -0 -0 1 0 1.7
2 13 -13 3.5 0 0 1 1 0 -0 -0 1 0 1.7
2 -13 13 3.5 0 0 1 1 0 -0 -0 1 0 1.7
2 0 0 3.5 0 0 1 1 0 -0 -0 1 0 11.300000000000001
2 13 13 3.5 0 0 1 1 0 -0 -0 1 0 1.7
2 22.75 0 0 0 0 1 1 0 -0 -0 1 0 3.5
1 22.631263736263733 -3.4979853772813421 0 -0 -0 -1 
2 22.75 0 0 0 0 1 1 0 -0 -0 1 0 3.5
1 0 0 0 0 0 1 
2 0 0 0 0 0 1 1 0 -0 -0 1 0 3.5
1 0 7 0 0 0 1 
1 0 12 20.199999999999999 1 0 -0 
2 0 0 0 0 -0 -1 1 0 -0 0 -1 0 25.5
1 20.300000000000001 3.5 0 -1 -0 0 
1 0 0 20.199999999999999 1 0 -0 
1 0 0 20.199999999999999 -0 1 0 
1 0 0 20.199999999999999 1 0 -0 
1 3 0 20.199999999999999 -0 1 0 
1 0 18 20.199999999999999 1 0 -0 
1 0 12 20.199999999999999 1 0 -0 
1 3 0 20.199999999999999 -0 1 0 
1 0 18 20.199999999999999 1 0 -0 
1 0 0 20.199999999999999 -0 1 0 
1 0 0 20.199999999999999 1 0 -0 
1 0 0 20.199999999999999 1 0 -0 
2 -13 -13 0 0 0 1 1 0 -0 -0 1 0 1.7
2 13 -13 0 0 0 1 1 0 -0 -0 1 0 1.7
2 -13 13 0 0 0 1 1 0 -0 -0 1 0 1.7
2 0 0 0 0 0 1 1 0 -0 -0 1 0 11.300000000000001
2 13 13 0 0 0 1 1 0 -0 -0 1 0 1.7
2 0 0 0 0 -0 -1 1 0 -0 0 -1 0 25.5
2 -22.75 0 0 0 0 1 1 0 -0 -0 1 0 3.5
1 -26.300000000000001 3.5 0 -1 -0 0 
1 9 0 0 0 0 1 
2 -22.75 0 0 0 0 1 1 0 -0 -0 1 0 3.5
1 -22.631263736263733 -3.4979853772813421 0 -0 -0 -1 
1 9 7 0 0 0 1 
8 0 3.1415926535897931
2 -22.75 0 -14.699999999999999 0 0 1 0 -1 0 1 0 -0 3.5
1 1.7 -4.1637991171010006e-16 0 0 0 1 
1 1.7 -4.1637991171010006e-16 0 0 0 1 
1 1.7 -4.1637991171010006e-16 0 0 0 1 
1 11.300000000000001 -2.7677017660730185e-15 0 0 0 1 
1 1.7 -4.1637991171010006e-16 0 0 0 1 
1 20.300000000000001 -3.5 0 -1 -0 0 
2 0 0 0 0 -0 -1 1 0 -0 0 -1 0 25.5
1 0 0 0 1 0 -0 
1 25.258661880630179 -3.5 -20.199999999999999 -0 -0 -1 
1 0 7 0 1 0 -0 
2 0 0 -14.699999999999999 0 -0 -1 1 0 -0 0 -1 0 25.5
1 25.350000000000001 -3 -14.699999999999999 0 -1 0 
2 0 0 -14.699999999999999 0 -0 -1 1 0 -0 0 -1 0 25.5
2 22.75 0 -14.699999999999999 0 0 1 1 0 -0 -0 1 0 1.7
1 25.258661880630179 3.5 -20.199999999999999 -0 -0 -1 
1 0 12 0 1 0 -0 
1 24.784067462787458 6 -20.199999999999999 -0 -0 -1 
1 0 12 0 0 0 1 
2 0 0 0 0 0 1 1 0 -0 -0 1 0 25.5
1 25.350000000000001 2.7617928959282847 -20.199999999999999 -0 -0 -1 
1 0 0 0 1 0 -0 
1 4.5 0 0 0 0 1 
1 -24.784067462787458 -6 -20.199999999999999 -0 -0 -1 
1 0 0 0 -0 1 0 
1 0 0 0 0 0 1 
1 0 0 0 1 0 -0 
1 3 0 0 0 0 1 
1 3 18 0 0 0 1 
1 3 0 0 -0 1 0 
1 0 18 0 1 0 -0 
1 0 18 0 0 0 1 
1 4.5 12 0 0 0 1 
1 0 12 0 1 0 -0 
1 -24.784067462787458 6 -20.199999999999999 -0 -0 -1 
1 3 18 0 0 0 1 
1 3 0 0 -0 1 0 
1 0 18 0 1 0 -0 
1 0 18 0 0 0 1 
1 0 0 0 0 0 1 
1 0 0 0 -0 1 0 
1 0 0 0 1 0 -0 
1 3 0 0 0 0 1 
1 0 0 0 0 0 1 
1 0 0 0 1 0 -0 
1 24.784067462787458 -6 -20.199999999999999 -0 -0 -1 
1 -25.350000000000001 2.7617928959282847 -20.199999999999999 -0 -0 -1 
2 0 0 -14.699999999999999 0 -0 -1 1 0 -0 0 -1 0 25.5
1 -25.258661880630179 3.5 -20.199999999999999 -0 -0 -1 
1 0 7 0 1 0 -0 
1 0 0 0 1 0 -0 
1 -26.300000000000001 -3.5 0 -1 -0 0 
1 -25.258661880630179 -3.5 -20.199999999999999 -0 -0 -1 
2 0 0 0 0 -0 -1 1 0 -0 0 -1 0 25.5
1 -25.350000000000001 -3 -14.699999999999999 0 -1 0 
2 -22.75 0 -14.699999999999999 0 0 1 1 0 -0 -0 1 0 1.7
1 25.350000000000001 -2.7617928959282847 -20.199999999999999 -0 -0 -1 
1 4.5 0 0 -0 1 0 
1 1.7 -4.1637991171010006e-16 0 0 0 1 
2 22.75 0 -20.199999999999999 0 0 1 1 0 -0 -0 1 0 1.7
1 0 0 0 -0 1 0 
2 -22.75 0 -20.199999999999999 0 0 1 1 0 -0 -0 1 0 1.7
1 -25.350000000000001 -2.7617928959282847 -20.199999999999999 -0 -0 -1 
1 1.7 -4.1637991171010006e-16 0 0 0 1 
Polygon3D 0
PolygonOnTriangulations 0
Surfaces 54
10 3.1415926535897931 9.4247779607693793 -2e+100 2e+100
2 0 0 0 -0 -0 -1 1 0 -0 -0 1 0 22.899999999999999
1 -1.9108333729808534e-15 1.9314363361221341e-15 0 0 0 1 1 0 -0 -0 1 0 
1 -1.7160033035788841e-15 6.7505352430363358e-16 0 0 0 1 1 0 -0 -0 1 0 
2 0 0 0 0 0 1 1 0 -0 -0 1 0 3.5
1 17.850000000000001 -9 0 0 0 1 1 0 -0 -0 1 0 
2 0 0 0 -0 -0 -1 1 0 -0 -0 1 0 22.899999999999999
1 -20.850000000000001 -9 0 0 0 1 1 0 -0 -0 1 0 
10 3.1415926535897931 9.4247779607693793 -2e+100 2e+100
2 -22.75 0 -14.699999999999999 0 0 1 1 0 -0 -0 1 0 3.5
2 0 0 0 0 0 1 1 0 -0 -0 1 0 1.7
2 0 0 0 0 0 1 1 0 -0 -0 1 0 1.7
2 0 0 0 0 0 1 1 0 -0 -0 1 0 1.7
2 0 0 0 0 0 1 1 0 -0 -0 1 0 11.300000000000001
2 0 0 0 0 0 1 1 0 -0 -0 1 0 1.7
1 0 0 0 1 0 -0 0 0 1 0 -1 0 
1 0 0 0 -0 1 0 0 0 1 1 0 -0 
1 0 0 0 0 0 1 1 0 -0 -0 1 0 
1 22.75 0 -14.699999999999999 0 0 1 1 0 -0 -0 1 0 
1 0 7 0 -0 1 0 0 0 1 1 0 -0 
1 0 12 0 -0 1 0 0 0 1 1 0 -0 
1 0 0 20.199999999999999 0 0 1 1 0 -0 -0 1 0 
2 0 0 0 -0 -0 -1 1 0 -0 -0 1 0 25.5
1 0 0 0 -0 1 0 0 0 1 1 0 -0 
1 0 0 20.199999999999999 0 0 1 1 0 -0 -0 1 0 
1 0 0 0 1 0 -0 0 0 1 0 -1 0 
1 0 0 20.199999999999999 0 0 1 1 0 -0 -0 1 0 
1 0 0 0 -0 1 0 0 0 1 1 0 -0 
1 3 0 0 1 0 -0 0 0 1 0 -1 0 
1 0 18 0 -0 1 0 0 0 1 1 0 -0 
1 0 12 0 -0 1 0 0 0 1 1 0 -0 
1 3 0 0 1 0 -0 0 0 1 0 -1 0 
1 0 0 20.199999999999999 0 0 1 1 0 -0 -0 1 0 
1 0 18 0 -0 1 0 0 0 1 1 0 -0 
1 0 0 0 1 0 -0 0 0 1 0 -1 0 
1 0 0 0 -0 1 0 0 0 1 1 0 -0 
1 0 0 0 -0 1 0 0 0 1 1 0 -0 
1 0 7 0 -0 1 0 0 0 1 1 0 -0 
1 9 0 0 1 0 -0 0 0 1 0 -1 0 
1 0 0 0 -0 1 0 0 0 1 1 0 -0 
2 0 0 0 0 0 1 1 0 -0 -0 1 0 3.5
1 -22.75 0 -14.699999999999999 0 0 1 1 0 -0 -0 1 0 
1 0 0 0 0 0 1 1 0 -0 -0 1 0 
1 4.5 0 0 1 0 -0 0 0 1 0 -1 0 
2 0 0 0 0 0 1 1 0 -0 -0 1 0 1.7
1 0 0 0 0 0 1 1 0 -0 -0 1 0 
1 17.850000000000001 -9 -20.199999999999999 0 0 1 1 0 -0 -0 1 0 
1 0 0 0 1 0 -0 0 0 1 0 -1 0 
1 0 0 0 0 0 1 1 0 -0 -0 1 0 
1 -20.850000000000001 -9 -20.199999999999999 0 0 1 1 0 -0 -0 1 0 
1 4.5 0 0 1 0 -0 0 0 1 0 -1 0 
1 0 0 0 0 0 1 1 0 -0 -0 1 0 
1 0 0 0 0 0 1 1 0 -0 -0 1 0 
1 0 0 0 1 0 -0 0 0 1 0 -1 0 
1 0 0 0 0 0 1 1 0 -0 -0 1 0 
2 0 0 0 0 0 1 1 0 -0 -0 1 0 1.7
Triangulations 0

TShapes 314
Ve
1.0000002220446e-07
-22.6312637362637 3.49798537728134 3.5
0 0

0101101
*
Ve
1.00000020734734e-07
22.6312637362637 3.49798537728132 3.5
0 0

0101101
*
Ed
 1e-07 1 1 0
1  1 0 0 2.83489107040858
2  1 1 0 0 2.83489107040858
2  2 2 3 0 2.83489107040858
2  3 3 7 0 2.83489107040858
0

0101000
+314 0 -313 0 *
Ve
1.00000056845154e-07
22.6312637362637 3.49798537728129 0
0 0

0101101
*
Ed
 1e-07 1 1 0
1  2 0 -3.5 0
2  4 1 0 -3.5 0
2  5 4 10 -3.5 0
0

0101000
+313 0 -311 0 *
Ve
1.00000364153152e-07
22.0999999999998 6.00000000000036 0
0 0

0101101
*
Ed
 1e-07 1 1 0
1  3 0 3.02984038058704 3.14159265358979
2  6 1 0 3.02984038058704 3.14159265358979
2  7 2 1 3.02984038058704 3.14159265358979
2  8 5 0 3.02984038058704 3.14159265358979
0

0101000
+311 0 -309 0 *
Ve
1.00000245137244e-07
-22.0999999999999 6.00000000000025 0
0 0

0101101
*
Ed
 1e-07 1 1 0
1  3 0 3.14159265358979 5.75297917799287
2  6 1 0 3.14159265358979 5.75297917799287
2  7 2 1 3.14159265358979 5.75297917799287
0

0101000
+309 0 -307 0 *
Ve
1.0000002220446e-07
-22.6312637362637 3.49798537728134 0
0 0

0101101
*
Ed
 1e-07 1 1 0
1  4 0 2.87648958899643 2.98824186199919
2  9 6 11 2.87648958899643 2.98824186199919
2  10 6 12 2.87648958899643 2.98824186199919
2  11 2 0 2.87648958899643 2.98824186199919
2  12 7 11 2.87648958899643 2.98824186199919
2  13 1 11 2.87648958899643 2.98824186199919
0

0101000
+307 11 -305 11 *
Ed
 1e-07 1 1 0
1  5 0 -3.5 0
2  14 6 0 -3.5 0
2  15 8 0 -3.5 0
2  16 1 0 -3.5 0
0

0101000
+314 0 -305 0 *
Wi

0101100
-312 0 -310 0 -308 0 -306 0 -304 1 +303 0 *
Fa
0  1e-07 1 0

0101000
+302 0 *
Ve
1.00000016810991e-07
-22.6312637362637 -3.49798537728134 3.5
0 0

0101101
*
Ed
 1e-07 1 1 0
1  6 0 4.74632013774782 7.82005047661136
2  17 2 3 4.74632013774782 7.82005047661136
2  18 8 0 4.74632013774782 7.82005047661136
2  19 3 7 4.74632013774782 7.82005047661136
0

0101000
+300 0 -314 0 *
Ve
1.00000031887956e-07
22.6312637362637 -3.49798537728131 3.5
0 0

0101101
*
Ed
 1e-07 1 1 0
1  7 0 1.60472748415802 4.67845782302157
2  20 2 3 1.60472748415802 4.67845782302157
2  21 4 10 1.60472748415802 4.67845782302157
2  22 3 7 1.60472748415802 4.67845782302157
0

0101000
+313 0 -298 0 *
Ed
 1e-07 1 1 0
1  1 0 3.14159265358979 5.97648372399837
2  1 1 0 3.14159265358979 5.97648372399837
2  2 2 3 3.14159265358979 5.97648372399837
2  23 3 7 3.14159265358979 5.97648372399837
0

0101000
+298 0 -300 0 *
Wi

0101100
-299 0 -312 0 -297 0 -296 0 *
Ve
1e-07
-11.3 -13 3.5
0 0

0101101
*
Ed
 1e-07 1 1 0
1  8 0 0 6.28318530717959
2  24 2 3 0 6.28318530717959
2  25 9 15 0 6.28318530717959
2  26 3 7 0 6.28318530717959
0

0101100
+294 0 -294 0 *
Wi

0101100
-293 0 *
Ve
1e-07
14.7 -13 3.5
0 0

0101101
*
Ed
 1e-07 1 1 0
1  9 0 0 6.28318530717959
2  27 2 3 0 6.28318530717959
2  28 10 18 0 6.28318530717959
2  29 3 7 0 6.28318530717959
0

0101100
+291 0 -291 0 *
Wi

0101100
-290 0 *
Ve
1e-07
-11.3 13 3.5
0 0

0101101
*
Ed
 1e-07 1 1 0
1  10 0 0 6.28318530717959
2  30 2 3 0 6.28318530717959
2  31 11 21 0 6.28318530717959
2  32 3 7 0 6.28318530717959
0

0101100
+288 0 -288 0 *
Wi

0101100
-287 0 *
Ve
1.00000002767702e-07
11.3 -2.76770176607302e-15 3.5
0 0

0101101
*
Ed
 1e-07 1 1 0
1  11 0 0 6.28318530717959
2  33 2 3 0 6.28318530717959
2  34 12 22 0 6.28318530717959
2  35 3 7 0 6.28318530717959
0

0101100
+285 0 -285 0 *
Wi

0101100
-284 0 *
Ve
1e-07
14.7 13 3.5
0 0

0101101
*
Ed
 1e-07 1 1 0
1  12 0 0 6.28318530717959
2  36 2 3 0 6.28318530717959
2  37 13 25 0 6.28318530717959
2  38 3 7 0 6.28318530717959
0

0101100
+282 0 -282 0 *
Wi

0101100
-281 0 *
Fa
0  1e-07 2 3

0101000
+295 0 +292 0 +289 0 +286 0 +283 0 +280 0 *
Ve
1.5e-07
22.75 3.5 0
0 0

0101101
*
Ed
 1e-07 1 1 0
1  13 0 1.5707963267949 1.60472748415802
2  39 5 0 1.5707963267949 1.60472748415802
2  40 4 10 1.5707963267949 1.60472748415802
0

0101000
+278 0 -311 0 *
Ve
1.00000045436208e-07
22.6312637362637 -3.4979853772813 0
0 0

0101101
*
Ed
 1e-07 1 1 0
1  14 0 -3.5 -0
2  41 1 0 -3.5 -0
2  42 4 10 -3.5 -0
0

0101000
+298 0 -276 0 *
Ve
1.5e-07
22.75 -3.5 0
0 0

0101101
*
Ed
 1e-07 1 1 0
1  15 0 4.67845782302157 4.71238898038469
2  43 5 0 4.67845782302157 4.71238898038469
2  44 4 10 4.67845782302157 4.71238898038469
0

0101000
+276 0 -274 0 *
Ve
1.0000000116861e-07
0 0 0
0 0

0101101
*
Ed
 1e-07 1 1 0
1  16 0 0 14.7
2  45 14 0 0 14.7
2  46 15 0 0 14.7
2  47 4 29 0 14.7
0

0101000
+272 0 -274 30 *
Ve
1.0000000116861e-07
0 7 0
0 0

0101101
*
Ed
 1e-07 1 1 0
1  17 0 1.5707963267949 4.71238898038469
2  48 4 0 1.5707963267949 4.71238898038469
2  49 16 0 1.5707963267949 4.71238898038469
2  50 17 31 1.5707963267949 4.71238898038469
0

0101000
+270 32 -272 32 *
Ed
 1e-07 1 1 0
1  18 0 0 14.7
2  51 14 0 0 14.7
2  52 18 0 0 14.7
2  53 4 29 0 14.7
0

0101000
+270 0 -278 30 *
Wi

0101100
-277 0 +310 0 -297 0 -275 0 -273 0 +271 28 +269 10 -268 28 *
Fa
0  1e-07 4 10

0101000
+267 0 *
Ve
1.00000021610314e-07
24.7840674627875 6 0
0 0

0101101
*
Ed
 1e-07 1 1 0
1  19 0 1.2499999999998 3.93406746278746
2  54 19 0 1.2499999999998 3.93406746278746
2  55 20 0 1.2499999999998 3.93406746278746
2  56 5 36 1.2499999999998 3.93406746278746
0

0101000
+309 36 -265 36 *
Ve
1.5e-07
25.2586618806302 3.5 0
0 0

0101101
*
Ed
 1e-07 1 1 0
1  20 0 6.04566413639814 6.14549575487536
2  57 5 0 6.04566413639814 6.14549575487536
2  58 21 6 6.04566413639814 6.14549575487536
0

0101000
+265 0 -263 0 *
Ed
 1.5e-07 1 1 0
1  21 0 -4.95866188063018 -2.45
2  59 5 0 -4.95866188063018 -2.45
2  60 18 28 -4.95866188063018 -2.45
0

0101000
+263 0 -278 0 *
Wi

0101100
-264 35 -262 0 -261 0 -277 0 -308 0 *
Fa
0  1e-07 5 0

0101000
+260 0 *
Ve
1.00000242028619e-07
-22.0999999999999 -6.00000000000024 0
0 0

0101101
*
Ve
1e-07
4.5 0 20.2
0 0

0101101
*
Ed
 1e-07 1 1 0
1  22 0 3.25000000000014 4.5
2  61 22 0 3.25000000000014 4.5
2  62 23 0 3.25000000000014 4.5
2  63 7 40 3.25000000000014 4.5
2  64 2 41 3.25000000000014 4.5
0

0101000
+258 40 -257 0 *
Ve
1e-07
0 0 20.2
0 0

0101101
*
Ed
 1e-07 1 1 0
1  23 0 0 3
2  65 24 0 0 3
2  66 25 0 0 3
2  67 7 45 0 3
2  68 2 46 0 3
0

0101000
+255 0 -257 47 *
Ve
1e-07
3 0 20.2
0 0

0101101
*
Ed
 1e-07 1 1 0
1  24 0 0 3
2  69 26 0 0 3
2  70 25 0 0 3
2  71 7 45 0 3
2  72 2 46 0 3
0

0101000
-253 0 +255 0 *
Ve
1e-07
3 18 20.2
0 0

0101101
*
Ed
 1e-07 1 1 0
1  25 0 0 18
2  73 27 0 0 18
2  74 25 0 0 18
2  75 7 45 0 18
2  76 2 46 0 18
0

0101000
-251 0 +253 0 *
Ve
1e-07
0 18 20.2
0 0

0101101
*
Ed
 1e-07 1 1 0
1  26 0 0 3
2  77 28 0 0 3
2  78 25 0 0 3
2  79 7 45 0 3
2  80 2 46 0 3
0

0101000
-251 0 +249 0 *
Ve
1e-07
4.5 12 20.2
0 0

0101101
*
Ed
 1e-07 1 1 0
1  23 0 15 18
2  65 24 0 15 18
2  66 25 0 15 18
2  81 7 45 15 18
2  82 2 46 15 18
0

0101000
+247 47 -249 0 *
Ed
 1e-07 1 1 0
1  27 0 3.25000000000014 4.5
2  83 29 0 3.25000000000014 4.5
2  84 23 0 3.25000000000014 4.5
2  85 7 40 3.25000000000014 4.5
2  86 2 41 3.25000000000014 4.5
0

0101000
+307 40 -247 0 *
Ve
1e-07
0 12 20.2
0 0

0101101
*
Ed
 1e-07 1 1 0
1  19 0 0 1.2499999999998
2  54 19 0 0 1.2499999999998
2  55 20 0 0 1.2499999999998
2  56 5 36 0 1.2499999999998
2  87 2 48 0 1.2499999999998
0

0101000
+244 0 -309 36 *
Ve
1e-07
3 18 20.2
0 0

0101101
*
Ed
 1e-07 1 1 0
1  28 0 15 18
2  88 30 0 15 18
2  89 31 0 15 18
2  90 5 52 15 18
2  91 2 53 15 18
0

0101000
+244 54 -242 0 *
Ve
1e-07
0 18 20.2
0 0

0101101
*
Ed
 1e-07 1 1 0
1  29 0 0 3
2  92 32 0 0 3
2  93 31 0 0 3
2  94 5 52 0 3
2  95 2 53 0 3
0

0101000
-242 0 +240 0 *
Ve
1e-07
0 0 20.2
0 0

0101101
*
Ed
 1e-07 1 1 0
1  30 0 0 18
2  96 33 0 0 18
2  97 31 0 0 18
2  98 5 52 0 18
2  99 2 53 0 18
0

0101000
-240 0 +238 0 *
Ve
1e-07
3 0 20.2
0 0

0101101
*
Ed
 1e-07 1 1 0
1  31 0 0 3
2  100 34 0 0 3
2  101 31 0 0 3
2  102 5 52 0 3
2  103 2 53 0 3
0

0101000
-236 0 +238 0 *
Ve
1e-07
0 0 20.2
0 0

0101101
*
Ed
 1e-07 1 1 0
1  28 0 0 3
2  88 30 0 0 3
2  89 31 0 0 3
2  104 5 52 0 3
2  105 2 53 0 3
0

0101000
+236 0 -234 54 *
Ve
1.00000364153152e-07
22.0999999999998 -6.00000000000036 0
0 0

0101101
*
Ed
 1e-07 1 1 0
1  32 0 0 1.2499999999998
2  106 35 0 0 1.2499999999998
2  107 20 0 0 1.2499999999998
2  108 5 36 0 1.2499999999998
2  109 2 48 0 1.2499999999998
0

0101000
+234 0 -232 36 *
Ed
 1e-07 1 1 0
1  3 0 0 2.61138652440307
2  6 1 0 0 2.61138652440307
2  7 2 1 0 2.61138652440307
0

0101000
+258 0 -232 0 *
Wi

0101100
-256 39 +254 44 -252 44 -250 44 +248 44 +246 44 +245 39 +306 0 +243 35 -241 51 
+239 51 +237 51 -235 51 -233 51 -231 35 +230 0 *
Ve
1e-07
-11.3 -13 0
0 0

0101101
*
Ed
 1e-07 1 1 0
1  33 0 0 6.28318530717959
2  110 2 1 0 6.28318530717959
2  111 9 15 0 6.28318530717959
0

0101100
+228 0 -228 0 *
Wi

0101100
-227 0 *
Ve
1e-07
14.7 -13 0
0 0

0101101
*
Ed
 1e-07 1 1 0
1  34 0 0 6.28318530717959
2  112 2 1 0 6.28318530717959
2  113 10 18 0 6.28318530717959
0

0101100
+225 0 -225 0 *
Wi

0101100
-224 0 *
Ve
1e-07
-11.3 13 0
0 0

0101101
*
Ed
 1e-07 1 1 0
1  35 0 0 6.28318530717959
2  114 2 1 0 6.28318530717959
2  115 11 21 0 6.28318530717959
0

0101100
+222 0 -222 0 *
Wi

0101100
-221 0 *
Ve
1.00000002767702e-07
11.3 -2.76770176607302e-15 0
0 0

0101101
*
Ed
 1e-07 1 1 0
1  36 0 0 6.28318530717959
2  116 2 1 0 6.28318530717959
2  117 12 22 0 6.28318530717959
0

0101100
+219 0 -219 0 *
Wi

0101100
-218 0 *
Ve
1e-07
14.7 13 0
0 0

0101101
*
Ed
 1e-07 1 1 0
1  37 0 0 6.28318530717959
2  118 2 1 0 6.28318530717959
2  119 13 25 0 6.28318530717959
0

0101100
+216 0 -216 0 *
Wi

0101100
-215 0 *
Fa
0  1e-07 2 1

0101000
+229 0 +226 0 +223 0 +220 0 +217 0 +214 0 *
Ve
1.5e-07
-25.2586618806302 3.5 0
0 0

0101101
*
Ve
1.00000001776357e-07
-24.7840674627875 6 0
0 0

0101101
*
Ed
 1e-07 1 1 0
1  38 0 3.27928220589402 3.37911382437124
2  120 7 0 3.27928220589402 3.37911382437124
2  121 21 6 3.27928220589402 3.37911382437124
0

0101000
+212 0 -211 0 *
Ed
 1e-07 1 1 0
1  27 0 0.565932537212543 3.25000000000014
2  83 29 0 0.565932537212543 3.25000000000014
2  84 23 0 0.565932537212543 3.25000000000014
2  85 7 40 0.565932537212543 3.25000000000014
0

0101000
+211 40 -307 40 *
Ve
1.5e-07
-22.75 3.5 0
0 0

0101101
*
Ed
 1e-07 1 1 0
1  39 0 1.53686516943177 1.5707963267949
2  122 7 0 1.53686516943177 1.5707963267949
2  123 8 0 1.53686516943177 1.5707963267949
0

0101000
+305 0 -208 0 *
Ed
 1.5e-07 1 1 0
1  40 0 -3.55 -1.04133811936982
2  124 7 0 -3.55 -1.04133811936982
2  125 36 57 -3.55 -1.04133811936982
0

0101000
+208 0 -212 0 *
Wi

0101100
-210 0 -209 39 -304 1 -207 0 -206 0 *
Fa
0  1e-07 7 0

0101000
+205 0 *
Ve
1.0000000116861e-07
9 0 0
0 0

0101101
*
Ve
1.5e-07
-22.75 -3.5 0
0 0

0101101
*
Ed
 1e-07 1 1 0
1  41 0 0 14.7
2  126 37 0 0 14.7
2  127 38 0 0 14.7
2  128 39 60 0 14.7
2  129 8 61 0 14.7
0

0101000
+203 0 -202 61 *
Ve
1.00000016810991e-07
-22.6312637362637 -3.49798537728134 0
0 0

0101101
*
Ed
 1e-07 1 1 0
1  42 0 4.71238898038469 4.74632013774782
2  130 7 0 4.71238898038469 4.74632013774782
2  131 8 0 4.71238898038469 4.74632013774782
0

0101000
+202 0 -200 0 *
Ed
 1e-07 1 1 0
1  43 0 -3.5 0
2  132 6 0 -3.5 0
2  133 8 0 -3.5 0
2  134 1 0 -3.5 0
0

0101000
+300 0 -200 0 *
Ve
1.0000000116861e-07
9 7 0
0 0

0101101
*
Ed
 1e-07 1 1 0
1  44 0 0 14.7
2  135 37 0 0 14.7
2  136 36 0 0 14.7
2  137 39 60 0 14.7
2  138 8 61 0 14.7
0

0101000
+197 0 -208 61 *
Ed
 1e-07 1 1 0
1  45 0 0 3.14159265358979
2  139 8 0 0 3.14159265358979
2  140 40 0 0 3.14159265358979
0

0101000
+203 57 -197 57 *
Wi

0101100
-201 57 -199 0 +198 0 -299 0 -303 0 -207 0 +196 57 +195 0 *
Fa
0  1e-07 8 0

0101000
+194 0 *
Ed
 1e-07 1 1 0
1  4 0 3.2949434451804 3.40669571818315
2  9 6 11 3.2949434451804 3.40669571818315
2  10 6 12 3.2949434451804 3.40669571818315
2  11 2 0 3.2949434451804 3.40669571818315
2  12 7 11 3.2949434451804 3.40669571818315
2  141 1 11 3.2949434451804 3.40669571818315
0

0101000
+200 11 -258 11 *
Ed
 1e-07 1 1 0
1  3 0 2.61138652440307 2.72313879740583
2  6 1 0 2.61138652440307 2.72313879740583
2  7 2 1 2.61138652440307 2.72313879740583
2  8 5 0 2.61138652440307 2.72313879740583
0

0101000
+232 0 -276 0 *
Wi

0101100
-296 0 -198 0 -192 1 -230 0 -191 0 +275 0 *
Fa
0  1e-07 1 0

0101000
+190 0 *
Ed
 1e-07 1 1 0
1  46 0 5.25 8.75
3  142 143CN 9 0 5.25 8.75
0

0101000
+228 62 -294 62 *
Wi

0101100
-293 0 +188 15 +227 0 -188 15 *
Fa
0  1e-07 9 15

0101000
+187 0 *
Ed
 1e-07 1 1 0
1  47 0 5.25 8.75
3  144 145CN 10 0 5.25 8.75
0

0101000
+225 63 -291 63 *
Wi

0101100
-290 0 +185 18 +224 0 -185 18 *
Fa
0  1e-07 10 18

0101000
+184 0 *
Ed
 1e-07 1 1 0
1  48 0 5.25 8.75
3  146 147CN 11 0 5.25 8.75
0

0101000
+222 64 -288 64 *
Wi

0101100
-287 0 +182 21 +221 0 -182 21 *
Fa
0  1e-07 11 21

0101000
+181 0 *
Ed
 1e-07 1 1 0
1  49 0 5.25 8.75
3  148 149CN 12 0 5.25 8.75
0

0101000
+219 65 -285 65 *
Wi

0101100
-284 0 +179 22 +218 0 -179 22 *
Fa
0  1e-07 12 22

0101000
+178 0 *
Ed
 1e-07 1 1 0
1  50 0 5.25 8.75
3  150 151CN 13 0 5.25 8.75
0

0101000
+216 66 -282 66 *
Wi

0101100
-281 0 +176 25 +215 0 -176 25 *
Fa
0  1e-07 13 25

0101000
+175 0 *
Ve
1.5e-07
25.2586618806302 -3.5 0
0 0

0101101
*
Ed
 1.5e-07 1 1 0
1  51 0 -4.95866188063018 -2.45
2  152 5 0 -4.95866188063018 -2.45
2  153 15 28 -4.95866188063018 -2.45
0

0101000
+173 0 -274 0 *
Ve
1e-07
24.7840674627875 -6 0
0 0

0101101
*
Ed
 1e-07 1 1 0
1  52 0 0.137689552304229 0.237521170781446
2  154 5 0 0.137689552304229 0.237521170781446
2  155 21 6 0.137689552304229 0.237521170781446
0

0101000
+173 0 -171 0 *
Ed
 1e-07 1 1 0
1  32 0 1.2499999999998 3.93406746278746
2  106 35 0 1.2499999999998 3.93406746278746
2  107 20 0 1.2499999999998 3.93406746278746
2  108 5 36 1.2499999999998 3.93406746278746
0

0101000
+232 36 -171 36 *
Wi

0101100
-273 0 +172 0 -170 0 +169 35 -191 0 *
Fa
0  1e-07 5 0

0101000
+168 0 *
Ve
1.00000000444089e-07
25.2586618806302 -3.5 -14.7
0 0

0101101
*
Ed
 1e-07 1 1 0
1  53 0 0 2.50866188063018
2  156 15 0 0 2.50866188063018
2  157 41 0 0 2.50866188063018
2  158 17 30 0 2.50866188063018
0

0101000
+272 0 -166 30 *
Ed
 1e-07 1 1 0
1  54 0 -20.2 -5.5
2  159 15 28 -20.2 -5.5
2  160 21 6 -20.2 -5.5
0

0101000
+173 0 -166 0 *
Wi

0101100
-165 28 +164 0 -172 0 +271 28 *
Fa
0  1e-07 15 28

0101000
+163 0 *
Ve
1.00000012434498e-07
25.2586618806302 3.5 -14.7
0 0

0101101
*
Ed
 1e-07 1 1 0
1  55 0 0 2.50866188063018
2  161 18 0 0 2.50866188063018
2  162 41 0 0 2.50866188063018
2  163 17 30 0 2.50866188063018
0

0101000
+270 0 -161 30 *
Ve
1.5e-07
25.35 2.76179289592828 -14.7
0 0

0101101
*
Ed
 1e-07 1 1 0
1  56 0 6.14549575487536 6.17466683854592
2  164 17 0 6.14549575487536 6.17466683854592
2  165 21 6 6.14549575487536 6.17466683854592
0

0101000
+161 0 -159 0 *
Ve
1.5e-07
25.35 -2.76179289592828 -14.7
0 0

0101101
*
Ed
 1.5e-07 1 1 0
1  57 0 -5.76179289592828 -0.238207104071718
2  166 42 35 -5.76179289592828 -0.238207104071718
2  167 17 0 -5.76179289592828 -0.238207104071718
0

0101000
+159 0 -157 0 *
Ed
 1e-07 1 1 0
1  58 0 0.10851846863367 0.137689552304229
2  168 17 0 0.10851846863367 0.137689552304229
2  169 21 6 0.10851846863367 0.137689552304229
0

0101000
+157 0 -166 0 *
Wi

0101100
-160 28 -158 0 -156 0 -155 0 +165 28 +269 10 *
Ve
1.0000000041638e-07
24.45 -4.163799117101e-16 -14.7
0 0

0101101
*
Ed
 1e-07 1 1 0
1  59 0 0 6.28318530717959
2  170 17 0 0 6.28318530717959
2  171 43 69 0 6.28318530717959
0

0101100
+153 0 -153 0 *
Wi

0101100
-152 0 *
Fa
0  1e-07 17 0

0101000
+154 0 +151 0 *
Ed
 1e-07 1 1 0
1  60 0 -20.2 -5.5
2  172 18 28 -20.2 -5.5
2  173 21 6 -20.2 -5.5
0

0101000
+263 0 -161 0 *
Wi

0101100
-160 28 +149 0 -261 0 +268 28 *
Fa
0  1e-07 18 28

0101000
+148 0 *
Ve
1e-07
0 12 0
0 0

0101101
*
Ve
1.00000104865252e-07
24.7840674627875 5.99999999999991 -20.2
0 0

0101101
*
Ed
 1e-07 1 1 0
1  61 0 0 3.9340674627875
2  174 19 0 0 3.9340674627875
2  175 44 0 0 3.9340674627875
2  176 45 36 0 3.9340674627875
2  177 3 70 0 3.9340674627875
0

0101000
+146 0 -145 36 *
Ed
 1e-07 1 1 0
1  62 0 -20.2 0
2  178 19 35 -20.2 0
2  179 21 6 -20.2 0
0

0101000
+265 0 -145 0 *
Ed
 1e-07 1 1 0
1  63 0 0 20.2
2  180 46 0 0 20.2
2  181 19 0 0 20.2
2  182 30 71 0 20.2
0

0101000
-244 0 +146 0 *
Wi

0101100
-144 35 +143 0 +264 35 +243 35 +142 35 *
Fa
0  1e-07 19 35

0101000
+141 0 *
Ve
1.00000931695458e-07
25.35 2.76179289592922 -20.2
0 0

0101101
*
Ed
 1e-07 1 1 0
1  64 0 0.108518468633707 0.237521170781442
2  183 21 73 0.108518468633707 0.237521170781442
2  184 21 74 0.108518468633707 0.237521170781442
2  185 3 0 0.108518468633707 0.237521170781442
2  186 45 75 0.108518468633707 0.237521170781442
0

0101000
+139 75 -145 75 *
Ed
 1e-07 1 1 0
1  65 0 -5.5 0
2  187 42 35 -5.5 0
2  188 21 6 -5.5 0
0

0101000
+159 0 -139 0 *
Wi

0101100
-138 72 +143 0 -262 0 -149 0 -158 0 -137 0 *
Fa
0  1e-07 21 6

0101000
+136 0 *
Ve
1.00000324933735e-07
-24.7840674627873 -6.00000000000029 -20.2
0 0

0101101
*
Ve
1e-07
4.5 0 0
0 0

0101101
*
Ed
 1e-07 1 1 0
1  66 0 0.565932537212685 4.5
2  189 22 0 0.565932537212685 4.5
2  190 47 0 0.565932537212685 4.5
2  191 48 40 0.565932537212685 4.5
2  192 3 76 0.565932537212685 4.5
0

0101000
+134 40 -133 0 *
Ed
 1e-07 1 1 0
1  67 0 0 20.2
2  193 49 0 0 20.2
2  194 22 0 0 20.2
2  195 24 77 0 20.2
0

0101000
-257 0 +133 0 *
Ve
1.00000007944109e-07
-24.7840674627875 -6 0
0 0

0101101
*
Ed
 1e-07 1 1 0
1  22 0 0.565932537212543 3.25000000000014
2  61 22 0 0.565932537212543 3.25000000000014
2  62 23 0 0.565932537212543 3.25000000000014
2  63 7 40 0.565932537212543 3.25000000000014
0

0101000
+130 40 -258 40 *
Ed
 1e-07 1 1 0
1  68 0 -20.2 0
2  196 22 39 -20.2 0
2  197 21 6 -20.2 0
0

0101000
+130 0 -134 0 *
Wi

0101100
-132 39 -131 39 +256 39 +129 39 -128 0 *
Fa
0  1e-07 22 39

0101000
+127 0 *
Ve
1e-07
0 0 0
0 0

0101101
*
Ed
 1e-07 1 1 0
1  69 0 0 3
2  198 24 0 0 3
2  199 50 0 0 3
2  200 48 45 0 3
2  201 3 78 0 3
0

0101000
+125 0 -133 47 *
Ed
 1e-07 1 1 0
1  70 0 0 20.2
2  202 24 0 0 20.2
2  203 26 0 0 20.2
0

0101000
-255 0 +125 0 *
Wi

0101100
-254 44 +131 39 +124 44 -123 44 *
Fa
0  1e-07 24 44

0101000
+122 0 *
Ve
1e-07
3 0 0
0 0

0101101
*
Ed
 1e-07 1 1 0
1  71 0 0 3
2  204 26 0 0 3
2  205 50 0 0 3
2  206 48 45 0 3
2  207 3 78 0 3
0

0101000
-120 0 +125 0 *
Ed
 1e-07 1 1 0
1  72 0 0 20.2
2  208 27 0 0 20.2
2  209 26 0 0 20.2
0

0101000
-253 0 +120 0 *
Wi

0101100
-119 0 -118 0 +252 0 +123 0 *
Fa
0  1e-07 26 0

0111000
+117 0 *
Ve
1e-07
3 18 0
0 0

0101101
*
Ed
 1e-07 1 1 0
1  73 0 0 20.2
2  210 27 0 0 20.2
2  211 28 0 0 20.2
0

0101000
-251 0 +115 0 *
Ed
 1e-07 1 1 0
1  74 0 0 18
2  212 27 0 0 18
2  213 50 0 0 18
2  214 48 45 0 18
2  215 3 78 0 18
0

0101000
-115 0 +120 0 *
Wi

0101100
-118 0 -250 0 +114 0 +113 0 *
Fa
0  1e-07 27 0

0111000
+112 0 *
Ve
1e-07
0 18 0
0 0

0101101
*
Ed
 1e-07 1 1 0
1  75 0 0 3
2  216 28 0 0 3
2  217 50 0 0 3
2  218 48 45 0 3
2  219 3 78 0 3
0

0101000
-115 0 +110 0 *
Ed
 1e-07 1 1 0
1  76 0 0 20.2
2  220 24 0 0 20.2
2  221 28 0 0 20.2
0

0101000
-249 0 +110 0 *
Wi

0101100
-109 0 -114 0 +248 0 +108 0 *
Fa
0  1e-07 28 0

0111000
+107 0 *
Ve
1e-07
4.5 12 0
0 0

0101101
*
Ed
 1e-07 1 1 0
1  69 0 15 18
2  198 24 0 15 18
2  199 50 0 15 18
2  222 48 45 15 18
2  223 3 78 15 18
0

0101000
+105 47 -110 0 *
Ed
 1e-07 1 1 0
1  77 0 0 20.2
2  224 49 0 0 20.2
2  225 29 0 0 20.2
2  226 24 77 0 20.2
0

0101000
-247 0 +105 0 *
Wi

0101100
-246 44 +108 44 +104 44 -103 39 *
Fa
0  1e-07 24 44

0101000
+102 0 *
Ve
1.00000327332008e-07
-24.7840674627873 6.00000000000029 -20.2
0 0

0101101
*
Ed
 1e-07 1 1 0
1  78 0 0.565932537212685 4.5
2  227 29 0 0.565932537212685 4.5
2  228 47 0 0.565932537212685 4.5
2  229 48 40 0.565932537212685 4.5
2  230 3 76 0.565932537212685 4.5
0

0101000
+100 40 -105 0 *
Ed
 1e-07 1 1 0
1  79 0 -20.2 -0
2  231 29 39 -20.2 -0
2  232 21 6 -20.2 -0
0

0101000
+211 0 -100 0 *
Wi

0101100
-99 39 -103 39 +245 39 +209 39 -98 0 *
Fa
0  1e-07 29 39

0101000
+97 0 *
Ve
1e-07
3 18 0
0 0

0101101
*
Ed
 1e-07 1 1 0
1  80 0 0 20.2
2  233 30 0 0 20.2
2  234 32 0 0 20.2
0

0101000
-242 0 +95 0 *
Ed
 1e-07 1 1 0
1  81 0 15 18
2  235 30 0 15 18
2  236 51 0 15 18
2  237 45 52 15 18
2  238 3 79 15 18
0

0101000
+146 54 -95 0 *
Wi

0101100
-241 51 +94 51 +93 51 -142 35 *
Fa
0  1e-07 30 51

0101000
+92 0 *
Ve
1e-07
0 18 0
0 0

0101101
*
Ed
 1e-07 1 1 0
1  82 0 0 3
2  239 32 0 0 3
2  240 51 0 0 3
2  241 45 52 0 3
2  242 3 79 0 3
0

0101000
-95 0 +90 0 *
Ed
 1e-07 1 1 0
1  83 0 0 20.2
2  243 33 0 0 20.2
2  244 32 0 0 20.2
0

0101000
-240 0 +90 0 *
Wi

0101100
-89 0 -94 0 +239 0 +88 0 *
Fa
0  1e-07 32 0

0111000
+87 0 *
Ve
1e-07
0 0 0
0 0

0101101
*
Ed
 1e-07 1 1 0
1  84 0 0 20.2
2  245 33 0 0 20.2
2  246 34 0 0 20.2
0

0101000
-238 0 +85 0 *
Ed
 1e-07 1 1 0
1  85 0 0 18
2  247 33 0 0 18
2  248 51 0 0 18
2  249 45 52 0 18
2  250 3 79 0 18
0

0101000
-90 0 +85 0 *
Wi

0101100
-84 0 -237 0 +88 0 +83 0 *
Fa
0  1e-07 33 0

0111000
+82 0 *
Ve
1e-07
3 0 0
0 0

0101101
*
Ed
 1e-07 1 1 0
1  86 0 0 3
2  251 34 0 0 3
2  252 51 0 0 3
2  253 45 52 0 3
2  254 3 79 0 3
0

0101000
-80 0 +85 0 *
Ed
 1e-07 1 1 0
1  87 0 0 20.2
2  255 30 0 0 20.2
2  256 34 0 0 20.2
0

0101000
-236 0 +80 0 *
Wi

0101100
-79 0 -78 0 +235 0 +84 0 *
Fa
0  1e-07 34 0

0111000
+77 0 *
Ve
1e-07
0 0 0
0 0

0101101
*
Ed
 1e-07 1 1 0
1  88 0 0 20.2
2  257 46 0 0 20.2
2  258 35 0 0 20.2
2  259 30 71 0 20.2
0

0101000
-234 0 +75 0 *
Ed
 1e-07 1 1 0
1  81 0 0 3
2  235 30 0 0 3
2  236 51 0 0 3
2  260 45 52 0 3
2  261 3 79 0 3
0

0101000
+80 0 -75 54 *
Wi

0101100
-233 51 +74 35 +73 51 -78 51 *
Fa
0  1e-07 30 51

0101000
+72 0 *
Ve
1.0000011121753e-07
24.7840674627875 -5.9999999999999 -20.2
0 0

0101101
*
Ed
 1e-07 1 1 0
1  89 0 0 3.93406746278751
2  262 35 0 0 3.93406746278751
2  263 44 0 0 3.93406746278751
2  264 45 36 0 3.93406746278751
2  265 3 70 0 3.93406746278751
0

0101000
+75 0 -70 36 *
Ed
 1e-07 1 1 0
1  90 0 -20.2 -0
2  266 35 35 -20.2 -0
2  267 21 6 -20.2 -0
0

0101000
+171 0 -70 0 *
Wi

0101100
-69 35 +68 0 +169 35 +231 35 +74 35 *
Fa
0  1e-07 35 35

0101000
+67 0 *
Ve
1.00001106986849e-07
-25.3500000000001 2.76179289592718 -20.2
0 0

0101101
*
Ed
 1e-07 1 1 0
1  64 0 2.90407148280833 3.03307418495617
2  183 21 73 2.90407148280833 3.03307418495617
2  184 21 74 2.90407148280833 3.03307418495617
2  185 3 0 2.90407148280833 3.03307418495617
2  268 48 75 2.90407148280833 3.03307418495617
0

0101000
+100 75 -65 75 *
Ve
1.5e-07
-25.35 2.76179289592828 -14.7
0 0

0101101
*
Ed
 1e-07 1 1 0
1  91 0 -5.5 0
2  269 52 39 -5.5 0
2  270 21 6 -5.5 0
0

0101000
+63 0 -65 0 *
Ve
1.00000024585863e-07
-25.2586618806302 3.5 -14.7
0 0

0101101
*
Ed
 1e-07 1 1 0
1  92 0 3.25011112222346 3.27928220589402
2  271 40 0 3.25011112222346 3.27928220589402
2  272 21 6 3.25011112222346 3.27928220589402
0

0101000
+63 0 -61 0 *
Ed
 1e-07 1 1 0
1  93 0 -20.2 -5.5
2  273 36 57 -20.2 -5.5
2  274 21 6 -20.2 -5.5
0

0101000
+212 0 -61 0 *
Wi

0101100
-64 72 +62 0 -60 0 +59 0 -210 0 -98 0 *
Fa
0  1e-07 21 6

0101000
+58 0 *
Ed
 1e-07 1 1 0
1  94 0 6.49133811936982 9
2  275 36 0 6.49133811936982 9
2  276 53 0 6.49133811936982 9
2  277 40 61 6.49133811936982 9
0

0101000
+61 61 -197 0 *
Wi

0101100
-56 57 -196 57 -206 0 -59 0 *
Fa
0  1e-07 36 57

0101000
+55 0 *
Ve
1.00000008343679e-07
-25.2586618806302 -3.5 -14.7
0 0

0101101
*
Ed
 1e-07 1 1 0
1  95 0 6.49133811936982 9
2  278 38 0 6.49133811936982 9
2  279 53 0 6.49133811936982 9
2  280 40 61 6.49133811936982 9
0

0101000
+53 61 -203 0 *
Ve
1.5e-07
-25.2586618806302 -3.5 0
0 0

0101101
*
Ed
 1.5e-07 1 1 0
1  96 0 -3.55 -1.04133811936982
2  281 7 0 -3.55 -1.04133811936982
2  282 38 57 -3.55 -1.04133811936982
0

0101000
+202 0 -51 0 *
Ed
 1e-07 1 1 0
1  97 0 -20.2 -5.5
2  283 38 57 -20.2 -5.5
2  284 21 6 -20.2 -5.5
0

0101000
+51 0 -53 0 *
Wi

0101100
-52 57 -201 57 -50 0 -49 0 *
Fa
0  1e-07 38 57

0101000
+48 0 *
Ed
 1e-07 1 1 0
1  98 0 2.90407148280835 3.00390310128556
2  285 7 0 2.90407148280835 3.00390310128556
2  286 21 6 2.90407148280835 3.00390310128556
0

0101000
+130 0 -51 0 *
Wi

0101100
-46 0 +50 0 -199 0 -192 1 +129 39 *
Fa
0  1e-07 7 0

0101000
+45 0 *
Ve
1.5e-07
-25.35 -2.76179289592828 -14.7
0 0

0101101
*
Ed
 1e-07 1 1 0
1  92 0 3.00390310128556 3.03307418495612
2  271 40 0 3.00390310128556 3.03307418495612
2  272 21 6 3.00390310128556 3.03307418495612
0

0101000
+53 0 -43 0 *
Ed
 1.5e-07 1 1 0
1  99 0 -5.76179289592828 -0.238207104071718
2  287 52 39 -5.76179289592828 -0.238207104071718
2  288 40 0 -5.76179289592828 -0.238207104071718
0

0101000
+63 0 -43 0 *
Wi

0101100
-42 0 +41 0 -60 0 -56 57 +195 0 +52 57 *
Ve
1.0000000041638e-07
-21.05 -4.163799117101e-16 -14.7
0 0

0101101
*
Ed
 1e-07 1 1 0
1  100 0 0 6.28318530717959
2  289 40 0 0 6.28318530717959
2  290 54 82 0 6.28318530717959
0

0101100
+39 0 -39 0 *
Wi

0101100
-38 0 *
Fa
0  1e-07 40 0

0101000
+40 0 +37 0 *
Ve
1.00000891343577e-07
25.35 -2.76179289592917 -20.2
0 0

0101101
*
Ed
 1e-07 1 1 0
1  101 0 -5.5 0
2  291 42 35 -5.5 0
2  292 21 6 -5.5 0
0

0101000
+157 0 -35 0 *
Ed
 1e-07 1 1 0
1  64 0 6.04566413639814 6.17466683854588
2  183 21 73 6.04566413639814 6.17466683854588
2  184 21 74 6.04566413639814 6.17466683854588
2  185 3 0 6.04566413639814 6.17466683854588
2  293 45 75 6.04566413639814 6.17466683854588
0

0101000
+70 75 -35 75 *
Wi

0101100
+34 0 -155 0 +164 0 -170 0 -68 0 -33 72 *
Fa
0  1e-07 21 6

0101000
+32 0 *
Ed
 1e-07 1 1 0
1  102 0 3.23820710407083 8.76179289592922
2  294 42 0 3.23820710407083 8.76179289592922
2  295 44 0 3.23820710407083 8.76179289592922
2  296 45 36 3.23820710407083 8.76179289592922
2  297 3 70 3.23820710407083 8.76179289592922
0

0101000
+35 36 -139 36 *
Wi

0101100
+34 0 +156 0 -137 0 +30 35 *
Fa
0  1e-07 42 35

0101000
+29 0 *
Ve
1.0000000041638e-07
24.45 -4.163799117101e-16 -20.2
0 0

0101101
*
Ed
 1e-07 1 1 0
1  103 0 5.5 11
3  298 299CN 43 0 5.5 11
0

0101000
+27 83 -153 83 *
Ed
 1e-07 1 1 0
1  104 0 0 6.28318530717959
2  300 45 0 0 6.28318530717959
2  301 43 69 0 6.28318530717959
2  302 3 72 0 6.28318530717959
0

0101100
+27 0 -27 0 *
Wi

0101100
-152 0 +26 69 +25 0 -26 69 *
Fa
0  1e-07 43 69

0101000
+24 0 *
Wi

0101100
-89 51 +93 51 -144 35 +138 72 +30 35 +33 72 +69 35 +73 51 +79 51 -83 51 
*
Wi

0101100
-25 0 *
Fa
0  1e-07 45 0

0101000
+22 0 +21 0 *
Ve
1.00001102552598e-07
-25.3500000000001 -2.76179289592718 -20.2
0 0

0101101
*
Ed
 1e-07 1 1 0
1  64 0 3.25011112222342 3.37911382437125
2  183 21 73 3.25011112222342 3.37911382437125
2  184 21 74 3.25011112222342 3.37911382437125
2  185 3 0 3.25011112222342 3.37911382437125
2  303 48 75 3.25011112222342 3.37911382437125
0

0101000
+19 75 -134 75 *
Ed
 1e-07 1 1 0
1  105 0 3.23820710407282 8.76179289592718
2  304 52 0 3.23820710407282 8.76179289592718
2  305 47 0 3.23820710407282 8.76179289592718
2  306 48 40 3.23820710407282 8.76179289592718
2  307 3 76 3.23820710407282 8.76179289592718
0

0101000
+19 40 -65 40 *
Wi

0101100
-124 44 +132 39 +18 72 -17 39 +64 72 -99 39 -104 44 -109 44 +113 44 +119 44 
*
Ve
1.0000000041638e-07
-21.05 -4.163799117101e-16 -20.2
0 0

0101101
*
Ed
 1e-07 1 1 0
1  106 0 0 6.28318530717959
2  308 48 0 0 6.28318530717959
2  309 54 82 0 6.28318530717959
2  310 3 72 0 6.28318530717959
0

0101100
+15 0 -15 0 *
Wi

0101100
-14 0 *
Fa
0  1e-07 48 0

0101000
+16 0 +13 0 *
Ed
 1e-07 1 1 0
1  107 0 -5.5 0
2  311 52 39 -5.5 0
2  312 21 6 -5.5 0
0

0101000
+43 0 -19 0 *
Wi

0101100
+128 0 -46 0 -49 0 -42 0 -11 0 -18 72 *
Fa
0  1e-07 21 6

0101000
+10 0 *
Wi

0101100
+11 0 +41 0 -62 0 +17 39 *
Fa
0  1e-07 52 39

0101000
+8 0 *
Ed
 1e-07 1 1 0
1  108 0 5.5 11
3  313 314CN 54 0 5.5 11
0

0101000
+15 84 -39 84 *
Wi

0101100
-38 0 +6 82 +14 0 -6 82 *
Fa
0  1e-07 54 82

0101000
+5 0 *
Sh

0101100
-301 0 +279 0 -266 0 +259 0 -213 0 +204 0 -193 0 -189 0 -186 0 -183 0 
-180 0 -177 0 -174 0 +167 0 +162 0 +150 0 -147 0 +140 0 -135 0 -126 0 
-121 0 -116 44 +111 44 +106 44 -101 0 +96 0 +91 0 +86 51 -81 51 -76 51 
+71 0 -66 0 -57 0 -54 0 +47 0 +44 0 +36 0 -31 0 +28 0 -23 0 
-20 0 -12 0 -9 0 -7 0 -4 0 *
So

0100000
+3 0 *
Co

1100000
+2 0 *

+1 0 