DBRep_DrawableShape

CASCADE Topology V3, (c) Open Cascade
Locations 78
1
              1               0               0              -0 
              0               1               0              -0 
              0               0               1               0 
1
              1               0               0               0 
              0               1               0               0 
              0               0               1           -19.8 
1
              1               0               0          -4.825 
              0               1               0           -25.5 
              0               0               1          -11.65 
1
              1               0               0         -22.675 
              0               1               0               0 
              0               0               1           -8.15 
2  3 1 4 1 0
1
              1               0               0              -0 
              0               1               0              -0 
              0               0               1               0 
2  6 1 2 1 0
2  6 -1 0
1
              1               0               0               0 
              0               1               0               0 
              0               0               1            23.3 
2  9 -1 6 -1 0
2  3 1 4 1 2 -1 6 -1 0
2  2 -1 6 -1 0
2  6 1 9 1 2 1 0
2  2 -1 9 -1 6 -1 0
1
              1               0               0            -4.5 
              0               1               0            -3.5 
              0               0               1            -9.4 
1
              1               0               0          -27.25 
              0               1               0               0 
              0               0               1            -4.9 
2  15 1 16 1 0
1
              1               0               0            -4.5 
              0               1               0            -3.5 
              0               0               1            -9.4 
1
              1               0               0           27.25 
              0               1               0               0 
              0               0               1            -4.9 
2  18 1 19 1 0
2  2 -1 0
1
              1               0               0          -4.825 
              0               1               0           -25.5 
              0               0               1          -11.65 
1
              1               0               0          22.675 
              0               1               0               0 
              0               0               1           -8.15 
2  22 1 23 1 2 -1 6 -1 0
2  22 1 23 1 0
1
              1               0               0              -0 
              0               1               0              -0 
              0               0               1           -5.25 
1
              1               0               0             -13 
              0               1               0             -13 
              0               0               1               0 
2  26 1 27 1 0
1
              1               0               0              -0 
              0               1               0              -0 
              0               0               1           -5.25 
1
              1               0               0            20.5 
              0               1               0               0 
              0               0               1               0 
1
0.156434465040231 0.987688340595138               0               0 
-0.987688340595138 0.156434465040231              -0               0 
             -0               0               1               0 
2  29 1 30 1 31 1 0
1
              1               0               0              -0 
              0               1               0              -0 
              0               0               1           -5.25 
1
              1               0               0              13 
              0               1               0             -13 
              0               0               1               0 
2  33 1 34 1 0
1
              1               0               0              -0 
              0               1               0              -0 
              0               0               1           -5.25 
1
              1               0               0             -13 
              0               1               0              13 
              0               0               1               0 
2  36 1 37 1 0
1
              1               0               0              -0 
              0               1               0              -0 
              0               0               1           -5.25 
1
              1               0               0              -0 
              0               1               0              -0 
              0               0               1           -5.25 
1
              1               0               0              13 
              0               1               0              13 
              0               0               1               0 
2  40 1 41 1 0
2  6 1 2 1 4 -1 3 -1 0
2  4 -1 3 -1 0
1
              1               0               0              -0 
              0               1               0              -0 
              0               0               1           -8.25 
1
              1               0               0          -22.75 
              0               1               0               0 
              0               0               1          -17.05 
2  45 1 46 1 0
1
              1               0               0              -0 
              0               1               0              -0 
              0               0               1            -9.4 
1
              1               0               0           22.75 
              0               1               0               0 
              0               0               1            -4.9 
2  48 1 49 1 0
1
              1               0               0               0 
              0               1               0               0 
              0               0               1             3.5 
2  1 1 51 1 0
1
              1               0               0              -2 
              0               1               0            -2.5 
              0               0               1           -0.75 
1
              1               0               0            20.5 
              0               1               0               0 
              0               0               1            2.75 
1
2.22044604925031e-16               1               0               0 
             -1 2.22044604925031e-16              -0               0 
             -0               0               1               0 
2  53 1 54 1 55 1 0
2  55 -1 54 -1 53 -1 0
2  16 -1 15 -1 0
1
              1               0               0              -0 
              0               1               0              -0 
              0               0               1            -9.4 
1
              1               0               0          -22.75 
              0               1               0               0 
              0               0               1            -4.9 
2  59 1 60 1 16 -1 15 -1 0
2  19 -1 18 -1 0
2  48 1 49 1 19 -1 18 -1 0
2  49 -1 48 -1 0
2  18 1 19 1 49 -1 48 -1 0
1
              1               0               0              -0 
              0               1               0              -0 
              0               0               1           -8.25 
1
              1               0               0           22.75 
              0               1               0               0 
              0               0               1          -17.05 
2  66 1 67 1 0
2  6 1 2 1 23 -1 22 -1 0
2  23 -1 22 -1 0
2  27 -1 26 -1 0
2  31 -1 30 -1 29 -1 0
2  34 -1 33 -1 0
2  37 -1 36 -1 0
2  39 -1 0
2  41 -1 40 -1 0
2  46 -1 45 -1 0
2  67 -1 66 -1 0
Curve2ds 234
1 3.9369914837739359 0 1 0 
2 1.7160033035788841e-15 -6.7505352430363358e-16 -0.7000000000000004 -0.71414284285428475 0.71414284285428475 -0.7000000000000004 25.5
1 3.9369914837739359 -19.800000000000001 1 0 
1 3.9369914837739359 0 1 0 
8 -23.300000600000001 5.999999999062311e-07
1 0 -7.2893575072157333 -1 0 
8 -23.300000600000001 5.999999999062311e-07
1 3.9369914837739364 0 0 1 
8 -23.300000600000001 5.999999999062311e-07
1 3.9369914837739364 19.800000000000001 0 1 
1 0 0 1 0 
1 0 -23.300000000000001 1 0 
2 1.7160033035788841e-15 -6.7505352430363358e-16 1 0 -0 1 25.5
2 27.5 25.5 1 0 -0 1 25.5
1 0 19.800000000000001 1 0 
8 -23.300000600000001 5.999999999062311e-07
1 0 -43.710642492784267 -1 0 
8 -23.300000600000001 5.999999999062311e-07
1 2.3461938234056499 0 0 1 
8 -23.300000600000001 5.999999999062311e-07
1 2.3461938234056499 19.800000000000001 0 1 
8 -3.5000024000000001 2.3999999999999999e-06
1 2.3461938234056499 0 0 1 
8 -3.5000024000000001 2.3999999999999999e-06
1 19.800000000000001 -43.710642492784267 -1 0 
8 -3.5 0
1 8.6293791305852352 0 0 1 
1 2.3461938234056499 -19.800000000000001 0 1 
8 -3.5 0
1 8.6293791305852352 0 0 1 
1 2.3461938234056499 0 0 1 
2 1.7160033035788841e-15 -6.7505352430363358e-16 1 0 -0 1 25.5
1 0 -3.5 1 0 
8 -23.300000600000001 -3.7199999999999989
1 -5.5 6.4913381193698214 -1 0 
8 -23.300000600000001 -3.7199999999999989
1 3.0039031012855646 0 0 1 
8 -23.300000600000001 -3.7199999999999989
1 3.0039031012855646 19.800000000000001 0 1 
2 22.75 0 1 0 0 -1 25.5
1 6.2831853071795862 -5.5 -1 0 
1 6.2831853071795862 14.300000000000001 -1 0 
8 -23.300000600000001 -3.7199999999999989
1 -5.5 6.4913381193698214 -1 0 
8 -23.300000600000001 -3.7199999999999989
1 3.2792822058940216 0 0 1 
8 -23.300000600000001 -3.7199999999999989
1 3.2792822058940216 19.800000000000001 0 1 
1 6.1454957548753688 -3.5 -1 -0 
2 1.7160033035788841e-15 -6.7505352430363358e-16 0.99053576002471444 -0.13725490196077286 -0.13725490196077286 -0.99053576002471444 25.5
8 -23.300000600000001 -3.7199999999999989
1 -5.5 2.5086618806301786 -1 0 
8 -23.300000600000001 -3.7199999999999989
1 6.1454957548753573 0 0 1 
8 -23.300000600000001 -3.7199999999999989
1 6.1454957548753573 19.800000000000001 0 1 
2 -22.75 0 1 0 0 -1 25.5
1 6.2831853071795862 -5.5 -1 0 
1 6.2831853071795862 14.300000000000001 -1 0 
1 0 0 0 -1 
1 6.2831853071795862 0 0 -1 
1 0 19.800000000000001 0 -1 
1 6.2831853071795862 19.800000000000001 0 -1 
2 -17.850000000000001 25.5 1 0 -0 1 25.5
1 0 19.800000000000001 1 0 
8 -23.300000600000001 5.999999999062311e-07
1 0 -7.2893575072157333 -1 0 
8 -23.300000600000001 5.999999999062311e-07
1 5.487786476995443 0 0 1 
8 -23.300000600000001 5.999999999062311e-07
1 5.487786476995443 19.800000000000001 0 1 
8 -12.75 38.25
1 -17.850000000000001 -12.75 0 1 
8 -12.75 38.25
1 19.800000000000001 -12.75 0 -1 
1 -2.3461938234056503 -19.800000000000001 1 0 
1 3.9369914837739359 0 1 0 
8 -12.75 38.25
1 17.850000000000001 -12.75 0 1 
8 -12.75 38.25
1 19.800000000000001 -12.75 0 -1 
2 -12.999999999999998 -13 1 0 -0 1 1.7
1 0 5.25 1 0 
2 3.2069065333247342 -20.247610982200325 0.15643446504023084 -0.98768834059513777 0.98768834059513777 0.15643446504023084 2.25
1 6.3802551448562803e-18 5.25 1 0 
2 13.000000000000002 -13 1 0 -0 1 1.7
1 0 5.25 1 0 
2 -12.999999999999998 13 1 0 -0 1 1.7
1 0 5.25 1 0 
2 1.7160033035788841e-15 -6.7505352430363358e-16 1 0 -0 1 11.300000000000001
1 0 5.25 1 0 
2 13.000000000000002 13 1 0 -0 1 1.7
1 0 5.25 1 0 
1 0 0 0 -1 
1 9.6499999999999986 0 0 1 
1 -17.850000000000001 -25.5 0 1 
2 4.75 25.5 1 0 -0 1 1.7
1 0 5.5 1 0 
2 -22.75 -6.7505352430363358e-16 1 0 -0 1 1.6999999999999993
8 -3.5000024000000001 2.3999999999999999e-06
1 7.0785841373637295 0 0 1 
8 -3.5000024000000001 2.3999999999999999e-06
1 19.800000000000001 -43.710642492784267 -1 0 
1 0.79539883018414348 -19.800000000000001 0 1 
1 0.79539883018414348 0 0 1 
8 -3.5000024000000001 2.3999999999999999e-06
1 7.0785841373637295 0 0 1 
1 8.6293791305852299 -3.5 -1 -0 
2 1.7160033035788841e-15 -6.7505352430363358e-16 -0.69999999999999563 0.71414284285428942 0.71414284285428942 0.69999999999999563 25.5
2 1.7160033035788841e-15 -6.7505352430363358e-16 -0.69999999999999563 0.71414284285428942 0.71414284285428942 0.69999999999999563 25.5
8 0 1.5507949932215186
1 2.3461938234056436 -23.300000000000001 -1 -0 
2 1.7160033035788841e-15 -6.7505352430363358e-16 -0.69999999999999563 0.71414284285428942 0.71414284285428942 0.69999999999999563 25.5
1 8.6293791305852299 -3.5 -1 -0 
2 1.7160033035788841e-15 -6.7505352430363358e-16 1 0 -0 1 25.5
1 0 -3.5 1 0 
8 6.875 11.625000000000002
1 -15.874999999999998 3.4999999999999991 -1 0 
8 6.875 11.625000000000002
1 17.800000000000001 15.875 0 -1 
1 -15.874999999999998 3.4999999999999991 -1 0 
1 -15.874999999999998 3.4999999999999991 -1 0 
8 -16.125 -11.375
1 11.375000000000002 3.4999999999999991 -1 0 
8 -16.125 -11.375
1 17.800000000000001 -11.375 0 -1 
1 11.375000000000002 3.4999999999999991 -1 0 
2 -22.75 -6.7505352430363358e-16 1 0 -0 1 3.5
1 0 17.800000000000001 1 0 
2 -22.75 -6.7505352430363358e-16 1 0 -0 1 3.5
2 -22.75 -6.7505352430363358e-16 1 0 -0 1 3.5
2 22.75 -6.7505352430363358e-16 1 0 -0 1 3.5
1 0 17.800000000000001 1 0 
2 22.75 -6.7505352430363358e-16 1 0 -0 1 3.5
8 6.875 11.625000000000002
1 -15.874999999999998 -3.5000000000000009 -1 0 
8 6.875 11.625000000000002
1 17.800000000000001 15.875 0 -1 
1 -15.874999999999998 -3.5000000000000009 -1 0 
1 -15.874999999999998 -3.5000000000000009 -1 0 
8 -16.125 -11.375
1 11.375000000000002 -3.5000000000000009 -1 0 
8 -16.125 -11.375
1 17.800000000000001 -11.375 0 -1 
1 11.375000000000002 -3.5000000000000009 -1 0 
2 -12.999999999999998 -13 1 0 -0 1 1.7
1 0 8.75 1 0 
2 -12.999999999999998 -13 1 0 -0 1 1.6999999999999993
2 -12.999999999999998 -13 1 0 -0 1 1.6999999999999993
2 -12.999999999999998 -13 1 0 -0 1 1.6999999999999993
1 1.5 0 0 1 
1 0 0 1 0 
1 -2.4999999999999942 -18.5 2.2204460492503131e-16 -1 
1 1.5 0 0 -1 
1 4 0 0 1 
1 -2.4999999999999933 -22.5 1 2.2204460492503131e-16 
1 1.5 0 0 1 
1 0 5 1 0 
1 2.5000000000000058 -18.5 2.2204460492503131e-16 -1 
2 3.2069065333247342 -20.247610982200325 0.15643446504023084 -0.98768834059513777 0.98768834059513777 0.15643446504023084 2.25
1 6.3802551448562803e-18 8.75 1 0 
1 1.5 0 0 -1 
1 0 0 0 1 
1 -2.4999999999999942 -18.5 1 2.2204460492503131e-16 
2 13.000000000000002 -13 1 0 -0 1 1.7
1 0 8.75 1 0 
2 13.000000000000002 -13 1 0 -0 1 1.6999999999999993
2 13.000000000000002 -13 1 0 -0 1 1.6999999999999993
2 13.000000000000002 -13 1 0 -0 1 1.6999999999999993
2 -12.999999999999998 13 1 0 -0 1 1.7
1 0 8.75 1 0 
2 -12.999999999999998 13 1 0 -0 1 1.6999999999999993
2 -12.999999999999998 13 1 0 -0 1 1.6999999999999993
2 -12.999999999999998 13 1 0 -0 1 1.6999999999999993
2 1.7160033035788841e-15 -6.7505352430363358e-16 1 0 -0 1 11.300000000000001
1 0 8.75 1 0 
2 1.7160033035788841e-15 -6.7505352430363358e-16 1 0 -0 1 11.300000000000001
2 1.7160033035788841e-15 -6.7505352430363358e-16 1 0 -0 1 11.300000000000001
2 1.7160033035788841e-15 -6.7505352430363358e-16 1 0 -0 1 11.300000000000001
2 13.000000000000002 13 1 0 -0 1 1.7
1 0 8.75 1 0 
2 13.000000000000002 13 1 0 -0 1 1.6999999999999993
2 13.000000000000002 13 1 0 -0 1 1.6999999999999993
2 13.000000000000002 13 1 0 -0 1 1.6999999999999993
1 0 0 0 1 
1 0 7 1 0 
1 -9 3.5 1 0 
1 0 -7 1 0 
1 0 9 1 0 
1 1.5707963267948966 0 0 1 
8 0 18.800000000000001
1 7.8539816339744828 0 0 1 
1 4.7123889803846897 0 1 0 
2 0 0 0 -1 1 0 3.5
1 0 0 0 1 
1 0 0 1 0 
1 -9 -3.5 1 0 
2 0 0 1 0 -0 1 1.7
1 0 11 1 0 
1 0 0 1 0 
1 0 9 1 0 
1 4.7123889803846897 0 0 1 
8 0 18.800000000000001
1 4.7123889803846897 0 0 1 
1 0 0 0 1 
1 0 0 1 0 
1 0 -3.5 1 0 
1 0 0 1 0 
1 0 0 1 0 
1 4.7123889803846897 0 0 1 
1 0 0 0 1 
1 0 7 1 0 
1 0 3.5 1 0 
2 -22.75 0 1 0 0 -1 25.5
1 6.2831853071795862 -5.5 -1 0 
1 6.2831853071795862 14.300000000000001 -1 0 
1 0 0 1 0 
2 0 0 1 0 -0 1 3.5
2 0 0 1 0 -0 1 3.5
2 0 0 1 0 -0 1 1.7
1 0 11 1 0 
2 -17.850000000000001 25.5 1 0 -0 1 25.5
1 0 19.800000000000001 1 0 
8 -23.300000600000001 -3.7199999999999989
1 -5.5 2.5086618806301786 -1 0 
8 -23.300000600000001 -3.7199999999999989
1 0.1376895523042288 0 0 1 
8 -23.300000600000001 -3.7199999999999989
1 0.1376895523042288 19.800000000000001 0 1 
8 -23.300000600000001 5.999999999062311e-07
1 0 -43.710642492784267 -1 0 
8 -23.300000600000001 5.999999999062311e-07
1 0.79539883018414348 0 0 1 
8 -23.300000600000001 5.999999999062311e-07
1 0.79539883018414348 19.800000000000001 0 1 
1 0 0 0 -1 
1 0 0 0 1 
1 17.850000000000001 -25.5 0 1 
2 4.8999999999999986 25.5 1 0 -0 1 1.7
1 0 5.5 1 0 
2 22.75 -6.7505352430363358e-16 1 0 -0 1 1.6999999999999993
1 6.2831853071795862 -0 0 1 
1 0 -0 0 1 
8 7.0999999999999996 8.9000000000000004
1 -7.25 -4.2897418093449016 1 0 
8 7.0999999999999996 8.9000000000000004
1 3.6658743693473608 0 0 1 
2 1.7476109822003258 5.7069065333247284 0.98768834059513777 0.15643446504023062 -0.15643446504023062 0.98768834059513777 2.25
1 6.3802551448562803e-18 7.25 1 0 
8 7.0999999999999996 8.9000000000000004
1 -7.25 3.8836781986387052 1 0 
8 7.0999999999999996 8.9000000000000004
1 5.8065121628731395 0 0 1 
1 6.2831853071795862 -0 0 1 
1 0 -0 0 1 
1 6.2831853071795862 -0 0 1 
1 0 -0 0 1 
1 6.2831853071795862 -0 0 1 
1 0 -0 0 1 
1 6.2831853071795862 -0 0 1 
1 0 -0 0 1 
1 6.2831853071795862 -0 0 1 
1 0 -0 0 1 
1 6.2831853071795862 -0 0 1 
1 0 -0 0 1 
1 0 -7 1 0 
1 0 0 1 0 
1 1.5707963267948966 0 0 1 
1 0 0 0 1 
1 0 0 1 0 
1 0 0 1 0 
1 0 4 1 0 
1 0 0 1 0 
1 0 0 1 0 
1 0 -5 1 0 
1 0 4 1 0 
1 0 0 0 -1 
1 4 0 0 1 
1 0 0 0 1 
1 0 5 1 0 
1 0 0 0 -1 
1 0 0 0 1 
1 6.2831853071795862 -0 0 1 
1 0 -0 0 1 
Curves 76
8 0 4.6923876468112997
2 0 0 0 0 0 1 -0.7000000000000004 -0.71414284285428475 0 0.71414284285428475 -0.7000000000000004 0 25.5
1 -17.850000000000001 -18.210642492784267 -19.800000000000001 -0 -0 -1 
2 0 0 0 0 0 1 1 0 -0 -0 1 0 25.5
1 -17.850000000000001 18.210642492784267 -19.800000000000001 -0 -0 -1 
1 -17.850000000000001 18.210642492784267 0 -0 -0 -1 
1 -25.258661880630179 3.5 -19.800000000000001 -0 -0 -1 
2 0 0 -14.300000000000001 0 -0 -1 1 0 -0 0 -1 0 25.5
1 -25.258661880630179 -3.5 -19.800000000000001 -0 -0 -1 
8 0 2.8662135489813574
2 0 0 3.5 0 0 -1 0.99053576002471444 -0.13725490196077286 0 -0.13725490196077286 -0.99053576002471444 -0 25.5
1 25.258661880630179 -3.5 -19.800000000000001 -0 -0 -1 
2 0 0 -14.300000000000001 0 -0 -1 1 0 -0 0 -1 0 25.5
1 25.5 0 0 0 0 1 
1 17.850000000000001 -18.210642492784267 -19.800000000000001 -0 -0 -1 
1 -17.850000000000001 -12.75 0 -0 1 0 
1 17.850000000000001 -12.75 0 -0 1 0 
2 -13 -13 0 0 0 1 1 0 -0 -0 1 0 1.7
2 3.2069065333247324 -20.247610982200325 0 0 0 1 0.15643446504023084 -0.98768834059513777 0 0.98768834059513777 0.15643446504023084 -0 2.25
2 13 -13 0 0 0 1 1 0 -0 -0 1 0 1.7
2 -13 13 0 0 0 1 1 0 -0 -0 1 0 1.7
2 0 0 0 0 0 1 1 0 -0 -0 1 0 11.300000000000001
2 13 13 0 0 0 1 1 0 -0 -0 1 0 1.7
1 9.6499999999999986 0 0 -0 1 0 
2 -22.75 0 -19.800000000000001 0 0 1 1 0 -0 -0 1 0 1.7
1 17.850000000000001 18.210642492784267 0 -0 -0 -1 
8 0 4.6923876468112864
2 0 0 3.5 0 0 -1 -0.69999999999999563 0.71414284285428942 0 0.71414284285428942 0.69999999999999563 0 25.5
1 -15.875 3.5 3.5 -1 -0 0 
1 11.375 3.5 3.5 -1 -0 0 
2 -22.75 0 3.5 0 0 1 1 0 -0 -0 1 0 3.5
2 22.75 0 3.5 0 0 1 1 0 -0 -0 1 0 3.5
1 -15.875 -3.5 3.5 -1 -0 0 
1 11.375 -3.5 3.5 -1 -0 0 
2 -13 -13 3.5 0 0 1 1 0 -0 -0 1 0 1.7
1 0 0 1.5 1 0 -0 
1 4 0 1.5 -0 1 0 
1 0 5 1.5 1 0 -0 
2 3.2069065333247324 -20.247610982200325 3.5 0 0 1 0.15643446504023084 -0.98768834059513777 0 0.98768834059513777 0.15643446504023084 -0 2.25
1 0 0 1.5 -0 1 0 
2 13 -13 3.5 0 0 1 1 0 -0 -0 1 0 1.7
2 -13 13 3.5 0 0 1 1 0 -0 -0 1 0 1.7
2 0 0 3.5 0 0 1 1 0 -0 -0 1 0 11.300000000000001
2 13 13 3.5 0 0 1 1 0 -0 -0 1 0 1.7
1 0 7 0 1 0 -0 
1 9 7 0 0 0 1 
8 0 3.1415926535897931
2 -22.75 0 -14.300000000000001 0 0 1 0 -1 0 1 0 -0 3.5
1 0 0 0 1 0 -0 
2 -22.75 0 -14.300000000000001 0 0 1 1 0 -0 -0 1 0 1.7
1 9 0 0 0 0 1 
1 0 0 0 1 0 -0 
1 0 0 0 0 0 1 
1 0 7 0 1 0 -0 
2 0 0 -14.300000000000001 0 -0 -1 1 0 -0 0 -1 0 25.5
2 0 0 0 0 0 1 1 0 -0 -0 1 0 3.5
2 22.75 0 -14.300000000000001 0 0 1 1 0 -0 -0 1 0 1.7
1 25.258661880630179 3.5 -19.800000000000001 -0 -0 -1 
1 17.850000000000001 18.210642492784267 -19.800000000000001 -0 -0 -1 
1 0 0 0 -0 1 0 
2 22.75 0 -19.800000000000001 0 0 1 1 0 -0 -0 1 0 1.7
1 1.7 -4.1637991171010006e-16 0 0 0 1 
1 1.7897418093449058 -18.5 -5.25 0 0 1 
2 3.2069065333247324 -20.247610982200325 2 0 0 1 0.15643446504023084 -0.98768834059513777 0 0.98768834059513777 0.15643446504023084 -0 2.25
1 2.5000000000000049 -22.383678198638705 -5.25 0 0 1 
1 2.25 -5.5109105961630896e-16 0 0 0 1 
1 1.7 -4.1637991171010006e-16 0 0 0 1 
1 1.7 -4.1637991171010006e-16 0 0 0 1 
1 11.300000000000001 -2.7677017660730185e-15 0 0 0 1 
1 1.7 -4.1637991171010006e-16 0 0 0 1 
1 1.7 -4.1637991171010006e-16 0 0 0 1 
1 0 7 0 0 0 1 
1 0 0 0 1 0 -0 
1 4 0 0 0 0 1 
1 0 0 0 0 0 1 
1 4 5 0 0 0 1 
1 4 0 0 -0 1 0 
1 0 5 0 1 0 -0 
1 0 0 0 -0 1 0 
1 1.7 -4.1637991171010006e-16 0 0 0 1 
Polygon3D 0
PolygonOnTriangulations 0
Surfaces 40
2 0 0 0 -0 -0 -1 1 0 -0 -0 1 0 25.5
10 3.1415926535897927 9.4247779607693793 -2e+100 2e+100
2 0 0 0 -0 -0 -1 1 0 -0 -0 1 0 25.5
1 -1.7160033035788841e-15 6.7505352430363358e-16 0 0 0 1 1 0 -0 -0 1 0 
2 0 0 0 -0 -0 -1 1 0 -0 -0 1 0 25.5
1 9.6499999999999986 0 0 1 0 -0 0 0 1 0 -1 0 
1 -1.7160033035788841e-15 6.7505352430363358e-16 0 0 0 1 1 0 -0 -0 1 0 
1 0 0 0 0 0 1 1 0 -0 -0 1 0 
2 0 0 0 -0 -0 -1 1 0 -0 -0 1 0 25.5
1 -1.7160033035788841e-15 6.7505352430363358e-16 3.5 0 0 1 1 0 -0 -0 1 0 
1 0 7 0 -0 1 0 0 0 1 1 0 -0 
1 -22.75 0 -14.300000000000001 0 0 1 1 0 -0 -0 1 0 
1 0 0 0 -0 1 0 0 0 1 1 0 -0 
1 0 0 0 -0 1 0 0 0 1 1 0 -0 
1 22.75 0 -14.300000000000001 0 0 1 1 0 -0 -0 1 0 
1 0 0 0 0 0 1 1 0 -0 -0 1 0 
1 0 0 0 1 0 -0 0 0 1 0 -1 0 
2 0 0 0 0 0 1 1 0 -0 -0 1 0 1.7
2 0 0 0 0 0 1 1 0 -0 -0 1 0 2.25
2 0 0 0 0 0 1 1 0 -0 -0 1 0 1.7
2 0 0 0 0 0 1 1 0 -0 -0 1 0 1.7
2 0 0 0 0 0 1 1 0 -0 -0 1 0 11.300000000000001
2 0 0 0 0 0 1 1 0 -0 -0 1 0 1.7
2 0 0 0 0 0 1 1 0 -0 -0 1 0 1.7
1 -1.7160033035788841e-15 6.7505352430363358e-16 3.5 0 0 1 1 0 -0 -0 1 0 
1 0 7 0 -0 1 0 0 0 1 1 0 -0 
10 3.1415926535897931 9.4247779607693793 -2e+100 2e+100
2 -22.75 0 -14.300000000000001 0 0 1 1 0 -0 -0 1 0 3.5
2 0 0 0 0 0 1 1 0 -0 -0 1 0 3.5
1 0 0 0 -0 1 0 0 0 1 1 0 -0 
1 0 0 1.5 0 0 1 1 0 -0 -0 1 0 
1 4 0 0 1 0 -0 0 0 1 0 -1 0 
1 0 5 0 -0 1 0 0 0 1 1 0 -0 
1 0 0 0 1 0 -0 0 0 1 0 -1 0 
1 0 0 0 0 0 1 1 0 -0 -0 1 0 
1 9 0 0 1 0 -0 0 0 1 0 -1 0 
2 0 0 0 0 0 1 1 0 -0 -0 1 0 3.5
1 0 0 0 0 0 1 1 0 -0 -0 1 0 
1 0 0 0 1 0 -0 0 0 1 0 -1 0 
1 0 0 0 0 0 1 1 0 -0 -0 1 0 
2 0 0 0 0 0 1 1 0 -0 -0 1 0 1.7
1 0 0 0 0 0 1 1 0 -0 -0 1 0 
Triangulations 0

TShapes 215
Ve
6.00000007105427e-07
-17.85 -18.2106424927843 0
0 0

0101101
*
Ve
6.00000003552714e-07
17.85 -18.2106424927843 0
0 0

0101101
*
Ed
 1.00000017763568e-07 1 1 0
1  1 0 0 1.55079499322151
2  1 2 0 0 1.55079499322151
2  2 3 1 0 1.55079499322151
2  3 4 2 0 1.55079499322151
2  4 1 0 0 1.55079499322151
0

0101000
+215 0 -214 0 *
Ve
1.00000435363282e-07
-17.8500000000002 -18.2106424927839 -19.8
0 0

0101101
*
Ed
 1e-07 1 1 0
1  2 0 -19.8 0
2  5 5 5 -19.8 0
2  6 4 2 -19.8 0
2  7 1 0 -19.8 0
0

0101000
+215 0 -212 0 *
Ve
1.00000438526346e-07
-17.8500000000002 18.2106424927839 -19.8
0 0

0101101
*
Ed
 1e-07 1 1 0
1  3 0 2.34619382340567 3.93699148377392
2  8 4 8 2.34619382340567 3.93699148377392
2  9 4 10 2.34619382340567 3.93699148377392
2  10 6 0 2.34619382340567 3.93699148377392
2  11 7 11 2.34619382340567 3.93699148377392
2  12 1 12 2.34619382340567 3.93699148377392
0

0101000
+210 12 -212 12 *
Ve
6.00000003552714e-07
-17.85 18.2106424927843 0
0 0

0101101
*
Ed
 1e-07 1 1 0
1  4 0 -19.8 0
2  13 5 5 -19.8 0
2  14 4 2 -19.8 0
2  15 1 0 -19.8 0
0

0101000
+208 0 -210 0 *
Ve
1.00000168445092e-07
-17.8499999999999 18.2106424927844 3.5
0 0

0101101
*
Ed
 1.00000005329071e-07 1 1 0
1  5 0 -3.5 0
2  16 8 0 -3.5 0
2  17 5 5 -3.5 0
2  18 2 0 -3.5 0
2  19 4 2 -3.5 0
3  20 21C0 1 0 -3.5 0
0

0101000
+206 0 -208 0 *
Ve
1.50001e-07
-25.2586618806302 3.49999999999975 3.5
0 0

0101101
*
Ed
 1e-07 1 1 0
1  3 0 2.34619382340564 3.00390310128557
2  8 4 8 2.34619382340564 3.00390310128557
2  9 4 10 2.34619382340564 3.00390310128557
2  10 6 0 2.34619382340564 3.00390310128557
2  22 9 14 2.34619382340564 3.00390310128557
2  23 1 14 2.34619382340564 3.00390310128557
0

0101000
+206 14 -204 14 *
Ve
1.00000024585863e-07
-25.2586618806302 3.5 -14.3
0 0

0101101
*
Ed
 1e-07 1 1 0
1  6 0 -23.3 -5.5
2  24 10 17 -23.3 -5.5
2  25 4 2 -23.3 -5.5
2  26 1 0 -23.3 -5.5
0

0101000
+204 0 -202 0 *
Ve
1.00000008343679e-07
-25.2586618806302 -3.5 -14.3
0 0

0101101
*
Ed
 1e-07 1 1 0
1  7 0 3.00390310128556 3.27928220589402
2  27 11 0 3.00390310128556 3.27928220589402
2  28 4 2 3.00390310128556 3.27928220589402
2  29 1 0 3.00390310128556 3.27928220589402
0

0101000
+200 0 -202 0 *
Ve
1.50001e-07
-25.2586618806302 -3.49999999999975 3.5
0 0

0101101
*
Ed
 1e-07 1 1 0
1  8 0 -23.3 -5.5
2  30 12 17 -23.3 -5.5
2  31 4 2 -23.3 -5.5
2  32 1 0 -23.3 -5.5
0

0101000
+198 0 -200 0 *
Ve
1.50001e-07
25.2586618806303 -3.49999999999971 3.5
0 0

0101101
*
Ed
 1e-07 1 1 0
1  9 0 0 2.86621354898136
2  33 1 0 0 2.86621354898136
2  34 9 0 0 2.86621354898136
0

0101000
+196 0 -198 0 *
Ve
1.00000000444089e-07
25.2586618806302 -3.5 -14.3
0 0

0101101
*
Ed
 1e-07 1 1 0
1  10 0 -23.3 -5.5
2  35 13 20 -23.3 -5.5
2  36 4 2 -23.3 -5.5
2  37 1 0 -23.3 -5.5
0

0101000
+196 0 -194 0 *
Ve
1.00000006245699e-07
25.5 0 -14.3
0 0

0101101
*
Ed
 1e-07 1 1 0
1  11 0 0 0.137689552304229
2  38 14 0 0 0.137689552304229
2  39 4 2 0 0.137689552304229
2  40 1 0 0 0.137689552304229
0

0101000
+192 0 -194 0 *
Ve
1e-07
25.5 0 0
0 0

0101101
*
Ed
 1e-07 1 1 0
1  12 0 0 5.5
3  41 42CN 4 0 0 5.5
3  43 44C0 1 21 0 5.5
0

0101000
+190 6 -192 21 *
Ve
1.00000231989755e-07
17.8499999999999 -18.2106424927845 -19.8
0 0

0101101
*
Ed
 1e-07 1 1 0
1  3 0 5.48778647699543 6.28318530717959
2  8 4 8 5.48778647699543 6.28318530717959
2  9 4 10 5.48778647699543 6.28318530717959
2  10 6 0 5.48778647699543 6.28318530717959
2  45 15 24 5.48778647699543 6.28318530717959
2  46 1 12 5.48778647699543 6.28318530717959
0

0101000
+188 12 -190 0 *
Ed
 1e-07 1 1 0
1  13 0 -19.8 0
2  47 16 25 -19.8 0
2  48 4 2 -19.8 0
2  49 1 0 -19.8 0
0

0101000
+214 0 -188 0 *
Wi

0101100
-213 0 +211 0 -209 7 -207 0 -205 0 +203 13 +201 0 -199 0 -197 0 -195 0 
+193 0 -191 0 -189 2 -187 7 -186 0 *
Fa
0  0 1 0

0101000
+185 0 *
Ed
 6e-07 1 1 0
1  14 0 -5.46064249278426 30.9606424927843
2  50 3 1 -5.46064249278426 30.9606424927843
2  51 5 5 -5.46064249278426 30.9606424927843
0

0101000
+215 0 -208 0 *
Ve
6.00000003552714e-07
17.85 18.2106424927843 0
0 0

0101101
*
Ed
 1.00000005687117e-07 1 1 0
1  1 0 3.14159265358979 4.6923876468113
2  1 2 0 3.14159265358979 4.6923876468113
2  2 3 1 3.14159265358979 4.6923876468113
2  52 4 2 3.14159265358979 4.6923876468113
2  53 1 0 3.14159265358979 4.6923876468113
0

0101000
+182 0 -208 0 *
Ed
 6e-07 1 1 0
1  15 0 -5.46064249278426 30.9606424927843
2  54 3 1 -5.46064249278426 30.9606424927843
2  55 16 25 -5.46064249278426 30.9606424927843
0

0101000
+214 0 -182 0 *
Wi

0101100
-183 0 +213 0 +181 0 +180 0 *
Ve
1e-07
-11.3 -13 0
0 0

0101101
*
Ed
 1e-07 1 1 0
1  16 0 0 6.28318530717959
2  56 3 1 0 6.28318530717959
2  57 17 28 0 6.28318530717959
0

0101100
+178 0 -178 0 *
Wi

0101100
-177 0 *
Ve
1.00000000444089e-07
3.55888407966525 -22.4699097485394 0
0 0

0101101
*
Ed
 1e-07 1 1 0
1  17 0 0 6.28318530717959
2  58 3 1 0 6.28318530717959
2  59 18 32 0 6.28318530717959
0

0101100
+175 0 -175 0 *
Wi

0101100
-174 0 *
Ve
1e-07
14.7 -13 0
0 0

0101101
*
Ed
 1e-07 1 1 0
1  18 0 0 6.28318530717959
2  60 3 1 0 6.28318530717959
2  61 19 35 0 6.28318530717959
0

0101100
+172 0 -172 0 *
Wi

0101100
-171 0 *
Ve
1e-07
-11.3 13 0
0 0

0101101
*
Ed
 1e-07 1 1 0
1  19 0 0 6.28318530717959
2  62 3 1 0 6.28318530717959
2  63 20 38 0 6.28318530717959
0

0101100
+169 0 -169 0 *
Wi

0101100
-168 0 *
Ve
1.00000002767702e-07
11.3 -2.76770176607302e-15 0
0 0

0101101
*
Ed
 1e-07 1 1 0
1  20 0 0 6.28318530717959
2  64 3 1 0 6.28318530717959
2  65 21 39 0 6.28318530717959
0

0101100
+166 0 -166 0 *
Wi

0101100
-165 0 *
Ve
1e-07
14.7 13 0
0 0

0101101
*
Ed
 1e-07 1 1 0
1  21 0 0 6.28318530717959
2  66 3 1 0 6.28318530717959
2  67 22 42 0 6.28318530717959
0

0101100
+163 0 -163 0 *
Wi

0101100
-162 0 *
Fa
0  1e-07 3 1

0101000
+179 0 +176 0 +173 0 +170 0 +167 0 +164 0 +161 0 *
Ed
 1e-07 1 1 0
1  22 0 7.28935750721612 43.7106424927839
2  68 5 0 7.28935750721612 43.7106424927839
2  69 7 0 7.28935750721612 43.7106424927839
2  70 6 43 7.28935750721612 43.7106424927839
0

0101000
+212 44 -210 44 *
Wi

0101100
-183 0 -207 0 +159 5 +211 0 *
Fa
0  1e-07 5 5

0101000
+158 0 *
Wi

0101100
+159 5 +209 7 *
Ve
1.0000000041638e-07
-21.05 -4.163799117101e-16 -19.8
0 0

0101101
*
Ed
 1e-07 1 1 0
1  23 0 0 6.28318530717959
2  71 7 5 0 6.28318530717959
2  72 23 47 0 6.28318530717959
2  73 6 7 0 6.28318530717959
0

0101100
+155 0 -155 0 *
Wi

0101100
-154 0 *
Fa
0  1e-07 7 5

0101000
+156 0 +153 0 *
Ve
1.00000503696624e-07
17.8500000000002 18.2106424927838 3.5
0 0

0101101
*
Ed
 1.00000001776357e-07 1 1 0
1  24 0 -3.5 -0
2  74 2 0 -3.5 -0
2  75 16 25 -3.5 -0
2  76 4 2 -3.5 -0
3  77 78C0 1 0 -3.5 -0
0

0101000
+151 0 -182 0 *
Ed
 1.00000005687117e-07 1 1 0
1  25 0 0 1.55079499322152
2  79 2 0 0 1.55079499322152
2  80 24 0 0 1.55079499322152
2  81 9 0 0 1.55079499322152
2  82 4 2 0 1.55079499322152
2  83 6 13 0 1.55079499322152
2  84 1 0 0 1.55079499322152
0

0101000
+206 0 -151 0 *
Wi

0101100
-181 0 -150 0 -149 0 +205 0 *
Fa
0  0 1 0

0101000
+148 0 *
Ve
1.50001e-07
25.2586618806303 3.49999999999971 3.5
0 0

0101101
*
Ed
 1e-07 1 1 0
1  3 0 0.137689552304217 0.795398830184125
2  8 4 8 0.137689552304217 0.795398830184125
2  9 4 10 0.137689552304217 0.795398830184125
2  10 6 0 0.137689552304217 0.795398830184125
2  85 9 14 0.137689552304217 0.795398830184125
2  86 1 14 0.137689552304217 0.795398830184125
0

0101000
+146 14 -151 14 *
Ve
1.5e-07
-22.75 3.5 3.5
0 0

0101101
*
Ed
 1.5e-07 1 1 0
1  26 0 6.875 9.38366188063025
2  87 24 0 6.875 9.38366188063025
2  88 10 17 6.875 9.38366188063025
2  89 9 0 6.875 9.38366188063025
2  90 6 13 6.875 9.38366188063025
0

0101000
+144 0 -204 0 *
Ve
1.5e-07
22.75 3.5 3.5
0 0

0101101
*
Ed
 1.5e-07 1 1 0
1  27 0 -13.8836618806303 -11.375
2  91 9 0 -13.8836618806303 -11.375
2  92 25 20 -13.8836618806303 -11.375
2  93 6 13 -13.8836618806303 -11.375
0

0101000
+146 0 -142 0 *
Ve
1.5e-07
-22.75 -3.5 3.5
0 0

0101101
*
Ed
 1e-07 1 1 0
1  28 0 4.71238898038469 7.85398163397448
2  94 24 0 4.71238898038469 7.85398163397448
2  95 26 0 4.71238898038469 7.85398163397448
2  96 9 0 4.71238898038469 7.85398163397448
2  97 6 13 4.71238898038469 7.85398163397448
0

0101000
+140 0 -144 0 *
Ve
1.5e-07
22.75 -3.5 3.5
0 0

0101101
*
Ed
 1e-07 1 1 0
1  29 0 1.5707963267949 4.71238898038469
2  98 9 0 1.5707963267949 4.71238898038469
2  99 27 50 1.5707963267949 4.71238898038469
2  100 6 13 1.5707963267949 4.71238898038469
0

0101000
+142 0 -138 0 *
Ed
 1.5e-07 1 1 0
1  30 0 6.875 9.38366188063025
2  101 24 0 6.875 9.38366188063025
2  102 12 17 6.875 9.38366188063025
2  103 9 0 6.875 9.38366188063025
2  104 6 13 6.875 9.38366188063025
0

0101000
+140 0 -198 0 *
Ed
 1.5e-07 1 1 0
1  31 0 -13.8836618806303 -11.375
2  105 9 0 -13.8836618806303 -11.375
2  106 13 20 -13.8836618806303 -11.375
2  107 6 13 -13.8836618806303 -11.375
0

0101000
+196 0 -138 0 *
Wi

0101100
-149 0 +203 13 +145 13 -143 0 -141 0 -139 0 -137 0 +136 0 +135 0 -195 0 
*
Ve
1e-07
-11.3 -13 3.5
0 0

0101101
*
Ed
 1e-07 1 1 0
1  32 0 0 6.28318530717959
2  108 3 52 0 6.28318530717959
2  109 17 28 0 6.28318530717959
2  110 24 0 0 6.28318530717959
2  111 9 0 0 6.28318530717959
2  112 6 13 0 6.28318530717959
0

0101100
+133 0 -133 0 *
Wi

0101100
-132 0 *
Ve
1e-07
4 0 1.5
0 0

0101101
*
Ve
1e-07
0 0 1.5
0 0

0101101
*
Ed
 1e-07 1 1 0
1  33 0 0 4
2  113 28 0 0 4
2  114 29 0 0 4
2  115 9 57 0 4
0

0101000
-130 0 +129 0 *
Ve
1e-07
4 5 1.5
0 0

0101101
*
Ed
 1e-07 1 1 0
1  34 0 0 5
2  116 30 0 0 5
2  117 29 0 0 5
2  118 9 57 0 5
0

0101000
-127 0 +130 0 *
Ve
1.00000028421709e-07
2.5 -22.3836781986387 3.5
0 0

0101101
*
Ed
 1e-07 1 1 0
1  35 0 3.88367819863873 4
2  119 31 0 3.88367819863873 4
2  120 29 0 3.88367819863873 4
2  121 9 57 3.88367819863873 4
0

0101000
+125 57 -127 0 *
Ve
1.00000000444089e-07
3.55888407966525 -22.4699097485394 3.5
0 0

0101101
*
Ed
 1e-07 1 1 0
1  36 0 5.80651216287314 6.28318530717959
2  122 9 0 5.80651216287314 6.28318530717959
2  123 18 32 5.80651216287314 6.28318530717959
0

0101000
+125 0 -123 0 *
Ve
1.00000035749181e-07
1.78974180934487 -18.5 3.5
0 0

0101101
*
Ed
 1e-07 1 1 0
1  36 0 0 3.66587436934737
2  122 9 0 0 3.66587436934737
2  123 18 32 0 3.66587436934737
0

0101000
+123 0 -121 0 *
Ed
 1e-07 1 1 0
1  37 0 0 4.28974180934487
2  124 32 0 0 4.28974180934487
2  125 29 0 0 4.28974180934487
2  126 9 57 0 4.28974180934487
0

0101000
+129 0 -121 57 *
Wi

0101100
-128 56 -126 56 +124 56 -122 0 -120 0 +119 56 *
Ve
1e-07
14.7 -13 3.5
0 0

0101101
*
Ed
 1e-07 1 1 0
1  38 0 0 6.28318530717959
2  127 3 52 0 6.28318530717959
2  128 19 35 0 6.28318530717959
2  129 24 0 0 6.28318530717959
2  130 9 0 0 6.28318530717959
2  131 6 13 0 6.28318530717959
0

0101100
+117 0 -117 0 *
Wi

0101100
-116 0 *
Ve
1e-07
-11.3 13 3.5
0 0

0101101
*
Ed
 1e-07 1 1 0
1  39 0 0 6.28318530717959
2  132 3 52 0 6.28318530717959
2  133 20 38 0 6.28318530717959
2  134 24 0 0 6.28318530717959
2  135 9 0 0 6.28318530717959
2  136 6 13 0 6.28318530717959
0

0101100
+114 0 -114 0 *
Wi

0101100
-113 0 *
Ve
1.00000002767702e-07
11.3 -2.76770176607302e-15 3.5
0 0

0101101
*
Ed
 1e-07 1 1 0
1  40 0 0 6.28318530717959
2  137 3 52 0 6.28318530717959
2  138 21 39 0 6.28318530717959
2  139 24 0 0 6.28318530717959
2  140 9 0 0 6.28318530717959
2  141 6 13 0 6.28318530717959
0

0101100
+111 0 -111 0 *
Wi

0101100
-110 0 *
Ve
1e-07
14.7 13 3.5
0 0

0101101
*
Ed
 1e-07 1 1 0
1  41 0 0 6.28318530717959
2  142 3 52 0 6.28318530717959
2  143 22 42 0 6.28318530717959
2  144 24 0 0 6.28318530717959
2  145 9 0 0 6.28318530717959
2  146 6 13 0 6.28318530717959
0

0101100
+108 0 -108 0 *
Wi

0101100
-107 0 *
Fa
0  1e-07 9 0

0101000
+134 0 +131 0 +118 0 +115 0 +112 0 +109 0 +106 0 *
Ve
1.0000000116861e-07
9 7 0
0 0

0101101
*
Ed
 1e-07 1 1 0
1  42 0 6.49133811936982 9
2  147 10 0 6.49133811936982 9
2  148 33 0 6.49133811936982 9
2  149 11 58 6.49133811936982 9
0

0101000
+202 58 -104 0 *
Ed
 1e-07 1 1 0
1  43 0 0 17.8
2  150 34 0 0 17.8
2  151 10 0 0 17.8
2  152 35 61 0 17.8
2  153 26 58 0 17.8
0

0101000
+104 0 -144 58 *
Wi

0101100
-103 17 -102 17 -143 0 -201 0 *
Fa
0  1e-07 10 17

0101000
+101 0 *
Ve
1.0000000116861e-07
9 0 0
0 0

0101101
*
Ed
 1e-07 1 1 0
1  44 0 0 3.14159265358979
2  154 26 0 0 3.14159265358979
2  155 11 0 0 3.14159265358979
0

0101000
+99 17 -104 17 *
Ed
 1e-07 1 1 0
1  45 0 6.49133811936982 9
2  156 12 0 6.49133811936982 9
2  157 33 0 6.49133811936982 9
2  158 11 58 6.49133811936982 9
0

0101000
+200 58 -99 0 *
Wi

0101100
-199 0 -103 17 +98 0 +97 17 *
Ve
1.0000000041638e-07
-21.05 -4.163799117101e-16 -14.3
0 0

0101101
*
Ed
 1e-07 1 1 0
1  46 0 0 6.28318530717959
2  159 11 0 0 6.28318530717959
2  160 23 47 0 6.28318530717959
0

0101100
+95 0 -95 0 *
Wi

0101100
-94 0 *
Fa
0  1e-07 11 0

0101000
+96 0 +93 0 *
Ed
 1e-07 1 1 0
1  47 0 0 17.8
2  161 34 0 0 17.8
2  162 12 0 0 17.8
2  163 35 61 0 17.8
2  164 26 58 0 17.8
0

0101000
+99 0 -140 58 *
Wi

0101100
-97 17 -91 17 -136 0 -197 0 *
Fa
0  1e-07 12 17

0101000
+90 0 *
Ve
1.0000000116861e-07
0 0 0
0 0

0101101
*
Ed
 1e-07 1 1 0
1  48 0 0 2.50866188063018
2  165 13 0 0 2.50866188063018
2  166 36 0 0 2.50866188063018
2  167 14 62 0 2.50866188063018
0

0101000
+88 0 -194 62 *
Ed
 1e-07 1 1 0
1  49 0 0 17.8
2  168 37 0 0 17.8
2  169 13 0 0 17.8
2  170 27 63 0 17.8
0

0101000
+88 0 -138 62 *
Wi

0101100
-87 20 +193 0 -135 0 +86 20 *
Fa
0  1e-07 13 20

0101000
+85 0 *
Ve
1.0000000116861e-07
0 7 0
0 0

0101101
*
Ve
1.00000012434498e-07
25.2586618806302 3.5 -14.3
0 0

0101101
*
Ed
 1e-07 1 1 0
1  50 0 0 2.50866188063018
2  171 25 0 0 2.50866188063018
2  172 36 0 0 2.50866188063018
2  173 14 62 0 2.50866188063018
0

0101000
+83 0 -82 62 *
Ed
 1e-07 1 1 0
1  51 0 6.14549575487536 6.28318530717959
2  174 14 0 6.14549575487536 6.28318530717959
2  175 4 2 6.14549575487536 6.28318530717959
2  176 1 0 6.14549575487536 6.28318530717959
0

0101000
+82 0 -192 0 *
Ed
 1e-07 1 1 0
1  52 0 1.5707963267949 4.71238898038469
2  177 27 0 1.5707963267949 4.71238898038469
2  178 38 0 1.5707963267949 4.71238898038469
2  179 14 64 1.5707963267949 4.71238898038469
0

0101000
+83 65 -88 65 *
Wi

0101100
-81 20 -80 0 -191 0 +87 20 +79 50 *
Ve
1.0000000041638e-07
24.45 -4.163799117101e-16 -14.3
0 0

0101101
*
Ed
 1e-07 1 1 0
1  53 0 0 6.28318530717959
2  180 14 0 0 6.28318530717959
2  181 39 68 0 6.28318530717959
0

0101100
+77 0 -77 0 *
Wi

0101100
-76 0 *
Fa
0  1e-07 14 0

0101000
+78 0 +75 0 *
Ve
1.00000231989755e-07
17.8499999999999 18.2106424927845 -19.8
0 0

0101101
*
Ed
 1e-07 1 1 0
1  3 0 0 0.795398830184152
2  8 4 8 0 0.795398830184152
2  9 4 10 0 0.795398830184152
2  10 6 0 0 0.795398830184152
2  182 15 24 0 0.795398830184152
2  183 1 12 0 0.795398830184152
0

0101000
+190 0 -73 12 *
Ed
 1e-07 1 1 0
1  54 0 -23.3 -5.5
2  184 25 20 -23.3 -5.5
2  185 4 2 -23.3 -5.5
2  186 1 0 -23.3 -5.5
0

0101000
+146 0 -82 0 *
Ed
 1e-07 1 1 0
1  55 0 -19.8 0
2  187 16 25 -19.8 0
2  188 4 2 -19.8 0
2  189 1 0 -19.8 0
0

0101000
+182 0 -73 0 *
Wi

0101100
-72 7 +189 2 -80 0 -71 0 +145 13 +150 0 +70 0 *
Fa
0  0 1 0

0101000
+69 0 *
Ed
 1e-07 1 1 0
1  56 0 7.28935750721553 43.7106424927845
2  190 16 0 7.28935750721553 43.7106424927845
2  191 15 0 7.28935750721553 43.7106424927845
2  192 6 69 7.28935750721553 43.7106424927845
0

0101000
+188 70 -73 70 *
Wi

0101100
-67 25 +72 7 +187 7 *
Ve
1.0000000041638e-07
24.45 -4.163799117101e-16 -19.8
0 0

0101101
*
Ed
 1e-07 1 1 0
1  57 0 0 6.28318530717959
2  193 15 25 0 6.28318530717959
2  194 39 68 0 6.28318530717959
2  195 6 7 0 6.28318530717959
0

0101100
+65 0 -65 0 *
Wi

0101100
-64 0 *
Fa
0  1e-07 15 25

0101000
+66 0 +63 0 *
Wi

0101100
-180 0 -70 0 +67 25 +186 0 *
Fa
0  1e-07 16 25

0101000
+61 0 *
Ed
 1e-07 1 1 0
1  58 0 5.25 8.75
3  196 197CN 17 0 5.25 8.75
0

0101000
+178 71 -133 71 *
Wi

0101100
-132 0 +59 28 +177 0 -59 28 *
Fa
0  1e-07 17 28

0101000
+58 0 *
Ve
1.00000035749181e-07
1.78974180934487 -18.5 2
0 0

0101101
*
Ed
 1e-07 1 1 0
1  59 0 7.25 8.75
2  198 32 56 7.25 8.75
2  199 18 32 7.25 8.75
0

0101000
+56 0 -121 0 *
Ve
1.00000028421709e-07
2.5 -22.3836781986387 2
0 0

0101101
*
Ed
 1e-07 1 1 0
1  60 0 3.66587436934737 5.80651216287314
2  200 40 56 3.66587436934737 5.80651216287314
2  201 18 32 3.66587436934737 5.80651216287314
0

0101000
+56 0 -54 0 *
Ed
 1e-07 1 1 0
1  61 0 7.25 8.75
2  202 31 56 7.25 8.75
2  203 18 32 7.25 8.75
0

0101000
+54 0 -125 0 *
Ed
 1e-07 1 1 0
1  62 0 5.25 8.75
3  204 205CN 18 0 5.25 8.75
0

0101000
+175 72 -123 72 *
Wi

0101100
-120 0 +55 0 -53 0 -52 0 -122 0 +51 32 +174 0 -51 32 *
Fa
0  1e-07 18 32

0101000
+50 0 *
Ed
 1e-07 1 1 0
1  63 0 5.25 8.75
3  206 207CN 19 0 5.25 8.75
0

0101000
+172 73 -117 73 *
Wi

0101100
-116 0 +48 35 +171 0 -48 35 *
Fa
0  1e-07 19 35

0101000
+47 0 *
Ed
 1e-07 1 1 0
1  64 0 5.25 8.75
3  208 209CN 20 0 5.25 8.75
0

0101000
+169 74 -114 74 *
Wi

0101100
-113 0 +45 38 +168 0 -45 38 *
Fa
0  1e-07 20 38

0101000
+44 0 *
Ed
 1e-07 1 1 0
1  65 0 5.25 8.75
3  210 211CN 21 0 5.25 8.75
0

0101000
+166 75 -111 75 *
Wi

0101100
-110 0 +42 39 +165 0 -42 39 *
Fa
0  1e-07 21 39

0101000
+41 0 *
Ed
 1e-07 1 1 0
1  66 0 5.25 8.75
3  212 213CN 22 0 5.25 8.75
0

0101000
+163 76 -108 76 *
Wi

0101100
-107 0 +39 42 +162 0 -39 42 *
Fa
0  1e-07 22 42

0101000
+38 0 *
Ed
 1e-07 1 1 0
1  67 0 5.5 11
3  214 215CN 23 0 5.5 11
0

0101000
+155 77 -95 77 *
Wi

0101100
-94 0 +36 47 +154 0 -36 47 *
Fa
0  1e-07 23 47

0101000
+35 0 *
Ed
 1e-07 1 1 0
1  68 0 0 17.8
2  216 37 0 0 17.8
2  217 25 0 0 17.8
2  218 27 63 0 17.8
0

0101000
+83 0 -142 62 *
Wi

0101100
-81 20 +71 0 -141 0 +33 20 *
Fa
0  1e-07 25 20

0101000
+32 0 *
Wi

0101100
-91 17 -139 0 +102 17 +98 0 *
Fa
0  1e-07 26 0

0101000
+30 0 *
Wi

0101100
-137 0 +86 20 +79 50 -33 20 *
Fa
0  1e-07 27 50

0101000
+28 0 *
Ve
1e-07
4 0 0
0 0

0101101
*
Ve
1e-07
0 0 0
0 0

0101101
*
Ed
 1e-07 1 1 0
1  69 0 0 4
2  219 28 0 0 4
2  220 40 0 0 4
0

0101000
-26 0 +25 0 *
Ed
 1e-07 1 1 0
1  70 0 0 1.5
2  221 30 0 0 1.5
2  222 28 0 0 1.5
0

0101000
-130 0 +26 0 *
Ed
 1e-07 1 1 0
1  71 0 0 1.5
2  223 32 0 0 1.5
2  224 28 0 0 1.5
0

0101000
-129 0 +25 0 *
Wi

0101100
-24 0 -23 0 +128 0 +22 0 *
Fa
0  1e-07 28 0

0111000
+21 0 *
Ve
1e-07
4 5 0
0 0

0101101
*
Ed
 1e-07 1 1 0
1  72 0 0 1.5
2  225 30 0 0 1.5
2  226 31 0 0 1.5
0

0101000
-127 0 +19 0 *
Ed
 1e-07 1 1 0
1  73 0 0 5
2  227 30 0 0 5
2  228 40 0 0 5
0

0101000
-19 0 +26 0 *
Wi

0101100
-23 0 -126 0 +18 0 +17 0 *
Fa
0  1e-07 30 0

0111000
+16 0 *
Ed
 1e-07 1 1 0
1  74 0 3.88367819863873 4
2  229 31 0 3.88367819863873 4
2  230 40 0 3.88367819863873 4
0

0101000
+54 57 -19 0 *
Wi

0101100
-14 56 -18 56 +124 56 +52 0 *
Fa
0  1e-07 31 56

0101000
+13 0 *
Ed
 1e-07 1 1 0
1  75 0 0 4.28974180934487
2  231 32 0 0 4.28974180934487
2  232 40 0 0 4.28974180934487
0

0101000
+25 0 -56 57 *
Wi

0101100
-119 56 +55 0 +11 56 -22 56 *
Fa
0  1e-07 32 56

0101000
+10 0 *
Ed
 1e-07 1 1 0
1  76 0 5.5 11
3  233 234CN 39 0 5.5 11
0

0101000
+65 78 -77 78 *
Wi

0101100
-76 0 +8 68 +64 0 -8 68 *
Fa
0  1e-07 39 68

0101000
+7 0 *
Wi

0101100
-11 56 -53 0 -14 56 +17 56 +24 56 *
Fa
0  1e-07 40 56

0101000
+5 0 *
Sh

0101100
-184 0 -160 0 +157 0 -152 0 -147 0 +105 0 -100 0 +92 0 +89 0 +84 0 
+74 0 -68 0 -62 0 -60 0 -57 0 -49 0 -46 0 -43 0 -40 0 -37 0 
-34 0 -31 0 -29 0 -27 0 +20 56 -15 56 -12 0 +9 0 -6 0 +4 0 
*
So

0100000
+3 0 *
Co

1100000
+2 0 *

+1 0 