DBRep_DrawableShape

CASCADE Topology V3, (c) Open Cascade
Locations 76
1
              1               0               0              -0 
              0               1               0              -0 
              0               0               1           -1.25 
1
              1               0               0               0 
              0               1               0               0 
              0               0               1            1.25 
2  1 1 2 1 0
2  2 -1 1 -1 0
1
              1               0               0            -1.5 
              0               1               0              -8 
              0               0               1             -10 
1
              1               0               0           19.35 
              0               1               0               0 
              0               0               1             -10 
2  5 1 6 1 2 -1 1 -1 0
1
              1               0               0            -1.5 
              0               1               0              -8 
              0               0               1             -10 
1
              1               0               0          -19.35 
              0               1               0               0 
              0               0               1             -10 
2  8 1 9 1 2 -1 1 -1 0
2  5 1 6 1 0
2  1 1 2 1 6 -1 5 -1 0
2  6 -1 5 -1 0
2  8 1 9 1 0
2  9 -1 8 -1 0
2  1 1 2 1 9 -1 8 -1 0
1
              1               0               0              -0 
              0               1               0              -0 
              0               0               1           -3.75 
1
              1               0               0             -13 
              0               1               0             -13 
              0               0               1               0 
2  17 1 18 1 0
1
              1               0               0              -0 
              0               1               0              -0 
              0               0               1           -3.75 
1
              1               0               0              13 
              0               1               0             -13 
              0               0               1               0 
2  20 1 21 1 0
1
              1               0               0              -0 
              0               1               0              -0 
              0               0               1           -3.75 
1
              1               0               0             -13 
              0               1               0              13 
              0               0               1               0 
2  23 1 24 1 0
1
              1               0               0              -0 
              0               1               0              -0 
              0               0               1           -3.75 
1
              1               0               0              -0 
              0               1               0              -0 
              0               0               1           -3.75 
1
              1               0               0              13 
              0               1               0              13 
              0               0               1               0 
2  27 1 28 1 0
1
              1               0               0              -0 
              0               1               0              -0 
              0               0               1           -0.75 
1
              1               0               0          -5.105 
              0               1               0          -13.97 
              0               0               1            3.25 
2  30 1 31 1 0
2  1 1 2 1 31 -1 30 -1 0
1
              1               0               0              -0 
              0               1               0              -0 
              0               0               1           -0.75 
1
              1               0               0           5.105 
              0               1               0          -13.97 
              0               0               1            3.25 
2  34 1 35 1 0
2  1 1 2 1 35 -1 34 -1 0
1
              1               0               0               0 
              0               1               0               0 
              0               0               1               6 
1
              1               0               0           21.35 
              0               1               0               0 
              0               0               1             -20 
2  38 1 39 1 0
2  38 -1 0
2  39 -1 38 -1 0
1
              1               0               0              -0 
              0               1               0              -0 
              0               0               1               0 
2  39 -1 0
2  39 1 6 -1 5 -1 0
1
              1               0               0          -21.35 
              0               1               0               0 
              0               0               1             -20 
2  46 -1 0
1
              1               0               0               0 
              0               1               0               0 
              0               0               1               6 
1
              1               0               0              -0 
              0               1               0              -0 
              0               0               1               0 
2  48 1 46 1 0
2  48 -1 0
2  46 -1 48 -1 0
2  46 1 9 -1 8 -1 0
2  18 -1 17 -1 0
2  21 -1 20 -1 0
2  24 -1 23 -1 0
2  26 -1 0
2  28 -1 27 -1 0
1
              1               0               0              -0 
              0               1               0              -0 
              0               0               1           -1.75 
1
              1               0               0           22.85 
              0               1               0               0 
              0               0               1          -18.25 
2  59 1 60 1 0
2  39 1 60 -1 59 -1 0
2  60 -1 59 -1 0
1
              1               0               0              -0 
              0               1               0              -0 
              0               0               1           -1.75 
1
              1               0               0          -5.105 
              0               1               0          -13.97 
              0               0               1            2.25 
2  64 1 65 1 0
2  30 1 31 1 65 -1 64 -1 0
1
              1               0               0              -0 
              0               1               0              -0 
              0               0               1           -1.75 
1
              1               0               0           5.105 
              0               1               0          -13.97 
              0               0               1            2.25 
2  68 1 69 1 0
2  34 1 35 1 69 -1 68 -1 0
1
              1               0               0              -0 
              0               1               0              -0 
              0               0               1           -1.75 
1
              1               0               0          -22.85 
              0               1               0               0 
              0               0               1          -18.25 
2  72 1 73 1 0
2  65 -1 64 -1 0
2  69 -1 68 -1 0
Curve2ds 219
1 6.2831853071795862 -0 0 1 
1 0 -0 0 1 
1 0 0 1 0 
2 0 0 1 0 -0 1 21.5
2 -17.850000000000001 8 1 0 -0 1 21.5
2 20.850000000000001 8 1 0 -0 1 21.5
2 20.850000000000001 8 1 0 -0 1 21.5
2 -17.850000000000001 8 1 0 -0 1 21.5
1 0 2.5 1 0 
2 0 0 1 0 -0 1 21.5
1 20 0 0 -1 
1 3 0 0 1 
1 20.850000000000001 -8 0 1 
1 20 0 0 1 
1 0 0 1 0 
1 20 0 0 1 
1 20 0 0 1 
1 0 16 1 0 
1 20 0 0 1 
1 17.850000000000001 8 1 0 
1 20 0 0 -1 
1 0 0 0 1 
1 20 0 0 -1 
1 17.850000000000001 -8 0 1 
1 17.850000000000001 -8 1 0 
1 20 0 0 1 
1 0 0 1 0 
1 20 0 0 1 
1 -20.850000000000001 -8 1 0 
1 20 0 0 -1 
1 3 0 0 1 
1 20 0 0 -1 
1 -17.850000000000001 -8 0 1 
1 20 0 0 1 
1 0 16 1 0 
1 20 0 0 1 
1 -20.850000000000001 8 1 0 
2 -13 -13 1 0 -0 1 1.7
1 0 3.75 1 0 
2 13 -13 1 0 -0 1 1.7
1 0 3.75 1 0 
2 -13 13 1 0 -0 1 1.7
1 0 3.75 1 0 
2 0 0 1 0 -0 1 11.300000000000001
1 0 3.75 1 0 
2 13 13 1 0 -0 1 1.7
1 0 3.75 1 0 
1 20 0 0 -1 
1 0 0 0 1 
1 -20.850000000000001 -8 0 1 
2 -13 -13 1 0 -0 1 1.7
1 0 6.25 1 0 
1 0 0 1 0 
2 0 0 1 0 -0 1 2.5
2 -5.1050000000000004 -13.969999999999999 1 0 -0 1 2.5
1 0 0 1 0 
2 0 0 1 0 -0 1 2.5
2 5.1050000000000004 -13.969999999999999 1 0 -0 1 2.5
2 13 -13 1 0 -0 1 1.7
1 0 6.25 1 0 
2 -13 13 1 0 -0 1 1.7
1 0 6.25 1 0 
2 0 0 1 0 -0 1 11.300000000000001
1 0 6.25 1 0 
2 13 13 1 0 -0 1 1.7
1 0 6.25 1 0 
1 0 0 1 0 
1 0 3 1 0 
1 0 3 1 0 
1 0 -16 1 0 
1 0 3 1 0 
1 0 3 1 0 
8 -12 4
1 6 -4 0 1 
8 -12 4
1 -0.5 -4 0 -1 
1 0 0 0 1 
1 0 0 1 0 
1 0 0 1 0 
1 0 -8 1 0 
1 3.5 0 1 0 
1 3.5 -6 1 0 
1 6 3.5 0 1 
1 0 -8 1 0 
1 5 0 0 -1 
1 0 5 1 0 
1 20 -16 -1 0 
1 20 0 -1 0 
1 0 8 1 0 
1 3.5 0 1 0 
1 3.5 -6 1 0 
1 6 3.5 0 1 
1 0 8 1 0 
1 5 0 0 -1 
1 0 5 1 0 
1 0 5 0 -1 
1 0 0 0 -1 
1 0 0 0 1 
1 -3.5 -8 0 1 
1 0 0 0 -1 
1 0 -2 0 1 
1 0 0 0 -1 
1 0 -2 1 0 
1 0 -8 1 0 
1 0 -8 1 0 
1 1.5 0 1 0 
1 1.5 -6 1 0 
1 6 -0.5 0 1 
1 0 0 1 0 
1 0 0 1 0 
1 0 0 1 0 
1 0 3 1 0 
1 0 0 1 0 
1 0 0 0 -1 
1 3 0 0 1 
1 3.5 -8 0 1 
1 0 0 0 -1 
1 0 -16 1 0 
1 0 3 1 0 
1 0 -2 0 1 
1 0 0 0 -1 
1 0 -2 1 0 
1 0 8 1 0 
1 0 8 1 0 
1 1.5 0 1 0 
1 1.5 -6 1 0 
1 6 -0.5 0 1 
1 0 -16 1 0 
1 0 0 1 0 
1 0 0 1 0 
1 6.2831853071795862 -0 0 1 
1 0 -0 0 1 
1 6.2831853071795862 -0 0 1 
1 0 -0 0 1 
1 6.2831853071795862 -0 0 1 
1 0 -0 0 1 
1 6.2831853071795862 -0 0 1 
1 0 -0 0 1 
1 6.2831853071795862 -0 0 1 
1 0 -0 0 1 
8 -12 4
1 6 -4 0 1 
8 -12 4
1 0.5 -4 0 -1 
1 0 1.5 1 0 
2 0 0 1 0 -0 1 2.5
1 6.2831853071795862 -0 0 1 
1 0 -0 0 1 
1 0 1.5 1 0 
2 0 0 1 0 -0 1 2.5
1 6.2831853071795862 -0 0 1 
1 0 -0 0 1 
1 3.5 6 -0.70710678118654757 0.70710678118654757 
1 6 0 1 0 
1 6 -6 1 0 
1 3.5 0 0 1 
1 3.5 0 0 1 
1 1.5 -8 0.70710678118654757 0.70710678118654757 
1 0 0 1 0 
2 0 0 1 0 -0 1 2.1000000000000001
2 1.5 0 1 0 -0 1 2.1000000000000001
1 0 0 0 -1 
1 3 0 0 1 
1 0 0 0 -1 
1 12 0 0 -1 
1 -3.5 6 0.70710678118654757 0.70710678118654757 
1 -3.5 0 0 1 
1 6 0 1 0 
1 6 -6 1 0 
1 3.4514372933314132 0 1 0 
2 -1.5 0 -0.95238095238095444 -0.30491067797298649 0.30491067797298649 -0.95238095238095444 2.1000000000000001
1 0 0 0 -1 
1 0 0 0 1 
1 -3.5 0 0 1 
1 -3.5 -6 0.70710678118654757 -0.70710678118654757 
1 0 0 0 -1 
1 12 0 0 -1 
1 0 3.5 1 0 
2 0 0 1 0 -0 1 0.80000000000000004
2 0 0 1 0 -0 1 0.80000000000000004
1 0 3.5 1 0 
2 0 0 1 0 -0 1 0.80000000000000004
2 0 0 1 0 -0 1 0.80000000000000004
8 -5.999999999062311e-07 3.5000005999999999
1 5.3596875762567144 0 0 -1 
8 -5.999999999062311e-07 3.5000005999999999
1 5.9733406674379594 0 0 1 
8 0.89999999999999991 5.0999999999999996
1 3 -3.5 1 0 
8 0.89999999999999991 5.0999999999999996
1 2 -3 0 1 
8 -5.999999999062311e-07 3.5000005999999999
1 6.6403124237432856 0 0 -1 
8 -5.999999999062311e-07 3.5000005999999999
1 0.30984463974162707 0 0 1 
1 0 3.5 1 0 
2 0 0 1 0 -0 1 2.1000000000000001
8 -2.3999999996249244e-06 3.5000023999999996
1 0 -7.3596875762567144 1 0 
8 -2.3999999996249244e-06 3.5000023999999996
1 3.4514372933314199 0 0 1 
8 -6.0999999999999996 -1.8999999999999999
1 3.5 -4 0 1 
8 -6.0999999999999996 -1.8999999999999999
1 -2 -4 0 -1 
8 -2.3999999996249244e-06 3.5000023999999996
1 0 -8.6403124237432856 1 0 
8 -2.3999999996249244e-06 3.5000023999999996
1 2.8317480138481663 0 0 1 
8 -5.999999999062311e-07 3.5000005999999999
1 5.3596875762567144 0 0 -1 
8 -5.999999999062311e-07 3.5000005999999999
1 3.4514372933314199 0 0 1 
8 0 3.5
1 3.4514372933314199 0 0 1 
8 0.89999999999999991 5.0999999999999996
1 3 -3.5 1 0 
8 0.89999999999999991 5.0999999999999996
1 -2 -3 0 1 
8 -5.999999999062311e-07 3.5000005999999999
1 6.6403124237432856 0 0 -1 
8 -5.999999999062311e-07 3.5000005999999999
1 2.8317480138481663 0 0 1 
8 0 3.5
1 9.1149333210277526 0 0 1 
8 -2.3999999996249244e-06 3.5000023999999996
1 0 -8.6403124237432856 1 0 
8 -2.3999999996249244e-06 3.5000023999999996
1 6.593029946921213 0 0 1 
1 3.4514372933314204 3.5 1 0 
2 0 0 -0.95238095238095233 -0.30491067797299293 0.30491067797299293 -0.95238095238095233 2.1000000000000001
8 -2.3999999996249244e-06 3.5000023999999996
1 0 -7.3596875762567144 1 0 
8 -2.3999999996249244e-06 3.5000023999999996
1 5.9733406674379594 0 0 1 
8 -6.0999999999999996 -1.8999999999999999
1 3.5 -4 0 1 
8 -6.0999999999999996 -1.8999999999999999
1 2 -4 0 -1 
1 6.2831853071795862 -0 0 1 
1 0 -0 0 1 
2 0 0 1 0 -0 1 0.80000000000000004
1 0 2 1 0 
2 -5.1050000000000004 -13.969999999999999 1 0 -0 1 0.79999999999999982
1 6.2831853071795862 -0 0 1 
1 0 -0 0 1 
2 0 0 1 0 -0 1 0.80000000000000004
1 0 2 1 0 
2 5.1050000000000004 -13.969999999999999 1 0 -0 1 0.79999999999999982
Curves 96
1 21.5 -5.2659812363336185e-15 0 0 0 1 
2 0 0 0 0 0 1 1 0 -0 -0 1 0 21.5
2 0 0 2.5 0 0 1 1 0 -0 -0 1 0 21.5
1 3 0 20 -0 1 0 
1 0 0 20 1 0 -0 
1 0 16 20 1 0 -0 
1 0 0 20 -0 1 0 
1 0 0 20 1 0 -0 
1 3 0 20 -0 1 0 
1 0 16 20 1 0 -0 
2 -13 -13 0 0 0 1 1 0 -0 -0 1 0 1.7
2 13 -13 0 0 0 1 1 0 -0 -0 1 0 1.7
2 -13 13 0 0 0 1 1 0 -0 -0 1 0 1.7
2 0 0 0 0 0 1 1 0 -0 -0 1 0 11.300000000000001
2 13 13 0 0 0 1 1 0 -0 -0 1 0 1.7
1 0 0 20 -0 1 0 
2 -13 -13 2.5 0 0 1 1 0 -0 -0 1 0 1.7
2 0 0 0 0 0 1 1 0 -0 -0 1 0 2.5
2 0 0 0 0 0 1 1 0 -0 -0 1 0 2.5
2 13 -13 2.5 0 0 1 1 0 -0 -0 1 0 1.7
2 -13 13 2.5 0 0 1 1 0 -0 -0 1 0 1.7
2 0 0 2.5 0 0 1 1 0 -0 -0 1 0 11.300000000000001
2 13 13 2.5 0 0 1 1 0 -0 -0 1 0 1.7
1 3 0 0 0 0 1 
1 3 16 0 0 0 1 
1 20.850000000000001 -4 -14 0 -1 0 
8 0 5
1 17.850000000000001 -8 -20 1 0 0 
8 0 20
1 17.850000000000001 -8 -20 0 0 1 
1 0 -8 0 1 0 -0 
1 0 -8 0 1 0 -0 
1 1.5 -8 0 0 0 1 
8 0 20
1 17.850000000000001 8 0 0 0 -1 
1 0 8 0 1 0 -0 
1 0 8 0 1 0 -0 
1 1.5 8 0 0 0 1 
8 0 5
1 22.850000000000001 8 -20 -1 0 0 
1 0 0 0 -0 1 0 
8 0 5
1 -22.850000000000001 -8 -20 1 0 0 
1 -1.5 -8 0 0 0 1 
1 0 -8 0 1 0 -0 
1 0 -8 0 1 0 -0 
1 0 0 0 0 0 1 
8 0 20
1 -17.850000000000001 -8 -20 0 0 1 
1 3 0 0 -0 1 0 
8 0 20
1 -17.850000000000001 8 -20 0 0 1 
8 0 5
1 -22.850000000000001 8 -20 1 0 0 
1 -1.5 8 0 0 0 1 
1 0 8 0 1 0 -0 
1 0 8 0 1 0 -0 
1 0 16 0 0 0 1 
1 1.7 -4.1637991171010006e-16 0 0 0 1 
1 1.7 -4.1637991171010006e-16 0 0 0 1 
1 1.7 -4.1637991171010006e-16 0 0 0 1 
1 11.300000000000001 -2.7677017660730185e-15 0 0 0 1 
1 1.7 -4.1637991171010006e-16 0 0 0 1 
1 -20.850000000000001 -4 -14 0 -1 0 
2 0 0 1.5 0 0 1 1 0 -0 -0 1 0 2.5
1 2.5 -6.1232339957367663e-16 0 0 0 1 
2 0 0 1.5 0 0 1 1 0 -0 -0 1 0 2.5
1 2.5 -6.1232339957367663e-16 0 0 0 1 
1 3.5 6 0 -0.70710678118654746 0.70710678118654746 0 
1 3.5 0 0 -0 1 0 
1 3.5 0 0 -0 1 0 
1 1.5 -8 0 0.70710678118654746 0.70710678118654746 0 
2 0 0 0 0 0 1 1 0 -0 -0 1 0 2.1000000000000001
1 3 0 0 -0 1 0 
1 3.5 -6 0 0 0 1 
1 3.5 6 0 0 0 1 
1 -3.5 6 0 0.70710678118654746 0.70710678118654746 0 
1 -3.5 0 0 -0 1 0 
8 0 5.6634960276963469
2 -22.850000000000001 0 -20 0 0 1 -0.95238095238095444 -0.30491067797298649 0 0.30491067797298649 -0.95238095238095444 0 2.1000000000000001
1 0 0 0 -0 1 0 
1 -3.5 0 0 -0 1 0 
1 -3.5 -6 0 0.70710678118654746 -0.70710678118654746 0 
1 -3.5 -6 0 0 0 1 
1 -3.5 6 0 0 0 1 
2 0 0 3.5 0 0 1 1 0 -0 -0 1 0 0.80000000000000004
2 0 0 3.5 0 0 1 1 0 -0 -0 1 0 0.80000000000000004
1 24.850000000000001 -0.64031242374328512 -20 0 0 1 
1 24.850000000000001 -3 -16.5 -0 1 0 
1 24.850000000000001 0.64031242374328512 -20 0 0 1 
2 0 0 3.5 0 0 1 1 0 -0 -0 1 0 2.1000000000000001
1 20.850000000000001 -0.64031242374328512 -20 0 0 1 
1 20.850000000000001 -4 -16.5 0 -1 0 
1 20.850000000000001 0.64031242374328512 -20 0 0 1 
1 -24.850000000000001 -0.64031242374328512 -20 0 0 1 
1 -24.850000000000001 -3 -16.5 -0 1 0 
1 -24.850000000000001 0.64031242374328512 -20 0 0 1 
1 -20.850000000000001 0.64031242374328512 -20 0 0 1 
8 0 5.6634960276963318
2 -22.850000000000001 0 -16.5 0 0 1 -0.95238095238095233 -0.30491067797299293 0 0.30491067797299293 -0.95238095238095233 0 2.1000000000000001
1 -20.850000000000001 -0.64031242374328512 -20 0 0 1 
1 -20.850000000000001 -4 -16.5 0 -1 0 
1 0.80000000000000004 -1.9594348786357652e-16 0 0 0 1 
2 -5.1050000000000004 -13.969999999999999 2.5 0 0 1 1 0 -0 -0 1 0 0.80000000000000004
1 0.80000000000000004 -1.9594348786357652e-16 0 0 0 1 
2 5.1050000000000004 -13.969999999999999 2.5 0 0 1 1 0 -0 -0 1 0 0.80000000000000004
Polygon3D 0
PolygonOnTriangulations 0
Surfaces 58
2 0 0 0 0 0 1 1 0 -0 -0 1 0 21.5
1 0 0 0 0 0 1 1 0 -0 -0 1 0 
1 0 0 20 0 0 1 1 0 -0 -0 1 0 
1 0 0 20 0 0 1 1 0 -0 -0 1 0 
1 0 0 2.5 0 0 1 1 0 -0 -0 1 0 
1 3 0 0 1 0 -0 0 0 1 0 -1 0 
1 0 0 0 -0 1 0 0 0 1 1 0 -0 
1 17.850000000000001 -8 -20 -0 1 0 0 0 1 1 0 -0 
1 0 16 0 -0 1 0 0 0 1 1 0 -0 
1 17.850000000000001 8 -20 -0 1 0 0 0 1 1 0 -0 
1 0 0 0 1 0 -0 0 0 1 0 -1 0 
1 17.850000000000001 -8 -20 1 0 -0 0 0 1 0 -1 0 
1 0 0 0 -0 1 0 0 0 1 1 0 -0 
1 -20.850000000000001 -8 -20 -0 1 0 0 0 1 1 0 -0 
1 3 0 0 1 0 -0 0 0 1 0 -1 0 
1 -17.850000000000001 -8 -20 1 0 -0 0 0 1 0 -1 0 
1 0 16 0 -0 1 0 0 0 1 1 0 -0 
1 -20.850000000000001 8 -20 -0 1 0 0 0 1 1 0 -0 
2 0 0 0 0 0 1 1 0 -0 -0 1 0 1.7
2 0 0 0 0 0 1 1 0 -0 -0 1 0 1.7
2 0 0 0 0 0 1 1 0 -0 -0 1 0 1.7
2 0 0 0 0 0 1 1 0 -0 -0 1 0 11.300000000000001
2 0 0 0 0 0 1 1 0 -0 -0 1 0 1.7
1 0 0 0 1 0 -0 0 0 1 0 -1 0 
2 0 0 0 0 0 1 1 0 -0 -0 1 0 2.5
1 0 0 0 0 0 1 1 0 -0 -0 1 0 
2 0 0 0 0 0 1 1 0 -0 -0 1 0 2.5
1 0 0 0 0 0 1 1 0 -0 -0 1 0 
1 0 0 0 0 0 1 1 0 -0 -0 1 0 
1 -3.5 -8 0 -0 1 0 1 0 -0 -0 0 -1 
1 0 0 0 0 0 1 1 0 -0 -0 1 0 
1 -3.5 8 0 -0 1 0 1 0 -0 -0 0 -1 
1 0 0 0 0 0 1 1 0 -0 -0 1 0 
1 -1.5 -8 0 -0 1 0 1 0 -0 -0 0 -1 
1 0 0 0 0 0 1 1 0 -0 -0 1 0 
1 0 0 0 0 0 1 1 0 -0 -0 1 0 
1 0 0 0 0 0 1 1 0 -0 -0 1 0 
1 -1.5 8 0 -0 1 0 1 0 -0 -0 0 -1 
1 0 0 1.5 0 0 1 1 0 -0 -0 1 0 
1 0 0 1.5 0 0 1 1 0 -0 -0 1 0 
1 3.5 -6 0 -1 -0 0 -0 1 0 -0 0 -1 
1 17.850000000000001 -8 -20 0 0 1 1 0 -0 -0 1 0 
2 0 0 0 0 0 1 1 0 -0 -0 1 0 2.1000000000000001
1 0 0 0 0 0 1 1 0 -0 -0 1 0 
1 1.5 -8 0 -0.70710678118654757 0.70710678118654757 0 0.70710678118654757 0.70710678118654757 0 0 0 -1 
1 3.5 6 0 -0.70710678118654757 -0.70710678118654757 0 -0.70710678118654757 0.70710678118654757 0 -0 0 -1 
1 -20.850000000000001 -8 -20 0 0 1 1 0 -0 -0 1 0 
1 -3.5 -6 0 -1 -0 0 -0 1 0 -0 0 -1 
10 3.1415926535897936 9.4247779607693793 -2e+100 2e+100
2 -22.850000000000001 0 -20 0 0 1 1 0 -0 -0 1 0 2.1000000000000001
1 -3.5 -6 0 0.70710678118654757 0.70710678118654757 -0 0.70710678118654757 -0.70710678118654757 0 0 -0 -1 
1 -3.5 6 0 -0.70710678118654757 0.70710678118654757 0 0.70710678118654757 0.70710678118654757 0 0 0 -1 
2 0 0 0 0 0 1 1 0 -0 -0 1 0 0.80000000000000004
1 0 0 3.5 0 0 1 1 0 -0 -0 1 0 
2 0 0 0 0 0 1 1 0 -0 -0 1 0 0.80000000000000004
1 0 0 3.5 0 0 1 1 0 -0 -0 1 0 
1 0 0 3.5 0 0 1 1 0 -0 -0 1 0 
2 0 0 0 0 0 1 1 0 -0 -0 1 0 2.1000000000000001
1 0 0 3.5 0 0 1 1 0 -0 -0 1 0 
Triangulations 0

TShapes 303
Ve
1e-07
21.5 -5.26598123633362e-15 2.5
0 0

0101101
*
Ve
1e-07
21.5 -5.26598123633362e-15 0
0 0

0101101
*
Ed
 1e-07 1 1 0
1  1 0 0 2.5
3  1 2CN 1 0 0 2.5
0

0101000
-303 0 +302 0 *
Ve
1.00000053290705e-07
20.8500000000001 -5.24666560779277 0
0 0

0101101
*
Ed
 1e-07 1 1 0
1  2 0 6.03666499189958 6.28318530717959
2  3 1 0 6.03666499189958 6.28318530717959
2  4 2 0 6.03666499189958 6.28318530717959
0

0101000
+300 4 -302 0 *
Ve
1.00000163424829e-07
19.9562020434752 -7.99999999999984 0
0 0

0101101
*
Ed
 1e-07 1 1 0
1  2 0 5.90192236475335 6.03666499189958
2  3 1 0 5.90192236475335 6.03666499189958
2  4 2 0 5.90192236475335 6.03666499189958
2  5 3 7 5.90192236475335 6.03666499189958
0

0101000
+298 4 -300 4 *
Ve
1.00000037303494e-07
-19.9562020434751 -8.00000000000004 0
0 0

0101101
*
Ed
 1e-07 1 1 0
1  2 0 3.52285559601604 5.90192236475335
2  3 1 0 3.52285559601604 5.90192236475335
2  4 2 0 3.52285559601604 5.90192236475335
0

0101000
+296 4 -298 4 *
Ve
1.00000061181247e-07
-20.8500000000001 -5.24666560779272 0
0 0

0101101
*
Ed
 1e-07 1 1 0
1  2 0 3.38811296886979 3.52285559601604
2  3 1 0 3.38811296886979 3.52285559601604
2  4 2 0 3.38811296886979 3.52285559601604
2  6 4 10 3.38811296886979 3.52285559601604
0

0101000
+294 4 -296 4 *
Ve
1.00000060397765e-07
-20.8500000000001 5.24666560779272 0
0 0

0101101
*
Ed
 1e-07 1 1 0
1  2 0 2.89507233830979 3.38811296886979
2  3 1 0 2.89507233830979 3.38811296886979
2  4 2 0 2.89507233830979 3.38811296886979
0

0101000
+292 4 -294 4 *
Ve
1.0000003907985e-07
-19.9562020434751 8.00000000000004 0
0 0

0101101
*
Ed
 1e-07 1 1 0
1  2 0 2.76032971116354 2.89507233830979
2  3 1 0 2.76032971116354 2.89507233830979
2  4 2 0 2.76032971116354 2.89507233830979
2  7 4 10 2.76032971116354 2.89507233830979
0

0101000
+290 4 -292 4 *
Ve
1.00000179412041e-07
19.9562020434752 7.99999999999982 0
0 0

0101101
*
Ed
 1e-07 1 1 0
1  2 0 0.381262942426237 2.76032971116354
2  3 1 0 0.381262942426237 2.76032971116354
2  4 2 0 0.381262942426237 2.76032971116354
0

0101000
+288 4 -290 4 *
Ve
1.00000056843419e-07
20.8500000000001 5.24666560779276 0
0 0

0101101
*
Ed
 1e-07 1 1 0
1  2 0 0.246520315280003 0.381262942426237
2  3 1 0 0.246520315280003 0.381262942426237
2  4 2 0 0.246520315280003 0.381262942426237
2  8 3 7 0.246520315280003 0.381262942426237
0

0101000
+286 4 -288 4 *
Ed
 1e-07 1 1 0
1  2 0 0 0.246520315280003
2  3 1 0 0 0.246520315280003
2  4 2 0 0 0.246520315280003
0

0101000
+302 0 -286 4 *
Ed
 1e-07 1 1 0
1  3 0 0 6.28318530717959
2  9 1 0 0 6.28318530717959
2  10 5 0 0 6.28318530717959
0

0101000
+303 0 -303 0 *
Wi

0101100
+301 3 +299 3 +297 3 +295 3 +293 3 +291 3 +289 3 +287 3 +285 3 +284 3 
-301 3 -283 3 *
Fa
0  1e-07 1 3

0101000
+282 0 *
Ed
 1e-07 1 1 0
1  4 0 2.75333439220723 13.2466656077928
2  11 6 0 2.75333439220723 13.2466656077928
2  12 3 0 2.75333439220723 13.2466656077928
2  13 2 12 2.75333439220723 13.2466656077928
0

0101000
+300 13 -286 13 *
Wi

0101100
+299 3 -280 11 +284 3 *
Fa
0  1e-07 2 3

0101000
+279 0 *
Ve
1e-07
3 0 20
0 0

0101101
*
Ed
 1e-07 1 1 0
1  4 0 0 2.75333439220723
2  11 6 0 0 2.75333439220723
2  12 3 0 0 2.75333439220723
0

0101000
+277 0 -300 13 *
Ed
 1e-07 1 1 0
1  5 0 2.10620204347524 3
2  14 7 0 2.10620204347524 3
2  15 3 0 2.10620204347524 3
2  16 8 13 2.10620204347524 3
0

0101000
+298 13 -277 0 *
Wi

0101100
-297 3 +276 11 +275 11 *
Fa
0  1e-07 3 11

0101000
+274 0 *
Ve
1e-07
0 16 20
0 0

0101101
*
Ed
 1e-07 1 1 0
1  6 0 0 2.10620204347525
2  17 9 0 0 2.10620204347525
2  18 3 0 0 2.10620204347525
2  19 10 13 0 2.10620204347525
2  20 2 12 0 2.10620204347525
0

0101000
+272 0 -288 13 *
Ve
1e-07
0 0 20
0 0

0101101
*
Ed
 1e-07 1 1 0
1  7 0 0 16
2  21 11 0 0 16
2  22 3 0 0 16
2  23 12 13 0 16
2  24 2 12 0 16
0

0101000
-272 0 +270 0 *
Ed
 1e-07 1 1 0
1  5 0 0 2.10620204347524
2  14 7 0 0 2.10620204347524
2  15 3 0 0 2.10620204347524
2  16 8 13 0 2.10620204347524
2  25 2 12 0 2.10620204347524
0

0101000
+270 0 -298 13 *
Ve
1e-07
3 0 20
0 0

0101101
*
Ed
 1e-07 1 1 0
1  8 0 0.893797956524924 3
2  26 13 0 0.893797956524924 3
2  27 4 0 0.893797956524924 3
2  28 14 15 0.893797956524924 3
2  29 2 16 0.893797956524924 3
0

0101000
+296 15 -267 0 *
Ve
1e-07
3 16 20
0 0

0101101
*
Ed
 1e-07 1 1 0
1  9 0 0 16
2  30 15 0 0 16
2  31 4 0 0 16
2  32 16 15 0 16
2  33 2 16 0 16
0

0101000
-265 0 +267 0 *
Ed
 1e-07 1 1 0
1  10 0 0.893797956524928 3
2  34 17 0 0.893797956524928 3
2  35 4 0 0.893797956524928 3
2  36 18 15 0.893797956524928 3
2  37 2 16 0.893797956524928 3
0

0101000
+290 15 -265 0 *
Wi

0101100
+271 11 +269 11 -268 11 +295 3 -266 14 -264 14 +263 14 +287 3 *
Ve
1e-07
-11.3 -13 0
0 0

0101101
*
Ed
 1e-07 1 1 0
1  11 0 0 6.28318530717959
2  38 2 3 0 6.28318530717959
2  39 19 19 0 6.28318530717959
0

0101100
+261 0 -261 0 *
Wi

0101100
-260 0 *
Ve
1e-07
14.7 -13 0
0 0

0101101
*
Ed
 1e-07 1 1 0
1  12 0 0 6.28318530717959
2  40 2 3 0 6.28318530717959
2  41 20 22 0 6.28318530717959
0

0101100
+258 0 -258 0 *
Wi

0101100
-257 0 *
Ve
1e-07
-11.3 13 0
0 0

0101101
*
Ed
 1e-07 1 1 0
1  13 0 0 6.28318530717959
2  42 2 3 0 6.28318530717959
2  43 21 25 0 6.28318530717959
0

0101100
+255 0 -255 0 *
Wi

0101100
-254 0 *
Ve
1.00000002767702e-07
11.3 -2.76770176607302e-15 0
0 0

0101101
*
Ed
 1e-07 1 1 0
1  14 0 0 6.28318530717959
2  44 2 3 0 6.28318530717959
2  45 22 26 0 6.28318530717959
0

0101100
+252 0 -252 0 *
Wi

0101100
-251 0 *
Ve
1e-07
14.7 13 0
0 0

0101101
*
Ed
 1e-07 1 1 0
1  15 0 0 6.28318530717959
2  46 2 3 0 6.28318530717959
2  47 23 29 0 6.28318530717959
0

0101100
+249 0 -249 0 *
Wi

0101100
-248 0 *
Fa
0  1e-07 2 3

0101000
+262 0 +259 0 +256 0 +253 0 +250 0 +247 0 *
Ve
1e-07
0 0 20
0 0

0101101
*
Ed
 1e-07 1 1 0
1  16 0 0 2.75333439220728
2  48 24 0 0 2.75333439220728
2  49 4 0 0 2.75333439220728
0

0101000
+245 0 -294 15 *
Ed
 1e-07 1 1 0
1  8 0 0 0.893797956524924
2  26 13 0 0 0.893797956524924
2  27 4 0 0 0.893797956524924
2  28 14 15 0 0.893797956524924
0

0101000
+245 0 -296 15 *
Wi

0101100
-244 14 -293 3 +243 14 *
Fa
0  1e-07 4 14

0101000
+242 0 *
Ed
 1e-07 1 1 0
1  16 0 2.75333439220728 13.2466656077927
2  48 24 0 2.75333439220728 13.2466656077927
2  49 4 0 2.75333439220728 13.2466656077927
2  50 2 16 2.75333439220728 13.2466656077927
0

0101000
+294 15 -292 15 *
Wi

0101100
+240 14 +291 3 *
Fa
0  1e-07 2 3

0101000
+239 0 *
Ve
1e-07
0 16 20
0 0

0101101
*
Ed
 1e-07 1 1 0
1  16 0 13.2466656077927 16
2  48 24 0 13.2466656077927 16
2  49 4 0 13.2466656077927 16
0

0101000
+292 15 -237 0 *
Ed
 1e-07 1 1 0
1  10 0 0 0.893797956524928
2  34 17 0 0 0.893797956524928
2  35 4 0 0 0.893797956524928
2  36 18 15 0 0.893797956524928
0

0101000
+237 0 -290 15 *
Wi

0101100
-236 14 -235 14 -289 3 *
Fa
0  1e-07 4 14

0101000
+234 0 *
Ve
1e-07
3 16 20
0 0

0101101
*
Ed
 1e-07 1 1 0
1  6 0 2.10620204347525 3
2  17 9 0 2.10620204347525 3
2  18 3 0 2.10620204347525 3
2  19 10 13 2.10620204347525 3
0

0101000
+288 13 -232 0 *
Ed
 1e-07 1 1 0
1  4 0 13.2466656077928 16
2  11 6 0 13.2466656077928 16
2  12 3 0 13.2466656077928 16
0

0101000
+286 13 -232 0 *
Wi

0101100
-231 11 +230 11 -285 3 *
Fa
0  1e-07 3 11

0101000
+229 0 *
Wi

0101100
+283 3 *
Ve
1e-07
-11.3 -13 2.5
0 0

0101101
*
Ed
 1e-07 1 1 0
1  17 0 0 6.28318530717959
2  51 5 3 0 6.28318530717959
2  52 19 19 0 6.28318530717959
0

0101100
+226 0 -226 0 *
Wi

0101100
-225 0 *
Ve
1e-07
2.5 -6.12323399573677e-16 0
0 0

0101101
*
Ed
 1e-07 1 1 0
1  18 0 0 6.28318530717959
2  53 25 0 0 6.28318530717959
2  54 26 0 0 6.28318530717959
2  55 5 33 0 6.28318530717959
0

0101000
+223 0 -223 0 *
Wi

0101100
-222 32 *
Ve
1e-07
2.5 -6.12323399573677e-16 0
0 0

0101101
*
Ed
 1e-07 1 1 0
1  19 0 0 6.28318530717959
2  56 27 0 0 6.28318530717959
2  57 28 0 0 6.28318530717959
2  58 5 37 0 6.28318530717959
0

0101000
+220 0 -220 0 *
Wi

0101100
-219 36 *
Ve
1e-07
14.7 -13 2.5
0 0

0101101
*
Ed
 1e-07 1 1 0
1  20 0 0 6.28318530717959
2  59 5 3 0 6.28318530717959
2  60 20 22 0 6.28318530717959
0

0101100
+217 0 -217 0 *
Wi

0101100
-216 0 *
Ve
1e-07
-11.3 13 2.5
0 0

0101101
*
Ed
 1e-07 1 1 0
1  21 0 0 6.28318530717959
2  61 5 3 0 6.28318530717959
2  62 21 25 0 6.28318530717959
0

0101100
+214 0 -214 0 *
Wi

0101100
-213 0 *
Ve
1.00000002767702e-07
11.3 -2.76770176607302e-15 2.5
0 0

0101101
*
Ed
 1e-07 1 1 0
1  22 0 0 6.28318530717959
2  63 5 3 0 6.28318530717959
2  64 22 26 0 6.28318530717959
0

0101100
+211 0 -211 0 *
Wi

0101100
-210 0 *
Ve
1e-07
14.7 13 2.5
0 0

0101101
*
Ed
 1e-07 1 1 0
1  23 0 0 6.28318530717959
2  65 5 3 0 6.28318530717959
2  66 23 29 0 6.28318530717959
0

0101100
+208 0 -208 0 *
Wi

0101100
-207 0 *
Fa
0  1e-07 5 3

0101000
+227 0 +224 0 +221 0 +218 0 +215 0 +212 0 +209 0 +206 0 *
Ve
6e-07
20.85 -8 -14
0 0

0101101
*
Ed
 1e-07 1 1 0
1  24 0 6 20
2  67 6 0 6 20
2  68 7 0 6 20
2  69 8 13 6 20
0

0101000
+204 13 -277 0 *
Ve
6e-07
20.85 8 -14
0 0

0101101
*
Ed
 1e-07 1 1 0
1  25 0 6 20
2  70 6 0 6 20
2  71 9 0 6 20
2  72 10 13 6 20
0

0101000
+202 13 -232 0 *
Ed
 6e-07 1 1 0
1  26 0 -12 4
2  73 6 11 -12 4
2  74 29 40 -12 4
0

0101000
+202 0 -204 0 *
Wi

0101100
-203 11 -276 11 -280 11 -230 11 +201 11 -200 0 *
Fa
0  1e-07 6 11

0101000
+199 0 *
Ve
1e-07
17.85 -8 -20
0 0

0101101
*
Ve
1e-07
1.5 -8 0
0 0

0101101
*
Ed
 1e-07 1 1 0
1  27 0 0 5
2  75 8 0 0 5
0

0101000
+197 0 -196 39 *
Ed
 1e-07 1 1 0
1  28 0 0 20
2  76 12 0 0 20
2  77 8 0 0 20
0

0101000
+197 0 -270 11 *
Ve
1e-07
1.5 -8 0
1.5 1 30 43
1.5 2 82 31 43
0 0

0101101
*
Ed
 1e-07 1 1 0
1  29 0 -0.5 1.5
2  78 29 0 -0.5 1.5
2  79 30 0 -0.5 1.5
2  80 30 41 -0.5 1.5
2  81 8 42 -0.5 1.5
0

0101000
+204 42 -193 0 *
Ed
 1e-07 1 1 0
1  31 0 0 6
2  83 30 0 0 6
2  84 8 44 0 6
0

0101000
+196 0 -193 38 *
Wi

0101100
-195 0 +194 0 +268 11 +275 11 -203 11 +192 40 -191 39 *
Fa
0  1e-07 8 0

0101000
+190 0 *
Ve
1e-07
17.85 8 -20
0 0

0101101
*
Ed
 1e-07 1 1 0
1  32 0 0 20
2  85 12 0 0 20
2  86 10 0 0 20
0

0101000
+272 11 -188 0 *
Ve
1e-07
1.5 8 0
1.5 1 34 43
1.5 2 91 31 43
0 0

0101101
*
Ed
 1e-07 1 1 0
1  33 0 -0.5 1.5
2  87 29 0 -0.5 1.5
2  88 32 0 -0.5 1.5
2  89 32 41 -0.5 1.5
2  90 10 42 -0.5 1.5
0

0101000
+202 42 -186 0 *
Ve
1e-07
1.5 8 0
0 0

0101101
*
Ed
 1e-07 1 1 0
1  35 0 0 6
2  92 32 0 0 6
2  93 10 44 0 6
0

0101000
+184 0 -186 38 *
Ed
 1e-07 1 1 0
1  36 0 0 5
2  94 10 0 0 5
0

0101000
+184 39 -188 0 *
Wi

0101100
-187 0 +271 11 +231 11 -201 11 +185 40 -183 39 +182 0 *
Fa
0  1e-07 10 0

0101000
+181 0 *
Ed
 1e-07 1 1 0
1  37 0 0 16
2  95 11 0 0 16
2  96 33 0 0 16
2  97 29 45 0 16
2  98 12 13 0 16
0

0101000
+197 13 -188 13 *
Wi

0101100
-194 0 +179 11 -187 0 -269 11 *
Fa
0  0 12 0

0111000
+178 0 *
Ve
1e-07
-1.5 -8 0
0 0

0101101
*
Ve
1e-07
-17.85 -8 -20
0 0

0101101
*
Ed
 1e-07 1 1 0
1  38 0 0 5
2  99 14 0 0 5
0

0101000
+176 46 -175 0 *
Ve
1e-07
-1.5 -8 0
-1.5 1 40 49
-1.5 2 102 35 49
0 0

0101101
*
Ed
 1e-07 1 1 0
1  39 0 0 6
2  100 34 0 0 6
2  101 14 47 0 6
0

0101000
+176 0 -173 48 *
Ve
6e-07
-20.85 -8 -14
0 0

0101101
*
Ed
 1e-07 1 1 0
1  41 0 -1.5 0.5
2  103 36 0 -1.5 0.5
2  104 34 0 -1.5 0.5
2  105 34 51 -1.5 0.5
2  106 14 52 -1.5 0.5
0

0101000
+173 0 -171 52 *
Ed
 1e-07 1 1 0
1  42 0 6 20
2  107 24 0 6 20
2  108 13 0 6 20
2  109 14 15 6 20
0

0101000
+171 15 -245 0 *
Ed
 1e-07 1 1 0
1  43 0 0 20
2  110 14 0 0 20
2  111 16 0 0 20
0

0101000
+175 0 -267 14 *
Wi

0101100
-174 0 +172 46 +170 50 +169 14 +243 14 +266 14 -168 0 *
Fa
0  1e-07 14 0

0101000
+167 0 *
Ve
1e-07
-17.85 8 -20
0 0

0101101
*
Ed
 1e-07 1 1 0
1  44 0 0 16
2  112 15 0 0 16
2  113 37 0 0 16
2  114 36 53 0 16
2  115 16 15 0 16
0

0101000
+175 15 -165 15 *
Ed
 1e-07 1 1 0
1  45 0 0 20
2  116 16 0 0 20
2  117 18 0 0 20
0

0101000
+165 0 -265 14 *
Wi

0101100
-168 0 +164 14 +163 0 -264 14 *
Fa
0  0 16 0

0111000
+162 0 *
Ve
1e-07
-1.5 8 0
0 0

0101101
*
Ed
 1e-07 1 1 0
1  46 0 0 5
2  118 18 0 0 5
0

0101000
+160 46 -165 0 *
Ve
1e-07
-1.5 8 0
-1.5 1 48 49
-1.5 2 121 35 49
0 0

0101101
*
Ed
 1e-07 1 1 0
1  47 0 0 6
2  119 38 0 0 6
2  120 18 47 0 6
0

0101000
+160 0 -158 48 *
Ve
6e-07
-20.85 8 -14
0 0

0101101
*
Ed
 1e-07 1 1 0
1  49 0 -1.5 0.5
2  122 36 0 -1.5 0.5
2  123 38 0 -1.5 0.5
2  124 38 51 -1.5 0.5
2  125 18 52 -1.5 0.5
0

0101000
+158 0 -156 52 *
Ed
 1e-07 1 1 0
1  50 0 6 20
2  126 24 0 6 20
2  127 17 0 6 20
2  128 18 15 6 20
0

0101000
+156 15 -237 0 *
Wi

0101100
-159 0 +157 46 +155 50 +154 14 +235 14 +263 14 -163 0 *
Fa
0  1e-07 18 0

0101000
+153 0 *
Ed
 1e-07 1 1 0
1  51 0 3.75 6.25
3  129 130CN 19 0 3.75 6.25
0

0101000
+261 54 -226 54 *
Wi

0101100
-225 0 +151 19 +260 0 -151 19 *
Fa
0  1e-07 19 19

0101000
+150 0 *
Ed
 1e-07 1 1 0
1  52 0 3.75 6.25
3  131 132CN 20 0 3.75 6.25
0

0101000
+258 55 -217 55 *
Wi

0101100
-216 0 +148 22 +257 0 -148 22 *
Fa
0  1e-07 20 22

0101000
+147 0 *
Ed
 1e-07 1 1 0
1  53 0 3.75 6.25
3  133 134CN 21 0 3.75 6.25
0

0101000
+255 56 -214 56 *
Wi

0101100
-213 0 +145 25 +254 0 -145 25 *
Fa
0  1e-07 21 25

0101000
+144 0 *
Ed
 1e-07 1 1 0
1  54 0 3.75 6.25
3  135 136CN 22 0 3.75 6.25
0

0101000
+252 57 -211 57 *
Wi

0101100
-210 0 +142 26 +251 0 -142 26 *
Fa
0  1e-07 22 26

0101000
+141 0 *
Ed
 1e-07 1 1 0
1  55 0 3.75 6.25
3  137 138CN 23 0 3.75 6.25
0

0101000
+249 58 -208 58 *
Wi

0101100
-207 0 +139 29 +248 0 -139 29 *
Fa
0  1e-07 23 29

0101000
+138 0 *
Ed
 6e-07 1 1 0
1  56 0 -12 4
2  139 24 14 -12 4
2  140 36 50 -12 4
0

0101000
+156 0 -171 0 *
Wi

0101100
-169 14 -244 14 -240 14 -236 14 +154 14 -136 0 *
Fa
0  1e-07 24 14

0101000
+135 0 *
Ve
1e-07
2.5 -6.12323399573677e-16 1.5
0 0

0101101
*
Ed
 1e-07 1 1 0
1  57 0 0 6.28318530717959
2  141 25 0 0 6.28318530717959
2  142 39 0 0 6.28318530717959
0

0101000
+133 0 -133 0 *
Ed
 1e-07 1 1 0
1  58 0 0 1.5
3  143 144CN 25 0 0 1.5
0

0101000
-133 0 +223 0 *
Wi

0101100
-132 0 +131 0 +222 0 -131 0 *
Fa
0  1e-07 25 0

0111000
+130 0 *
Ve
1e-07
2.5 -6.12323399573677e-16 1.5
0 0

0101101
*
Ed
 1e-07 1 1 0
1  59 0 0 6.28318530717959
2  145 27 0 0 6.28318530717959
2  146 40 0 0 6.28318530717959
0

0101000
+128 0 -128 0 *
Ed
 1e-07 1 1 0
1  60 0 0 1.5
3  147 148CN 27 0 0 1.5
0

0101000
-128 0 +220 0 *
Wi

0101100
-127 0 +126 0 +219 0 -126 0 *
Fa
0  1e-07 27 0

0111000
+125 0 *
Ve
1e-07
3.5 6 0
6 1 62 0
0 0

0101101
*
Ed
 1e-07 1 1 0
1  61 0 0 2.82842712474619
2  149 29 0 0 2.82842712474619
0

0101000
+123 0 -186 0 *
Ve
1e-07
3.5 -6 0
-6 1 63 43
-6 2 153 31 43
0 0

0101101
*
Ed
 1e-07 1 1 0
1  62 0 -6 6
2  150 41 0 -6 6
2  151 41 41 -6 6
2  152 29 0 -6 6
0

0101000
+121 0 -123 0 *
Ed
 1e-07 1 1 0
1  64 0 0 2.82842712474619
2  154 29 0 0 2.82842712474619
0

0101000
+193 0 -121 0 *
Wi

0101100
+200 0 -185 40 +122 40 +120 40 +119 40 +192 40 *
Fa
0  1e-07 29 40

0101000
+118 0 *
Ed
 1e-07 1 1 0
1  64 0 0 2.82842712474619
2  154 29 0 0 2.82842712474619
0

0101000
+196 0 -121 0 *
Ve
1.00000060702402e-07
24.85 -0.640312423743345 -20
0 0

0101101
*
Ed
 1e-07 1 1 0
1  62 0 -6 -0.640312423743345
2  150 41 0 -6 -0.640312423743345
2  151 41 41 -6 -0.640312423743345
2  152 29 0 -6 -0.640312423743345
0

0101000
+121 0 -115 44 *
Ve
1.00000128128973e-07
20.85 -0.640312423743411 -20
0 0

0101101
*
Ed
 1e-07 1 1 0
1  65 0 3.45143729333148 5.97334066743793
2  155 43 0 3.45143729333148 5.97334066743793
2  156 44 0 3.45143729333148 5.97334066743793
2  157 29 62 3.45143729333148 5.97334066743793
0

0101000
+113 63 -115 63 *
Ve
1.00000126158859e-07
20.85 0.640312423743409 -20
0 0

0101101
*
Ed
 1e-07 1 1 0
1  66 0 7.35968757625659 8.64031242374341
2  158 6 0 7.35968757625659 8.64031242374341
2  159 33 0 7.35968757625659 8.64031242374341
0

0101000
+113 13 -111 13 *
Ve
1.00000062094824e-07
24.85 0.640312423743346 -20
0 0

0101101
*
Ed
 1e-07 1 1 0
1  65 0 0.309844639741656 2.83174801384811
2  155 43 0 0.309844639741656 2.83174801384811
2  156 44 0 0.309844639741656 2.83174801384811
2  157 29 62 0.309844639741656 2.83174801384811
0

0101000
+109 63 -111 63 *
Ed
 1e-07 1 1 0
1  62 0 0.640312423743346 6
2  150 41 0 0.640312423743346 6
2  151 41 41 0.640312423743346 6
2  152 29 0 0.640312423743346 6
0

0101000
+109 44 -123 0 *
Ed
 1e-07 1 1 0
1  61 0 0 2.82842712474619
2  149 29 0 0 2.82842712474619
0

0101000
+123 0 -184 0 *
Wi

0101100
-179 11 +195 0 +116 39 +114 39 -112 61 +110 11 -108 61 +107 39 +106 39 +182 0 
*
Fa
0  0 42 0

0111000
+105 0 *
Ed
 1e-07 1 1 0
1  67 0 0 6
2  160 41 0 0 6
0

0101000
+121 0 -121 38 *
Wi

0101100
+191 0 -103 0 -116 0 +119 38 *
Fa
0  1e-07 45 0

0101000
+102 0 *
Ed
 1e-07 1 1 0
1  68 0 0 6
2  161 41 0 0 6
0

0101000
+123 0 -123 38 *
Wi

0101100
+100 0 -183 0 -106 0 +122 38 *
Fa
0  1e-07 46 0

0101000
+99 0 *
Ve
1e-07
-3.5 6 0
6 1 70 0
0 0

0101101
*
Ed
 1e-07 1 1 0
1  69 0 0 2.82842712474619
2  162 36 0 0 2.82842712474619
0

0101000
+97 0 -160 0 *
Ve
1.00000016810991e-07
-24.85 0.640312423743269 -20
0 0

0101101
*
Ed
 1e-07 1 1 0
1  70 0 0.640312423743269 6
2  163 36 0 0.640312423743269 6
2  164 48 0 0.640312423743269 6
2  165 48 51 0.640312423743269 6
0

0101000
+95 47 -97 0 *
Ve
1.00000137711341e-07
-20.85 0.640312423743407 -20
0 0

0101101
*
Ed
 1e-07 1 1 0
1  71 0 3.14159265358979 5.66349602769635
2  166 49 0 3.14159265358979 5.66349602769635
2  167 36 46 3.14159265358979 5.66349602769635
0

0101000
+93 0 -95 0 *
Ve
1.00000125064739e-07
-20.85 -0.640312423743408 -20
0 0

0101101
*
Ed
 1e-07 1 1 0
1  72 0 7.35968757625659 8.64031242374341
2  168 24 0 7.35968757625659 8.64031242374341
2  169 37 0 7.35968757625659 8.64031242374341
0

0101000
+91 15 -93 15 *
Ve
1.00000014988011e-07
-24.85 -0.64031242374327 -20
0 0

0101101
*
Ed
 1e-07 1 1 0
1  71 0 0 2.52190337410649
2  166 49 0 0 2.52190337410649
2  167 36 46 0 2.52190337410649
0

0101000
+89 0 -91 0 *
Ve
1e-07
-3.5 -6 0
-6 1 73 49
-6 2 170 35 49
0 0

0101101
*
Ed
 1e-07 1 1 0
1  70 0 -6 -0.64031242374327
2  163 36 0 -6 -0.64031242374327
2  164 48 0 -6 -0.64031242374327
2  165 48 51 -6 -0.64031242374327
0

0101000
+87 0 -89 47 *
Ed
 1e-07 1 1 0
1  74 0 0 2.82842712474619
2  171 36 0 0 2.82842712474619
0

0101000
+87 0 -176 0 *
Wi

0101100
-159 0 -96 46 -94 46 -92 0 -90 14 -88 0 -86 46 +85 46 +174 0 +164 14 
*
Fa
0  0 47 0

0111000
+84 0 *
Ed
 1e-07 1 1 0
1  75 0 0 6
2  172 48 0 0 6
0

0101000
+87 0 -87 48 *
Ed
 1e-07 1 1 0
1  74 0 0 2.82842712474619
2  171 36 0 0 2.82842712474619
0

0101000
+87 0 -173 0 *
Wi

0101100
+82 0 -172 0 -85 0 +81 48 *
Fa
0  1e-07 50 0

0101000
+80 0 *
Ed
 1e-07 1 1 0
1  70 0 -6 6
2  163 36 0 -6 6
2  164 48 0 -6 6
2  165 48 51 -6 6
0

0101000
+87 0 -97 0 *
Ed
 1e-07 1 1 0
1  69 0 0 2.82842712474619
2  162 36 0 0 2.82842712474619
0

0101000
+97 0 -158 0 *
Wi

0101100
-78 50 -77 50 -155 50 -136 0 +170 50 +81 50 *
Fa
0  1e-07 36 50

0101000
+76 0 *
Ed
 1e-07 1 1 0
1  76 0 0 6
2  173 48 0 0 6
0

0101000
+97 0 -97 48 *
Wi

0101100
+74 0 -157 0 -96 0 +77 48 *
Fa
0  1e-07 51 0

0101000
+73 0 *
Wi

0101100
+132 32 *
Ve
1e-07
0.8 -1.95943487863577e-16 3.5
0 0

0101101
*
Ed
 1e-07 1 1 0
1  77 0 0 6.28318530717959
2  174 52 0 0 6.28318530717959
2  175 53 0 0 6.28318530717959
2  176 39 67 0 6.28318530717959
0

0101000
+70 0 -70 0 *
Wi

0101100
-69 66 *
Fa
0  1e-07 39 32

0101000
+71 0 +68 0 *
Wi

0101100
+127 36 *
Ve
1e-07
0.8 -1.95943487863577e-16 3.5
0 0

0101101
*
Ed
 1e-07 1 1 0
1  78 0 0 6.28318530717959
2  177 54 0 0 6.28318530717959
2  178 55 0 0 6.28318530717959
2  179 40 71 0 6.28318530717959
0

0101000
+65 0 -65 0 *
Wi

0101100
-64 70 *
Fa
0  1e-07 40 36

0101000
+66 0 +63 0 *
Ve
1.50000000111022e-07
24.85 -0.640312423743285 -16.5
0 0

0101101
*
Ed
 1e-07 1 1 0
1  79 0 0 3.5
2  180 41 39 0 3.5
2  181 43 61 0 3.5
0

0101000
+115 0 -61 0 *
Ve
1.5e-07
24.85 0.640312423743285 -16.5
0 0

0101101
*
Ed
 1.5e-07 1 1 0
1  80 0 2.35968757625671 3.64031242374329
2  182 41 39 2.35968757625671 3.64031242374329
2  183 56 61 2.35968757625671 3.64031242374329
0

0101000
+61 0 -59 0 *
Ed
 1e-07 1 1 0
1  81 0 0 3.5
2  184 41 39 0 3.5
2  185 43 61 0 3.5
0

0101000
+109 0 -59 0 *
Wi

0101100
-114 39 -60 0 -58 0 +57 0 -107 39 -100 39 +120 40 +103 39 *
Fa
0  1e-07 41 39

0101000
+56 0 *
Ve
6e-07
20.85 -0.640312423743285 -16.5
0 0

0101101
*
Ed
 1e-07 1 1 0
1  82 0 3.45143729333142 5.97334066743796
2  186 43 0 3.45143729333142 5.97334066743796
2  187 56 0 3.45143729333142 5.97334066743796
0

0101000
+54 63 -61 63 *
Ed
 1e-07 1 1 0
1  83 0 0 3.5
2  188 6 11 0 3.5
2  189 43 61 0 3.5
0

0101000
+113 0 -54 0 *
Wi

0101100
-53 61 +60 0 +112 61 -52 0 *
Fa
0  1e-07 43 61

0101000
+51 0 *
Ve
6.00000000111022e-07
20.85 0.640312423743286 -16.5
0 0

0101101
*
Ed
 6e-07 1 1 0
1  84 0 -4.64031242374329 -3.35968757625671
2  190 6 11 -4.64031242374329 -3.35968757625671
2  191 56 61 -4.64031242374329 -3.35968757625671
0

0101000
+49 0 -54 0 *
Ed
 1e-07 1 1 0
1  85 0 0 3.5
2  192 6 11 0 3.5
2  193 43 61 0 3.5
0

0101000
+111 0 -49 0 *
Wi

0101100
-52 0 +48 0 +47 0 +110 11 *
Fa
0  1e-07 6 11

0101000
+46 0 *
Ed
 1e-07 1 1 0
1  82 0 0.309844639741627 2.83174801384817
2  186 43 0 0.309844639741627 2.83174801384817
2  187 56 0 0.309844639741627 2.83174801384817
0

0101000
+59 63 -49 63 *
Wi

0101100
-44 61 +47 0 +108 61 -57 0 *
Fa
0  1e-07 43 61

0101000
+43 0 *
Ve
1.5e-07
-24.85 -0.640312423743285 -16.5
0 0

0101101
*
Ed
 1e-07 1 1 0
1  86 0 0 3.5
2  194 48 46 0 3.5
2  195 57 74 0 3.5
2  196 49 0 0 3.5
0

0101000
+89 0 -41 0 *
Ve
1.50000000111022e-07
-24.85 0.640312423743286 -16.5
0 0

0101101
*
Ed
 1.5e-07 1 1 0
1  87 0 2.35968757625671 3.64031242374329
2  197 48 46 2.35968757625671 3.64031242374329
2  198 58 74 2.35968757625671 3.64031242374329
0

0101000
+41 0 -39 0 *
Ed
 1e-07 1 1 0
1  88 0 0 3.5
2  199 48 46 0 3.5
2  200 57 74 0 3.5
2  201 49 0 0 3.5
0

0101000
+95 0 -39 0 *
Wi

0101100
-86 46 -40 0 -38 0 +37 0 -94 46 -74 46 +78 50 +82 46 *
Fa
0  1e-07 48 46

0101000
+36 0 *
Ve
6.00000000222045e-07
-20.85 0.640312423743285 -16.5
0 0

0101101
*
Ed
 1e-07 1 1 0
1  89 0 0 3.5
2  202 24 14 0 3.5
2  203 49 0 0 3.5
0

0101000
+93 0 -34 0 *
Ed
 1e-07 1 1 0
1  90 0 3.14159265358979 5.66349602769633
2  204 49 0 3.14159265358979 5.66349602769633
2  205 58 74 3.14159265358979 5.66349602769633
0

0101000
+34 0 -39 0 *
Wi

0101100
-33 0 -32 0 +37 0 +92 0 *
Fa
0  1e-07 49 0

0101000
+31 0 *
Ve
6e-07
-20.85 -0.640312423743286 -16.5
0 0

0101101
*
Ed
 1e-07 1 1 0
1  91 0 0 3.5
2  206 24 14 0 3.5
2  207 49 0 0 3.5
0

0101000
+91 0 -29 0 *
Ed
 6e-07 1 1 0
1  92 0 -4.64031242374328 -3.35968757625671
2  208 24 14 -4.64031242374328 -3.35968757625671
2  209 58 74 -4.64031242374328 -3.35968757625671
0

0101000
+34 0 -29 0 *
Wi

0101100
-28 0 +27 0 +33 0 +90 14 *
Fa
0  1e-07 24 14

0101000
+26 0 *
Ed
 1e-07 1 1 0
1  90 0 0 2.52190337410654
2  204 49 0 0 2.52190337410654
2  205 58 74 0 2.52190337410654
0

0101000
+41 0 -29 0 *
Wi

0101100
-40 0 -24 0 +28 0 +88 0 *
Fa
0  1e-07 49 0

0101000
+23 0 *
Ve
1e-07
-4.305 -13.97 2.5
0 0

0101101
*
Ed
 1e-07 1 1 0
1  93 0 2 3.5
3  210 211CN 52 0 2 3.5
0

0101000
+21 75 -70 0 *
Ed
 1e-07 1 1 0
1  94 0 0 6.28318530717959
2  212 26 32 0 6.28318530717959
2  213 52 66 0 6.28318530717959
2  214 5 3 0 6.28318530717959
0

0101100
+21 0 -21 0 *
Wi

0101100
+20 66 +19 0 -20 66 -69 66 *
Fa
0  1e-07 52 66

0101000
+18 0 *
Ve
1e-07
5.905 -13.97 2.5
0 0

0101101
*
Ed
 1e-07 1 1 0
1  95 0 2 3.5
3  215 216CN 54 0 2 3.5
0

0101000
+16 76 -65 0 *
Ed
 1e-07 1 1 0
1  96 0 0 6.28318530717959
2  217 28 36 0 6.28318530717959
2  218 54 70 0 6.28318530717959
2  219 5 3 0 6.28318530717959
0

0101100
+16 0 -16 0 *
Wi

0101100
+15 70 +14 0 -15 70 -64 70 *
Fa
0  1e-07 54 70

0101000
+13 0 *
Wi

0101100
+53 61 +48 0 +44 61 +58 0 *
Fa
0  1e-07 56 61

0101000
+11 0 *
Wi

0101100
-38 0 +32 0 -27 0 +24 0 *
Fa
0  1e-07 58 74

0101000
+9 0 *
Wi

0101100
+19 0 *
Fa
0  1e-07 5 3

0101000
+7 0 *
Wi

0101100
+14 0 *
Fa
0  1e-07 5 3

0101000
+5 0 *
Sh

0101100
+281 0 -278 0 +273 0 -246 0 +241 0 -238 0 +233 0 +228 0 +205 0 +198 0 
-189 0 +180 0 -177 0 -166 0 +161 0 +152 0 -149 0 -146 0 -143 0 -140 0 
-137 0 -134 0 +129 32 +124 36 +117 0 -104 0 -101 39 -98 39 -83 0 -79 46 
+75 0 +72 46 +67 0 +62 0 -55 0 -50 0 +45 0 -42 0 +35 0 -30 0 
-25 0 -22 0 -17 0 -12 0 -10 0 -8 0 +6 0 +4 0 *
So

0100000
+3 0 *
Co

1100000
+2 0 *

+1 0 