DBRep_DrawableShape

CASCADE Topology V3, (c) Open Cascade
Locations 68
1
              1               0               0              -0 
              0               1               0              -0 
              0               0               1               0 
1
              1               0               0          -4.825 
              0               1               0           -25.5 
              0               0               1          -11.85 
1
              1               0               0          22.675 
              0               1               0               0 
              0               0               1           -8.35 
2  2 1 3 1 0
1
              1               0               0              -0 
              0               1               0              -0 
              0               0               1               0 
1
              1               0               0               0 
              0               1               0               0 
              0               0               1            23.7 
1
              1               0               0               0 
              0               1               0               0 
              0               0               1           -20.2 
2  5 1 6 1 7 1 0
1
              1               0               0          -4.825 
              0               1               0           -25.5 
              0               0               1          -11.85 
1
              1               0               0         -22.675 
              0               1               0               0 
              0               0               1           -8.35 
2  9 1 10 1 0
2  10 -1 9 -1 0
2  5 1 6 1 7 1 10 -1 9 -1 0
2  5 1 7 1 10 -1 9 -1 0
2  5 1 7 1 0
2  5 -1 0
2  6 -1 5 -1 0
2  9 1 10 1 7 -1 5 -1 0
2  7 -1 5 -1 0
1
              1               0               0              -0 
              0               1               0              -0 
              0               0               1           -8.25 
1
              1               0               0          -22.75 
              0               1               0               0 
              0               0               1          -17.45 
2  20 1 21 1 0
2  21 -1 20 -1 0
1
              1               0               0            -4.5 
              0               1               0            -3.5 
              0               0               1            -9.6 
1
              1               0               0          -27.25 
              0               1               0               0 
              0               0               1            -5.1 
2  24 1 25 1 0
2  25 -1 24 -1 0
1
              1               0               0              -0 
              0               1               0              -0 
              0               0               1            -9.6 
1
              1               0               0          -22.75 
              0               1               0               0 
              0               0               1            -5.1 
2  28 1 29 1 25 -1 24 -1 0
2  7 -1 6 -1 5 -1 0
2  3 -1 2 -1 0
2  5 1 6 1 7 1 3 -1 2 -1 0
1
              1               0               0            -4.5 
              0               1               0            -3.5 
              0               0               1            -9.6 
1
              1               0               0           27.25 
              0               1               0               0 
              0               0               1            -5.1 
2  34 1 35 1 0
1
              1               0               0              -0 
              0               1               0              -0 
              0               0               1            -9.6 
1
              1               0               0           22.75 
              0               1               0               0 
              0               0               1            -5.1 
2  37 1 38 1 0
1
              1               0               0               0 
              0               1               0               0 
              0               0               1             3.5 
2  1 1 40 1 0
1
              1               0               0              -0 
              0               1               0              -0 
              0               0               1           -5.25 
1
              1               0               0             -13 
              0               1               0             -13 
              0               0               1               0 
2  42 1 43 1 0
1
              1               0               0              -0 
              0               1               0              -0 
              0               0               1           -5.25 
1
              1               0               0              13 
              0               1               0             -13 
              0               0               1               0 
2  45 1 46 1 0
1
              1               0               0              -0 
              0               1               0              -0 
              0               0               1           -5.25 
1
              1               0               0             -13 
              0               1               0              13 
              0               0               1               0 
2  48 1 49 1 0
1
              1               0               0              -0 
              0               1               0              -0 
              0               0               1           -5.25 
1
              1               0               0              -0 
              0               1               0              -0 
              0               0               1           -5.25 
1
              1               0               0              13 
              0               1               0              13 
              0               0               1               0 
2  52 1 53 1 0
2  53 -1 52 -1 0
2  51 -1 0
2  49 -1 48 -1 0
2  46 -1 45 -1 0
2  43 -1 42 -1 0
2  35 -1 34 -1 0
2  37 1 38 1 35 -1 34 -1 0
2  38 -1 37 -1 0
2  34 1 35 1 38 -1 37 -1 0
1
              1               0               0              -0 
              0               1               0              -0 
              0               0               1           -8.25 
1
              1               0               0           22.75 
              0               1               0               0 
              0               0               1          -17.45 
2  64 1 65 1 0
2  65 -1 64 -1 0
2  5 1 7 1 3 -1 2 -1 0
Curve2ds 188
1 3.8185601102371232 0 1 0 
2 1.9108333729808534e-15 -1.9314363361221341e-15 -0.77947598253275119 -0.62643211336473026 0.62643211336473026 -0.77947598253275119 22.899999999999999
8 -3.5000024000000001 2.3999999999999999e-06
1 5.6062178505322562 0 0 1 
8 -3.5000024000000001 2.3999999999999999e-06
1 20.199999999999999 -11.15470460394768 -1 0 
1 8.7478105041219969 -3.5 -1 -0 
2 1.9108333729808534e-15 -1.9314363361221341e-15 -0.77947598253271833 0.62643211336477111 0.62643211336477111 0.77947598253271833 22.899999999999999
2 1.9108333729808534e-15 -1.9314363361221341e-15 -0.77947598253271833 0.62643211336477111 0.62643211336477111 0.77947598253271833 22.899999999999999
2 1.7160033035788841e-15 -6.7505352430363358e-16 -0.77947598253271833 0.62643211336477111 0.62643211336477111 0.77947598253271833 22.899999999999999
8 -3.5000024000000001 2.3999999999999999e-06
1 3.8185601102371227 0 0 1 
8 -3.5000024000000001 2.3999999999999999e-06
1 20.199999999999999 -11.15470460394768 -1 0 
8 -3.5 0
1 3.8185601102371227 0 0 1 
1 23.699999999999999 0 0 -1 
1 9.6499999999999986 0 0 1 
1 -17.849999999999998 -25.500000000000004 0 1 
1 -17.849999999999998 -25.500000000000004 0 1 
1 -17.850000000000001 -25.5 0 1 
8 -10.150000000000002 35.649999999999991
1 -17.849999999999998 -12.75 0 1 
8 -10.150000000000002 35.649999999999991
1 20.199999999999999 -12.750000000000002 0 -1 
8 -3.5000024000000001 2.3999999999999999e-06
1 2.4646251969424635 0 0 1 
8 -3.5000024000000001 2.3999999999999999e-06
1 20.199999999999999 -39.845295396052322 -1 0 
8 -3.5 -0
1 8.7478105041220502 0 0 1 
1 -17.849999999999998 -25.500000000000004 0 1 
1 -17.849999999999998 -25.500000000000004 0 1 
1 -17.850000000000001 -25.5 0 1 
8 -23.700000599999999 5.999999999062311e-07
1 0 -43.710642492784267 -1 0 
8 -23.700000599999999 5.999999999062311e-07
1 2.3461938234056499 0 0 1 
1 0 0 0 -1 
1 9.6499999999999986 0 0 1 
1 -17.850000000000001 -25.5 0 1 
8 -23.700000599999999 5.999999999062311e-07
1 0 -7.2893575072157333 -1 0 
8 -23.700000599999999 5.999999999062311e-07
1 3.9369914837739364 0 0 1 
1 0 0 1 0 
1 0 -23.699999999999999 1 0 
2 1.7160033035788841e-15 -6.7505352430363358e-16 1 0 -0 1 25.5
2 27.5 25.5 1 0 -0 1 25.5
2 4.75 25.5 1 0 -0 1 1.7
1 0 5.5 1 0 
2 -22.75 -6.7505352430363358e-16 1 0 -0 1 1.6999999999999993
2 0 0 1 0 -0 1 1.7
1 0 11 1 0 
1 6.2831853071795862 -0 0 1 
1 0 -0 0 1 
2 22.75 0 1 0 0 -1 25.5
1 6.2831853071795862 -5.5 -1 0 
1 0 0 0 1 
1 0 7 1 0 
1 -9 3.5 1 0 
1 4.7123889803846897 0 1 0 
2 0 0 0 -1 1 0 3.5
1 0 0 0 1 
1 0 0 1 0 
1 -9 -3.5 1 0 
1 0 0 1 0 
1 0 9 1 0 
1 4.7123889803846897 0 0 1 
8 0 19.199999999999999
1 4.7123889803846897 0 0 1 
8 6.8749999999999982 11.624999999999996
1 -15.875 -3.5000000000000018 -1 0 
8 6.8749999999999982 11.624999999999996
1 18.199999999999999 15.874999999999998 0 -1 
1 -15.875 -3.5000000000000018 -1 0 
1 -15.875 -3.5000000000000009 -1 0 
8 -23.700000599999999 -3.6799999999999997
1 -5.5 6.4913381193698214 -1 0 
8 -23.700000599999999 -3.6799999999999997
1 3.2792822058940216 0 0 1 
2 -22.749999999999996 -1.9314363361221341e-15 1 0 -0 1 3.5
1 0 18.199999999999999 1 0 
2 -22.749999999999996 -1.9314363361221341e-15 1 0 -0 1 3.5
2 -22.75 -6.7505352430363358e-16 1 0 -0 1 3.5
1 0 -7 1 0 
1 0 9 1 0 
1 1.5707963267948966 0 0 1 
8 0 19.199999999999999
1 7.8539816339744828 0 0 1 
8 6.8749999999999982 11.624999999999996
1 -15.875 3.4999999999999982 -1 0 
8 6.8749999999999982 11.624999999999996
1 18.199999999999999 15.874999999999998 0 -1 
1 -15.875 3.4999999999999982 -1 0 
1 -15.875 3.4999999999999991 -1 0 
8 -23.700000599999999 -3.6799999999999997
1 -5.5 6.4913381193698214 -1 0 
8 -23.700000599999999 -3.6799999999999997
1 3.0039031012855646 0 0 1 
2 1.9108333729808534e-15 -1.9314363361221341e-15 1 0 -0 1 25.5
2 1.9108333729808534e-15 -1.9314363361221341e-15 1 0 -0 1 25.5
2 1.9108333729808534e-15 -1.9314363361221341e-15 -0.77947598253275119 -0.62643211336473026 0.62643211336473026 -0.77947598253275119 22.899999999999999
2 1.9108333729808534e-15 -1.9314363361221341e-15 -0.77947598253271833 0.62643211336477111 0.62643211336477111 0.77947598253271833 22.899999999999999
2 1.7160033035788841e-15 -6.7505352430363358e-16 -0.77947598253271833 0.62643211336477111 0.62643211336477111 0.77947598253271833 22.899999999999999
8 -3.5000024000000001 2.3999999999999999e-06
1 6.9601527638269163 0 0 1 
8 -3.5000024000000001 2.3999999999999999e-06
1 20.199999999999999 -39.845295396052322 -1 0 
1 23.699999999999999 0 0 -1 
1 0 0 0 1 
1 17.850000000000005 -25.500000000000004 0 1 
1 17.850000000000001 -25.5 0 1 
2 1.9108333729808534e-15 -1.9314363361221341e-15 1 0 -0 1 25.5
8 0.13768955230421362 0.79539883018418522
1 6.2831853071795862 -23.699999999999999 1 0 
8 -16.125000000000004 -11.375000000000002
1 11.375 3.4999999999999982 -1 0 
8 -16.125000000000004 -11.375000000000002
1 18.199999999999999 -11.375000000000002 0 -1 
1 11.375 3.4999999999999991 -1 0 
2 22.750000000000004 -1.9314363361221341e-15 1 0 -0 1 3.5
1 0 18.199999999999999 1 0 
2 22.75 -6.7505352430363358e-16 1 0 -0 1 3.5
8 -16.125000000000004 -11.375000000000002
1 11.375 -3.5000000000000018 -1 0 
8 -16.125000000000004 -11.375000000000002
1 18.199999999999999 -11.375000000000002 0 -1 
1 11.375 -3.5000000000000009 -1 0 
2 1.9108333729808534e-15 -1.9314363361221341e-15 1 0 -0 1 25.5
8 5.4877864769954012 6.1454957548753733
1 0 -23.699999999999999 1 0 
1 17.850000000000005 -25.500000000000004 0 1 
1 17.850000000000001 -25.5 0 1 
2 -12.999999999999998 -13.000000000000002 1 0 -0 1 1.7
1 0 8.75 1 0 
2 -12.999999999999998 -13.000000000000002 1 0 -0 1 1.6999999999999993
2 -12.999999999999998 -13.000000000000002 1 0 -0 1 1.6999999999999993
2 -12.999999999999998 -13 1 0 -0 1 1.6999999999999993
2 13.000000000000002 -13.000000000000002 1 0 -0 1 1.7
1 0 8.75 1 0 
2 13.000000000000002 -13.000000000000002 1 0 -0 1 1.6999999999999993
2 13.000000000000002 -13.000000000000002 1 0 -0 1 1.6999999999999993
2 13.000000000000002 -13 1 0 -0 1 1.6999999999999993
2 -12.999999999999998 12.999999999999998 1 0 -0 1 1.7
1 0 8.75 1 0 
2 -12.999999999999998 12.999999999999998 1 0 -0 1 1.6999999999999993
2 -12.999999999999998 12.999999999999998 1 0 -0 1 1.6999999999999993
2 -12.999999999999998 13 1 0 -0 1 1.6999999999999993
2 1.9108333729808534e-15 -1.9314363361221341e-15 1 0 -0 1 11.300000000000001
1 0 8.75 1 0 
2 1.9108333729808534e-15 -1.9314363361221341e-15 1 0 -0 1 11.300000000000001
2 1.9108333729808534e-15 -1.9314363361221341e-15 1 0 -0 1 11.300000000000001
2 1.7160033035788841e-15 -6.7505352430363358e-16 1 0 -0 1 11.300000000000001
2 13.000000000000002 12.999999999999998 1 0 -0 1 1.7
1 0 8.75 1 0 
2 13.000000000000002 12.999999999999998 1 0 -0 1 1.6999999999999993
2 13.000000000000002 12.999999999999998 1 0 -0 1 1.6999999999999993
2 13.000000000000002 13 1 0 -0 1 1.6999999999999993
1 6.2831853071795862 -0 0 1 
1 0 -0 0 1 
2 13.000000000000002 12.999999999999998 1 0 -0 1 1.7
1 0 5.25 1 0 
1 6.2831853071795862 -0 0 1 
1 0 -0 0 1 
2 1.9108333729808534e-15 -1.9314363361221341e-15 1 0 -0 1 11.300000000000001
1 0 5.25 1 0 
1 6.2831853071795862 -0 0 1 
1 0 -0 0 1 
2 -12.999999999999998 12.999999999999998 1 0 -0 1 1.7
1 0 5.25 1 0 
1 6.2831853071795862 -0 0 1 
1 0 -0 0 1 
2 13.000000000000002 -13.000000000000002 1 0 -0 1 1.7
1 0 5.25 1 0 
1 6.2831853071795862 -0 0 1 
1 0 -0 0 1 
2 -12.999999999999998 -13.000000000000002 1 0 -0 1 1.7
1 0 5.25 1 0 
1 0 0 0 1 
1 0 0 1 0 
1 0 -3.5 1 0 
8 -23.700000599999999 -3.6799999999999997
1 -5.5 2.5086618806301786 -1 0 
8 -23.700000599999999 -3.6799999999999997
1 6.1454957548753573 0 0 1 
8 -23.699999999999999 -5.5
1 6.1454957548753573 0 0 1 
1 0 0 1 0 
1 0 0 1 0 
1 4.7123889803846897 0 0 1 
1 0 0 0 1 
1 0 7 1 0 
1 0 3.5 1 0 
1 0 0 1 0 
2 0 0 1 0 -0 1 3.5
2 0 0 1 0 -0 1 3.5
1 6.4208748594838143 -5.5 -1 0 
2 0 0 1 0 -0 1 1.7
1 0 11 1 0 
1 6.2831853071795862 -0 0 1 
1 0 -0 0 1 
2 4.8999999999999986 25.5 1 0 -0 1 1.7
1 0 5.5 1 0 
2 22.75 -6.7505352430363358e-16 1 0 -0 1 1.6999999999999993
1 0 0 0 -1 
1 0 0 0 1 
1 17.850000000000001 -25.5 0 1 
1 5.4877864769954341 0 1 0 
1 0 -7 1 0 
1 0 0 1 0 
1 1.5707963267948966 0 0 1 
8 -23.700000599999999 -3.6799999999999997
1 -5.5 2.5086618806301786 -1 0 
8 -23.700000599999999 -3.6799999999999997
1 0.1376895523042288 0 0 1 
8 -23.699999999999999 -5.5
1 6.4208748594838152 0 0 1 
8 -23.700000599999999 5.999999999062311e-07
1 0 -7.2893575072157333 -1 0 
8 -23.700000599999999 5.999999999062311e-07
1 5.487786476995443 0 0 1 
8 -23.699999999999999 0
1 5.487786476995443 0 0 1 
8 -23.700000599999999 5.999999999062311e-07
1 0 -43.710642492784267 -1 0 
8 -23.700000599999999 5.999999999062311e-07
1 0.79539883018414348 0 0 1 
8 -23.699999999999999 0
1 7.0785841373637295 0 0 1 
8 -10.150000000000006 35.649999999999991
1 17.850000000000005 -12.75 0 1 
8 -10.150000000000006 35.649999999999991
1 20.199999999999999 -12.750000000000002 0 -1 
Curves 61
8 0 4.9292503938849261
2 0 0 0 0 0 1 -0.77947598253275119 -0.62643211336473026 0 0.62643211336473026 -0.77947598253275119 0 22.899999999999999
1 17.850000000000001 -14.34529539605232 0 -0 -0 -1 
8 0 4.9292503938848222
2 0 0 3.5 0 0 -1 -0.77947598253271833 0.62643211336477111 0 0.62643211336477111 0.77947598253271833 0 22.899999999999999
1 -17.850000000000001 -14.34529539605232 0 -0 -0 -1 
1 9.6499999999999986 0 23.699999999999999 -0 1 0 
1 -17.850000000000001 -12.749999999999998 0 -0 1 0 
1 -17.850000000000001 14.34529539605232 0 -0 -0 -1 
1 -17.850000000000001 18.210642492784267 -20.199999999999999 -0 -0 -1 
1 9.6499999999999986 0 0 -0 1 0 
1 -17.850000000000001 -18.210642492784267 -20.199999999999999 -0 -0 -1 
2 0 0 0 0 0 1 1 0 -0 -0 1 0 25.5
2 -22.75 0 -20.199999999999999 0 0 1 1 0 -0 -0 1 0 1.7
2 -22.75 0 -14.699999999999999 0 0 1 1 0 -0 -0 1 0 1.7
1 1.7 -4.1637991171010006e-16 0 0 0 1 
2 0 0 -14.699999999999999 0 -0 -1 1 0 -0 0 -1 0 25.5
1 0 7 0 1 0 -0 
8 0 3.1415926535897931
2 -22.75 0 -14.699999999999999 0 0 1 0 -1 0 1 0 -0 3.5
1 0 0 0 1 0 -0 
1 9 0 0 0 0 1 
1 -15.875000000000002 -3.5 3.5 -1 -0 0 
1 -25.258661880630179 -3.5 -20.199999999999999 -0 -0 -1 
2 -22.75 0 3.5 0 0 1 1 0 -0 -0 1 0 3.5
1 9 7 0 0 0 1 
1 -15.875000000000002 3.5 3.5 -1 -0 0 
1 -25.258661880630179 3.5 -20.199999999999999 -0 -0 -1 
1 17.850000000000001 14.34529539605232 0 -0 -0 -1 
1 0 0 23.699999999999999 -0 1 0 
1 11.374999999999998 3.5 3.5 -1 -0 0 
2 22.75 0 3.5 0 0 1 1 0 -0 -0 1 0 3.5
1 11.374999999999998 -3.5 3.5 -1 -0 0 
2 -13 -13 3.5 0 0 1 1 0 -0 -0 1 0 1.7
2 13 -13 3.5 0 0 1 1 0 -0 -0 1 0 1.7
2 -13 13 3.5 0 0 1 1 0 -0 -0 1 0 1.7
2 0 0 3.5 0 0 1 1 0 -0 -0 1 0 11.300000000000001
2 13 13 3.5 0 0 1 1 0 -0 -0 1 0 1.7
1 1.7 -4.1637991171010006e-16 0 0 0 1 
2 13 13 0 0 0 1 1 0 -0 -0 1 0 1.7
1 11.300000000000001 -2.7677017660730185e-15 0 0 0 1 
2 0 0 0 0 0 1 1 0 -0 -0 1 0 11.300000000000001
1 1.7 -4.1637991171010006e-16 0 0 0 1 
2 -13 13 0 0 0 1 1 0 -0 -0 1 0 1.7
1 1.7 -4.1637991171010006e-16 0 0 0 1 
2 13 -13 0 0 0 1 1 0 -0 -0 1 0 1.7
1 1.7 -4.1637991171010006e-16 0 0 0 1 
2 -13 -13 0 0 0 1 1 0 -0 -0 1 0 1.7
1 0 0 0 1 0 -0 
1 25.258661880630179 -3.5 -20.199999999999999 -0 -0 -1 
1 0 0 0 0 0 1 
1 0 7 0 1 0 -0 
2 0 0 0 0 0 1 1 0 -0 -0 1 0 3.5
8 0 0.27537910460845755
2 0 0 -14.699999999999999 0 0 -1 0.99053576002471289 0.13725490196078433 0 0.13725490196078433 -0.99053576002471289 0 25.5
2 22.75 0 -14.699999999999999 0 0 1 1 0 -0 -0 1 0 1.7
1 1.7 -4.1637991171010006e-16 0 0 0 1 
2 22.75 0 -20.199999999999999 0 0 1 1 0 -0 -0 1 0 1.7
1 0 0 0 -0 1 0 
8 0 1.5907976603683043
2 0 0 -20.199999999999999 0 0 1 0.69999999999999385 -0.71414284285429097 0 0.71414284285429108 0.69999999999999396 -0 25.5
1 0 7 0 0 0 1 
1 25.258661880630179 3.5 -20.199999999999999 -0 -0 -1 
1 17.850000000000001 -18.210642492784267 -20.199999999999999 -0 -0 -1 
1 17.850000000000001 18.210642492784267 -20.199999999999999 -0 -0 -1 
1 17.850000000000001 -12.749999999999998 0 -0 1 0 
Polygon3D 0
PolygonOnTriangulations 0
Surfaces 35
10 3.1415926535897936 9.4247779607693793 -2e+100 2e+100
2 0 0 0 -0 -0 -1 1 0 -0 -0 1 0 22.899999999999999
1 -1.9108333729808534e-15 1.9314363361221341e-15 0 0 0 1 1 0 -0 -0 1 0 
1 0 0 0 1 0 -0 0 0 1 0 -1 0 
1 -1.9108333729808534e-15 1.9314363361221341e-15 3.5 0 0 1 1 0 -0 -0 1 0 
1 -1.9108333729808534e-15 1.9314363361221341e-15 3.5 0 0 1 1 0 -0 -0 1 0 
1 -1.7160033035788841e-15 6.7505352430363358e-16 0 0 0 1 1 0 -0 -0 1 0 
2 0 0 0 -0 -0 -1 1 0 -0 -0 1 0 22.899999999999999
1 9.6499999999999986 0 0 1 0 -0 0 0 1 0 -1 0 
1 0 0 23.699999999999999 0 0 1 1 0 -0 -0 1 0 
2 0 0 0 -0 -0 -1 1 0 -0 -0 1 0 25.5
1 0 0 0 0 0 1 1 0 -0 -0 1 0 
2 0 0 0 0 0 1 1 0 -0 -0 1 0 1.7
1 -22.75 0 -14.699999999999999 0 0 1 1 0 -0 -0 1 0 
1 0 7 0 -0 1 0 0 0 1 1 0 -0 
1 0 0 0 0 0 1 1 0 -0 -0 1 0 
10 3.1415926535897931 9.4247779607693793 -2e+100 2e+100
2 -22.75 0 -14.699999999999999 0 0 1 1 0 -0 -0 1 0 3.5
1 0 0 0 -0 1 0 0 0 1 1 0 -0 
1 9 0 0 1 0 -0 0 0 1 0 -1 0 
2 0 0 0 0 0 1 1 0 -0 -0 1 0 3.5
1 0 0 23.699999999999999 0 0 1 1 0 -0 -0 1 0 
10 3.1415926535897931 9.4247779607693793 -2e+100 2e+100
2 0 0 -20.199999999999999 -0 -0 -1 1 0 -0 -0 1 0 25.5
1 0 7 0 -0 1 0 0 0 1 1 0 -0 
2 0 0 0 0 0 1 1 0 -0 -0 1 0 3.5
1 0 0 0 -0 1 0 0 0 1 1 0 -0 
2 0 0 0 0 0 1 1 0 -0 -0 1 0 1.7
2 0 0 0 0 0 1 1 0 -0 -0 1 0 1.7
2 0 0 0 0 0 1 1 0 -0 -0 1 0 1.7
2 0 0 0 0 0 1 1 0 -0 -0 1 0 11.300000000000001
2 0 0 0 0 0 1 1 0 -0 -0 1 0 1.7
1 0 0 0 0 0 1 1 0 -0 -0 1 0 
1 22.75 0 -14.699999999999999 0 0 1 1 0 -0 -0 1 0 
1 0 0 0 1 0 -0 0 0 1 0 -1 0 
1 0 0 0 0 0 1 1 0 -0 -0 1 0 
2 0 0 0 0 0 1 1 0 -0 -0 1 0 1.7
1 0 0 0 0 0 1 1 0 -0 -0 1 0 
Triangulations 0

TShapes 182
Ve
6e-07
-17.85 -14.3452953960523 0
0 0

0101101
*
Ve
6.00000003552714e-07
17.85 -14.3452953960523 0
0 0

0101101
*
Ed
 1e-07 1 1 0
1  1 0 0 1.78765774029513
2  1 1 0 0 1.78765774029513
2  2 2 1 0 1.78765774029513
0

0101000
+182 0 -181 0 *
Ve
1.00001332641796e-07
17.8499999999995 -14.3452953960536 3.5
0 0

0101101
*
Ed
 1e-07 1 1 0
1  2 0 -3.5 -0
2  3 1 0 -3.5 -0
2  4 3 4 -3.5 -0
0

0101000
+179 0 -181 0 *
Ve
1.00001248196289e-07
-17.8499999999995 -14.3452953960535 3.5
0 0

0101101
*
Ed
 1e-07 1 1 0
1  3 0 3.14159265358979 4.92925039388482
2  5 1 0 3.14159265358979 4.92925039388482
2  6 4 0 3.14159265358979 4.92925039388482
2  7 5 0 3.14159265358979 4.92925039388482
2  8 6 8 3.14159265358979 4.92925039388482
0

0101000
+179 0 -177 0 *
Ed
 1e-07 1 1 0
1  4 0 -3.5 0
2  9 7 0 -3.5 0
2  10 8 11 -3.5 0
2  11 1 0 -3.5 0
0

0101000
+177 0 -182 0 *
Wi

0101100
-180 0 +178 0 -176 0 -175 0 *
Fa
0  1e-07 1 0

0101000
+174 0 *
Ve
1.00000398806946e-07
-17.8500000000002 -18.2106424927839 3.5
0 0

0101101
*
Ed
 1e-07 1 1 0
1  5 0 7.28935750721609 11.1547046039465
2  12 8 0 7.28935750721609 11.1547046039465
2  13 9 0 7.28935750721609 11.1547046039465
2  14 4 12 7.28935750721609 11.1547046039465
2  15 5 12 7.28935750721609 11.1547046039465
2  16 6 13 7.28935750721609 11.1547046039465
0

0101000
+172 12 -177 12 *
Ve
6.00000007324107e-07
-17.85 14.3452953960523 0
0 0

0101101
*
Ed
 6e-07 1 1 0
1  6 0 -1.59529539605232 27.0952953960523
2  17 2 1 -1.59529539605232 27.0952953960523
2  18 8 11 -1.59529539605232 27.0952953960523
0

0101000
+182 0 -170 0 *
Ve
1.00001256114161e-07
-17.8499999999995 14.3452953960535 3.5
0 0

0101101
*
Ed
 1e-07 1 1 0
1  7 0 -3.5 0
2  19 7 0 -3.5 0
2  20 8 11 -3.5 0
2  21 1 0 -3.5 0
0

0101000
+168 0 -170 0 *
Ve
1.00000390863094e-07
-17.8500000000002 18.2106424927839 3.5
0 0

0101101
*
Ed
 1e-07 1 1 0
1  5 0 39.8452953960535 43.7106424927839
2  12 8 0 39.8452953960535 43.7106424927839
2  13 9 0 39.8452953960535 43.7106424927839
2  22 4 12 39.8452953960535 43.7106424927839
2  23 5 12 39.8452953960535 43.7106424927839
2  24 6 13 39.8452953960535 43.7106424927839
0

0101000
+168 12 -166 12 *
Ve
1.00000438526346e-07
-17.8500000000002 18.2106424927839 -20.2
0 0

0101101
*
Ed
 1e-07 1 1 0
1  8 0 -23.7 0
2  25 8 11 -23.7 0
2  26 10 7 -23.7 0
0

0101000
+166 0 -164 0 *
Ve
1.00000435363282e-07
-17.8500000000002 -18.2106424927839 -20.2
0 0

0101101
*
Ed
 1e-07 1 1 0
1  9 0 7.28935750721612 43.7106424927839
2  27 8 0 7.28935750721612 43.7106424927839
2  28 11 0 7.28935750721612 43.7106424927839
2  29 6 14 7.28935750721612 43.7106424927839
0

0101000
+162 12 -164 12 *
Ed
 1e-07 1 1 0
1  10 0 -23.7 0
2  30 8 11 -23.7 0
2  31 10 7 -23.7 0
0

0101000
+172 0 -162 0 *
Wi

0101100
-171 11 -175 0 -169 0 +167 0 -165 11 -163 0 +161 11 +160 0 *
Fa
0  1e-07 8 11

0101000
+159 0 *
Ed
 1e-07 1 1 0
1  11 0 2.34619382340567 3.93699148377392
2  32 10 16 2.34619382340567 3.93699148377392
2  33 10 17 2.34619382340567 3.93699148377392
2  34 6 0 2.34619382340567 3.93699148377392
2  35 11 18 2.34619382340567 3.93699148377392
0

0101000
+164 19 -162 19 *
Wi

0101100
+161 11 +157 15 *
Ve
1.0000000041638e-07
-21.05 -4.163799117101e-16 -20.2
0 0

0101101
*
Ed
 1e-07 1 1 0
1  12 0 0 6.28318530717959
2  36 11 11 0 6.28318530717959
2  37 12 22 0 6.28318530717959
2  38 6 15 0 6.28318530717959
0

0101100
+155 0 -155 0 *
Wi

0101100
-154 0 *
Fa
0  1e-07 11 11

0101000
+156 0 +153 0 *
Ve
1.0000000041638e-07
-21.05 -4.163799117101e-16 -14.7
0 0

0101101
*
Ed
 1e-07 1 1 0
1  13 0 0 6.28318530717959
2  39 13 0 0 6.28318530717959
2  40 12 22 0 6.28318530717959
0

0101100
+151 0 -151 0 *
Ed
 1e-07 1 1 0
1  14 0 5.5 11
3  41 42CN 12 0 5.5 11
0

0101000
+155 23 -151 23 *
Wi

0101100
-150 0 +149 22 +154 0 -149 22 *
Fa
0  1e-07 12 22

0101000
+148 0 *
Ve
1.00000008343679e-07
-25.2586618806302 -3.5 -14.7
0 0

0101101
*
Ve
1.00000024585863e-07
-25.2586618806302 3.5 -14.7
0 0

0101101
*
Ed
 1e-07 1 1 0
1  15 0 3.00390310128556 3.27928220589402
2  43 13 0 3.00390310128556 3.27928220589402
2  44 10 7 3.00390310128556 3.27928220589402
0

0101000
+146 0 -145 0 *
Ve
1.0000000116861e-07
9 7 0
0 0

0101101
*
Ed
 1e-07 1 1 0
1  16 0 6.49133811936982 9
2  45 14 0 6.49133811936982 9
2  46 15 0 6.49133811936982 9
2  47 13 27 6.49133811936982 9
0

0101000
+145 27 -143 0 *
Ve
1.0000000116861e-07
9 0 0
0 0

0101101
*
Ed
 1e-07 1 1 0
1  17 0 0 3.14159265358979
2  48 16 0 0 3.14159265358979
2  49 13 0 0 3.14159265358979
0

0101000
+141 26 -143 26 *
Ed
 1e-07 1 1 0
1  18 0 6.49133811936982 9
2  50 17 0 6.49133811936982 9
2  51 15 0 6.49133811936982 9
2  52 13 27 6.49133811936982 9
0

0101000
+146 27 -141 0 *
Wi

0101100
-144 0 -142 26 +140 0 +139 26 *
Wi

0101100
-150 0 *
Fa
0  1e-07 13 0

0101000
+138 0 +137 0 *
Ve
1.5e-07
-22.75 -3.5 3.5
0 0

0101101
*
Ed
 1e-07 1 1 0
1  19 0 0 18.2
2  53 18 0 0 18.2
2  54 17 0 0 18.2
2  55 19 30 0 18.2
2  56 16 27 0 18.2
0

0101000
+141 0 -135 27 *
Ve
1.50001e-07
-25.2586618806304 -3.49999999999936 3.5
0 0

0101101
*
Ed
 1.5e-07 1 1 0
1  20 0 6.875 9.38366188063035
2  57 4 0 6.875 9.38366188063035
2  58 17 26 6.875 9.38366188063035
2  59 5 0 6.875 9.38366188063035
2  60 6 8 6.875 9.38366188063035
0

0101000
+135 0 -133 0 *
Ed
 1e-07 1 1 0
1  21 0 -23.7 -5.5
2  61 17 26 -23.7 -5.5
2  62 10 7 -23.7 -5.5
0

0101000
+133 0 -146 0 *
Wi

0101100
-139 26 -134 26 -132 0 -131 0 *
Fa
0  1e-07 17 26

0101000
+130 0 *
Ve
1.5e-07
-22.75 3.5 3.5
0 0

0101101
*
Ed
 1e-07 1 1 0
1  22 0 4.71238898038469 7.85398163397448
2  63 4 0 4.71238898038469 7.85398163397448
2  64 16 0 4.71238898038469 7.85398163397448
2  65 5 0 4.71238898038469 7.85398163397448
2  66 6 8 4.71238898038469 7.85398163397448
0

0101000
+135 0 -128 0 *
Ed
 1e-07 1 1 0
1  23 0 0 18.2
2  67 18 0 0 18.2
2  68 14 0 0 18.2
2  69 19 30 0 18.2
2  70 16 27 0 18.2
0

0101000
+143 0 -128 27 *
Wi

0101100
-134 26 -127 0 +126 26 +140 0 *
Fa
0  1e-07 16 0

0101000
+125 0 *
Ve
1.50001e-07
-25.2586618806304 3.49999999999936 3.5
0 0

0101101
*
Ed
 1.5e-07 1 1 0
1  24 0 6.875 9.38366188063035
2  71 4 0 6.875 9.38366188063035
2  72 14 26 6.875 9.38366188063035
2  73 5 0 6.875 9.38366188063035
2  74 6 8 6.875 9.38366188063035
0

0101000
+128 0 -123 0 *
Ed
 1e-07 1 1 0
1  25 0 -23.7 -5.5
2  75 14 26 -23.7 -5.5
2  76 10 7 -23.7 -5.5
0

0101000
+123 0 -145 0 *
Wi

0101100
-142 26 -126 26 -122 0 -121 0 *
Fa
0  1e-07 14 26

0101000
+120 0 *
Ed
 1e-07 1 1 0
1  11 0 3.279282205894 3.93699148377392
2  32 10 16 3.279282205894 3.93699148377392
2  33 10 17 3.279282205894 3.93699148377392
2  34 6 0 3.279282205894 3.93699148377392
2  77 5 31 3.279282205894 3.93699148377392
0

0101000
+133 31 -172 31 *
Ed
 1e-07 1 1 0
1  11 0 2.34619382340566 3.00390310128559
2  32 10 16 2.34619382340566 3.00390310128559
2  33 10 17 2.34619382340566 3.00390310128559
2  34 6 0 2.34619382340566 3.00390310128559
2  78 5 31 2.34619382340566 3.00390310128559
0

0101000
+166 31 -123 31 *
Wi

0101100
-157 15 +160 0 +118 8 -131 0 -144 0 +121 0 +117 8 -163 0 *
Fa
0  1e-07 10 7

0101000
+116 0 *
Ve
6.00000007324107e-07
17.85 14.3452953960523 0
0 0

0101101
*
Ed
 1e-07 1 1 0
1  1 0 3.14159265358979 4.92925039388493
2  1 1 0 3.14159265358979 4.92925039388493
2  79 2 1 3.14159265358979 4.92925039388493
0

0101000
+114 0 -170 0 *
Ve
1.00001331319902e-07
17.8499999999995 14.3452953960536 3.5
0 0

0101101
*
Ed
 1e-07 1 1 0
1  3 0 0 1.78765774029503
2  5 1 0 0 1.78765774029503
2  6 4 0 0 1.78765774029503
2  80 5 0 0 1.78765774029503
2  81 6 8 0 1.78765774029503
0

0101000
+168 0 -112 0 *
Ed
 1e-07 1 1 0
1  26 0 -3.5 0
2  82 1 0 -3.5 0
2  83 3 4 -3.5 0
0

0101000
+112 0 -114 0 *
Wi

0101100
-113 0 +167 0 -111 0 -110 0 *
Fa
0  1e-07 1 0

0101000
+109 0 *
Ve
1.00001124926269e-07
17.8499999999995 18.2106424927853 3.5
0 0

0101101
*
Ed
 1e-07 1 1 0
1  27 0 39.8452953960536 43.7106424927853
2  84 3 0 39.8452953960536 43.7106424927853
2  85 20 0 39.8452953960536 43.7106424927853
2  86 5 32 39.8452953960536 43.7106424927853
2  87 6 33 39.8452953960536 43.7106424927853
0

0101000
+112 32 -107 32 *
Ve
1.50001e-07
25.2586618806303 3.49999999999962 3.5
0 0

0101101
*
Ed
 1e-07 1 1 0
1  11 0 0.137689552304214 0.795398830184185
2  32 10 16 0.137689552304214 0.795398830184185
2  33 10 17 0.137689552304214 0.795398830184185
2  34 6 0 0.137689552304214 0.795398830184185
2  88 5 31 0.137689552304214 0.795398830184185
2  89 21 31 0.137689552304214 0.795398830184185
0

0101000
+105 31 -107 31 *
Ve
1.5e-07
22.75 3.5 3.5
0 0

0101101
*
Ed
 1.5e-07 1 1 0
1  28 0 -13.8836618806303 -11.375
2  90 5 0 -13.8836618806303 -11.375
2  91 22 36 -13.8836618806303 -11.375
2  92 6 8 -13.8836618806303 -11.375
0

0101000
+105 0 -103 0 *
Ve
1.5e-07
22.75 -3.5 3.5
0 0

0101101
*
Ed
 1e-07 1 1 0
1  29 0 1.5707963267949 4.71238898038469
2  93 5 0 1.5707963267949 4.71238898038469
2  94 23 39 1.5707963267949 4.71238898038469
2  95 6 8 1.5707963267949 4.71238898038469
0

0101000
+103 0 -101 0 *
Ve
1.50001e-07
25.2586618806303 -3.49999999999961 3.5
0 0

0101101
*
Ed
 1.5e-07 1 1 0
1  30 0 -13.8836618806303 -11.375
2  96 5 0 -13.8836618806303 -11.375
2  97 24 36 -13.8836618806303 -11.375
2  98 6 8 -13.8836618806303 -11.375
0

0101000
+99 0 -101 0 *
Ve
1.00001121763367e-07
17.8499999999995 -18.2106424927853 3.5
0 0

0101101
*
Ed
 1e-07 1 1 0
1  11 0 5.4877864769954 6.14549575487537
2  32 10 16 5.4877864769954 6.14549575487537
2  33 10 17 5.4877864769954 6.14549575487537
2  34 6 0 5.4877864769954 6.14549575487537
2  99 5 31 5.4877864769954 6.14549575487537
2  100 21 31 5.4877864769954 6.14549575487537
0

0101000
+97 31 -99 31 *
Ed
 1e-07 1 1 0
1  27 0 7.28935750721473 11.1547046039464
2  84 3 0 7.28935750721473 11.1547046039464
2  85 20 0 7.28935750721473 11.1547046039464
2  101 5 32 7.28935750721473 11.1547046039464
2  102 6 33 7.28935750721473 11.1547046039464
0

0101000
+97 32 -179 32 *
Wi

0101100
-111 0 -106 4 +104 8 -102 0 -100 0 +98 0 +96 8 -95 4 -176 0 +171 11 
+118 8 +132 0 -127 0 -122 0 +117 8 +165 11 *
Ve
1e-07
-11.3 -13 3.5
0 0

0101101
*
Ed
 1e-07 1 1 0
1  31 0 0 6.28318530717959
2  103 2 41 0 6.28318530717959
2  104 25 44 0 6.28318530717959
2  105 4 0 0 6.28318530717959
2  106 5 0 0 6.28318530717959
2  107 6 8 0 6.28318530717959
0

0101100
+93 0 -93 0 *
Wi

0101100
-92 0 *
Ve
1e-07
14.7 -13 3.5
0 0

0101101
*
Ed
 1e-07 1 1 0
1  32 0 0 6.28318530717959
2  108 2 41 0 6.28318530717959
2  109 26 47 0 6.28318530717959
2  110 4 0 0 6.28318530717959
2  111 5 0 0 6.28318530717959
2  112 6 8 0 6.28318530717959
0

0101100
+90 0 -90 0 *
Wi

0101100
-89 0 *
Ve
1e-07
-11.3 13 3.5
0 0

0101101
*
Ed
 1e-07 1 1 0
1  33 0 0 6.28318530717959
2  113 2 41 0 6.28318530717959
2  114 27 50 0 6.28318530717959
2  115 4 0 0 6.28318530717959
2  116 5 0 0 6.28318530717959
2  117 6 8 0 6.28318530717959
0

0101100
+87 0 -87 0 *
Wi

0101100
-86 0 *
Ve
1.00000002767702e-07
11.3 -2.76770176607302e-15 3.5
0 0

0101101
*
Ed
 1e-07 1 1 0
1  34 0 0 6.28318530717959
2  118 2 41 0 6.28318530717959
2  119 28 51 0 6.28318530717959
2  120 4 0 0 6.28318530717959
2  121 5 0 0 6.28318530717959
2  122 6 8 0 6.28318530717959
0

0101100
+84 0 -84 0 *
Wi

0101100
-83 0 *
Ve
1e-07
14.7 13 3.5
0 0

0101101
*
Ed
 1e-07 1 1 0
1  35 0 0 6.28318530717959
2  123 2 41 0 6.28318530717959
2  124 29 54 0 6.28318530717959
2  125 4 0 0 6.28318530717959
2  126 5 0 0 6.28318530717959
2  127 6 8 0 6.28318530717959
0

0101100
+81 0 -81 0 *
Wi

0101100
-80 0 *
Fa
0  1e-07 5 0

0101000
+94 0 +91 0 +88 0 +85 0 +82 0 +79 0 *
Ve
1e-07
14.7 13 0
0 0

0101101
*
Ed
 1e-07 1 1 0
1  36 0 5.25 8.75
3  128 129CN 29 0 5.25 8.75
0

0101000
+77 55 -81 55 *
Ed
 1e-07 1 1 0
1  37 0 0 6.28318530717959
2  130 2 1 0 6.28318530717959
2  131 29 54 0 6.28318530717959
0

0101100
+77 0 -77 0 *
Wi

0101100
-80 0 +76 54 +75 0 -76 54 *
Fa
0  1e-07 29 54

0101000
+74 0 *
Ve
1.00000002767702e-07
11.3 -2.76770176607302e-15 0
0 0

0101101
*
Ed
 1e-07 1 1 0
1  38 0 5.25 8.75
3  132 133CN 28 0 5.25 8.75
0

0101000
+72 56 -84 56 *
Ed
 1e-07 1 1 0
1  39 0 0 6.28318530717959
2  134 2 1 0 6.28318530717959
2  135 28 51 0 6.28318530717959
0

0101100
+72 0 -72 0 *
Wi

0101100
-83 0 +71 51 +70 0 -71 51 *
Fa
0  1e-07 28 51

0101000
+69 0 *
Ve
1e-07
-11.3 13 0
0 0

0101101
*
Ed
 1e-07 1 1 0
1  40 0 5.25 8.75
3  136 137CN 27 0 5.25 8.75
0

0101000
+67 57 -87 57 *
Ed
 1e-07 1 1 0
1  41 0 0 6.28318530717959
2  138 2 1 0 6.28318530717959
2  139 27 50 0 6.28318530717959
0

0101100
+67 0 -67 0 *
Wi

0101100
-86 0 +66 50 +65 0 -66 50 *
Fa
0  1e-07 27 50

0101000
+64 0 *
Ve
1e-07
14.7 -13 0
0 0

0101101
*
Ed
 1e-07 1 1 0
1  42 0 5.25 8.75
3  140 141CN 26 0 5.25 8.75
0

0101000
+62 58 -90 58 *
Ed
 1e-07 1 1 0
1  43 0 0 6.28318530717959
2  142 2 1 0 6.28318530717959
2  143 26 47 0 6.28318530717959
0

0101100
+62 0 -62 0 *
Wi

0101100
-89 0 +61 47 +60 0 -61 47 *
Fa
0  1e-07 26 47

0101000
+59 0 *
Ve
1e-07
-11.3 -13 0
0 0

0101101
*
Ed
 1e-07 1 1 0
1  44 0 5.25 8.75
3  144 145CN 25 0 5.25 8.75
0

0101000
+57 59 -93 59 *
Ed
 1e-07 1 1 0
1  45 0 0 6.28318530717959
2  146 2 1 0 6.28318530717959
2  147 25 44 0 6.28318530717959
0

0101100
+57 0 -57 0 *
Wi

0101100
-92 0 +56 44 +55 0 -56 44 *
Fa
0  1e-07 25 44

0101000
+54 0 *
Ve
1.0000000116861e-07
0 0 0
0 0

0101101
*
Ve
1.00000000444089e-07
25.2586618806302 -3.5 -14.7
0 0

0101101
*
Ed
 1e-07 1 1 0
1  46 0 0 2.50866188063018
2  148 24 0 0 2.50866188063018
2  149 30 0 0 2.50866188063018
2  150 31 60 0 2.50866188063018
0

0101000
+52 0 -51 60 *
Ed
 1e-07 1 1 0
1  47 0 -23.7 -5.5
2  151 24 36 -23.7 -5.5
2  152 10 7 -23.7 -5.5
2  153 21 0 -23.7 -5.5
0

0101000
+99 0 -51 0 *
Ed
 1e-07 1 1 0
1  48 0 0 18.2
2  154 32 0 0 18.2
2  155 24 0 0 18.2
2  156 23 61 0 18.2
0

0101000
+52 0 -101 60 *
Wi

0101100
-50 36 +49 0 -98 0 +48 36 *
Fa
0  1e-07 24 36

0101000
+47 0 *
Ve
1.0000000116861e-07
0 7 0
0 0

0101101
*
Ve
1.00000012434498e-07
25.2586618806302 3.5 -14.7
0 0

0101101
*
Ed
 1e-07 1 1 0
1  49 0 0 2.50866188063018
2  157 22 0 0 2.50866188063018
2  158 30 0 0 2.50866188063018
2  159 31 60 0 2.50866188063018
0

0101000
+45 0 -44 60 *
Ed
 1e-07 1 1 0
1  50 0 1.5707963267949 4.71238898038469
2  160 23 0 1.5707963267949 4.71238898038469
2  161 33 0 1.5707963267949 4.71238898038469
2  162 31 62 1.5707963267949 4.71238898038469
0

0101000
+45 63 -52 63 *
Ed
 1e-07 1 1 0
1  51 0 0 0.275379104608458
2  163 21 0 0 0.275379104608458
0

0101000
+44 0 -51 0 *
Wi

0101100
-43 36 +42 39 +50 36 -41 0 *
Ve
1.0000000041638e-07
24.45 -4.163799117101e-16 -14.7
0 0

0101101
*
Ed
 1e-07 1 1 0
1  52 0 0 6.28318530717959
2  164 31 0 0 6.28318530717959
2  165 34 66 0 6.28318530717959
0

0101100
+39 0 -39 0 *
Wi

0101100
-38 0 *
Fa
0  1e-07 31 0

0111000
+40 0 +37 0 *
Ve
1.0000000041638e-07
24.45 -4.163799117101e-16 -20.2
0 0

0101101
*
Ed
 1e-07 1 1 0
1  53 0 5.5 11
3  166 167CN 34 0 5.5 11
0

0101000
+35 67 -39 67 *
Ed
 1e-07 1 1 0
1  54 0 0 6.28318530717959
2  168 35 4 0 6.28318530717959
2  169 34 66 0 6.28318530717959
2  170 6 15 0 6.28318530717959
0

0101100
+35 0 -35 0 *
Wi

0101100
-38 0 +34 66 +33 0 -34 66 *
Fa
0  1e-07 34 66

0101000
+32 0 *
Ve
1.00000231989755e-07
17.8499999999999 -18.2106424927845 -20.2
0 0

0101101
*
Ve
1.00000231989755e-07
17.8499999999999 18.2106424927845 -20.2
0 0

0101101
*
Ed
 1e-07 1 1 0
1  55 0 7.28935750721553 43.7106424927845
2  171 3 0 7.28935750721553 43.7106424927845
2  172 35 0 7.28935750721553 43.7106424927845
2  173 6 68 7.28935750721553 43.7106424927845
0

0101000
+30 32 -29 32 *
Ed
 1e-07 1 1 0
1  56 0 0 1.5907976603683
2  174 21 0 0 1.5907976603683
0

0101000
+30 0 -29 0 *
Wi

0101100
-28 4 +27 0 *
Wi

0101100
-33 0 *
Fa
0  1e-07 35 4

0111000
+26 0 +25 0 *
Ed
 1e-07 1 1 0
1  57 0 0 18.2
2  175 32 0 0 18.2
2  176 22 0 0 18.2
2  177 23 61 0 18.2
0

0101000
+45 0 -103 60 *
Wi

0101100
-100 0 +48 36 +42 39 -23 36 *
Fa
0  1e-07 23 39

0101000
+22 0 *
Ed
 1e-07 1 1 0
1  58 0 -23.7 -5.5
2  178 22 36 -23.7 -5.5
2  179 10 7 -23.7 -5.5
2  180 21 0 -23.7 -5.5
0

0101000
+105 0 -44 0 *
Wi

0101100
-43 36 +20 0 -102 0 +23 36 *
Fa
0  1e-07 22 36

0101000
+19 0 *
Ed
 1e-07 1 1 0
1  59 0 -23.7 0
2  181 3 4 -23.7 0
2  182 10 7 -23.7 0
2  183 21 0 -23.7 0
0

0101000
+97 0 -30 0 *
Ed
 1e-07 1 1 0
1  60 0 -23.7 0
2  184 3 4 -23.7 0
2  185 10 7 -23.7 0
2  186 21 0 -23.7 0
0

0101000
+107 0 -29 0 *
Wi

0101100
-27 0 -17 0 +96 8 +49 0 -41 0 -20 0 +104 8 +16 0 *
Fa
0  0 21 0

0111000
+15 0 *
Ed
 6e-07 1 1 0
1  61 0 -1.59529539605232 27.0952953960523
2  187 2 1 -1.59529539605232 27.0952953960523
2  188 3 4 -1.59529539605232 27.0952953960523
0

0101000
+181 0 -114 0 *
Wi

0101100
-95 4 -178 0 -13 0 +110 0 -106 4 -16 0 +28 4 +17 0 *
Fa
0  1e-07 3 4

0101000
+12 0 *
Wi

0101100
-169 0 +113 0 +13 0 +180 0 *
Wi

0101100
-55 0 *
Wi

0101100
-60 0 *
Wi

0101100
-65 0 *
Wi

0101100
-70 0 *
Wi

0101100
-75 0 *
Fa
0  1e-07 2 1

0101000
+10 0 +9 0 +8 0 +7 0 +6 0 +5 0 *
Sh

0101100
-173 0 +158 0 -152 0 -147 0 +136 0 +129 0 -124 0 -119 0 -115 0 -108 0 
+78 0 -73 0 -68 0 -63 0 -58 0 -53 0 +46 0 +36 0 -31 0 -24 0 
-21 0 -18 0 -14 0 -11 0 -4 0 *
So

0100000
+3 0 *
Co

1100000
+2 0 *

+1 0 