DBRep_DrawableShape

CASCADE Topology V3, (c) Open Cascade
Locations 1
1
              1               0               0               0 
              0               1               0               0 
              0               0               1               1 
Curve2ds 0
Curves 32
1 -19.5 0 0 0 0 1 
1 19.5 0 0 0 0 1 
1 -19.5 0 0 1 0 0 
1 19.5 1.2 0 0 0 1 
1 19.5 0 0 0 1 0 
1 21.5 1.2 0 0 0 1 
1 19.5 1.2 0 1 0 0 
1 21.5 2.3999999999999999 0 0 0 1 
1 21.5 1.2 0 0 1 0 
1 19.5 2.3999999999999999 0 0 0 1 
1 21.5 2.3999999999999999 0 -1 0 0 
1 19.5 18 0 0 0 1 
1 19.5 2.3999999999999999 0 0 1 0 
1 21.5 18 0 0 0 1 
1 19.5 18 0 1 0 0 
1 21.5 35 0 0 0 1 
1 21.5 18 0 0 1 0 
1 -21.5 35 0 0 0 1 
1 21.5 35 0 -1 0 0 
1 -21.5 18 0 0 0 1 
1 -21.5 35 0 0 -1 0 
1 -19.5 18 0 0 0 1 
1 -21.5 18 0 1 0 0 
1 -19.5 2.3999999999999999 0 0 0 1 
1 -19.5 18 0 0 -1 0 
1 -21.5 2.3999999999999999 0 0 0 1 
1 -19.5 2.3999999999999999 0 -1 0 0 
1 -21.5 1.2 0 0 0 1 
1 -21.5 2.3999999999999999 0 0 -1 0 
1 -19.5 1.2 0 0 0 1 
1 -21.5 1.2 0 1 0 0 
1 -19.5 1.2 0 0 -1 0 
Polygon3D 0
PolygonOnTriangulations 0
Surfaces 17
1 -19.5 0 0 0 1 0 1 0 0 0 0 -1 
1 19.5 0 0 -1 0 0 0 1 0 0 0 -1 
1 19.5 1.2 0 0 1 0 1 0 0 0 0 -1 
1 21.5 1.2 0 -1 0 0 0 1 0 0 0 -1 
1 21.5 2.3999999999999999 0 0 -1 0 -1 0 0 -0 -0 -1 
1 19.5 2.3999999999999999 0 -1 0 0 0 1 0 0 0 -1 
1 19.5 18 0 0 1 0 1 0 0 0 0 -1 
1 21.5 18 0 -1 0 0 0 1 0 0 0 -1 
1 21.5 35 0 0 -1 0 -1 0 0 -0 -0 -1 
1 -21.5 35 0 1 0 -0 0 -1 0 0 -0 -1 
1 -21.5 18 0 0 1 0 1 0 0 0 0 -1 
1 -19.5 18 0 1 0 -0 0 -1 0 0 -0 -1 
1 -19.5 2.3999999999999999 0 0 -1 0 -1 0 0 -0 -0 -1 
1 -21.5 2.3999999999999999 0 1 0 -0 0 -1 0 0 -0 -1 
1 -21.5 1.2 0 0 1 0 1 0 0 0 0 -1 
1 -19.5 1.2 0 1 0 -0 0 -1 0 0 -0 -1 
1 3.8993198913664035e-16 17.173170731707312 0 0 0 1 1 0 -0 -0 1 0 
Triangulations 0

TShapes 85
Ve
1e-07
-19.5 0 0
0 0

0101101
*
Ed
 1e-07 1 1 0
1  1 0 0 1
0

0101000
+85 0 -85 1 *
Ve
1e-07
19.5 0 0
0 0

0101101
*
Ed
 1e-07 1 1 0
1  2 0 0 1
0

0101000
+83 0 -83 1 *
Ed
 1e-07 1 1 0
1  3 0 0 39
0

0101000
+85 0 -83 0 *
Wi

0101100
+84 0 -82 0 -81 0 +81 1 *
Fa
0  1e-07 1 0

0101000
+80 0 *
Ve
1e-07
19.5 1.2 0
0 0

0101101
*
Ed
 1e-07 1 1 0
1  4 0 0 1
0

0101000
+78 0 -78 1 *
Ed
 1e-07 1 1 0
1  5 0 0 1.2
0

0101000
+83 0 -78 0 *
Wi

0101100
+82 0 -77 0 -76 0 +76 1 *
Fa
0  1e-07 2 0

0101000
+75 0 *
Ve
1e-07
21.5 1.2 0
0 0

0101101
*
Ed
 1e-07 1 1 0
1  6 0 0 1
0

0101000
+73 0 -73 1 *
Ed
 1e-07 1 1 0
1  7 0 0 2
0

0101000
+78 0 -73 0 *
Wi

0101100
+77 0 -72 0 -71 0 +71 1 *
Fa
0  1e-07 3 0

0101000
+70 0 *
Ve
1e-07
21.5 2.4 0
0 0

0101101
*
Ed
 1e-07 1 1 0
1  8 0 0 1
0

0101000
+68 0 -68 1 *
Ed
 1e-07 1 1 0
1  9 0 0 1.2
0

0101000
+73 0 -68 0 *
Wi

0101100
+72 0 -67 0 -66 0 +66 1 *
Fa
0  1e-07 4 0

0101000
+65 0 *
Ve
1e-07
19.5 2.4 0
0 0

0101101
*
Ed
 1e-07 1 1 0
1  10 0 0 1
0

0101000
+63 0 -63 1 *
Ed
 1e-07 1 1 0
1  11 0 0 2
0

0101000
+68 0 -63 0 *
Wi

0101100
+67 0 -62 0 -61 0 +61 1 *
Fa
0  1e-07 5 0

0101000
+60 0 *
Ve
1e-07
19.5 18 0
0 0

0101101
*
Ed
 1e-07 1 1 0
1  12 0 0 1
0

0101000
+58 0 -58 1 *
Ed
 1e-07 1 1 0
1  13 0 0 15.6
0

0101000
+63 0 -58 0 *
Wi

0101100
+62 0 -57 0 -56 0 +56 1 *
Fa
0  1e-07 6 0

0101000
+55 0 *
Ve
1e-07
21.5 18 0
0 0

0101101
*
Ed
 1e-07 1 1 0
1  14 0 0 1
0

0101000
+53 0 -53 1 *
Ed
 1e-07 1 1 0
1  15 0 0 2
0

0101000
+58 0 -53 0 *
Wi

0101100
+57 0 -52 0 -51 0 +51 1 *
Fa
0  1e-07 7 0

0101000
+50 0 *
Ve
1e-07
21.5 35 0
0 0

0101101
*
Ed
 1e-07 1 1 0
1  16 0 0 1
0

0101000
+48 0 -48 1 *
Ed
 1e-07 1 1 0
1  17 0 0 17
0

0101000
+53 0 -48 0 *
Wi

0101100
+52 0 -47 0 -46 0 +46 1 *
Fa
0  1e-07 8 0

0101000
+45 0 *
Ve
1e-07
-21.5 35 0
0 0

0101101
*
Ed
 1e-07 1 1 0
1  18 0 0 1
0

0101000
+43 0 -43 1 *
Ed
 1e-07 1 1 0
1  19 0 0 43
0

0101000
+48 0 -43 0 *
Wi

0101100
+47 0 -42 0 -41 0 +41 1 *
Fa
0  1e-07 9 0

0101000
+40 0 *
Ve
1e-07
-21.5 18 0
0 0

0101101
*
Ed
 1e-07 1 1 0
1  20 0 0 1
0

0101000
+38 0 -38 1 *
Ed
 1e-07 1 1 0
1  21 0 0 17
0

0101000
+43 0 -38 0 *
Wi

0101100
+42 0 -37 0 -36 0 +36 1 *
Fa
0  1e-07 10 0

0101000
+35 0 *
Ve
1e-07
-19.5 18 0
0 0

0101101
*
Ed
 1e-07 1 1 0
1  22 0 0 1
0

0101000
+33 0 -33 1 *
Ed
 1e-07 1 1 0
1  23 0 0 2
0

0101000
+38 0 -33 0 *
Wi

0101100
+37 0 -32 0 -31 0 +31 1 *
Fa
0  1e-07 11 0

0101000
+30 0 *
Ve
1e-07
-19.5 2.4 0
0 0

0101101
*
Ed
 1e-07 1 1 0
1  24 0 0 1
0

0101000
+28 0 -28 1 *
Ed
 1e-07 1 1 0
1  25 0 0 15.6
0

0101000
+33 0 -28 0 *
Wi

0101100
+32 0 -27 0 -26 0 +26 1 *
Fa
0  1e-07 12 0

0101000
+25 0 *
Ve
1e-07
-21.5 2.4 0
0 0

0101101
*
Ed
 1e-07 1 1 0
1  26 0 0 1
0

0101000
+23 0 -23 1 *
Ed
 1e-07 1 1 0
1  27 0 0 2
0

0101000
+28 0 -23 0 *
Wi

0101100
+27 0 -22 0 -21 0 +21 1 *
Fa
0  1e-07 13 0

0101000
+20 0 *
Ve
1e-07
-21.5 1.2 0
0 0

0101101
*
Ed
 1e-07 1 1 0
1  28 0 0 1
0

0101000
+18 0 -18 1 *
Ed
 1e-07 1 1 0
1  29 0 0 1.2
0

0101000
+23 0 -18 0 *
Wi

0101100
+22 0 -17 0 -16 0 +16 1 *
Fa
0  1e-07 14 0

0101000
+15 0 *
Ve
1e-07
-19.5 1.2 0
0 0

0101101
*
Ed
 1e-07 1 1 0
1  30 0 0 1
0

0101000
+13 0 -13 1 *
Ed
 1e-07 1 1 0
1  31 0 0 2
0

0101000
+18 0 -13 0 *
Wi

0101100
+17 0 -12 0 -11 0 +11 1 *
Fa
0  1e-07 15 0

0101000
+10 0 *
Ed
 1e-07 1 1 0
1  32 0 0 1.2
0

0101000
+13 0 -85 0 *
Wi

0101100
+12 0 -84 0 -8 0 +8 1 *
Fa
0  1e-07 16 0

0101000
+7 0 *
Wi

0101100
+81 0 +76 0 +71 0 +66 0 +61 0 +56 0 +51 0 +46 0 +41 0 +36 0 
+31 0 +26 0 +21 0 +16 0 +11 0 +8 0 *
Fa
0  1e-07 17 0

0111000
+5 0 *
Sh

0101100
+79 0 +74 0 +69 0 +64 0 +59 0 +54 0 +49 0 +44 0 +39 0 +34 0 
+29 0 +24 0 +19 0 +14 0 +9 0 +6 0 +4 0 -4 1 *
So

0100000
-3 0 *
Co

1100000
+2 0 *

+1 0 