DBRep_DrawableShape

CASCADE Topology V3, (c) Open Cascade
Locations 63
1
              1               0               0              -0 
              0               1               0              -0 
              0               0               1              -1 
1
              1               0               0               0 
              0               1               0               0 
              0               0               1               1 
2  1 1 2 1 0
1
              1               0               0              -0 
              0               1               0              -0 
              0               0               1            -7.5 
1
              1               0               0               0 
              0               1               0               0 
              0               0               1             9.5 
2  4 1 5 1 0
2  1 1 2 1 5 -1 4 -1 0
1
              1               0               0              -0 
              0               1               0              -0 
              0               0               1          -0.625 
1
              1               0               0               0 
              0               1               0               0 
              0               0               1           4.375 
2  8 1 9 1 0
2  4 1 5 1 9 -1 8 -1 0
2  8 1 9 1 5 -1 4 -1 0
1
              1               0               0              -0 
              0               1               0              -0 
              0               0               1          -0.625 
1
              1               0               0               0 
              0               1               0               0 
              0               0               1           5.625 
2  13 1 14 1 9 -1 8 -1 0
2  9 -1 8 -1 0
2  13 1 14 1 0
2  4 1 5 1 14 -1 13 -1 0
2  14 -1 13 -1 0
2  13 1 14 1 5 -1 4 -1 0
1
              1               0               0              -0 
              0               1               0              -0 
              0               0               1          -0.625 
1
              1               0               0               0 
              0               1               0               0 
              0               0               1           7.375 
2  21 1 22 1 5 -1 4 -1 0
2  21 1 22 1 0
2  4 1 5 1 22 -1 21 -1 0
1
              1               0               0              -0 
              0               1               0              -0 
              0               0               1          -0.625 
1
              1               0               0               0 
              0               1               0               0 
              0               0               1           8.625 
2  26 1 27 1 22 -1 21 -1 0
2  22 -1 21 -1 0
2  26 1 27 1 0
2  4 1 5 1 27 -1 26 -1 0
2  27 -1 26 -1 0
2  26 1 27 1 5 -1 4 -1 0
1
              1               0               0              -0 
              0               1               0              -0 
              0               0               1          -0.625 
1
              1               0               0               0 
              0               1               0               0 
              0               0               1          10.375 
2  34 1 35 1 5 -1 4 -1 0
2  34 1 35 1 0
2  4 1 5 1 35 -1 34 -1 0
1
              1               0               0              -0 
              0               1               0              -0 
              0               0               1          -0.625 
1
              1               0               0               0 
              0               1               0               0 
              0               0               1          11.625 
2  39 1 40 1 35 -1 34 -1 0
2  35 -1 34 -1 0
2  39 1 40 1 0
2  4 1 5 1 40 -1 39 -1 0
2  40 -1 39 -1 0
2  39 1 40 1 5 -1 4 -1 0
1
              1               0               0              -0 
              0               1               0              -0 
              0               0               1          -0.625 
1
              1               0               0               0 
              0               1               0               0 
              0               0               1          13.375 
2  47 1 48 1 5 -1 4 -1 0
2  47 1 48 1 0
2  4 1 5 1 48 -1 47 -1 0
1
              1               0               0              -0 
              0               1               0              -0 
              0               0               1          -0.625 
1
              1               0               0               0 
              0               1               0               0 
              0               0               1          14.625 
2  52 1 53 1 48 -1 47 -1 0
2  48 -1 47 -1 0
2  52 1 53 1 0
2  4 1 5 1 53 -1 52 -1 0
2  53 -1 52 -1 0
2  52 1 53 1 5 -1 4 -1 0
1
              1               0               0              -0 
              0               1               0              -0 
              0               0               1            -7.5 
1
              1               0               0               0 
              0               1               0               0 
              0               0               1             9.5 
2  60 1 61 1 0
2  4 1 5 1 61 -1 60 -1 0
Curve2ds 76
1 0 2 1 0 
2 0 0 1 0 -0 1 23
1 6.2831853071795862 -0 0 1 
1 0 -0 0 1 
1 0 0 1 0 
2 0 0 1 0 -0 1 23
1 0 0 1 0 
2 0 0 1 0 -0 1 18.875
2 0 0 1 0 -0 1 18.875
1 0 0 1 0 
2 0 0 1 0 -0 1 18.875
1 0 1.75 1 0 
1 6.2831853071795862 -0 0 1 
1 0 -0 0 1 
1 0 1.6007810593582121 1 0 
2 0 0 1 0 -0 1 19.875
8 0 6.2831853071795862
1 0 0 1 0 
2 0 0 1 0 -0 1 19.875
1 6.2831853071795862 -0 0 1 
1 0 -0 0 1 
1 0 1.6007810593582121 1 0 
2 0 0 1 0 -0 1 18.875
1 0 4.25 1 0 
1 6.2831853071795862 -0 0 1 
1 0 -0 0 1 
1 0 0 1 0 
2 0 0 1 0 -0 1 18.875
1 0 4.75 1 0 
1 0 1.6007810593582121 1 0 
2 0 0 1 0 -0 1 19.875
8 0 6.2831853071795862
1 0 0 1 0 
2 0 0 1 0 -0 1 19.875
1 6.2831853071795862 -0 0 1 
1 0 -0 0 1 
1 0 1.6007810593582121 1 0 
2 0 0 1 0 -0 1 18.875
1 0 7.25 1 0 
1 6.2831853071795862 -0 0 1 
1 0 -0 0 1 
1 0 0 1 0 
2 0 0 1 0 -0 1 18.875
1 0 7.75 1 0 
1 0 1.6007810593582121 1 0 
2 0 0 1 0 -0 1 19.875
8 0 6.2831853071795862
1 0 0 1 0 
2 0 0 1 0 -0 1 19.875
1 6.2831853071795862 -0 0 1 
1 0 -0 0 1 
1 0 1.6007810593582121 1 0 
2 0 0 1 0 -0 1 18.875
1 0 10.25 1 0 
1 6.2831853071795862 -0 0 1 
1 0 -0 0 1 
1 0 0 1 0 
2 0 0 1 0 -0 1 18.875
1 0 10.75 1 0 
1 0 1.6007810593582121 1 0 
2 0 0 1 0 -0 1 19.875
8 0 6.2831853071795862
1 0 0 1 0 
2 0 0 1 0 -0 1 19.875
1 6.2831853071795862 -0 0 1 
1 0 -0 0 1 
1 0 1.6007810593582121 1 0 
2 0 0 1 0 -0 1 18.875
1 0 13.25 1 0 
1 6.2831853071795862 -0 0 1 
1 0 -0 0 1 
1 0 15 1 0 
2 0 0 1 0 -0 1 18.875
1 0 15 1 0 
2 0 0 1 0 -0 1 16.875
2 0 0 1 0 -0 1 16.875
1 6.2831853071795862 -0 0 1 
1 0 -0 0 1 
1 0 0 1 0 
2 0 0 1 0 -0 1 16.875
Curves 29
2 0 0 2 0 0 1 1 0 -0 -0 1 0 23
1 23 -5.6333752760778247e-15 0 0 0 1 
2 0 0 0 0 0 1 1 0 -0 -0 1 0 23
2 0 0 0 0 0 1 1 0 -0 -0 1 0 18.875
2 0 0 0 0 0 1 1 0 -0 -0 1 0 18.875
1 18.875 -4.6230416667812582e-15 0 0 0 1 
2 0 0 1.25 0 0 1 1 0 -0 -0 1 0 19.875
1 18.875 -4.6230416667812582e-15 0 0.6246950475544244 -1.5300615808614589e-16 0.78086880944303039 
2 0 0 1.25 0 0 1 1 0 -0 -0 1 0 18.875
1 19.875 -4.8679710266107292e-15 0 -0.6246950475544244 1.5300615808614589e-16 0.78086880944303039 
2 0 0 0 0 0 1 1 0 -0 -0 1 0 18.875
2 0 0 1.25 0 0 1 1 0 -0 -0 1 0 19.875
1 18.875 -4.6230416667812582e-15 0 0.6246950475544244 -1.5300615808614589e-16 0.78086880944303039 
2 0 0 1.25 0 0 1 1 0 -0 -0 1 0 18.875
1 19.875 -4.8679710266107292e-15 0 -0.6246950475544244 1.5300615808614589e-16 0.78086880944303039 
2 0 0 0 0 0 1 1 0 -0 -0 1 0 18.875
2 0 0 1.25 0 0 1 1 0 -0 -0 1 0 19.875
1 18.875 -4.6230416667812582e-15 0 0.6246950475544244 -1.5300615808614589e-16 0.78086880944303039 
2 0 0 1.25 0 0 1 1 0 -0 -0 1 0 18.875
1 19.875 -4.8679710266107292e-15 0 -0.6246950475544244 1.5300615808614589e-16 0.78086880944303039 
2 0 0 0 0 0 1 1 0 -0 -0 1 0 18.875
2 0 0 1.25 0 0 1 1 0 -0 -0 1 0 19.875
1 18.875 -4.6230416667812582e-15 0 0.6246950475544244 -1.5300615808614589e-16 0.78086880944303039 
2 0 0 1.25 0 0 1 1 0 -0 -0 1 0 18.875
1 19.875 -4.8679710266107292e-15 0 -0.6246950475544244 1.5300615808614589e-16 0.78086880944303039 
2 0 0 15 0 0 1 1 0 -0 -0 1 0 18.875
2 0 0 15 0 0 1 1 0 -0 -0 1 0 16.875
1 16.875 -4.1331829471223168e-15 0 0 0 1 
2 0 0 0 0 0 1 1 0 -0 -0 1 0 16.875
Polygon3D 0
PolygonOnTriangulations 0
Surfaces 33
2 0 0 0 0 0 1 1 0 -0 -0 1 0 23
1 0 0 2 0 0 1 1 0 -0 -0 1 0 
1 0 0 0 0 0 1 1 0 -0 -0 1 0 
2 0 0 0 0 0 1 1 0 -0 -0 1 0 18.875
1 0 0 0 0 0 1 1 0 -0 -0 1 0 
3 0 0 0 0 0 1 1 0 -0 -0 1 0 18.875
0.67474094222355274
1 0 0 0 0 0 1 1 0 -0 -0 1 0 
1 0 0 1.25 0 0 1 1 0 -0 -0 1 0 
3 0 0 0 0 0 1 1 0 -0 -0 1 0 19.875
-0.67474094222355274
1 0 0 0 0 0 1 1 0 -0 -0 1 0 
1 0 0 1.25 0 0 1 1 0 -0 -0 1 0 
3 0 0 0 0 0 1 1 0 -0 -0 1 0 18.875
0.67474094222355274
1 0 0 0 0 0 1 1 0 -0 -0 1 0 
1 0 0 1.25 0 0 1 1 0 -0 -0 1 0 
3 0 0 0 0 0 1 1 0 -0 -0 1 0 19.875
-0.67474094222355274
1 0 0 0 0 0 1 1 0 -0 -0 1 0 
1 0 0 1.25 0 0 1 1 0 -0 -0 1 0 
3 0 0 0 0 0 1 1 0 -0 -0 1 0 18.875
0.67474094222355274
1 0 0 0 0 0 1 1 0 -0 -0 1 0 
1 0 0 1.25 0 0 1 1 0 -0 -0 1 0 
3 0 0 0 0 0 1 1 0 -0 -0 1 0 19.875
-0.67474094222355274
1 0 0 0 0 0 1 1 0 -0 -0 1 0 
1 0 0 1.25 0 0 1 1 0 -0 -0 1 0 
3 0 0 0 0 0 1 1 0 -0 -0 1 0 18.875
0.67474094222355274
1 0 0 0 0 0 1 1 0 -0 -0 1 0 
1 0 0 1.25 0 0 1 1 0 -0 -0 1 0 
3 0 0 0 0 0 1 1 0 -0 -0 1 0 19.875
-0.67474094222355274
1 0 0 0 0 0 1 1 0 -0 -0 1 0 
1 0 0 1.25 0 0 1 1 0 -0 -0 1 0 
1 0 0 15 0 0 1 1 0 -0 -0 1 0 
2 0 0 0 0 0 1 1 0 -0 -0 1 0 16.875
1 0 0 15 0 0 1 1 0 -0 -0 1 0 
1 0 0 0 0 0 1 1 0 -0 -0 1 0 
Triangulations 0

TShapes 94
Ve
1e-07
23 -5.63337527607782e-15 2
0 0

0101101
*
Ed
 1e-07 1 1 0
1  1 0 0 6.28318530717959
2  1 1 0 0 6.28318530717959
2  2 2 0 0 6.28318530717959
0

0101000
+94 0 -94 0 *
Ve
1e-07
23 -5.63337527607782e-15 0
0 0

0101101
*
Ed
 1e-07 1 1 0
1  2 0 0 2
3  3 4CN 1 0 0 2
0

0101000
-94 0 +92 0 *
Ed
 1e-07 1 1 0
1  3 0 0 6.28318530717959
2  5 1 0 0 6.28318530717959
2  6 3 0 0 6.28318530717959
0

0101000
+92 0 -92 0 *
Wi

0101100
-93 0 +91 0 +90 0 -91 0 *
Fa
0  1e-07 1 0

0111000
+89 0 *
Wi

0101100
+93 3 *
Ve
1e-07
18.875 -4.62304166678126e-15 0
0 0

0101101
*
Ed
 1e-07 1 1 0
1  4 0 0 6.28318530717959
2  7 4 0 0 6.28318530717959
2  8 5 0 0 6.28318530717959
2  9 2 7 0 6.28318530717959
0

0101000
+86 0 -86 0 *
Wi

0101100
-85 6 *
Fa
0  1e-07 2 3

0101000
+87 0 +84 0 *
Wi

0101100
-90 0 *
Fa
0  1e-07 3 0

0111000
-82 0 *
Ve
1.00000014321447e-07
18.875 -4.62304166678126e-15 0
0 0

0101101
*
Ed
 1.00000014321447e-07 1 1 0
1  5 0 0 6.28318530717959
2  10 6 0 0 6.28318530717959
2  11 7 0 0 6.28318530717959
2  12 4 11 0 6.28318530717959
0

0101000
+80 0 -80 0 *
Ed
 1e-07 1 1 0
1  6 0 0 1.75
3  13 14CN 4 0 0 1.75
0

0101000
+86 0 -80 12 *
Wi

0101100
-79 10 +78 6 +85 6 -78 6 *
Fa
0  1e-07 4 6

0101000
+77 0 *
Ve
1.00000014321447e-07
19.875 -4.86797102661073e-15 5
0 0

0101101
*
Ed
 1.00000014321447e-07 1 1 0
1  7 0 0 6.28318530717959
2  15 6 0 0 6.28318530717959
2  16 8 0 0 6.28318530717959
2  17 9 15 0 6.28318530717959
2  18 10 15 0 6.28318530717959
0

0101000
+75 16 -75 16 *
Ed
 1e-07 1 1 0
1  8 0 0 1.60078105935821
3  19 20CN 6 0 0 1.60078105935821
0

0101000
+80 0 -75 16 *
Wi

0101100
-74 10 +73 10 +79 10 -73 10 *
Fa
0  1e-07 6 10

0101000
+72 0 *
Ve
1.00000014321447e-07
18.875 -4.62304166678126e-15 1.25
0 0

0101101
*
Ed
 1.00000014321447e-07 1 1 0
1  9 0 0 6.28318530717959
2  21 9 0 0 6.28318530717959
2  22 11 0 0 6.28318530717959
2  23 4 18 0 6.28318530717959
0

0101000
+70 0 -70 0 *
Ed
 1e-07 1 1 0
1  10 0 0 1.60078105935821
3  24 25CN 9 0 0 1.60078105935821
0

0101000
+75 19 -70 0 *
Wi

0101100
-69 17 +68 17 +74 10 -68 17 *
Fa
0  1e-07 9 17

0101000
+67 0 *
Ve
1.00000014321447e-07
18.875 -4.62304166678126e-15 0
0 0

0101101
*
Ed
 1e-07 1 1 0
1  6 0 4.25 4.75
3  13 14CN 4 0 4.25 4.75
0

0101000
+70 20 -65 23 *
Ed
 1.00000014321447e-07 1 1 0
1  11 0 0 6.28318530717959
2  26 12 0 0 6.28318530717959
2  27 13 0 0 6.28318530717959
2  28 4 25 0 6.28318530717959
0

0101000
+65 0 -65 0 *
Wi

0101100
-64 6 -63 24 +64 6 +69 17 *
Fa
0  1e-07 4 6

0101000
+62 0 *
Ve
1.00000014321447e-07
19.875 -4.86797102661073e-15 8
0 0

0101101
*
Ed
 1.00000014321447e-07 1 1 0
1  12 0 0 6.28318530717959
2  29 12 0 0 6.28318530717959
2  30 14 0 0 6.28318530717959
2  31 15 28 0 6.28318530717959
2  32 16 28 0 6.28318530717959
0

0101000
+60 29 -60 29 *
Ed
 1e-07 1 1 0
1  13 0 0 1.60078105935821
3  33 34CN 12 0 0 1.60078105935821
0

0101000
+65 0 -60 29 *
Wi

0101100
-59 24 +58 24 +63 24 -58 24 *
Fa
0  1e-07 12 24

0101000
+57 0 *
Ve
1.00000014321447e-07
18.875 -4.62304166678126e-15 1.25
0 0

0101101
*
Ed
 1.00000014321447e-07 1 1 0
1  14 0 0 6.28318530717959
2  35 15 0 0 6.28318530717959
2  36 17 0 0 6.28318530717959
2  37 4 31 0 6.28318530717959
0

0101000
+55 0 -55 0 *
Ed
 1e-07 1 1 0
1  15 0 0 1.60078105935821
3  38 39CN 15 0 0 1.60078105935821
0

0101000
+60 32 -55 0 *
Wi

0101100
-54 30 +53 30 +59 24 -53 30 *
Fa
0  1e-07 15 30

0101000
+52 0 *
Ve
1.00000014321447e-07
18.875 -4.62304166678126e-15 0
0 0

0101101
*
Ed
 1e-07 1 1 0
1  6 0 7.25 7.75
3  13 14CN 4 0 7.25 7.75
0

0101000
+55 33 -50 36 *
Ed
 1.00000014321447e-07 1 1 0
1  16 0 0 6.28318530717959
2  40 18 0 0 6.28318530717959
2  41 19 0 0 6.28318530717959
2  42 4 38 0 6.28318530717959
0

0101000
+50 0 -50 0 *
Wi

0101100
-49 6 -48 37 +49 6 +54 30 *
Fa
0  1e-07 4 6

0101000
+47 0 *
Ve
1.00000014321447e-07
19.875 -4.86797102661073e-15 11
0 0

0101101
*
Ed
 1.00000014321447e-07 1 1 0
1  17 0 0 6.28318530717959
2  43 18 0 0 6.28318530717959
2  44 20 0 0 6.28318530717959
2  45 21 41 0 6.28318530717959
2  46 22 41 0 6.28318530717959
0

0101000
+45 42 -45 42 *
Ed
 1e-07 1 1 0
1  18 0 0 1.60078105935821
3  47 48CN 18 0 0 1.60078105935821
0

0101000
+50 0 -45 42 *
Wi

0101100
-44 37 +43 37 +48 37 -43 37 *
Fa
0  1e-07 18 37

0101000
+42 0 *
Ve
1.00000014321447e-07
18.875 -4.62304166678126e-15 1.25
0 0

0101101
*
Ed
 1.00000014321447e-07 1 1 0
1  19 0 0 6.28318530717959
2  49 21 0 0 6.28318530717959
2  50 23 0 0 6.28318530717959
2  51 4 44 0 6.28318530717959
0

0101000
+40 0 -40 0 *
Ed
 1e-07 1 1 0
1  20 0 0 1.60078105935821
3  52 53CN 21 0 0 1.60078105935821
0

0101000
+45 45 -40 0 *
Wi

0101100
-39 43 +38 43 +44 37 -38 43 *
Fa
0  1e-07 21 43

0101000
+37 0 *
Ve
1.00000014321447e-07
18.875 -4.62304166678126e-15 0
0 0

0101101
*
Ed
 1e-07 1 1 0
1  6 0 10.25 10.75
3  13 14CN 4 0 10.25 10.75
0

0101000
+40 46 -35 49 *
Ed
 1.00000014321447e-07 1 1 0
1  21 0 0 6.28318530717959
2  54 24 0 0 6.28318530717959
2  55 25 0 0 6.28318530717959
2  56 4 51 0 6.28318530717959
0

0101000
+35 0 -35 0 *
Wi

0101100
-34 6 -33 50 +34 6 +39 43 *
Fa
0  1e-07 4 6

0101000
+32 0 *
Ve
1.00000014321447e-07
19.875 -4.86797102661073e-15 14
0 0

0101101
*
Ed
 1.00000014321447e-07 1 1 0
1  22 0 0 6.28318530717959
2  57 24 0 0 6.28318530717959
2  58 26 0 0 6.28318530717959
2  59 27 54 0 6.28318530717959
2  60 28 54 0 6.28318530717959
0

0101000
+30 55 -30 55 *
Ed
 1e-07 1 1 0
1  23 0 0 1.60078105935821
3  61 62CN 24 0 0 1.60078105935821
0

0101000
+35 0 -30 55 *
Wi

0101100
-29 50 +28 50 +33 50 -28 50 *
Fa
0  1e-07 24 50

0101000
+27 0 *
Ve
1.00000014321447e-07
18.875 -4.62304166678126e-15 1.25
0 0

0101101
*
Ed
 1.00000014321447e-07 1 1 0
1  24 0 0 6.28318530717959
2  63 27 0 0 6.28318530717959
2  64 29 0 0 6.28318530717959
2  65 4 57 0 6.28318530717959
0

0101000
+25 0 -25 0 *
Ed
 1e-07 1 1 0
1  25 0 0 1.60078105935821
3  66 67CN 27 0 0 1.60078105935821
0

0101000
+30 58 -25 0 *
Wi

0101100
-24 56 +23 56 +29 50 -23 56 *
Fa
0  1e-07 27 56

0101000
+22 0 *
Ve
1e-07
18.875 -4.62304166678126e-15 15
0 0

0101101
*
Ed
 1e-07 1 1 0
1  6 0 13.25 15
3  13 14CN 4 0 13.25 15
0

0101000
+25 59 -20 0 *
Ed
 1e-07 1 1 0
1  26 0 0 6.28318530717959
2  68 4 0 0 6.28318530717959
2  69 30 0 0 6.28318530717959
0

0101000
+20 0 -20 0 *
Wi

0101100
+24 56 -19 6 -18 6 +19 6 *
Fa
0  1e-07 4 6

0101000
+17 0 *
Wi

0101100
+18 6 *
Ve
1e-07
16.875 -4.13318294712232e-15 15
0 0

0101101
*
Ed
 1e-07 1 1 0
1  27 0 0 6.28318530717959
2  70 31 0 0 6.28318530717959
2  71 32 0 0 6.28318530717959
2  72 30 63 0 6.28318530717959
0

0101000
+14 0 -14 0 *
Wi

0101100
-13 62 *
Fa
0  1e-07 30 6

0101000
+15 0 +12 0 *
Ve
1e-07
16.875 -4.13318294712232e-15 0
0 0

0101101
*
Ed
 1e-07 1 1 0
1  28 0 0 15
3  73 74CN 31 0 0 15
0

0101000
-14 0 +10 0 *
Ed
 1e-07 1 1 0
1  29 0 0 6.28318530717959
2  75 31 0 0 6.28318530717959
2  76 33 0 0 6.28318530717959
0

0101000
+10 0 -10 0 *
Wi

0101100
-13 0 +9 0 +8 0 -9 0 *
Fa
0  1e-07 31 0

0111000
+7 0 *
Wi

0101100
-8 0 *
Fa
0  1e-07 33 0

0111000
-5 0 *
Sh

0101100
+88 3 +83 0 -81 3 +76 0 +71 0 +66 0 +61 0 +56 0 +51 0 +46 0 
+41 0 +36 0 +31 0 +26 0 +21 0 +16 0 +11 0 -6 62 +4 62 *
So

0100000
+3 0 *
Co

1100000
+2 0 *

+1 0 