DBRep_DrawableShape

CASCADE Topology V3, (c) Open Cascade
Locations 20
1
              1               0               0            11.5 
              0               1               0           -20.4 
              0               0               1            24.3 
1
              1               0               0          -9.415 
              0               1               0            -7.5 
              0               0               1            -0.8 
1
              1               0               0           -1.25 
              0               1               0              -2 
              0               0               1            -0.2 
1
              1               0               0         -10.665 
              0               1               0 -1.10121850049215 
              0               0               1             0.6 
2  3 1 4 1 2 -1 0
2  3 1 4 1 0
2  2 1 4 -1 3 -1 0
1
              1               0               0              -0 
              0               1               0              -0 
              0               0               1            -1.6 
1
              1               0               0          -6.885 
              0               1               0          -5.105 
              0               0               1               0 
2  8 1 9 1 0
1
              1               0               0              -0 
              0               1               0              -0 
              0               0               1            -1.6 
1
              1               0               0          -6.885 
              0               1               0           5.105 
              0               0               1               0 
2  11 1 12 1 0
2  12 -1 11 -1 0
2  9 -1 8 -1 0
1
              1               0               0            -1.5 
              0               1               0              -2 
              0               0               1           -0.75 
1
              1               0               0         -13.415 
              0               1               0 -1.10121850049215 
              0               0               1            0.05 
2  16 1 17 1 0
2  3 1 4 1 17 -1 16 -1 0
2  16 1 17 1 4 -1 3 -1 0
Curve2ds 70
1 1.6000000000000001 0 0 -1 
1 0 0 0 1 
1 0 0 1 0 
1 0 2.5 1 0 
1 1.2000000000000002 -4.3987814995078516 1 0 
1 0 0 0 -1 
1 2.5 0 0 1 
1 1.2000000000000002 -4.3987814995078516 0 -1 
1 0 -4 1 0 
1 0 2.5 1 0 
1 1.2000000000000002 -8.3987814995078516 1 0 
1 0 -15 1 0 
1 0 0 1 0 
1 0 0 0 -1 
1 0 0 0 1 
1 0 0 1 0 
1 0 0 1 0 
1 0 0 0 1 
1 0 0 1 0 
1 0 0 1 0 
1 0 18.829999999999998 1 0 
1 1.6000000000000001 0 0 1 
1 0 0 1 0 
1 1.6000000000000001 0 0 -1 
1 18.829999999999998 0 0 1 
1 0 -15 1 0 
1 0 18.829999999999998 1 0 
1 0 0 0 -1 
1 18.829999999999998 0 0 1 
1 0 0 0 1 
1 0 15 1 0 
2 2.5299999999999994 2.3949999999999996 1 0 -0 1 1.5
1 0 0.80000000000000004 1 0 
2 2.5299999999999994 12.605 1 0 -0 1 1.5
1 0 0.80000000000000004 1 0 
2 2.5299999999999994 12.605 1 0 -0 1 1.5
1 0 2.4000000000000004 1 0 
1 6.2831853071795862 -0 0 1 
1 0 -0 0 1 
2 2.5299999999999994 2.3949999999999996 1 0 -0 1 1.5
1 0 2.4000000000000004 1 0 
1 6.2831853071795862 -0 0 1 
1 0 -0 0 1 
1 1.6000000000000001 0 0 1 
1 0 15 1 0 
1 0 0 0 1 
1 0 4 1 0 
1 0 -4 1 0 
1 0 3 1 0 
1 0 0 0 1 
1 0 4 1 0 
1 0 -4 1 0 
1 0 0 1 0 
1 0 0 1 0 
1 0 0 1 0 
1 1.5 0 0 -1 
1 0 0 0 1 
1 0 0 0 -1 
1 0 0 0 1 
1 0 0 0 -1 
1 3 0 0 1 
1 0 0 0 1 
1 0 0 1 0 
1 0 0 1 0 
1 0 3 1 0 
1 0 0 0 -1 
1 0 0 0 1 
1 1.1000000000000001 0 0 -1 
1 0 0 0 1 
1 0 0 1 0 
Curves 35
1 0 0 1.6000000000000001 -0 1 0 
1 2.5 0 0 0 0 1 
1 2.5 0 0 -0 1 0 
1 2.5 4 0 0 0 1 
1 0 15 0 0 0 1 
1 0 0 0 -0 1 0 
1 0 0 0 0 0 1 
1 0 0 0 1 0 -0 
1 18.829999999999998 0 0 0 0 1 
1 0 0 1.6000000000000001 1 0 -0 
1 18.829999999999998 0 1.6000000000000001 -0 1 0 
1 18.829999999999998 15 0 0 0 1 
1 18.829999999999998 0 0 -0 1 0 
1 0 15 0 1 0 -0 
2 -6.8849999999999998 -5.1050000000000004 -0.80000000000000004 0 0 1 1 0 -0 -0 1 0 1.5
2 -6.8849999999999998 5.1050000000000004 -0.80000000000000004 0 0 1 1 0 -0 -0 1 0 1.5
2 -6.8849999999999998 5.1050000000000004 0.80000000000000027 0 0 1 1 0 -0 -0 1 0 1.5
1 1.5 -3.6739403974420594e-16 0 0 0 1 
2 -6.8849999999999998 -5.1050000000000004 0.80000000000000027 0 0 1 1 0 -0 -0 1 0 1.5
1 1.5 -3.6739403974420594e-16 0 0 0 1 
1 0 15 1.6000000000000001 1 0 -0 
1 0 4 0 1 0 -0 
1 3 4 0 0 0 1 
1 0 4 0 1 0 -0 
1 0 4 0 0 0 1 
8 0 5.5
1 -9.4149999999999991 0.89878149950785158 0.80000000000000004 -1 0 0 
1 0 0 0 0 0 1 
1 0 0 1.5 -0 1 0 
1 0 0 0 -0 1 0 
1 3 0 0 -0 1 0 
1 0 0 0 1 0 -0 
1 3 0 0 0 0 1 
1 0 0 0 -0 1 0 
1 0 0 0 1 0 -0 
8 0 5.5
1 -14.914999999999999 -3.1012185004921484 0.80000000000000004 1 0 0 
Polygon3D 0
PolygonOnTriangulations 0
Surfaces 22
1 0 0 0 1 0 -0 0 0 1 0 -1 0 
1 0 0 1.6000000000000001 0 0 1 1 0 -0 -0 1 0 
1 2.5 0 0 1 0 -0 0 0 1 0 -1 0 
1 0 0 0 -0 1 0 0 0 1 1 0 -0 
1 0 0 0 0 0 1 1 0 -0 -0 1 0 
1 0 4 0 -0 1 0 0 0 1 1 0 -0 
1 0 15 0 -0 1 0 0 0 1 1 0 -0 
1 0 0 0 0 0 1 1 0 -0 -0 1 0 
1 0 0 0 -0 1 0 0 0 1 1 0 -0 
1 18.829999999999998 0 0 1 0 -0 0 0 1 0 -1 0 
2 0 0 0 0 0 1 1 0 -0 -0 1 0 1.5
2 0 0 0 0 0 1 1 0 -0 -0 1 0 1.5
1 -11.914999999999999 0.89878149950785158 0.40000000000000008 -0 1 0 0 0 1 1 0 -0 
1 3 0 0 1 0 -0 0 0 1 0 -1 0 
1 0 4 0 -0 1 0 0 0 1 1 0 -0 
1 0 0 0 0 0 1 1 0 -0 -0 1 0 
1 0 0 0 1 0 -0 0 0 1 0 -1 0 
1 0 0 0 -0 1 0 0 0 1 1 0 -0 
1 0 0 1.5 0 0 1 1 0 -0 -0 1 0 
1 0 0 0 1 0 -0 0 0 1 0 -1 0 
1 -11.914999999999999 -3.1012185004921484 0.40000000000000008 -0 1 0 0 0 1 1 0 -0 
1 -9.4149999999999991 -7.5 0.80000000000000004 0 0 1 1 0 -0 -0 1 0 
Triangulations 0

TShapes 95
Ve
1e-07
0 0 1.6
0 0

0101101
*
Ve
1.00000000888178e-07
2.5 0 0.4
0 0

0101101
*
Ed
 1e-07 1 1 0
1  1 0 0 4.39878149950785
2  1 1 0 0 4.39878149950785
2  2 2 0 0 4.39878149950785
0

0101000
+95 0 -94 5 *
Ve
1e-07
2.5 0 0
0 0

0101101
*
Ed
 1e-07 1 1 0
1  2 0 0 0.4
2  3 3 0 0 0.4
2  4 4 0 0 0.4
2  5 1 7 0 0.4
0

0101000
-94 0 +92 0 *
Ve
1e-07
2.5 4 0
0 0

0101101
*
Ed
 1e-07 1 1 0
1  3 0 0 4
2  6 3 0 0 4
2  7 5 0 0 4
2  8 1 7 0 4
0

0101000
-90 0 +92 0 *
Ve
1.00000000888178e-07
2.5 4 0.4
0 0

0101101
*
Ed
 1e-07 1 1 0
1  4 0 0 0.4
2  9 3 0 0 0.4
2  10 6 0 0 0.4
2  11 1 7 0 0.4
0

0101000
-88 0 +90 0 *
Ve
1e-07
0 15 1.6
0 0

0101101
*
Ed
 1e-07 1 1 0
1  1 0 8.39878149950785 15
2  1 1 0 8.39878149950785 15
2  2 2 0 8.39878149950785 15
0

0101000
+88 5 -86 0 *
Ve
1e-07
0 15 0
0 0

0101101
*
Ed
 1e-07 1 1 0
1  5 0 0 1.6
2  12 1 0 0 1.6
2  13 7 0 0 1.6
0

0101000
-86 0 +84 0 *
Ve
1e-07
0 0 0
0 0

0101101
*
Ed
 1e-07 1 1 0
1  6 0 0 15
2  14 1 0 0 15
2  15 8 0 0 15
0

0101000
-84 0 +82 0 *
Ed
 1e-07 1 1 0
1  7 0 0 1.6
2  16 1 0 0 1.6
2  17 9 0 0 1.6
0

0101000
-95 0 +82 0 *
Wi

0101100
-93 2 +91 6 -89 6 -87 6 -85 2 +83 2 +81 2 -80 2 *
Fa
0  1e-07 1 2

0101000
+79 0 *
Ve
1e-07
18.83 0 0
0 0

0101101
*
Ed
 1e-07 1 1 0
1  8 0 0 18.83
2  18 9 0 0 18.83
2  19 8 0 0 18.83
0

0101000
-77 0 +82 0 *
Ve
1e-07
18.83 0 1.6
0 0

0101101
*
Ed
 1e-07 1 1 0
1  9 0 0 1.6
2  20 10 0 0 1.6
2  21 9 0 0 1.6
0

0101000
-75 0 +77 0 *
Ed
 1e-07 1 1 0
1  10 0 0 18.83
2  22 9 0 0 18.83
2  23 2 0 0 18.83
0

0101000
-75 0 +95 0 *
Wi

0101100
-76 0 -74 0 +73 0 +80 0 *
Fa
0  1e-07 9 0

0111000
+72 0 *
Ve
1e-07
18.83 15 1.6
0 0

0101101
*
Ed
 1e-07 1 1 0
1  11 0 0 15
2  24 10 0 0 15
2  25 2 0 0 15
0

0101000
-70 0 +75 0 *
Ve
1e-07
18.83 15 0
0 0

0101101
*
Ed
 1e-07 1 1 0
1  12 0 0 1.6
2  26 10 0 0 1.6
2  27 7 0 0 1.6
0

0101000
-70 0 +68 0 *
Ed
 1e-07 1 1 0
1  13 0 0 15
2  28 10 0 0 15
2  29 8 0 0 15
0

0101000
-68 0 +77 0 *
Wi

0101100
-74 0 -69 0 +67 0 +66 0 *
Fa
0  1e-07 10 0

0111000
+65 0 *
Ed
 1e-07 1 1 0
1  14 0 0 18.83
2  30 7 0 0 18.83
2  31 8 0 0 18.83
0

0101000
-68 0 +84 0 *
Wi

0101100
-81 2 -63 2 +76 2 +66 2 *
Ve
1e-07
-5.385 -5.105 -0.8
0 0

0101101
*
Ed
 1e-07 1 1 0
1  15 0 0 6.28318530717959
2  32 8 2 0 6.28318530717959
2  33 11 10 0 6.28318530717959
0

0101100
+61 0 -61 0 *
Wi

0101100
-60 0 *
Ve
1e-07
-5.385 5.105 -0.8
0 0

0101101
*
Ed
 1e-07 1 1 0
1  16 0 0 6.28318530717959
2  34 8 2 0 6.28318530717959
2  35 12 13 0 6.28318530717959
0

0101100
+58 0 -58 0 *
Wi

0101100
-57 0 *
Fa
0  1e-07 8 2

0101000
+62 0 +59 0 +56 0 *
Ve
1e-07
-5.385 5.105 0.8
0 0

0101101
*
Ed
 1e-07 1 1 0
1  17 0 0 6.28318530717959
2  36 2 2 0 6.28318530717959
2  37 12 13 0 6.28318530717959
0

0101100
+54 0 -54 0 *
Ed
 1e-07 1 1 0
1  18 0 0.8 2.4
3  38 39CN 12 0 0.8 2.4
0

0101000
+58 14 -54 14 *
Wi

0101100
-53 0 +52 13 +57 0 -52 13 *
Fa
0  1e-07 12 13

0101000
+51 0 *
Ve
1e-07
-5.385 -5.105 0.8
0 0

0101101
*
Ed
 1e-07 1 1 0
1  19 0 0 6.28318530717959
2  40 2 2 0 6.28318530717959
2  41 11 10 0 6.28318530717959
0

0101100
+49 0 -49 0 *
Ed
 1e-07 1 1 0
1  20 0 0.8 2.4
3  42 43CN 11 0 0.8 2.4
0

0101000
+61 15 -49 15 *
Wi

0101100
-48 0 +47 10 +60 0 -47 10 *
Fa
0  1e-07 11 10

0101000
+46 0 *
Ed
 1e-07 1 1 0
1  21 0 0 18.83
2  44 7 0 0 18.83
2  45 2 0 0 18.83
0

0101000
-70 0 +86 0 *
Wi

0101100
-63 0 -67 0 +44 0 +83 0 *
Fa
0  1e-07 7 0

0111000
+43 0 *
Ve
1.00000000055511e-07
0 4 0
0 0

0101101
*
Ed
 1e-07 1 1 0
1  22 0 0 2.5
2  46 6 0 0 2.5
2  47 5 0 0 2.5
0

0101000
-90 0 +41 0 *
Ve
1e-07
3 4 0
0 0

0101101
*
Ed
 1e-07 1 1 0
1  23 0 0 1.1
2  48 14 0 0 1.1
2  49 15 0 0 1.1
0

0101000
+39 0 -41 19 *
Ve
1e-07
0 4 0
0 0

0101101
*
Ed
 1e-07 1 1 0
1  24 0 0 3
2  50 15 0 0 3
2  51 16 0 0 3
0

0101000
-39 0 +37 0 *
Ve
1e-07
0 4 1.5
0 0

0101101
*
Ed
 1e-07 1 1 0
1  25 0 0 1.5
2  52 17 0 0 1.5
2  53 15 0 0 1.5
0

0101000
-35 0 +37 0 *
Ed
 1e-07 1 1 0
1  26 0 0 5.5
0

0101000
+88 6 -35 18 *
Wi

0101100
-40 6 -38 18 -36 18 +34 18 -33 0 -87 6 *
Fa
0  0 13 0

0111000
+32 0 *
Ve
1e-07
0 0 1.5
0 0

0101101
*
Ve
1e-07
0 0 0
0 0

0101101
*
Ed
 1e-07 1 1 0
1  27 0 0 1.5
2  54 17 0 0 1.5
2  55 18 0 0 1.5
0

0101000
-30 0 +29 0 *
Ed
 1e-07 1 1 0
1  28 0 0 4
2  56 17 0 0 4
2  57 19 0 0 4
0

0101000
-35 0 +30 0 *
Ed
 1e-07 1 1 0
1  29 0 0 4
2  58 17 0 0 4
2  59 16 0 0 4
0

0101000
-37 0 +29 0 *
Wi

0101100
-28 0 -27 0 +34 0 +26 0 *
Fa
0  1e-07 17 0

0101000
+25 0 *
Ve
1e-07
3 0 0
0 0

0101101
*
Ed
 1e-07 1 1 0
1  30 0 0 4
2  60 14 0 0 4
2  61 16 0 0 4
0

0101000
-39 0 +23 0 *
Ed
 1e-07 1 1 0
1  31 0 0 3
2  62 18 0 0 3
2  63 16 0 0 3
0

0101000
-23 0 +29 0 *
Wi

0101100
-26 0 -36 0 +22 0 +21 0 *
Fa
0  1e-07 16 0

0111000
+20 0 *
Ve
1.00000000055511e-07
0 0 0
0 0

0101101
*
Ed
 1e-07 1 1 0
1  32 0 0 1.1
2  64 14 0 0 1.1
2  65 18 0 0 1.1
0

0101000
+23 0 -18 19 *
Ed
 1e-07 1 1 0
1  33 0 0 4
2  66 20 0 0 4
2  67 5 0 0 4
2  68 14 20 0 4
0

0101000
-41 0 +18 0 *
Wi

0101100
-17 18 -16 6 +38 18 +22 18 *
Fa
0  1e-07 14 18

0101000
+15 0 *
Ed
 1e-07 1 1 0
1  34 0 0 2.5
2  69 4 0 0 2.5
2  70 5 0 0 2.5
0

0101000
-92 0 +18 0 *
Wi

0101100
-16 0 -40 0 +89 0 +13 0 *
Fa
0  1e-07 5 0

0111000
+12 0 *
Ed
 1e-07 1 1 0
1  35 0 0 5.5
0

0101000
+30 18 -94 6 *
Wi

0101100
-13 6 -17 18 -21 18 +28 18 +10 0 -91 6 *
Fa
0  0 21 0

0111000
+9 0 *
Wi

0101100
-93 2 +73 2 +69 2 -44 2 -85 2 +33 0 -27 18 +10 0 *
Wi

0101100
-48 0 *
Wi

0101100
-53 0 *
Fa
0  0 22 0

0111000
+7 0 +6 0 +5 0 *
Sh

0101100
-78 0 -71 2 +64 2 -55 0 -50 0 -45 0 +42 2 +31 0 -24 18 -19 18 
+14 0 -11 6 -8 0 +4 0 *
So

0100000
+3 0 *
Co

1100000
+2 0 *

+1 1 