DBRep_DrawableShape

CASCADE Topology V3, (c) Open Cascade
Locations 38
1
              1               0               0              -3 
              0               1               0           -45.3 
              0               0               1 -23.6283881586122 
1
              1               0               0               3 
              0               1               0               0 
              0               0               1 23.6283881586122 
2  1 1 2 1 0
2  2 -1 1 -1 0
1
              1               0               0               0 
              0               1               0               0 
              0               0               1            58.6 
1
              1              -0               0               0 
              0 2.22044604925031e-16              -1               0 
              0               1 2.22044604925031e-16               0 
1
              1               0               0               0 
              0               1               0            29.3 
              0               0               1               0 
2  5 1 6 1 7 1 0
2  5 -1 0
2  7 -1 6 -1 5 -1 0
2  6 1 7 1 0
2  7 -1 6 -1 0
1
              1               0               0            -2.8 
              0               1               0           -25.3 
              0               0               1           -32.5 
1
              1               0               0               0 
              0               1               0               0 
              0               0               1           -32.5 
1
0.961261695938319              -0 -0.275637355816999               0 
              0               1              -0               0 
0.275637355816999               0 0.961261695938319               0 
1
              1               0               0 5.19153274862729 
              0               1               0               0 
              0               0               1 43.2567763172244 
2  13 1 14 1 15 1 16 1 0
1
              1               0               0              -0 
              0               1               0              -0 
              0               0               1              -6 
1
2.22044604925031e-16               0               1               0 
              0               1               0               0 
             -1               0 2.22044604925031e-16               0 
1
              1               0               0               3 
              0               1               0           -37.3 
              0               0               1 23.6283881586122 
2  18 1 19 1 20 1 0
1
              1               0               0              -0 
              0               1               0              -0 
              0               0               1              -6 
1
2.22044604925031e-16               0               1               0 
              0               1               0               0 
             -1               0 2.22044604925031e-16               0 
1
              1               0               0               3 
              0               1               0            37.3 
              0               0               1 23.6283881586122 
2  22 1 23 1 24 1 0
1
              1               0               0              -0 
              0               1               0              -0 
              0               0               1            -1.5 
1
2.22044604925031e-16               0               1               0 
              0               1               0               0 
             -1               0 2.22044604925031e-16               0 
1
              1               0               0             4.5 
              0               1               0           -37.3 
              0               0               1 23.6283881586122 
2  26 1 27 1 28 1 0
2  1 1 2 1 28 -1 27 -1 26 -1 0
1
              1               0               0              -0 
              0               1               0              -0 
              0               0               1            -1.5 
1
2.22044604925031e-16               0               1               0 
              0               1               0               0 
             -1               0 2.22044604925031e-16               0 
1
              1               0               0             4.5 
              0               1               0            37.3 
              0               0               1 23.6283881586122 
2  31 1 32 1 33 1 0
2  1 1 2 1 33 -1 32 -1 31 -1 0
2  16 -1 15 -1 14 -1 13 -1 0
2  20 -1 19 -1 18 -1 0
2  24 -1 23 -1 22 -1 0
Curve2ds 99
1 0 -74.599999999999994 0 1 
1 47.256776317224364 -74.599999999999994 -2.2204460492503131e-16 1 
1 0 0 0 1 
1 0 0 1 0 
1 0 -74.599999999999994 1 0 
1 0 0 0 1 
1 0 90.599999999999994 1 0 
1 0 15.999999999999996 1 0 
1 0 0 0 -1 
1 6 0 0 1 
1 6 -74.599999999999994 0 1 
1 6 -74.599999999999994 0 1 
1 0 0 1 0 
1 0 -58.600000000000001 1 0 
1 -9.3424658082578329 -21.200635491264549 1 0 
1 0 -58.600000000000001 1 0 
1 0 0 1 0 
1 24.508052180804739 0 0 -1 
1 24.508052180804739 0 0 -1 
1 0 0 0 -1 
8 -10.299838116752264 -4.474161275927294
1 10.208214064052473 -54.600000000000001 -1 -0 
8 -10.299838116752264 -4.474161275927294
1 22.036133063720087 -4.3008398559994223 0.27563735581699916 -0.96126169593831889 
8 -27.300000000000004 23.299999999999997
1 20.508052180804739 -27.299999999999997 6.3670265894890204e-17 1 
8 -27.300000000000004 23.299999999999997
1 19.197112919875345 -27.300000000000004 -2.3099287723962236e-16 -1 
8 -10.299838116752268 -4.4741612759272984
1 10.208214064052473 -4 -1 -0 
8 -10.299838116752268 -4.4741612759272984
1 22.036133063720072 -4.3008398559994268 0.27563735581699916 -0.96126169593831889 
8 -27.300000000000004 23.299999999999997
1 14.682375339979767 -27.299999999999997 6.3670265894890204e-17 1 
8 -27.300000000000004 23.299999999999997
1 20.80288708012467 -27.300000000000004 -2.3099287723962236e-16 -1 
1 1.6564527527407337e-14 -74.600000000000009 -2.2204460492503131e-16 1 
1 0 0 1 0 
1 0 0 1 0 
1 47.256776317224364 -74.599999999999994 -1 -2.2204460492503131e-16 
1 0 -90.599999999999994 1 0 
1 0 0 1 0 
1 47.25677631722435 15.999999999999996 -1 -2.2204460492503131e-16 
2 23.628388158612189 -66.600000000000009 1 2.2204460492503131e-16 -2.2204460492503131e-16 1 2.25
1 0 3 1 0 
2 23.628388158612175 7.9999999999999911 1 2.2204460492503131e-16 -2.2204460492503131e-16 1 2.25
1 0 3 1 0 
1 0 0 1 0 
1 0 6 1 0 
1 47.25677631722435 0 0 1 
1 0 0 1 0 
1 0 -90.599999999999994 1 0 
1 0 6 1 0 
1 47.25677631722435 0 0 1 
1 0 90.599999999999994 1 0 
1 47.25677631722435 0 0 -1 
1 6 0 0 1 
8 -10.600317745632266 36.656458571592069
1 -3.3424658082578329 -10.600317745632283 0 1 
8 -10.600317745632266 36.656458571592069
1 10.60031774563228 -16 1 -2.2204460492503131e-16 
1 0 3 1 0 
2 0 0 1 0 -0 1 4.5
2 23.628388158612175 -8 -1 0 -0 -1 4.5
8 -10.600317745632266 36.656458571592083
1 -3.3424658082578329 -10.600317745632283 0 1 
8 -10.600317745632266 36.656458571592083
1 10.600317745632266 -74.599999999999994 1 -2.2204460492503131e-16 
1 0 3 1 0 
2 0 0 1 0 -0 1 4.5
2 23.628388158612175 -82.599999999999994 -1 0 -0 -1 4.5
1 0 -0 1 0 
1 0 -58.600000000000001 1 0 
1 1.614923817746714 26.056140825959801 -1 0 
1 15.165586372546906 -21.200635491264549 -0.27563735581699911 0.96126169593831889 
1 0 0 1 0 
1 0 -58.600000000000001 1 0 
1 0 -0 0 -1 
1 49.161197743446408 0 0 -1 
1 0 0 1 0 
1 0 5.5999999999999996 1 0 
1 65 0 0 1 
1 0 0 1 0 
1 0 0 1 0 
1 0 0 1 0 
1 65 0 0 -1 
1 5.5999999999999996 0 0 1 
1 0 -50.600000000000001 1 0 
1 0 5.5999999999999996 1 0 
1 65 0 0 1 
1 0 50.600000000000001 1 0 
1 0 -50.600000000000001 1 0 
1 0 0 1 0 
1 65 0 0 -1 
1 0 0 0 1 
1 0 6 1 0 
2 0 0 1 0 -0 1 2.25
1 6.2831853071795862 -0 0 1 
1 0 -0 0 1 
1 0 6 1 0 
2 0 0 1 0 -0 1 2.25
1 6.2831853071795862 -0 0 1 
1 0 -0 0 1 
1 6.2831853071795862 -0 0 1 
1 0 -0 0 1 
1 0 0 1 0 
2 0 0 1 0 -0 1 4.5
1 6.2831853071795862 -0 0 1 
1 0 -0 0 1 
1 0 0 1 0 
2 0 0 1 0 -0 1 4.5
Curves 43
8 0 90.599999999999994
1 0 -45.299999999999997 0 0 1 0 
1 0 0 0 1 0 -0 
1 0 90.599999999999994 0 1 0 -0 
1 6 0 0 -0 1 0 
1 0 0 0 1 0 0 
1 24.508052180804739 0 0 0 0 1 
1 10.208214064052473 -25.300000000000001 1.3167245072054356e-14 -1 -0 0 
1 20.508052180804739 2.0000000000000018 6.4749041278992709e-15 6.3670265894890204e-17 1 -2.2204460492503131e-16 
1 10.208214064052473 25.300000000000001 4.4408920985006262e-16 -1 -0 0 
1 14.682375339979767 2.0000000000000018 7.1271078977770534e-15 6.3670265894890204e-17 1 -2.2204460492503131e-16 
8 0 90.599999999999994
1 0 -45.299999999999997 47.25677631722435 0 1 0 
1 0 0 0 0 0 1 
1 0 90.599999999999994 0 0 0 1 
2 0 -37.299999999999997 23.628388158612175 1 0 2.2204460492503131e-16 2.2204460492503131e-16 0 -1 -0 1 0 2.25
2 0 37.299999999999997 23.628388158612175 1 0 2.2204460492503131e-16 2.2204460492503131e-16 0 -1 -0 1 0 2.25
1 6 0 0 0 0 1 
1 0 0 47.25677631722435 1 0 -0 
1 6 90.599999999999994 0 0 0 1 
1 0 90.599999999999994 47.25677631722435 1 0 -0 
1 6 0 47.25677631722435 -0 1 0 
1 6 -29.299999999999997 10.60031774563228 0 2.2204460492503131e-16 1 
2 0 0 3 0 0 1 1 0 -0 -0 1 0 4.5
1 6 29.300000000000001 10.600317745632266 0 2.2204460492503131e-16 1 
2 0 0 3 0 0 1 1 0 -0 -0 1 0 4.5
1 10.957389626004547 47.25677631722435 0 -1 0 0 
1 24.508052180804739 0 0 -0.27563735581699911 0.96126169593831889 0 
1 10.957389626004547 47.25677631722435 0 0 0 1 
1 5.5999999999999996 0 0 0 0 1 
1 0 0 65 1 0 -0 
1 0 0 0 0 0 1 
1 5.5999999999999996 0 65 -0 1 0 
1 5.5999999999999996 50.600000000000001 0 0 0 1 
1 0 50.600000000000001 65 1 0 -0 
1 0 50.600000000000001 0 0 0 1 
1 0 0 65 -0 1 0 
2 3 -37.299999999999997 23.628388158612175 1 0 2.2204460492503131e-16 2.2204460492503131e-16 0 -1 -0 1 0 2.25
1 2.25 -5.5109105961630896e-16 0 0 0 1 
2 3 37.299999999999997 23.628388158612175 1 0 2.2204460492503131e-16 2.2204460492503131e-16 0 -1 -0 1 0 2.25
1 2.25 -5.5109105961630896e-16 0 0 0 1 
1 4.5 -1.1021821192326179e-15 0 0 0 1 
2 0 0 0 0 0 1 1 0 -0 -0 1 0 4.5
1 4.5 -1.1021821192326179e-15 0 0 0 1 
2 0 0 0 0 0 1 1 0 -0 -0 1 0 4.5
Polygon3D 0
PolygonOnTriangulations 0
Surfaces 26
1 0 29.300000000000001 0 0 2.2204460492503131e-16 1 1 0 0 0 1 -2.2204460492503131e-16 
1 0 29.300000000000011 47.25677631722435 1 0 0 0 -2.2204460492503131e-16 -1 0 1 -2.2204460492503131e-16 
1 0 0 0 -0 1 0 0 0 1 1 0 -0 
1 0 0 0 0 0 1 1 0 -0 -0 1 0 
1 0 90.599999999999994 0 -0 1 0 0 0 1 1 0 -0 
1 6 0 0 1 0 -0 0 0 1 0 -1 0 
1 0 0 0 0 1 0 1 0 0 0 0 -1 
1 9.3424658082578329 21.200635491264549 0 0 0 1 1 0 -0 -0 1 0 
1 24.508052180804739 0 0 -0.96126169593831889 -0.27563735581699911 0 -0.27563735581699911 0.96126169593831889 0 -0 0 -1 
1 0 0 0 -0 1 0 0 0 1 1 0 -0 
1 5.5999999999999996 0 0 1 0 -0 0 0 1 0 -1 0 
1 0 50.600000000000001 0 -0 1 0 0 0 1 1 0 -0 
1 0 0 0 1 0 -0 0 0 1 0 -1 0 
1 0 0 0 1 0 -0 0 0 1 0 -1 0 
2 0 0 0 0 0 1 1 0 -0 -0 1 0 2.25
2 0 0 0 0 0 1 1 0 -0 -0 1 0 2.25
1 0 0 47.25677631722435 0 0 1 1 0 -0 -0 1 0 
2 0 0 0 0 0 1 1 0 -0 -0 1 0 4.5
1 0 0 3 0 0 1 1 0 -0 -0 1 0 
2 0 0 0 0 0 1 1 0 -0 -0 1 0 4.5
1 0 0 3 0 0 1 1 0 -0 -0 1 0 
1 10.957389626004547 47.25677631722435 0 0 -1 0 -1 0 0 -0 -0 -1 
1 0 0 65 0 0 1 1 0 -0 -0 1 0 
1 10.957389626004547 29.300000000000011 47.25677631722435 0 -2.2204460492503131e-16 -1 -1 0 0 0 1 -2.2204460492503131e-16 
1 0 0 0 0 0 1 1 0 -0 -0 1 0 
1 0 0 0 0 0 1 1 0 -0 -0 1 0 
Triangulations 0

TShapes 129
Ve
1e-07
0 0 0
0 0

0101101
*
Ve
1e-07
0 90.6 0
0 0

0101101
*
Ed
 1e-07 1 1 0
1  1 0 0 90.6
2  1 1 0 0 90.6
2  2 2 0 0 90.6
0

0101000
+129 3 -128 3 *
Ve
1e-07
6 0 0
0 0

0101101
*
Ed
 1e-07 1 1 0
1  2 0 0 6
2  3 3 0 0 6
2  4 4 0 0 6
2  5 1 4 0 6
0

0101000
-126 0 +129 0 *
Ve
1e-07
6 90.6 0
0 0

0101101
*
Ed
 1e-07 1 1 0
1  3 0 0 6
2  6 5 0 0 6
2  7 4 0 0 6
2  8 1 4 0 6
0

0101000
-124 0 +128 0 *
Ve
6.00000007704948e-07
6 -29.3 6.50590692430342e-15
0 0

0101101
*
Ed
 1e-07 1 1 0
1  4 0 0 16
2  9 6 0 0 16
2  10 4 0 0 16
2  11 1 4 0 16
0

0101000
+126 0 -122 4 *
Ve
6e-07
6 29.3 0
0 0

0101101
*
Ed
 1e-07 1 1 0
1  4 0 74.6 90.6
2  9 6 0 74.6 90.6
2  10 4 0 74.6 90.6
2  12 1 4 74.6 90.6
0

0101000
+120 4 -124 0 *
Ve
1e-07
24.5080521808047 0 0
0 0

0101101
*
Ed
 1e-07 1 1 0
1  5 0 6 24.5080521808047
2  13 7 0 6 24.5080521808047
2  14 7 9 6 24.5080521808047
2  15 8 0 6 24.5080521808047
2  16 1 10 6 24.5080521808047
0

0101000
+122 10 -118 0 *
Ed
 1e-07 1 1 0
1  5 0 6 24.5080521808047
2  13 7 0 6 24.5080521808047
2  14 7 9 6 24.5080521808047
2  15 8 0 6 24.5080521808047
2  17 1 12 6 24.5080521808047
0

0101000
+120 12 -118 0 *
Ed
 1e-07 1 1 0
1  6 0 0 58.6
2  18 7 0 0 58.6
2  19 1 12 0 58.6
2  20 9 0 0 58.6
0

0101000
+118 0 -118 5 *
Wi

0101100
-127 0 +125 3 -123 3 +121 3 +119 3 +117 8 -116 11 -115 11 *
Ve
1.50000003776063e-07
20.5080521808047 -25.3 1.12573180098303e-14
0 0

0101101
*
Ve
1.50000003992447e-07
14.6823753399798 -25.3 1.27859211253724e-14
0 0

0101101
*
Ed
 1.5e-07 1 1 0
1  7 0 -10.2998381167523 -4.47416127592729
2  21 1 0 -10.2998381167523 -4.47416127592729
2  22 10 17 -10.2998381167523 -4.47416127592729
0

0101000
+113 0 -112 0 *
Ve
1.50000005032613e-07
20.5080521808047 25.3 1.01205528162918e-15
0 0

0101101
*
Ed
 1.5e-07 1 1 0
1  8 0 -27.3 23.3
2  23 1 0 -27.3 23.3
2  24 11 17 -27.3 23.3
0

0101000
+113 0 -110 0 *
Ve
1.50000004875882e-07
14.6823753399798 25.3 -8.7442917889571e-16
0 0

0101101
*
Ed
 1.5e-07 1 1 0
1  9 0 -10.2998381167523 -4.4741612759273
2  25 1 0 -10.2998381167523 -4.4741612759273
2  26 12 17 -10.2998381167523 -4.4741612759273
0

0101000
+110 0 -108 0 *
Ed
 1.5e-07 1 1 0
1  10 0 -27.3 23.3
2  27 1 0 -27.3 23.3
2  28 13 17 -27.3 23.3
0

0101000
+112 0 -108 0 *
Wi

0101100
+111 0 -109 0 -107 0 +106 0 *
Fa
0  1e-07 1 0

0101000
+114 0 +105 0 *
Ve
1e-07
0 0 47.2567763172244
0 0

0101101
*
Ve
1e-07
0 90.6 47.2567763172244
0 0

0101101
*
Ed
 1e-07 1 1 0
1  11 0 0 90.6
2  29 2 0 0 90.6
0

0101000
+103 3 -102 3 *
Ed
 1e-07 1 1 0
1  12 0 0 47.2567763172244
2  30 14 0 0 47.2567763172244
2  31 3 0 0 47.2567763172244
2  32 2 4 0 47.2567763172244
0

0101000
-103 0 +129 0 *
Ed
 1e-07 1 1 0
1  13 0 0 47.2567763172244
2  33 14 0 0 47.2567763172244
2  34 5 0 0 47.2567763172244
2  35 2 4 0 47.2567763172244
0

0101000
-102 0 +128 0 *
Wi

0101100
-101 0 -100 3 +99 3 +127 0 *
Ve
1.000000004996e-07
0 -37.3 21.3783881586122
0 0

0101101
*
Ed
 1e-07 1 1 0
1  14 0 0 6.28318530717959
2  36 2 0 0 6.28318530717959
2  37 15 21 0 6.28318530717959
0

0101100
+97 0 -97 0 *
Wi

0101100
-96 0 *
Ve
1.000000004996e-07
0 37.3 21.3783881586122
0 0

0101101
*
Ed
 1e-07 1 1 0
1  15 0 0 6.28318530717959
2  38 2 0 0 6.28318530717959
2  39 16 25 0 6.28318530717959
0

0101100
+94 0 -94 0 *
Wi

0101100
-93 0 *
Fa
0  1e-07 2 0

0101000
+98 0 +95 0 +92 0 *
Ve
1e-07
6 0 47.2567763172244
0 0

0101101
*
Ed
 1e-07 1 1 0
1  16 0 0 47.2567763172244
2  40 6 0 0 47.2567763172244
2  41 3 0 0 47.2567763172244
0

0101000
-90 0 +126 0 *
Ed
 1e-07 1 1 0
1  17 0 0 6
2  42 3 0 0 6
2  43 17 0 0 6
0

0101000
-90 0 +103 0 *
Wi

0101100
-125 0 -89 0 +88 0 +100 0 *
Fa
0  1e-07 3 0

0101000
+87 0 *
Ve
1e-07
6 90.6 47.2567763172244
0 0

0101101
*
Ed
 1e-07 1 1 0
1  18 0 0 47.2567763172244
2  44 6 0 0 47.2567763172244
2  45 5 0 0 47.2567763172244
0

0101000
-85 0 +124 0 *
Ed
 1e-07 1 1 0
1  19 0 0 6
2  46 5 0 0 6
2  47 17 0 0 6
0

0101000
-85 0 +102 0 *
Wi

0101100
-123 0 -84 0 +83 0 +99 0 *
Fa
0  1e-07 5 0

0101000
+82 0 *
Ve
6.00000007105427e-07
6 -29.3 47.2567763172244
0 0

0101101
*
Ed
 1e-07 1 1 0
1  20 0 0 16
2  48 6 0 0 16
2  49 17 0 0 16
0

0101000
+90 0 -80 4 *
Ed
 6e-07 1 1 0
1  21 0 -10.6003177456323 36.6564585715921
2  50 8 8 -10.6003177456323 36.6564585715921
2  51 6 3 -10.6003177456323 36.6564585715921
0

0101000
+122 0 -80 0 *
Wi

0101100
-79 3 -89 3 +78 0 +121 3 *
Ve
1.00000000888178e-07
4.5 -1.10218211923262e-15 3
0 0

0101101
*
Ed
 1.00000000888178e-07 1 1 0
1  22 0 0 6.28318530717959
2  52 18 0 0 6.28318530717959
2  53 19 0 0 6.28318530717959
2  54 6 30 0 6.28318530717959
0

0101000
+76 0 -76 0 *
Wi

0101100
-75 29 *
Fa
0  1e-07 6 3

0101000
+77 0 +74 0 *
Ve
6.00000003552714e-07
6 29.3 47.2567763172244
0 0

0101101
*
Ed
 1e-07 1 1 0
1  20 0 74.6 90.6
2  48 6 0 74.6 90.6
2  49 17 0 74.6 90.6
0

0101000
+72 4 -85 0 *
Ed
 6e-07 1 1 0
1  23 0 -10.6003177456323 36.6564585715921
2  55 8 11 -10.6003177456323 36.6564585715921
2  56 6 3 -10.6003177456323 36.6564585715921
0

0101000
+120 0 -72 0 *
Wi

0101100
-71 3 -70 0 +84 3 +119 3 *
Ve
1.00000000888178e-07
4.5 -1.10218211923262e-15 3
0 0

0101101
*
Ed
 1.00000000888178e-07 1 1 0
1  24 0 0 6.28318530717959
2  57 20 0 0 6.28318530717959
2  58 21 0 0 6.28318530717959
2  59 6 35 0 6.28318530717959
0

0101000
+68 0 -68 0 *
Wi

0101100
-67 34 *
Fa
0  1e-07 6 3

0101000
+69 0 +66 0 *
Ve
1e-07
10.9573896260045 47.2567763172244 0
0 0

0101101
*
Ed
 1e-07 1 1 0
1  25 0 0 4.95738962600455
2  60 22 0 0 4.95738962600455
2  61 22 9 0 4.95738962600455
2  62 8 0 0 4.95738962600455
0

0101000
+64 0 -80 10 *
Ed
 1e-07 1 1 0
1  26 0 0 49.1611977434464
2  63 8 0 0 49.1611977434464
2  64 9 0 0 49.1611977434464
2  65 9 9 0 49.1611977434464
0

0101000
+118 0 -64 0 *
Wi

0101100
-78 0 +63 8 +62 8 +117 8 *
Fa
0  1e-07 8 8

0101000
+61 0 *
Ed
 1e-07 1 1 0
1  25 0 0 4.95738962600455
2  60 22 0 0 4.95738962600455
2  61 22 9 0 4.95738962600455
2  62 8 0 0 4.95738962600455
0

0101000
+64 0 -72 12 *
Wi

0101100
-70 0 +59 11 +62 11 +116 11 *
Fa
0  1e-07 8 11

0101000
+58 0 *
Ed
 1e-07 1 1 0
1  27 0 0 58.6
2  66 22 0 0 58.6
2  67 9 0 0 58.6
0

0101000
+64 0 -64 5 *
Wi

0101100
+115 0 -56 0 -62 0 +62 5 *
Fa
0  1e-07 9 0

0101000
+55 0 *
Ve
1e-07
5.6 0 65
0 0

0101101
*
Ed
 1e-07 1 1 0
1  28 0 19.1971129198753 65
2  68 11 0 19.1971129198753 65
2  69 10 0 19.1971129198753 65
0

0101000
+113 36 -53 0 *
Ve
1e-07
0 0 65
0 0

0101101
*
Ed
 1e-07 1 1 0
1  29 0 0 5.6
2  70 10 0 0 5.6
2  71 23 0 0 5.6
0

0101000
-53 0 +51 0 *
Ed
 1e-07 1 1 0
1  30 0 20.8028870801247 65
2  72 13 0 20.8028870801247 65
2  73 10 0 20.8028870801247 65
0

0101000
+112 36 -51 0 *
Wi

0101100
-52 17 +50 17 +49 17 +111 0 *
Fa
0  1e-07 10 17

0101000
+48 0 *
Ve
1e-07
5.6 50.6 65
0 0

0101101
*
Ed
 1e-07 1 1 0
1  31 0 0 50.6
2  74 11 0 0 50.6
2  75 23 0 0 50.6
0

0101000
-46 0 +53 0 *
Ed
 1e-07 1 1 0
1  32 0 19.1971129198753 65
2  76 11 0 19.1971129198753 65
2  77 12 0 19.1971129198753 65
0

0101000
+110 36 -46 0 *
Wi

0101100
-52 17 -45 17 +44 17 +109 0 *
Fa
0  1e-07 11 17

0101000
+43 0 *
Ve
1e-07
0 50.6 65
0 0

0101101
*
Ed
 1e-07 1 1 0
1  33 0 0 5.6
2  78 12 0 0 5.6
2  79 23 0 0 5.6
0

0101000
-46 0 +41 0 *
Ed
 1e-07 1 1 0
1  34 0 20.8028870801247 65
2  80 13 0 20.8028870801247 65
2  81 12 0 20.8028870801247 65
0

0101000
+108 36 -41 0 *
Wi

0101100
-44 17 +40 17 +39 17 +107 0 *
Fa
0  1e-07 12 17

0101000
+38 0 *
Ed
 1e-07 1 1 0
1  35 0 0 50.6
2  82 13 0 0 50.6
2  83 23 0 0 50.6
0

0101000
-41 0 +51 0 *
Wi

0101100
-49 17 -36 17 +39 17 +106 0 *
Fa
0  1e-07 13 17

0101000
+35 0 *
Wi

0101100
+83 3 -71 3 -59 11 +56 11 +63 8 -79 3 -88 3 +101 0 *
Fa
0  0 24 0

0111000
+33 0 *
Ve
1.00000000444089e-07
3 -37.3 21.3783881586122
0 0

0101101
*
Ed
 1e-07 1 1 0
1  36 0 0 6.28318530717959
2  84 15 21 0 6.28318530717959
2  85 25 29 0 6.28318530717959
0

0101100
+31 0 -31 0 *
Ed
 1e-07 1 1 0
1  37 0 3 6
3  86 87CN 15 0 3 6
0

0101000
+97 37 -31 37 *
Wi

0101100
-30 0 +29 21 +96 0 -29 21 *
Fa
0  1e-07 15 21

0101000
+28 0 *
Ve
1.00000000444089e-07
3 37.3 21.3783881586122
0 0

0101101
*
Ed
 1e-07 1 1 0
1  38 0 0 6.28318530717959
2  88 16 25 0 6.28318530717959
2  89 26 34 0 6.28318530717959
0

0101100
+26 0 -26 0 *
Ed
 1e-07 1 1 0
1  39 0 3 6
3  90 91CN 16 0 3 6
0

0101000
+94 38 -26 38 *
Wi

0101100
-25 0 +24 25 +93 0 -24 25 *
Fa
0  1e-07 16 25

0101000
+23 0 *
Ve
1e-07
4.5 -1.10218211923262e-15 0
0 0

0101101
*
Ed
 1e-07 1 1 0
1  40 0 0 3
3  92 93CN 18 0 0 3
0

0101000
-76 0 +21 0 *
Ed
 1e-07 1 1 0
1  41 0 0 6.28318530717959
2  94 18 0 0 6.28318530717959
2  95 25 0 0 6.28318530717959
0

0101000
+21 0 -21 0 *
Wi

0101100
-75 0 +20 0 +19 0 -20 0 *
Fa
0  1e-07 18 0

0111000
+18 0 *
Ve
1e-07
4.5 -1.10218211923262e-15 0
0 0

0101101
*
Ed
 1e-07 1 1 0
1  42 0 0 3
3  96 97CN 20 0 0 3
0

0101000
-68 0 +16 0 *
Ed
 1e-07 1 1 0
1  43 0 0 6.28318530717959
2  98 20 0 0 6.28318530717959
2  99 26 0 0 6.28318530717959
0

0101000
+16 0 -16 0 *
Wi

0101100
-67 0 +15 0 +14 0 -15 0 *
Fa
0  1e-07 20 0

0111000
+13 0 *
Wi

0101100
-36 0 -40 0 +45 0 +50 0 *
Fa
0  1e-07 23 0

0111000
+11 0 *
Wi

0101100
+19 29 *
Wi

0101100
-30 0 *
Fa
0  1e-07 25 29

0101000
+9 0 +8 0 *
Wi

0101100
+14 34 *
Wi

0101100
-25 0 *
Fa
0  1e-07 26 34

0101000
+6 0 +5 0 *
Sh

0101100
-104 0 -91 0 -86 3 +81 3 +73 0 +65 0 +60 0 -57 0 -54 11 +47 0 
-42 0 -37 0 +34 0 -32 0 -27 0 -22 0 -17 29 -12 34 -10 17 +7 0 
+4 0 *
So

0100000
+3 0 *
Co

1100000
+2 0 *

+1 0 