DBRep_DrawableShape

CASCADE Topology V3, (c) Open Cascade
Locations 79
1
              1              -0               0               0 
              0 2.22044604925031e-16              -1               0 
              0               1 2.22044604925031e-16               0 
1
              1               0               0               0 
              0               1               0           29.15 
              0               0               1               0 
2  1 1 2 1 0
2  2 -1 1 -1 0
1
              1               0               0               0 
              0               1               0               0 
              0               0               1            58.3 
2  5 1 1 1 2 1 0
2  5 -1 0
2  2 -1 1 -1 5 -1 0
1
              1               0               0              -0 
              0               1               0              -0 
              0               0               1            -6.5 
1
2.22044604925031e-16               0               1               0 
              0               1               0               0 
             -1               0 2.22044604925031e-16               0 
1
              1               0               0 10.0892310120488 
              0               1               0               0 
              0               0               1               0 
1
              1               0               0               0 
              0               1               0               0 
              0               0               1            22.5 
1
0.984807753012208               0 0.17364817766693               0 
              0               1               0               0 
-0.17364817766693               0 0.984807753012208               0 
1
              1               0               0 5.10974054548235 
              0               1               0               0 
              0               0               1               4 
2  9 1 10 1 11 1 12 1 13 1 14 1 0
1
              1               0               0 4.2632564145606e-14 
              0               1               0              -0 
              0               0               1               0 
1
              1               0               0               0 
              0               1               0               0 
              0               0               1               6 
1
2.22044604925031e-16               0               1               0 
              0               1               0               0 
             -1               0 2.22044604925031e-16               0 
1
              1               0               0               0 
              0               1               0               0 
              0               0               1 24.1581744427747 
2  16 1 17 1 18 1 19 1 0
1
              1               0               0           -2.65 
              0               1               0          -25.15 
              0               0               1           -32.5 
1
              1               0               0               0 
              0               1               0               0 
              0               0               1            32.5 
1
0.984807753012208               0 0.17364817766693               0 
              0               1               0               0 
-0.17364817766693               0 0.984807753012208               0 
1
              1               0               0 5.10974054548235 
              0               1               0               0 
              0               0               1               4 
2  21 1 22 1 23 1 24 1 0
2  16 -1 0
2  17 -1 16 -1 0
2  19 -1 18 -1 17 -1 16 -1 0
2  18 1 19 1 0
2  16 1 17 1 0
2  16 1 18 1 19 1 0
2  14 -1 13 -1 12 -1 11 -1 10 -1 9 -1 0
2  19 -1 18 -1 16 -1 0
1
              1               0               0              -0 
              0               1               0              -0 
              0               0               1            -1.5 
1
2.22044604925031e-16               0               1               0 
              0               1               0               0 
             -1               0 2.22044604925031e-16               0 
1
              1               0               0             4.5 
              0               1               0           37.15 
              0               0               1 36.237261664162 
2  34 1 35 1 36 1 0
2  16 1 17 1 18 1 19 1 36 -1 35 -1 34 -1 0
1
              1               0               0              -0 
              0               1               0              -0 
              0               0               1            -1.5 
1
2.22044604925031e-16               0               1               0 
              0               1               0               0 
             -1               0 2.22044604925031e-16               0 
1
              1               0               0             4.5 
              0               1               0           37.15 
              0               0               1 12.0790872213873 
2  39 1 40 1 41 1 0
2  16 1 17 1 18 1 19 1 41 -1 40 -1 39 -1 0
2  19 -1 18 -1 0
2  24 -1 23 -1 22 -1 21 -1 0
1
              1               0               0              -0 
              0               1               0              -0 
              0               0               1             -40 
1
2.22044604925031e-16               0               1               0 
              0               1               0               0 
             -1               0 2.22044604925031e-16               0 
2  46 1 47 1 12 1 13 1 14 1 0
1
              1               0               0              -0 
              0               1               0              -0 
              0               0               1              -6 
1
2.22044604925031e-16               0               1               0 
              0               1               0               0 
             -1               0 2.22044604925031e-16               0 
1
              1               0               0               3 
              0               1               0          -37.15 
              0               0               1 36.237261664162 
2  49 1 50 1 51 1 0
1
              1               0               0              -0 
              0               1               0              -0 
              0               0               1              -6 
1
2.22044604925031e-16               0               1               0 
              0               1               0               0 
             -1               0 2.22044604925031e-16               0 
1
              1               0               0               3 
              0               1               0          -37.15 
              0               0               1 12.0790872213873 
2  53 1 54 1 55 1 0
1
              1               0               0              -0 
              0               1               0              -0 
              0               0               1              -6 
1
2.22044604925031e-16               0               1               0 
              0               1               0               0 
             -1               0 2.22044604925031e-16               0 
1
              1               0               0               3 
              0               1               0           37.15 
              0               0               1 36.237261664162 
2  57 1 58 1 59 1 0
1
              1               0               0              -0 
              0               1               0              -0 
              0               0               1              -6 
1
2.22044604925031e-16               0               1               0 
              0               1               0               0 
             -1               0 2.22044604925031e-16               0 
1
              1               0               0               3 
              0               1               0           37.15 
              0               0               1 12.0790872213873 
2  61 1 62 1 63 1 0
1
              1               0               0              -0 
              0               1               0              -0 
              0               0               1            -1.5 
1
2.22044604925031e-16               0               1               0 
              0               1               0               0 
             -1               0 2.22044604925031e-16               0 
1
              1               0               0             4.5 
              0               1               0          -37.15 
              0               0               1 36.237261664162 
2  65 1 66 1 67 1 0
2  16 1 17 1 18 1 19 1 67 -1 66 -1 65 -1 0
1
              1               0               0              -0 
              0               1               0              -0 
              0               0               1            -1.5 
1
2.22044604925031e-16               0               1               0 
              0               1               0               0 
             -1               0 2.22044604925031e-16               0 
1
              1               0               0             4.5 
              0               1               0          -37.15 
              0               0               1 12.0790872213873 
2  70 1 71 1 72 1 0
2  16 1 17 1 18 1 19 1 72 -1 71 -1 70 -1 0
2  14 -1 13 -1 12 -1 47 -1 46 -1 0
2  51 -1 50 -1 49 -1 0
2  55 -1 54 -1 53 -1 0
2  59 -1 58 -1 57 -1 0
2  63 -1 62 -1 61 -1 0
Curve2ds 169
1 3.2314482021130218 -25.764997347704824 0.17364817766693039 0.98480775301220813 
1 0 0 1 0 
1 0 0 0 1 
1 44.890568873463245 0 0 -1 
1 11.095313144145715 0 0 -1 
1 0 0 0 -1 
1 3.2314482021130218 -25.764997347704824 0.17364817766693039 0.98480775301220813 
1 0 -58.299999999999997 1 0 
2 25.399847237997822 -29.150000000000006 -1 2.1867124844470352e-16 2.1867124844470352e-16 1 4.5
1 8.1206553199176612e-18 3.0000000000000009 1 0 
1 0 0 1 0 
1 0 -58.299999999999997 1 0 
1 -7.8638649420326932 -25.764997347704824 1 0 
8 -24.961585895382278 23.354762990167082
1 -1.8638649420326932 -0.80341145232254618 -2.2204460492503131e-16 1 
8 -24.961585895382278 23.354762990167082
1 -0.80341145232254263 29.150000000000006 -1 2.2204460492503131e-16 
1 11.750924119958748 22.551351537844535 -1 0 
1 0 -0 1 0 
1 0 0 1 0 
1 -1.3962634015954636 0 1 0 
2 7.579786545879017 19.051351537844535 0 -1 1 0 3.5
1 -1.3962634015954636 58.299999999999997 1 0 
2 7.579786545879017 19.051351537844535 0 -1 1 0 3.5
1 1.7453292519943295 0 0 1 
1 4.1711375740797312 0 0 -1 
1 4.1711375740797312 0 0 -1 
1 4.325629279548951e-18 54.300000000000011 1 0 
2 41.990721635465427 5.7392310120488368 -3.2081204895177858e-17 1 1 3.2081204895177858e-17 3.5
8 -5.999999999062311e-07 58.300000599999997
1 1.6966226582525108 7.7623446319562541e-16 0 1 
8 -5.999999999062311e-07 58.300000599999997
1 45.463051705901492 -54.300000000000011 2.1867124844470357e-16 1 
1 4.325629279548951e-18 4.0000000000000107 1 0 
2 41.990721635465412 5.7392310120488395 -3.2081204895177858e-17 1 1 3.2081204895177858e-17 3.5
1 37.149999999999999 0 1 0 
1 37.149999999999999 -6 1 0 
1 24.158174443059778 -1.621466554655203e-16 0 1 
1 0 0 0 -1 
1 74.299999999999997 0 0 -1 
1 48.316348884893799 -66.299999999999997 -2.2204460492503131e-16 1 
1 6.2831853071795862 0 0 -1 
1 0 0 0 -1 
8 -24.961585895382278 23.354762990167082
1 -1.8638649420326932 -0.80341145232254618 -2.2204460492503131e-16 1 
8 -24.961585895382278 23.354762990167082
1 -0.80341145232255684 -29.149999999999991 -1 2.2204460492503131e-16 
1 11.750924119958748 22.551351537844535 -1 0 
1 0 -58.299999999999997 1 0 
1 0 -58.299999999999997 1 0 
1 6.2831853071795862 -0 0 1 
1 0 -0 0 1 
1 0 0 1 0 
2 0 0 1 0 -0 1 4.5
1 37.149999999999999 0 1 0 
1 37.149999999999999 -6 1 0 
1 -24.158174442489582 -1.621466554655203e-16 0 1 
1 13.614789061991447 -29.150000000000009 0 1 
1 0 0 1 0 
1 0 -6 1 0 
2 -16.158174442489667 37.149999999999999 1 0 -0 1 8
1 2.8509800527199904e-10 45.149999999999999 1 0 
1 24.158174442774719 15.999999999999995 1 2.2204460492503131e-16 
1 0 0 1 0 
1 0 -6 1 0 
2 16.158174441748539 37.149999999999999 1 0 -0 1 8
1 0 3 1 0 
2 0 0 1 0 -0 1 4.5
2 -12.079087221102284 37.149999999999999 1 0 -0 1 4.5
1 0 3 1 0 
2 0 0 1 0 -0 1 4.5
2 12.079087221672397 37.149999999999999 1 0 -0 1 4.4999999999999982
1 3.1415926535897931 0 0 -1 
1 74.299999999999997 0 0 -1 
1 19.614789061991448 7.9999999999999893 -1 -4.9303806576313238e-32 
1 19.614789061991448 7.9999999999999893 0 -1 
1 -1.7763568394002481e-15 7.9999999999999893 2.2204460492503131e-16 -1 
1 3.1415926535897931 0 0 -1 
1 0 0 0 -1 
1 19.614789061991448 -66.300000000000011 -1 -4.9303806576313238e-32 
1 13.614789061991447 -29.150000000000009 0 1 
8 -0.82436651199872668 4.3862569569159913
1 8.5573945309957224 -54.300000000000011 -1 0 
8 -0.82436651199872668 4.3862569569159913
1 44.675883243660799 0.81184253233997783 0.17364817766693036 0.98480775301220813 
8 -23.149999999999988 27.150000000000009
1 9.3817610429944516 -27.149999999999999 -3.9152454769034723e-17 -1 
8 -23.149999999999988 27.150000000000009
1 44.532733501122578 -27.150000000000009 2.2547000086653338e-16 1 
8 -0.82436651199872912 4.3862569569159913
1 8.5573945309957224 -4.0000000000000107 -1 0 
8 -0.82436651199872912 4.3862569569159913
1 44.675883243660785 0.81184253233998027 0.17364817766693036 0.98480775301220813 
1 0 0 1 0 
1 0 5.2999999999999998 1 0 
1 0 0 1 0 
1 0 0 1 0 
1 0 0 0 1 
1 0 0 1 0 
1 0 0 0 -1 
1 5.2999999999999998 0 0 1 
1 0 -50.299999999999997 1 0 
1 0 5.2999999999999998 1 0 
2 22.5 -25.149999999999999 -1 -0 0 -1 2.25
1 8.1206553199176612e-18 42.649999999999999 1 0 
1 0 -50.299999999999997 1 0 
1 0 0 1 0 
1 0 0 0 1 
1 0 50.299999999999997 1 0 
1 1.5707963267948966 0 0 -1 
2 40.316348884238167 7.9999999999999982 1 2.2204460492503131e-16 -2.2204460492503131e-16 1 8
1 0 0 1 0 
1 0 -6 1 0 
2 -16.158174442489667 -37.149999999999999 1 0 -0 1 8
2 7.9999999999999725 -66.300000000000011 1 2.2204460492503131e-16 -2.2204460492503131e-16 1 8
1 2.8509800527199904e-10 -45.149999999999999 1 0 
1 24.15817444277474 -74.300000000000011 1 2.2204460492503131e-16 
2 7.9999999999999556 7.9999999999999911 1 2.2204460492503131e-16 -2.2204460492503131e-16 1 8
1 0 0 1 0 
1 0 -6 1 0 
2 16.158174441748539 -37.149999999999999 1 0 -0 1 8
2 40.316348884238181 -66.299999999999997 1 2.2204460492503131e-16 -2.2204460492503131e-16 1 8
2 12.079087221387354 -66.300000000000011 1 2.2204460492503131e-16 -2.2204460492503131e-16 1 2.25
1 0 3 1 0 
2 36.237261664162034 -66.299999999999997 1 2.2204460492503131e-16 -2.2204460492503131e-16 1 2.25
1 0 3 1 0 
3 20.568264995531582 -29.150000000000006 1 2.2204460492503131e-16 -2.2204460492503131e-16 1 2.2847098767429261 2.25
7 0 0  8 23 4  0 31.240812110939224  0.19634954084936207 31.240812110939224  0.39269908169870421 31.22333133883464  0.58904862254816481 31.188371907852229  0.78539816339761293 31.137365126296551  0.98174770424693136 31.073197634915225  1.1780972450961797 30.999873880873778  1.3744467859455345 30.921975278173463  1.8653206380689396 30.72722809360274  2.1598449493387064 30.610379359436148  2.4543692606254299 30.508979474207752  2.7488935718749996 30.43845527784163  3.0434178831721468 30.410022837867366  3.3379421944348375 30.426104971821626  3.6324665057131975 30.480917662977525  4.2215151282612835 30.646166128769856  4.5160394395442518 30.756602502269171  4.8105637507611911 30.883921460874802  5.1050880621372272 31.01209017644684  5.3996123733152919 31.122823914433248  5.694136684641113 31.201480228036161  5.9886609959055432 31.240812110939221  6.2831853071795862 31.240812110939221 
 0 9 1.5707963267948972 7 3.9269908169872423 7 6.2831853071795862 9
2 12.079087221387338 7.999999999999992 1 2.2204460492503131e-16 -2.2204460492503131e-16 1 2.25
1 0 3 1 0 
2 36.23726166416202 7.9999999999999973 1 2.2204460492503131e-16 -2.2204460492503131e-16 1 2.25
1 0 3 1 0 
1 4.7123889803846897 0 0 -1 
1 0 3 1 0 
2 0 0 1 0 -0 1 4.5
2 -12.079087221102284 -37.149999999999999 1 0 -0 1 4.5
1 0 3 1 0 
2 0 0 1 0 -0 1 4.5
2 12.079087221672397 -37.149999999999999 1 0 -0 1 4.4999999999999982
1 8.1206553199176612e-18 43.589231012048835 1 0 
2 -6.1692225609608235e-16 0 1 0 -0 1 2.25
1 1.5707963267948966 0 0 -1 
1 6.2831853071795862 -0 0 1 
1 0 -0 0 1 
1 0 0 1 0 
2 0 0 1 0 -0 1 4.5
1 6.2831853071795862 -0 0 1 
1 0 -0 0 1 
1 0 0 1 0 
2 0 0 1 0 -0 1 4.5
1 4.7123889803846897 0 0 -1 
1 0 0 0 -1 
1 0 0 0 1 
2 22.499999999999996 -25.149999999999999 -1 -0 0 -1 2.25
1 8.1206553199176612e-18 37.350000000000001 1 0 
1 6.2831853071795862 -0 0 1 
1 0 -0 0 1 
1 0 6 1 0 
2 0 0 1 0 -0 1 2.25
1 6.2831853071795862 -0 0 1 
1 0 -0 0 1 
1 0 6 1 0 
2 0 0 1 0 -0 1 2.25
1 6.2831853071795862 -0 0 1 
1 0 -0 0 1 
1 0 6 1 0 
2 0 0 1 0 -0 1 2.25
1 6.2831853071795862 -0 0 1 
1 0 -0 0 1 
1 0 6 1 0 
2 0 0 1 0 -0 1 2.25
1 6.2831853071795862 -0 0 1 
1 0 -0 0 1 
1 6.2831853071795862 -0 0 1 
1 0 -0 0 1 
1 0 0 1 0 
2 0 0 1 0 -0 1 4.5
1 6.2831853071795862 -0 0 1 
1 0 -0 0 1 
1 0 0 1 0 
2 0 0 1 0 -0 1 4.5
Curves 74
1 11.095313144145715 0 0 0.17364817766693039 0.98480775301220813 0 
1 18.890478623454438 29.150000000000009 44.208580263715106 0 -1 2.2204460492503131e-16 
1 11.095313144145715 0 0 0 0 1 
2 15.505950330042451 0 25.013966485305978 0.98480775301220813 0 -0.17364817766693014 -0.17364817766693014 0 -0.98480775301220813 0 1 0 4.5
1 0 0 0 1 0 0 
1 6 29.150000000000006 24.961585895382278 -2.2204460492503131e-16 2.2204460492503131e-16 1 
1 19.614789061991441 48.31634888554936 0 -1 0 0 
8 1.3962634015954642 3.1415926535897931
2 15.44365148791171 29.150000000000009 44.81634888554936 0 -1 2.2204460492503131e-16 0 -2.2204460492503131e-16 -1 1 0 0 3.5
8 1.3962634015954642 3.1415926535897931
2 15.44365148791171 -29.149999999999988 44.816348885549374 0 -1 2.2204460492503131e-16 0 -2.2204460492503131e-16 -1 1 0 0 3.5
1 15.44365148791171 29.150000000000009 48.31634888554936 0 -1 2.2204460492503131e-16 
2 15.44365148791171 -25.150000000000002 44.816348885549374 -9.6048264442959446e-34 -1 2.2204460492503131e-16 0.98480775301220813 -3.8557641006005203e-17 -0.17364817766693039 0.17364817766693039 2.1867124844470357e-16 0.98480775301220813 3.5
1 15.614057170871922 29.150000000000009 48.312198124749315 0 -1 2.2204460492503131e-16 
2 15.44365148791171 25.149999999999999 44.81634888554936 -9.6048264442959446e-34 -1 2.2204460492503131e-16 0.98480775301220813 -3.8557641006005203e-17 -0.17364817766693039 0.17364817766693039 2.1867124844470357e-16 0.98480775301220813 3.5
1 24.15817444277468 0 0 0 1 0 
1 24.158174442119105 37.149999999999999 0 0 0 1 
8 0 74.299999999999997
1 5.3641922997103252e-15 -37.149999999999999 6.5557514972169884e-10 0 1 0 
1 24.158174442119105 -37.149999999999999 0 0 0 1 
1 6 -29.149999999999991 24.961585895382292 -2.2204460492503131e-16 2.2204460492503131e-16 1 
1 4.5 -1.1021821192326179e-15 0 0 0 1 
2 0 0 0 0 0 1 1 0 -0 -0 1 0 4.5
1 -24.15817444277468 0 0 0 1 0 
2 -16.158174442774765 37.149999999999999 0 0 0 1 1 0 0 0 1 0 8
1 0 45.149999999999999 0 1 0 0 
2 16.158174441463441 37.149999999999999 0 0 0 1 1 0 0 0 1 0 8
2 0 0 3 0 0 1 1 0 -0 -0 1 0 4.5
2 0 0 3 0 0 1 1 0 -0 -0 1 0 4.5
1 -24.15817444277468 37.149999999999999 0 0 0 1 
8 0 74.299999999999997
1 -5.3641922998558922e-15 37.149999999999999 48.31634888554936 0 -1 0 
1 -24.15817444277468 -37.149999999999999 0 0 0 1 
1 11.057394530995719 -25.149999999999999 48.316348885549374 1 -0 0 
1 10.23302801899699 2.0000000000000107 48.316348885549374 3.9152454769034723e-17 -1 2.2204460492503131e-16 
1 11.057394530995719 25.149999999999999 48.31634888554936 1 -0 0 
1 5.2999999999999998 0 0 0 0 1 
1 0 0 0 0 0 1 
1 0 0 0 1 0 -0 
1 5.2999999999999998 0 0 -0 1 0 
1 5.2999999999999998 50.299999999999997 0 0 0 1 
2 11.626565088470638 0 25.698006771957314 0.98480775301220813 0 -0.17364817766693014 -0.17364817766693014 0 -0.98480775301220813 0 1 0 2.25
1 0 50.299999999999997 0 0 0 1 
1 0 50.299999999999997 0 1 0 -0 
1 16.158174441463483 45.149999999999999 0 0 0 1 
2 -16.158174442774765 -37.149999999999999 0 0 0 1 1 0 0 0 1 0 8
1 0 -45.149999999999999 0 1 0 0 
2 16.158174441463441 -37.149999999999999 0 0 0 1 1 0 0 0 1 0 8
2 0 -37.149999999999999 36.23726166416202 1 0 2.2204460492503131e-16 2.2204460492503131e-16 0 -1 -0 1 0 2.25
2 0 -37.149999999999999 12.079087221387338 1 0 2.2204460492503131e-16 2.2204460492503131e-16 0 -1 -0 1 0 2.25
3 -1.6265283327351105e-15 0 27.748083890017785 1 0 0 0 0 -1 -0 1 0 2.2847098767429261 2.25
2 0 37.149999999999999 36.23726166416202 1 0 2.2204460492503131e-16 2.2204460492503131e-16 0 -1 -0 1 0 2.25
2 0 37.149999999999999 12.079087221387338 1 0 2.2204460492503131e-16 2.2204460492503131e-16 0 -1 -0 1 0 2.25
1 16.158174441463483 -45.149999999999999 0 0 0 1 
2 0 0 3 0 0 1 1 0 -0 -0 1 0 4.5
2 0 0 3 0 0 1 1 0 -0 -0 1 0 4.5
2 12.551527071005829 0 25.534911018306769 0.98480775301220813 0 -0.17364817766693014 -0.17364817766693014 0 -0.98480775301220813 0 1 0 2.25
1 -16.158174442774722 45.149999999999999 0 0 0 1 
1 4.5 -1.1021821192326179e-15 0 0 0 1 
2 0 0 0 0 0 1 1 0 -0 -0 1 0 4.5
1 4.5 -1.1021821192326179e-15 0 0 0 1 
2 0 0 0 0 0 1 1 0 -0 -0 1 0 4.5
1 -16.158174442774722 -45.149999999999999 0 0 0 1 
1 0 0 0 -0 1 0 
2 6.4070839975059384 0 26.618342113592043 0.98480775301220813 0 -0.17364817766693014 -0.17364817766693014 0 -0.98480775301220813 0 1 0 2.25
1 2.25 -5.5109105961630896e-16 0 0 0 1 
2 3 -37.149999999999999 36.23726166416202 1 0 2.2204460492503131e-16 2.2204460492503131e-16 0 -1 -0 1 0 2.25
1 2.25 -5.5109105961630896e-16 0 0 0 1 
2 3 -37.149999999999999 12.07908722138734 1 0 2.2204460492503131e-16 2.2204460492503131e-16 0 -1 -0 1 0 2.25
1 2.25 -5.5109105961630896e-16 0 0 0 1 
2 3 37.149999999999999 36.23726166416202 1 0 2.2204460492503131e-16 2.2204460492503131e-16 0 -1 -0 1 0 2.25
1 2.25 -5.5109105961630896e-16 0 0 0 1 
2 3 37.149999999999999 12.07908722138734 1 0 2.2204460492503131e-16 2.2204460492503131e-16 0 -1 -0 1 0 2.25
1 2.25 -5.5109105961630896e-16 0 0 0 1 
1 4.5 -1.1021821192326179e-15 0 0 0 1 
2 0 0 0 0 0 1 1 0 -0 -0 1 0 4.5
1 4.5 -1.1021821192326179e-15 0 0 0 1 
2 0 0 0 0 0 1 1 0 -0 -0 1 0 4.5
Polygon3D 0
PolygonOnTriangulations 0
Surfaces 41
1 11.095313144145715 0 0 -0.98480775301220813 0.17364817766693039 0 0.17364817766693039 0.98480775301220813 0 0 0 -1 
1 7.8638649420326932 25.764997347704824 0 0 0 1 1 0 -0 -0 1 0 
2 15.44365148791171 29.150000000000009 44.81634888554936 0 -1 2.2204460492503131e-16 0.98480775301220813 -3.8557641006005203e-17 -0.17364817766693039 0.17364817766693039 2.1867124844470357e-16 0.98480775301220813 3.5
1 0 0 0 0 1 0 1 0 0 0 0 -1 
2 0 0 0 0 0 1 1 0 -0 -0 1 0 4.5
1 -2.8509800527199904e-10 1.621466554655203e-16 0 0 0 1 1 0 -0 -0 1 0 
1 19.614789061991441 48.31634888554936 0 0 -1 0 -1 0 0 -0 -0 -1 
1 19.614789061991441 29.150000000000009 48.31634888554936 0 -2.2204460492503131e-16 -1 -1 0 0 0 1 -2.2204460492503131e-16 
1 0 0 0 -0 1 0 0 0 1 1 0 -0 
1 5.2999999999999998 0 0 1 0 -0 0 0 1 0 -1 0 
1 0 50.299999999999997 0 -0 1 0 0 0 1 1 0 -0 
1 0 29.149999999999999 0 0 2.2204460492503131e-16 1 1 0 0 0 1 -2.2204460492503131e-16 
1 24.158174442774722 -37.149999999999999 0 -1 0 0 0 1 0 0 0 -1 
2 16.158174441463483 37.149999999999999 0 -0 -0 -1 1 0 0 0 1 0 8
1 0 29.150000000000009 48.31634888554936 1 0 0 0 -2.2204460492503131e-16 -1 0 1 -2.2204460492503131e-16 
2 16.158174441463483 -37.149999999999999 0 -0 -0 -1 1 0 0 0 1 0 8
1 0 0 0 0 0 1 1 0 -0 -0 1 0 
1 -24.158174442774637 -37.149999999999999 0 -1 0 0 0 1 0 0 0 -1 
2 -16.158174442774722 37.149999999999999 0 -0 -0 -1 1 0 0 0 1 0 8
2 0 0 0 0 0 1 1 0 -0 -0 1 0 4.5
1 0 0 3 0 0 1 1 0 -0 -0 1 0 
2 0 0 0 0 0 1 1 0 -0 -0 1 0 4.5
1 0 0 3 0 0 1 1 0 -0 -0 1 0 
2 -16.158174442774722 -37.149999999999999 0 -0 -0 -1 1 0 0 0 1 0 8
1 0 0 0 1 0 -0 0 0 1 0 -1 0 
1 0 0 0 0 0 1 1 0 -0 -0 1 0 
2 0 0 0 0 0 1 1 0 -0 -0 1 0 2.25
1 -16.158174442774726 45.149999999999999 0 0 1 0 1 0 0 0 0 -1 
2 0 0 0 0 0 1 1 0 -0 -0 1 0 2.25
2 0 0 0 0 0 1 1 0 -0 -0 1 0 2.25
2 0 0 0 0 0 1 1 0 -0 -0 1 0 2.25
2 0 0 0 0 0 1 1 0 -0 -0 1 0 2.25
1 -16.158174442774726 -45.149999999999999 0 0 1 0 1 0 0 0 0 -1 
2 0 0 0 0 0 1 1 0 -0 -0 1 0 4.5
1 0 0 3 0 0 1 1 0 -0 -0 1 0 
2 0 0 0 0 0 1 1 0 -0 -0 1 0 4.5
1 0 0 3 0 0 1 1 0 -0 -0 1 0 
1 0 0 0 0 0 1 1 0 -0 -0 1 0 
1 0 0 0 0 0 1 1 0 -0 -0 1 0 
1 0 0 0 0 0 1 1 0 -0 -0 1 0 
1 0 0 0 0 0 1 1 0 -0 -0 1 0 
Triangulations 0

TShapes 230
Ve
1e-07
18.8904786234544 29.15 44.2085802637151
0 0

0101101
*
Ve
1e-07
11.0953131441457 0 0
0 0

0101101
*
Ed
 1e-07 1 1 0
1  1 0 0 44.8905688734632
2  1 2 0 0 44.8905688734632
2  2 1 0 0 44.8905688734632
0

0101000
-230 4 +229 0 *
Ve
1e-07
18.8904786234544 -29.15 44.2085802637151
0 0

0101101
*
Ed
 1e-07 1 1 0
1  2 0 -0 58.3
2  3 3 0 -0 58.3
2  4 1 3 -0 58.3
4 G1 3 0 1 3
0

0101000
+230 0 -227 0 *
Ed
 1e-07 1 1 0
1  3 0 0 58.3
2  5 4 0 0 58.3
2  6 1 0 0 58.3
0

0101000
+229 0 -229 5 *
Ed
 1e-07 1 1 0
1  1 0 0 44.8905688734632
2  7 2 0 0 44.8905688734632
2  8 1 7 0 44.8905688734632
0

0101000
-227 8 +229 0 *
Wi

0101100
-228 3 -226 0 +225 3 +224 6 *
Ve
1.00000003719755e-07
14.7245335305413 -1.10218211923262e-15 20.582331596751
0 0

0101101
*
Ed
 1e-07 1 1 0
1  4 0 0 6.28318530717959
2  9 1 3 0 6.28318530717959
2  10 5 15 0 6.28318530717959
0

0101100
+222 0 -222 0 *
Wi

0101100
+221 0 *
Fa
0  1e-07 1 3

0101000
+223 0 +220 0 *
Ve
6.00000021316282e-07
6.00000000000001 29.15 -2.1316282072803e-14
0 0

0101101
*
Ed
 1e-07 1 1 0
1  5 0 6.00000000000001 11.0953131441457
2  11 4 0 6.00000000000001 11.0953131441457
2  12 4 7 6.00000000000001 11.0953131441457
2  13 2 0 6.00000000000001 11.0953131441457
0

0101000
+218 4 -229 0 *
Ve
6.00000021316282e-07
5.99999999999999 29.15 48.3163488855493
0 0

0101101
*
Ed
 6e-07 1 1 0
1  6 0 -24.9615858953823 23.3547629901671
2  14 2 3 -24.9615858953823 23.3547629901671
2  15 6 20 -24.9615858953823 23.3547629901671
0

0101000
+218 0 -216 0 *
Ve
1e-07
15.4436514879117 29.15 48.3163488855494
0 0

0101101
*
Ed
 1e-07 1 1 0
1  7 0 4.17113757407973 13.6147890619914
2  16 2 0 4.17113757407973 13.6147890619914
2  17 7 0 4.17113757407973 13.6147890619914
2  18 8 4 4.17113757407973 13.6147890619914
0

0101000
+214 4 -216 4 *
Ed
 1e-07 1 1 0
1  8 0 1.39626340159546 3.14159265358979
2  19 3 0 1.39626340159546 3.14159265358979
2  20 2 3 1.39626340159546 3.14159265358979
0

0101000
+230 0 -214 0 *
Wi

0101100
+228 3 +217 3 -215 0 +213 3 +212 0 *
Fa
0  1e-07 2 3

0101000
+211 0 *
Ve
1e-07
15.4436514879117 -29.15 48.3163488855494
0 0

0101101
*
Ed
 1e-07 1 1 0
1  9 0 1.39626340159546 3.14159265358979
2  21 3 0 1.39626340159546 3.14159265358979
2  22 2 6 1.39626340159546 3.14159265358979
0

0101000
+227 0 -209 0 *
Ve
1.50000003552714e-07
15.4436514879117 -25.15 48.3163488855494
0 0

0101101
*
Ed
 1e-07 1 1 0
1  10 0 54.3 58.3
2  23 3 0 54.3 58.3
2  24 7 3 54.3 58.3
4 G1 3 0 7 3
2  25 8 0 54.3 58.3
0

0101000
+207 0 -209 0 *
Ve
1.00000014755528e-07
15.6140571708719 -25.15 48.3121981247493
0 0

0101101
*
Ed
 1e-07 1 1 0
1  11 0 1.69662265825251 1.74532925199433
2  26 3 0 1.69662265825251 1.74532925199433
2  27 9 25 1.69662265825251 1.74532925199433
0

0101000
+205 0 -207 0 *
Ve
1.00000057533124e-07
15.6140571708719 25.15 48.3121981247493
0 0

0101101
*
Ed
 1e-07 1 1 0
1  12 0 4.00000000000001 54.3
2  28 3 0 4.00000000000001 54.3
2  29 10 25 4.00000000000001 54.3
0

0101000
+203 0 -205 0 *
Ve
1.5e-07
15.4436514879117 25.15 48.3163488855494
0 0

0101101
*
Ed
 1e-07 1 1 0
1  13 0 1.69662265825251 1.74532925199433
2  30 3 0 1.69662265825251 1.74532925199433
2  31 11 25 1.69662265825251 1.74532925199433
0

0101000
+203 0 -201 0 *
Ed
 1e-07 1 1 0
1  10 0 -0 4.00000000000001
2  23 3 0 -0 4.00000000000001
2  24 7 3 -0 4.00000000000001
4 G1 3 0 7 3
2  25 8 0 -0 4.00000000000001
0

0101000
+214 0 -201 0 *
Wi

0101100
-226 0 -208 0 +206 0 +204 0 +202 0 -200 0 +199 0 +212 0 *
Fa
0  1e-07 3 0

0101000
+198 0 *
Ve
1.00655619558643e-07
24.1581744421191 37.15 0
0 0

0101101
*
Ed
 1e-07 1 1 0
1  14 0 29.15 37.15
2  32 13 26 29.15 37.15
2  33 13 27 29.15 37.15
2  34 6 0 29.15 37.15
0

0101000
+218 28 -196 0 *
Ve
1.00655619558643e-07
24.1581744421191 37.15 0
0 0

0101101
*
Ed
 1.00655619558643e-07 1 1 0
1  15 0 0 6
2  35 14 0 0 6
4 G1 13 0 14 0
2  36 13 0 0 6
0

0101000
+194 16 -196 30 *
Ve
1.00655619558643e-07
24.1581744421191 -37.15 0
0 0

0101101
*
Ed
 1e-07 1 1 0
1  16 0 0 74.3
2  37 15 0 0 74.3
0

0101000
+192 31 -194 31 *
Ve
1.00655619558643e-07
24.1581744421191 -37.15 0
0 0

0101101
*
Ed
 1.00655619558643e-07 1 1 0
1  17 0 0 6
2  38 16 0 0 6
4 G1 16 0 13 0
2  39 13 0 0 6
0

0101000
+192 16 -190 30 *
Ve
6.00000029054537e-07
6.00000000000001 -29.15 -1.48436818392383e-14
0 0

0101101
*
Ed
 1e-07 1 1 0
1  14 0 -37.15 -29.15
2  32 13 26 -37.15 -29.15
2  33 13 27 -37.15 -29.15
2  34 6 0 -37.15 -29.15
0

0101000
+190 0 -188 28 *
Ed
 1e-07 1 1 0
1  5 0 6.00000000000001 11.0953131441457
2  11 4 0 6.00000000000001 11.0953131441457
2  12 4 7 6.00000000000001 11.0953131441457
2  13 2 0 6.00000000000001 11.0953131441457
0

0101000
+188 8 -229 0 *
Wi

0101100
-217 3 +195 20 -193 29 -191 0 +189 29 +187 20 +186 6 -225 3 *
Fa
0  0 12 0

0111000
+185 0 *
Ve
6.00000028421709e-07
5.99999999999999 -29.15 48.3163488855493
0 0

0101101
*
Ed
 6e-07 1 1 0
1  18 0 -24.9615858953823 23.3547629901671
2  40 2 6 -24.9615858953823 23.3547629901671
2  41 6 20 -24.9615858953823 23.3547629901671
0

0101000
+188 0 -183 0 *
Ed
 1e-07 1 1 0
1  7 0 4.17113757407973 13.6147890619914
2  42 2 0 4.17113757407973 13.6147890619914
2  43 7 7 4.17113757407973 13.6147890619914
2  44 8 8 4.17113757407973 13.6147890619914
0

0101000
+209 8 -183 8 *
Wi

0101100
+224 6 +186 6 -182 0 +181 6 +208 0 *
Fa
0  1e-07 2 6

0101000
+180 0 *
Ve
1e-07
4.5 -1.10218211923262e-15 0
0 0

0101101
*
Ed
 1e-07 1 1 0
1  19 0 0 3
3  45 46CN 5 0 0 3
0

0101000
+178 0 -222 32 *
Ed
 1e-07 1 1 0
1  20 0 0 6.28318530717959
2  47 5 0 0 6.28318530717959
2  48 17 0 0 6.28318530717959
0

0101000
+178 0 -178 0 *
Wi

0101100
-221 0 +177 15 +176 15 -177 15 *
Fa
0  1e-07 5 15

0101000
+175 0 *
Ve
1.00000042632564e-07
-24.1581744427747 37.15 0
0 0

0101101
*
Ed
 1e-07 1 1 0
1  21 0 29.15 37.15
2  49 18 26 29.15 37.15
2  50 18 27 29.15 37.15
2  51 6 0 29.15 37.15
2  52 8 28 29.15 37.15
0

0101000
+216 28 -173 0 *
Ve
1e-07
-16.1581744427748 45.15 0
0 0

0101101
*
Ed
 1e-07 1 1 0
1  22 0 1.5707963267949 3.14159265358979
2  53 19 26 1.5707963267949 3.14159265358979
2  54 19 27 1.5707963267949 3.14159265358979
2  55 6 0 1.5707963267949 3.14159265358979
0

0101000
+171 0 -173 0 *
Ve
1e-07
16.1581744414634 45.15 0
0 0

0101101
*
Ed
 1e-07 1 1 0
1  23 0 -16.1581744427748 16.1581744414634
2  56 6 0 -16.1581744427748 16.1581744414634
2  57 15 33 -16.1581744427748 16.1581744414634
0

0101000
+171 0 -169 0 *
Ed
 1e-07 1 1 0
1  24 0 0 1.5707963267949
2  58 14 26 0 1.5707963267949
2  59 14 27 0 1.5707963267949
2  60 6 0 0 1.5707963267949
0

0101000
+196 0 -169 0 *
Wi

0101100
-172 20 -215 0 +170 20 +195 20 -168 20 +167 20 *
Ve
1.00000002664535e-07
4.5 -1.10218211923262e-15 3
0 0

0101101
*
Ed
 1.00000002664535e-07 1 1 0
1  25 0 0 6.28318530717959
2  61 20 0 0 6.28318530717959
2  62 21 0 0 6.28318530717959
2  63 6 38 0 6.28318530717959
0

0101000
+165 0 -165 0 *
Wi

0101100
-164 37 *
Ve
1.00000002664535e-07
4.5 -1.10218211923262e-15 3
0 0

0101101
*
Ed
 1.00000002664535e-07 1 1 0
1  26 0 0 6.28318530717959
2  64 22 0 0 6.28318530717959
2  65 23 0 0 6.28318530717959
2  66 6 43 0 6.28318530717959
0

0101000
+162 0 -162 0 *
Wi

0101100
-161 42 *
Fa
0  1e-07 6 20

0101000
+166 0 +163 0 +160 0 *
Ve
1.00000042632564e-07
-24.1581744427747 37.15 0
0 0

0101101
*
Ed
 1.00000042632564e-07 1 1 0
1  27 0 0 6
2  67 19 0 0 6
4 G1 18 0 19 0
2  68 18 0 0 6
2  69 8 44 0 6
0

0101000
+158 16 -173 30 *
Ve
1.00000042641815e-07
-24.1581744427747 -37.15 0
0 0

0101101
*
Ed
 1e-07 1 1 0
1  28 0 0 74.3
2  70 8 0 0 74.3
2  71 15 0 0 74.3
0

0101000
+158 31 -156 31 *
Ve
1.00000042641815e-07
-24.1581744427747 -37.15 0
0 0

0101101
*
Ed
 1.00000042641815e-07 1 1 0
1  29 0 0 6
2  72 24 0 0 6
4 G1 18 0 24 0
2  73 18 0 0 6
2  74 8 44 0 6
0

0101000
+156 16 -154 30 *
Ed
 1e-07 1 1 0
1  21 0 -37.15 -29.15
2  49 18 26 -37.15 -29.15
2  50 18 27 -37.15 -29.15
2  51 6 0 -37.15 -29.15
2  75 8 28 -37.15 -29.15
0

0101000
+154 0 -183 28 *
Ve
1.50000007324107e-07
10.233028018997 -25.15 48.3163488855494
0 0

0101101
*
Ed
 1.5e-07 1 1 0
1  30 0 -0.824366511998727 4.38625695691599
2  76 8 0 -0.824366511998727 4.38625695691599
2  77 9 25 -0.824366511998727 4.38625695691599
0

0101000
+151 0 -207 0 *
Ve
1.50000007944109e-07
10.233028018997 25.15 48.3163488855494
0 0

0101101
*
Ed
 1.5e-07 1 1 0
1  31 0 -23.15 27.15
2  78 8 0 -23.15 27.15
2  79 25 25 -23.15 27.15
0

0101000
+149 0 -151 0 *
Ed
 1.5e-07 1 1 0
1  32 0 -0.824366511998729 4.38625695691599
2  80 8 0 -0.824366511998729 4.38625695691599
2  81 11 25 -0.824366511998729 4.38625695691599
0

0101000
+149 0 -201 0 *
Wi

0101100
-213 3 -172 20 +157 29 -155 0 -153 29 -152 20 +181 6 +206 0 +150 0 +148 0 
-147 0 +199 0 *
Fa
0  1e-07 8 0

0101000
+146 0 *
Ve
1e-07
5.3 0 0
0 0

0101101
*
Ed
 1e-07 1 1 0
1  33 0 0 45.4630517059015
2  82 10 0 0 45.4630517059015
2  83 9 0 0 45.4630517059015
0

0101000
+144 0 -205 45 *
Ve
1e-07
0 0 0
0 0

0101101
*
Ed
 1e-07 1 1 0
1  34 0 0 44.5327335011226
2  84 25 0 0 44.5327335011226
2  85 9 0 0 44.5327335011226
0

0101000
+142 0 -151 45 *
Ed
 1e-07 1 1 0
1  35 0 0 5.3
2  86 9 0 0 5.3
2  87 26 0 0 5.3
0

0101000
-144 0 +142 0 *
Wi

0101100
-143 25 -204 0 +150 0 +141 25 -140 25 *
Fa
0  1e-07 9 25

0101000
+139 0 *
Ve
1e-07
5.3 50.3 0
0 0

0101101
*
Ed
 1e-07 1 1 0
1  36 0 0 50.3
2  88 10 0 0 50.3
2  89 26 0 0 50.3
0

0101000
-137 0 +144 0 *
Ed
 1e-07 1 1 0
1  37 0 0 45.4630517059014
2  90 10 0 0 45.4630517059014
2  91 11 0 0 45.4630517059014
0

0101000
+137 0 -203 45 *
Wi

0101100
-143 25 +136 25 +202 0 +135 25 *
Ve
1.00000007126766e-07
11.23585668872 -5.51091059616309e-16 23.4821893276798
0 0

0101101
*
Ed
 1e-07 1 1 0
1  38 0 0 6.28318530717959
2  92 10 25 0 6.28318530717959
2  93 27 48 0 6.28318530717959
0

0101100
+133 0 -133 0 *
Wi

0101100
-132 0 *
Fa
0  1e-07 10 25

0101000
+134 0 +131 0 *
Ve
1e-07
0 50.3 0
0 0

0101101
*
Ed
 1e-07 1 1 0
1  39 0 0 44.5327335011226
2  94 25 0 0 44.5327335011226
2  95 11 0 0 44.5327335011226
0

0101000
+129 0 -149 45 *
Ed
 1e-07 1 1 0
1  40 0 0 5.3
2  96 11 0 0 5.3
2  97 26 0 0 5.3
0

0101000
-137 0 +129 0 *
Wi

0101100
-135 25 -200 0 +147 0 +128 25 -127 25 *
Fa
0  1e-07 11 25

0101000
+126 0 *
Ed
 1e-07 1 1 0
1  41 0 0 6
2  98 14 0 0 6
4 G1 14 0 28 0
0

0101000
+169 16 -169 30 *
Ed
 1e-07 1 1 0
1  24 0 0 1.5707963267949
2  58 14 26 0 1.5707963267949
2  59 14 27 0 1.5707963267949
2  60 6 0 0 1.5707963267949
2  99 15 33 0 1.5707963267949
0

0101000
+194 0 -169 0 *
Wi

0101100
+193 0 -124 0 -123 16 +167 30 *
Fa
0  1e-07 14 0

0101000
+122 0 *
Ve
1e-07
-16.1581744427748 -45.15 0
0 0

0101101
*
Ed
 1e-07 1 1 0
1  42 0 3.14159265358979 4.71238898038469
2  100 24 26 3.14159265358979 4.71238898038469
2  101 24 27 3.14159265358979 4.71238898038469
2  102 6 0 3.14159265358979 4.71238898038469
2  103 15 33 3.14159265358979 4.71238898038469
0

0101000
+156 0 -120 0 *
Ve
1.00000000888178e-07
16.1581744414634 -45.15 0
0 0

0101101
*
Ed
 1e-07 1 1 0
1  43 0 -16.1581744427748 16.1581744414634
2  104 6 0 -16.1581744427748 16.1581744414634
2  105 15 33 -16.1581744427748 16.1581744414634
0

0101000
+120 0 -118 0 *
Ed
 1e-07 1 1 0
1  22 0 1.5707963267949 3.14159265358979
2  53 19 26 1.5707963267949 3.14159265358979
2  54 19 27 1.5707963267949 3.14159265358979
2  55 6 0 1.5707963267949 3.14159265358979
2  106 15 33 1.5707963267949 3.14159265358979
0

0101000
+171 0 -158 0 *
Ed
 1e-07 1 1 0
1  44 0 4.71238898038469 6.28318530717959
2  107 16 26 4.71238898038469 6.28318530717959
2  108 16 27 4.71238898038469 6.28318530717959
2  109 6 0 4.71238898038469 6.28318530717959
2  110 15 33 4.71238898038469 6.28318530717959
0

0101000
+118 0 -192 0 *
Wi

0101100
+119 31 +155 0 +117 31 +116 31 +115 31 -168 31 +191 0 +123 31 *
Ve
1.000000004996e-07
0 -37.15 33.987261664162
0 0

0101101
*
Ed
 1e-07 1 1 0
1  45 0 0 6.28318530717959
2  111 15 0 0 6.28318530717959
2  112 29 52 0 6.28318530717959
0

0101100
+113 0 -113 0 *
Wi

0101100
-112 0 *
Ve
1.000000004996e-07
0 -37.15 9.82908722138734
0 0

0101101
*
Ed
 1e-07 1 1 0
1  46 0 0 6.28318530717959
2  113 15 0 0 6.28318530717959
2  114 30 56 0 6.28318530717959
0

0101100
+110 0 -110 0 *
Wi

0101100
-109 0 *
Ve
1.0000000235598e-07
-1.19673389309255e-15 -5.51091059616309e-16 25.4633740132749
0 0

0101101
*
Ed
 1e-07 1 1 0
1  47 0 0 6.28318530717959
2  115 15 0 0 6.28318530717959
2  116 27 48 0 6.28318530717959
0

0101100
+107 0 -107 0 *
Wi

0101100
-106 0 *
Ve
1.000000004996e-07
0 37.15 33.987261664162
0 0

0101101
*
Ed
 1e-07 1 1 0
1  48 0 0 6.28318530717959
2  117 15 0 0 6.28318530717959
2  118 31 60 0 6.28318530717959
0

0101100
+104 0 -104 0 *
Wi

0101100
-103 0 *
Ve
1.000000004996e-07
0 37.15 9.82908722138734
0 0

0101101
*
Ed
 1e-07 1 1 0
1  49 0 0 6.28318530717959
2  119 15 0 0 6.28318530717959
2  120 32 64 0 6.28318530717959
0

0101100
+101 0 -101 0 *
Wi

0101100
-100 0 *
Fa
0  1e-07 15 0

0101000
+114 0 +111 0 +108 0 +105 0 +102 0 +99 0 *
Ed
 1.00000000888178e-07 1 1 0
1  50 0 0 6
2  121 16 0 0 6
4 G1 33 0 16 0
0

0101000
+118 16 -118 30 *
Ed
 1e-07 1 1 0
1  44 0 4.71238898038469 6.28318530717959
2  107 16 26 4.71238898038469 6.28318530717959
2  108 16 27 4.71238898038469 6.28318530717959
2  109 6 0 4.71238898038469 6.28318530717959
0

0101000
+118 0 -190 0 *
Wi

0101100
+97 0 -189 0 -115 16 +96 30 *
Fa
0  1e-07 16 0

0101000
+95 0 *
Ed
 1e-07 1 1 0
1  42 0 3.14159265358979 4.71238898038469
2  100 24 26 3.14159265358979 4.71238898038469
2  101 24 27 3.14159265358979 4.71238898038469
2  102 6 0 3.14159265358979 4.71238898038469
0

0101000
+154 0 -120 0 *
Wi

0101100
-152 20 +93 20 +182 0 +117 20 +187 20 +96 20 *
Ve
1.00000002664535e-07
4.5 -1.10218211923262e-15 3
0 0

0101101
*
Ed
 1.00000002664535e-07 1 1 0
1  51 0 0 6.28318530717959
2  122 34 0 0 6.28318530717959
2  123 35 0 0 6.28318530717959
2  124 6 69 0 6.28318530717959
0

0101000
+91 0 -91 0 *
Wi

0101100
-90 68 *
Ve
1.00000002664535e-07
4.5 -1.10218211923262e-15 3
0 0

0101101
*
Ed
 1.00000002664535e-07 1 1 0
1  52 0 0 6.28318530717959
2  125 36 0 0 6.28318530717959
2  126 37 0 0 6.28318530717959
2  127 6 74 0 6.28318530717959
0

0101000
+88 0 -88 0 *
Wi

0101100
-87 73 *
Fa
0  1e-07 6 20

0101000
+92 0 +89 0 +86 0 *
Wi

0101100
+176 15 *
Ve
1.00000000551091e-07
12.1608186712552 -5.51091059616309e-16 23.3190935740293
0 0

0101101
*
Ed
 1e-07 1 1 0
1  53 0 0 6.28318530717959
2  128 27 48 0 6.28318530717959
2  129 17 15 0 6.28318530717959
0

0101100
+83 0 -83 0 *
Wi

0101100
-82 0 *
Fa
0  1e-07 17 15

0101000
+84 0 +81 0 *
Ed
 1e-07 1 1 0
1  54 0 0 6
2  130 19 0 0 6
4 G1 28 0 19 0
0

0101000
+171 16 -171 30 *
Wi

0101100
+79 0 -157 0 -116 16 +170 30 *
Fa
0  1e-07 19 0

0101000
+78 0 *
Wi

0101100
+79 0 -124 0 -168 16 +168 30 *
Fa
0  1e-07 28 0

0101000
+76 0 *
Ve
1e-07
4.5 -1.10218211923262e-15 0
0 0

0101101
*
Ed
 1e-07 1 1 0
1  55 0 0 3
3  131 132CN 20 0 0 3
0

0101000
-165 0 +74 0 *
Ed
 1e-07 1 1 0
1  56 0 0 6.28318530717959
2  133 20 0 0 6.28318530717959
2  134 38 0 0 6.28318530717959
0

0101000
+74 0 -74 0 *
Wi

0101100
-164 0 +73 0 +72 0 -73 0 *
Fa
0  1e-07 20 0

0111000
+71 0 *
Ve
1e-07
4.5 -1.10218211923262e-15 0
0 0

0101101
*
Ed
 1e-07 1 1 0
1  57 0 0 3
3  135 136CN 22 0 0 3
0

0101000
-162 0 +69 0 *
Ed
 1e-07 1 1 0
1  58 0 0 6.28318530717959
2  137 22 0 0 6.28318530717959
2  138 39 0 0 6.28318530717959
0

0101000
+69 0 -69 0 *
Wi

0101100
-161 0 +68 0 +67 0 -68 0 *
Fa
0  1e-07 22 0

0111000
+66 0 *
Ed
 1e-07 1 1 0
1  59 0 0 6
2  139 24 0 0 6
4 G1 24 0 33 0
0

0101000
+120 16 -120 30 *
Wi

0101100
+153 0 -64 0 -119 16 +93 30 *
Fa
0  1e-07 24 0

0101000
+63 0 *
Ed
 1e-07 1 1 0
1  60 0 0 50.3
2  140 25 0 0 50.3
2  141 26 0 0 50.3
0

0101000
-129 0 +142 0 *
Wi

0101100
-141 25 +61 25 +148 0 +128 25 *
Ve
1.0000000801258e-07
6.01637559775534 -5.51091059616309e-16 24.4025246693146
0 0

0101101
*
Ed
 1e-07 1 1 0
1  61 0 0 6.28318530717959
2  142 25 25 0 6.28318530717959
2  143 27 48 0 6.28318530717959
0

0101100
+59 0 -59 0 *
Wi

0101100
-58 0 *
Fa
0  1e-07 25 25

0101000
+60 0 +57 0 *
Wi

0101100
-61 0 -127 0 +136 0 +140 0 *
Fa
0  1e-07 26 0

0111000
+55 0 *
Ed
 1e-07 1 1 0
1  62 0 42.65 43.5892310120488
3  144 145CN 27 0 42.65 43.5892310120488
0

0101000
+133 75 -83 75 *
Wi

0101100
-82 0 +53 48 +132 0 -53 48 *
Fa
0  1e-07 27 48

0101000
+52 0 *
Wi

0101100
+64 0 -97 0 -117 16 +117 30 *
Fa
0  1e-07 33 0

0101000
+50 0 *
Ve
1.00000000444089e-07
3 -37.15 33.987261664162
0 0

0101101
*
Ed
 1e-07 1 1 0
1  63 0 0 6.28318530717959
2  146 29 52 0 6.28318530717959
2  147 40 68 0 6.28318530717959
0

0101100
+48 0 -48 0 *
Ed
 1e-07 1 1 0
1  64 0 3 6
3  148 149CN 29 0 3 6
0

0101000
+113 76 -48 76 *
Wi

0101100
-47 0 +46 52 +112 0 -46 52 *
Fa
0  1e-07 29 52

0101000
+45 0 *
Ve
1.00000000444089e-07
3 -37.15 9.82908722138734
0 0

0101101
*
Ed
 1e-07 1 1 0
1  65 0 0 6.28318530717959
2  150 30 56 0 6.28318530717959
2  151 41 73 0 6.28318530717959
0

0101100
+43 0 -43 0 *
Ed
 1e-07 1 1 0
1  66 0 3 6
3  152 153CN 30 0 3 6
0

0101000
+110 77 -43 77 *
Wi

0101100
-42 0 +41 56 +109 0 -41 56 *
Fa
0  1e-07 30 56

0101000
+40 0 *
Ed
 1e-07 1 1 0
1  62 0 31.2408121109392 37.35
3  144 145CN 27 0 31.2408121109392 37.35
0

0101000
+107 75 -59 75 *
Wi

0101100
-58 0 +38 48 +106 0 -38 48 *
Fa
0  1e-07 27 48

0101000
+37 0 *
Ve
1.00000000444089e-07
3 37.15 33.987261664162
0 0

0101101
*
Ed
 1e-07 1 1 0
1  67 0 0 6.28318530717959
2  154 31 60 0 6.28318530717959
2  155 38 37 0 6.28318530717959
0

0101100
+35 0 -35 0 *
Ed
 1e-07 1 1 0
1  68 0 3 6
3  156 157CN 31 0 3 6
0

0101000
+104 78 -35 78 *
Wi

0101100
-34 0 +33 60 +103 0 -33 60 *
Fa
0  1e-07 31 60

0101000
+32 0 *
Ve
1.00000000444089e-07
3 37.15 9.82908722138734
0 0

0101101
*
Ed
 1e-07 1 1 0
1  69 0 0 6.28318530717959
2  158 32 64 0 6.28318530717959
2  159 39 42 0 6.28318530717959
0

0101100
+30 0 -30 0 *
Ed
 1e-07 1 1 0
1  70 0 3 6
3  160 161CN 32 0 3 6
0

0101000
+101 79 -30 79 *
Wi

0101100
-29 0 +28 64 +100 0 -28 64 *
Fa
0  1e-07 32 64

0101000
+27 0 *
Ve
1e-07
4.5 -1.10218211923262e-15 0
0 0

0101101
*
Ed
 1e-07 1 1 0
1  71 0 0 3
3  162 163CN 34 0 0 3
0

0101000
-91 0 +25 0 *
Ed
 1e-07 1 1 0
1  72 0 0 6.28318530717959
2  164 34 0 0 6.28318530717959
2  165 40 0 0 6.28318530717959
0

0101000
+25 0 -25 0 *
Wi

0101100
-90 0 +24 0 +23 0 -24 0 *
Fa
0  1e-07 34 0

0111000
+22 0 *
Ve
1e-07
4.5 -1.10218211923262e-15 0
0 0

0101101
*
Ed
 1e-07 1 1 0
1  73 0 0 3
3  166 167CN 36 0 0 3
0

0101000
-88 0 +20 0 *
Ed
 1e-07 1 1 0
1  74 0 0 6.28318530717959
2  168 36 0 0 6.28318530717959
2  169 41 0 0 6.28318530717959
0

0101000
+20 0 -20 0 *
Wi

0101100
-87 0 +19 0 +18 0 -19 0 *
Fa
0  1e-07 36 0

0111000
+17 0 *
Wi

0101100
+72 37 *
Wi

0101100
-34 0 *
Fa
0  1e-07 38 37

0101000
+15 0 +14 0 *
Wi

0101100
+67 42 *
Wi

0101100
-29 0 *
Fa
0  1e-07 39 42

0101000
+12 0 +11 0 *
Wi

0101100
+23 68 *
Wi

0101100
-47 0 *
Fa
0  1e-07 40 68

0101000
+9 0 +8 0 *
Wi

0101100
+18 73 *
Wi

0101100
-42 0 *
Fa
0  1e-07 41 73

0101000
+6 0 +5 0 *
Sh

0101100
-219 0 -210 0 +197 0 -184 0 +179 0 -174 0 +159 0 -145 0 +138 0 -130 0 
-125 0 -121 29 -98 0 -94 29 +85 0 +80 0 -77 29 +75 29 -70 37 -65 42 
-62 29 +56 0 +54 25 -51 0 -49 29 -44 0 -39 0 -36 0 -31 0 -26 0 
-21 68 -16 73 +13 0 +10 0 +7 0 +4 0 *
So

0100000
+3 0 *
Co

1100000
+2 0 *

+1 0 