DBRep_DrawableShape

CASCADE Topology V3, (c) Open Cascade
Locations 79
1
              1               0               0 4.9737991503207e-14 
              0               1               0              -0 
              0               0               1               0 
1
2.22044604925031e-16               0               1               0 
              0               1               0               0 
             -1               0 2.22044604925031e-16               0 
1
              1               0               0               0 
              0               1               0               0 
              0               0               1            24.5 
2  1 1 2 1 3 1 0
2  2 1 3 1 0
1
              1               0               0               0 
              0               1               0               0 
              0               0               1               6 
2  1 1 6 1 0
2  1 1 6 1 2 1 3 1 0
2  1 -1 0
2  6 -1 1 -1 0
2  3 -1 2 -1 6 -1 1 -1 0
1
              1               0               0               0 
              0               1               0               0 
              0               0               1            58.3 
1
              1              -0               0               0 
              0 2.22044604925031e-16              -1               0 
              0               1 2.22044604925031e-16               0 
1
              1               0               0               0 
              0               1               0           29.15 
              0               0               1               0 
2  12 1 13 1 14 1 0
2  12 -1 0
2  14 -1 13 -1 12 -1 0
2  13 1 14 1 0
2  14 -1 13 -1 0
2  3 -1 2 -1 1 -1 0
1
              1               0               0              -0 
              0               1               0              -0 
              0               0               1              -6 
1
2.22044604925031e-16               0               1               0 
              0               1               0               0 
             -1               0 2.22044604925031e-16               0 
1
              1               0               0               3 
              0               1               0          -37.15 
              0               0               1           36.75 
2  21 1 22 1 23 1 0
1
              1               0               0              -0 
              0               1               0              -0 
              0               0               1              -6 
1
2.22044604925031e-16               0               1               0 
              0               1               0               0 
             -1               0 2.22044604925031e-16               0 
1
              1               0               0               3 
              0               1               0          -37.15 
              0               0               1           12.25 
2  25 1 26 1 27 1 0
1
              1               0               0              -0 
              0               1               0              -0 
              0               0               1             -40 
1
2.22044604925031e-16               0               1               0 
              0               1               0               0 
             -1               0 2.22044604925031e-16               0 
1
              1               0               0               0 
              0               1               0               0 
              0               0               1            22.5 
1
              1              -0               0               0 
              0               1              -0               0 
              0               0               1               0 
1
              1               0               0            5.15 
              0               1               0               0 
              0               0               1               4 
2  29 1 30 1 31 1 32 1 33 1 0
1
              1               0               0              -0 
              0               1               0              -0 
              0               0               1              -6 
1
2.22044604925031e-16               0               1               0 
              0               1               0               0 
             -1               0 2.22044604925031e-16               0 
1
              1               0               0               3 
              0               1               0           37.15 
              0               0               1           36.75 
2  35 1 36 1 37 1 0
1
              1               0               0              -0 
              0               1               0              -0 
              0               0               1              -6 
1
2.22044604925031e-16               0               1               0 
              0               1               0               0 
             -1               0 2.22044604925031e-16               0 
1
              1               0               0               3 
              0               1               0           37.15 
              0               0               1           12.25 
2  39 1 40 1 41 1 0
1
              1               0               0              -0 
              0               1               0              -0 
              0               0               1            -1.5 
1
2.22044604925031e-16               0               1               0 
              0               1               0               0 
             -1               0 2.22044604925031e-16               0 
1
              1               0               0             4.5 
              0               1               0          -37.15 
              0               0               1           36.75 
2  43 1 44 1 45 1 0
2  1 1 6 1 2 1 3 1 45 -1 44 -1 43 -1 0
1
              1               0               0              -0 
              0               1               0              -0 
              0               0               1            -1.5 
1
2.22044604925031e-16               0               1               0 
              0               1               0               0 
             -1               0 2.22044604925031e-16               0 
1
              1               0               0             4.5 
              0               1               0          -37.15 
              0               0               1           12.25 
2  48 1 49 1 50 1 0
2  1 1 6 1 2 1 3 1 50 -1 49 -1 48 -1 0
1
              1               0               0              -0 
              0               1               0              -0 
              0               0               1            -1.5 
1
2.22044604925031e-16               0               1               0 
              0               1               0               0 
             -1               0 2.22044604925031e-16               0 
1
              1               0               0             4.5 
              0               1               0           37.15 
              0               0               1           36.75 
2  53 1 54 1 55 1 0
2  1 1 6 1 2 1 3 1 55 -1 54 -1 53 -1 0
1
              1               0               0              -0 
              0               1               0              -0 
              0               0               1            -1.5 
1
2.22044604925031e-16               0               1               0 
              0               1               0               0 
             -1               0 2.22044604925031e-16               0 
1
              1               0               0             4.5 
              0               1               0           37.15 
              0               0               1           12.25 
2  58 1 59 1 60 1 0
2  1 1 6 1 2 1 3 1 60 -1 59 -1 58 -1 0
2  3 -1 2 -1 0
1
              1               0               0           -2.65 
              0               1               0          -25.15 
              0               0               1           -32.5 
1
              1               0               0               0 
              0               1               0               0 
              0               0               1            32.5 
1
              1              -0               0               0 
              0               1              -0               0 
              0               0               1               0 
1
              1               0               0            5.15 
              0               1               0               0 
              0               0               1               4 
2  64 1 65 1 66 1 67 1 0
2  23 -1 22 -1 21 -1 0
2  27 -1 26 -1 25 -1 0
2  33 -1 32 -1 31 -1 30 -1 29 -1 0
2  37 -1 36 -1 35 -1 0
2  41 -1 40 -1 39 -1 0
1
              1               0               0              -0 
              0               1               0              -0 
              0               0               1            -6.5 
1
2.22044604925031e-16               0               1               0 
              0               1               0               0 
             -1               0 2.22044604925031e-16               0 
1
              1               0               0           10.15 
              0               1               0               0 
              0               0               1               0 
2  74 1 75 1 76 1 31 1 32 1 33 1 0
2  67 -1 66 -1 65 -1 64 -1 0
2  33 -1 32 -1 31 -1 76 -1 75 -1 74 -1 0
Curve2ds 172
1 48.999999999316188 -66.299999999999997 -2.2204460492503131e-16 1 
1 6.2831853071795862 0 0 -1 
1 0 0 0 -1 
1 37.149999999999999 0 1 0 
1 37.149999999999999 -6 1 0 
1 24.500000000299387 -1.6130780135999793e-16 0 1 
1 0 -58.299999999999997 1 0 
1 -5.9000000000000004 -24.499999999999996 1 0 
1 0 0 0 1 
1 8.3000000000000007 0 0 -1 
1 0 0 1 0 
1 -5.9000000000000004 -24.499999999999996 1 0 
1 0 0 0 -1 
1 74.299999999999997 0 0 -1 
1 11.800000000000006 -66.300000000000011 0 1 
1 1.4721557306529578e-14 -66.300000000000011 -2.2204460492503131e-16 1 
1 0 0 1 0 
1 0 -6 1 0 
2 -16.499999999700712 -37.149999999999999 1 0 -0 1 8
2 7.9999999999999654 -66.300000000000011 1 2.2204460492503131e-16 -2.2204460492503131e-16 1 8
1 0 0 1 0 
1 0 -6 1 0 
2 -16.499999999700712 37.149999999999999 1 0 -0 1 8
2 7.9999999999999485 7.9999999999999911 1 2.2204460492503131e-16 -2.2204460492503131e-16 1 8
1 2.9938773636292666e-10 -45.149999999999999 1 0 
1 24.500000000000068 -74.300000000000011 1 2.2204460492503131e-16 
1 2.9938773636292666e-10 45.149999999999999 1 0 
1 24.500000000000046 15.999999999999995 1 2.2204460492503131e-16 
1 0 0 1 0 
1 0 -6 1 0 
2 16.499999998931628 -37.149999999999999 1 0 -0 1 8
2 40.999999998632305 -66.299999999999997 1 2.2204460492503131e-16 -2.2204460492503131e-16 1 8
1 0 0 1 0 
1 0 -6 1 0 
2 16.499999998931628 37.149999999999999 1 0 -0 1 8
2 40.99999999863229 7.9999999999999982 1 2.2204460492503131e-16 -2.2204460492503131e-16 1 8
2 12.250000000000014 -66.300000000000011 1 2.2204460492503131e-16 -2.2204460492503131e-16 1 2.25
1 0 3 1 0 
2 36.750000000000014 -66.299999999999997 1 2.2204460492503131e-16 -2.2204460492503131e-16 1 2.25
1 0 3 1 0 
2 22.500000000000007 -29.150000000000006 1 2.2204460492503131e-16 -2.2204460492503131e-16 1 2.25
1 0 34.850000000000001 1 0 
2 12.249999999999998 7.999999999999992 1 2.2204460492503131e-16 -2.2204460492503131e-16 1 2.25
1 0 3 1 0 
2 36.75 7.9999999999999973 1 2.2204460492503131e-16 -2.2204460492503131e-16 1 2.25
1 0 3 1 0 
1 4.7123889803846897 0 0 -1 
1 37.149999999999999 0 1 0 
1 37.149999999999999 -6 1 0 
1 -24.499999999700613 -1.6130780135999793e-16 0 1 
1 5.800000000000006 -29.150000000000009 0 1 
8 -24.500000000149665 24.499999999850338
1 0.099999999999999645 1.496651691468287e-10 -2.2204460492503131e-16 1 
8 -24.500000000149665 24.499999999850338
1 1.496616164331499e-10 -29.149999999999991 -1 2.2204460492503131e-16 
1 0 3 1 0 
2 0 0 1 0 -0 1 4.5
2 -12.249999999700663 -37.149999999999999 1 0 -0 1 4.5
1 0 3 1 0 
2 0 0 1 0 -0 1 4.5
2 12.250000000299339 -37.149999999999999 1 0 -0 1 4.4999999999999982
1 5.9000000000000004 24.500000000000004 -1 0 
1 0 -58.299999999999997 1 0 
1 0 -58.299999999999997 1 0 
1 -1.5707963267948966 58.299999999999997 1 0 
2 2.4000000000000004 21.000000000000004 0 -1 1 0 3.5
1 5.9000000000000004 -24.499999999999996 0 1 
1 0 -58.299999999999997 1 0 
1 0 58.299999999999997 1 0 
2 2.4000000000000004 -21 0 -1 1 0 3.5
1 0 0 1 0 
2 2.4000000000000004 -20.999999999999996 0 -1 1 0 3.5
1 1.5707963267948966 0 0 1 
1 3.4999999999999996 0 0 -1 
8 -24.500000000149662 24.499999999850338
1 0.099999999999999645 1.496651691468287e-10 -2.2204460492503131e-16 1 
8 -24.500000000149662 24.499999999850338
1 1.496758272878651e-10 29.150000000000006 -1 2.2204460492503131e-16 
1 5.9000000000000004 24.500000000000004 -1 0 
1 0 -0 1 0 
1 0 0 1 0 
1 -1.5707963267948966 0 1 0 
2 2.4000000000000004 21.000000000000004 0 -1 1 0 3.5
1 5.9000000000000004 -24.499999999999996 0 1 
1 0 0 1 0 
1 5.800000000000006 -29.150000000000009 0 1 
1 0 3 1 0 
2 0 0 1 0 -0 1 4.5
2 -12.249999999700663 37.149999999999999 1 0 -0 1 4.5
1 0 3 1 0 
2 0 0 1 0 -0 1 4.5
2 12.250000000299339 37.149999999999999 1 0 -0 1 4.4999999999999982
1 1.5707963267948966 0 0 -1 
1 3.1415926535897931 0 0 -1 
1 74.299999999999997 0 0 -1 
1 11.800000000000006 7.9999999999999893 -1 -4.9303806576313238e-32 
1 3.1415926535897931 0 0 -1 
1 0 0 0 -1 
1 11.800000000000006 -66.300000000000011 -1 -4.9303806576313238e-32 
1 1.5707963267948966 0 0 1 
1 3.5 0 0 -1 
1 3.5 0 0 -1 
8 -4.6500000000000004 0.64999999999999947
1 4.6500000000000004 -4.0000000000000107 -1 0 
8 -4.6500000000000004 0.64999999999999947
1 45 4.6500000000000004 0 1 
8 -23.149999999999988 27.150000000000009
1 4 -27.149999999999999 0 -1 
8 -23.149999999999988 27.150000000000009
1 45.000000000000007 -27.150000000000009 2.2204460492503131e-16 1 
8 -4.6500000000000004 0.64999999999999947
1 4.6500000000000004 -54.300000000000011 -1 0 
8 -4.6500000000000004 0.64999999999999947
1 45.000000000000014 4.6500000000000004 0 1 
8 -23.149999999999988 27.150000000000009
1 9.3000000000000007 -27.149999999999999 0 -1 
8 -23.149999999999988 27.150000000000009
1 45.000000000000007 -27.150000000000009 2.2204460492503131e-16 1 
1 4.7123889803846897 0 0 -1 
1 1.5707963267948966 0 0 -1 
1 0 6 1 0 
2 0 0 1 0 -0 1 2.25
1 6.2831853071795862 -0 0 1 
1 0 -0 0 1 
1 0 6 1 0 
2 0 0 1 0 -0 1 2.25
1 6.2831853071795862 -0 0 1 
1 0 -0 0 1 
2 22.5 -25.149999999999999 -1 0 -0 -1 2.25
1 0 37.350000000000001 1 0 
1 6.2831853071795862 -0 0 1 
1 0 -0 0 1 
1 0 6 1 0 
2 0 0 1 0 -0 1 2.25
1 6.2831853071795862 -0 0 1 
1 0 -0 0 1 
1 0 6 1 0 
2 0 0 1 0 -0 1 2.25
1 6.2831853071795862 -0 0 1 
1 0 -0 0 1 
1 6.2831853071795862 -0 0 1 
1 0 -0 0 1 
1 0 0 1 0 
2 0 0 1 0 -0 1 4.5
1 6.2831853071795862 -0 0 1 
1 0 -0 0 1 
1 0 0 1 0 
2 0 0 1 0 -0 1 4.5
1 0 0 0 1 
1 45.5 0 0 -1 
2 26.499999999999993 -29.150000000000006 -1 2.2204460492503131e-16 2.2204460492503131e-16 1 4.5
1 0 3 1 0 
1 6.2831853071795862 -0 0 1 
1 0 -0 0 1 
1 0 0 1 0 
2 0 0 1 0 -0 1 4.5
1 6.2831853071795862 -0 0 1 
1 0 -0 0 1 
1 0 0 1 0 
2 0 0 1 0 -0 1 4.5
1 0 -50.299999999999997 1 0 
1 0 5.2999999999999998 1 0 
1 0 -50.299999999999997 1 0 
1 0 0 1 0 
1 0 0 0 1 
1 0 50.299999999999997 1 0 
1 0 0 1 0 
1 0 5.2999999999999998 1 0 
1 0 0 0 -1 
1 5.2999999999999998 0 0 1 
2 22.500000000000004 -25.149999999999999 -1 0 -0 -1 2.25
1 0 42.650000000000006 1 0 
1 0 0 1 0 
1 0 0 1 0 
1 0 0 0 1 
1 0 0 1 0 
1 0 0 0 -1 
1 0 0 0 1 
1 6.2831853071795862 -0 0 1 
1 0 -0 0 1 
1 0 0 1 0 
2 0 0 1 0 -0 1 4.5
1 0 43.649999999999999 1 0 
2 -3.5527136788005017e-15 0 1 0 -0 1 2.25
Curves 75
8 0 74.299999999999997
1 5.4400928205114263e-15 -37.149999999999999 6.8382988160919922e-10 0 1 0 
1 24.49999999931617 -37.149999999999999 0 0 0 1 
1 24.5 0 0 0 1 0 
1 0 0 0 1 0 0 
1 8.3000000000000007 29.149999999999999 -4.4408920985006262e-16 0 -1 2.2204460492503131e-16 
1 24.49999999931617 37.149999999999999 0 0 0 1 
8 0 74.299999999999997
1 -5.440092820663267e-15 -37.149999999999999 49 0 1 0 
2 -16.500000000000099 -37.149999999999999 0 0 0 1 1 0 0 0 1 0 8
2 -16.500000000000099 37.149999999999999 0 0 0 1 1 0 0 0 1 0 8
1 0 -45.149999999999999 0 1 0 0 
1 0 45.149999999999999 0 1 0 0 
2 16.499999998632241 -37.149999999999999 0 0 0 1 1 0 0 0 1 0 8
2 16.499999998632241 37.149999999999999 0 0 0 1 1 0 0 0 1 0 8
2 0 -37.149999999999999 36.75 1 0 2.2204460492503131e-16 2.2204460492503131e-16 0 -1 -0 1 0 2.25
2 0 -37.149999999999999 12.249999999999998 1 0 2.2204460492503131e-16 2.2204460492503131e-16 0 -1 -0 1 0 2.25
2 0 0 26.5 1 0 2.2204460492503131e-16 2.2204460492503131e-16 0 -1 -0 1 0 2.25
2 0 37.149999999999999 36.75 1 0 2.2204460492503131e-16 2.2204460492503131e-16 0 -1 -0 1 0 2.25
2 0 37.149999999999999 12.249999999999998 1 0 2.2204460492503131e-16 2.2204460492503131e-16 0 -1 -0 1 0 2.25
1 16.49999999863229 -45.149999999999999 0 0 0 1 
1 -24.5 0 0 0 1 0 
1 6 -29.149999999999991 24.500000000149676 -2.2204460492503131e-16 2.2204460492503131e-16 1 
2 0 0 3 0 0 1 1 0 -0 -0 1 0 4.5
2 0 0 3 0 0 1 1 0 -0 -0 1 0 4.5
1 11.800000000000001 49 0 -1 0 0 
8 1.5707963267948966 3.1415926535897931
2 8.3000000000000007 -29.149999999999988 45.500000000000014 0 -1 2.2204460492503131e-16 0 -2.2204460492503131e-16 -1 1 0 0 3.5
1 11.800000000000001 0 0 0 1 0 
8 0 1.5707963267948966
2 8.3000000000000007 -29.149999999999999 3.5000000000000124 0 -1 2.2204460492503131e-16 0 -2.2204460492503131e-16 -1 1 0 0 3.5
8 0 1.5707963267948966
2 8.3000000000000007 29.149999999999999 3.4999999999999996 0 -1 2.2204460492503131e-16 0 -2.2204460492503131e-16 -1 1 0 0 3.5
1 11.800000000000001 29.149999999999999 3.4999999999999996 0 -1 2.2204460492503131e-16 
1 6 29.150000000000006 24.500000000149662 -2.2204460492503131e-16 2.2204460492503131e-16 1 
8 1.5707963267948966 3.1415926535897931
2 8.3000000000000007 29.150000000000009 45.5 0 -1 2.2204460492503131e-16 0 -2.2204460492503131e-16 -1 1 0 0 3.5
2 0 0 3 0 0 1 1 0 -0 -0 1 0 4.5
2 0 0 3 0 0 1 1 0 -0 -0 1 0 4.5
1 16.49999999863229 45.149999999999999 0 0 0 1 
1 -24.5 37.149999999999999 0 0 0 1 
1 -24.5 -37.149999999999999 0 0 0 1 
1 8.3000000000000007 29.150000000000009 49 0 -1 2.2204460492503131e-16 
1 7.1500000000000004 25.149999999999999 49 1 -0 0 
1 7.8000000000000007 2.0000000000000107 49.000000000000007 0 -1 2.2204460492503131e-16 
1 7.1500000000000004 -25.149999999999999 49.000000000000014 1 -0 0 
1 2.5 2.0000000000000107 49.000000000000007 0 -1 2.2204460492503131e-16 
1 -16.50000000000005 -45.149999999999999 0 0 0 1 
1 -16.50000000000005 45.149999999999999 0 0 0 1 
2 3 -37.149999999999999 36.75 1 0 2.2204460492503131e-16 2.2204460492503131e-16 0 -1 -0 1 0 2.25
1 2.25 -5.5109105961630896e-16 0 0 0 1 
2 3 -37.149999999999999 12.25 1 0 2.2204460492503131e-16 2.2204460492503131e-16 0 -1 -0 1 0 2.25
1 2.25 -5.5109105961630896e-16 0 0 0 1 
2 2.5 0 26.5 1 0 2.2204460492503131e-16 2.2204460492503131e-16 0 -1 -0 1 0 2.25
1 2.25 -5.5109105961630896e-16 0 0 0 1 
2 3 37.149999999999999 36.75 1 0 2.2204460492503131e-16 2.2204460492503131e-16 0 -1 -0 1 0 2.25
1 2.25 -5.5109105961630896e-16 0 0 0 1 
2 3 37.149999999999999 12.25 1 0 2.2204460492503131e-16 2.2204460492503131e-16 0 -1 -0 1 0 2.25
1 2.25 -5.5109105961630896e-16 0 0 0 1 
1 4.5 -1.1021821192326179e-15 0 0 0 1 
2 0 0 0 0 0 1 1 0 -0 -0 1 0 4.5
1 4.5 -1.1021821192326179e-15 0 0 0 1 
2 0 0 0 0 0 1 1 0 -0 -0 1 0 4.5
1 11.800000000000001 29.150000000000009 45.5 0 -1 2.2204460492503131e-16 
2 11.800000000000001 0 26.5 1 0 2.2204460492503131e-16 2.2204460492503131e-16 0 -1 -0 1 0 4.5
1 4.5 -1.1021821192326179e-15 0 0 0 1 
2 0 0 0 0 0 1 1 0 -0 -0 1 0 4.5
1 4.5 -1.1021821192326179e-15 0 0 0 1 
2 0 0 0 0 0 1 1 0 -0 -0 1 0 4.5
1 5.2999999999999998 50.299999999999997 0 0 0 1 
1 0 50.299999999999997 0 0 0 1 
1 0 50.299999999999997 0 1 0 -0 
1 5.2999999999999998 0 0 0 0 1 
1 5.2999999999999998 0 0 -0 1 0 
2 7.8000000000000043 0 26.500000000000004 1 0 2.2204460492503131e-16 2.2204460492503131e-16 0 -1 -0 1 0 2.25
1 0 0 0 0 0 1 
1 0 0 0 1 0 -0 
1 0 0 0 -0 1 0 
1 4.5 -1.1021821192326179e-15 0 0 0 1 
2 0 0 0 0 0 1 1 0 -0 -0 1 0 4.5
2 8.7999999999999972 0 26.500000000000004 1 0 2.2204460492503131e-16 2.2204460492503131e-16 0 -1 -0 1 0 2.25
Polygon3D 0
PolygonOnTriangulations 0
Surfaces 42
1 0 29.149999999999999 0 0 2.2204460492503131e-16 1 1 0 0 0 1 -2.2204460492503131e-16 
1 0 29.150000000000009 49 1 0 0 0 -2.2204460492503131e-16 -1 0 1 -2.2204460492503131e-16 
2 16.49999999863229 -37.149999999999999 0 -0 -0 -1 1 0 0 0 1 0 8
1 24.50000000000005 -37.149999999999999 0 -1 0 0 0 1 0 0 0 -1 
1 -2.9938773636292666e-10 1.6130780135999793e-16 0 0 0 1 1 0 -0 -0 1 0 
1 0 0 0 0 1 0 1 0 0 0 0 -1 
1 5.9000000000000004 24.499999999999996 0 0 0 1 1 0 -0 -0 1 0 
2 8.3000000000000007 29.149999999999999 3.4999999999999996 0 -1 2.2204460492503131e-16 0 -2.2204460492503131e-16 -1 1 0 0 3.5
2 16.49999999863229 37.149999999999999 0 -0 -0 -1 1 0 0 0 1 0 8
1 11.800000000000001 29.150000000000009 49 0 -2.2204460492503131e-16 -1 -1 0 0 0 1 -2.2204460492503131e-16 
2 -16.50000000000005 -37.149999999999999 0 -0 -0 -1 1 0 0 0 1 0 8
2 -16.50000000000005 37.149999999999999 0 -0 -0 -1 1 0 0 0 1 0 8
2 0 0 0 0 0 1 1 0 -0 -0 1 0 2.25
2 0 0 0 0 0 1 1 0 -0 -0 1 0 2.25
2 0 0 0 0 0 1 1 0 -0 -0 1 0 2.25
2 0 0 0 0 0 1 1 0 -0 -0 1 0 2.25
2 0 0 0 0 0 1 1 0 -0 -0 1 0 2.25
1 -16.500000000000046 -45.149999999999999 0 0 1 0 1 0 0 0 0 -1 
1 -24.49999999999995 -37.149999999999999 0 -1 0 0 0 1 0 0 0 -1 
2 0 0 0 0 0 1 1 0 -0 -0 1 0 4.5
1 0 0 3 0 0 1 1 0 -0 -0 1 0 
2 0 0 0 0 0 1 1 0 -0 -0 1 0 4.5
1 0 0 3 0 0 1 1 0 -0 -0 1 0 
1 11.800000000000001 49 0 0 -1 0 -1 0 0 -0 -0 -1 
2 8.3000000000000007 29.150000000000009 45.5 0 -1 2.2204460492503131e-16 1 0 -0 0 2.2204460492503131e-16 1 3.5
1 11.800000000000001 0 0 -1 0 0 0 1 0 0 0 -1 
2 0 0 0 0 0 1 1 0 -0 -0 1 0 4.5
1 0 0 3 0 0 1 1 0 -0 -0 1 0 
2 0 0 0 0 0 1 1 0 -0 -0 1 0 4.5
1 0 0 3 0 0 1 1 0 -0 -0 1 0 
1 -16.500000000000046 45.149999999999999 0 0 1 0 1 0 0 0 0 -1 
1 0 50.299999999999997 0 -0 1 0 0 0 1 1 0 -0 
1 5.2999999999999998 0 0 1 0 -0 0 0 1 0 -1 0 
1 0 0 0 -0 1 0 0 0 1 1 0 -0 
1 0 0 0 1 0 -0 0 0 1 0 -1 0 
1 0 0 0 0 0 1 1 0 -0 -0 1 0 
1 0 0 0 0 0 1 1 0 -0 -0 1 0 
1 0 0 0 0 0 1 1 0 -0 -0 1 0 
1 0 0 0 0 0 1 1 0 -0 -0 1 0 
2 0 0 0 0 0 1 1 0 -0 -0 1 0 4.5
1 0 0 0 0 0 1 1 0 -0 -0 1 0 
1 0 0 0 0 0 1 1 0 -0 -0 1 0 
Triangulations 0

TShapes 234
Ve
1.00683879619601e-07
24.4999999993161 -37.15 0
0 0

0101101
*
Ve
1.00683879619601e-07
24.4999999993161 37.15 0
0 0

0101101
*
Ed
 1e-07 1 1 0
1  1 0 0 74.3
2  1 2 0 0 74.3
0

0101000
+234 4 -233 4 *
Ve
1.00683879619601e-07
24.4999999993161 -37.15 0
0 0

0101101
*
Ed
 1.00683879619601e-07 1 1 0
1  2 0 0 6
2  2 3 0 0 6
4 G1 3 0 4 0
2  3 4 0 0 6
0

0101000
+234 1 -231 7 *
Ve
6.00000029054537e-07
6.00000000000001 -29.15 -1.83963955180388e-14
0 0

0101101
*
Ed
 1e-07 1 1 0
1  3 0 -37.15 -29.15
2  4 4 9 -37.15 -29.15
2  5 4 10 -37.15 -29.15
2  6 5 0 -37.15 -29.15
0

0101000
+231 0 -229 11 *
Ve
1e-07
8.3 -29.15 1.24344978758018e-14
0 0

0101101
*
Ed
 1e-07 1 1 0
1  4 0 6.00000000000001 8.3
2  7 6 16 6.00000000000001 8.3
2  8 7 0 6.00000000000001 8.3
0

0101000
+229 17 -227 17 *
Ve
1e-07
8.3 29.15 -4.44089209850063e-16
0 0

0101101
*
Ed
 1e-07 1 1 0
1  5 0 -0 58.3
2  9 8 0 -0 58.3
2  10 6 18 -0 58.3
4 G1 8 0 6 18
0

0101000
+225 0 -227 0 *
Ve
6.00000024868996e-07
6.00000000000001 29.15 -2.48689957516035e-14
0 0

0101101
*
Ed
 1e-07 1 1 0
1  4 0 6.00000000000001 8.3
2  11 6 0 6.00000000000001 8.3
2  12 7 0 6.00000000000001 8.3
0

0101000
+223 19 -225 19 *
Ve
1.00683879619601e-07
24.4999999993161 37.15 0
0 0

0101101
*
Ed
 1e-07 1 1 0
1  3 0 29.15 37.15
2  4 4 9 29.15 37.15
2  5 4 10 29.15 37.15
2  6 5 0 29.15 37.15
0

0101000
+223 11 -221 0 *
Ed
 1.00683879619601e-07 1 1 0
1  6 0 0 6
2  13 9 0 0 6
4 G1 4 0 9 0
2  14 4 0 0 6
0

0101000
+233 1 -221 7 *
Wi

0101100
-232 0 +230 5 +228 8 +226 15 -224 0 -222 18 +220 8 -219 5 *
Fa
0  0 1 0

0111000
+218 0 *
Ve
1.00000049745921e-07
-24.5 -37.15 0
0 0

0101101
*
Ve
1.00000049737991e-07
-24.5 37.15 0
0 0

0101101
*
Ed
 1e-07 1 1 0
1  7 0 0 74.3
2  15 10 0 0 74.3
2  16 2 0 0 74.3
0

0101000
+216 4 -215 4 *
Ve
1e-07
-16.5000000000001 -45.15 0
0 0

0101101
*
Ed
 1e-07 1 1 0
1  8 0 3.14159265358979 4.71238898038469
2  17 11 9 3.14159265358979 4.71238898038469
2  18 11 10 3.14159265358979 4.71238898038469
2  19 5 0 3.14159265358979 4.71238898038469
2  20 2 20 3.14159265358979 4.71238898038469
0

0101000
+216 0 -213 0 *
Ve
1e-07
-16.5000000000001 45.15 0
0 0

0101101
*
Ed
 1e-07 1 1 0
1  9 0 1.5707963267949 3.14159265358979
2  21 12 9 1.5707963267949 3.14159265358979
2  22 12 10 1.5707963267949 3.14159265358979
2  23 5 0 1.5707963267949 3.14159265358979
2  24 2 20 1.5707963267949 3.14159265358979
0

0101000
+211 0 -215 0 *
Ve
1.00000000888178e-07
16.4999999986322 -45.15 0
0 0

0101101
*
Ed
 1e-07 1 1 0
1  10 0 -16.5000000000001 16.4999999986322
2  25 5 0 -16.5000000000001 16.4999999986322
2  26 2 20 -16.5000000000001 16.4999999986322
0

0101000
+213 0 -209 0 *
Ve
1e-07
16.4999999986322 45.15 0
0 0

0101101
*
Ed
 1e-07 1 1 0
1  11 0 -16.5000000000001 16.4999999986322
2  27 5 0 -16.5000000000001 16.4999999986322
2  28 2 20 -16.5000000000001 16.4999999986322
0

0101000
+211 0 -207 0 *
Ed
 1e-07 1 1 0
1  12 0 4.71238898038469 6.28318530717959
2  29 3 9 4.71238898038469 6.28318530717959
2  30 3 10 4.71238898038469 6.28318530717959
2  31 5 0 4.71238898038469 6.28318530717959
2  32 2 20 4.71238898038469 6.28318530717959
0

0101000
+209 0 -234 0 *
Ed
 1e-07 1 1 0
1  13 0 0 1.5707963267949
2  33 9 9 0 1.5707963267949
2  34 9 10 0 1.5707963267949
2  35 5 0 0 1.5707963267949
2  36 2 20 0 1.5707963267949
0

0101000
+233 0 -207 0 *
Wi

0101100
-214 0 +212 4 +210 4 +208 4 -206 4 +205 4 +204 4 +232 0 *
Ve
1.000000004996e-07
0 -37.15 34.5
0 0

0101101
*
Ed
 1e-07 1 1 0
1  14 0 0 6.28318530717959
2  37 2 0 0 6.28318530717959
2  38 13 24 0 6.28318530717959
0

0101100
+202 0 -202 0 *
Wi

0101100
-201 0 *
Ve
1.000000004996e-07
0 -37.15 10
0 0

0101101
*
Ed
 1e-07 1 1 0
1  15 0 0 6.28318530717959
2  39 2 0 0 6.28318530717959
2  40 14 28 0 6.28318530717959
0

0101100
+199 0 -199 0 *
Wi

0101100
-198 0 *
Ve
1.00000000743843e-07
0 -5.51091059616309e-16 24.25
0 0

0101101
*
Ed
 1e-07 1 1 0
1  16 0 0 6.28318530717959
2  41 2 0 0 6.28318530717959
2  42 15 34 0 6.28318530717959
0

0101100
+196 0 -196 0 *
Wi

0101100
-195 0 *
Ve
1.000000004996e-07
0 37.15 34.5
0 0

0101101
*
Ed
 1e-07 1 1 0
1  17 0 0 6.28318530717959
2  43 2 0 0 6.28318530717959
2  44 16 38 0 6.28318530717959
0

0101100
+193 0 -193 0 *
Wi

0101100
-192 0 *
Ve
1.000000004996e-07
0 37.15 10
0 0

0101101
*
Ed
 1e-07 1 1 0
1  18 0 0 6.28318530717959
2  45 2 0 0 6.28318530717959
2  46 17 42 0 6.28318530717959
0

0101100
+190 0 -190 0 *
Wi

0101100
-189 0 *
Fa
0  1e-07 2 0

0101000
+203 0 +200 0 +197 0 +194 0 +191 0 +188 0 *
Ed
 1.00000000888178e-07 1 1 0
1  19 0 0 6
2  47 3 0 0 6
4 G1 18 0 3 0
0

0101000
+209 1 -209 7 *
Ed
 1e-07 1 1 0
1  12 0 4.71238898038469 6.28318530717959
2  29 3 9 4.71238898038469 6.28318530717959
2  30 3 10 4.71238898038469 6.28318530717959
2  31 5 0 4.71238898038469 6.28318530717959
0

0101000
+209 0 -231 0 *
Wi

0101100
+186 0 -230 0 -205 1 +185 7 *
Fa
0  1e-07 3 0

0101000
+184 0 *
Ve
1.00000049745921e-07
-24.5 -37.15 0
0 0

0101101
*
Ve
6.00000028642893e-07
5.99999999999999 -29.15 49
0 0

0101101
*
Ed
 1e-07 1 1 0
1  20 0 -37.15 -29.15
2  48 19 9 -37.15 -29.15
2  49 19 10 -37.15 -29.15
2  50 5 0 -37.15 -29.15
2  51 10 11 -37.15 -29.15
0

0101000
+182 0 -181 11 *
Ed
 1e-07 1 1 0
1  8 0 3.14159265358979 4.71238898038469
2  17 11 9 3.14159265358979 4.71238898038469
2  18 11 10 3.14159265358979 4.71238898038469
2  19 5 0 3.14159265358979 4.71238898038469
0

0101000
+182 0 -213 0 *
Ed
 6e-07 1 1 0
1  21 0 -24.5000000001497 24.4999999998503
2  52 7 15 -24.5000000001497 24.4999999998503
2  53 5 8 -24.5000000001497 24.4999999998503
0

0101000
+229 0 -181 0 *
Wi

0101100
-180 8 +179 8 +178 0 +208 8 +228 8 +185 8 *
Ve
1.00000002664535e-07
4.5 -1.10218211923262e-15 3
0 0

0101101
*
Ed
 1.00000002664535e-07 1 1 0
1  22 0 0 6.28318530717959
2  54 20 0 0 6.28318530717959
2  55 21 0 0 6.28318530717959
2  56 5 47 0 6.28318530717959
0

0101000
+176 0 -176 0 *
Wi

0101100
-175 46 *
Ve
1.00000003552714e-07
4.5 -1.10218211923262e-15 3
0 0

0101101
*
Ed
 1.00000003552714e-07 1 1 0
1  23 0 0 6.28318530717959
2  57 22 0 0 6.28318530717959
2  58 23 0 0 6.28318530717959
2  59 5 52 0 6.28318530717959
0

0101000
+173 0 -173 0 *
Wi

0101100
-172 51 *
Fa
0  1e-07 5 8

0101000
+177 0 +174 0 +171 0 *
Ve
1e-07
8.3 -29.15 49
0 0

0101101
*
Ed
 1e-07 1 1 0
1  24 0 3.5 5.80000000000001
2  60 7 0 3.5 5.80000000000001
2  61 24 16 3.5 5.80000000000001
2  62 10 17 3.5 5.80000000000001
0

0101000
+169 17 -181 17 *
Ve
1e-07
11.8 -29.15 45.5
0 0

0101101
*
Ed
 1e-07 1 1 0
1  25 0 1.5707963267949 3.14159265358979
2  63 25 0 1.5707963267949 3.14159265358979
2  64 7 15 1.5707963267949 3.14159265358979
0

0101000
+167 0 -169 0 *
Ve
1e-07
11.8 -29.15 3.50000000000001
0 0

0101101
*
Ed
 1e-07 1 1 0
1  26 0 3.5 45.5
2  65 7 0 3.5 45.5
2  66 26 16 3.5 45.5
0

0101000
+165 17 -167 17 *
Ed
 1e-07 1 1 0
1  27 0 0 1.5707963267949
2  67 8 0 0 1.5707963267949
2  68 7 15 0 1.5707963267949
0

0101000
+227 0 -165 0 *
Wi

0101100
-178 0 +168 15 +166 0 +164 15 +163 0 +226 15 *
Fa
0  1e-07 7 15

0101000
+162 0 *
Ve
1e-07
11.8 29.15 3.5
0 0

0101101
*
Ed
 1e-07 1 1 0
1  28 0 0 1.5707963267949
2  69 8 0 0 1.5707963267949
2  70 7 18 0 1.5707963267949
0

0101000
+225 0 -160 0 *
Ed
 1e-07 1 1 0
1  29 0 -0 58.3
2  71 8 0 -0 58.3
2  72 26 18 -0 58.3
4 G1 8 0 26 18
0

0101000
+160 0 -165 0 *
Wi

0101100
+159 0 -224 0 +158 0 -163 0 *
Fa
0  0 8 0

0101000
+157 0 *
Ve
6.00000028642893e-07
5.99999999999999 29.15 49
0 0

0101101
*
Ed
 6e-07 1 1 0
1  30 0 -24.5000000001497 24.4999999998503
2  73 7 18 -24.5000000001497 24.4999999998503
2  74 5 8 -24.5000000001497 24.4999999998503
0

0101000
+223 0 -155 0 *
Ve
1e-07
8.3 29.15 49
0 0

0101101
*
Ed
 1e-07 1 1 0
1  24 0 3.5 5.80000000000001
2  75 7 0 3.5 5.80000000000001
2  76 24 0 3.5 5.80000000000001
2  77 10 19 3.5 5.80000000000001
0

0101000
+153 19 -155 19 *
Ve
1e-07
11.8 29.15 45.5
0 0

0101101
*
Ed
 1e-07 1 1 0
1  31 0 1.5707963267949 3.14159265358979
2  78 25 0 1.5707963267949 3.14159265358979
2  79 7 18 1.5707963267949 3.14159265358979
0

0101000
+151 0 -153 0 *
Ed
 1e-07 1 1 0
1  26 0 3.5 45.5
2  80 7 0 3.5 45.5
2  81 26 0 3.5 45.5
0

0101000
+160 19 -151 19 *
Wi

0101100
-154 0 +152 18 +150 0 +149 18 +159 0 +222 18 *
Fa
0  1e-07 7 18

0101000
+148 0 *
Ve
1.00000049737991e-07
-24.5 37.15 0
0 0

0101101
*
Ed
 1e-07 1 1 0
1  20 0 29.15 37.15
2  48 19 9 29.15 37.15
2  49 19 10 29.15 37.15
2  50 5 0 29.15 37.15
2  82 10 11 29.15 37.15
0

0101000
+155 11 -146 0 *
Ed
 1e-07 1 1 0
1  9 0 1.5707963267949 3.14159265358979
2  21 12 9 1.5707963267949 3.14159265358979
2  22 12 10 1.5707963267949 3.14159265358979
2  23 5 0 1.5707963267949 3.14159265358979
0

0101000
+211 0 -146 0 *
Ed
 1e-07 1 1 0
1  13 0 0 1.5707963267949
2  33 9 9 0 1.5707963267949
2  34 9 10 0 1.5707963267949
2  35 5 0 0 1.5707963267949
0

0101000
+221 0 -207 0 *
Wi

0101100
-145 8 -154 0 +144 8 +220 8 -206 8 +143 8 *
Ve
1.00000002664535e-07
4.5 -1.10218211923262e-15 3
0 0

0101101
*
Ed
 1.00000002664535e-07 1 1 0
1  32 0 0 6.28318530717959
2  83 27 0 0 6.28318530717959
2  84 28 0 0 6.28318530717959
2  85 5 57 0 6.28318530717959
0

0101000
+141 0 -141 0 *
Wi

0101100
-140 56 *
Ve
1.00000003552714e-07
4.5 -1.10218211923262e-15 3
0 0

0101101
*
Ed
 1.00000003552714e-07 1 1 0
1  33 0 0 6.28318530717959
2  86 29 0 0 6.28318530717959
2  87 30 0 0 6.28318530717959
2  88 5 62 0 6.28318530717959
0

0101000
+138 0 -138 0 *
Wi

0101100
-137 61 *
Fa
0  1e-07 5 8

0101000
+142 0 +139 0 +136 0 *
Ed
 1e-07 1 1 0
1  34 0 0 6
2  89 9 0 0 6
4 G1 9 0 31 0
0

0101000
+207 1 -207 7 *
Wi

0101100
+219 0 -134 0 -204 1 +143 7 *
Fa
0  1e-07 9 0

0101000
+133 0 *
Ed
 1.00000049737991e-07 1 1 0
1  35 0 0 6
2  90 12 0 0 6
4 G1 19 0 12 0
2  91 19 0 0 6
2  92 10 63 0 6
0

0101000
+215 1 -146 7 *
Ed
 1.00000049745921e-07 1 1 0
1  36 0 0 6
2  93 11 0 0 6
4 G1 19 0 11 0
2  94 19 0 0 6
2  95 10 63 0 6
0

0101000
+216 1 -182 7 *
Ed
 1e-07 1 1 0
1  37 0 -0 58.3
2  96 25 0 -0 58.3
2  97 24 18 -0 58.3
4 G1 25 0 24 18
2  98 10 0 -0 58.3
0

0101000
+153 0 -169 0 *
Wi

0101100
+131 5 +214 0 -145 8 -130 5 -152 18 -180 8 +129 0 +168 15 *
Ve
1.50000000444089e-07
2.5 25.15 49
0 0

0101101
*
Ve
1.50000000888178e-07
7.8 25.15 49
0 0

0101101
*
Ed
 1.5e-07 1 1 0
1  38 0 -4.65 0.649999999999999
2  99 10 0 -4.65 0.649999999999999
2  100 32 68 -4.65 0.649999999999999
0

0101000
+127 0 -126 0 *
Ve
1.50000000888178e-07
7.8 -25.15 49
0 0

0101101
*
Ed
 1.5e-07 1 1 0
1  39 0 -23.15 27.15
2  101 10 0 -23.15 27.15
2  102 33 68 -23.15 27.15
0

0101000
+126 0 -124 0 *
Ve
1.50000000444089e-07
2.5 -25.15 49
0 0

0101101
*
Ed
 1.5e-07 1 1 0
1  40 0 -4.65 0.649999999999999
2  103 10 0 -4.65 0.649999999999999
2  104 34 68 -4.65 0.649999999999999
0

0101000
+122 0 -124 0 *
Ed
 1.5e-07 1 1 0
1  41 0 -23.15 27.15
2  105 10 0 -23.15 27.15
2  106 35 68 -23.15 27.15
0

0101000
+127 0 -122 0 *
Wi

0101100
-125 0 -123 0 +121 0 +120 0 *
Fa
0  1e-07 10 0

0101000
+128 0 +119 0 *
Ed
 1e-07 1 1 0
1  42 0 0 6
2  107 11 0 0 6
4 G1 11 0 18 0
0

0101000
+213 1 -213 7 *
Wi

0101100
+130 0 -117 0 -212 1 +179 7 *
Fa
0  1e-07 11 0

0101000
+116 0 *
Ed
 1e-07 1 1 0
1  43 0 0 6
2  108 12 0 0 6
4 G1 31 0 12 0
0

0101000
+211 1 -211 7 *
Wi

0101100
+114 0 -131 0 -210 1 +144 7 *
Fa
0  1e-07 12 0

0101000
+113 0 *
Wi

0101100
+117 0 -186 0 -208 1 +208 7 *
Fa
0  1e-07 18 0

0101000
+111 0 *
Wi

0101100
+114 0 -134 0 -206 1 +206 7 *
Fa
0  1e-07 31 0

0101000
+109 0 *
Ve
1.00000000444089e-07
3 -37.15 34.5
0 0

0101101
*
Ed
 1e-07 1 1 0
1  44 0 0 6.28318530717959
2  109 13 24 0 6.28318530717959
2  110 36 46 0 6.28318530717959
0

0101100
+107 0 -107 0 *
Ed
 1e-07 1 1 0
1  45 0 3 6
3  111 112CN 13 0 3 6
0

0101000
+202 69 -107 69 *
Wi

0101100
-106 0 +105 24 +201 0 -105 24 *
Fa
0  1e-07 13 24

0101000
+104 0 *
Ve
1.00000000444089e-07
3 -37.15 10
0 0

0101101
*
Ed
 1e-07 1 1 0
1  46 0 0 6.28318530717959
2  113 14 28 0 6.28318530717959
2  114 37 51 0 6.28318530717959
0

0101100
+102 0 -102 0 *
Ed
 1e-07 1 1 0
1  47 0 3 6
3  115 116CN 14 0 3 6
0

0101000
+199 70 -102 70 *
Wi

0101100
-101 0 +100 28 +198 0 -100 28 *
Fa
0  1e-07 14 28

0101000
+99 0 *
Ve
1.00000000707755e-07
2.5 -5.51091059616309e-16 24.25
0 0

0101101
*
Ed
 1e-07 1 1 0
1  48 0 0 6.28318530717959
2  117 35 68 0 6.28318530717959
2  118 15 34 0 6.28318530717959
0

0101100
+97 0 -97 0 *
Ed
 1e-07 1 1 0
1  49 0 34.85 37.35
3  119 120CN 15 0 34.85 37.35
0

0101000
+196 71 -97 71 *
Wi

0101100
-96 0 +95 34 +195 0 -95 34 *
Fa
0  1e-07 15 34

0101000
+94 0 *
Ve
1.00000000444089e-07
3 37.15 34.5
0 0

0101101
*
Ed
 1e-07 1 1 0
1  50 0 0 6.28318530717959
2  121 16 38 0 6.28318530717959
2  122 38 56 0 6.28318530717959
0

0101100
+92 0 -92 0 *
Ed
 1e-07 1 1 0
1  51 0 3 6
3  123 124CN 16 0 3 6
0

0101000
+193 72 -92 72 *
Wi

0101100
-91 0 +90 38 +192 0 -90 38 *
Fa
0  1e-07 16 38

0101000
+89 0 *
Ve
1.00000000444089e-07
3 37.15 10
0 0

0101101
*
Ed
 1e-07 1 1 0
1  52 0 0 6.28318530717959
2  125 17 42 0 6.28318530717959
2  126 39 61 0 6.28318530717959
0

0101100
+87 0 -87 0 *
Ed
 1e-07 1 1 0
1  53 0 3 6
3  127 128CN 17 0 3 6
0

0101000
+190 73 -87 73 *
Wi

0101100
-86 0 +85 42 +189 0 -85 42 *
Fa
0  1e-07 17 42

0101000
+84 0 *
Ve
1e-07
4.5 -1.10218211923262e-15 0
0 0

0101101
*
Ed
 1e-07 1 1 0
1  54 0 0 3
3  129 130CN 20 0 0 3
0

0101000
-176 0 +82 0 *
Ed
 1e-07 1 1 0
1  55 0 0 6.28318530717959
2  131 20 0 0 6.28318530717959
2  132 36 0 0 6.28318530717959
0

0101000
+82 0 -82 0 *
Wi

0101100
-175 0 +81 0 +80 0 -81 0 *
Fa
0  1e-07 20 0

0111000
+79 0 *
Ve
1e-07
4.5 -1.10218211923262e-15 0
0 0

0101101
*
Ed
 1e-07 1 1 0
1  56 0 0 3
3  133 134CN 22 0 0 3
0

0101000
-173 0 +77 0 *
Ed
 1e-07 1 1 0
1  57 0 0 6.28318530717959
2  135 22 0 0 6.28318530717959
2  136 37 0 0 6.28318530717959
0

0101000
+77 0 -77 0 *
Wi

0101100
-172 0 +76 0 +75 0 -76 0 *
Fa
0  1e-07 22 0

0111000
+74 0 *
Ed
 1e-07 1 1 0
1  58 0 -0 58.3
2  137 25 0 -0 58.3
2  138 26 18 -0 58.3
4 G1 25 0 26 18
0

0101000
+151 0 -167 0 *
Wi

0101100
+150 0 -72 0 +129 0 -166 0 *
Fa
0  0 25 0

0101000
+71 0 *
Wi

0101100
-149 18 +158 0 -72 0 +164 15 *
Ve
1.00000002090514e-07
11.8 -1.10218211923262e-15 22
0 0

0101101
*
Ed
 1e-07 1 1 0
1  59 0 0 6.28318530717959
2  139 26 18 0 6.28318530717959
2  140 40 77 0 6.28318530717959
0

0101100
+68 0 -68 0 *
Wi

0101100
+67 0 *
Fa
0  1e-07 26 18

0101000
+69 0 +66 0 *
Ve
1e-07
4.5 -1.10218211923262e-15 0
0 0

0101101
*
Ed
 1e-07 1 1 0
1  60 0 0 3
3  141 142CN 27 0 0 3
0

0101000
-141 0 +64 0 *
Ed
 1e-07 1 1 0
1  61 0 0 6.28318530717959
2  143 27 0 0 6.28318530717959
2  144 38 0 0 6.28318530717959
0

0101000
+64 0 -64 0 *
Wi

0101100
-140 0 +63 0 +62 0 -63 0 *
Fa
0  1e-07 27 0

0111000
+61 0 *
Ve
1e-07
4.5 -1.10218211923262e-15 0
0 0

0101101
*
Ed
 1e-07 1 1 0
1  62 0 0 3
3  145 146CN 29 0 0 3
0

0101000
-138 0 +59 0 *
Ed
 1e-07 1 1 0
1  63 0 0 6.28318530717959
2  147 29 0 0 6.28318530717959
2  148 39 0 0 6.28318530717959
0

0101000
+59 0 -59 0 *
Wi

0101100
-137 0 +58 0 +57 0 -58 0 *
Fa
0  1e-07 29 0

0111000
+56 0 *
Ve
1e-07
5.3 50.3 0
0 0

0101101
*
Ed
 1e-07 1 1 0
1  64 0 0 45
2  149 33 0 0 45
2  150 32 0 0 45
0

0101000
+54 0 -126 78 *
Ve
1e-07
0 50.3 0
0 0

0101101
*
Ed
 1e-07 1 1 0
1  65 0 0 45
2  151 35 0 0 45
2  152 32 0 0 45
0

0101000
+52 0 -127 78 *
Ed
 1e-07 1 1 0
1  66 0 0 5.3
2  153 32 0 0 5.3
2  154 41 0 0 5.3
0

0101000
-54 0 +52 0 *
Wi

0101100
-53 68 +125 0 +51 68 -50 68 *
Fa
0  1e-07 32 68

0101000
+49 0 *
Ve
1e-07
5.3 0 0
0 0

0101101
*
Ed
 1e-07 1 1 0
1  67 0 0 45
2  155 33 0 0 45
2  156 34 0 0 45
0

0101000
+47 0 -124 78 *
Ed
 1e-07 1 1 0
1  68 0 0 50.3
2  157 33 0 0 50.3
2  158 41 0 0 50.3
0

0101000
-54 0 +47 0 *
Wi

0101100
-46 68 +45 68 +123 0 +53 68 *
Ve
1.00000001045257e-07
7.8 -5.51091059616309e-16 24.25
0 0

0101101
*
Ed
 1e-07 1 1 0
1  69 0 0 6.28318530717959
2  159 33 68 0 6.28318530717959
2  160 15 34 0 6.28318530717959
0

0101100
+43 0 -43 0 *
Wi

0101100
-42 0 *
Fa
0  1e-07 33 68

0101000
+44 0 +41 0 *
Ve
1e-07
0 0 0
0 0

0101101
*
Ed
 1e-07 1 1 0
1  70 0 0 45
2  161 35 0 0 45
2  162 34 0 0 45
0

0101000
+39 0 -122 78 *
Ed
 1e-07 1 1 0
1  71 0 0 5.3
2  163 34 0 0 5.3
2  164 41 0 0 5.3
0

0101000
-47 0 +39 0 *
Wi

0101100
-46 68 +121 0 +38 68 -37 68 *
Fa
0  1e-07 34 68

0101000
+36 0 *
Ed
 1e-07 1 1 0
1  72 0 0 50.3
2  165 35 0 0 50.3
2  166 41 0 0 50.3
0

0101000
-52 0 +39 0 *
Wi

0101100
-38 68 +34 68 +120 0 +51 68 *
Wi

0101100
-96 0 *
Fa
0  1e-07 35 68

0101000
+33 0 +32 0 *
Wi

0101100
+80 46 *
Wi

0101100
-106 0 *
Fa
0  1e-07 36 46

0101000
+30 0 +29 0 *
Wi

0101100
+75 51 *
Wi

0101100
-101 0 *
Fa
0  1e-07 37 51

0101000
+27 0 +26 0 *
Wi

0101100
+62 56 *
Wi

0101100
-91 0 *
Fa
0  1e-07 38 56

0101000
+24 0 +23 0 *
Wi

0101100
+57 61 *
Wi

0101100
-86 0 *
Fa
0  1e-07 39 61

0101000
+21 0 +20 0 *
Ve
1e-07
4.5 -1.10218211923262e-15 0
0 0

0101101
*
Ed
 1e-07 1 1 0
1  73 0 0 3
3  167 168CN 40 0 0 3
0

0101000
+18 0 -68 79 *
Ed
 1e-07 1 1 0
1  74 0 0 6.28318530717959
2  169 40 0 0 6.28318530717959
2  170 42 0 0 6.28318530717959
0

0101000
+18 0 -18 0 *
Wi

0101100
-67 0 +17 77 +16 77 -17 77 *
Fa
0  1e-07 40 77

0101000
+15 0 *
Wi

0101100
-34 0 -50 0 +45 0 +37 0 *
Fa
0  1e-07 41 0

0111000
+13 0 *
Ve
1.00000007126766e-07
8.8 -5.51091059616309e-16 24.25
0 0

0101101
*
Ed
 1e-07 1 1 0
1  75 0 0 6.28318530717959
2  171 15 34 0 6.28318530717959
2  172 42 77 0 6.28318530717959
0

0101100
+11 0 -11 0 *
Ed
 1e-07 1 1 0
1  49 0 42.65 43.65
3  119 120CN 15 0 42.65 43.65
0

0101000
+43 71 -11 71 *
Wi

0101100
-10 0 +9 34 +42 0 -9 34 *
Fa
0  1e-07 15 34

0101000
+8 0 *
Wi

0101100
+16 77 *
Wi

0101100
-10 0 *
Fa
0  1e-07 42 77

0101000
+6 0 +5 0 *
Sh

0101100
-217 0 -187 0 -183 5 +170 0 +161 0 +156 0 -147 0 +135 0 -132 5 -118 0 
-115 5 -112 5 -110 5 +108 5 -103 0 -98 0 -93 0 -88 0 -83 0 -78 46 
-73 51 +70 0 -65 0 -60 56 -55 61 -48 0 -40 0 +35 0 +31 0 +28 0 
+25 0 +22 0 +19 0 -14 0 +12 68 -7 0 +4 0 *
So

0100000
+3 0 *
Co

1100000
+2 0 *

+1 0 