DBRep_DrawableShape

CASCADE Topology V3, (c) Open Cascade
Locations 70
1
              1               0               0              -3 
              0               1               0           -45.3 
              0               0               1 -23.6283881586122 
1
              1               0               0               3 
              0               1               0               0 
              0               0               1 23.6283881586122 
2  1 1 2 1 0
2  2 -1 1 -1 0
1
              1               0               0               0 
              0               1               0               0 
              0               0               1            58.6 
1
              1              -0               0               0 
              0 2.22044604925031e-16              -1               0 
              0               1 2.22044604925031e-16               0 
1
              1               0               0               0 
              0               1               0            29.3 
              0               0               1               0 
2  5 1 6 1 7 1 0
2  5 -1 0
2  7 -1 6 -1 5 -1 0
2  6 1 7 1 0
2  7 -1 6 -1 0
1
              1               0               0              -0 
              0               1               0              -0 
              0               0               1              -6 
1
2.22044604925031e-16               0               1               0 
              0               1               0               0 
             -1               0 2.22044604925031e-16               0 
1
              1               0               0               3 
              0               1               0           -37.3 
              0               0               1 35.4425822379183 
2  13 1 14 1 15 1 0
1
              1               0               0              -0 
              0               1               0              -0 
              0               0               1              -6 
1
2.22044604925031e-16               0               1               0 
              0               1               0               0 
             -1               0 2.22044604925031e-16               0 
1
              1               0               0               3 
              0               1               0           -37.3 
              0               0               1 11.8141940793061 
2  17 1 18 1 19 1 0
1
              1               0               0              -0 
              0               1               0              -0 
              0               0               1             -40 
1
2.22044604925031e-16               0               1               0 
              0               1               0               0 
             -1               0 2.22044604925031e-16               0 
1
              1               0               0               0 
              0               1               0               0 
              0               0               1            22.5 
1
0.961261695938319               0 0.275637355816999               0 
              0               1               0               0 
-0.275637355816999               0 0.961261695938319               0 
1
              1               0               0 5.19153274862729 
              0               1               0               0 
              0               0               1               4 
2  21 1 22 1 23 1 24 1 25 1 0
1
              1               0               0              -0 
              0               1               0              -0 
              0               0               1              -6 
1
2.22044604925031e-16               0               1               0 
              0               1               0               0 
             -1               0 2.22044604925031e-16               0 
1
              1               0               0               3 
              0               1               0            37.3 
              0               0               1 35.4425822379183 
2  27 1 28 1 29 1 0
1
              1               0               0              -0 
              0               1               0              -0 
              0               0               1              -6 
1
2.22044604925031e-16               0               1               0 
              0               1               0               0 
             -1               0 2.22044604925031e-16               0 
1
              1               0               0               3 
              0               1               0            37.3 
              0               0               1 11.8141940793061 
2  31 1 32 1 33 1 0
1
              1               0               0              -0 
              0               1               0              -0 
              0               0               1            -1.5 
1
2.22044604925031e-16               0               1               0 
              0               1               0               0 
             -1               0 2.22044604925031e-16               0 
1
              1               0               0             4.5 
              0               1               0           -37.3 
              0               0               1 11.8141940793061 
2  35 1 36 1 37 1 0
2  1 1 2 1 37 -1 36 -1 35 -1 0
1
              1               0               0              -0 
              0               1               0              -0 
              0               0               1            -1.5 
1
2.22044604925031e-16               0               1               0 
              0               1               0               0 
             -1               0 2.22044604925031e-16               0 
1
              1               0               0             4.5 
              0               1               0           -37.3 
              0               0               1 35.4425822379183 
2  40 1 41 1 42 1 0
2  1 1 2 1 42 -1 41 -1 40 -1 0
1
              1               0               0              -0 
              0               1               0              -0 
              0               0               1            -6.5 
1
2.22044604925031e-16               0               1               0 
              0               1               0               0 
             -1               0 2.22044604925031e-16               0 
1
              1               0               0 10.1450467837533 
              0               1               0               0 
              0               0               1               0 
2  45 1 46 1 47 1 23 1 24 1 25 1 0
1
              1               0               0              -0 
              0               1               0              -0 
              0               0               1            -1.5 
1
2.22044604925031e-16               0               1               0 
              0               1               0               0 
             -1               0 2.22044604925031e-16               0 
1
              1               0               0             4.5 
              0               1               0            37.3 
              0               0               1 11.8141940793061 
2  49 1 50 1 51 1 0
2  1 1 2 1 51 -1 50 -1 49 -1 0
1
              1               0               0              -0 
              0               1               0              -0 
              0               0               1            -1.5 
1
2.22044604925031e-16               0               1               0 
              0               1               0               0 
             -1               0 2.22044604925031e-16               0 
1
              1               0               0             4.5 
              0               1               0            37.3 
              0               0               1 35.4425822379183 
2  54 1 55 1 56 1 0
2  1 1 2 1 56 -1 55 -1 54 -1 0
1
              1               0               0            -2.8 
              0               1               0           -25.3 
              0               0               1           -32.5 
1
              1               0               0               0 
              0               1               0               0 
              0               0               1            32.5 
1
0.961261695938319               0 0.275637355816999               0 
              0               1               0               0 
-0.275637355816999               0 0.961261695938319               0 
1
              1               0               0 5.19153274862729 
              0               1               0               0 
              0               0               1               4 
2  59 1 60 1 61 1 62 1 0
2  15 -1 14 -1 13 -1 0
2  19 -1 18 -1 17 -1 0
2  25 -1 24 -1 23 -1 22 -1 21 -1 0
2  29 -1 28 -1 27 -1 0
2  33 -1 32 -1 31 -1 0
2  25 -1 24 -1 23 -1 47 -1 46 -1 45 -1 0
2  62 -1 61 -1 60 -1 59 -1 0
Curve2ds 141
1 47.256776317224364 -74.599999999999994 -2.2204460492503131e-16 1 
1 0 0 0 1 
1 0 0 1 0 
1 0 0 0 -1 
1 6 0 0 1 
1 0 0 1 0 
1 0 -58.600000000000001 1 0 
1 -9.3424658082578329 -26.056140825959798 1 0 
1 10.957389626004547 0 0 -1 
1 0 0 0 -1 
1 0 0 0 1 
1 0 90.599999999999994 1 0 
1 24.508052180804739 -74.600000000000009 0 1 
1 1.6564527527407337e-14 -74.600000000000009 -2.2204460492503131e-16 1 
1 0 0 1 0 
1 0 0 1 0 
1 47.256776317224364 -74.599999999999994 -1 -2.2204460492503131e-16 
1 0 -90.599999999999994 1 0 
1 0 0 1 0 
1 47.25677631722435 15.999999999999996 -1 -2.2204460492503131e-16 
2 11.814194079306105 -66.600000000000009 1 2.2204460492503131e-16 -2.2204460492503131e-16 1 2.25
1 0 3 1 0 
2 35.44258223791828 -66.599999999999994 1 2.2204460492503131e-16 -2.2204460492503131e-16 1 2.25
1 0 3 1 0 
3 18.3613909496537 -29.300000000000008 1 2.2204460492503131e-16 -2.2204460492503131e-16 1 2.3406737306886045 2.25
7 0 0  8 23 4  0 28.792657348730135  0.19634954084936207 28.792657348730135  0.39269908169876366 28.764229874272694  0.58904862254801027 28.707378361912486  0.78539816339750179 28.624430425105452  0.98174770424694491 28.520080359135999  1.1780972450961165 28.400840251615641  1.3744467859455345 28.274160461650254  1.8653206380689396 27.957459884456672  2.1598449493430016 27.767438849558669  2.4543692606082352 27.602540947544689  2.7488935719033454 27.487853519574816  3.0434178831535097 27.44161629068962  3.3379421944398335 27.46776928028487  3.6324665057131988 27.556906440155242  4.2215151282612853 27.825635791042377  4.5160394395417258 28.005228955838  4.8105637507712808 28.212276815709885  5.1050880621182797 28.420706560540797  5.3996123733184831 28.600783304770339  5.6941366846365593 28.72869529421839  5.9886609959055432 28.792657348730138  6.2831853071795862 28.792657348730138 
 0 9 1.5707963267948961 7 3.9269908169872401 7 6.2831853071795862 9
2 11.814194079306089 7.9999999999999885 1 2.2204460492503131e-16 -2.2204460492503131e-16 1 2.25
1 0 3 1 0 
2 35.442582237918266 7.9999999999999938 1 2.2204460492503131e-16 -2.2204460492503131e-16 1 2.25
1 0 3 1 0 
1 0 0 1 0 
1 0 6 1 0 
1 47.25677631722435 0 0 1 
1 0 0 1 0 
1 24.508052180804739 -74.600000000000009 -1 0 
1 47.25677631722435 0 0 -1 
1 6 0 0 1 
1 18.508052180804739 -74.600000000000009 0 1 
8 -13.02807041297989 34.22870590424445
1 -3.3424658082578329 -13.028070412979908 0 1 
8 -13.02807041297989 34.22870590424445
1 13.028070412979904 -16 1 -2.2204460492503131e-16 
1 0 3 1 0 
2 0 0 1 0 -0 1 4.5
2 11.814194079306088 -8 -1 0 -0 -1 4.5
1 0 3 1 0 
2 0 0 1 0 -0 1 4.5
2 35.442582237918259 -8 -1 0 -0 -1 4.5
1 0 -0 1 0 
1 0 -58.600000000000001 1 0 
1 15.165586372546906 21.200635491264553 -1 0 
1 0 -58.600000000000001 1 0 
1 1.614923817746714 -26.056140825959798 0.27563735581699911 0.96126169593831889 
1 0 0 1 0 
1 0 -58.600000000000001 1 0 
1 0 -0 0 -1 
1 0 0 0 -1 
1 49.161197743446415 0 0 -1 
2 24.755761240053744 -29.300000000000004 -1 2.1344297350418962e-16 2.1344297350418962e-16 1 4.5
1 2.2599168501832693e-18 2.9999999999999929 1 0 
8 -13.02807041297989 34.228705904244464
1 -3.3424658082578329 -13.028070412979908 0 1 
8 -13.02807041297989 34.228705904244464
1 13.02807041297989 -74.599999999999994 1 -2.2204460492503131e-16 
1 0 0 1 0 
1 18.508052180804739 -74.600000000000009 0 1 
1 0 -90.599999999999994 1 0 
1 0 6 1 0 
1 0 3 1 0 
2 0 0 1 0 -0 1 4.5
2 11.814194079306088 -82.599999999999994 -1 0 -0 -1 4.5
1 0 3 1 0 
2 0 0 1 0 -0 1 4.5
2 35.442582237918259 -82.599999999999994 -1 0 -0 -1 4.5
1 47.25677631722435 0 0 1 
1 0 90.599999999999994 1 0 
1 24.508052180804739 15.999999999999986 -1 0 
8 1.1783492495773975 7.0040260904023715
1 11.00402609040237 -4.0000000000000107 -1 0 
8 1.1783492495773975 7.0040260904023715
1 43.872315848492875 -1.1327019980564155 0.27563735581699916 0.96126169593831889 
8 -23.29999999999999 27.300000000000011
1 3.9999999999999964 -27.300000000000001 -6.3670265894890204e-17 -1 
8 -23.29999999999999 27.300000000000011
1 45.80288708012467 -27.300000000000011 2.3099287723962236e-16 1 
8 1.1783492495774013 7.004026090402375
1 11.00402609040237 -54.600000000000009 -1 0 
8 1.1783492495774013 7.004026090402375
1 43.872315848492889 -1.1327019980564195 0.27563735581699916 0.96126169593831889 
8 -23.29999999999999 27.300000000000011
1 9.8256768408249684 -27.300000000000001 -6.3670265894890204e-17 -1 
8 -23.29999999999999 27.300000000000011
1 44.197112919875352 -27.300000000000011 2.3099287723962236e-16 1 
1 0 6 1 0 
2 0 0 1 0 -0 1 2.25
1 6.2831853071795862 -0 0 1 
1 0 -0 0 1 
1 0 6 1 0 
2 0 0 1 0 -0 1 2.25
1 6.2831853071795862 -0 0 1 
1 0 -0 0 1 
2 22.499999999999996 -25.300000000000001 -1 -0 0 -1 2.25
1 2.2599168501832693e-18 37.200000000000017 1 0 
1 6.2831853071795862 -0 0 1 
1 0 -0 0 1 
1 0 6 1 0 
2 0 0 1 0 -0 1 2.25
1 6.2831853071795862 -0 0 1 
1 0 -0 0 1 
1 0 6 1 0 
2 0 0 1 0 -0 1 2.25
1 6.2831853071795862 -0 0 1 
1 0 -0 0 1 
1 6.2831853071795862 -0 0 1 
1 0 -0 0 1 
1 0 0 1 0 
2 0 0 1 0 -0 1 4.5
1 6.2831853071795862 -0 0 1 
1 0 -0 0 1 
1 0 0 1 0 
2 0 0 1 0 -0 1 4.5
1 6.2831853071795862 -0 0 1 
1 0 -0 0 1 
1 0 0 1 0 
2 0 0 1 0 -0 1 4.5
1 6.2831853071795862 -0 0 1 
1 0 -0 0 1 
1 0 0 1 0 
2 0 0 1 0 -0 1 4.5
1 6.2831853071795862 -0 0 1 
1 0 -0 0 1 
1 0 0 1 0 
2 0 0 1 0 -0 1 4.5
1 0 -50.600000000000001 1 0 
1 0 5.5999999999999996 1 0 
1 0 -50.600000000000001 1 0 
1 0 0 1 0 
1 0 0 0 1 
1 0 50.600000000000001 1 0 
1 0 0 1 0 
1 0 5.5999999999999996 1 0 
1 0 0 0 -1 
1 5.5999999999999996 0 0 1 
2 22.499999999999996 -25.300000000000001 -1 -0 0 -1 2.25
1 2.2599168501832693e-18 42.800000000000018 1 0 
1 0 0 1 0 
1 0 0 1 0 
1 0 0 0 1 
1 0 0 1 0 
1 0 0 0 -1 
1 0 0 0 1 
1 2.2599168501832693e-18 43.64504678375328 1 0 
2 1.9585212087989059e-15 0 1 0 -0 1 2.25
Curves 63
8 0 90.599999999999994
1 0 -45.299999999999997 0 0 1 0 
1 0 0 0 1 0 -0 
1 6 0 0 -0 1 0 
1 0 0 0 1 0 0 
1 10.957389626004547 0 0 0 0 1 
1 0 90.599999999999994 0 1 0 -0 
8 0 90.599999999999994
1 0 -45.299999999999997 47.25677631722435 0 1 0 
1 0 0 0 0 0 1 
1 0 90.599999999999994 0 0 0 1 
2 0 -37.299999999999997 35.442582237918259 1 0 2.2204460492503131e-16 2.2204460492503131e-16 0 -1 -0 1 0 2.25
2 0 -37.299999999999997 11.814194079306086 1 0 2.2204460492503131e-16 2.2204460492503131e-16 0 -1 -0 1 0 2.25
3 1.4261223498922337e-15 0 28.895385367570658 1 0 0 0 0 -1 -0 1 0 2.3406737306886045 2.25
2 0 37.299999999999997 35.442582237918259 1 0 2.2204460492503131e-16 2.2204460492503131e-16 0 -1 -0 1 0 2.25
2 0 37.299999999999997 11.814194079306086 1 0 2.2204460492503131e-16 2.2204460492503131e-16 0 -1 -0 1 0 2.25
1 6 0 0 0 0 1 
1 0 0 47.25677631722435 1 0 -0 
1 6 0 47.25677631722435 -0 1 0 
1 6 -29.299999999999997 13.028070412979904 0 2.2204460492503131e-16 1 
2 0 0 3 0 0 1 1 0 -0 -0 1 0 4.5
2 0 0 3 0 0 1 1 0 -0 -0 1 0 4.5
1 24.508052180804739 47.25677631722435 0 -1 0 0 
1 10.957389626004547 0 0 0.27563735581699911 0.96126169593831889 0 
1 24.508052180804739 47.25677631722435 0 0 0 1 
2 17.781002195449915 0 23.796765033858168 0.96126169593831901 0 -0.27563735581699894 -0.27563735581699894 0 -0.96126169593831901 0 1 0 4.5
1 6 29.300000000000004 13.02807041297989 0 2.2204460492503131e-16 1 
1 6 90.599999999999994 0 0 0 1 
2 0 0 3 0 0 1 1 0 -0 -0 1 0 4.5
2 0 0 3 0 0 1 1 0 -0 -0 1 0 4.5
1 0 90.599999999999994 47.25677631722435 1 0 -0 
1 13.50402609040237 25.300000000000001 47.25677631722435 1 -0 0 
1 20.508052180804743 2.0000000000000107 47.256776317224357 6.3670265894890204e-17 -1 2.2204460492503131e-16 
1 13.50402609040237 -25.299999999999997 47.256776317224364 1 -0 0 
1 14.682375339979771 2.0000000000000107 47.256776317224357 6.3670265894890204e-17 -1 2.2204460492503131e-16 
2 3 -37.299999999999997 35.442582237918259 1 0 2.2204460492503131e-16 2.2204460492503131e-16 0 -1 -0 1 0 2.25
1 2.25 -5.5109105961630896e-16 0 0 0 1 
2 3 -37.299999999999997 11.814194079306088 1 0 2.2204460492503131e-16 2.2204460492503131e-16 0 -1 -0 1 0 2.25
1 2.25 -5.5109105961630896e-16 0 0 0 1 
2 8.7018405058824886 0 26.400172754899767 0.96126169593831901 0 -0.27563735581699894 -0.27563735581699894 0 -0.96126169593831901 0 1 0 2.25
1 2.25 -5.5109105961630896e-16 0 0 0 1 
2 3 37.299999999999997 35.442582237918259 1 0 2.2204460492503131e-16 2.2204460492503131e-16 0 -1 -0 1 0 2.25
1 2.25 -5.5109105961630896e-16 0 0 0 1 
2 3 37.299999999999997 11.814194079306088 1 0 2.2204460492503131e-16 2.2204460492503131e-16 0 -1 -0 1 0 2.25
1 2.25 -5.5109105961630896e-16 0 0 0 1 
1 4.5 -1.1021821192326179e-15 0 0 0 1 
2 0 0 0 0 0 1 1 0 -0 -0 1 0 4.5
1 4.5 -1.1021821192326179e-15 0 0 0 1 
2 0 0 0 0 0 1 1 0 -0 -0 1 0 4.5
1 4.5 -1.1021821192326179e-15 0 0 0 1 
2 0 0 0 0 0 1 1 0 -0 -0 1 0 4.5
1 4.5 -1.1021821192326179e-15 0 0 0 1 
2 0 0 0 0 0 1 1 0 -0 -0 1 0 4.5
1 4.5 -1.1021821192326179e-15 0 0 0 1 
2 0 0 0 0 0 1 1 0 -0 -0 1 0 4.5
1 5.5999999999999996 50.600000000000001 0 0 0 1 
1 0 50.600000000000001 0 0 0 1 
1 0 50.600000000000001 0 1 0 -0 
1 5.5999999999999996 0 0 0 0 1 
1 5.5999999999999996 0 0 -0 1 0 
2 14.084906003137077 0 24.856603562324572 0.96126169593831901 0 -0.27563735581699894 -0.27563735581699894 0 -0.96126169593831901 0 1 0 2.25
1 0 0 0 0 0 1 
1 0 0 0 1 0 -0 
1 0 0 0 -0 1 0 
2 14.897217107634958 0 24.623677101309163 0.96126169593831901 0 -0.27563735581699894 -0.27563735581699894 0 -0.96126169593831901 0 1 0 2.25
Polygon3D 0
PolygonOnTriangulations 0
Surfaces 37
1 0 29.300000000000001 0 0 2.2204460492503131e-16 1 1 0 0 0 1 -2.2204460492503131e-16 
1 0 29.300000000000011 47.25677631722435 1 0 0 0 -2.2204460492503131e-16 -1 0 1 -2.2204460492503131e-16 
1 0 0 0 -0 1 0 0 0 1 1 0 -0 
1 0 0 0 0 0 1 1 0 -0 -0 1 0 
1 6 0 0 1 0 -0 0 0 1 0 -1 0 
1 0 0 0 0 1 0 1 0 0 0 0 -1 
1 9.3424658082578329 26.056140825959798 0 0 0 1 1 0 -0 -0 1 0 
1 10.957389626004547 0 0 -0.96126169593831889 0.27563735581699911 0 0.27563735581699911 0.96126169593831889 0 0 0 -1 
1 0 90.599999999999994 0 -0 1 0 0 0 1 1 0 -0 
1 24.508052180804739 29.300000000000011 47.25677631722435 0 -2.2204460492503131e-16 -1 -1 0 0 0 1 -2.2204460492503131e-16 
1 0 0 0 1 0 -0 0 0 1 0 -1 0 
2 0 0 0 0 0 1 1 0 -0 -0 1 0 2.25
2 0 0 0 0 0 1 1 0 -0 -0 1 0 2.25
2 0 0 0 0 0 1 1 0 -0 -0 1 0 2.25
2 0 0 0 0 0 1 1 0 -0 -0 1 0 2.25
2 0 0 0 0 0 1 1 0 -0 -0 1 0 2.25
1 0 0 47.25677631722435 0 0 1 1 0 -0 -0 1 0 
2 0 0 0 0 0 1 1 0 -0 -0 1 0 4.5
1 0 0 3 0 0 1 1 0 -0 -0 1 0 
2 0 0 0 0 0 1 1 0 -0 -0 1 0 4.5
1 0 0 3 0 0 1 1 0 -0 -0 1 0 
1 24.508052180804739 47.25677631722435 0 0 -1 0 -1 0 0 -0 -0 -1 
2 0 0 0 0 0 1 1 0 -0 -0 1 0 4.5
2 0 0 0 0 0 1 1 0 -0 -0 1 0 4.5
1 0 0 3 0 0 1 1 0 -0 -0 1 0 
2 0 0 0 0 0 1 1 0 -0 -0 1 0 4.5
1 0 0 3 0 0 1 1 0 -0 -0 1 0 
1 0 50.600000000000001 0 -0 1 0 0 0 1 1 0 -0 
1 5.5999999999999996 0 0 1 0 -0 0 0 1 0 -1 0 
1 0 0 0 -0 1 0 0 0 1 1 0 -0 
1 0 0 0 1 0 -0 0 0 1 0 -1 0 
1 0 0 0 0 0 1 1 0 -0 -0 1 0 
1 0 0 0 0 0 1 1 0 -0 -0 1 0 
1 0 0 0 0 0 1 1 0 -0 -0 1 0 
1 0 0 0 0 0 1 1 0 -0 -0 1 0 
1 0 0 0 0 0 1 1 0 -0 -0 1 0 
1 0 0 0 0 0 1 1 0 -0 -0 1 0 
Triangulations 0

TShapes 195
Ve
1e-07
0 0 0
0 0

0101101
*
Ve
1e-07
0 90.6 0
0 0

0101101
*
Ed
 1e-07 1 1 0
1  1 0 0 90.6
2  1 2 0 0 90.6
0

0101000
+195 3 -194 3 *
Ve
1e-07
6 0 0
0 0

0101101
*
Ed
 1e-07 1 1 0
1  2 0 0 6
2  2 3 0 0 6
2  3 4 0 0 6
0

0101000
-192 0 +195 0 *
Ve
6.00000007704948e-07
6 -29.3 6.50590692430342e-15
0 0

0101101
*
Ed
 1e-07 1 1 0
1  3 0 0 16
2  4 5 0 0 16
2  5 4 0 0 16
0

0101000
+192 0 -190 4 *
Ve
1e-07
10.9573896260045 0 0
0 0

0101101
*
Ed
 1e-07 1 1 0
1  4 0 6 10.9573896260045
2  6 6 0 6 10.9573896260045
2  7 6 9 6 10.9573896260045
2  8 7 0 6 10.9573896260045
0

0101000
+190 10 -188 0 *
Ed
 1e-07 1 1 0
1  5 0 0 58.6
2  9 6 0 0 58.6
2  10 8 0 0 58.6
0

0101000
+188 0 -188 5 *
Ve
6.00000003552714e-07
6 29.3 0
0 0

0101101
*
Ed
 1e-07 1 1 0
1  4 0 6 10.9573896260045
2  6 6 0 6 10.9573896260045
2  7 6 9 6 10.9573896260045
2  8 7 0 6 10.9573896260045
0

0101000
+185 12 -188 0 *
Ve
1e-07
6 90.6 0
0 0

0101101
*
Ed
 1e-07 1 1 0
1  3 0 74.6 90.6
2  4 5 0 74.6 90.6
2  5 4 0 74.6 90.6
0

0101000
+185 4 -183 0 *
Ed
 1e-07 1 1 0
1  6 0 0 6
2  11 9 0 0 6
2  12 4 0 0 6
0

0101000
-183 0 +194 0 *
Wi

0101100
-193 0 +191 3 +189 3 +187 8 -186 11 -184 11 +182 3 -181 3 *
Fa
0  0 1 0

0111000
+180 0 *
Ve
1e-07
0 0 47.2567763172244
0 0

0101101
*
Ve
1e-07
0 90.6 47.2567763172244
0 0

0101101
*
Ed
 1e-07 1 1 0
1  7 0 0 90.6
2  13 10 0 0 90.6
2  14 2 0 0 90.6
0

0101000
+178 3 -177 3 *
Ed
 1e-07 1 1 0
1  8 0 0 47.2567763172244
2  15 11 0 0 47.2567763172244
2  16 3 0 0 47.2567763172244
2  17 2 4 0 47.2567763172244
0

0101000
-178 0 +195 0 *
Ed
 1e-07 1 1 0
1  9 0 0 47.2567763172244
2  18 11 0 0 47.2567763172244
2  19 9 0 0 47.2567763172244
2  20 2 4 0 47.2567763172244
0

0101000
-177 0 +194 0 *
Wi

0101100
-176 0 -175 3 +174 3 +193 0 *
Ve
1.000000004996e-07
0 -37.3 33.1925822379183
0 0

0101101
*
Ed
 1e-07 1 1 0
1  10 0 0 6.28318530717959
2  21 2 0 0 6.28318530717959
2  22 12 16 0 6.28318530717959
0

0101100
+172 0 -172 0 *
Wi

0101100
-171 0 *
Ve
1.000000004996e-07
0 -37.3 9.56419407930609
0 0

0101101
*
Ed
 1e-07 1 1 0
1  11 0 0 6.28318530717959
2  23 2 0 0 6.28318530717959
2  24 13 20 0 6.28318530717959
0

0101100
+169 0 -169 0 *
Wi

0101100
-168 0 *
Ve
1.00000004325159e-07
-9.78357618149548e-16 -5.51091059616309e-16 26.5547116368821
0 0

0101101
*
Ed
 1e-07 1 1 0
1  12 0 0 6.28318530717959
2  25 2 0 0 6.28318530717959
2  26 14 26 0 6.28318530717959
0

0101100
+166 0 -166 0 *
Wi

0101100
-165 0 *
Ve
1.000000004996e-07
0 37.3 33.1925822379183
0 0

0101101
*
Ed
 1e-07 1 1 0
1  13 0 0 6.28318530717959
2  27 2 0 0 6.28318530717959
2  28 15 30 0 6.28318530717959
0

0101100
+163 0 -163 0 *
Wi

0101100
-162 0 *
Ve
1.000000004996e-07
0 37.3 9.56419407930609
0 0

0101101
*
Ed
 1e-07 1 1 0
1  14 0 0 6.28318530717959
2  29 2 0 0 6.28318530717959
2  30 16 34 0 6.28318530717959
0

0101100
+160 0 -160 0 *
Wi

0101100
-159 0 *
Fa
0  1e-07 2 0

0101000
+173 0 +170 0 +167 0 +164 0 +161 0 +158 0 *
Ve
1e-07
6 0 47.2567763172244
0 0

0101101
*
Ed
 1e-07 1 1 0
1  15 0 0 47.2567763172244
2  31 5 0 0 47.2567763172244
2  32 3 0 0 47.2567763172244
0

0101000
-156 0 +192 0 *
Ed
 1e-07 1 1 0
1  16 0 0 6
2  33 3 0 0 6
2  34 17 0 0 6
2  35 10 4 0 6
0

0101000
-156 0 +178 0 *
Wi

0101100
-191 0 -155 0 +154 0 +175 0 *
Fa
0  1e-07 3 0

0101000
+153 0 *
Ve
6.00000007105427e-07
6 -29.3 47.2567763172244
0 0

0101101
*
Ed
 1e-07 1 1 0
1  17 0 0 16
2  36 5 0 0 16
2  37 17 0 0 16
2  38 10 4 0 16
0

0101000
+156 0 -151 4 *
Ed
 6e-07 1 1 0
1  18 0 -13.0280704129799 34.2287059042444
2  39 7 8 -13.0280704129799 34.2287059042444
2  40 5 3 -13.0280704129799 34.2287059042444
0

0101000
+190 0 -151 0 *
Wi

0101100
-150 3 -155 3 +149 0 +189 3 *
Ve
1.00000000888178e-07
4.5 -1.10218211923262e-15 3
0 0

0101101
*
Ed
 1.00000000888178e-07 1 1 0
1  19 0 0 6.28318530717959
2  41 18 0 0 6.28318530717959
2  42 19 0 0 6.28318530717959
2  43 5 39 0 6.28318530717959
0

0101000
+147 0 -147 0 *
Wi

0101100
-146 38 *
Ve
1.00000000888178e-07
4.5 -1.10218211923262e-15 3
0 0

0101101
*
Ed
 1.00000000888178e-07 1 1 0
1  20 0 0 6.28318530717959
2  44 20 0 0 6.28318530717959
2  45 21 0 0 6.28318530717959
2  46 5 44 0 6.28318530717959
0

0101000
+144 0 -144 0 *
Wi

0101100
-143 43 *
Fa
0  1e-07 5 3

0101000
+148 0 +145 0 +142 0 *
Ve
1e-07
24.5080521808047 47.2567763172244 0
0 0

0101101
*
Ed
 1e-07 1 1 0
1  21 0 0 18.5080521808047
2  47 22 0 0 18.5080521808047
2  48 22 9 0 18.5080521808047
2  49 7 0 0 18.5080521808047
2  50 10 10 0 18.5080521808047
0

0101000
+140 0 -151 10 *
Ed
 1e-07 1 1 0
1  22 0 0 49.1611977434464
2  51 7 0 0 49.1611977434464
2  52 8 0 0 49.1611977434464
2  53 8 9 0 49.1611977434464
0

0101000
+188 0 -140 0 *
Wi

0101100
-149 0 +139 8 +138 8 +187 8 *
Fa
0  1e-07 7 8

0101000
+137 0 *
Ed
 1e-07 1 1 0
1  23 0 0 58.6
2  54 22 0 0 58.6
2  55 10 12 0 58.6
2  56 8 0 0 58.6
0

0101000
+140 0 -140 5 *
Wi

0101100
+186 11 -138 11 +138 8 -135 11 *
Ve
1.00000003719755e-07
16.5406340942734 -1.10218211923262e-15 19.4710874021357
0 0

0101101
*
Ed
 1e-07 1 1 0
1  24 0 0 6.28318530717959
2  57 8 11 0 6.28318530717959
2  58 23 48 0 6.28318530717959
0

0101100
+133 0 -133 0 *
Wi

0101100
+132 0 *
Fa
0  1e-07 8 11

0101000
+134 0 +131 0 *
Ve
6e-07
6 29.3 47.2567763172244
0 0

0101101
*
Ed
 6e-07 1 1 0
1  25 0 -13.0280704129799 34.2287059042445
2  59 7 11 -13.0280704129799 34.2287059042445
2  60 5 3 -13.0280704129799 34.2287059042445
0

0101000
+185 0 -129 0 *
Ed
 1e-07 1 1 0
1  21 0 0 18.5080521808047
2  47 22 0 0 18.5080521808047
2  48 22 9 0 18.5080521808047
2  49 7 0 0 18.5080521808047
2  61 10 12 0 18.5080521808047
0

0101000
+140 0 -129 12 *
Wi

0101100
-128 0 +127 11 +138 11 +184 11 *
Fa
0  1e-07 7 11

0101000
+126 0 *
Ve
1e-07
6 90.6 47.2567763172244
0 0

0101101
*
Ed
 1e-07 1 1 0
1  17 0 74.6 90.6
2  36 5 0 74.6 90.6
2  37 17 0 74.6 90.6
2  62 10 4 74.6 90.6
0

0101000
+129 4 -124 0 *
Ed
 1e-07 1 1 0
1  26 0 0 47.2567763172244
2  63 5 0 0 47.2567763172244
2  64 9 0 0 47.2567763172244
0

0101000
-124 0 +183 0 *
Wi

0101100
-123 3 -128 0 +122 3 +182 3 *
Ve
1.00000000888178e-07
4.5 -1.10218211923262e-15 3
0 0

0101101
*
Ed
 1.00000000888178e-07 1 1 0
1  27 0 0 6.28318530717959
2  65 24 0 0 6.28318530717959
2  66 25 0 0 6.28318530717959
2  67 5 53 0 6.28318530717959
0

0101000
+120 0 -120 0 *
Wi

0101100
-119 52 *
Ve
1.00000000888178e-07
4.5 -1.10218211923262e-15 3
0 0

0101101
*
Ed
 1.00000000888178e-07 1 1 0
1  28 0 0 6.28318530717959
2  68 26 0 0 6.28318530717959
2  69 27 0 0 6.28318530717959
2  70 5 58 0 6.28318530717959
0

0101000
+117 0 -117 0 *
Wi

0101100
-116 57 *
Fa
0  1e-07 5 3

0101000
+121 0 +118 0 +115 0 *
Ed
 1e-07 1 1 0
1  29 0 0 6
2  71 9 0 0 6
2  72 17 0 0 6
2  73 10 4 0 6
0

0101000
-124 0 +177 0 *
Wi

0101100
-181 0 -122 0 +113 0 +174 0 *
Fa
0  1e-07 9 0

0101000
+112 0 *
Wi

0101100
+113 3 -123 3 +176 0 -127 11 -154 3 +135 11 -150 3 +139 8 *
Ve
1.50000001776357e-07
14.6823753399798 25.3 47.2567763172244
0 0

0101101
*
Ve
1.50000003552714e-07
20.5080521808047 25.3 47.2567763172244
0 0

0101101
*
Ed
 1.5e-07 1 1 0
1  30 0 1.1783492495774 7.00402609040237
2  74 10 0 1.1783492495774 7.00402609040237
2  75 28 63 1.1783492495774 7.00402609040237
0

0101000
+109 0 -108 0 *
Ve
1.50000003552714e-07
20.5080521808047 -25.3 47.2567763172244
0 0

0101101
*
Ed
 1.5e-07 1 1 0
1  31 0 -23.3 27.3
2  76 10 0 -23.3 27.3
2  77 29 63 -23.3 27.3
0

0101000
+108 0 -106 0 *
Ve
1.50000007944109e-07
14.6823753399798 -25.3 47.2567763172244
0 0

0101101
*
Ed
 1.5e-07 1 1 0
1  32 0 1.1783492495774 7.00402609040238
2  78 10 0 1.1783492495774 7.00402609040238
2  79 30 63 1.1783492495774 7.00402609040238
0

0101000
+104 0 -106 0 *
Ed
 1.5e-07 1 1 0
1  33 0 -23.3 27.3
2  80 10 0 -23.3 27.3
2  81 31 63 -23.3 27.3
0

0101000
+109 0 -104 0 *
Wi

0101100
-107 0 -105 0 +103 0 +102 0 *
Fa
0  1e-07 10 0

0101000
+110 0 +101 0 *
Ve
1.00000000444089e-07
3 -37.3 33.1925822379183
0 0

0101101
*
Ed
 1e-07 1 1 0
1  34 0 0 6.28318530717959
2  82 12 16 0 6.28318530717959
2  83 32 43 0 6.28318530717959
0

0101100
+99 0 -99 0 *
Ed
 1e-07 1 1 0
1  35 0 3 6
3  84 85CN 12 0 3 6
0

0101000
+172 64 -99 64 *
Wi

0101100
-98 0 +97 16 +171 0 -97 16 *
Fa
0  1e-07 12 16

0101000
+96 0 *
Ve
1.00000000444089e-07
3 -37.3 9.56419407930609
0 0

0101101
*
Ed
 1e-07 1 1 0
1  36 0 0 6.28318530717959
2  86 13 20 0 6.28318530717959
2  87 33 38 0 6.28318530717959
0

0101100
+94 0 -94 0 *
Ed
 1e-07 1 1 0
1  37 0 3 6
3  88 89CN 13 0 3 6
0

0101000
+169 65 -94 65 *
Wi

0101100
-93 0 +92 20 +168 0 -92 20 *
Fa
0  1e-07 13 20

0101000
+91 0 *
Ve
1.00000010672379e-07
8.08165645529423 -5.51091059616309e-16 24.2373339390385
0 0

0101101
*
Ed
 1e-07 1 1 0
1  38 0 0 6.28318530717959
2  90 31 63 0 6.28318530717959
2  91 14 26 0 6.28318530717959
0

0101100
+89 0 -89 0 *
Ed
 1e-07 1 1 0
1  39 0 28.7926573487301 37.2
3  92 93CN 14 0 28.7926573487301 37.2
0

0101000
+166 66 -89 66 *
Wi

0101100
-88 0 +87 26 +165 0 -87 26 *
Fa
0  1e-07 14 26

0101000
+86 0 *
Ve
1.00000000444089e-07
3 37.3 33.1925822379183
0 0

0101101
*
Ed
 1e-07 1 1 0
1  40 0 0 6.28318530717959
2  94 15 30 0 6.28318530717959
2  95 34 57 0 6.28318530717959
0

0101100
+84 0 -84 0 *
Ed
 1e-07 1 1 0
1  41 0 3 6
3  96 97CN 15 0 3 6
0

0101000
+163 67 -84 67 *
Wi

0101100
-83 0 +82 30 +162 0 -82 30 *
Fa
0  1e-07 15 30

0101000
+81 0 *
Ve
1.00000000444089e-07
3 37.3 9.56419407930609
0 0

0101101
*
Ed
 1e-07 1 1 0
1  42 0 0 6.28318530717959
2  98 16 34 0 6.28318530717959
2  99 35 52 0 6.28318530717959
0

0101100
+79 0 -79 0 *
Ed
 1e-07 1 1 0
1  43 0 3 6
3  100 101CN 16 0 3 6
0

0101000
+160 68 -79 68 *
Wi

0101100
-78 0 +77 34 +159 0 -77 34 *
Fa
0  1e-07 16 34

0101000
+76 0 *
Ve
1e-07
4.5 -1.10218211923262e-15 0
0 0

0101101
*
Ed
 1e-07 1 1 0
1  44 0 0 3
3  102 103CN 18 0 0 3
0

0101000
-147 0 +74 0 *
Ed
 1e-07 1 1 0
1  45 0 0 6.28318530717959
2  104 18 0 0 6.28318530717959
2  105 33 0 0 6.28318530717959
0

0101000
+74 0 -74 0 *
Wi

0101100
-146 0 +73 0 +72 0 -73 0 *
Fa
0  1e-07 18 0

0111000
+71 0 *
Ve
1e-07
4.5 -1.10218211923262e-15 0
0 0

0101101
*
Ed
 1e-07 1 1 0
1  46 0 0 3
3  106 107CN 20 0 0 3
0

0101000
-144 0 +69 0 *
Ed
 1e-07 1 1 0
1  47 0 0 6.28318530717959
2  108 20 0 0 6.28318530717959
2  109 32 0 0 6.28318530717959
0

0101000
+69 0 -69 0 *
Wi

0101100
-143 0 +68 0 +67 0 -68 0 *
Fa
0  1e-07 20 0

0111000
+66 0 *
Ve
1e-07
4.5 -1.10218211923262e-15 0
0 0

0101101
*
Ed
 1e-07 1 1 0
1  48 0 0 2.99999999999999
3  110 111CN 23 0 0 2.99999999999999
0

0101000
+64 0 -133 69 *
Ed
 1e-07 1 1 0
1  49 0 0 6.28318530717959
2  112 23 0 0 6.28318530717959
2  113 36 0 0 6.28318530717959
0

0101000
+64 0 -64 0 *
Wi

0101100
-132 0 +63 48 +62 48 -63 48 *
Fa
0  1e-07 23 48

0101000
+61 0 *
Ve
1e-07
4.5 -1.10218211923262e-15 0
0 0

0101101
*
Ed
 1e-07 1 1 0
1  50 0 0 3
3  114 115CN 24 0 0 3
0

0101000
-120 0 +59 0 *
Ed
 1e-07 1 1 0
1  51 0 0 6.28318530717959
2  116 24 0 0 6.28318530717959
2  117 35 0 0 6.28318530717959
0

0101000
+59 0 -59 0 *
Wi

0101100
-119 0 +58 0 +57 0 -58 0 *
Fa
0  1e-07 24 0

0111000
+56 0 *
Ve
1e-07
4.5 -1.10218211923262e-15 0
0 0

0101101
*
Ed
 1e-07 1 1 0
1  52 0 0 3
3  118 119CN 26 0 0 3
0

0101000
-117 0 +54 0 *
Ed
 1e-07 1 1 0
1  53 0 0 6.28318530717959
2  120 26 0 0 6.28318530717959
2  121 34 0 0 6.28318530717959
0

0101000
+54 0 -54 0 *
Wi

0101100
-116 0 +53 0 +52 0 -53 0 *
Fa
0  1e-07 26 0

0111000
+51 0 *
Ve
1e-07
5.6 50.6 0
0 0

0101101
*
Ed
 1e-07 1 1 0
1  54 0 0 45.8028870801247
2  122 29 0 0 45.8028870801247
2  123 28 0 0 45.8028870801247
0

0101000
+49 0 -108 70 *
Ve
1e-07
0 50.6 0
0 0

0101101
*
Ed
 1e-07 1 1 0
1  55 0 0 44.1971129198753
2  124 31 0 0 44.1971129198753
2  125 28 0 0 44.1971129198753
0

0101000
+47 0 -109 70 *
Ed
 1e-07 1 1 0
1  56 0 0 5.6
2  126 28 0 0 5.6
2  127 37 0 0 5.6
0

0101000
-49 0 +47 0 *
Wi

0101100
-48 63 +107 0 +46 63 -45 63 *
Fa
0  1e-07 28 63

0101000
+44 0 *
Ve
1e-07
5.6 0 0
0 0

0101101
*
Ed
 1e-07 1 1 0
1  57 0 0 45.8028870801247
2  128 29 0 0 45.8028870801247
2  129 30 0 0 45.8028870801247
0

0101000
+42 0 -106 70 *
Ed
 1e-07 1 1 0
1  58 0 0 50.6
2  130 29 0 0 50.6
2  131 37 0 0 50.6
0

0101000
-49 0 +42 0 *
Wi

0101100
-41 63 +40 63 +105 0 +48 63 *
Ve
1.00000010672379e-07
13.4647219525488 -5.51091059616309e-16 22.6937647464634
0 0

0101101
*
Ed
 1e-07 1 1 0
1  59 0 0 6.28318530717959
2  132 29 63 0 6.28318530717959
2  133 14 26 0 6.28318530717959
0

0101100
+38 0 -38 0 *
Wi

0101100
-37 0 *
Fa
0  1e-07 29 63

0101000
+39 0 +36 0 *
Ve
1e-07
0 0 0
0 0

0101101
*
Ed
 1e-07 1 1 0
1  60 0 0 44.1971129198754
2  134 31 0 0 44.1971129198754
2  135 30 0 0 44.1971129198754
0

0101000
+34 0 -104 70 *
Ed
 1e-07 1 1 0
1  61 0 0 5.6
2  136 30 0 0 5.6
2  137 37 0 0 5.6
0

0101000
-42 0 +34 0 *
Wi

0101100
-41 63 +103 0 +33 63 -32 63 *
Fa
0  1e-07 30 63

0101000
+31 0 *
Ed
 1e-07 1 1 0
1  62 0 0 50.6
2  138 31 0 0 50.6
2  139 37 0 0 50.6
0

0101000
-47 0 +34 0 *
Wi

0101100
-33 63 +29 63 +102 0 +46 63 *
Wi

0101100
-88 0 *
Fa
0  1e-07 31 63

0101000
+28 0 +27 0 *
Wi

0101100
+67 43 *
Wi

0101100
-98 0 *
Fa
0  1e-07 32 43

0101000
+25 0 +24 0 *
Wi

0101100
+72 38 *
Wi

0101100
-93 0 *
Fa
0  1e-07 33 38

0101000
+22 0 +21 0 *
Wi

0101100
+52 57 *
Wi

0101100
-83 0 *
Fa
0  1e-07 34 57

0101000
+19 0 +18 0 *
Wi

0101100
+57 52 *
Wi

0101100
-78 0 *
Fa
0  1e-07 35 52

0101000
+16 0 +15 0 *
Wi

0101100
+62 48 *
Ve
1.00000011387576e-07
14.2770330570467 -5.51091059616309e-16 22.4608382854479
0 0

0101101
*
Ed
 1e-07 1 1 0
1  63 0 0 6.28318530717959
2  140 14 26 0 6.28318530717959
2  141 36 48 0 6.28318530717959
0

0101100
+12 0 -12 0 *
Wi

0101100
-11 0 *
Fa
0  1e-07 36 48

0101000
+13 0 +10 0 *
Wi

0101100
-29 0 -45 0 +40 0 +32 0 *
Fa
0  1e-07 37 0

0111000
+8 0 *
Ed
 1e-07 1 1 0
1  39 0 42.8 43.6450467837533
3  92 93CN 14 0 42.8 43.6450467837533
0

0101000
+38 66 -12 66 *
Wi

0101100
-11 0 +6 26 +37 0 -6 26 *
Fa
0  1e-07 14 26

0101000
+5 0 *
Sh

0101100
-179 0 -157 0 -152 3 +141 0 +136 0 -130 0 -125 0 +114 0 +111 3 -100 0 
-95 0 -90 0 -85 0 -80 0 -75 0 -70 38 -65 43 -60 0 -55 52 -50 57 
-43 0 -35 0 +30 0 +26 0 +23 0 +20 0 +17 0 +14 0 +9 0 +7 63 
-4 0 *
So

0100000
+3 0 *
Co

1100000
+2 0 *

+1 0 