DBRep_DrawableShape

CASCADE Topology V3, (c) Open Cascade
Locations 43
1
2.22044604925031e-16               0               1               0 
              0               1               0               0 
             -1               0 2.22044604925031e-16               0 
1
              1               0               0               0 
              0               1               0               0 
              0               0               1            24.5 
2  1 1 2 1 0
1
              1               0               0 4.9737991503207e-14 
              0               1               0              -0 
              0               0               1               0 
2  4 1 1 1 2 1 0
2  4 -1 0
1
              1               0               0               0 
              0               1               0               0 
              0               0               1             6.8 
2  7 -1 4 -1 0
2  4 1 7 1 0
2  4 1 7 1 1 1 2 1 0
2  2 -1 1 -1 7 -1 4 -1 0
1
              1               0               0           -2.65 
              0               1               0          -25.15 
              0               0               1           -32.5 
1
              1               0               0               0 
              0               1               0               0 
              0               0               1            32.5 
1
              1              -0               0               0 
              0               1              -0               0 
              0               0               1               0 
1
              1               0               0            4.15 
              0               1               0               0 
              0               0               1               4 
2  12 1 13 1 14 1 15 1 0
1
              1               0               0              -0 
              0               1               0              -0 
              0               0               1             -30 
1
2.22044604925031e-16               0               1               0 
              0               1               0               0 
             -1               0 2.22044604925031e-16               0 
1
              1               0               0               0 
              0               1               0          -37.15 
              0               0               1           36.75 
2  17 1 18 1 19 1 0
1
              1               0               0              -0 
              0               1               0              -0 
              0               0               1             -30 
1
2.22044604925031e-16               0               1               0 
              0               1               0               0 
             -1               0 2.22044604925031e-16               0 
1
              1               0               0               0 
              0               1               0          -37.15 
              0               0               1           12.25 
2  21 1 22 1 23 1 0
1
              1               0               0              -0 
              0               1               0              -0 
              0               0               1             -30 
1
2.22044604925031e-16               0               1               0 
              0               1               0               0 
             -1               0 2.22044604925031e-16               0 
1
              1               0               0            4.15 
              0               1               0               0 
              0               0               1            26.5 
2  25 1 26 1 27 1 0
1
              1               0               0              -0 
              0               1               0              -0 
              0               0               1             -30 
1
2.22044604925031e-16               0               1               0 
              0               1               0               0 
             -1               0 2.22044604925031e-16               0 
1
              1               0               0               0 
              0               1               0           37.15 
              0               0               1           36.75 
2  29 1 30 1 31 1 0
1
              1               0               0              -0 
              0               1               0              -0 
              0               0               1             -30 
1
2.22044604925031e-16               0               1               0 
              0               1               0               0 
             -1               0 2.22044604925031e-16               0 
1
              1               0               0               0 
              0               1               0           37.15 
              0               0               1           12.25 
2  33 1 34 1 35 1 0
2  4 1 7 1 1 1 2 1 15 -1 14 -1 13 -1 12 -1 0
2  15 -1 14 -1 13 -1 12 -1 0
2  19 -1 18 -1 17 -1 0
2  23 -1 22 -1 21 -1 0
2  27 -1 26 -1 25 -1 0
2  31 -1 30 -1 29 -1 0
2  35 -1 34 -1 33 -1 0
Curve2ds 83
1 -24.499999999700613 -1.6130780135999793e-16 0 1 
1 37.149999999999999 0 1 0 
1 37.149999999999999 -6.8000000000000007 1 0 
1 3.1415926535897931 0 0 -1 
1 74.299999999999997 0 0 -1 
8 -6.0500000000000025 -0.75000000000000788
1 62.299999999999997 -0.749999999999998 0 1 
8 -6.0500000000000025 -0.75000000000000788
1 44.99999999999995 -0.75000000000000788 -2.2204460492503131e-16 -1 
8 6 56.299999999999997
1 6 -1.5000000000000058 1 0 
8 6 56.299999999999997
1 44.99999999999995 6 0 -1 
8 -6.0500000000000025 -0.75000000000000788
1 12 -0.749999999999998 0 1 
8 -6.0500000000000025 -0.75000000000000788
1 44.99999999999995 -0.75000000000000788 -2.2204460492503131e-16 -1 
1 3.1415926535897931 0 0 -1 
1 0 0 0 -1 
1 0 0 1 0 
1 0 -6.8000000000000007 1 0 
2 -16.499999999700712 -37.149999999999999 1 0 -0 1 8
1 0 0 1 0 
1 0 -6.8000000000000007 1 0 
2 -16.499999999700712 37.149999999999999 1 0 -0 1 8
1 2.9938773636292666e-10 -45.149999999999999 1 0 
1 2.9938773636292666e-10 45.149999999999999 1 0 
1 0 0 1 0 
1 0 -6.8000000000000007 1 0 
2 16.499999998931628 -37.149999999999999 1 0 -0 1 8
1 0 0 1 0 
1 0 -6.8000000000000007 1 0 
2 16.499999998931628 37.149999999999999 1 0 -0 1 8
1 24.500000000299387 -1.6130780135999793e-16 0 1 
2 -12.249999999700663 -37.149999999999999 1 0 -0 1 2.25
1 0 30 1 0 
2 12.250000000299337 -37.149999999999999 1 0 -0 1 2.25
1 0 30.000000000000004 1 0 
2 -1.9999999997006626 -1.6130780135999793e-16 1 0 -0 1 2.25
1 0 25.850000000000001 1 0 
2 -12.249999999700663 37.149999999999999 1 0 -0 1 2.25
1 0 30 1 0 
2 12.250000000299337 37.149999999999999 1 0 -0 1 2.25
1 0 30.000000000000004 1 0 
1 1.5707963267948966 0 0 -1 
1 0 0 1 0 
1 0 5.2999999999999998 1 0 
1 20.500000000299337 -25.149999999999999 -1 0 
1 0 0 0 -1 
1 5.2999999999999998 0 0 1 
1 20.500000000299337 -25.149999999999999 0 1 
1 0 -50.299999999999997 1 0 
1 0 5.2999999999999998 1 0 
1 20.500000000299337 25.149999999999999 -1 0 
2 -12.249999999700663 -37.149999999999999 1 0 -0 1 2.25
1 0 36.799999999999997 1 0 
2 12.250000000299336 -37.149999999999999 1 0 -0 1 2.25
1 0 36.800000000000004 1 0 
2 -12.249999999700663 37.149999999999999 1 0 -0 1 2.25
1 0 36.799999999999997 1 0 
2 12.250000000299336 37.149999999999999 1 0 -0 1 2.25
1 0 36.800000000000004 1 0 
1 0 -50.299999999999997 1 0 
1 0 0 1 0 
1 0 0 0 1 
1 0 50.299999999999997 1 0 
1 0 0 1 0 
1 0 0 1 0 
1 0 0 0 -1 
1 0 0 0 1 
2 22.5 -25.149999999999999 -1 0 -0 -1 2.25
1 0 27.350000000000001 1 0 
1 0 0 0 1 
1 0 0 1 0 
1 4.7123889803846897 0 0 -1 
1 4.7123889803846897 0 0 -1 
1 1.5707963267948966 0 0 -1 
1 6.2831853071795862 0 0 -1 
1 0 0 0 -1 
1 6.2831853071795862 -0 0 1 
1 0 -0 0 1 
1 6.2831853071795862 -0 0 1 
1 0 -0 0 1 
1 6.2831853071795862 -0 0 1 
1 0 -0 0 1 
1 6.2831853071795862 -0 0 1 
1 0 -0 0 1 
1 6.2831853071795862 -0 0 1 
1 0 -0 0 1 
Curves 42
1 -24.5 0 0 0 1 0 
1 -24.5 37.149999999999999 0 0 0 1 
1 0.74999999999999256 25.149999999999999 48.99999999999995 -1 0 -2.2204460492503131e-16 
1 1.5000000000000004 -31.149999999999999 48.99999999999995 0 1 -0 
1 0.74999999999999256 -25.149999999999999 48.99999999999995 -1 0 -2.2204460492503131e-16 
1 -24.5 -37.149999999999999 0 0 0 1 
2 -16.500000000000099 -37.149999999999999 0 0 0 1 1 0 0 0 1 0 8
2 -16.500000000000099 37.149999999999999 0 0 0 1 1 0 0 0 1 0 8
1 0 -45.149999999999999 0 1 0 0 
1 0 45.149999999999999 0 1 0 0 
2 16.499999998632241 -37.149999999999999 0 0 0 1 1 0 0 0 1 0 8
2 16.499999998632241 37.149999999999999 0 0 0 1 1 0 0 0 1 0 8
1 24.5 0 0 0 1 0 
2 0 -37.149999999999999 36.75 1 0 2.2204460492503131e-16 2.2204460492503131e-16 0 -1 -0 1 0 2.25
2 3.5527136788005009e-15 -37.149999999999999 12.25 1 0 2.2204460492503131e-16 2.2204460492503131e-16 0 -1 -0 1 0 2.25
2 0 0 26.5 1 0 2.2204460492503131e-16 2.2204460492503131e-16 0 -1 -0 1 0 2.25
2 0 37.149999999999999 36.75 1 0 2.2204460492503131e-16 2.2204460492503131e-16 0 -1 -0 1 0 2.25
2 3.5527136788005009e-15 37.149999999999999 12.25 1 0 2.2204460492503131e-16 2.2204460492503131e-16 0 -1 -0 1 0 2.25
1 -16.50000000000005 45.149999999999999 0 0 0 1 
1 5.2999999999999998 0 0 0 0 1 
1 5.2999999999999998 0 0 -0 1 0 
1 5.2999999999999998 50.299999999999997 0 0 0 1 
2 6.7999999999999972 -37.149999999999999 36.75 1 0 2.2204460492503131e-16 2.2204460492503131e-16 0 -1 -0 1 0 2.25
2 6.8000000000000043 -37.149999999999999 12.250000000000002 1 0 2.2204460492503131e-16 2.2204460492503131e-16 0 -1 -0 1 0 2.25
2 6.7999999999999972 37.149999999999999 36.75 1 0 2.2204460492503131e-16 2.2204460492503131e-16 0 -1 -0 1 0 2.25
2 6.8000000000000043 37.149999999999999 12.250000000000002 1 0 2.2204460492503131e-16 2.2204460492503131e-16 0 -1 -0 1 0 2.25
1 0 50.299999999999997 0 0 0 1 
1 0 50.299999999999997 0 1 0 -0 
1 0 0 0 0 0 1 
1 0 0 0 -0 1 0 
2 1.5 0 26.5 1 0 2.2204460492503131e-16 2.2204460492503131e-16 0 -1 -0 1 0 2.25
1 0 0 0 1 0 -0 
1 -16.50000000000005 -45.149999999999999 0 0 0 1 
1 16.49999999863229 -45.149999999999999 0 0 0 1 
1 16.49999999863229 45.149999999999999 0 0 0 1 
1 24.49999999931617 -37.149999999999999 0 0 0 1 
1 24.49999999931617 37.149999999999999 0 0 0 1 
1 2.25 -5.5109105961630896e-16 0 0 0 1 
1 2.25 -5.5109105961630896e-16 0 0 0 1 
1 2.25 -5.5109105961630896e-16 0 0 0 1 
1 2.25 -5.5109105961630896e-16 0 0 0 1 
1 2.25 -5.5109105961630896e-16 0 0 0 1 
Polygon3D 0
PolygonOnTriangulations 0
Surfaces 19
1 -24.49999999999995 -37.149999999999999 0 -1 0 0 0 1 0 0 0 -1 
1 -2.9938773636292666e-10 1.6130780135999793e-16 0 0 0 1 1 0 -0 -0 1 0 
2 -16.50000000000005 37.149999999999999 0 -0 -0 -1 1 0 0 0 1 0 8
1 0 50.299999999999997 0 -0 1 0 0 0 1 1 0 -0 
1 0 0 0 1 0 -0 0 0 1 0 -1 0 
1 0 0 0 -0 1 0 0 0 1 1 0 -0 
2 -16.50000000000005 -37.149999999999999 0 -0 -0 -1 1 0 0 0 1 0 8
2 16.49999999863229 -37.149999999999999 0 -0 -0 -1 1 0 0 0 1 0 8
2 16.49999999863229 37.149999999999999 0 -0 -0 -1 1 0 0 0 1 0 8
2 0 0 0 0 0 1 1 0 -0 -0 1 0 2.25
2 0 0 0 0 0 1 1 0 -0 -0 1 0 2.25
2 0 0 0 0 0 1 1 0 -0 -0 1 0 2.25
2 0 0 0 0 0 1 1 0 -0 -0 1 0 2.25
2 0 0 0 0 0 1 1 0 -0 -0 1 0 2.25
1 -16.500000000000046 45.149999999999999 0 0 1 0 1 0 0 0 0 -1 
1 5.2999999999999998 0 0 1 0 -0 0 0 1 0 -1 0 
1 0 0 0 0 0 1 1 0 -0 -0 1 0 
1 -16.500000000000046 -45.149999999999999 0 0 1 0 1 0 0 0 0 -1 
1 24.50000000000005 -37.149999999999999 0 -1 0 0 0 1 0 0 0 -1 
Triangulations 0

TShapes 121
Ve
1.00000049745921e-07
-24.5 -37.15 0
0 0

0101101
*
Ve
1.00000049737991e-07
-24.5 37.15 0
0 0

0101101
*
Ed
 1e-07 1 1 0
1  1 0 -37.15 37.15
2  1 2 0 -37.15 37.15
2  2 1 6 -37.15 37.15
2  3 1 8 -37.15 37.15
0

0101000
+121 0 -120 0 *
Ed
 1.00000049737991e-07 1 1 0
1  2 0 0 6.8
2  4 3 0 0 6.8
4 G1 1 0 3 0
2  5 1 0 0 6.8
0

0101000
+120 4 -120 9 *
Ve
1.50000002664535e-07
6.8 25.15 49
0 0

0101101
*
Ed
 1e-07 1 1 0
1  1 0 25.15 37.15
2  1 2 0 25.15 37.15
2  2 1 6 25.15 37.15
2  3 1 8 25.15 37.15
0

0101000
+117 11 -120 0 *
Ve
1.5e-07
1.5 25.15 49
0 0

0101101
*
Ed
 1.5e-07 1 1 0
1  3 0 -6.05 -0.750000000000008
2  6 1 3 -6.05 -0.750000000000008
2  7 4 16 -6.05 -0.750000000000008
0

0101000
+117 0 -115 0 *
Ve
1.5e-07
1.5 -25.15 49
0 0

0101101
*
Ed
 1.5e-07 1 1 0
1  4 0 6 56.3
2  8 1 3 6 56.3
2  9 5 16 6 56.3
0

0101000
+113 0 -115 0 *
Ve
1.50000002664535e-07
6.8 -25.15 49
0 0

0101101
*
Ed
 1.5e-07 1 1 0
1  5 0 -6.05 -0.750000000000008
2  10 1 3 -6.05 -0.750000000000008
2  11 6 16 -6.05 -0.750000000000008
0

0101000
+111 0 -113 0 *
Ed
 1e-07 1 1 0
1  1 0 -37.15 -25.15
2  1 2 0 -37.15 -25.15
2  2 1 6 -37.15 -25.15
2  3 1 8 -37.15 -25.15
0

0101000
+121 0 -111 11 *
Ed
 1.00000049745921e-07 1 1 0
1  6 0 0 6.8
2  12 7 0 0 6.8
4 G1 1 0 7 0
2  13 1 0 0 6.8
0

0101000
+121 4 -121 9 *
Wi

0101100
-119 5 -118 3 +116 10 -114 0 +112 0 +110 0 +109 10 +108 3 *
Fa
0  1e-07 1 3

0101000
+107 0 *
Ve
1e-07
-16.5000000000001 -45.15 0
0 0

0101101
*
Ed
 1e-07 1 1 0
1  7 0 3.14159265358979 4.71238898038469
2  14 7 6 3.14159265358979 4.71238898038469
2  15 7 8 3.14159265358979 4.71238898038469
2  16 2 0 3.14159265358979 4.71238898038469
0

0101000
+121 0 -105 0 *
Ve
1e-07
-16.5000000000001 45.15 0
0 0

0101101
*
Ed
 1e-07 1 1 0
1  8 0 1.5707963267949 3.14159265358979
2  17 3 6 1.5707963267949 3.14159265358979
2  18 3 8 1.5707963267949 3.14159265358979
2  19 2 0 1.5707963267949 3.14159265358979
0

0101000
+103 0 -120 0 *
Ve
1.00000000888178e-07
16.4999999986322 -45.15 0
0 0

0101101
*
Ed
 1e-07 1 1 0
1  9 0 -16.5000000000001 16.4999999986322
2  20 2 0 -16.5000000000001 16.4999999986322
0

0101000
+105 0 -101 0 *
Ve
1e-07
16.4999999986322 45.15 0
0 0

0101101
*
Ed
 1e-07 1 1 0
1  10 0 -16.5000000000001 16.4999999986322
2  21 2 0 -16.5000000000001 16.4999999986322
0

0101000
+103 0 -99 0 *
Ve
1.00683879619601e-07
24.4999999993161 -37.15 0
0 0

0101101
*
Ed
 1e-07 1 1 0
1  11 0 4.71238898038469 6.28318530717959
2  22 8 6 4.71238898038469 6.28318530717959
2  23 8 8 4.71238898038469 6.28318530717959
2  24 2 0 4.71238898038469 6.28318530717959
0

0101000
+101 0 -97 0 *
Ve
1.00683879619601e-07
24.4999999993161 37.15 0
0 0

0101101
*
Ed
 1e-07 1 1 0
1  12 0 0 1.5707963267949
2  25 9 6 0 1.5707963267949
2  26 9 8 0 1.5707963267949
2  27 2 0 0 1.5707963267949
0

0101000
+95 0 -99 0 *
Ed
 1e-07 1 1 0
1  13 0 -37.15 37.15
2  28 2 0 -37.15 37.15
0

0101000
+97 0 -95 0 *
Wi

0101100
-119 5 +104 5 +102 5 +100 5 -98 5 +96 5 +94 5 +93 5 *
Ve
1.00000004052314e-07
-3.5527136788005e-15 -37.15 34.5
0 0

0101101
*
Ed
 1e-07 1 1 0
1  14 0 0 6.28318530717959
2  29 2 5 0 6.28318530717959
2  30 10 20 0 6.28318530717959
0

0101100
+91 0 -91 0 *
Wi

0101100
-90 0 *
Ve
1.000000004996e-07
3.5527136788005e-15 -37.15 10
0 0

0101101
*
Ed
 1e-07 1 1 0
1  15 0 0 6.28318530717959
2  31 2 5 0 6.28318530717959
2  32 11 24 0 6.28318530717959
0

0101100
+88 0 -88 0 *
Wi

0101100
-87 0 *
Ve
1.00000000743843e-07
0 -5.51091059616309e-16 24.25
0 0

0101101
*
Ed
 1e-07 1 1 0
1  16 0 0 6.28318530717959
2  33 2 5 0 6.28318530717959
2  34 12 28 0 6.28318530717959
0

0101100
+85 0 -85 0 *
Wi

0101100
-84 0 *
Ve
1.00000004052314e-07
-3.5527136788005e-15 37.15 34.5
0 0

0101101
*
Ed
 1e-07 1 1 0
1  17 0 0 6.28318530717959
2  35 2 5 0 6.28318530717959
2  36 13 32 0 6.28318530717959
0

0101100
+82 0 -82 0 *
Wi

0101100
-81 0 *
Ve
1.000000004996e-07
3.5527136788005e-15 37.15 10
0 0

0101101
*
Ed
 1e-07 1 1 0
1  18 0 0 6.28318530717959
2  37 2 5 0 6.28318530717959
2  38 14 36 0 6.28318530717959
0

0101100
+79 0 -79 0 *
Wi

0101100
-78 0 *
Fa
0  1e-07 2 5

0101000
+92 0 +89 0 +86 0 +83 0 +80 0 +77 0 *
Ed
 1e-07 1 1 0
1  19 0 0 6.8
2  39 3 0 0 6.8
4 G1 15 0 3 0
0

0101000
+103 4 -103 9 *
Wi

0101100
+75 0 -118 0 -102 4 +102 9 *
Fa
0  1e-07 3 0

0101000
+74 0 *
Ve
1.00000004440892e-07
5.3 0 0
0 0

0101101
*
Ed
 1.00000004440892e-07 1 1 0
1  20 0 0 45
2  40 16 0 0 45
2  41 6 0 0 45
2  42 2 37 0 45
0

0101000
+72 0 -111 38 *
Ve
1.00000004440892e-07
5.3 50.3 0
0 0

0101101
*
Ed
 1.00000004440892e-07 1 1 0
1  21 0 0 50.3
2  43 16 0 0 50.3
2  44 17 0 0 50.3
2  45 2 37 0 50.3
0

0101000
-70 0 +72 0 *
Ed
 1.00000004440892e-07 1 1 0
1  22 0 0 45
2  46 16 0 0 45
2  47 4 0 0 45
2  48 2 37 0 45
0

0101000
+70 0 -117 38 *
Wi

0101100
-109 10 +104 10 +71 16 +100 10 -69 16 +96 10 -68 16 +93 10 -116 10 +94 10 
+102 10 -98 10 *
Ve
1.00000000888178e-07
6.8 -37.15 34.5
0 0

0101101
*
Ed
 1e-07 1 1 0
1  23 0 0 6.28318530717959
2  49 2 10 0 6.28318530717959
2  50 10 20 0 6.28318530717959
0

0101100
+66 0 -66 0 *
Wi

0101100
-65 0 *
Ve
1.00000001776357e-07
6.8 -37.15 10
0 0

0101101
*
Ed
 1e-07 1 1 0
1  24 0 0 6.28318530717959
2  51 2 10 0 6.28318530717959
2  52 11 24 0 6.28318530717959
0

0101100
+63 0 -63 0 *
Wi

0101100
-62 0 *
Ve
1.00000000888178e-07
6.8 37.15 34.5
0 0

0101101
*
Ed
 1e-07 1 1 0
1  25 0 0 6.28318530717959
2  53 2 10 0 6.28318530717959
2  54 13 32 0 6.28318530717959
0

0101100
+60 0 -60 0 *
Wi

0101100
-59 0 *
Ve
1.00000001776357e-07
6.8 37.15 10
0 0

0101101
*
Ed
 1e-07 1 1 0
1  26 0 0 6.28318530717959
2  55 2 10 0 6.28318530717959
2  56 14 36 0 6.28318530717959
0

0101100
+57 0 -57 0 *
Wi

0101100
-56 0 *
Fa
0  1e-07 2 10

0101000
+67 0 +64 0 +61 0 +58 0 +55 0 *
Ve
1e-07
0 50.3 0
0 0

0101101
*
Ed
 1e-07 1 1 0
1  27 0 0 45
2  57 5 0 0 45
2  58 4 0 0 45
0

0101000
+53 0 -115 38 *
Ed
 1e-07 1 1 0
1  28 0 0 5.3
2  59 4 0 0 5.3
2  60 17 0 0 5.3
0

0101000
-70 0 +53 0 *
Wi

0101100
-68 16 -114 0 +52 16 -51 16 *
Fa
0  1e-07 4 16

0101000
+50 0 *
Ve
1e-07
0 0 0
0 0

0101101
*
Ed
 1e-07 1 1 0
1  29 0 0 45
2  61 5 0 0 45
2  62 6 0 0 45
0

0101000
+48 0 -113 38 *
Ed
 1e-07 1 1 0
1  30 0 0 50.3
2  63 5 0 0 50.3
2  64 17 0 0 50.3
0

0101000
-53 0 +48 0 *
Wi

0101100
-47 16 +46 16 -112 0 +52 16 *
Ve
1.00000000707755e-07
1.5 -5.51091059616309e-16 24.25
0 0

0101101
*
Ed
 1e-07 1 1 0
1  31 0 0 6.28318530717959
2  65 5 16 0 6.28318530717959
2  66 12 28 0 6.28318530717959
0

0101100
+44 0 -44 0 *
Wi

0101100
-43 0 *
Fa
0  1e-07 5 16

0101000
+45 0 +42 0 *
Ed
 1e-07 1 1 0
1  32 0 0 5.3
2  67 6 0 0 5.3
2  68 17 0 0 5.3
0

0101000
-72 0 +48 0 *
Wi

0101100
-71 16 -110 0 +47 16 -40 16 *
Fa
0  1e-07 6 16

0101000
+39 0 *
Ed
 1e-07 1 1 0
1  33 0 0 6.8
2  69 7 0 0 6.8
4 G1 7 0 18 0
0

0101000
+105 4 -105 9 *
Wi

0101100
+108 0 -37 0 -104 4 +104 9 *
Fa
0  1e-07 7 0

0101000
+36 0 *
Ed
 1.00000000888178e-07 1 1 0
1  34 0 0 6.8
2  70 8 0 0 6.8
4 G1 18 0 8 0
0

0101000
+101 4 -101 9 *
Wi

0101100
+37 0 -34 0 -100 4 +100 9 *
Fa
0  1e-07 18 0

0101000
+33 0 *
Ed
 1e-07 1 1 0
1  35 0 0 6.8
2  71 9 0 0 6.8
4 G1 9 0 15 0
0

0101000
+99 4 -99 9 *
Wi

0101100
+75 0 -31 0 -98 4 +98 9 *
Fa
0  1e-07 15 0

0101000
+30 0 *
Ed
 1.00683879619601e-07 1 1 0
1  36 0 0 6.8
2  72 8 0 0 6.8
4 G1 8 0 19 0
0

0101000
+97 4 -97 9 *
Wi

0101100
+34 0 -28 0 -96 4 +96 9 *
Fa
0  1e-07 8 0

0101000
+27 0 *
Ed
 1.00683879619601e-07 1 1 0
1  37 0 0 6.8
2  73 9 0 0 6.8
4 G1 19 0 9 0
0

0101000
+95 4 -95 9 *
Wi

0101100
+25 0 -31 0 -94 4 +94 9 *
Fa
0  1e-07 9 0

0101000
+24 0 *
Wi

0101100
+28 0 -25 0 -93 4 +93 9 *
Fa
0  1e-07 19 0

0101000
+22 0 *
Ed
 1e-07 1 1 0
1  38 0 30 36.8
3  74 75CN 10 0 30 36.8
0

0101000
+91 39 -66 39 *
Wi

0101100
-65 0 +20 20 +90 0 -20 20 *
Fa
0  1e-07 10 20

0101000
+19 0 *
Ed
 1e-07 1 1 0
1  39 0 30 36.8
3  76 77CN 11 0 30 36.8
0

0101000
+88 40 -63 40 *
Wi

0101100
-62 0 +17 24 +87 0 -17 24 *
Fa
0  1e-07 11 24

0101000
+16 0 *
Ed
 1e-07 1 1 0
1  40 0 25.85 27.35
3  78 79CN 12 0 25.85 27.35
0

0101000
+85 41 -44 41 *
Wi

0101100
-43 0 +14 28 +84 0 -14 28 *
Fa
0  1e-07 12 28

0101000
+13 0 *
Ed
 1e-07 1 1 0
1  41 0 30 36.8
3  80 81CN 13 0 30 36.8
0

0101000
+82 42 -60 42 *
Wi

0101100
-59 0 +11 32 +81 0 -11 32 *
Fa
0  1e-07 13 32

0101000
+10 0 *
Ed
 1e-07 1 1 0
1  42 0 30 36.8
3  82 83CN 14 0 30 36.8
0

0101000
+79 43 -57 43 *
Wi

0101100
-56 0 +8 36 +78 0 -8 36 *
Fa
0  1e-07 14 36

0101000
+7 0 *
Wi

0101100
-46 0 -51 0 +69 0 +40 0 *
Fa
0  1e-07 17 0

0111000
+5 0 *
Sh

0101100
+106 0 -76 0 -73 3 +54 0 -49 0 +41 0 +38 0 -35 3 -32 3 +29 3 
-26 3 -23 3 -21 3 -18 0 -15 0 -12 0 -9 0 -6 0 +4 16 *
So

0100000
+3 0 *
Co

1100000
+2 0 *

+1 0 