DBRep_DrawableShape

CASCADE Topology V3, (c) Open Cascade
Locations 79
1
              1               0               0 4.61852778244065e-14 
              0               1               0              -0 
              0               0               1               0 
1
2.22044604925031e-16               0               1               0 
              0               1               0               0 
             -1               0 2.22044604925031e-16               0 
1
              1               0               0               0 
              0               1               0               0 
              0               0               1 24.3767426457861 
2  1 1 2 1 3 1 0
2  2 1 3 1 0
1
              1               0               0               0 
              0               1               0               0 
              0               0               1               6 
2  1 1 6 1 0
2  1 1 6 1 2 1 3 1 0
2  1 -1 0
2  6 -1 1 -1 0
2  3 -1 2 -1 6 -1 1 -1 0
1
              1               0               0               0 
              0               1               0               0 
              0               0               1            58.3 
1
              1              -0               0               0 
              0 2.22044604925031e-16              -1               0 
              0               1 2.22044604925031e-16               0 
1
              1               0               0               0 
              0               1               0           29.15 
              0               0               1               0 
2  12 1 13 1 14 1 0
2  12 -1 0
2  14 -1 13 -1 12 -1 0
2  13 1 14 1 0
2  14 -1 13 -1 0
2  3 -1 2 -1 1 -1 0
1
              1               0               0              -0 
              0               1               0              -0 
              0               0               1              -6 
1
2.22044604925031e-16               0               1               0 
              0               1               0               0 
             -1               0 2.22044604925031e-16               0 
1
              1               0               0               3 
              0               1               0          -37.15 
              0               0               1 36.5651139686792 
2  21 1 22 1 23 1 0
1
              1               0               0              -0 
              0               1               0              -0 
              0               0               1              -6 
1
2.22044604925031e-16               0               1               0 
              0               1               0               0 
             -1               0 2.22044604925031e-16               0 
1
              1               0               0               3 
              0               1               0          -37.15 
              0               0               1 12.1883713228931 
2  25 1 26 1 27 1 0
1
              1               0               0              -0 
              0               1               0              -0 
              0               0               1             -40 
1
2.22044604925031e-16               0               1               0 
              0               1               0               0 
             -1               0 2.22044604925031e-16               0 
1
              1               0               0               0 
              0               1               0               0 
              0               0               1            22.5 
1
0.994521895368273               0 0.104528463267653               0 
              0               1               0               0 
-0.104528463267653               0 0.994521895368273               0 
1
              1               0               0 5.13548302272592 
              0               1               0               0 
              0               0               1               4 
2  29 1 30 1 31 1 32 1 33 1 0
1
              1               0               0              -0 
              0               1               0              -0 
              0               0               1              -6 
1
2.22044604925031e-16               0               1               0 
              0               1               0               0 
             -1               0 2.22044604925031e-16               0 
1
              1               0               0               3 
              0               1               0           37.15 
              0               0               1 36.5651139686792 
2  35 1 36 1 37 1 0
1
              1               0               0              -0 
              0               1               0              -0 
              0               0               1              -6 
1
2.22044604925031e-16               0               1               0 
              0               1               0               0 
             -1               0 2.22044604925031e-16               0 
1
              1               0               0               3 
              0               1               0           37.15 
              0               0               1 12.1883713228931 
2  39 1 40 1 41 1 0
1
              1               0               0              -0 
              0               1               0              -0 
              0               0               1            -1.5 
1
2.22044604925031e-16               0               1               0 
              0               1               0               0 
             -1               0 2.22044604925031e-16               0 
1
              1               0               0             4.5 
              0               1               0          -37.15 
              0               0               1 36.5651139686792 
2  43 1 44 1 45 1 0
2  1 1 6 1 2 1 3 1 45 -1 44 -1 43 -1 0
1
              1               0               0              -0 
              0               1               0              -0 
              0               0               1            -1.5 
1
2.22044604925031e-16               0               1               0 
              0               1               0               0 
             -1               0 2.22044604925031e-16               0 
1
              1               0               0             4.5 
              0               1               0          -37.15 
              0               0               1 12.1883713228931 
2  48 1 49 1 50 1 0
2  1 1 6 1 2 1 3 1 50 -1 49 -1 48 -1 0
1
              1               0               0              -0 
              0               1               0              -0 
              0               0               1            -6.5 
1
2.22044604925031e-16               0               1               0 
              0               1               0               0 
             -1               0 2.22044604925031e-16               0 
1
              1               0               0 10.1280875814731 
              0               1               0               0 
              0               0               1               0 
2  53 1 54 1 55 1 31 1 32 1 33 1 0
1
              1               0               0              -0 
              0               1               0              -0 
              0               0               1            -1.5 
1
2.22044604925031e-16               0               1               0 
              0               1               0               0 
             -1               0 2.22044604925031e-16               0 
1
              1               0               0             4.5 
              0               1               0           37.15 
              0               0               1 36.5651139686792 
2  57 1 58 1 59 1 0
2  1 1 6 1 2 1 3 1 59 -1 58 -1 57 -1 0
1
              1               0               0              -0 
              0               1               0              -0 
              0               0               1            -1.5 
1
2.22044604925031e-16               0               1               0 
              0               1               0               0 
             -1               0 2.22044604925031e-16               0 
1
              1               0               0             4.5 
              0               1               0           37.15 
              0               0               1 12.1883713228931 
2  62 1 63 1 64 1 0
2  1 1 6 1 2 1 3 1 64 -1 63 -1 62 -1 0
2  3 -1 2 -1 0
1
              1               0               0           -2.65 
              0               1               0          -25.15 
              0               0               1           -32.5 
1
              1               0               0               0 
              0               1               0               0 
              0               0               1            32.5 
1
0.994521895368273               0 0.104528463267653               0 
              0               1               0               0 
-0.104528463267653               0 0.994521895368273               0 
1
              1               0               0 5.13548302272592 
              0               1               0               0 
              0               0               1               4 
2  68 1 69 1 70 1 71 1 0
2  23 -1 22 -1 21 -1 0
2  27 -1 26 -1 25 -1 0
2  33 -1 32 -1 31 -1 30 -1 29 -1 0
2  37 -1 36 -1 35 -1 0
2  41 -1 40 -1 39 -1 0
2  33 -1 32 -1 31 -1 55 -1 54 -1 53 -1 0
2  71 -1 70 -1 69 -1 68 -1 0
Curve2ds 157
1 48.753485290898716 -66.299999999999997 -2.2204460492503131e-16 1 
1 3.1415926535897931 0 0 -1 
1 0 0 0 -1 
1 37.149999999999999 0 1 0 
1 37.149999999999999 -6 1 0 
1 24.376742646080345 -1.0773951837627519e-16 0 1 
1 0 0 1 0 
1 0 -58.299999999999997 1 0 
1 -7.0380179149504869 -25.37079168927076 1 0 
1 11.379663022506538 0 0 -1 
1 0 0 0 -1 
1 3.1415926535897931 0 0 -1 
1 74.299999999999997 0 0 -1 
1 16.503860810613656 -66.300000000000011 2.1234479279165863e-32 1 
1 2.182698466413058e-14 -66.300000000000011 -4.1330779086314711e-16 1 
1 0 0 1 0 
1 0 -6 1 0 
2 -16.376742645492044 -37.149999999999999 -1 0 0 1 8
2 7.9999999999999654 -66.300000000000011 -1 -2.2204460492503131e-16 -2.2204460492503131e-16 1 8
1 0 0 1 0 
1 0 -6 1 0 
2 -16.376742645492044 37.149999999999999 -1 0 0 1 8
2 7.9999999999999485 7.9999999999999911 -1 -2.2204460492503131e-16 -2.2204460492503131e-16 1 8
1 2.9419514497103266e-10 -45.149999999999999 1 0 
1 24.376742645786212 -74.300000000000011 1 2.2204460492503131e-16 
1 2.9419514497103266e-10 45.149999999999999 1 0 
1 24.376742645786191 15.999999999999995 1 2.2204460492503131e-16 
1 0 0 1 0 
1 0 -6 1 0 
2 16.376742644733064 -37.149999999999999 -1 0 0 1 8
2 40.753485290225072 -66.299999999999997 -1 -2.2204460492503131e-16 -2.2204460492503131e-16 1 8
1 0 0 1 0 
1 0 -6 1 0 
2 16.376742644733064 37.149999999999999 -1 0 0 1 8
2 40.753485290225058 7.9999999999999982 -1 -2.2204460492503131e-16 -2.2204460492503131e-16 1 8
2 12.18837132289309 -66.300000000000011 1 2.2204460492503131e-16 -2.2204460492503131e-16 1 2.25
1 0 3 1 0 
2 36.565113968679242 -66.299999999999997 1 2.2204460492503131e-16 -2.2204460492503131e-16 1 2.25
1 0 3 1 0 
3 21.589787985569714 -29.150000000000006 1 2.2204460492503131e-16 -2.2204460492503131e-16 1 2.2623936290179119 2.25
7 0 0  8 23 4  0 32.707868536961257  0.19634954084936207 32.707868536961257  0.39269908169867551 32.697448672819711  0.58904862254818391 32.676610204165414  0.7853981633974696 32.646206299183739  0.98174770424673219 32.607957614370676  1.1780972450962068 32.564251103509775  1.3744467859455345 32.517817636368903  1.8653206380689396 32.401733564480367  2.1598449493419909 32.332082868933433  2.4543692606122849 32.271640857513965  2.7488935718964482 32.229603094909919  3.04341788315919 32.212655207399251  3.3379421944384724 32.222241377223384  3.6324665057131988 32.254913892613892  4.2215151282612853 32.353414493918045  4.5160394395338432 32.419242936825633  4.8105637508028565 32.495134679071683  5.1050880620659846 32.571532940901733  5.399612373356204 32.637538635502217  5.694136684629302 32.684423755806769  5.9886609959055432 32.707868536961257  6.2831853071795862 32.707868536961257 
 0 9 1.5707963267948994 7 3.9269908169872414 7 6.2831853071795862 9
2 12.188371322893074 7.999999999999992 1 2.2204460492503131e-16 -2.2204460492503131e-16 1 2.25
1 0 3 1 0 
2 36.565113968679228 7.9999999999999973 1 2.2204460492503131e-16 -2.2204460492503131e-16 1 2.25
1 0 3 1 0 
1 4.7123889803846897 0 0 -1 
1 37.149999999999999 0 1 0 
1 37.149999999999999 -6 1 0 
1 -24.376742645491952 -1.0773951837627519e-16 0 1 
1 10.503860810613654 -29.150000000000009 0 1 
8 -24.873767167675524 23.87971812389678
1 -1.0380179149504869 -0.49702452159523602 -2.2204460492503131e-16 1 
8 -24.873767167675524 23.87971812389678
1 -0.49702452159523958 -29.149999999999991 -1 2.2204460492503131e-16 
1 0 3 1 0 
2 0 0 1 0 -0 1 4.5
2 -12.188371322598924 -37.149999999999999 1 0 -0 1 4.5
1 0 3 1 0 
2 0 0 1 0 -0 1 4.5
2 12.188371323187225 -37.149999999999999 1 0 -0 1 4.5
1 0 -0 1 0 
1 0 -58.299999999999997 1 0 
1 9.4658428956631617 23.382693602301536 -1 0 
1 0 -58.299999999999997 1 0 
1 4.3416451075560509 -25.37079168927076 0.10452846326765346 0.9945218953682734 
1 0 0 1 0 
1 0 -58.299999999999997 1 0 
1 0 -0 0 -1 
1 0 0 0 -1 
1 49.022033118254065 0 0 -1 
2 25.825393041729402 -29.150000000000006 -1 2.2082822134634159e-16 2.2082822134634159e-16 1 4.5
1 4.3876737600538569e-18 2.9999999999999996 1 0 
8 -24.873767167675524 23.87971812389678
1 -1.0380179149504869 -0.49702452159523602 -2.2204460492503131e-16 1 
8 -24.873767167675524 23.87971812389678
1 -0.49702452159522537 29.150000000000006 -1 2.2204460492503131e-16 
1 0 0 1 0 
1 10.503860810613654 -29.150000000000009 0 1 
1 0 3 1 0 
2 0 0 1 0 -0 1 4.5
2 -12.188371322598924 37.149999999999999 1 0 -0 1 4.5
1 0 3 1 0 
2 0 0 1 0 -0 1 4.5
2 12.188371323187225 37.149999999999999 1 0 -0 1 4.5
1 1.5707963267948966 0 0 -1 
1 0 0 0 -1 
1 74.299999999999997 0 0 -1 
1 16.503860810613656 7.9999999999999893 -1 -4.9303806576313238e-32 
1 6.2831853071795862 0 0 -1 
1 0 0 0 -1 
1 16.503860810613656 -66.300000000000011 -1 -4.9303806576313238e-32 
8 -2.3272634763798123 3.0019304053068252
1 7.0019304053068243 -4.0000000000000107 -1 0 
8 -2.3272634763798123 3.0019304053068252
1 44.964739051350875 2.3145144835506075 0.10452846326765351 0.9945218953682734 
8 -23.149999999999988 27.150000000000009
1 4 -27.149999999999999 -2.3337828395514681e-17 -1 
8 -23.149999999999988 27.150000000000009
1 45.278526223454051 -27.150000000000009 2.2326768868452893e-16 1 
8 -2.3272634763798106 3.001930405306827
1 7.0019304053068243 -54.300000000000011 -1 0 
8 -2.3272634763798106 3.001930405306827
1 44.96473905135089 2.3145144835506057 0.10452846326765351 0.9945218953682734 
8 -23.149999999999988 27.150000000000009
1 9.3291938816866349 -27.149999999999999 -2.3337828395514681e-17 -1 
8 -23.149999999999988 27.150000000000009
1 44.721473776545963 -27.150000000000009 2.2326768868452893e-16 1 
1 4.7123889803846897 0 0 -1 
1 1.5707963267948966 0 0 -1 
1 0 6 1 0 
2 0 0 1 0 -0 1 2.25
1 6.2831853071795862 -0 0 1 
1 0 -0 0 1 
1 0 6 1 0 
2 0 0 1 0 -0 1 2.25
1 6.2831853071795862 -0 0 1 
1 0 -0 0 1 
2 22.5 -25.149999999999999 -1 -0 0 -1 2.25
1 4.3876737600538569e-18 37.350000000000001 1 0 
1 6.2831853071795862 -0 0 1 
1 0 -0 0 1 
1 0 6 1 0 
2 0 0 1 0 -0 1 2.25
1 6.2831853071795862 -0 0 1 
1 0 -0 0 1 
1 0 6 1 0 
2 0 0 1 0 -0 1 2.25
1 6.2831853071795862 -0 0 1 
1 0 -0 0 1 
1 6.2831853071795862 -0 0 1 
1 0 -0 0 1 
1 0 0 1 0 
2 0 0 1 0 -0 1 4.5
1 6.2831853071795862 -0 0 1 
1 0 -0 0 1 
1 0 0 1 0 
2 0 0 1 0 -0 1 4.5
1 6.2831853071795862 -0 0 1 
1 0 -0 0 1 
1 0 0 1 0 
2 0 0 1 0 -0 1 4.5
1 6.2831853071795862 -0 0 1 
1 0 -0 0 1 
1 0 0 1 0 
2 0 0 1 0 -0 1 4.5
1 6.2831853071795862 -0 0 1 
1 0 -0 0 1 
1 0 0 1 0 
2 0 0 1 0 -0 1 4.5
1 0 -50.299999999999997 1 0 
1 0 5.2999999999999998 1 0 
1 0 -50.299999999999997 1 0 
1 0 0 1 0 
1 0 0 0 1 
1 0 50.299999999999997 1 0 
1 0 0 1 0 
1 0 5.2999999999999998 1 0 
1 0 0 0 -1 
1 5.2999999999999998 0 0 1 
2 22.5 -25.149999999999999 -1 -0 0 -1 2.25
1 4.3876737600538569e-18 42.649999999999999 1 0 
1 0 0 1 0 
1 0 0 1 0 
1 0 0 0 1 
1 0 0 1 0 
1 0 0 0 -1 
1 0 0 0 1 
1 4.3876737600538569e-18 43.628087581473089 1 0 
2 -3.5332515415414655e-15 0 1 0 -0 1 2.25
Curves 69
8 0 74.299999999999997
1 5.4127241899931797e-15 -37.149999999999999 6.7359451350057498e-10 0 1 0 
1 24.376742645112554 -37.149999999999999 0 0 0 1 
1 24.376742645786148 0 0 0 1 0 
1 0 0 0 1 0 0 
1 11.379663022506538 0 0 0 0 1 
1 24.376742645112554 37.149999999999999 0 0 0 1 
8 0 74.299999999999997
1 -5.4127241901427469e-15 -37.149999999999999 48.753485291572289 -2.1234479279165863e-32 1 1.912631859381158e-16 
2 -16.376742645786241 -37.149999999999999 0 0 0 -1 -1 0 0 0 1 0 8
2 -16.376742645786241 37.149999999999999 0 0 0 -1 -1 0 0 0 1 0 8
1 0 -45.149999999999999 0 1 0 0 
1 0 45.149999999999999 0 1 0 0 
2 16.376742644438867 -37.149999999999999 0 0 0 -1 -1 0 0 0 1 0 8
2 16.376742644438867 37.149999999999999 0 0 0 -1 -1 0 0 0 1 0 8
2 0 -37.149999999999999 36.565113968679221 1 0 2.2204460492503131e-16 2.2204460492503131e-16 0 -1 -0 1 0 2.25
2 0 -37.149999999999999 12.188371322893072 1 0 2.2204460492503131e-16 2.2204460492503131e-16 0 -1 -0 1 0 2.25
3 1.4276267151498044e-15 0 27.163697306002589 1 0 0 0 0 -1 -0 1 0 2.2623936290179119 2.25
2 0 37.149999999999999 36.565113968679221 1 0 2.2204460492503131e-16 2.2204460492503131e-16 0 -1 -0 1 0 2.25
2 0 37.149999999999999 12.188371322893072 1 0 2.2204460492503131e-16 2.2204460492503131e-16 0 -1 -0 1 0 2.25
1 16.376742644438913 -45.149999999999999 0 0 0 1 
1 -24.376742645786148 0 0 0 1 0 
1 6 -29.149999999999991 24.873767167675538 -2.2204460492503131e-16 2.2204460492503131e-16 1 
2 0 0 3 0 0 1 1 0 -0 -0 1 0 4.5
2 0 0 3 0 0 1 1 0 -0 -0 1 0 4.5
1 16.503860810613649 48.753485291572296 0 -1 0 0 
1 11.379663022506538 0 0 0.10452846326765344 0.99452189536827329 0 
1 16.503860810613649 48.753485291572296 0 0 0 1 
2 14.079151670441663 0 25.683918836491348 0.9945218953682734 0 -0.10452846326765329 -0.10452846326765329 0 -0.9945218953682734 0 1 0 4.5
1 6 29.150000000000006 24.873767167675524 -2.2204460492503131e-16 2.2204460492503131e-16 1 
2 0 0 3 0 0 1 1 0 -0 -0 1 0 4.5
2 0 0 3 0 0 1 1 0 -0 -0 1 0 4.5
1 16.376742644438913 45.149999999999999 0 0 0 1 
1 -24.376742645786152 37.149999999999999 0 0 0 1 
1 -24.376742645786145 -37.149999999999999 0 0 0 1 
1 9.5019304053068243 25.149999999999999 48.753485291572296 1 -0 0 
1 12.503860810613649 2.0000000000000107 48.753485291572304 2.3337828395514681e-17 -1 2.2204460492503131e-16 
1 9.5019304053068243 -25.149999999999999 48.753485291572311 1 -0 0 
1 7.1746669289270137 2.0000000000000107 48.753485291572304 2.3337828395514681e-17 -1 2.2204460492503131e-16 
1 -16.376742645786194 -45.149999999999999 0 0 0 1 
1 -16.376742645786194 45.149999999999999 0 0 0 1 
2 3 -37.149999999999999 36.565113968679221 1 0 2.2204460492503131e-16 2.2204460492503131e-16 0 -1 -0 1 0 2.25
1 2.25 -5.5109105961630896e-16 0 0 0 1 
2 3 -37.149999999999999 12.188371322893074 1 0 2.2204460492503131e-16 2.2204460492503131e-16 0 -1 -0 1 0 2.25
1 2.25 -5.5109105961630896e-16 0 0 0 1 
2 4.8518904235222005 0 26.65374307344543 0.9945218953682734 0 -0.10452846326765329 -0.10452846326765329 0 -0.9945218953682734 0 1 0 2.25
1 2.25 -5.5109105961630896e-16 0 0 0 1 
2 3 37.149999999999999 36.565113968679221 1 0 2.2204460492503131e-16 2.2204460492503131e-16 0 -1 -0 1 0 2.25
1 2.25 -5.5109105961630896e-16 0 0 0 1 
2 3 37.149999999999999 12.188371322893074 1 0 2.2204460492503131e-16 2.2204460492503131e-16 0 -1 -0 1 0 2.25
1 2.25 -5.5109105961630896e-16 0 0 0 1 
1 4.5 -1.1021821192326179e-15 0 0 0 1 
2 0 0 0 0 0 1 1 0 -0 -0 1 0 4.5
1 4.5 -1.1021821192326179e-15 0 0 0 1 
2 0 0 0 0 0 1 1 0 -0 -0 1 0 4.5
1 4.5 -1.1021821192326179e-15 0 0 0 1 
2 0 0 0 0 0 1 1 0 -0 -0 1 0 4.5
1 4.5 -1.1021821192326179e-15 0 0 0 1 
2 0 0 0 0 0 1 1 0 -0 -0 1 0 4.5
1 4.5 -1.1021821192326179e-15 0 0 0 1 
2 0 0 0 0 0 1 1 0 -0 -0 1 0 4.5
1 5.2999999999999998 50.299999999999997 0 0 0 1 
1 0 50.299999999999997 0 0 0 1 
1 0 50.299999999999997 0 1 0 -0 
1 5.2999999999999998 0 0 0 0 1 
1 5.2999999999999998 0 0 -0 1 0 
2 10.122856468974046 0 26.099742218126867 0.9945218953682734 0 -0.10452846326765329 -0.10452846326765329 0 -0.9945218953682734 0 1 0 2.25
1 0 0 0 0 0 1 
1 0 0 0 1 0 -0 
1 0 0 0 -0 1 0 
2 11.095585984336843 0 25.997504226294311 0.9945218953682734 0 -0.10452846326765329 -0.10452846326765329 0 -0.9945218953682734 0 1 0 2.25
Polygon3D 0
PolygonOnTriangulations 0
Surfaces 40
1 0 29.149999999999999 0 0 2.2204460492503131e-16 1 1 0 0 0 1 -2.2204460492503131e-16 
1 0 29.150000000000009 48.753485291572296 1 0 0 0 -2.2204460492503131e-16 -1 0 1 -2.2204460492503131e-16 
2 16.376742644438913 -37.149999999999999 0 0 0 -1 -1 0 0 0 1 0 8
1 24.376742645786194 -37.149999999999999 0 -1 0 0 0 1 0 0 0 -1 
1 -2.9419514497103266e-10 1.0773951837627519e-16 0 0 0 1 1 0 -0 -0 1 0 
1 0 0 0 0 1 0 1 0 0 0 0 -1 
1 7.0380179149504869 25.37079168927076 0 0 0 1 1 0 -0 -0 1 0 
1 11.379663022506538 0 0 -0.9945218953682734 0.10452846326765346 0 0.10452846326765346 0.9945218953682734 0 0 0 -1 
2 16.376742644438913 37.149999999999999 0 0 0 -1 -1 0 0 0 1 0 8
1 16.503860810613649 29.150000000000009 48.753485291572296 0 -2.2204460492503131e-16 -1 -1 0 0 0 1 -2.2204460492503131e-16 
2 -16.376742645786194 -37.149999999999999 0 0 0 -1 -1 0 0 0 1 0 8
2 -16.376742645786194 37.149999999999999 0 0 0 -1 -1 0 0 0 1 0 8
2 0 0 0 0 0 1 1 0 -0 -0 1 0 2.25
2 0 0 0 0 0 1 1 0 -0 -0 1 0 2.25
2 0 0 0 0 0 1 1 0 -0 -0 1 0 2.25
2 0 0 0 0 0 1 1 0 -0 -0 1 0 2.25
2 0 0 0 0 0 1 1 0 -0 -0 1 0 2.25
1 -16.376742645786194 -45.149999999999999 0 0 1 0 1 0 0 0 0 -1 
1 -24.376742645786102 -37.149999999999999 0 -1 0 0 0 1 0 0 0 -1 
2 0 0 0 0 0 1 1 0 -0 -0 1 0 4.5
1 0 0 3 0 0 1 1 0 -0 -0 1 0 
2 0 0 0 0 0 1 1 0 -0 -0 1 0 4.5
1 0 0 3 0 0 1 1 0 -0 -0 1 0 
1 16.503860810613649 48.753485291572296 0 0 -1 0 -1 0 0 -0 -0 -1 
2 0 0 0 0 0 1 1 0 -0 -0 1 0 4.5
2 0 0 0 0 0 1 1 0 -0 -0 1 0 4.5
1 0 0 3 0 0 1 1 0 -0 -0 1 0 
2 0 0 0 0 0 1 1 0 -0 -0 1 0 4.5
1 0 0 3 0 0 1 1 0 -0 -0 1 0 
1 -16.376742645786194 45.149999999999999 0 0 1 0 1 0 0 0 0 -1 
1 0 50.299999999999997 0 -0 1 0 0 0 1 1 0 -0 
1 5.2999999999999998 0 0 1 0 -0 0 0 1 0 -1 0 
1 0 0 0 -0 1 0 0 0 1 1 0 -0 
1 0 0 0 1 0 -0 0 0 1 0 -1 0 
1 0 0 0 0 0 1 1 0 -0 -0 1 0 
1 0 0 0 0 0 1 1 0 -0 -0 1 0 
1 0 0 0 0 0 1 1 0 -0 -0 1 0 
1 0 0 0 0 0 1 1 0 -0 -0 1 0 
1 0 0 0 0 0 1 1 0 -0 -0 1 0 
1 0 0 0 0 0 1 1 0 -0 -0 1 0 
Triangulations 0

TShapes 217
Ve
1.00673640698779e-07
24.3767426451125 -37.15 0
0 0

0101101
*
Ve
1.00673640698778e-07
24.3767426451125 37.15 0
0 0

0101101
*
Ed
 1e-07 1 1 0
1  1 0 0 74.3
2  1 2 0 0 74.3
0

0101000
+217 4 -216 4 *
Ve
1.00673640698779e-07
24.3767426451125 -37.15 0
0 0

0101101
*
Ed
 1.00673640698779e-07 1 1 0
1  2 0 0 6
2  2 3 0 0 6
4 G1 3 0 4 0
2  3 4 0 0 6
0

0101000
+217 1 -214 7 *
Ve
6.00000030830893e-07
6.00000000000001 -29.15 -1.66200386786386e-14
0 0

0101101
*
Ed
 1e-07 1 1 0
1  3 0 -37.15 -29.15
2  4 4 9 -37.15 -29.15
2  5 4 10 -37.15 -29.15
2  6 5 0 -37.15 -29.15
0

0101000
+214 0 -212 11 *
Ve
1e-07
11.3796630225065 0 0
0 0

0101101
*
Ed
 1e-07 1 1 0
1  4 0 6.00000000000001 11.3796630225065
2  7 6 0 6.00000000000001 11.3796630225065
2  8 6 16 6.00000000000001 11.3796630225065
2  9 7 0 6.00000000000001 11.3796630225065
0

0101000
+212 17 -210 0 *
Ed
 1e-07 1 1 0
1  5 0 0 58.3
2  10 6 0 0 58.3
2  11 8 0 0 58.3
0

0101000
+210 0 -210 12 *
Ve
6.00000023092639e-07
6.00000000000001 29.15 -2.30926389122033e-14
0 0

0101101
*
Ed
 1e-07 1 1 0
1  4 0 6.00000000000001 11.3796630225065
2  7 6 0 6.00000000000001 11.3796630225065
2  8 6 16 6.00000000000001 11.3796630225065
2  9 7 0 6.00000000000001 11.3796630225065
0

0101000
+207 19 -210 0 *
Ve
1.00673640698778e-07
24.3767426451125 37.15 0
0 0

0101101
*
Ed
 1e-07 1 1 0
1  3 0 29.15 37.15
2  4 4 9 29.15 37.15
2  5 4 10 29.15 37.15
2  6 5 0 29.15 37.15
0

0101000
+207 11 -205 0 *
Ed
 1.00673640698778e-07 1 1 0
1  6 0 0 6
2  12 9 0 0 6
4 G1 4 0 9 0
2  13 4 0 0 6
0

0101000
+216 1 -205 7 *
Wi

0101100
-215 0 +213 5 +211 8 +209 15 -208 18 -206 18 +204 8 -203 5 *
Fa
0  0 1 0

0111000
+202 0 *
Ve
1.00000047969869e-07
-24.3767426457862 -37.15 0
0 0

0101101
*
Ve
1.00000046185278e-07
-24.3767426457862 37.15 0
0 0

0101101
*
Ed
 1e-07 1 1 0
1  7 0 0 74.3
2  14 10 0 0 74.3
2  15 2 0 0 74.3
0

0101000
+200 4 -199 4 *
Ve
1e-07
-16.3767426457862 -45.15 0
0 0

0101101
*
Ed
 1e-07 1 1 0
1  8 0 4.71238898038469 6.28318530717959
2  16 11 9 4.71238898038469 6.28318530717959
2  17 11 10 4.71238898038469 6.28318530717959
2  18 5 0 4.71238898038469 6.28318530717959
2  19 2 20 4.71238898038469 6.28318530717959
0

0101000
+197 0 -200 0 *
Ve
1e-07
-16.3767426457862 45.15 0
0 0

0101101
*
Ed
 1e-07 1 1 0
1  9 0 0 1.5707963267949
2  20 12 9 0 1.5707963267949
2  21 12 10 0 1.5707963267949
2  22 5 0 0 1.5707963267949
2  23 2 20 0 1.5707963267949
0

0101000
+199 0 -195 0 *
Ve
1.00000000888178e-07
16.3767426444389 -45.15 0
0 0

0101101
*
Ed
 1e-07 1 1 0
1  10 0 -16.3767426457862 16.3767426444389
2  24 5 0 -16.3767426457862 16.3767426444389
2  25 2 20 -16.3767426457862 16.3767426444389
0

0101000
+197 0 -193 0 *
Ve
1e-07
16.3767426444389 45.15 0
0 0

0101101
*
Ed
 1e-07 1 1 0
1  11 0 -16.3767426457862 16.3767426444389
2  26 5 0 -16.3767426457862 16.3767426444389
2  27 2 20 -16.3767426457862 16.3767426444389
0

0101000
+195 0 -191 0 *
Ed
 1e-07 1 1 0
1  12 0 3.14159265358979 4.71238898038469
2  28 3 9 3.14159265358979 4.71238898038469
2  29 3 10 3.14159265358979 4.71238898038469
2  30 5 0 3.14159265358979 4.71238898038469
2  31 2 20 3.14159265358979 4.71238898038469
0

0101000
+217 0 -193 0 *
Ed
 1e-07 1 1 0
1  13 0 1.5707963267949 3.14159265358979
2  32 9 9 1.5707963267949 3.14159265358979
2  33 9 10 1.5707963267949 3.14159265358979
2  34 5 0 1.5707963267949 3.14159265358979
2  35 2 20 1.5707963267949 3.14159265358979
0

0101000
+191 0 -216 0 *
Wi

0101100
-198 0 -196 4 -194 4 +192 4 -190 4 -189 4 -188 4 +215 0 *
Ve
1.000000004996e-07
0 -37.15 34.3151139686792
0 0

0101101
*
Ed
 1e-07 1 1 0
1  14 0 0 6.28318530717959
2  36 2 0 0 6.28318530717959
2  37 13 24 0 6.28318530717959
0

0101100
+186 0 -186 0 *
Wi

0101100
-185 0 *
Ve
1.000000004996e-07
0 -37.15 9.93837132289307
0 0

0101101
*
Ed
 1e-07 1 1 0
1  15 0 0 6.28318530717959
2  38 2 0 0 6.28318530717959
2  39 14 28 0 6.28318530717959
0

0101100
+183 0 -183 0 *
Wi

0101100
-182 0 *
Ve
1.00000008982552e-07
1.87712424592867e-15 -5.51091059616309e-16 24.9013036769847
0 0

0101101
*
Ed
 1e-07 1 1 0
1  16 0 0 6.28318530717959
2  40 2 0 0 6.28318530717959
2  41 15 34 0 6.28318530717959
0

0101100
+180 0 -180 0 *
Wi

0101100
-179 0 *
Ve
1.000000004996e-07
0 37.15 34.3151139686792
0 0

0101101
*
Ed
 1e-07 1 1 0
1  17 0 0 6.28318530717959
2  42 2 0 0 6.28318530717959
2  43 16 38 0 6.28318530717959
0

0101100
+177 0 -177 0 *
Wi

0101100
-176 0 *
Ve
1.000000004996e-07
0 37.15 9.93837132289307
0 0

0101101
*
Ed
 1e-07 1 1 0
1  18 0 0 6.28318530717959
2  44 2 0 0 6.28318530717959
2  45 17 42 0 6.28318530717959
0

0101100
+174 0 -174 0 *
Wi

0101100
-173 0 *
Fa
0  1e-07 2 0

0101000
+187 0 +184 0 +181 0 +178 0 +175 0 +172 0 *
Ed
 1.00000000888178e-07 1 1 0
1  19 0 0 6
2  46 3 0 0 6
4 G1 18 0 3 0
0

0101000
+193 1 -193 7 *
Ed
 1e-07 1 1 0
1  12 0 3.14159265358979 4.71238898038469
2  28 3 9 3.14159265358979 4.71238898038469
2  29 3 10 3.14159265358979 4.71238898038469
2  30 5 0 3.14159265358979 4.71238898038469
0

0101000
+214 0 -193 0 *
Wi

0101100
+213 0 -170 0 -189 1 +169 7 *
Fa
0  1e-07 3 0

0101000
+168 0 *
Ve
1.00000047969869e-07
-24.3767426457862 -37.15 0
0 0

0101101
*
Ve
6.00000042632564e-07
5.99999999999999 -29.15 48.7534852915723
0 0

0101101
*
Ed
 1e-07 1 1 0
1  20 0 -37.15 -29.15
2  47 19 9 -37.15 -29.15
2  48 19 10 -37.15 -29.15
2  49 5 0 -37.15 -29.15
2  50 10 11 -37.15 -29.15
0

0101000
+166 0 -165 11 *
Ed
 1e-07 1 1 0
1  8 0 4.71238898038469 6.28318530717959
2  16 11 9 4.71238898038469 6.28318530717959
2  17 11 10 4.71238898038469 6.28318530717959
2  18 5 0 4.71238898038469 6.28318530717959
0

0101000
+197 0 -166 0 *
Ed
 6e-07 1 1 0
1  21 0 -24.8737671676755 23.8797181238968
2  51 7 15 -24.8737671676755 23.8797181238968
2  52 5 8 -24.8737671676755 23.8797181238968
0

0101000
+212 0 -165 0 *
Wi

0101100
-164 8 -163 8 +162 0 +192 8 +211 8 -169 8 *
Ve
1.00000002664535e-07
4.5 -1.10218211923262e-15 3
0 0

0101101
*
Ed
 1.00000002664535e-07 1 1 0
1  22 0 0 6.28318530717959
2  53 20 0 0 6.28318530717959
2  54 21 0 0 6.28318530717959
2  55 5 47 0 6.28318530717959
0

0101000
+160 0 -160 0 *
Wi

0101100
-159 46 *
Ve
1.00000002664535e-07
4.5 -1.10218211923262e-15 3
0 0

0101101
*
Ed
 1.00000002664535e-07 1 1 0
1  23 0 0 6.28318530717959
2  56 22 0 0 6.28318530717959
2  57 23 0 0 6.28318530717959
2  58 5 52 0 6.28318530717959
0

0101000
+157 0 -157 0 *
Wi

0101100
-156 51 *
Fa
0  1e-07 5 8

0101000
+161 0 +158 0 +155 0 *
Ve
1e-07
16.5038608106136 48.7534852915723 0
0 0

0101101
*
Ed
 1e-07 1 1 0
1  24 0 0 10.5038608106137
2  59 24 0 0 10.5038608106137
2  60 24 16 0 10.5038608106137
2  61 7 0 0 10.5038608106137
2  62 10 17 0 10.5038608106137
0

0101000
+153 0 -165 17 *
Ed
 1e-07 1 1 0
1  25 0 0 49.0220331182541
2  63 7 0 0 49.0220331182541
2  64 8 0 0 49.0220331182541
2  65 8 16 0 49.0220331182541
0

0101000
+210 0 -153 0 *
Wi

0101100
-162 0 +152 15 +151 15 +209 15 *
Fa
0  1e-07 7 15

0101000
+150 0 *
Ed
 1e-07 1 1 0
1  26 0 0 58.3
2  66 24 0 0 58.3
2  67 10 19 0 58.3
2  68 8 0 0 58.3
0

0101000
+153 0 -153 12 *
Wi

0101100
+208 18 -151 18 +151 15 -148 18 *
Ve
1.00000001776357e-07
13.6087735857372 -1.10218211923262e-15 21.2085703073341
0 0

0101101
*
Ed
 1e-07 1 1 0
1  27 0 0 6.28318530717959
2  69 8 18 0 6.28318530717959
2  70 25 56 0 6.28318530717959
0

0101100
+146 0 -146 0 *
Wi

0101100
+145 0 *
Fa
0  1e-07 8 18

0101000
+147 0 +144 0 *
Ve
6.00000028421709e-07
5.99999999999999 29.15 48.7534852915723
0 0

0101101
*
Ed
 6e-07 1 1 0
1  28 0 -24.8737671676755 23.8797181238968
2  71 7 18 -24.8737671676755 23.8797181238968
2  72 5 8 -24.8737671676755 23.8797181238968
0

0101000
+207 0 -142 0 *
Ed
 1e-07 1 1 0
1  24 0 0 10.5038608106137
2  59 24 0 0 10.5038608106137
2  60 24 16 0 10.5038608106137
2  61 7 0 0 10.5038608106137
2  73 10 19 0 10.5038608106137
0

0101000
+153 0 -142 19 *
Wi

0101100
-141 0 +140 18 +151 18 +206 18 *
Fa
0  1e-07 7 18

0101000
+139 0 *
Ve
1.00000046185278e-07
-24.3767426457862 37.15 0
0 0

0101101
*
Ed
 1e-07 1 1 0
1  20 0 29.15 37.15
2  47 19 9 29.15 37.15
2  48 19 10 29.15 37.15
2  49 5 0 29.15 37.15
2  74 10 11 29.15 37.15
0

0101000
+142 11 -137 0 *
Ed
 1e-07 1 1 0
1  9 0 0 1.5707963267949
2  20 12 9 0 1.5707963267949
2  21 12 10 0 1.5707963267949
2  22 5 0 0 1.5707963267949
0

0101000
+137 0 -195 0 *
Ed
 1e-07 1 1 0
1  13 0 1.5707963267949 3.14159265358979
2  32 9 9 1.5707963267949 3.14159265358979
2  33 9 10 1.5707963267949 3.14159265358979
2  34 5 0 1.5707963267949 3.14159265358979
0

0101000
+191 0 -205 0 *
Wi

0101100
-136 8 -141 0 -135 8 +204 8 -190 8 -134 8 *
Ve
1.00000002664535e-07
4.5 -1.10218211923262e-15 3
0 0

0101101
*
Ed
 1.00000002664535e-07 1 1 0
1  29 0 0 6.28318530717959
2  75 26 0 0 6.28318530717959
2  76 27 0 0 6.28318530717959
2  77 5 61 0 6.28318530717959
0

0101000
+132 0 -132 0 *
Wi

0101100
-131 60 *
Ve
1.00000002664535e-07
4.5 -1.10218211923262e-15 3
0 0

0101101
*
Ed
 1.00000002664535e-07 1 1 0
1  30 0 0 6.28318530717959
2  78 28 0 0 6.28318530717959
2  79 29 0 0 6.28318530717959
2  80 5 66 0 6.28318530717959
0

0101000
+129 0 -129 0 *
Wi

0101100
-128 65 *
Fa
0  1e-07 5 8

0101000
+133 0 +130 0 +127 0 *
Ed
 1e-07 1 1 0
1  31 0 0 6
2  81 9 0 0 6
4 G1 9 0 30 0
0

0101000
+191 1 -191 7 *
Wi

0101100
+125 0 -203 0 -188 1 +134 7 *
Fa
0  1e-07 9 0

0101000
+124 0 *
Ed
 1.00000046185278e-07 1 1 0
1  32 0 0 6
2  82 12 0 0 6
4 G1 19 0 12 0
2  83 19 0 0 6
2  84 10 67 0 6
0

0101000
+199 1 -137 7 *
Ed
 1.00000047969869e-07 1 1 0
1  33 0 0 6
2  85 11 0 0 6
4 G1 19 0 11 0
2  86 19 0 0 6
2  87 10 67 0 6
0

0101000
+200 1 -166 7 *
Wi

0101100
+122 5 +198 0 -136 8 -121 5 -140 18 -164 8 +148 18 +152 15 *
Ve
1.50000000888178e-07
7.17466692892701 25.15 48.7534852915723
0 0

0101101
*
Ve
1.5e-07
12.5038608106136 25.15 48.7534852915723
0 0

0101101
*
Ed
 1.5e-07 1 1 0
1  34 0 -2.32726347637981 3.00193040530683
2  88 10 0 -2.32726347637981 3.00193040530683
2  89 31 72 -2.32726347637981 3.00193040530683
0

0101000
+119 0 -118 0 *
Ve
1.50000001776357e-07
12.5038608106137 -25.15 48.7534852915723
0 0

0101101
*
Ed
 1.5e-07 1 1 0
1  35 0 -23.15 27.15
2  90 10 0 -23.15 27.15
2  91 32 72 -23.15 27.15
0

0101000
+118 0 -116 0 *
Ve
1.50000000888178e-07
7.17466692892701 -25.15 48.7534852915723
0 0

0101101
*
Ed
 1.5e-07 1 1 0
1  36 0 -2.32726347637981 3.00193040530683
2  92 10 0 -2.32726347637981 3.00193040530683
2  93 33 72 -2.32726347637981 3.00193040530683
0

0101000
+114 0 -116 0 *
Ed
 1.5e-07 1 1 0
1  37 0 -23.15 27.15
2  94 10 0 -23.15 27.15
2  95 34 72 -23.15 27.15
0

0101000
+119 0 -114 0 *
Wi

0101100
-117 0 -115 0 +113 0 +112 0 *
Fa
0  1e-07 10 0

0101000
+120 0 +111 0 *
Ed
 1e-07 1 1 0
1  38 0 0 6
2  96 11 0 0 6
4 G1 11 0 18 0
0

0101000
+197 1 -197 7 *
Wi

0101100
+109 0 -121 0 -196 1 +163 7 *
Fa
0  1e-07 11 0

0101000
+108 0 *
Ed
 1e-07 1 1 0
1  39 0 0 6
2  97 12 0 0 6
4 G1 30 0 12 0
0

0101000
+195 1 -195 7 *
Wi

0101100
+122 0 -106 0 -194 1 +135 7 *
Fa
0  1e-07 12 0

0101000
+105 0 *
Wi

0101100
+109 0 -170 0 -192 1 +192 7 *
Fa
0  1e-07 18 0

0101000
+103 0 *
Wi

0101100
+106 0 -125 0 -190 1 +190 7 *
Fa
0  1e-07 30 0

0101000
+101 0 *
Ve
1.00000000444089e-07
3 -37.15 34.3151139686792
0 0

0101101
*
Ed
 1e-07 1 1 0
1  40 0 0 6.28318530717959
2  98 13 24 0 6.28318530717959
2  99 35 46 0 6.28318530717959
0

0101100
+99 0 -99 0 *
Ed
 1e-07 1 1 0
1  41 0 3 6
3  100 101CN 13 0 3 6
0

0101000
+186 73 -99 73 *
Wi

0101100
-98 0 +97 24 +185 0 -97 24 *
Fa
0  1e-07 13 24

0101000
+96 0 *
Ve
1.00000000444089e-07
3 -37.15 9.93837132289307
0 0

0101101
*
Ed
 1e-07 1 1 0
1  42 0 0 6.28318530717959
2  102 14 28 0 6.28318530717959
2  103 36 51 0 6.28318530717959
0

0101100
+94 0 -94 0 *
Ed
 1e-07 1 1 0
1  43 0 3 6
3  104 105CN 14 0 3 6
0

0101000
+183 74 -94 74 *
Wi

0101100
-93 0 +92 28 +182 0 -92 28 *
Fa
0  1e-07 14 28

0101000
+91 0 *
Ve
1.00000001859878e-07
4.61670138116998 -5.51091059616309e-16 24.4160688088668
0 0

0101101
*
Ed
 1e-07 1 1 0
1  44 0 0 6.28318530717959
2  106 34 72 0 6.28318530717959
2  107 15 34 0 6.28318530717959
0

0101100
+89 0 -89 0 *
Ed
 1e-07 1 1 0
1  45 0 32.7078685369613 37.35
3  108 109CN 15 0 32.7078685369613 37.35
0

0101000
+180 75 -89 75 *
Wi

0101100
-88 0 +87 34 +179 0 -87 34 *
Fa
0  1e-07 15 34

0101000
+86 0 *
Ve
1.00000000444089e-07
3 37.15 34.3151139686792
0 0

0101101
*
Ed
 1e-07 1 1 0
1  46 0 0 6.28318530717959
2  110 16 38 0 6.28318530717959
2  111 37 60 0 6.28318530717959
0

0101100
+84 0 -84 0 *
Ed
 1e-07 1 1 0
1  47 0 3 6
3  112 113CN 16 0 3 6
0

0101000
+177 76 -84 76 *
Wi

0101100
-83 0 +82 38 +176 0 -82 38 *
Fa
0  1e-07 16 38

0101000
+81 0 *
Ve
1.00000000444089e-07
3 37.15 9.93837132289307
0 0

0101101
*
Ed
 1e-07 1 1 0
1  48 0 0 6.28318530717959
2  114 17 42 0 6.28318530717959
2  115 38 65 0 6.28318530717959
0

0101100
+79 0 -79 0 *
Ed
 1e-07 1 1 0
1  49 0 3 6
3  116 117CN 17 0 3 6
0

0101000
+174 77 -79 77 *
Wi

0101100
-78 0 +77 42 +173 0 -77 42 *
Fa
0  1e-07 17 42

0101000
+76 0 *
Ve
1e-07
4.5 -1.10218211923262e-15 0
0 0

0101101
*
Ed
 1e-07 1 1 0
1  50 0 0 3
3  118 119CN 20 0 0 3
0

0101000
-160 0 +74 0 *
Ed
 1e-07 1 1 0
1  51 0 0 6.28318530717959
2  120 20 0 0 6.28318530717959
2  121 35 0 0 6.28318530717959
0

0101000
+74 0 -74 0 *
Wi

0101100
-159 0 +73 0 +72 0 -73 0 *
Fa
0  1e-07 20 0

0111000
+71 0 *
Ve
1e-07
4.5 -1.10218211923262e-15 0
0 0

0101101
*
Ed
 1e-07 1 1 0
1  52 0 0 3
3  122 123CN 22 0 0 3
0

0101000
-157 0 +69 0 *
Ed
 1e-07 1 1 0
1  53 0 0 6.28318530717959
2  124 22 0 0 6.28318530717959
2  125 36 0 0 6.28318530717959
0

0101000
+69 0 -69 0 *
Wi

0101100
-156 0 +68 0 +67 0 -68 0 *
Fa
0  1e-07 22 0

0111000
+66 0 *
Ve
1e-07
4.5 -1.10218211923262e-15 0
0 0

0101101
*
Ed
 1e-07 1 1 0
1  54 0 0 3
3  126 127CN 25 0 0 3
0

0101000
+64 0 -146 78 *
Ed
 1e-07 1 1 0
1  55 0 0 6.28318530717959
2  128 25 0 0 6.28318530717959
2  129 39 0 0 6.28318530717959
0

0101000
+64 0 -64 0 *
Wi

0101100
-145 0 +63 56 +62 56 -63 56 *
Fa
0  1e-07 25 56

0101000
+61 0 *
Ve
1e-07
4.5 -1.10218211923262e-15 0
0 0

0101101
*
Ed
 1e-07 1 1 0
1  56 0 0 3
3  130 131CN 26 0 0 3
0

0101000
-132 0 +59 0 *
Ed
 1e-07 1 1 0
1  57 0 0 6.28318530717959
2  132 26 0 0 6.28318530717959
2  133 37 0 0 6.28318530717959
0

0101000
+59 0 -59 0 *
Wi

0101100
-131 0 +58 0 +57 0 -58 0 *
Fa
0  1e-07 26 0

0111000
+56 0 *
Ve
1e-07
4.5 -1.10218211923262e-15 0
0 0

0101101
*
Ed
 1e-07 1 1 0
1  58 0 0 3
3  134 135CN 28 0 0 3
0

0101000
-129 0 +54 0 *
Ed
 1e-07 1 1 0
1  59 0 0 6.28318530717959
2  136 28 0 0 6.28318530717959
2  137 38 0 0 6.28318530717959
0

0101000
+54 0 -54 0 *
Wi

0101100
-128 0 +53 0 +52 0 -53 0 *
Fa
0  1e-07 28 0

0111000
+51 0 *
Ve
1e-07
5.3 50.3 0
0 0

0101101
*
Ed
 1e-07 1 1 0
1  60 0 0 45.278526223454
2  138 32 0 0 45.278526223454
2  139 31 0 0 45.278526223454
0

0101000
+49 0 -118 79 *
Ve
1e-07
0 50.3 0
0 0

0101101
*
Ed
 1e-07 1 1 0
1  61 0 0 44.721473776546
2  140 34 0 0 44.721473776546
2  141 31 0 0 44.721473776546
0

0101000
+47 0 -119 79 *
Ed
 1e-07 1 1 0
1  62 0 0 5.3
2  142 31 0 0 5.3
2  143 40 0 0 5.3
0

0101000
-49 0 +47 0 *
Wi

0101100
-48 72 +117 0 +46 72 -45 72 *
Fa
0  1e-07 31 72

0101000
+44 0 *
Ve
1e-07
5.3 0 0
0 0

0101101
*
Ed
 1e-07 1 1 0
1  63 0 0 45.2785262234541
2  144 32 0 0 45.2785262234541
2  145 33 0 0 45.2785262234541
0

0101000
+42 0 -116 79 *
Ed
 1e-07 1 1 0
1  64 0 0 50.3
2  146 32 0 0 50.3
2  147 40 0 0 50.3
0

0101000
-49 0 +42 0 *
Wi

0101100
-41 72 +40 72 +115 0 +48 72 *
Ve
1.00000005024296e-07
9.88766742662183 -5.51091059616309e-16 23.8620679535483
0 0

0101101
*
Ed
 1e-07 1 1 0
1  65 0 0 6.28318530717959
2  148 32 72 0 6.28318530717959
2  149 15 34 0 6.28318530717959
0

0101100
+38 0 -38 0 *
Wi

0101100
-37 0 *
Fa
0  1e-07 32 72

0101000
+39 0 +36 0 *
Ve
1e-07
0 0 0
0 0

0101101
*
Ed
 1e-07 1 1 0
1  66 0 0 44.721473776546
2  150 34 0 0 44.721473776546
2  151 33 0 0 44.721473776546
0

0101000
+34 0 -114 79 *
Ed
 1e-07 1 1 0
1  67 0 0 5.3
2  152 33 0 0 5.3
2  153 40 0 0 5.3
0

0101000
-42 0 +34 0 *
Wi

0101100
-41 72 +113 0 +33 72 -32 72 *
Fa
0  1e-07 33 72

0101000
+31 0 *
Ed
 1e-07 1 1 0
1  68 0 0 50.3
2  154 34 0 0 50.3
2  155 40 0 0 50.3
0

0101000
-47 0 +34 0 *
Wi

0101100
-33 72 +29 72 +112 0 +46 72 *
Wi

0101100
-88 0 *
Fa
0  1e-07 34 72

0101000
+28 0 +27 0 *
Wi

0101100
+72 46 *
Wi

0101100
-98 0 *
Fa
0  1e-07 35 46

0101000
+25 0 +24 0 *
Wi

0101100
+67 51 *
Wi

0101100
-93 0 *
Fa
0  1e-07 36 51

0101000
+22 0 +21 0 *
Wi

0101100
+57 60 *
Wi

0101100
-83 0 *
Fa
0  1e-07 37 60

0101000
+19 0 +18 0 *
Wi

0101100
+52 65 *
Wi

0101100
-78 0 *
Fa
0  1e-07 38 65

0101000
+16 0 +15 0 *
Wi

0101100
+62 56 *
Ve
1.00000007105427e-07
10.8603969419846 -5.51091059616309e-16 23.7598299617157
0 0

0101101
*
Ed
 1e-07 1 1 0
1  69 0 0 6.28318530717959
2  156 15 34 0 6.28318530717959
2  157 39 56 0 6.28318530717959
0

0101100
+12 0 -12 0 *
Wi

0101100
-11 0 *
Fa
0  1e-07 39 56

0101000
+13 0 +10 0 *
Wi

0101100
-29 0 -45 0 +40 0 +32 0 *
Fa
0  1e-07 40 0

0111000
+8 0 *
Ed
 1e-07 1 1 0
1  45 0 42.65 43.6280875814731
3  108 109CN 15 0 42.65 43.6280875814731
0

0101000
+38 75 -12 75 *
Wi

0101100
-11 0 +6 34 +37 0 -6 34 *
Fa
0  1e-07 15 34

0101000
+5 0 *
Sh

0101100
-201 0 -171 0 +167 5 +154 0 +149 0 -143 0 -138 0 +126 0 +123 5 -110 0 
+107 5 +104 5 -102 5 +100 5 -95 0 -90 0 -85 0 -80 0 -75 0 -70 46 
-65 51 -60 0 -55 60 -50 65 -43 0 -35 0 +30 0 +26 0 +23 0 +20 0 
+17 0 +14 0 +9 0 +7 72 -4 0 *
So

0100000
+3 0 *
Co

1100000
+2 0 *

+1 0 