DBRep_DrawableShape

CASCADE Topology V3, (c) Open Cascade
Locations 50
1
              1               0               0              -3 
              0               1               0           -45.3 
              0               0               1 -23.6283881586122 
1
              1               0               0               3 
              0               1               0               0 
              0               0               1 23.6283881586122 
2  1 1 2 1 0
2  2 -1 1 -1 0
1
              1               0               0               0 
              0               1               0               0 
              0               0               1            58.6 
1
              1              -0               0               0 
              0 2.22044604925031e-16              -1               0 
              0               1 2.22044604925031e-16               0 
1
              1               0               0               0 
              0               1               0            29.3 
              0               0               1               0 
2  5 1 6 1 7 1 0
2  5 -1 0
2  7 -1 6 -1 5 -1 0
2  6 1 7 1 0
2  7 -1 6 -1 0
1
              1               0               0              -0 
              0               1               0              -0 
              0               0               1              -6 
1
2.22044604925031e-16               0               1               0 
              0               1               0               0 
             -1               0 2.22044604925031e-16               0 
1
              1               0               0               3 
              0               1               0           -37.3 
              0               0               1 23.6283881586122 
2  13 1 14 1 15 1 0
1
              1               0               0              -0 
              0               1               0              -0 
              0               0               1             -40 
1
2.22044604925031e-16               0               1               0 
              0               1               0               0 
             -1               0 2.22044604925031e-16               0 
1
              1               0               0               0 
              0               1               0               0 
              0               0               1            22.5 
1
0.961261695938319               0 0.275637355816999               0 
              0               1               0               0 
-0.275637355816999               0 0.961261695938319               0 
1
              1               0               0 5.19153274862729 
              0               1               0               0 
              0               0               1               4 
2  17 1 18 1 19 1 20 1 21 1 0
1
              1               0               0              -0 
              0               1               0              -0 
              0               0               1              -6 
1
2.22044604925031e-16               0               1               0 
              0               1               0               0 
             -1               0 2.22044604925031e-16               0 
1
              1               0               0               3 
              0               1               0            37.3 
              0               0               1 23.6283881586122 
2  23 1 24 1 25 1 0
1
              1               0               0              -0 
              0               1               0              -0 
              0               0               1            -1.5 
1
2.22044604925031e-16               0               1               0 
              0               1               0               0 
             -1               0 2.22044604925031e-16               0 
1
              1               0               0             4.5 
              0               1               0           -37.3 
              0               0               1 23.6283881586122 
2  27 1 28 1 29 1 0
2  1 1 2 1 29 -1 28 -1 27 -1 0
1
              1               0               0              -0 
              0               1               0              -0 
              0               0               1            -6.5 
1
2.22044604925031e-16               0               1               0 
              0               1               0               0 
             -1               0 2.22044604925031e-16               0 
1
              1               0               0 10.1450467837533 
              0               1               0               0 
              0               0               1               0 
2  32 1 33 1 34 1 19 1 20 1 21 1 0
1
              1               0               0              -0 
              0               1               0              -0 
              0               0               1            -1.5 
1
2.22044604925031e-16               0               1               0 
              0               1               0               0 
             -1               0 2.22044604925031e-16               0 
1
              1               0               0             4.5 
              0               1               0            37.3 
              0               0               1 23.6283881586122 
2  36 1 37 1 38 1 0
2  1 1 2 1 38 -1 37 -1 36 -1 0
1
              1               0               0            -2.8 
              0               1               0           -25.3 
              0               0               1           -32.5 
1
              1               0               0               0 
              0               1               0               0 
              0               0               1            32.5 
1
0.961261695938319               0 0.275637355816999               0 
              0               1               0               0 
-0.275637355816999               0 0.961261695938319               0 
1
              1               0               0 5.19153274862729 
              0               1               0               0 
              0               0               1               4 
2  41 1 42 1 43 1 44 1 0
2  15 -1 14 -1 13 -1 0
2  21 -1 20 -1 19 -1 18 -1 17 -1 0
2  25 -1 24 -1 23 -1 0
2  21 -1 20 -1 19 -1 34 -1 33 -1 32 -1 0
2  44 -1 43 -1 42 -1 41 -1 0
Curve2ds 115
1 47.256776317224364 -74.599999999999994 -2.2204460492503131e-16 1 
1 0 0 0 1 
1 0 0 1 0 
1 0 0 0 -1 
1 6 0 0 1 
1 0 0 1 0 
1 0 -58.600000000000001 1 0 
1 -9.3424658082578329 -26.056140825959798 1 0 
1 10.957389626004547 0 0 -1 
1 0 0 0 -1 
1 0 0 0 1 
1 0 90.599999999999994 1 0 
1 24.508052180804739 -74.600000000000009 0 1 
1 1.6564527527407337e-14 -74.600000000000009 -2.2204460492503131e-16 1 
1 0 0 1 0 
1 0 0 1 0 
1 47.256776317224364 -74.599999999999994 -1 -2.2204460492503131e-16 
1 0 -90.599999999999994 1 0 
1 0 0 1 0 
1 47.25677631722435 15.999999999999996 -1 -2.2204460492503131e-16 
2 23.628388158612189 -66.600000000000009 1 2.2204460492503131e-16 -2.2204460492503131e-16 1 2.25
1 0 3 1 0 
3 18.3613909496537 -29.300000000000008 1 2.2204460492503131e-16 -2.2204460492503131e-16 1 2.3406737306886045 2.25
7 0 0  8 23 4  0 28.792657348730135  0.19634954084936207 28.792657348730135  0.39269908169876366 28.764229874272694  0.58904862254801027 28.707378361912486  0.78539816339750179 28.624430425105452  0.98174770424694491 28.520080359135999  1.1780972450961165 28.400840251615641  1.3744467859455345 28.274160461650254  1.8653206380689396 27.957459884456672  2.1598449493430016 27.767438849558669  2.4543692606082352 27.602540947544689  2.7488935719033454 27.487853519574816  3.0434178831535097 27.44161629068962  3.3379421944398335 27.46776928028487  3.6324665057131988 27.556906440155242  4.2215151282612853 27.825635791042377  4.5160394395417258 28.005228955838  4.8105637507712808 28.212276815709885  5.1050880621182797 28.420706560540797  5.3996123733184831 28.600783304770339  5.6941366846365593 28.72869529421839  5.9886609959055432 28.792657348730138  6.2831853071795862 28.792657348730138 
 0 9 1.5707963267948961 7 3.9269908169872401 7 6.2831853071795862 9
2 23.628388158612175 7.9999999999999911 1 2.2204460492503131e-16 -2.2204460492503131e-16 1 2.25
1 0 3 1 0 
1 0 0 1 0 
1 0 6 1 0 
1 47.25677631722435 0 0 1 
1 0 0 1 0 
1 24.508052180804739 -74.600000000000009 -1 0 
1 47.25677631722435 0 0 -1 
1 6 0 0 1 
1 18.508052180804739 -74.600000000000009 0 1 
8 -13.02807041297989 34.22870590424445
1 -3.3424658082578329 -13.028070412979908 0 1 
8 -13.02807041297989 34.22870590424445
1 13.028070412979904 -16 1 -2.2204460492503131e-16 
1 0 3 1 0 
2 0 0 1 0 -0 1 4.5
2 23.628388158612175 -8 -1 0 -0 -1 4.5
1 0 -0 1 0 
1 0 -58.600000000000001 1 0 
1 15.165586372546906 21.200635491264553 -1 0 
1 0 -58.600000000000001 1 0 
1 1.614923817746714 -26.056140825959798 0.27563735581699911 0.96126169593831889 
1 0 0 1 0 
1 0 -58.600000000000001 1 0 
1 0 -0 0 -1 
1 0 0 0 -1 
1 49.161197743446415 0 0 -1 
2 24.755761240053744 -29.300000000000004 -1 2.1344297350418962e-16 2.1344297350418962e-16 1 4.5
1 2.2599168501832693e-18 2.9999999999999929 1 0 
8 -13.02807041297989 34.228705904244464
1 -3.3424658082578329 -13.028070412979908 0 1 
8 -13.02807041297989 34.228705904244464
1 13.02807041297989 -74.599999999999994 1 -2.2204460492503131e-16 
1 0 0 1 0 
1 18.508052180804739 -74.600000000000009 0 1 
1 0 -90.599999999999994 1 0 
1 0 6 1 0 
1 0 3 1 0 
2 0 0 1 0 -0 1 4.5
2 23.628388158612175 -82.599999999999994 -1 0 -0 -1 4.5
1 47.25677631722435 0 0 1 
1 0 90.599999999999994 1 0 
1 24.508052180804739 15.999999999999986 -1 0 
8 1.1783492495773975 7.0040260904023715
1 11.00402609040237 -4.0000000000000107 -1 0 
8 1.1783492495773975 7.0040260904023715
1 43.872315848492875 -1.1327019980564155 0.27563735581699916 0.96126169593831889 
8 -23.29999999999999 27.300000000000011
1 3.9999999999999964 -27.300000000000001 -6.3670265894890204e-17 -1 
8 -23.29999999999999 27.300000000000011
1 45.80288708012467 -27.300000000000011 2.3099287723962236e-16 1 
8 1.1783492495774013 7.004026090402375
1 11.00402609040237 -54.600000000000009 -1 0 
8 1.1783492495774013 7.004026090402375
1 43.872315848492889 -1.1327019980564195 0.27563735581699916 0.96126169593831889 
8 -23.29999999999999 27.300000000000011
1 9.8256768408249684 -27.300000000000001 -6.3670265894890204e-17 -1 
8 -23.29999999999999 27.300000000000011
1 44.197112919875352 -27.300000000000011 2.3099287723962236e-16 1 
1 0 6 1 0 
2 0 0 1 0 -0 1 2.25
1 6.2831853071795862 -0 0 1 
1 0 -0 0 1 
2 22.499999999999996 -25.300000000000001 -1 -0 0 -1 2.25
1 2.2599168501832693e-18 37.200000000000017 1 0 
1 6.2831853071795862 -0 0 1 
1 0 -0 0 1 
1 0 6 1 0 
2 0 0 1 0 -0 1 2.25
1 6.2831853071795862 -0 0 1 
1 0 -0 0 1 
1 6.2831853071795862 -0 0 1 
1 0 -0 0 1 
1 0 0 1 0 
2 0 0 1 0 -0 1 4.5
1 6.2831853071795862 -0 0 1 
1 0 -0 0 1 
1 0 0 1 0 
2 0 0 1 0 -0 1 4.5
1 6.2831853071795862 -0 0 1 
1 0 -0 0 1 
1 0 0 1 0 
2 0 0 1 0 -0 1 4.5
1 0 -50.600000000000001 1 0 
1 0 5.5999999999999996 1 0 
1 0 -50.600000000000001 1 0 
1 0 0 1 0 
1 0 0 0 1 
1 0 50.600000000000001 1 0 
1 0 0 1 0 
1 0 5.5999999999999996 1 0 
1 0 0 0 -1 
1 5.5999999999999996 0 0 1 
2 22.499999999999996 -25.300000000000001 -1 -0 0 -1 2.25
1 2.2599168501832693e-18 42.800000000000018 1 0 
1 0 0 1 0 
1 0 0 1 0 
1 0 0 0 1 
1 0 0 1 0 
1 0 0 0 -1 
1 0 0 0 1 
1 2.2599168501832693e-18 43.64504678375328 1 0 
2 1.9585212087989059e-15 0 1 0 -0 1 2.25
Curves 51
8 0 90.599999999999994
1 0 -45.299999999999997 0 0 1 0 
1 0 0 0 1 0 -0 
1 6 0 0 -0 1 0 
1 0 0 0 1 0 0 
1 10.957389626004547 0 0 0 0 1 
1 0 90.599999999999994 0 1 0 -0 
8 0 90.599999999999994
1 0 -45.299999999999997 47.25677631722435 0 1 0 
1 0 0 0 0 0 1 
1 0 90.599999999999994 0 0 0 1 
2 0 -37.299999999999997 23.628388158612175 1 0 2.2204460492503131e-16 2.2204460492503131e-16 0 -1 -0 1 0 2.25
3 1.4261223498922337e-15 0 28.895385367570658 1 0 0 0 0 -1 -0 1 0 2.3406737306886045 2.25
2 0 37.299999999999997 23.628388158612175 1 0 2.2204460492503131e-16 2.2204460492503131e-16 0 -1 -0 1 0 2.25
1 6 0 0 0 0 1 
1 0 0 47.25677631722435 1 0 -0 
1 6 0 47.25677631722435 -0 1 0 
1 6 -29.299999999999997 13.028070412979904 0 2.2204460492503131e-16 1 
2 0 0 3 0 0 1 1 0 -0 -0 1 0 4.5
1 24.508052180804739 47.25677631722435 0 -1 0 0 
1 10.957389626004547 0 0 0.27563735581699911 0.96126169593831889 0 
1 24.508052180804739 47.25677631722435 0 0 0 1 
2 17.781002195449915 0 23.796765033858168 0.96126169593831901 0 -0.27563735581699894 -0.27563735581699894 0 -0.96126169593831901 0 1 0 4.5
1 6 29.300000000000004 13.02807041297989 0 2.2204460492503131e-16 1 
1 6 90.599999999999994 0 0 0 1 
2 0 0 3 0 0 1 1 0 -0 -0 1 0 4.5
1 0 90.599999999999994 47.25677631722435 1 0 -0 
1 13.50402609040237 25.300000000000001 47.25677631722435 1 -0 0 
1 20.508052180804743 2.0000000000000107 47.256776317224357 6.3670265894890204e-17 -1 2.2204460492503131e-16 
1 13.50402609040237 -25.299999999999997 47.256776317224364 1 -0 0 
1 14.682375339979771 2.0000000000000107 47.256776317224357 6.3670265894890204e-17 -1 2.2204460492503131e-16 
2 3 -37.299999999999997 23.628388158612175 1 0 2.2204460492503131e-16 2.2204460492503131e-16 0 -1 -0 1 0 2.25
1 2.25 -5.5109105961630896e-16 0 0 0 1 
2 8.7018405058824886 0 26.400172754899767 0.96126169593831901 0 -0.27563735581699894 -0.27563735581699894 0 -0.96126169593831901 0 1 0 2.25
1 2.25 -5.5109105961630896e-16 0 0 0 1 
2 3 37.299999999999997 23.628388158612175 1 0 2.2204460492503131e-16 2.2204460492503131e-16 0 -1 -0 1 0 2.25
1 2.25 -5.5109105961630896e-16 0 0 0 1 
1 4.5 -1.1021821192326179e-15 0 0 0 1 
2 0 0 0 0 0 1 1 0 -0 -0 1 0 4.5
1 4.5 -1.1021821192326179e-15 0 0 0 1 
2 0 0 0 0 0 1 1 0 -0 -0 1 0 4.5
1 4.5 -1.1021821192326179e-15 0 0 0 1 
2 0 0 0 0 0 1 1 0 -0 -0 1 0 4.5
1 5.5999999999999996 50.600000000000001 0 0 0 1 
1 0 50.600000000000001 0 0 0 1 
1 0 50.600000000000001 0 1 0 -0 
1 5.5999999999999996 0 0 0 0 1 
1 5.5999999999999996 0 0 -0 1 0 
2 14.084906003137077 0 24.856603562324572 0.96126169593831901 0 -0.27563735581699894 -0.27563735581699894 0 -0.96126169593831901 0 1 0 2.25
1 0 0 0 0 0 1 
1 0 0 0 1 0 -0 
1 0 0 0 -0 1 0 
2 14.897217107634958 0 24.623677101309163 0.96126169593831901 0 -0.27563735581699894 -0.27563735581699894 0 -0.96126169593831901 0 1 0 2.25
Polygon3D 0
PolygonOnTriangulations 0
Surfaces 29
1 0 29.300000000000001 0 0 2.2204460492503131e-16 1 1 0 0 0 1 -2.2204460492503131e-16 
1 0 29.300000000000011 47.25677631722435 1 0 0 0 -2.2204460492503131e-16 -1 0 1 -2.2204460492503131e-16 
1 0 0 0 -0 1 0 0 0 1 1 0 -0 
1 0 0 0 0 0 1 1 0 -0 -0 1 0 
1 6 0 0 1 0 -0 0 0 1 0 -1 0 
1 0 0 0 0 1 0 1 0 0 0 0 -1 
1 9.3424658082578329 26.056140825959798 0 0 0 1 1 0 -0 -0 1 0 
1 10.957389626004547 0 0 -0.96126169593831889 0.27563735581699911 0 0.27563735581699911 0.96126169593831889 0 0 0 -1 
1 0 90.599999999999994 0 -0 1 0 0 0 1 1 0 -0 
1 24.508052180804739 29.300000000000011 47.25677631722435 0 -2.2204460492503131e-16 -1 -1 0 0 0 1 -2.2204460492503131e-16 
1 0 0 0 1 0 -0 0 0 1 0 -1 0 
2 0 0 0 0 0 1 1 0 -0 -0 1 0 2.25
2 0 0 0 0 0 1 1 0 -0 -0 1 0 2.25
2 0 0 0 0 0 1 1 0 -0 -0 1 0 2.25
1 0 0 47.25677631722435 0 0 1 1 0 -0 -0 1 0 
2 0 0 0 0 0 1 1 0 -0 -0 1 0 4.5
1 0 0 3 0 0 1 1 0 -0 -0 1 0 
1 24.508052180804739 47.25677631722435 0 0 -1 0 -1 0 0 -0 -0 -1 
2 0 0 0 0 0 1 1 0 -0 -0 1 0 4.5
2 0 0 0 0 0 1 1 0 -0 -0 1 0 4.5
1 0 0 3 0 0 1 1 0 -0 -0 1 0 
1 0 50.600000000000001 0 -0 1 0 0 0 1 1 0 -0 
1 5.5999999999999996 0 0 1 0 -0 0 0 1 0 -1 0 
1 0 0 0 -0 1 0 0 0 1 1 0 -0 
1 0 0 0 1 0 -0 0 0 1 0 -1 0 
1 0 0 0 0 0 1 1 0 -0 -0 1 0 
1 0 0 0 0 0 1 1 0 -0 -0 1 0 
1 0 0 0 0 0 1 1 0 -0 -0 1 0 
1 0 0 0 0 0 1 1 0 -0 -0 1 0 
Triangulations 0

TShapes 157
Ve
1e-07
0 0 0
0 0

0101101
*
Ve
1e-07
0 90.6 0
0 0

0101101
*
Ed
 1e-07 1 1 0
1  1 0 0 90.6
2  1 2 0 0 90.6
0

0101000
+157 3 -156 3 *
Ve
1e-07
6 0 0
0 0

0101101
*
Ed
 1e-07 1 1 0
1  2 0 0 6
2  2 3 0 0 6
2  3 4 0 0 6
0

0101000
-154 0 +157 0 *
Ve
6.00000007704948e-07
6 -29.3 6.50590692430342e-15
0 0

0101101
*
Ed
 1e-07 1 1 0
1  3 0 0 16
2  4 5 0 0 16
2  5 4 0 0 16
0

0101000
+154 0 -152 4 *
Ve
1e-07
10.9573896260045 0 0
0 0

0101101
*
Ed
 1e-07 1 1 0
1  4 0 6 10.9573896260045
2  6 6 0 6 10.9573896260045
2  7 6 9 6 10.9573896260045
2  8 7 0 6 10.9573896260045
0

0101000
+152 10 -150 0 *
Ed
 1e-07 1 1 0
1  5 0 0 58.6
2  9 6 0 0 58.6
2  10 8 0 0 58.6
0

0101000
+150 0 -150 5 *
Ve
6.00000003552714e-07
6 29.3 0
0 0

0101101
*
Ed
 1e-07 1 1 0
1  4 0 6 10.9573896260045
2  6 6 0 6 10.9573896260045
2  7 6 9 6 10.9573896260045
2  8 7 0 6 10.9573896260045
0

0101000
+147 12 -150 0 *
Ve
1e-07
6 90.6 0
0 0

0101101
*
Ed
 1e-07 1 1 0
1  3 0 74.6 90.6
2  4 5 0 74.6 90.6
2  5 4 0 74.6 90.6
0

0101000
+147 4 -145 0 *
Ed
 1e-07 1 1 0
1  6 0 0 6
2  11 9 0 0 6
2  12 4 0 0 6
0

0101000
-145 0 +156 0 *
Wi

0101100
-155 0 +153 3 +151 3 +149 8 -148 11 -146 11 +144 3 -143 3 *
Fa
0  0 1 0

0111000
+142 0 *
Ve
1e-07
0 0 47.2567763172244
0 0

0101101
*
Ve
1e-07
0 90.6 47.2567763172244
0 0

0101101
*
Ed
 1e-07 1 1 0
1  7 0 0 90.6
2  13 10 0 0 90.6
2  14 2 0 0 90.6
0

0101000
+140 3 -139 3 *
Ed
 1e-07 1 1 0
1  8 0 0 47.2567763172244
2  15 11 0 0 47.2567763172244
2  16 3 0 0 47.2567763172244
2  17 2 4 0 47.2567763172244
0

0101000
-140 0 +157 0 *
Ed
 1e-07 1 1 0
1  9 0 0 47.2567763172244
2  18 11 0 0 47.2567763172244
2  19 9 0 0 47.2567763172244
2  20 2 4 0 47.2567763172244
0

0101000
-139 0 +156 0 *
Wi

0101100
-138 0 -137 3 +136 3 +155 0 *
Ve
1.000000004996e-07
0 -37.3 21.3783881586122
0 0

0101101
*
Ed
 1e-07 1 1 0
1  10 0 0 6.28318530717959
2  21 2 0 0 6.28318530717959
2  22 12 16 0 6.28318530717959
0

0101100
+134 0 -134 0 *
Wi

0101100
-133 0 *
Ve
1.00000004325159e-07
-9.78357618149548e-16 -5.51091059616309e-16 26.5547116368821
0 0

0101101
*
Ed
 1e-07 1 1 0
1  11 0 0 6.28318530717959
2  23 2 0 0 6.28318530717959
2  24 13 22 0 6.28318530717959
0

0101100
+131 0 -131 0 *
Wi

0101100
-130 0 *
Ve
1.000000004996e-07
0 37.3 21.3783881586122
0 0

0101101
*
Ed
 1e-07 1 1 0
1  12 0 0 6.28318530717959
2  25 2 0 0 6.28318530717959
2  26 14 26 0 6.28318530717959
0

0101100
+128 0 -128 0 *
Wi

0101100
-127 0 *
Fa
0  1e-07 2 0

0101000
+135 0 +132 0 +129 0 +126 0 *
Ve
1e-07
6 0 47.2567763172244
0 0

0101101
*
Ed
 1e-07 1 1 0
1  13 0 0 47.2567763172244
2  27 5 0 0 47.2567763172244
2  28 3 0 0 47.2567763172244
0

0101000
-124 0 +154 0 *
Ed
 1e-07 1 1 0
1  14 0 0 6
2  29 3 0 0 6
2  30 15 0 0 6
2  31 10 4 0 6
0

0101000
-124 0 +140 0 *
Wi

0101100
-153 0 -123 0 +122 0 +137 0 *
Fa
0  1e-07 3 0

0101000
+121 0 *
Ve
6.00000007105427e-07
6 -29.3 47.2567763172244
0 0

0101101
*
Ed
 1e-07 1 1 0
1  15 0 0 16
2  32 5 0 0 16
2  33 15 0 0 16
2  34 10 4 0 16
0

0101000
+124 0 -119 4 *
Ed
 6e-07 1 1 0
1  16 0 -13.0280704129799 34.2287059042444
2  35 7 8 -13.0280704129799 34.2287059042444
2  36 5 3 -13.0280704129799 34.2287059042444
0

0101000
+152 0 -119 0 *
Wi

0101100
-118 3 -123 3 +117 0 +151 3 *
Ve
1.00000000888178e-07
4.5 -1.10218211923262e-15 3
0 0

0101101
*
Ed
 1.00000000888178e-07 1 1 0
1  17 0 0 6.28318530717959
2  37 16 0 0 6.28318530717959
2  38 17 0 0 6.28318530717959
2  39 5 31 0 6.28318530717959
0

0101000
+115 0 -115 0 *
Wi

0101100
-114 30 *
Fa
0  1e-07 5 3

0101000
+116 0 +113 0 *
Ve
1e-07
24.5080521808047 47.2567763172244 0
0 0

0101101
*
Ed
 1e-07 1 1 0
1  18 0 0 18.5080521808047
2  40 18 0 0 18.5080521808047
2  41 18 9 0 18.5080521808047
2  42 7 0 0 18.5080521808047
2  43 10 10 0 18.5080521808047
0

0101000
+111 0 -119 10 *
Ed
 1e-07 1 1 0
1  19 0 0 49.1611977434464
2  44 7 0 0 49.1611977434464
2  45 8 0 0 49.1611977434464
2  46 8 9 0 49.1611977434464
0

0101000
+150 0 -111 0 *
Wi

0101100
-117 0 +110 8 +109 8 +149 8 *
Fa
0  1e-07 7 8

0101000
+108 0 *
Ed
 1e-07 1 1 0
1  20 0 0 58.6
2  47 18 0 0 58.6
2  48 10 12 0 58.6
2  49 8 0 0 58.6
0

0101000
+111 0 -111 5 *
Wi

0101100
+148 11 -109 11 +109 8 -106 11 *
Ve
1.00000003719755e-07
16.5406340942734 -1.10218211923262e-15 19.4710874021357
0 0

0101101
*
Ed
 1e-07 1 1 0
1  21 0 0 6.28318530717959
2  50 8 11 0 6.28318530717959
2  51 19 35 0 6.28318530717959
0

0101100
+104 0 -104 0 *
Wi

0101100
+103 0 *
Fa
0  1e-07 8 11

0101000
+105 0 +102 0 *
Ve
6e-07
6 29.3 47.2567763172244
0 0

0101101
*
Ed
 6e-07 1 1 0
1  22 0 -13.0280704129799 34.2287059042445
2  52 7 11 -13.0280704129799 34.2287059042445
2  53 5 3 -13.0280704129799 34.2287059042445
0

0101000
+147 0 -100 0 *
Ed
 1e-07 1 1 0
1  18 0 0 18.5080521808047
2  40 18 0 0 18.5080521808047
2  41 18 9 0 18.5080521808047
2  42 7 0 0 18.5080521808047
2  54 10 12 0 18.5080521808047
0

0101000
+111 0 -100 12 *
Wi

0101100
-99 0 +98 11 +109 11 +146 11 *
Fa
0  1e-07 7 11

0101000
+97 0 *
Ve
1e-07
6 90.6 47.2567763172244
0 0

0101101
*
Ed
 1e-07 1 1 0
1  15 0 74.6 90.6
2  32 5 0 74.6 90.6
2  33 15 0 74.6 90.6
2  55 10 4 74.6 90.6
0

0101000
+100 4 -95 0 *
Ed
 1e-07 1 1 0
1  23 0 0 47.2567763172244
2  56 5 0 0 47.2567763172244
2  57 9 0 0 47.2567763172244
0

0101000
-95 0 +145 0 *
Wi

0101100
-94 3 -99 0 +93 3 +144 3 *
Ve
1.00000000888178e-07
4.5 -1.10218211923262e-15 3
0 0

0101101
*
Ed
 1.00000000888178e-07 1 1 0
1  24 0 0 6.28318530717959
2  58 20 0 0 6.28318530717959
2  59 21 0 0 6.28318530717959
2  60 5 40 0 6.28318530717959
0

0101000
+91 0 -91 0 *
Wi

0101100
-90 39 *
Fa
0  1e-07 5 3

0101000
+92 0 +89 0 *
Ed
 1e-07 1 1 0
1  25 0 0 6
2  61 9 0 0 6
2  62 15 0 0 6
2  63 10 4 0 6
0

0101000
-95 0 +139 0 *
Wi

0101100
-143 0 -93 0 +87 0 +136 0 *
Fa
0  1e-07 9 0

0101000
+86 0 *
Wi

0101100
+87 3 -94 3 +138 0 -98 11 -122 3 +106 11 -118 3 +110 8 *
Ve
1.50000001776357e-07
14.6823753399798 25.3 47.2567763172244
0 0

0101101
*
Ve
1.50000003552714e-07
20.5080521808047 25.3 47.2567763172244
0 0

0101101
*
Ed
 1.5e-07 1 1 0
1  26 0 1.1783492495774 7.00402609040237
2  64 10 0 1.1783492495774 7.00402609040237
2  65 22 45 1.1783492495774 7.00402609040237
0

0101000
+83 0 -82 0 *
Ve
1.50000003552714e-07
20.5080521808047 -25.3 47.2567763172244
0 0

0101101
*
Ed
 1.5e-07 1 1 0
1  27 0 -23.3 27.3
2  66 10 0 -23.3 27.3
2  67 23 45 -23.3 27.3
0

0101000
+82 0 -80 0 *
Ve
1.50000007944109e-07
14.6823753399798 -25.3 47.2567763172244
0 0

0101101
*
Ed
 1.5e-07 1 1 0
1  28 0 1.1783492495774 7.00402609040238
2  68 10 0 1.1783492495774 7.00402609040238
2  69 24 45 1.1783492495774 7.00402609040238
0

0101000
+78 0 -80 0 *
Ed
 1.5e-07 1 1 0
1  29 0 -23.3 27.3
2  70 10 0 -23.3 27.3
2  71 25 45 -23.3 27.3
0

0101000
+83 0 -78 0 *
Wi

0101100
-81 0 -79 0 +77 0 +76 0 *
Fa
0  1e-07 10 0

0101000
+84 0 +75 0 *
Ve
1.00000000444089e-07
3 -37.3 21.3783881586122
0 0

0101101
*
Ed
 1e-07 1 1 0
1  30 0 0 6.28318530717959
2  72 12 16 0 6.28318530717959
2  73 26 30 0 6.28318530717959
0

0101100
+73 0 -73 0 *
Ed
 1e-07 1 1 0
1  31 0 3 6
3  74 75CN 12 0 3 6
0

0101000
+134 46 -73 46 *
Wi

0101100
-72 0 +71 16 +133 0 -71 16 *
Fa
0  1e-07 12 16

0101000
+70 0 *
Ve
1.00000010672379e-07
8.08165645529423 -5.51091059616309e-16 24.2373339390385
0 0

0101101
*
Ed
 1e-07 1 1 0
1  32 0 0 6.28318530717959
2  76 25 45 0 6.28318530717959
2  77 13 22 0 6.28318530717959
0

0101100
+68 0 -68 0 *
Ed
 1e-07 1 1 0
1  33 0 28.7926573487301 37.2
3  78 79CN 13 0 28.7926573487301 37.2
0

0101000
+131 47 -68 47 *
Wi

0101100
-67 0 +66 22 +130 0 -66 22 *
Fa
0  1e-07 13 22

0101000
+65 0 *
Ve
1.00000000444089e-07
3 37.3 21.3783881586122
0 0

0101101
*
Ed
 1e-07 1 1 0
1  34 0 0 6.28318530717959
2  80 14 26 0 6.28318530717959
2  81 27 39 0 6.28318530717959
0

0101100
+63 0 -63 0 *
Ed
 1e-07 1 1 0
1  35 0 3 6
3  82 83CN 14 0 3 6
0

0101000
+128 48 -63 48 *
Wi

0101100
-62 0 +61 26 +127 0 -61 26 *
Fa
0  1e-07 14 26

0101000
+60 0 *
Ve
1e-07
4.5 -1.10218211923262e-15 0
0 0

0101101
*
Ed
 1e-07 1 1 0
1  36 0 0 3
3  84 85CN 16 0 0 3
0

0101000
-115 0 +58 0 *
Ed
 1e-07 1 1 0
1  37 0 0 6.28318530717959
2  86 16 0 0 6.28318530717959
2  87 26 0 0 6.28318530717959
0

0101000
+58 0 -58 0 *
Wi

0101100
-114 0 +57 0 +56 0 -57 0 *
Fa
0  1e-07 16 0

0111000
+55 0 *
Ve
1e-07
4.5 -1.10218211923262e-15 0
0 0

0101101
*
Ed
 1e-07 1 1 0
1  38 0 0 2.99999999999999
3  88 89CN 19 0 0 2.99999999999999
0

0101000
+53 0 -104 49 *
Ed
 1e-07 1 1 0
1  39 0 0 6.28318530717959
2  90 19 0 0 6.28318530717959
2  91 28 0 0 6.28318530717959
0

0101000
+53 0 -53 0 *
Wi

0101100
-103 0 +52 35 +51 35 -52 35 *
Fa
0  1e-07 19 35

0101000
+50 0 *
Ve
1e-07
4.5 -1.10218211923262e-15 0
0 0

0101101
*
Ed
 1e-07 1 1 0
1  40 0 0 3
3  92 93CN 20 0 0 3
0

0101000
-91 0 +48 0 *
Ed
 1e-07 1 1 0
1  41 0 0 6.28318530717959
2  94 20 0 0 6.28318530717959
2  95 27 0 0 6.28318530717959
0

0101000
+48 0 -48 0 *
Wi

0101100
-90 0 +47 0 +46 0 -47 0 *
Fa
0  1e-07 20 0

0111000
+45 0 *
Ve
1e-07
5.6 50.6 0
0 0

0101101
*
Ed
 1e-07 1 1 0
1  42 0 0 45.8028870801247
2  96 23 0 0 45.8028870801247
2  97 22 0 0 45.8028870801247
0

0101000
+43 0 -82 50 *
Ve
1e-07
0 50.6 0
0 0

0101101
*
Ed
 1e-07 1 1 0
1  43 0 0 44.1971129198753
2  98 25 0 0 44.1971129198753
2  99 22 0 0 44.1971129198753
0

0101000
+41 0 -83 50 *
Ed
 1e-07 1 1 0
1  44 0 0 5.6
2  100 22 0 0 5.6
2  101 29 0 0 5.6
0

0101000
-43 0 +41 0 *
Wi

0101100
-42 45 +81 0 +40 45 -39 45 *
Fa
0  1e-07 22 45

0101000
+38 0 *
Ve
1e-07
5.6 0 0
0 0

0101101
*
Ed
 1e-07 1 1 0
1  45 0 0 45.8028870801247
2  102 23 0 0 45.8028870801247
2  103 24 0 0 45.8028870801247
0

0101000
+36 0 -80 50 *
Ed
 1e-07 1 1 0
1  46 0 0 50.6
2  104 23 0 0 50.6
2  105 29 0 0 50.6
0

0101000
-43 0 +36 0 *
Wi

0101100
-35 45 +34 45 +79 0 +42 45 *
Ve
1.00000010672379e-07
13.4647219525488 -5.51091059616309e-16 22.6937647464634
0 0

0101101
*
Ed
 1e-07 1 1 0
1  47 0 0 6.28318530717959
2  106 23 45 0 6.28318530717959
2  107 13 22 0 6.28318530717959
0

0101100
+32 0 -32 0 *
Wi

0101100
-31 0 *
Fa
0  1e-07 23 45

0101000
+33 0 +30 0 *
Ve
1e-07
0 0 0
0 0

0101101
*
Ed
 1e-07 1 1 0
1  48 0 0 44.1971129198754
2  108 25 0 0 44.1971129198754
2  109 24 0 0 44.1971129198754
0

0101000
+28 0 -78 50 *
Ed
 1e-07 1 1 0
1  49 0 0 5.6
2  110 24 0 0 5.6
2  111 29 0 0 5.6
0

0101000
-36 0 +28 0 *
Wi

0101100
-35 45 +77 0 +27 45 -26 45 *
Fa
0  1e-07 24 45

0101000
+25 0 *
Ed
 1e-07 1 1 0
1  50 0 0 50.6
2  112 25 0 0 50.6
2  113 29 0 0 50.6
0

0101000
-41 0 +28 0 *
Wi

0101100
-27 45 +23 45 +76 0 +40 45 *
Wi

0101100
-67 0 *
Fa
0  1e-07 25 45

0101000
+22 0 +21 0 *
Wi

0101100
+56 30 *
Wi

0101100
-72 0 *
Fa
0  1e-07 26 30

0101000
+19 0 +18 0 *
Wi

0101100
+46 39 *
Wi

0101100
-62 0 *
Fa
0  1e-07 27 39

0101000
+16 0 +15 0 *
Wi

0101100
+51 35 *
Ve
1.00000011387576e-07
14.2770330570467 -5.51091059616309e-16 22.4608382854479
0 0

0101101
*
Ed
 1e-07 1 1 0
1  51 0 0 6.28318530717959
2  114 13 22 0 6.28318530717959
2  115 28 35 0 6.28318530717959
0

0101100
+12 0 -12 0 *
Wi

0101100
-11 0 *
Fa
0  1e-07 28 35

0101000
+13 0 +10 0 *
Wi

0101100
-23 0 -39 0 +34 0 +26 0 *
Fa
0  1e-07 29 0

0111000
+8 0 *
Ed
 1e-07 1 1 0
1  33 0 42.8 43.6450467837533
3  78 79CN 13 0 42.8 43.6450467837533
0

0101000
+32 47 -12 47 *
Wi

0101100
-11 0 +6 22 +31 0 -6 22 *
Fa
0  1e-07 13 22

0101000
+5 0 *
Sh

0101100
-141 0 -125 0 -120 3 +112 0 +107 0 -101 0 -96 0 +88 0 +85 3 -74 0 
-69 0 -64 0 -59 0 -54 30 -49 0 -44 39 -37 0 -29 0 +24 0 +20 0 
+17 0 +14 0 +9 0 +7 45 -4 0 *
So

0100000
+3 0 *
Co

1100000
+2 0 *

+1 0 