DBRep_DrawableShape

CASCADE Topology V3, (c) Open Cascade
Locations 79
1
              1              -0               0               0 
              0 2.22044604925031e-16              -1               0 
              0               1 2.22044604925031e-16               0 
1
              1               0               0               0 
              0               1               0           29.15 
              0               0               1               0 
2  1 1 2 1 0
2  2 -1 1 -1 0
1
              1               0               0               0 
              0               1               0               0 
              0               0               1            58.3 
2  5 1 1 1 2 1 0
2  5 -1 0
2  2 -1 1 -1 5 -1 0
1
              1               0               0              -0 
              0               1               0              -0 
              0               0               1            -6.5 
1
2.22044604925031e-16               0               1               0 
              0               1               0               0 
             -1               0 2.22044604925031e-16               0 
1
              1               0               0           10.15 
              0               1               0               0 
              0               0               1               0 
1
              1               0               0               0 
              0               1               0               0 
              0               0               1            22.5 
1
              1              -0               0               0 
              0               1              -0               0 
              0               0               1               0 
1
              1               0               0            5.15 
              0               1               0               0 
              0               0               1               4 
2  9 1 10 1 11 1 12 1 13 1 14 1 0
1
              1               0               0 4.9737991503207e-14 
              0               1               0              -0 
              0               0               1               0 
1
              1               0               0               0 
              0               1               0               0 
              0               0               1               6 
1
2.22044604925031e-16               0               1               0 
              0               1               0               0 
             -1               0 2.22044604925031e-16               0 
1
              1               0               0               0 
              0               1               0               0 
              0               0               1            24.5 
2  16 1 17 1 18 1 19 1 0
2  16 -1 0
2  17 -1 16 -1 0
2  19 -1 18 -1 17 -1 16 -1 0
2  18 1 19 1 0
2  16 1 17 1 0
2  16 1 18 1 19 1 0
2  14 -1 13 -1 12 -1 11 -1 10 -1 9 -1 0
2  19 -1 18 -1 16 -1 0
1
              1               0               0              -0 
              0               1               0              -0 
              0               0               1            -1.5 
1
2.22044604925031e-16               0               1               0 
              0               1               0               0 
             -1               0 2.22044604925031e-16               0 
1
              1               0               0             4.5 
              0               1               0           37.15 
              0               0               1           36.75 
2  29 1 30 1 31 1 0
2  16 1 17 1 18 1 19 1 31 -1 30 -1 29 -1 0
1
              1               0               0              -0 
              0               1               0              -0 
              0               0               1            -1.5 
1
2.22044604925031e-16               0               1               0 
              0               1               0               0 
             -1               0 2.22044604925031e-16               0 
1
              1               0               0             4.5 
              0               1               0           37.15 
              0               0               1           12.25 
2  34 1 35 1 36 1 0
2  16 1 17 1 18 1 19 1 36 -1 35 -1 34 -1 0
2  19 -1 18 -1 0
1
              1               0               0           -2.65 
              0               1               0          -25.15 
              0               0               1           -32.5 
1
              1               0               0               0 
              0               1               0               0 
              0               0               1            32.5 
1
              1              -0               0               0 
              0               1              -0               0 
              0               0               1               0 
1
              1               0               0            5.15 
              0               1               0               0 
              0               0               1               4 
2  40 1 41 1 42 1 43 1 0
1
              1               0               0              -0 
              0               1               0              -0 
              0               0               1              -6 
1
2.22044604925031e-16               0               1               0 
              0               1               0               0 
             -1               0 2.22044604925031e-16               0 
1
              1               0               0               3 
              0               1               0          -37.15 
              0               0               1           36.75 
2  45 1 46 1 47 1 0
1
              1               0               0              -0 
              0               1               0              -0 
              0               0               1              -6 
1
2.22044604925031e-16               0               1               0 
              0               1               0               0 
             -1               0 2.22044604925031e-16               0 
1
              1               0               0               3 
              0               1               0          -37.15 
              0               0               1           12.25 
2  49 1 50 1 51 1 0
1
              1               0               0              -0 
              0               1               0              -0 
              0               0               1             -40 
1
2.22044604925031e-16               0               1               0 
              0               1               0               0 
             -1               0 2.22044604925031e-16               0 
2  53 1 54 1 12 1 13 1 14 1 0
1
              1               0               0              -0 
              0               1               0              -0 
              0               0               1              -6 
1
2.22044604925031e-16               0               1               0 
              0               1               0               0 
             -1               0 2.22044604925031e-16               0 
1
              1               0               0               3 
              0               1               0           37.15 
              0               0               1           36.75 
2  56 1 57 1 58 1 0
1
              1               0               0              -0 
              0               1               0              -0 
              0               0               1              -6 
1
2.22044604925031e-16               0               1               0 
              0               1               0               0 
             -1               0 2.22044604925031e-16               0 
1
              1               0               0               3 
              0               1               0           37.15 
              0               0               1           12.25 
2  60 1 61 1 62 1 0
1
              1               0               0              -0 
              0               1               0              -0 
              0               0               1            -1.5 
1
2.22044604925031e-16               0               1               0 
              0               1               0               0 
             -1               0 2.22044604925031e-16               0 
1
              1               0               0             4.5 
              0               1               0          -37.15 
              0               0               1           36.75 
2  64 1 65 1 66 1 0
2  16 1 17 1 18 1 19 1 66 -1 65 -1 64 -1 0
1
              1               0               0              -0 
              0               1               0              -0 
              0               0               1            -1.5 
1
2.22044604925031e-16               0               1               0 
              0               1               0               0 
             -1               0 2.22044604925031e-16               0 
1
              1               0               0             4.5 
              0               1               0          -37.15 
              0               0               1           12.25 
2  69 1 70 1 71 1 0
2  16 1 17 1 18 1 19 1 71 -1 70 -1 69 -1 0
2  43 -1 42 -1 41 -1 40 -1 0
2  47 -1 46 -1 45 -1 0
2  51 -1 50 -1 49 -1 0
2  14 -1 13 -1 12 -1 54 -1 53 -1 0
2  58 -1 57 -1 56 -1 0
2  62 -1 61 -1 60 -1 0
Curve2ds 165
1 5.9000000000000004 -24.499999999999996 0 1 
1 0 0 1 0 
1 0 0 0 1 
1 45.5 0 0 -1 
1 11.800000000000001 0 0 -1 
1 0 0 0 -1 
1 5.9000000000000004 -24.499999999999996 0 1 
1 0 -58.299999999999997 1 0 
2 26.499999999999993 -29.150000000000006 -1 2.2204460492503131e-16 2.2204460492503131e-16 1 4.5
1 0 3 1 0 
1 0 0 1 0 
1 0 -58.299999999999997 1 0 
1 -5.9000000000000004 -24.499999999999996 1 0 
8 -24.500000000149662 24.499999999850338
1 0.099999999999999645 1.496651691468287e-10 -2.2204460492503131e-16 1 
8 -24.500000000149662 24.499999999850338
1 1.496758272878651e-10 29.150000000000006 -1 2.2204460492503131e-16 
1 5.9000000000000004 24.500000000000004 -1 0 
1 0 -0 1 0 
1 0 0 1 0 
1 -1.5707963267948966 0 1 0 
2 2.4000000000000004 21.000000000000004 0 -1 1 0 3.5
1 1.5707963267948966 0 0 1 
1 3.5 0 0 -1 
1 3.5 0 0 -1 
1 -1.5707963267948966 58.299999999999997 1 0 
2 2.4000000000000004 21.000000000000004 0 -1 1 0 3.5
1 37.149999999999999 0 1 0 
1 37.149999999999999 -6 1 0 
1 24.500000000299387 -1.6130780135999793e-16 0 1 
1 0 0 0 -1 
1 74.299999999999997 0 0 -1 
1 48.999999999316188 -66.299999999999997 -2.2204460492503131e-16 1 
1 6.2831853071795862 0 0 -1 
1 0 0 0 -1 
8 -24.500000000149662 24.499999999850338
1 0.099999999999999645 1.496651691468287e-10 -2.2204460492503131e-16 1 
8 -24.500000000149662 24.499999999850338
1 1.496616164331499e-10 -29.149999999999991 -1 2.2204460492503131e-16 
1 5.9000000000000004 24.500000000000004 -1 0 
1 0 -58.299999999999997 1 0 
1 0 -58.299999999999997 1 0 
1 6.2831853071795862 -0 0 1 
1 0 -0 0 1 
1 0 0 1 0 
2 0 0 1 0 -0 1 4.5
1 37.149999999999999 0 1 0 
1 37.149999999999999 -6 1 0 
1 -24.499999999700613 -1.6130780135999793e-16 0 1 
1 5.800000000000006 -29.150000000000009 0 1 
1 0 0 1 0 
1 0 -6 1 0 
2 -16.499999999700712 37.149999999999999 1 0 -0 1 8
1 2.9938773636292666e-10 45.149999999999999 1 0 
1 24.500000000000046 15.999999999999995 1 2.2204460492503131e-16 
1 0 0 1 0 
1 0 -6 1 0 
2 16.499999998931628 37.149999999999999 1 0 -0 1 8
1 0 3 1 0 
2 0 0 1 0 -0 1 4.5
2 -12.249999999700663 37.149999999999999 1 0 -0 1 4.5
1 0 3 1 0 
2 0 0 1 0 -0 1 4.5
2 12.250000000299339 37.149999999999999 1 0 -0 1 4.4999999999999982
1 3.1415926535897931 0 0 -1 
1 74.299999999999997 0 0 -1 
1 11.800000000000006 7.9999999999999893 -1 -4.9303806576313238e-32 
1 5.800000000000006 -29.150000000000009 0 1 
1 11.800000000000006 7.9999999999999893 0 -1 
1 -1.7763568394002481e-15 7.9999999999999893 2.2204460492503131e-16 -1 
1 3.1415926535897931 0 0 -1 
1 0 0 0 -1 
1 11.800000000000006 -66.300000000000011 -1 -4.9303806576313238e-32 
8 -4.6500000000000004 0.64999999999999947
1 4.6500000000000004 -4.0000000000000107 -1 0 
8 -4.6500000000000004 0.64999999999999947
1 45 4.6500000000000004 0 1 
8 -23.149999999999988 27.150000000000009
1 4 -27.149999999999999 0 -1 
8 -23.149999999999988 27.150000000000009
1 45.000000000000007 -27.150000000000009 2.2204460492503131e-16 1 
8 -4.6500000000000004 0.64999999999999947
1 4.6500000000000004 -54.300000000000011 -1 0 
8 -4.6500000000000004 0.64999999999999947
1 45.000000000000014 4.6500000000000004 0 1 
8 -23.149999999999988 27.150000000000009
1 9.3000000000000007 -27.149999999999999 0 -1 
8 -23.149999999999988 27.150000000000009
1 45.000000000000007 -27.150000000000009 2.2204460492503131e-16 1 
1 1.5707963267948966 0 0 -1 
2 40.99999999863229 7.9999999999999982 1 2.2204460492503131e-16 -2.2204460492503131e-16 1 8
1 0 0 1 0 
1 0 -6 1 0 
2 -16.499999999700712 -37.149999999999999 1 0 -0 1 8
2 7.9999999999999654 -66.300000000000011 1 2.2204460492503131e-16 -2.2204460492503131e-16 1 8
1 2.9938773636292666e-10 -45.149999999999999 1 0 
1 24.500000000000068 -74.300000000000011 1 2.2204460492503131e-16 
2 7.9999999999999485 7.9999999999999911 1 2.2204460492503131e-16 -2.2204460492503131e-16 1 8
1 0 0 1 0 
1 0 -6 1 0 
2 16.499999998931628 -37.149999999999999 1 0 -0 1 8
2 40.999999998632305 -66.299999999999997 1 2.2204460492503131e-16 -2.2204460492503131e-16 1 8
2 12.250000000000014 -66.300000000000011 1 2.2204460492503131e-16 -2.2204460492503131e-16 1 2.25
1 0 3 1 0 
2 36.750000000000014 -66.299999999999997 1 2.2204460492503131e-16 -2.2204460492503131e-16 1 2.25
1 0 3 1 0 
2 22.500000000000007 -29.150000000000006 1 2.2204460492503131e-16 -2.2204460492503131e-16 1 2.25
1 0 34.850000000000001 1 0 
2 12.249999999999998 7.999999999999992 1 2.2204460492503131e-16 -2.2204460492503131e-16 1 2.25
1 0 3 1 0 
2 36.75 7.9999999999999973 1 2.2204460492503131e-16 -2.2204460492503131e-16 1 2.25
1 0 3 1 0 
1 4.7123889803846897 0 0 -1 
1 0 3 1 0 
2 0 0 1 0 -0 1 4.5
2 -12.249999999700663 -37.149999999999999 1 0 -0 1 4.5
1 0 3 1 0 
2 0 0 1 0 -0 1 4.5
2 12.250000000299339 -37.149999999999999 1 0 -0 1 4.4999999999999982
1 0 43.649999999999999 1 0 
2 -3.5527136788005017e-15 0 1 0 -0 1 2.25
1 1.5707963267948966 0 0 -1 
1 6.2831853071795862 -0 0 1 
1 0 -0 0 1 
1 0 0 1 0 
2 0 0 1 0 -0 1 4.5
1 6.2831853071795862 -0 0 1 
1 0 -0 0 1 
1 0 0 1 0 
2 0 0 1 0 -0 1 4.5
1 4.7123889803846897 0 0 -1 
1 0 -50.299999999999997 1 0 
1 0 5.2999999999999998 1 0 
1 0 -50.299999999999997 1 0 
1 0 0 1 0 
1 0 0 0 1 
1 0 50.299999999999997 1 0 
1 0 0 1 0 
1 0 5.2999999999999998 1 0 
1 0 0 0 -1 
1 5.2999999999999998 0 0 1 
2 22.500000000000004 -25.149999999999999 -1 0 -0 -1 2.25
1 0 42.650000000000006 1 0 
1 0 0 1 0 
1 0 0 1 0 
1 0 0 0 1 
1 0 0 1 0 
1 0 0 0 -1 
1 0 0 0 1 
2 22.5 -25.149999999999999 -1 0 -0 -1 2.25
1 0 37.350000000000001 1 0 
1 0 6 1 0 
2 0 0 1 0 -0 1 2.25
1 6.2831853071795862 -0 0 1 
1 0 -0 0 1 
1 0 6 1 0 
2 0 0 1 0 -0 1 2.25
1 6.2831853071795862 -0 0 1 
1 0 -0 0 1 
1 6.2831853071795862 -0 0 1 
1 0 -0 0 1 
1 0 6 1 0 
2 0 0 1 0 -0 1 2.25
1 6.2831853071795862 -0 0 1 
1 0 -0 0 1 
1 0 6 1 0 
2 0 0 1 0 -0 1 2.25
1 6.2831853071795862 -0 0 1 
1 0 -0 0 1 
1 6.2831853071795862 -0 0 1 
1 0 -0 0 1 
1 0 0 1 0 
2 0 0 1 0 -0 1 4.5
1 6.2831853071795862 -0 0 1 
1 0 -0 0 1 
1 0 0 1 0 
2 0 0 1 0 -0 1 4.5
Curves 72
1 11.800000000000001 0 0 0 1 0 
1 11.800000000000001 29.150000000000009 45.5 0 -1 2.2204460492503131e-16 
1 11.800000000000001 0 0 0 0 1 
2 11.800000000000001 0 26.5 1 0 2.2204460492503131e-16 2.2204460492503131e-16 0 -1 -0 1 0 4.5
1 0 0 0 1 0 0 
1 6 29.150000000000006 24.500000000149662 -2.2204460492503131e-16 2.2204460492503131e-16 1 
1 11.800000000000001 49 0 -1 0 0 
8 1.5707963267948966 3.1415926535897931
2 8.3000000000000007 29.150000000000009 45.5 0 -1 2.2204460492503131e-16 0 -2.2204460492503131e-16 -1 1 0 0 3.5
1 8.3000000000000007 29.150000000000009 49 0 -1 2.2204460492503131e-16 
8 1.5707963267948966 3.1415926535897931
2 8.3000000000000007 -29.149999999999988 45.500000000000014 0 -1 2.2204460492503131e-16 0 -2.2204460492503131e-16 -1 1 0 0 3.5
1 24.5 0 0 0 1 0 
1 24.49999999931617 37.149999999999999 0 0 0 1 
8 0 74.299999999999997
1 5.4400928205114263e-15 -37.149999999999999 6.8382988160919922e-10 0 1 0 
1 24.49999999931617 -37.149999999999999 0 0 0 1 
1 6 -29.149999999999991 24.500000000149676 -2.2204460492503131e-16 2.2204460492503131e-16 1 
1 4.5 -1.1021821192326179e-15 0 0 0 1 
2 0 0 0 0 0 1 1 0 -0 -0 1 0 4.5
1 -24.5 0 0 0 1 0 
2 -16.500000000000099 37.149999999999999 0 0 0 1 1 0 0 0 1 0 8
1 0 45.149999999999999 0 1 0 0 
2 16.499999998632241 37.149999999999999 0 0 0 1 1 0 0 0 1 0 8
2 0 0 3 0 0 1 1 0 -0 -0 1 0 4.5
2 0 0 3 0 0 1 1 0 -0 -0 1 0 4.5
1 -24.5 37.149999999999999 0 0 0 1 
8 0 74.299999999999997
1 -5.440092820663267e-15 37.149999999999999 49 0 -1 0 
1 -24.5 -37.149999999999999 0 0 0 1 
1 7.1500000000000004 25.149999999999999 49 1 -0 0 
1 7.8000000000000007 2.0000000000000107 49.000000000000007 0 -1 2.2204460492503131e-16 
1 7.1500000000000004 -25.149999999999999 49.000000000000014 1 -0 0 
1 2.5 2.0000000000000107 49.000000000000007 0 -1 2.2204460492503131e-16 
1 16.49999999863229 45.149999999999999 0 0 0 1 
2 -16.500000000000099 -37.149999999999999 0 0 0 1 1 0 0 0 1 0 8
1 0 -45.149999999999999 0 1 0 0 
2 16.499999998632241 -37.149999999999999 0 0 0 1 1 0 0 0 1 0 8
2 0 -37.149999999999999 36.75 1 0 2.2204460492503131e-16 2.2204460492503131e-16 0 -1 -0 1 0 2.25
2 0 -37.149999999999999 12.249999999999998 1 0 2.2204460492503131e-16 2.2204460492503131e-16 0 -1 -0 1 0 2.25
2 0 0 26.5 1 0 2.2204460492503131e-16 2.2204460492503131e-16 0 -1 -0 1 0 2.25
2 0 37.149999999999999 36.75 1 0 2.2204460492503131e-16 2.2204460492503131e-16 0 -1 -0 1 0 2.25
2 0 37.149999999999999 12.249999999999998 1 0 2.2204460492503131e-16 2.2204460492503131e-16 0 -1 -0 1 0 2.25
1 16.49999999863229 -45.149999999999999 0 0 0 1 
2 0 0 3 0 0 1 1 0 -0 -0 1 0 4.5
2 0 0 3 0 0 1 1 0 -0 -0 1 0 4.5
2 8.7999999999999972 0 26.500000000000004 1 0 2.2204460492503131e-16 2.2204460492503131e-16 0 -1 -0 1 0 2.25
1 -16.50000000000005 45.149999999999999 0 0 0 1 
1 4.5 -1.1021821192326179e-15 0 0 0 1 
2 0 0 0 0 0 1 1 0 -0 -0 1 0 4.5
1 4.5 -1.1021821192326179e-15 0 0 0 1 
2 0 0 0 0 0 1 1 0 -0 -0 1 0 4.5
1 -16.50000000000005 -45.149999999999999 0 0 0 1 
1 5.2999999999999998 50.299999999999997 0 0 0 1 
1 0 50.299999999999997 0 0 0 1 
1 0 50.299999999999997 0 1 0 -0 
1 5.2999999999999998 0 0 0 0 1 
1 5.2999999999999998 0 0 -0 1 0 
2 7.8000000000000043 0 26.500000000000004 1 0 2.2204460492503131e-16 2.2204460492503131e-16 0 -1 -0 1 0 2.25
1 0 0 0 0 0 1 
1 0 0 0 1 0 -0 
1 0 0 0 -0 1 0 
2 2.5 0 26.5 1 0 2.2204460492503131e-16 2.2204460492503131e-16 0 -1 -0 1 0 2.25
2 3 -37.149999999999999 36.75 1 0 2.2204460492503131e-16 2.2204460492503131e-16 0 -1 -0 1 0 2.25
1 2.25 -5.5109105961630896e-16 0 0 0 1 
2 3 -37.149999999999999 12.25 1 0 2.2204460492503131e-16 2.2204460492503131e-16 0 -1 -0 1 0 2.25
1 2.25 -5.5109105961630896e-16 0 0 0 1 
1 2.25 -5.5109105961630896e-16 0 0 0 1 
2 3 37.149999999999999 36.75 1 0 2.2204460492503131e-16 2.2204460492503131e-16 0 -1 -0 1 0 2.25
1 2.25 -5.5109105961630896e-16 0 0 0 1 
2 3 37.149999999999999 12.25 1 0 2.2204460492503131e-16 2.2204460492503131e-16 0 -1 -0 1 0 2.25
1 2.25 -5.5109105961630896e-16 0 0 0 1 
1 4.5 -1.1021821192326179e-15 0 0 0 1 
2 0 0 0 0 0 1 1 0 -0 -0 1 0 4.5
1 4.5 -1.1021821192326179e-15 0 0 0 1 
2 0 0 0 0 0 1 1 0 -0 -0 1 0 4.5
Polygon3D 0
PolygonOnTriangulations 0
Surfaces 41
1 11.800000000000001 0 0 -1 0 0 0 1 0 0 0 -1 
1 5.9000000000000004 24.499999999999996 0 0 0 1 1 0 -0 -0 1 0 
2 8.3000000000000007 29.150000000000009 45.5 0 -1 2.2204460492503131e-16 1 0 -0 0 2.2204460492503131e-16 1 3.5
1 0 0 0 0 1 0 1 0 0 0 0 -1 
2 0 0 0 0 0 1 1 0 -0 -0 1 0 4.5
1 -2.9938773636292666e-10 1.6130780135999793e-16 0 0 0 1 1 0 -0 -0 1 0 
1 11.800000000000001 49 0 0 -1 0 -1 0 0 -0 -0 -1 
1 11.800000000000001 29.150000000000009 49 0 -2.2204460492503131e-16 -1 -1 0 0 0 1 -2.2204460492503131e-16 
1 0 29.149999999999999 0 0 2.2204460492503131e-16 1 1 0 0 0 1 -2.2204460492503131e-16 
1 24.50000000000005 -37.149999999999999 0 -1 0 0 0 1 0 0 0 -1 
2 16.49999999863229 37.149999999999999 0 -0 -0 -1 1 0 0 0 1 0 8
1 0 29.150000000000009 49 1 0 0 0 -2.2204460492503131e-16 -1 0 1 -2.2204460492503131e-16 
2 16.49999999863229 -37.149999999999999 0 -0 -0 -1 1 0 0 0 1 0 8
1 0 0 0 0 0 1 1 0 -0 -0 1 0 
1 -24.49999999999995 -37.149999999999999 0 -1 0 0 0 1 0 0 0 -1 
2 -16.50000000000005 37.149999999999999 0 -0 -0 -1 1 0 0 0 1 0 8
2 0 0 0 0 0 1 1 0 -0 -0 1 0 4.5
1 0 0 3 0 0 1 1 0 -0 -0 1 0 
2 0 0 0 0 0 1 1 0 -0 -0 1 0 4.5
1 0 0 3 0 0 1 1 0 -0 -0 1 0 
2 -16.50000000000005 -37.149999999999999 0 -0 -0 -1 1 0 0 0 1 0 8
1 0 50.299999999999997 0 -0 1 0 0 0 1 1 0 -0 
1 5.2999999999999998 0 0 1 0 -0 0 0 1 0 -1 0 
1 0 0 0 -0 1 0 0 0 1 1 0 -0 
1 0 0 0 1 0 -0 0 0 1 0 -1 0 
1 -16.500000000000046 45.149999999999999 0 0 1 0 1 0 0 0 0 -1 
2 0 0 0 0 0 1 1 0 -0 -0 1 0 2.25
2 0 0 0 0 0 1 1 0 -0 -0 1 0 2.25
2 0 0 0 0 0 1 1 0 -0 -0 1 0 2.25
2 0 0 0 0 0 1 1 0 -0 -0 1 0 2.25
2 0 0 0 0 0 1 1 0 -0 -0 1 0 2.25
1 -16.500000000000046 -45.149999999999999 0 0 1 0 1 0 0 0 0 -1 
2 0 0 0 0 0 1 1 0 -0 -0 1 0 4.5
1 0 0 3 0 0 1 1 0 -0 -0 1 0 
2 0 0 0 0 0 1 1 0 -0 -0 1 0 4.5
1 0 0 3 0 0 1 1 0 -0 -0 1 0 
1 0 0 0 0 0 1 1 0 -0 -0 1 0 
1 0 0 0 0 0 1 1 0 -0 -0 1 0 
1 0 0 0 0 0 1 1 0 -0 -0 1 0 
1 0 0 0 0 0 1 1 0 -0 -0 1 0 
1 0 0 0 0 0 1 1 0 -0 -0 1 0 
Triangulations 0

TShapes 226
Ve
1e-07
11.8 29.15 45.5
0 0

0101101
*
Ve
1e-07
11.8 0 0
0 0

0101101
*
Ed
 1e-07 1 1 0
1  1 0 0 45.5
2  1 2 0 0 45.5
2  2 1 0 0 45.5
0

0101000
-226 4 +225 0 *
Ve
1e-07
11.8 -29.15 45.5
0 0

0101101
*
Ed
 1e-07 1 1 0
1  2 0 -0 58.3
2  3 3 0 -0 58.3
2  4 1 3 -0 58.3
4 G1 3 0 1 3
0

0101000
+226 0 -223 0 *
Ed
 1e-07 1 1 0
1  3 0 0 58.3
2  5 4 0 0 58.3
2  6 1 0 0 58.3
0

0101000
+225 0 -225 5 *
Ed
 1e-07 1 1 0
1  1 0 0 45.5
2  7 2 0 0 45.5
2  8 1 7 0 45.5
0

0101000
-223 8 +225 0 *
Wi

0101100
-224 3 -222 0 +221 3 +220 6 *
Ve
1.00000002090514e-07
11.8 -1.10218211923262e-15 22
0 0

0101101
*
Ed
 1e-07 1 1 0
1  4 0 0 6.28318530717959
2  9 1 3 0 6.28318530717959
2  10 5 15 0 6.28318530717959
0

0101100
+218 0 -218 0 *
Wi

0101100
+217 0 *
Fa
0  1e-07 1 3

0101000
+219 0 +216 0 *
Ve
6.00000024868996e-07
6.00000000000001 29.15 -2.48689957516035e-14
0 0

0101101
*
Ed
 1e-07 1 1 0
1  5 0 6.00000000000001 11.8
2  11 4 0 6.00000000000001 11.8
2  12 4 7 6.00000000000001 11.8
2  13 2 0 6.00000000000001 11.8
0

0101000
+214 4 -225 0 *
Ve
6.00000028642893e-07
5.99999999999999 29.15 49
0 0

0101101
*
Ed
 6e-07 1 1 0
1  6 0 -24.5000000001497 24.4999999998503
2  14 2 3 -24.5000000001497 24.4999999998503
2  15 6 20 -24.5000000001497 24.4999999998503
0

0101000
+214 0 -212 0 *
Ve
1e-07
8.3 29.15 49
0 0

0101101
*
Ed
 1e-07 1 1 0
1  7 0 3.5 5.80000000000001
2  16 2 0 3.5 5.80000000000001
2  17 7 0 3.5 5.80000000000001
2  18 8 4 3.5 5.80000000000001
0

0101000
+210 4 -212 4 *
Ed
 1e-07 1 1 0
1  8 0 1.5707963267949 3.14159265358979
2  19 3 0 1.5707963267949 3.14159265358979
2  20 2 3 1.5707963267949 3.14159265358979
0

0101000
+226 0 -210 0 *
Wi

0101100
+224 3 +213 3 -211 0 +209 3 +208 0 *
Fa
0  1e-07 2 3

0101000
+207 0 *
Ve
1e-07
8.3 -29.15 49
0 0

0101101
*
Ed
 1e-07 1 1 0
1  9 0 -0 58.3
2  21 3 0 -0 58.3
2  22 7 3 -0 58.3
4 G1 3 0 7 3
2  23 8 0 -0 58.3
0

0101000
+210 0 -205 0 *
Ed
 1e-07 1 1 0
1  10 0 1.5707963267949 3.14159265358979
2  24 3 0 1.5707963267949 3.14159265358979
2  25 2 6 1.5707963267949 3.14159265358979
0

0101000
+223 0 -205 0 *
Wi

0101100
+208 0 -222 0 +204 0 -203 0 *
Fa
0  0 3 0

0101000
+202 0 *
Ve
1.00683879619601e-07
24.4999999993161 37.15 0
0 0

0101101
*
Ed
 1e-07 1 1 0
1  11 0 29.15 37.15
2  26 10 21 29.15 37.15
2  27 10 22 29.15 37.15
2  28 6 0 29.15 37.15
0

0101000
+214 23 -200 0 *
Ve
1.00683879619601e-07
24.4999999993161 37.15 0
0 0

0101101
*
Ed
 1.00683879619601e-07 1 1 0
1  12 0 0 6
2  29 11 0 0 6
4 G1 10 0 11 0
2  30 10 0 0 6
0

0101000
+198 16 -200 25 *
Ve
1.00683879619601e-07
24.4999999993161 -37.15 0
0 0

0101101
*
Ed
 1e-07 1 1 0
1  13 0 0 74.3
2  31 12 0 0 74.3
0

0101000
+196 26 -198 26 *
Ve
1.00683879619601e-07
24.4999999993161 -37.15 0
0 0

0101101
*
Ed
 1.00683879619601e-07 1 1 0
1  14 0 0 6
2  32 13 0 0 6
4 G1 13 0 10 0
2  33 10 0 0 6
0

0101000
+196 16 -194 25 *
Ve
6.0000003260725e-07
6.00000000000001 -29.15 -1.83963955180388e-14
0 0

0101101
*
Ed
 1e-07 1 1 0
1  11 0 -37.15 -29.15
2  26 10 21 -37.15 -29.15
2  27 10 22 -37.15 -29.15
2  28 6 0 -37.15 -29.15
0

0101000
+194 0 -192 23 *
Ed
 1e-07 1 1 0
1  5 0 6.00000000000001 11.8
2  11 4 0 6.00000000000001 11.8
2  12 4 7 6.00000000000001 11.8
2  13 2 0 6.00000000000001 11.8
0

0101000
+192 8 -225 0 *
Wi

0101100
-213 3 +199 20 -197 24 -195 0 +193 24 +191 20 +190 6 -221 3 *
Fa
0  0 9 0

0111000
+189 0 *
Ve
6.00000028642893e-07
5.99999999999999 -29.15 49
0 0

0101101
*
Ed
 6e-07 1 1 0
1  15 0 -24.5000000001497 24.4999999998503
2  34 2 6 -24.5000000001497 24.4999999998503
2  35 6 20 -24.5000000001497 24.4999999998503
0

0101000
+192 0 -187 0 *
Ed
 1e-07 1 1 0
1  7 0 3.5 5.80000000000001
2  36 2 0 3.5 5.80000000000001
2  37 7 7 3.5 5.80000000000001
2  38 8 8 3.5 5.80000000000001
0

0101000
+205 8 -187 8 *
Wi

0101100
+220 6 +190 6 -186 0 +185 6 +203 0 *
Fa
0  1e-07 2 6

0101000
+184 0 *
Ve
1e-07
4.5 -1.10218211923262e-15 0
0 0

0101101
*
Ed
 1e-07 1 1 0
1  16 0 0 3
3  39 40CN 5 0 0 3
0

0101000
+182 0 -218 27 *
Ed
 1e-07 1 1 0
1  17 0 0 6.28318530717959
2  41 5 0 0 6.28318530717959
2  42 14 0 0 6.28318530717959
0

0101000
+182 0 -182 0 *
Wi

0101100
-217 0 +181 15 +180 15 -181 15 *
Fa
0  1e-07 5 15

0101000
+179 0 *
Ve
1.00000049737991e-07
-24.5 37.15 0
0 0

0101101
*
Ed
 1e-07 1 1 0
1  18 0 29.15 37.15
2  43 15 21 29.15 37.15
2  44 15 22 29.15 37.15
2  45 6 0 29.15 37.15
2  46 8 23 29.15 37.15
0

0101000
+212 23 -177 0 *
Ve
1e-07
-16.5000000000001 45.15 0
0 0

0101101
*
Ed
 1e-07 1 1 0
1  19 0 1.5707963267949 3.14159265358979
2  47 16 21 1.5707963267949 3.14159265358979
2  48 16 22 1.5707963267949 3.14159265358979
2  49 6 0 1.5707963267949 3.14159265358979
0

0101000
+175 0 -177 0 *
Ve
1e-07
16.4999999986322 45.15 0
0 0

0101101
*
Ed
 1e-07 1 1 0
1  20 0 -16.5000000000001 16.4999999986322
2  50 6 0 -16.5000000000001 16.4999999986322
2  51 12 28 -16.5000000000001 16.4999999986322
0

0101000
+175 0 -173 0 *
Ed
 1e-07 1 1 0
1  21 0 0 1.5707963267949
2  52 11 21 0 1.5707963267949
2  53 11 22 0 1.5707963267949
2  54 6 0 0 1.5707963267949
0

0101000
+200 0 -173 0 *
Wi

0101100
-176 20 -211 0 +174 20 +199 20 -172 20 +171 20 *
Ve
1.00000002664535e-07
4.5 -1.10218211923262e-15 3
0 0

0101101
*
Ed
 1.00000002664535e-07 1 1 0
1  22 0 0 6.28318530717959
2  55 17 0 0 6.28318530717959
2  56 18 0 0 6.28318530717959
2  57 6 33 0 6.28318530717959
0

0101000
+169 0 -169 0 *
Wi

0101100
-168 32 *
Ve
1.00000003552714e-07
4.5 -1.10218211923262e-15 3
0 0

0101101
*
Ed
 1.00000003552714e-07 1 1 0
1  23 0 0 6.28318530717959
2  58 19 0 0 6.28318530717959
2  59 20 0 0 6.28318530717959
2  60 6 38 0 6.28318530717959
0

0101000
+166 0 -166 0 *
Wi

0101100
-165 37 *
Fa
0  1e-07 6 20

0101000
+170 0 +167 0 +164 0 *
Ve
1.00000049737991e-07
-24.5 37.15 0
0 0

0101101
*
Ed
 1.00000049737991e-07 1 1 0
1  24 0 0 6
2  61 16 0 0 6
4 G1 15 0 16 0
2  62 15 0 0 6
2  63 8 39 0 6
0

0101000
+162 16 -177 25 *
Ve
1.00000049745921e-07
-24.5 -37.15 0
0 0

0101101
*
Ed
 1e-07 1 1 0
1  18 0 -37.15 -29.15
2  43 15 21 -37.15 -29.15
2  44 15 22 -37.15 -29.15
2  45 6 0 -37.15 -29.15
2  64 8 23 -37.15 -29.15
0

0101000
+160 0 -187 23 *
Ve
1.00000049745921e-07
-24.5 -37.15 0
0 0

0101101
*
Ed
 1e-07 1 1 0
1  25 0 0 74.3
2  65 8 0 0 74.3
2  66 12 0 0 74.3
0

0101000
+162 26 -158 26 *
Ed
 1.00000049745921e-07 1 1 0
1  26 0 0 6
2  67 21 0 0 6
4 G1 15 0 21 0
2  68 15 0 0 6
2  69 8 39 0 6
0

0101000
+158 16 -160 25 *
Wi

0101100
-209 3 +204 0 -176 20 +185 6 +161 24 -159 20 -157 0 -156 24 *
Ve
1.50000000444089e-07
2.5 25.15 49
0 0

0101101
*
Ve
1.50000000888178e-07
7.8 25.15 49
0 0

0101101
*
Ed
 1.5e-07 1 1 0
1  27 0 -4.65 0.649999999999999
2  70 8 0 -4.65 0.649999999999999
2  71 22 44 -4.65 0.649999999999999
0

0101000
+154 0 -153 0 *
Ve
1.50000000888178e-07
7.8 -25.15 49
0 0

0101101
*
Ed
 1.5e-07 1 1 0
1  28 0 -23.15 27.15
2  72 8 0 -23.15 27.15
2  73 23 44 -23.15 27.15
0

0101000
+153 0 -151 0 *
Ve
1.50000000444089e-07
2.5 -25.15 49
0 0

0101101
*
Ed
 1.5e-07 1 1 0
1  29 0 -4.65 0.649999999999999
2  74 8 0 -4.65 0.649999999999999
2  75 24 44 -4.65 0.649999999999999
0

0101000
+149 0 -151 0 *
Ed
 1.5e-07 1 1 0
1  30 0 -23.15 27.15
2  76 8 0 -23.15 27.15
2  77 25 44 -23.15 27.15
0

0101000
+154 0 -149 0 *
Wi

0101100
-152 0 -150 0 +148 0 +147 0 *
Fa
0  1e-07 8 0

0101000
+155 0 +146 0 *
Ed
 1e-07 1 1 0
1  31 0 0 6
2  78 11 0 0 6
4 G1 11 0 26 0
0

0101000
+173 16 -173 25 *
Ed
 1e-07 1 1 0
1  21 0 0 1.5707963267949
2  52 11 21 0 1.5707963267949
2  53 11 22 0 1.5707963267949
2  54 6 0 0 1.5707963267949
2  79 12 28 0 1.5707963267949
0

0101000
+198 0 -173 0 *
Wi

0101100
+197 0 -144 0 -143 16 +171 25 *
Fa
0  1e-07 11 0

0101000
+142 0 *
Ve
1e-07
-16.5000000000001 -45.15 0
0 0

0101101
*
Ed
 1e-07 1 1 0
1  32 0 3.14159265358979 4.71238898038469
2  80 21 21 3.14159265358979 4.71238898038469
2  81 21 22 3.14159265358979 4.71238898038469
2  82 6 0 3.14159265358979 4.71238898038469
2  83 12 28 3.14159265358979 4.71238898038469
0

0101000
+158 0 -140 0 *
Ve
1.00000000888178e-07
16.4999999986322 -45.15 0
0 0

0101101
*
Ed
 1e-07 1 1 0
1  33 0 -16.5000000000001 16.4999999986322
2  84 6 0 -16.5000000000001 16.4999999986322
2  85 12 28 -16.5000000000001 16.4999999986322
0

0101000
+140 0 -138 0 *
Ed
 1e-07 1 1 0
1  19 0 1.5707963267949 3.14159265358979
2  47 16 21 1.5707963267949 3.14159265358979
2  48 16 22 1.5707963267949 3.14159265358979
2  49 6 0 1.5707963267949 3.14159265358979
2  86 12 28 1.5707963267949 3.14159265358979
0

0101000
+175 0 -162 0 *
Ed
 1e-07 1 1 0
1  34 0 4.71238898038469 6.28318530717959
2  87 13 21 4.71238898038469 6.28318530717959
2  88 13 22 4.71238898038469 6.28318530717959
2  89 6 0 4.71238898038469 6.28318530717959
2  90 12 28 4.71238898038469 6.28318530717959
0

0101000
+138 0 -196 0 *
Wi

0101100
+139 26 +157 0 +137 26 +136 26 +135 26 -172 26 +195 0 +143 26 *
Ve
1.000000004996e-07
0 -37.15 34.5
0 0

0101101
*
Ed
 1e-07 1 1 0
1  35 0 0 6.28318530717959
2  91 12 0 0 6.28318530717959
2  92 27 48 0 6.28318530717959
0

0101100
+133 0 -133 0 *
Wi

0101100
-132 0 *
Ve
1.000000004996e-07
0 -37.15 10
0 0

0101101
*
Ed
 1e-07 1 1 0
1  36 0 0 6.28318530717959
2  93 12 0 0 6.28318530717959
2  94 28 52 0 6.28318530717959
0

0101100
+130 0 -130 0 *
Wi

0101100
-129 0 *
Ve
1.00000000743843e-07
0 -5.51091059616309e-16 24.25
0 0

0101101
*
Ed
 1e-07 1 1 0
1  37 0 0 6.28318530717959
2  95 12 0 0 6.28318530717959
2  96 29 55 0 6.28318530717959
0

0101100
+127 0 -127 0 *
Wi

0101100
-126 0 *
Ve
1.000000004996e-07
0 37.15 34.5
0 0

0101101
*
Ed
 1e-07 1 1 0
1  38 0 0 6.28318530717959
2  97 12 0 0 6.28318530717959
2  98 30 59 0 6.28318530717959
0

0101100
+124 0 -124 0 *
Wi

0101100
-123 0 *
Ve
1.000000004996e-07
0 37.15 10
0 0

0101101
*
Ed
 1e-07 1 1 0
1  39 0 0 6.28318530717959
2  99 12 0 0 6.28318530717959
2  100 31 63 0 6.28318530717959
0

0101100
+121 0 -121 0 *
Wi

0101100
-120 0 *
Fa
0  1e-07 12 0

0101000
+134 0 +131 0 +128 0 +125 0 +122 0 +119 0 *
Ed
 1.00000000888178e-07 1 1 0
1  40 0 0 6
2  101 13 0 0 6
4 G1 32 0 13 0
0

0101000
+138 16 -138 25 *
Ed
 1e-07 1 1 0
1  34 0 4.71238898038469 6.28318530717959
2  87 13 21 4.71238898038469 6.28318530717959
2  88 13 22 4.71238898038469 6.28318530717959
2  89 6 0 4.71238898038469 6.28318530717959
0

0101000
+138 0 -194 0 *
Wi

0101100
+117 0 -193 0 -135 16 +116 25 *
Fa
0  1e-07 13 0

0101000
+115 0 *
Ed
 1e-07 1 1 0
1  32 0 3.14159265358979 4.71238898038469
2  80 21 21 3.14159265358979 4.71238898038469
2  81 21 22 3.14159265358979 4.71238898038469
2  82 6 0 3.14159265358979 4.71238898038469
0

0101000
+160 0 -140 0 *
Wi

0101100
-159 20 +113 20 +186 0 +137 20 +191 20 +116 20 *
Ve
1.00000002664535e-07
4.5 -1.10218211923262e-15 3
0 0

0101101
*
Ed
 1.00000002664535e-07 1 1 0
1  41 0 0 6.28318530717959
2  102 33 0 0 6.28318530717959
2  103 34 0 0 6.28318530717959
2  104 6 68 0 6.28318530717959
0

0101000
+111 0 -111 0 *
Wi

0101100
-110 67 *
Ve
1.00000003552714e-07
4.5 -1.10218211923262e-15 3
0 0

0101101
*
Ed
 1.00000003552714e-07 1 1 0
1  42 0 0 6.28318530717959
2  105 35 0 0 6.28318530717959
2  106 36 0 0 6.28318530717959
2  107 6 73 0 6.28318530717959
0

0101000
+108 0 -108 0 *
Wi

0101100
-107 72 *
Fa
0  1e-07 6 20

0101000
+112 0 +109 0 +106 0 *
Wi

0101100
+180 15 *
Ve
1.00000007126766e-07
8.8 -5.51091059616309e-16 24.25
0 0

0101101
*
Ed
 1e-07 1 1 0
1  43 0 0 6.28318530717959
2  108 29 55 0 6.28318530717959
2  109 14 15 0 6.28318530717959
0

0101100
+103 0 -103 0 *
Wi

0101100
-102 0 *
Fa
0  1e-07 14 15

0101000
+104 0 +101 0 *
Ed
 1e-07 1 1 0
1  44 0 0 6
2  110 16 0 0 6
4 G1 26 0 16 0
0

0101000
+175 16 -175 25 *
Wi

0101100
+99 0 -161 0 -136 16 +174 25 *
Fa
0  1e-07 16 0

0101000
+98 0 *
Wi

0101100
+99 0 -144 0 -172 16 +172 25 *
Fa
0  1e-07 26 0

0101000
+96 0 *
Ve
1e-07
4.5 -1.10218211923262e-15 0
0 0

0101101
*
Ed
 1e-07 1 1 0
1  45 0 0 3
3  111 112CN 17 0 0 3
0

0101000
-169 0 +94 0 *
Ed
 1e-07 1 1 0
1  46 0 0 6.28318530717959
2  113 17 0 0 6.28318530717959
2  114 37 0 0 6.28318530717959
0

0101000
+94 0 -94 0 *
Wi

0101100
-168 0 +93 0 +92 0 -93 0 *
Fa
0  1e-07 17 0

0111000
+91 0 *
Ve
1e-07
4.5 -1.10218211923262e-15 0
0 0

0101101
*
Ed
 1e-07 1 1 0
1  47 0 0 3
3  115 116CN 19 0 0 3
0

0101000
-166 0 +89 0 *
Ed
 1e-07 1 1 0
1  48 0 0 6.28318530717959
2  117 19 0 0 6.28318530717959
2  118 38 0 0 6.28318530717959
0

0101000
+89 0 -89 0 *
Wi

0101100
-165 0 +88 0 +87 0 -88 0 *
Fa
0  1e-07 19 0

0111000
+86 0 *
Ed
 1e-07 1 1 0
1  49 0 0 6
2  119 21 0 0 6
4 G1 21 0 32 0
0

0101000
+140 16 -140 25 *
Wi

0101100
+156 0 -84 0 -139 16 +113 25 *
Fa
0  1e-07 21 0

0101000
+83 0 *
Ve
1e-07
5.3 50.3 0
0 0

0101101
*
Ed
 1e-07 1 1 0
1  50 0 0 45
2  120 23 0 0 45
2  121 22 0 0 45
0

0101000
+81 0 -153 74 *
Ve
1e-07
0 50.3 0
0 0

0101101
*
Ed
 1e-07 1 1 0
1  51 0 0 45
2  122 25 0 0 45
2  123 22 0 0 45
0

0101000
+79 0 -154 74 *
Ed
 1e-07 1 1 0
1  52 0 0 5.3
2  124 22 0 0 5.3
2  125 39 0 0 5.3
0

0101000
-81 0 +79 0 *
Wi

0101100
-80 44 +152 0 +78 44 -77 44 *
Fa
0  1e-07 22 44

0101000
+76 0 *
Ve
1e-07
5.3 0 0
0 0

0101101
*
Ed
 1e-07 1 1 0
1  53 0 0 45
2  126 23 0 0 45
2  127 24 0 0 45
0

0101000
+74 0 -151 74 *
Ed
 1e-07 1 1 0
1  54 0 0 50.3
2  128 23 0 0 50.3
2  129 39 0 0 50.3
0

0101000
-81 0 +74 0 *
Wi

0101100
-73 44 +72 44 +150 0 +80 44 *
Ve
1.00000001045257e-07
7.8 -5.51091059616309e-16 24.25
0 0

0101101
*
Ed
 1e-07 1 1 0
1  55 0 0 6.28318530717959
2  130 23 44 0 6.28318530717959
2  131 29 55 0 6.28318530717959
0

0101100
+70 0 -70 0 *
Wi

0101100
-69 0 *
Fa
0  1e-07 23 44

0101000
+71 0 +68 0 *
Ve
1e-07
0 0 0
0 0

0101101
*
Ed
 1e-07 1 1 0
1  56 0 0 45
2  132 25 0 0 45
2  133 24 0 0 45
0

0101000
+66 0 -149 74 *
Ed
 1e-07 1 1 0
1  57 0 0 5.3
2  134 24 0 0 5.3
2  135 39 0 0 5.3
0

0101000
-74 0 +66 0 *
Wi

0101100
-73 44 +148 0 +65 44 -64 44 *
Fa
0  1e-07 24 44

0101000
+63 0 *
Ed
 1e-07 1 1 0
1  58 0 0 50.3
2  136 25 0 0 50.3
2  137 39 0 0 50.3
0

0101000
-79 0 +66 0 *
Wi

0101100
-65 44 +61 44 +147 0 +78 44 *
Ve
1.00000000707755e-07
2.5 -5.51091059616309e-16 24.25
0 0

0101101
*
Ed
 1e-07 1 1 0
1  59 0 0 6.28318530717959
2  138 25 44 0 6.28318530717959
2  139 29 55 0 6.28318530717959
0

0101100
+59 0 -59 0 *
Wi

0101100
-58 0 *
Fa
0  1e-07 25 44

0101000
+60 0 +57 0 *
Wi

0101100
+84 0 -117 0 -137 16 +137 25 *
Fa
0  1e-07 32 0

0101000
+55 0 *
Ve
1.00000000444089e-07
3 -37.15 34.5
0 0

0101101
*
Ed
 1e-07 1 1 0
1  60 0 0 6.28318530717959
2  140 27 48 0 6.28318530717959
2  141 40 67 0 6.28318530717959
0

0101100
+53 0 -53 0 *
Ed
 1e-07 1 1 0
1  61 0 3 6
3  142 143CN 27 0 3 6
0

0101000
+133 75 -53 75 *
Wi

0101100
-52 0 +51 48 +132 0 -51 48 *
Fa
0  1e-07 27 48

0101000
+50 0 *
Ve
1.00000000444089e-07
3 -37.15 10
0 0

0101101
*
Ed
 1e-07 1 1 0
1  62 0 0 6.28318530717959
2  144 28 52 0 6.28318530717959
2  145 41 72 0 6.28318530717959
0

0101100
+48 0 -48 0 *
Ed
 1e-07 1 1 0
1  63 0 3 6
3  146 147CN 28 0 3 6
0

0101000
+130 76 -48 76 *
Wi

0101100
-47 0 +46 52 +129 0 -46 52 *
Fa
0  1e-07 28 52

0101000
+45 0 *
Ed
 1e-07 1 1 0
1  64 0 34.85 37.35
3  148 149CN 29 0 34.85 37.35
0

0101000
+127 77 -59 77 *
Wi

0101100
-58 0 +43 55 +126 0 -43 55 *
Fa
0  1e-07 29 55

0101000
+42 0 *
Ve
1.00000000444089e-07
3 37.15 34.5
0 0

0101101
*
Ed
 1e-07 1 1 0
1  65 0 0 6.28318530717959
2  150 30 59 0 6.28318530717959
2  151 37 32 0 6.28318530717959
0

0101100
+40 0 -40 0 *
Ed
 1e-07 1 1 0
1  66 0 3 6
3  152 153CN 30 0 3 6
0

0101000
+124 78 -40 78 *
Wi

0101100
-39 0 +38 59 +123 0 -38 59 *
Fa
0  1e-07 30 59

0101000
+37 0 *
Ve
1.00000000444089e-07
3 37.15 10
0 0

0101101
*
Ed
 1e-07 1 1 0
1  67 0 0 6.28318530717959
2  154 31 63 0 6.28318530717959
2  155 38 37 0 6.28318530717959
0

0101100
+35 0 -35 0 *
Ed
 1e-07 1 1 0
1  68 0 3 6
3  156 157CN 31 0 3 6
0

0101000
+121 79 -35 79 *
Wi

0101100
-34 0 +33 63 +120 0 -33 63 *
Fa
0  1e-07 31 63

0101000
+32 0 *
Ve
1e-07
4.5 -1.10218211923262e-15 0
0 0

0101101
*
Ed
 1e-07 1 1 0
1  69 0 0 3
3  158 159CN 33 0 0 3
0

0101000
-111 0 +30 0 *
Ed
 1e-07 1 1 0
1  70 0 0 6.28318530717959
2  160 33 0 0 6.28318530717959
2  161 40 0 0 6.28318530717959
0

0101000
+30 0 -30 0 *
Wi

0101100
-110 0 +29 0 +28 0 -29 0 *
Fa
0  1e-07 33 0

0111000
+27 0 *
Ve
1e-07
4.5 -1.10218211923262e-15 0
0 0

0101101
*
Ed
 1e-07 1 1 0
1  71 0 0 3
3  162 163CN 35 0 0 3
0

0101000
-108 0 +25 0 *
Ed
 1e-07 1 1 0
1  72 0 0 6.28318530717959
2  164 35 0 0 6.28318530717959
2  165 41 0 0 6.28318530717959
0

0101000
+25 0 -25 0 *
Wi

0101100
-107 0 +24 0 +23 0 -24 0 *
Fa
0  1e-07 35 0

0111000
+22 0 *
Ed
 1e-07 1 1 0
1  64 0 42.65 43.65
3  148 149CN 29 0 42.65 43.65
0

0101000
+70 77 -103 77 *
Wi

0101100
-102 0 +20 55 +69 0 -20 55 *
Fa
0  1e-07 29 55

0101000
+19 0 *
Wi

0101100
+92 32 *
Wi

0101100
-39 0 *
Fa
0  1e-07 37 32

0101000
+17 0 +16 0 *
Wi

0101100
+87 37 *
Wi

0101100
-34 0 *
Fa
0  1e-07 38 37

0101000
+14 0 +13 0 *
Wi

0101100
-61 0 -77 0 +72 0 +64 0 *
Fa
0  1e-07 39 0

0111000
+11 0 *
Wi

0101100
+28 67 *
Wi

0101100
-52 0 *
Fa
0  1e-07 40 67

0101000
+9 0 +8 0 *
Wi

0101100
+23 72 *
Wi

0101100
-47 0 *
Fa
0  1e-07 41 72

0101000
+6 0 +5 0 *
Sh

0101100
-215 0 -206 0 +201 0 -188 0 +183 0 -178 0 +163 0 -145 0 -141 24 -118 0 
-114 24 +105 0 +100 0 -97 24 +95 24 -90 32 -85 37 -82 24 -75 0 -67 0 
+62 0 +56 0 -54 24 -49 0 -44 0 -41 0 -36 0 -31 0 -26 67 -21 72 
-18 0 +15 0 +12 0 +10 44 +7 0 +4 0 *
So

0100000
+3 0 *
Co

1100000
+2 0 *

+1 0 