DBRep_DrawableShape

CASCADE Topology V3, (c) Open Cascade
Locations 61
1
2.22044604925031e-16               0               1               0 
              0               1               0               0 
             -1               0 2.22044604925031e-16               0 
1
              1               0               0               0 
              0               1               0               0 
              0               0               1            24.5 
1
              1               0               0             6.8 
              0               1               0               0 
              0               0               1               0 
2  1 1 2 1 3 1 0
1
              1               0               0 4.9737991503207e-14 
              0               1               0              -0 
              0               0               1               0 
1
              1               0               0               0 
              0               1               0               0 
              0               0               1               6 
2  5 1 6 1 0
2  5 -1 0
2  6 -1 5 -1 0
2  5 1 1 1 2 1 3 1 0
1
              1               0               0              -0 
              0               1               0              -0 
              0               0               1             -30 
1
2.22044604925031e-16               0               1               0 
              0               1               0               0 
             -1               0 2.22044604925031e-16               0 
1
              1               0               0               0 
              0               1               0          -37.15 
              0               0               1           36.75 
2  11 1 12 1 13 1 0
1
              1               0               0              -0 
              0               1               0              -0 
              0               0               1             -30 
1
2.22044604925031e-16               0               1               0 
              0               1               0               0 
             -1               0 2.22044604925031e-16               0 
1
              1               0               0               0 
              0               1               0          -37.15 
              0               0               1           12.25 
2  15 1 16 1 17 1 0
1
              1               0               0              -0 
              0               1               0              -0 
              0               0               1             -30 
1
2.22044604925031e-16               0               1               0 
              0               1               0               0 
             -1               0 2.22044604925031e-16               0 
1
              1               0               0               0 
              0               1               0               0 
              0               0               1            26.5 
2  19 1 20 1 21 1 0
1
              1               0               0              -0 
              0               1               0              -0 
              0               0               1             -30 
1
2.22044604925031e-16               0               1               0 
              0               1               0               0 
             -1               0 2.22044604925031e-16               0 
1
              1               0               0               0 
              0               1               0           37.15 
              0               0               1           36.75 
2  23 1 24 1 25 1 0
1
              1               0               0              -0 
              0               1               0              -0 
              0               0               1             -30 
1
2.22044604925031e-16               0               1               0 
              0               1               0               0 
             -1               0 2.22044604925031e-16               0 
1
              1               0               0               0 
              0               1               0           37.15 
              0               0               1           12.25 
2  27 1 28 1 29 1 0
2  5 1 6 1 1 1 2 1 3 1 0
1
              1               0               0              -0 
              0               1               0              -0 
              0               0               1              -2 
1
2.22044604925031e-16               0               1               0 
              0               1               0               0 
             -1               0 2.22044604925031e-16               0 
1
              1               0               0            10.8 
              0               1               0          -37.15 
              0               0               1           36.75 
2  32 1 33 1 34 1 0
2  5 1 6 1 1 1 2 1 3 1 34 -1 33 -1 32 -1 0
1
              1               0               0              -0 
              0               1               0              -0 
              0               0               1              -2 
1
2.22044604925031e-16               0               1               0 
              0               1               0               0 
             -1               0 2.22044604925031e-16               0 
1
              1               0               0            10.8 
              0               1               0          -37.15 
              0               0               1           12.25 
2  37 1 38 1 39 1 0
2  5 1 6 1 1 1 2 1 3 1 39 -1 38 -1 37 -1 0
1
              1               0               0              -0 
              0               1               0              -0 
              0               0               1              -2 
1
2.22044604925031e-16               0               1               0 
              0               1               0               0 
             -1               0 2.22044604925031e-16               0 
1
              1               0               0            10.8 
              0               1               0               0 
              0               0               1            26.5 
2  42 1 43 1 44 1 0
2  5 1 6 1 1 1 2 1 3 1 44 -1 43 -1 42 -1 0
1
              1               0               0              -0 
              0               1               0              -0 
              0               0               1              -2 
1
2.22044604925031e-16               0               1               0 
              0               1               0               0 
             -1               0 2.22044604925031e-16               0 
1
              1               0               0            10.8 
              0               1               0           37.15 
              0               0               1           36.75 
2  47 1 48 1 49 1 0
2  5 1 6 1 1 1 2 1 3 1 49 -1 48 -1 47 -1 0
1
              1               0               0              -0 
              0               1               0              -0 
              0               0               1              -2 
1
2.22044604925031e-16               0               1               0 
              0               1               0               0 
             -1               0 2.22044604925031e-16               0 
1
              1               0               0            10.8 
              0               1               0           37.15 
              0               0               1           12.25 
2  52 1 53 1 54 1 0
2  5 1 6 1 1 1 2 1 3 1 54 -1 53 -1 52 -1 0
2  13 -1 12 -1 11 -1 0
2  17 -1 16 -1 15 -1 0
2  21 -1 20 -1 19 -1 0
2  25 -1 24 -1 23 -1 0
2  29 -1 28 -1 27 -1 0
Curve2ds 89
1 3.1415926535897931 0 0 -1 
1 3.1415926535897931 0 0 -1 
1 -24.499999999700613 -1.6130780135999793e-16 0 1 
1 4.7123889803846897 0 0 -1 
1 0 0 1 0 
1 0 -6 1 0 
2 -16.499999999700712 -37.149999999999999 1 0 -0 1 8
1 1.5707963267948966 0 0 -1 
1 0 0 1 0 
1 0 -6 1 0 
2 -16.499999999700712 37.149999999999999 1 0 -0 1 8
1 2.9938773636292666e-10 -45.149999999999999 1 0 
1 2.9938773636292666e-10 45.149999999999999 1 0 
1 0 0 1 0 
1 0 -6 1 0 
2 16.499999998931628 -37.149999999999999 1 0 -0 1 8
1 0 0 1 0 
1 0 -6 1 0 
2 16.499999998931628 37.149999999999999 1 0 -0 1 8
1 24.500000000299387 -1.6130780135999793e-16 0 1 
2 -12.249999999700663 -37.149999999999999 1 0 -0 1 2.25
1 0 36.799999999999997 1 0 
2 12.250000000299336 -37.149999999999999 1 0 -0 1 2.25
1 0 36.800000000000004 1 0 
2 -1.9999999997006626 -1.6130780135999793e-16 1 0 -0 1 2.25
1 0 36.799999999999997 1 0 
2 -12.249999999700663 37.149999999999999 1 0 -0 1 2.25
1 0 36.799999999999997 1 0 
2 12.250000000299336 37.149999999999999 1 0 -0 1 2.25
1 0 36.800000000000004 1 0 
1 0 4 1 0 
2 0 0 1 0 -0 1 4.5
2 -12.249999999700663 -37.149999999999999 1 0 -0 1 4.5
1 0 4 1 0 
2 0 0 1 0 -0 1 4.5
2 12.250000000299339 -37.149999999999999 1 0 -0 1 4.4999999999999982
1 0 4 1 0 
2 0 0 1 0 -0 1 4.5
2 -1.9999999997006586 -1.6130780135999793e-16 1 0 -0 1 4.5
1 0 4 1 0 
2 0 0 1 0 -0 1 4.5
2 -12.249999999700663 37.149999999999999 1 0 -0 1 4.5
1 0 4 1 0 
2 0 0 1 0 -0 1 4.5
2 12.250000000299339 37.149999999999999 1 0 -0 1 4.4999999999999982
1 4.7123889803846897 0 0 -1 
1 1.5707963267948966 0 0 -1 
1 6.2831853071795862 0 0 -1 
1 0 0 0 -1 
1 0 38.800000000000004 1 0 
2 7.8886090522101181e-31 0 1 0 -0 1 2.25
1 6.2831853071795862 -0 0 1 
1 0 -0 0 1 
1 0 38.799999999999997 1 0 
2 -1.7763568394002513e-15 0 1 0 -0 1 2.25
1 6.2831853071795862 -0 0 1 
1 0 -0 0 1 
1 0 38.799999999999997 1 0 
2 -7.8886090522101181e-31 0 1 0 -0 1 2.25
1 6.2831853071795862 -0 0 1 
1 0 -0 0 1 
1 0 38.800000000000004 1 0 
2 7.8886090522101181e-31 0 1 0 -0 1 2.25
1 6.2831853071795862 -0 0 1 
1 0 -0 0 1 
1 0 38.799999999999997 1 0 
2 -1.7763568394002513e-15 0 1 0 -0 1 2.25
1 6.2831853071795862 -0 0 1 
1 0 -0 0 1 
1 6.2831853071795862 -0 0 1 
1 0 -0 0 1 
1 0 0 1 0 
2 0 0 1 0 -0 1 4.5
1 6.2831853071795862 -0 0 1 
1 0 -0 0 1 
1 0 0 1 0 
2 0 0 1 0 -0 1 4.5
1 6.2831853071795862 -0 0 1 
1 0 -0 0 1 
1 0 0 1 0 
2 0 0 1 0 -0 1 4.5
1 6.2831853071795862 -0 0 1 
1 0 -0 0 1 
1 0 0 1 0 
2 0 0 1 0 -0 1 4.5
1 6.2831853071795862 -0 0 1 
1 0 -0 0 1 
1 0 0 1 0 
2 0 0 1 0 -0 1 4.5
Curves 46
1 -24.5 -37.149999999999999 0 0 0 1 
1 -24.5 37.149999999999999 0 0 0 1 
1 -24.5 0 0 0 1 0 
1 -16.50000000000005 -45.149999999999999 0 0 0 1 
2 -16.500000000000099 -37.149999999999999 0 0 0 1 1 0 0 0 1 0 8
1 -16.50000000000005 45.149999999999999 0 0 0 1 
2 -16.500000000000099 37.149999999999999 0 0 0 1 1 0 0 0 1 0 8
1 0 -45.149999999999999 0 1 0 0 
1 0 45.149999999999999 0 1 0 0 
2 16.499999998632241 -37.149999999999999 0 0 0 1 1 0 0 0 1 0 8
2 16.499999998632241 37.149999999999999 0 0 0 1 1 0 0 0 1 0 8
1 24.5 0 0 0 1 0 
2 6.7999999999999972 -37.149999999999999 36.75 1 0 2.2204460492503131e-16 2.2204460492503131e-16 0 -1 -0 1 0 2.25
2 6.8000000000000043 -37.149999999999999 12.250000000000002 1 0 2.2204460492503131e-16 2.2204460492503131e-16 0 -1 -0 1 0 2.25
2 6.7999999999999972 0 26.5 1 0 2.2204460492503131e-16 2.2204460492503131e-16 0 -1 -0 1 0 2.25
2 6.7999999999999972 37.149999999999999 36.75 1 0 2.2204460492503131e-16 2.2204460492503131e-16 0 -1 -0 1 0 2.25
2 6.8000000000000043 37.149999999999999 12.250000000000002 1 0 2.2204460492503131e-16 2.2204460492503131e-16 0 -1 -0 1 0 2.25
2 0 0 4 0 0 1 1 0 -0 -0 1 0 4.5
2 0 0 4 0 0 1 1 0 -0 -0 1 0 4.5
2 0 0 4 0 0 1 1 0 -0 -0 1 0 4.5
2 0 0 4 0 0 1 1 0 -0 -0 1 0 4.5
2 0 0 4 0 0 1 1 0 -0 -0 1 0 4.5
1 16.49999999863229 -45.149999999999999 0 0 0 1 
1 16.49999999863229 45.149999999999999 0 0 0 1 
1 24.49999999931617 -37.149999999999999 0 0 0 1 
1 24.49999999931617 37.149999999999999 0 0 0 1 
2 8.8000000000000043 -37.149999999999999 36.75 1 0 2.2204460492503131e-16 2.2204460492503131e-16 0 -1 -0 1 0 2.25
1 2.25 -5.5109105961630896e-16 0 0 0 1 
2 8.7999999999999972 -37.149999999999999 12.250000000000002 1 0 2.2204460492503131e-16 2.2204460492503131e-16 0 -1 -0 1 0 2.25
1 2.25 -5.5109105961630896e-16 0 0 0 1 
2 8.7999999999999972 0 26.5 1 0 2.2204460492503131e-16 2.2204460492503131e-16 0 -1 -0 1 0 2.25
1 2.25 -5.5109105961630896e-16 0 0 0 1 
2 8.8000000000000043 37.149999999999999 36.75 1 0 2.2204460492503131e-16 2.2204460492503131e-16 0 -1 -0 1 0 2.25
1 2.25 -5.5109105961630896e-16 0 0 0 1 
2 8.7999999999999972 37.149999999999999 12.250000000000002 1 0 2.2204460492503131e-16 2.2204460492503131e-16 0 -1 -0 1 0 2.25
1 2.25 -5.5109105961630896e-16 0 0 0 1 
1 4.5 -1.1021821192326179e-15 0 0 0 1 
2 0 0 0 0 0 1 1 0 -0 -0 1 0 4.5
1 4.5 -1.1021821192326179e-15 0 0 0 1 
2 0 0 0 0 0 1 1 0 -0 -0 1 0 4.5
1 4.5 -1.1021821192326179e-15 0 0 0 1 
2 0 0 0 0 0 1 1 0 -0 -0 1 0 4.5
1 4.5 -1.1021821192326179e-15 0 0 0 1 
2 0 0 0 0 0 1 1 0 -0 -0 1 0 4.5
1 4.5 -1.1021821192326179e-15 0 0 0 1 
2 0 0 0 0 0 1 1 0 -0 -0 1 0 4.5
Polygon3D 0
PolygonOnTriangulations 0
Surfaces 29
1 -24.49999999999995 -37.149999999999999 0 -1 0 0 0 1 0 0 0 -1 
2 -16.50000000000005 -37.149999999999999 0 -0 -0 -1 1 0 0 0 1 0 8
2 -16.50000000000005 37.149999999999999 0 -0 -0 -1 1 0 0 0 1 0 8
1 -2.9938773636292666e-10 1.6130780135999793e-16 0 0 0 1 1 0 -0 -0 1 0 
1 -16.500000000000046 -45.149999999999999 0 0 1 0 1 0 0 0 0 -1 
1 -16.500000000000046 45.149999999999999 0 0 1 0 1 0 0 0 0 -1 
2 16.49999999863229 -37.149999999999999 0 -0 -0 -1 1 0 0 0 1 0 8
2 16.49999999863229 37.149999999999999 0 -0 -0 -1 1 0 0 0 1 0 8
2 0 0 0 0 0 1 1 0 -0 -0 1 0 2.25
2 0 0 0 0 0 1 1 0 -0 -0 1 0 2.25
2 0 0 0 0 0 1 1 0 -0 -0 1 0 2.25
2 0 0 0 0 0 1 1 0 -0 -0 1 0 2.25
2 0 0 0 0 0 1 1 0 -0 -0 1 0 2.25
2 0 0 0 0 0 1 1 0 -0 -0 1 0 4.5
1 0 0 4 0 0 1 1 0 -0 -0 1 0 
2 0 0 0 0 0 1 1 0 -0 -0 1 0 4.5
1 0 0 4 0 0 1 1 0 -0 -0 1 0 
2 0 0 0 0 0 1 1 0 -0 -0 1 0 4.5
1 0 0 4 0 0 1 1 0 -0 -0 1 0 
2 0 0 0 0 0 1 1 0 -0 -0 1 0 4.5
1 0 0 4 0 0 1 1 0 -0 -0 1 0 
2 0 0 0 0 0 1 1 0 -0 -0 1 0 4.5
1 0 0 4 0 0 1 1 0 -0 -0 1 0 
1 24.50000000000005 -37.149999999999999 0 -1 0 0 0 1 0 0 0 -1 
1 0 0 0 0 0 1 1 0 -0 -0 1 0 
1 0 0 0 0 0 1 1 0 -0 -0 1 0 
1 0 0 0 0 0 1 1 0 -0 -0 1 0 
1 0 0 0 0 0 1 1 0 -0 -0 1 0 
1 0 0 0 0 0 1 1 0 -0 -0 1 0 
Triangulations 0

TShapes 142
Ve
1.00000049745921e-07
-24.5 -37.15 0
0 0

0101101
*
Ed
 1.00000049745921e-07 1 1 0
1  1 0 0 6
2  1 2 0 0 6
4 G1 1 0 2 0
0

0101000
+142 5 -142 7 *
Ve
1.00000049737991e-07
-24.5 37.15 0
0 0

0101101
*
Ed
 1.00000049737991e-07 1 1 0
1  2 0 0 6
2  2 3 0 0 6
4 G1 1 0 3 0
0

0101000
+140 5 -140 7 *
Ed
 1e-07 1 1 0
1  3 0 -37.15 37.15
2  3 4 0 -37.15 37.15
0

0101000
+142 0 -140 0 *
Wi

0101100
+141 0 -139 0 -138 5 +138 7 *
Fa
0  1e-07 1 0

0101000
+137 0 *
Ve
1e-07
-16.5000000000001 -45.15 0
0 0

0101101
*
Ed
 1e-07 1 1 0
1  4 0 0 6
2  4 2 0 0 6
4 G1 2 0 5 0
0

0101000
+135 5 -135 7 *
Ed
 1e-07 1 1 0
1  5 0 3.14159265358979 4.71238898038469
2  5 2 8 3.14159265358979 4.71238898038469
2  6 2 9 3.14159265358979 4.71238898038469
2  7 4 0 3.14159265358979 4.71238898038469
0

0101000
+142 0 -135 0 *
Wi

0101100
+141 0 -134 0 -133 5 +133 7 *
Fa
0  1e-07 2 0

0101000
+132 0 *
Ve
1e-07
-16.5000000000001 45.15 0
0 0

0101101
*
Ed
 1e-07 1 1 0
1  6 0 0 6
2  8 3 0 0 6
4 G1 6 0 3 0
0

0101000
+130 5 -130 7 *
Ed
 1e-07 1 1 0
1  7 0 1.5707963267949 3.14159265358979
2  9 3 8 1.5707963267949 3.14159265358979
2  10 3 9 1.5707963267949 3.14159265358979
2  11 4 0 1.5707963267949 3.14159265358979
0

0101000
+130 0 -140 0 *
Wi

0101100
+129 0 -139 0 -128 5 +128 7 *
Fa
0  1e-07 3 0

0101000
+127 0 *
Ve
1.00000000888178e-07
16.4999999986322 -45.15 0
0 0

0101101
*
Ed
 1e-07 1 1 0
1  8 0 -16.5000000000001 16.4999999986322
2  12 4 0 -16.5000000000001 16.4999999986322
0

0101000
+135 0 -125 0 *
Ve
1e-07
16.4999999986322 45.15 0
0 0

0101101
*
Ed
 1e-07 1 1 0
1  9 0 -16.5000000000001 16.4999999986322
2  13 4 0 -16.5000000000001 16.4999999986322
0

0101000
+130 0 -123 0 *
Ve
1.00683879619601e-07
24.4999999993161 -37.15 0
0 0

0101101
*
Ed
 1e-07 1 1 0
1  10 0 4.71238898038469 6.28318530717959
2  14 7 8 4.71238898038469 6.28318530717959
2  15 7 9 4.71238898038469 6.28318530717959
2  16 4 0 4.71238898038469 6.28318530717959
0

0101000
+125 0 -121 0 *
Ve
1.00683879619601e-07
24.4999999993161 37.15 0
0 0

0101101
*
Ed
 1e-07 1 1 0
1  11 0 0 1.5707963267949
2  17 8 8 0 1.5707963267949
2  18 8 9 0 1.5707963267949
2  19 4 0 0 1.5707963267949
0

0101000
+119 0 -123 0 *
Ed
 1e-07 1 1 0
1  12 0 -37.15 37.15
2  20 4 0 -37.15 37.15
0

0101000
+121 0 -119 0 *
Wi

0101100
-138 10 +133 10 +128 10 +124 10 -122 10 +120 10 +118 10 +117 10 *
Ve
1.00000000888178e-07
6.8 -37.15 34.5
0 0

0101101
*
Ed
 1e-07 1 1 0
1  13 0 0 6.28318530717959
2  21 4 10 0 6.28318530717959
2  22 9 14 0 6.28318530717959
0

0101100
+115 0 -115 0 *
Wi

0101100
-114 0 *
Ve
1.00000001776357e-07
6.8 -37.15 10
0 0

0101101
*
Ed
 1e-07 1 1 0
1  14 0 0 6.28318530717959
2  23 4 10 0 6.28318530717959
2  24 10 18 0 6.28318530717959
0

0101100
+112 0 -112 0 *
Wi

0101100
-111 0 *
Ve
1.00000001045257e-07
6.8 -5.51091059616309e-16 24.25
0 0

0101101
*
Ed
 1e-07 1 1 0
1  15 0 0 6.28318530717959
2  25 4 10 0 6.28318530717959
2  26 11 22 0 6.28318530717959
0

0101100
+109 0 -109 0 *
Wi

0101100
-108 0 *
Ve
1.00000000888178e-07
6.8 37.15 34.5
0 0

0101101
*
Ed
 1e-07 1 1 0
1  16 0 0 6.28318530717959
2  27 4 10 0 6.28318530717959
2  28 12 26 0 6.28318530717959
0

0101100
+106 0 -106 0 *
Wi

0101100
-105 0 *
Ve
1.00000001776357e-07
6.8 37.15 10
0 0

0101101
*
Ed
 1e-07 1 1 0
1  17 0 0 6.28318530717959
2  29 4 10 0 6.28318530717959
2  30 13 30 0 6.28318530717959
0

0101100
+103 0 -103 0 *
Wi

0101100
-102 0 *
Fa
0  1e-07 4 10

0101000
+116 0 +113 0 +110 0 +107 0 +104 0 +101 0 *
Wi

0101100
-138 31 +133 31 +128 31 +124 31 -122 31 +120 31 +118 31 +117 31 *
Ve
1.00000003552714e-07
4.5 -1.10218211923262e-15 4
0 0

0101101
*
Ed
 1.00000003552714e-07 1 1 0
1  18 0 0 6.28318530717959
2  31 14 0 0 6.28318530717959
2  32 15 0 0 6.28318530717959
2  33 4 36 0 6.28318530717959
0

0101000
+98 0 -98 0 *
Wi

0101100
-97 35 *
Ve
1.00000003552714e-07
4.5 -1.10218211923262e-15 4
0 0

0101101
*
Ed
 1.00000003552714e-07 1 1 0
1  19 0 0 6.28318530717959
2  34 16 0 0 6.28318530717959
2  35 17 0 0 6.28318530717959
2  36 4 41 0 6.28318530717959
0

0101000
+95 0 -95 0 *
Wi

0101100
-94 40 *
Ve
1.00000001776357e-07
4.5 -1.10218211923262e-15 4
0 0

0101101
*
Ed
 1.00000001776357e-07 1 1 0
1  20 0 0 6.28318530717959
2  37 18 0 0 6.28318530717959
2  38 19 0 0 6.28318530717959
2  39 4 46 0 6.28318530717959
0

0101000
+92 0 -92 0 *
Wi

0101100
-91 45 *
Ve
1.00000003552714e-07
4.5 -1.10218211923262e-15 4
0 0

0101101
*
Ed
 1.00000003552714e-07 1 1 0
1  21 0 0 6.28318530717959
2  40 20 0 0 6.28318530717959
2  41 21 0 0 6.28318530717959
2  42 4 51 0 6.28318530717959
0

0101000
+89 0 -89 0 *
Wi

0101100
-88 50 *
Ve
1.00000003552714e-07
4.5 -1.10218211923262e-15 4
0 0

0101101
*
Ed
 1.00000003552714e-07 1 1 0
1  22 0 0 6.28318530717959
2  43 22 0 0 6.28318530717959
2  44 23 0 0 6.28318530717959
2  45 4 56 0 6.28318530717959
0

0101000
+86 0 -86 0 *
Wi

0101100
-85 55 *
Fa
0  1e-07 4 31

0101000
+99 0 +96 0 +93 0 +90 0 +87 0 +84 0 *
Ed
 1.00000000888178e-07 1 1 0
1  23 0 0 6
2  46 7 0 0 6
4 G1 5 0 7 0
0

0101000
+125 5 -125 7 *
Wi

0101100
+134 0 -82 0 -124 5 +124 7 *
Fa
0  1e-07 5 0

0101000
+81 0 *
Ed
 1e-07 1 1 0
1  24 0 0 6
2  47 8 0 0 6
4 G1 8 0 6 0
0

0101000
+123 5 -123 7 *
Wi

0101100
+129 0 -79 0 -122 5 +122 7 *
Fa
0  1e-07 6 0

0101000
+78 0 *
Ed
 1.00683879619601e-07 1 1 0
1  25 0 0 6
2  48 7 0 0 6
4 G1 7 0 24 0
0

0101000
+121 5 -121 7 *
Wi

0101100
+82 0 -76 0 -120 5 +120 7 *
Fa
0  1e-07 7 0

0101000
+75 0 *
Ed
 1.00683879619601e-07 1 1 0
1  26 0 0 6
2  49 8 0 0 6
4 G1 24 0 8 0
0

0101000
+119 5 -119 7 *
Wi

0101100
+73 0 -79 0 -118 5 +118 7 *
Fa
0  1e-07 8 0

0101000
+72 0 *
Wi

0101100
+76 0 -73 0 -117 5 +117 7 *
Fa
0  1e-07 24 0

0101000
+70 0 *
Ve
1.00000007105427e-07
8.8 -37.15 34.5
0 0

0101101
*
Ed
 1e-07 1 1 0
1  27 0 0 6.28318530717959
2  50 9 14 0 6.28318530717959
2  51 25 35 0 6.28318530717959
0

0101100
+68 0 -68 0 *
Ed
 1e-07 1 1 0
1  28 0 36.8 38.8
3  52 53CN 9 0 36.8 38.8
0

0101000
+115 57 -68 57 *
Wi

0101100
-67 0 +66 14 +114 0 -66 14 *
Fa
0  1e-07 9 14

0101000
+65 0 *
Ve
1e-07
8.8 -37.15 10
0 0

0101101
*
Ed
 1e-07 1 1 0
1  29 0 0 6.28318530717959
2  54 10 18 0 6.28318530717959
2  55 26 40 0 6.28318530717959
0

0101100
+63 0 -63 0 *
Ed
 1e-07 1 1 0
1  30 0 36.8 38.8
3  56 57CN 10 0 36.8 38.8
0

0101000
+112 58 -63 58 *
Wi

0101100
-62 0 +61 18 +111 0 -61 18 *
Fa
0  1e-07 10 18

0101000
+60 0 *
Ve
1.00000000551091e-07
8.8 -5.51091059616309e-16 24.25
0 0

0101101
*
Ed
 1e-07 1 1 0
1  31 0 0 6.28318530717959
2  58 11 22 0 6.28318530717959
2  59 27 45 0 6.28318530717959
0

0101100
+58 0 -58 0 *
Ed
 1e-07 1 1 0
1  32 0 36.8 38.8
3  60 61CN 11 0 36.8 38.8
0

0101000
+109 59 -58 59 *
Wi

0101100
-57 0 +56 22 +108 0 -56 22 *
Fa
0  1e-07 11 22

0101000
+55 0 *
Ve
1.00000007105427e-07
8.8 37.15 34.5
0 0

0101101
*
Ed
 1e-07 1 1 0
1  33 0 0 6.28318530717959
2  62 12 26 0 6.28318530717959
2  63 28 50 0 6.28318530717959
0

0101100
+53 0 -53 0 *
Ed
 1e-07 1 1 0
1  34 0 36.8 38.8
3  64 65CN 12 0 36.8 38.8
0

0101000
+106 60 -53 60 *
Wi

0101100
-52 0 +51 26 +105 0 -51 26 *
Fa
0  1e-07 12 26

0101000
+50 0 *
Ve
1e-07
8.8 37.15 10
0 0

0101101
*
Ed
 1e-07 1 1 0
1  35 0 0 6.28318530717959
2  66 13 30 0 6.28318530717959
2  67 29 55 0 6.28318530717959
0

0101100
+48 0 -48 0 *
Ed
 1e-07 1 1 0
1  36 0 36.8 38.8
3  68 69CN 13 0 36.8 38.8
0

0101000
+103 61 -48 61 *
Wi

0101100
-47 0 +46 30 +102 0 -46 30 *
Fa
0  1e-07 13 30

0101000
+45 0 *
Ve
1e-07
4.5 -1.10218211923262e-15 0
0 0

0101101
*
Ed
 1e-07 1 1 0
1  37 0 0 4
3  70 71CN 14 0 0 4
0

0101000
-98 0 +43 0 *
Ed
 1e-07 1 1 0
1  38 0 0 6.28318530717959
2  72 14 0 0 6.28318530717959
2  73 25 0 0 6.28318530717959
0

0101000
+43 0 -43 0 *
Wi

0101100
-97 0 +42 0 +41 0 -42 0 *
Fa
0  1e-07 14 0

0111000
+40 0 *
Ve
1e-07
4.5 -1.10218211923262e-15 0
0 0

0101101
*
Ed
 1e-07 1 1 0
1  39 0 0 4
3  74 75CN 16 0 0 4
0

0101000
-95 0 +38 0 *
Ed
 1e-07 1 1 0
1  40 0 0 6.28318530717959
2  76 16 0 0 6.28318530717959
2  77 26 0 0 6.28318530717959
0

0101000
+38 0 -38 0 *
Wi

0101100
-94 0 +37 0 +36 0 -37 0 *
Fa
0  1e-07 16 0

0111000
+35 0 *
Ve
1e-07
4.5 -1.10218211923262e-15 0
0 0

0101101
*
Ed
 1e-07 1 1 0
1  41 0 0 4
3  78 79CN 18 0 0 4
0

0101000
-92 0 +33 0 *
Ed
 1e-07 1 1 0
1  42 0 0 6.28318530717959
2  80 18 0 0 6.28318530717959
2  81 27 0 0 6.28318530717959
0

0101000
+33 0 -33 0 *
Wi

0101100
-91 0 +32 0 +31 0 -32 0 *
Fa
0  1e-07 18 0

0111000
+30 0 *
Ve
1e-07
4.5 -1.10218211923262e-15 0
0 0

0101101
*
Ed
 1e-07 1 1 0
1  43 0 0 4
3  82 83CN 20 0 0 4
0

0101000
-89 0 +28 0 *
Ed
 1e-07 1 1 0
1  44 0 0 6.28318530717959
2  84 20 0 0 6.28318530717959
2  85 28 0 0 6.28318530717959
0

0101000
+28 0 -28 0 *
Wi

0101100
-88 0 +27 0 +26 0 -27 0 *
Fa
0  1e-07 20 0

0111000
+25 0 *
Ve
1e-07
4.5 -1.10218211923262e-15 0
0 0

0101101
*
Ed
 1e-07 1 1 0
1  45 0 0 4
3  86 87CN 22 0 0 4
0

0101000
-86 0 +23 0 *
Ed
 1e-07 1 1 0
1  46 0 0 6.28318530717959
2  88 22 0 0 6.28318530717959
2  89 29 0 0 6.28318530717959
0

0101000
+23 0 -23 0 *
Wi

0101100
-85 0 +22 0 +21 0 -22 0 *
Fa
0  1e-07 22 0

0111000
+20 0 *
Wi

0101100
+41 35 *
Wi

0101100
-67 0 *
Fa
0  1e-07 25 35

0101000
+18 0 +17 0 *
Wi

0101100
+36 40 *
Wi

0101100
-62 0 *
Fa
0  1e-07 26 40

0101000
+15 0 +14 0 *
Wi

0101100
+31 45 *
Wi

0101100
-57 0 *
Fa
0  1e-07 27 45

0101000
+12 0 +11 0 *
Wi

0101100
+26 50 *
Wi

0101100
-52 0 *
Fa
0  1e-07 28 50

0101000
+9 0 +8 0 *
Wi

0101100
+21 55 *
Wi

0101100
-47 0 *
Fa
0  1e-07 29 55

0101000
+6 0 +5 0 *
Sh

0101100
+136 4 -131 4 -126 4 -100 0 +83 0 -80 4 +77 4 -74 4 -71 4 -69 4 
-64 0 -59 0 -54 0 -49 0 -44 0 -39 35 -34 40 -29 45 -24 50 -19 55 
+16 0 +13 0 +10 0 +7 0 +4 0 *
So

0100000
+3 0 *
Co

1100000
+2 0 *

+1 0 