DBRep_DrawableShape

CASCADE Topology V3, (c) Open Cascade
Locations 70
1
              1               0               0              -3 
              0               1               0          -45.15 
              0               0               1 -23.6283881586122 
1
              1               0               0               3 
              0               1               0               0 
              0               0               1 23.6283881586122 
2  1 1 2 1 0
2  2 -1 1 -1 0
1
              1               0               0               0 
              0               1               0               0 
              0               0               1            58.3 
1
              1              -0               0               0 
              0 2.22044604925031e-16              -1               0 
              0               1 2.22044604925031e-16               0 
1
              1               0               0               0 
              0               1               0           29.15 
              0               0               1               0 
2  5 1 6 1 7 1 0
2  5 -1 0
2  7 -1 6 -1 5 -1 0
2  6 1 7 1 0
2  7 -1 6 -1 0
1
              1               0               0              -0 
              0               1               0              -0 
              0               0               1              -6 
1
2.22044604925031e-16               0               1               0 
              0               1               0               0 
             -1               0 2.22044604925031e-16               0 
1
              1               0               0               3 
              0               1               0          -37.15 
              0               0               1 35.4425822379183 
2  13 1 14 1 15 1 0
1
              1               0               0              -0 
              0               1               0              -0 
              0               0               1              -6 
1
2.22044604925031e-16               0               1               0 
              0               1               0               0 
             -1               0 2.22044604925031e-16               0 
1
              1               0               0               3 
              0               1               0          -37.15 
              0               0               1 11.8141940793061 
2  17 1 18 1 19 1 0
1
              1               0               0              -0 
              0               1               0              -0 
              0               0               1             -40 
1
2.22044604925031e-16               0               1               0 
              0               1               0               0 
             -1               0 2.22044604925031e-16               0 
1
              1               0               0               0 
              0               1               0               0 
              0               0               1            22.5 
1
0.961261695938319               0 0.275637355816999               0 
              0               1               0               0 
-0.275637355816999               0 0.961261695938319               0 
1
              1               0               0 5.04734349423654 
              0               1               0               0 
              0               0               1               4 
2  21 1 22 1 23 1 24 1 25 1 0
1
              1               0               0              -0 
              0               1               0              -0 
              0               0               1              -6 
1
2.22044604925031e-16               0               1               0 
              0               1               0               0 
             -1               0 2.22044604925031e-16               0 
1
              1               0               0               3 
              0               1               0           37.15 
              0               0               1 35.4425822379183 
2  27 1 28 1 29 1 0
1
              1               0               0              -0 
              0               1               0              -0 
              0               0               1              -6 
1
2.22044604925031e-16               0               1               0 
              0               1               0               0 
             -1               0 2.22044604925031e-16               0 
1
              1               0               0               3 
              0               1               0           37.15 
              0               0               1 11.8141940793061 
2  31 1 32 1 33 1 0
1
              1               0               0              -0 
              0               1               0              -0 
              0               0               1            -1.5 
1
2.22044604925031e-16               0               1               0 
              0               1               0               0 
             -1               0 2.22044604925031e-16               0 
1
              1               0               0             4.5 
              0               1               0          -37.15 
              0               0               1 11.8141940793061 
2  35 1 36 1 37 1 0
2  1 1 2 1 37 -1 36 -1 35 -1 0
1
              1               0               0              -0 
              0               1               0              -0 
              0               0               1            -1.5 
1
2.22044604925031e-16               0               1               0 
              0               1               0               0 
             -1               0 2.22044604925031e-16               0 
1
              1               0               0             4.5 
              0               1               0          -37.15 
              0               0               1 35.4425822379183 
2  40 1 41 1 42 1 0
2  1 1 2 1 42 -1 41 -1 40 -1 0
1
              1               0               0              -0 
              0               1               0              -0 
              0               0               1            -6.5 
1
2.22044604925031e-16               0               1               0 
              0               1               0               0 
             -1               0 2.22044604925031e-16               0 
1
              1               0               0 9.99504678375328 
              0               1               0               0 
              0               0               1               0 
2  45 1 46 1 47 1 23 1 24 1 25 1 0
1
              1               0               0              -0 
              0               1               0              -0 
              0               0               1            -1.5 
1
2.22044604925031e-16               0               1               0 
              0               1               0               0 
             -1               0 2.22044604925031e-16               0 
1
              1               0               0             4.5 
              0               1               0           37.15 
              0               0               1 11.8141940793061 
2  49 1 50 1 51 1 0
2  1 1 2 1 51 -1 50 -1 49 -1 0
1
              1               0               0              -0 
              0               1               0              -0 
              0               0               1            -1.5 
1
2.22044604925031e-16               0               1               0 
              0               1               0               0 
             -1               0 2.22044604925031e-16               0 
1
              1               0               0             4.5 
              0               1               0           37.15 
              0               0               1 35.4425822379183 
2  54 1 55 1 56 1 0
2  1 1 2 1 56 -1 55 -1 54 -1 0
1
              1               0               0           -2.65 
              0               1               0          -25.15 
              0               0               1           -32.5 
1
              1               0               0               0 
              0               1               0               0 
              0               0               1            32.5 
1
0.961261695938319               0 0.275637355816999               0 
              0               1               0               0 
-0.275637355816999               0 0.961261695938319               0 
1
              1               0               0 5.04734349423654 
              0               1               0               0 
              0               0               1               4 
2  59 1 60 1 61 1 62 1 0
2  15 -1 14 -1 13 -1 0
2  19 -1 18 -1 17 -1 0
2  25 -1 24 -1 23 -1 22 -1 21 -1 0
2  29 -1 28 -1 27 -1 0
2  33 -1 32 -1 31 -1 0
2  25 -1 24 -1 23 -1 47 -1 46 -1 45 -1 0
2  62 -1 61 -1 60 -1 59 -1 0
Curve2ds 141
1 47.256776317224364 -74.299999999999997 -2.2204460492503131e-16 1 
1 0 0 0 1 
1 0 0 1 0 
1 0 0 0 -1 
1 6 0 0 1 
1 0 0 1 0 
1 0 -58.299999999999997 1 0 
1 -9.1923487233728416 -26.06724499935342 1 0 
1 10.657155456234559 0 0 -1 
1 0 0 0 -1 
1 0 0 0 1 
1 0 90.299999999999997 1 0 
1 24.207818011034753 -74.300000000000011 0 1 
1 1.6497914145929829e-14 -74.300000000000011 -2.2204460492503131e-16 1 
1 0 0 1 0 
1 0 0 1 0 
1 47.256776317224364 -74.299999999999997 -1 -2.2204460492503131e-16 
1 0 -90.299999999999997 1 0 
1 0 0 1 0 
1 47.25677631722435 16 -1 -2.2204460492503131e-16 
2 11.814194079306105 -66.300000000000011 1 2.2204460492503131e-16 -2.2204460492503131e-16 1 2.25
1 0 3 1 0 
2 35.44258223791828 -66.299999999999997 1 2.2204460492503131e-16 -2.2204460492503131e-16 1 2.25
1 0 3 1 0 
3 18.402736553026248 -29.150000000000006 1 2.2204460492503131e-16 -2.2204460492503131e-16 1 2.3406737306886045 2.25
7 0 0  8 23 4  0 28.942657348730137  0.19634954084936207 28.942657348730137  0.39269908169863577 28.914229874272564  0.58904862254823054 28.85737836191203  0.78539816339750179 28.774430425103148  0.98174770424670332 28.670080359133358  1.1780972450962022 28.550840251615348  1.374446785945536 28.424160461650253  1.8653206380689411 28.10745988445667  2.1598449493416374 27.917438849536758  2.4543692606136922 27.752540947601911  2.7488935718942504 27.637853519498201  3.0434178831607857 27.591616290779132  3.3379421944380145 27.617769280263342  3.6324665057131975 27.70690644015524  4.2215151282612835 27.975635791042375  4.5160394395417258 28.155228955831447  4.8105637507712808 28.362276815720154  5.1050880621182797 28.570706560577563  5.3996123733184831 28.750783304741645  5.6941366846365593 28.878695294207752  5.9886609959055432 28.942657348730137  6.2831853071795862 28.942657348730137 
 0 9 1.570796326794897 7 3.9269908169872414 7 6.2831853071795862 9
2 11.814194079306089 7.999999999999992 1 2.2204460492503131e-16 -2.2204460492503131e-16 1 2.25
1 0 3 1 0 
2 35.442582237918266 7.9999999999999973 1 2.2204460492503131e-16 -2.2204460492503131e-16 1 2.25
1 0 3 1 0 
1 0 0 1 0 
1 0 6 1 0 
1 47.25677631722435 0 0 1 
1 0 0 1 0 
1 24.207818011034753 -74.300000000000011 -1 0 
1 47.25677631722435 0 0 -1 
1 6 0 0 1 
1 18.207818011034753 -74.300000000000011 0 1 
8 -13.033622499676701 34.223153817547633
1 -3.1923487233728416 -13.033622499676719 0 1 
8 -13.033622499676701 34.223153817547633
1 13.033622499676715 -16.000000000000004 1 -2.2204460492503131e-16 
1 0 3 1 0 
2 0 0 1 0 -0 1 4.5
2 11.814194079306088 -8 -1 0 -0 -1 4.5
1 0 3 1 0 
2 0 0 1 0 -0 1 4.5
2 35.442582237918259 -8 -1 0 -0 -1 4.5
1 0 -0 1 0 
1 0 -58.299999999999997 1 0 
1 15.015469287661912 21.18953131787093 -1 0 
1 0 -58.299999999999997 1 0 
1 1.4648067328617174 -26.06724499935342 0.27563735581699916 0.96126169593831889 
1 0 0 1 0 
1 0 -58.299999999999997 1 0 
1 0 -0 0 -1 
1 0 0 0 -1 
1 49.161197743446415 0 0 -1 
2 24.798773047917564 -29.150000000000002 -1 2.1344297350418962e-16 2.1344297350418962e-16 1 4.5
1 2.2599168501832693e-18 3.0000000000000004 1 0 
8 -13.033622499676701 34.223153817547647
1 -3.1923487233728416 -13.033622499676719 0 1 
8 -13.033622499676701 34.223153817547647
1 13.033622499676701 -74.299999999999997 1 -2.2204460492503131e-16 
1 0 0 1 0 
1 18.207818011034753 -74.300000000000011 0 1 
1 0 -90.299999999999997 1 0 
1 0 6 1 0 
1 0 3 1 0 
2 0 0 1 0 -0 1 4.5
2 11.814194079306088 -82.299999999999997 -1 0 -0 -1 4.5
1 0 3 1 0 
2 0 0 1 0 -0 1 4.5
2 35.442582237918259 -82.299999999999997 -1 0 -0 -1 4.5
1 47.25677631722435 0 0 1 
1 0 90.299999999999997 1 0 
1 24.207818011034753 15.999999999999989 -1 0 
8 1.3403219954508845 6.8539090055173766
1 10.853909005517377 -4.0000000000000107 -1 0 
8 1.3403219954508845 6.8539090055173766
1 43.870681916969716 -1.2884001944505499 0.27563735581699916 0.96126169593831889 
8 -23.149999999999988 27.150000000000009
1 4 -27.149999999999999 -6.3670265894890204e-17 -1 
8 -23.149999999999988 27.150000000000009
1 45.759875272260842 -27.150000000000009 2.3099287723962236e-16 1 
8 1.3403219954508883 6.8539090055173801
1 10.853909005517377 -54.300000000000011 -1 0 
8 1.3403219954508883 6.8539090055173801
1 43.87068191696973 -1.2884001944505539 0.27563735581699916 0.96126169593831889 
8 -23.149999999999988 27.150000000000009
1 9.5135870100664874 -27.149999999999999 -6.3670265894890204e-17 -1 
8 -23.149999999999988 27.150000000000009
1 44.240124727739172 -27.150000000000009 2.3099287723962236e-16 1 
1 0 6 1 0 
2 0 0 1 0 -0 1 2.25
1 6.2831853071795862 -0 0 1 
1 0 -0 0 1 
1 0 6 1 0 
2 0 0 1 0 -0 1 2.25
1 6.2831853071795862 -0 0 1 
1 0 -0 0 1 
2 22.499999999999996 -25.149999999999999 -1 -0 0 -1 2.25
1 2.2599168501832693e-18 37.350000000000001 1 0 
1 6.2831853071795862 -0 0 1 
1 0 -0 0 1 
1 0 6 1 0 
2 0 0 1 0 -0 1 2.25
1 6.2831853071795862 -0 0 1 
1 0 -0 0 1 
1 0 6 1 0 
2 0 0 1 0 -0 1 2.25
1 6.2831853071795862 -0 0 1 
1 0 -0 0 1 
1 6.2831853071795862 -0 0 1 
1 0 -0 0 1 
1 0 0 1 0 
2 0 0 1 0 -0 1 4.5
1 6.2831853071795862 -0 0 1 
1 0 -0 0 1 
1 0 0 1 0 
2 0 0 1 0 -0 1 4.5
1 6.2831853071795862 -0 0 1 
1 0 -0 0 1 
1 0 0 1 0 
2 0 0 1 0 -0 1 4.5
1 6.2831853071795862 -0 0 1 
1 0 -0 0 1 
1 0 0 1 0 
2 0 0 1 0 -0 1 4.5
1 6.2831853071795862 -0 0 1 
1 0 -0 0 1 
1 0 0 1 0 
2 0 0 1 0 -0 1 4.5
1 0 -50.299999999999997 1 0 
1 0 5.2999999999999998 1 0 
1 0 -50.299999999999997 1 0 
1 0 0 1 0 
1 0 0 0 1 
1 0 50.299999999999997 1 0 
1 0 0 1 0 
1 0 5.2999999999999998 1 0 
1 0 0 0 -1 
1 5.2999999999999998 0 0 1 
2 22.5 -25.149999999999999 -1 -0 0 -1 2.25
1 2.2599168501832693e-18 42.650000000000013 1 0 
1 0 0 1 0 
1 0 0 1 0 
1 0 0 0 1 
1 0 0 1 0 
1 0 0 0 -1 
1 0 0 0 1 
1 2.2599168501832693e-18 43.495046783753281 1 0 
2 4.394348180466487e-15 0 1 0 -0 1 2.25
Curves 63
8 0 90.299999999999997
1 0 -45.149999999999999 0 0 1 0 
1 0 0 0 1 0 -0 
1 6 0 0 -0 1 0 
1 0 0 0 1 0 0 
1 10.657155456234559 0 0 0 0 1 
1 0 90.299999999999997 0 1 0 -0 
8 0 90.299999999999997
1 0 -45.149999999999999 47.25677631722435 0 1 0 
1 0 0 0 0 0 1 
1 0 90.299999999999997 0 0 0 1 
2 0 -37.149999999999999 35.442582237918259 1 0 2.2204460492503131e-16 2.2204460492503131e-16 0 -1 -0 1 0 2.25
2 0 -37.149999999999999 11.814194079306086 1 0 2.2204460492503131e-16 2.2204460492503131e-16 0 -1 -0 1 0 2.25
3 -1.3443448066854029e-15 0 28.854039764198109 1 0 0 0 0 -1 -0 1 0 2.3406737306886045 2.25
2 0 37.149999999999999 35.442582237918259 1 0 2.2204460492503131e-16 2.2204460492503131e-16 0 -1 -0 1 0 2.25
2 0 37.149999999999999 11.814194079306086 1 0 2.2204460492503131e-16 2.2204460492503131e-16 0 -1 -0 1 0 2.25
1 6 0 0 0 0 1 
1 0 0 47.25677631722435 1 0 -0 
1 6 0 47.25677631722435 -0 1 0 
1 6 -29.149999999999995 13.033622499676715 0 2.2204460492503131e-16 1 
2 0 0 3 0 0 1 1 0 -0 -0 1 0 4.5
2 0 0 3 0 0 1 1 0 -0 -0 1 0 4.5
1 24.207818011034753 47.25677631722435 0 -1 0 0 
1 10.657155456234559 0 0 0.27563735581699916 0.96126169593831889 0 
1 24.207818011034753 47.25677631722435 0 0 0 1 
2 17.492623686668423 0 23.838110637230717 0.96126169593831901 0 -0.27563735581699894 -0.27563735581699894 0 -0.96126169593831901 0 1 0 4.5
1 6 29.150000000000002 13.033622499676701 0 2.2204460492503131e-16 1 
1 6 90.299999999999997 0 0 0 1 
2 0 0 3 0 0 1 1 0 -0 -0 1 0 4.5
2 0 0 3 0 0 1 1 0 -0 -0 1 0 4.5
1 0 90.299999999999997 47.25677631722435 1 0 -0 
1 13.353909005517377 25.149999999999999 47.25677631722435 1 -0 0 
1 20.207818011034753 2.0000000000000107 47.25677631722435 6.3670265894890204e-17 -1 2.2204460492503131e-16 
1 13.353909005517377 -25.149999999999999 47.256776317224364 1 -0 0 
1 14.694231000968266 2.0000000000000107 47.256776317224357 6.3670265894890204e-17 -1 2.2204460492503131e-16 
2 3 -37.149999999999999 35.442582237918259 1 0 2.2204460492503131e-16 2.2204460492503131e-16 0 -1 -0 1 0 2.25
1 2.25 -5.5109105961630896e-16 0 0 0 1 
2 3 -37.149999999999999 11.814194079306088 1 0 2.2204460492503131e-16 2.2204460492503131e-16 0 -1 -0 1 0 2.25
1 2.25 -5.5109105961630896e-16 0 0 0 1 
2 8.7018405058824797 0 26.358827151527219 0.96126169593831901 0 -0.27563735581699894 -0.27563735581699894 0 -0.96126169593831901 0 1 0 2.25
1 2.25 -5.5109105961630896e-16 0 0 0 1 
2 3 37.149999999999999 35.442582237918259 1 0 2.2204460492503131e-16 2.2204460492503131e-16 0 -1 -0 1 0 2.25
1 2.25 -5.5109105961630896e-16 0 0 0 1 
2 3 37.149999999999999 11.814194079306088 1 0 2.2204460492503131e-16 2.2204460492503131e-16 0 -1 -0 1 0 2.25
1 2.25 -5.5109105961630896e-16 0 0 0 1 
1 4.5 -1.1021821192326179e-15 0 0 0 1 
2 0 0 0 0 0 1 1 0 -0 -0 1 0 4.5
1 4.5 -1.1021821192326179e-15 0 0 0 1 
2 0 0 0 0 0 1 1 0 -0 -0 1 0 4.5
1 4.5 -1.1021821192326179e-15 0 0 0 1 
2 0 0 0 0 0 1 1 0 -0 -0 1 0 4.5
1 4.5 -1.1021821192326179e-15 0 0 0 1 
2 0 0 0 0 0 1 1 0 -0 -0 1 0 4.5
1 4.5 -1.1021821192326179e-15 0 0 0 1 
2 0 0 0 0 0 1 1 0 -0 -0 1 0 4.5
1 5.2999999999999998 50.299999999999997 0 0 0 1 
1 0 50.299999999999997 0 0 0 1 
1 0 50.299999999999997 0 1 0 -0 
1 5.2999999999999998 0 0 0 0 1 
1 5.2999999999999998 0 0 -0 1 0 
2 13.796527494355574 0 24.897949165697124 0.96126169593831901 0 -0.27563735581699894 -0.27563735581699894 0 -0.96126169593831901 0 1 0 2.25
1 0 0 0 0 0 1 
1 0 0 0 1 0 -0 
1 0 0 0 -0 1 0 
2 14.608838598853463 0 24.665022704681711 0.96126169593831901 0 -0.27563735581699894 -0.27563735581699894 0 -0.96126169593831901 0 1 0 2.25
Polygon3D 0
PolygonOnTriangulations 0
Surfaces 37
1 0 29.149999999999999 0 0 2.2204460492503131e-16 1 1 0 0 0 1 -2.2204460492503131e-16 
1 0 29.150000000000009 47.25677631722435 1 0 0 0 -2.2204460492503131e-16 -1 0 1 -2.2204460492503131e-16 
1 0 0 0 -0 1 0 0 0 1 1 0 -0 
1 0 0 0 0 0 1 1 0 -0 -0 1 0 
1 6 0 0 1 0 -0 0 0 1 0 -1 0 
1 0 0 0 0 1 0 1 0 0 0 0 -1 
1 9.1923487233728416 26.06724499935342 0 0 0 1 1 0 -0 -0 1 0 
1 10.657155456234559 0 0 -0.96126169593831889 0.27563735581699916 0 0.27563735581699916 0.96126169593831889 0 0 0 -1 
1 0 90.299999999999997 0 -0 1 0 0 0 1 1 0 -0 
1 24.207818011034753 29.150000000000009 47.25677631722435 0 -2.2204460492503131e-16 -1 -1 0 0 0 1 -2.2204460492503131e-16 
1 0 0 0 1 0 -0 0 0 1 0 -1 0 
2 0 0 0 0 0 1 1 0 -0 -0 1 0 2.25
2 0 0 0 0 0 1 1 0 -0 -0 1 0 2.25
2 0 0 0 0 0 1 1 0 -0 -0 1 0 2.25
2 0 0 0 0 0 1 1 0 -0 -0 1 0 2.25
2 0 0 0 0 0 1 1 0 -0 -0 1 0 2.25
1 0 0 47.25677631722435 0 0 1 1 0 -0 -0 1 0 
2 0 0 0 0 0 1 1 0 -0 -0 1 0 4.5
1 0 0 3 0 0 1 1 0 -0 -0 1 0 
2 0 0 0 0 0 1 1 0 -0 -0 1 0 4.5
1 0 0 3 0 0 1 1 0 -0 -0 1 0 
1 24.207818011034753 47.25677631722435 0 0 -1 0 -1 0 0 -0 -0 -1 
2 0 0 0 0 0 1 1 0 -0 -0 1 0 4.5
2 0 0 0 0 0 1 1 0 -0 -0 1 0 4.5
1 0 0 3 0 0 1 1 0 -0 -0 1 0 
2 0 0 0 0 0 1 1 0 -0 -0 1 0 4.5
1 0 0 3 0 0 1 1 0 -0 -0 1 0 
1 0 50.299999999999997 0 -0 1 0 0 0 1 1 0 -0 
1 5.2999999999999998 0 0 1 0 -0 0 0 1 0 -1 0 
1 0 0 0 -0 1 0 0 0 1 1 0 -0 
1 0 0 0 1 0 -0 0 0 1 0 -1 0 
1 0 0 0 0 0 1 1 0 -0 -0 1 0 
1 0 0 0 0 0 1 1 0 -0 -0 1 0 
1 0 0 0 0 0 1 1 0 -0 -0 1 0 
1 0 0 0 0 0 1 1 0 -0 -0 1 0 
1 0 0 0 0 0 1 1 0 -0 -0 1 0 
1 0 0 0 0 0 1 1 0 -0 -0 1 0 
Triangulations 0

TShapes 195
Ve
1e-07
0 0 0
0 0

0101101
*
Ve
1e-07
0 90.3 0
0 0

0101101
*
Ed
 1e-07 1 1 0
1  1 0 0 90.3
2  1 2 0 0 90.3
0

0101000
+195 3 -194 3 *
Ve
1e-07
6 0 0
0 0

0101101
*
Ed
 1e-07 1 1 0
1  2 0 0 6
2  2 3 0 0 6
2  3 4 0 0 6
0

0101000
-192 0 +195 0 *
Ve
6.00000007738254e-07
6 -29.15 6.47260023356466e-15
0 0

0101101
*
Ed
 1e-07 1 1 0
1  3 0 0 16
2  4 5 0 0 16
2  5 4 0 0 16
0

0101000
+192 0 -190 4 *
Ve
1e-07
10.6571554562346 0 0
0 0

0101101
*
Ed
 1e-07 1 1 0
1  4 0 6 10.6571554562346
2  6 6 0 6 10.6571554562346
2  7 6 9 6 10.6571554562346
2  8 7 0 6 10.6571554562346
0

0101000
+190 10 -188 0 *
Ed
 1e-07 1 1 0
1  5 0 0 58.3
2  9 6 0 0 58.3
2  10 8 0 0 58.3
0

0101000
+188 0 -188 5 *
Ve
6e-07
6 29.15 0
0 0

0101101
*
Ed
 1e-07 1 1 0
1  4 0 6 10.6571554562346
2  6 6 0 6 10.6571554562346
2  7 6 9 6 10.6571554562346
2  8 7 0 6 10.6571554562346
0

0101000
+185 12 -188 0 *
Ve
1e-07
6 90.3 0
0 0

0101101
*
Ed
 1e-07 1 1 0
1  3 0 74.3 90.3
2  4 5 0 74.3 90.3
2  5 4 0 74.3 90.3
0

0101000
+185 4 -183 0 *
Ed
 1e-07 1 1 0
1  6 0 0 6
2  11 9 0 0 6
2  12 4 0 0 6
0

0101000
-183 0 +194 0 *
Wi

0101100
-193 0 +191 3 +189 3 +187 8 -186 11 -184 11 +182 3 -181 3 *
Fa
0  0 1 0

0111000
+180 0 *
Ve
1e-07
0 0 47.2567763172244
0 0

0101101
*
Ve
1e-07
0 90.3 47.2567763172244
0 0

0101101
*
Ed
 1e-07 1 1 0
1  7 0 0 90.3
2  13 10 0 0 90.3
2  14 2 0 0 90.3
0

0101000
+178 3 -177 3 *
Ed
 1e-07 1 1 0
1  8 0 0 47.2567763172244
2  15 11 0 0 47.2567763172244
2  16 3 0 0 47.2567763172244
2  17 2 4 0 47.2567763172244
0

0101000
-178 0 +195 0 *
Ed
 1e-07 1 1 0
1  9 0 0 47.2567763172244
2  18 11 0 0 47.2567763172244
2  19 9 0 0 47.2567763172244
2  20 2 4 0 47.2567763172244
0

0101000
-177 0 +194 0 *
Wi

0101100
-176 0 -175 3 +174 3 +193 0 *
Ve
1.000000004996e-07
0 -37.15 33.1925822379183
0 0

0101101
*
Ed
 1e-07 1 1 0
1  10 0 0 6.28318530717959
2  21 2 0 0 6.28318530717959
2  22 12 16 0 6.28318530717959
0

0101100
+172 0 -172 0 *
Wi

0101100
-171 0 *
Ve
1.000000004996e-07
0 -37.15 9.56419407930609
0 0

0101101
*
Ed
 1e-07 1 1 0
1  11 0 0 6.28318530717959
2  23 2 0 0 6.28318530717959
2  24 13 20 0 6.28318530717959
0

0101100
+169 0 -169 0 *
Wi

0101100
-168 0 *
Ve
1.00000007198064e-07
-3.33737198660151e-16 -5.51091059616309e-16 26.5133660335095
0 0

0101101
*
Ed
 1e-07 1 1 0
1  12 0 0 6.28318530717959
2  25 2 0 0 6.28318530717959
2  26 14 26 0 6.28318530717959
0

0101100
+166 0 -166 0 *
Wi

0101100
-165 0 *
Ve
1.000000004996e-07
0 37.15 33.1925822379183
0 0

0101101
*
Ed
 1e-07 1 1 0
1  13 0 0 6.28318530717959
2  27 2 0 0 6.28318530717959
2  28 15 30 0 6.28318530717959
0

0101100
+163 0 -163 0 *
Wi

0101100
-162 0 *
Ve
1.000000004996e-07
0 37.15 9.56419407930609
0 0

0101101
*
Ed
 1e-07 1 1 0
1  14 0 0 6.28318530717959
2  29 2 0 0 6.28318530717959
2  30 16 34 0 6.28318530717959
0

0101100
+160 0 -160 0 *
Wi

0101100
-159 0 *
Fa
0  1e-07 2 0

0101000
+173 0 +170 0 +167 0 +164 0 +161 0 +158 0 *
Ve
1e-07
6 0 47.2567763172244
0 0

0101101
*
Ed
 1e-07 1 1 0
1  15 0 0 47.2567763172244
2  31 5 0 0 47.2567763172244
2  32 3 0 0 47.2567763172244
0

0101000
-156 0 +192 0 *
Ed
 1e-07 1 1 0
1  16 0 0 6
2  33 3 0 0 6
2  34 17 0 0 6
2  35 10 4 0 6
0

0101000
-156 0 +178 0 *
Wi

0101100
-191 0 -155 0 +154 0 +175 0 *
Fa
0  1e-07 3 0

0101000
+153 0 *
Ve
6.00000007105427e-07
6 -29.15 47.2567763172244
0 0

0101101
*
Ed
 1e-07 1 1 0
1  17 0 0 16
2  36 5 0 0 16
2  37 17 0 0 16
2  38 10 4 0 16
0

0101000
+156 0 -151 4 *
Ed
 6e-07 1 1 0
1  18 0 -13.0336224996767 34.2231538175476
2  39 7 8 -13.0336224996767 34.2231538175476
2  40 5 3 -13.0336224996767 34.2231538175476
0

0101000
+190 0 -151 0 *
Wi

0101100
-150 3 -155 3 +149 0 +189 3 *
Ve
1.00000000888178e-07
4.5 -1.10218211923262e-15 3
0 0

0101101
*
Ed
 1.00000000888178e-07 1 1 0
1  19 0 0 6.28318530717959
2  41 18 0 0 6.28318530717959
2  42 19 0 0 6.28318530717959
2  43 5 39 0 6.28318530717959
0

0101000
+147 0 -147 0 *
Wi

0101100
-146 38 *
Ve
1.00000000888178e-07
4.5 -1.10218211923262e-15 3
0 0

0101101
*
Ed
 1.00000000888178e-07 1 1 0
1  20 0 0 6.28318530717959
2  44 20 0 0 6.28318530717959
2  45 21 0 0 6.28318530717959
2  46 5 44 0 6.28318530717959
0

0101000
+144 0 -144 0 *
Wi

0101100
-143 43 *
Fa
0  1e-07 5 3

0101000
+148 0 +145 0 +142 0 *
Ve
1e-07
24.2078180110348 47.2567763172244 0
0 0

0101101
*
Ed
 1e-07 1 1 0
1  21 0 0 18.2078180110348
2  47 22 0 0 18.2078180110348
2  48 22 9 0 18.2078180110348
2  49 7 0 0 18.2078180110348
2  50 10 10 0 18.2078180110348
0

0101000
+140 0 -151 10 *
Ed
 1e-07 1 1 0
1  22 0 0 49.1611977434464
2  51 7 0 0 49.1611977434464
2  52 8 0 0 49.1611977434464
2  53 8 9 0 49.1611977434464
0

0101000
+188 0 -140 0 *
Wi

0101100
-149 0 +139 8 +138 8 +187 8 *
Fa
0  1e-07 7 8

0101000
+137 0 *
Ed
 1e-07 1 1 0
1  23 0 0 58.3
2  54 22 0 0 58.3
2  55 10 12 0 58.3
2  56 8 0 0 58.3
0

0101000
+140 0 -140 5 *
Wi

0101100
+186 11 -138 11 +138 8 -135 11 *
Ve
1.00000001102182e-07
16.2522555854919 -1.10218211923262e-15 19.5124330055083
0 0

0101101
*
Ed
 1e-07 1 1 0
1  24 0 0 6.28318530717959
2  57 8 11 0 6.28318530717959
2  58 23 48 0 6.28318530717959
0

0101100
+133 0 -133 0 *
Wi

0101100
+132 0 *
Fa
0  1e-07 8 11

0101000
+134 0 +131 0 *
Ve
6.00000003552714e-07
6 29.15 47.2567763172244
0 0

0101101
*
Ed
 6e-07 1 1 0
1  25 0 -13.0336224996767 34.2231538175476
2  59 7 11 -13.0336224996767 34.2231538175476
2  60 5 3 -13.0336224996767 34.2231538175476
0

0101000
+185 0 -129 0 *
Ed
 1e-07 1 1 0
1  21 0 0 18.2078180110348
2  47 22 0 0 18.2078180110348
2  48 22 9 0 18.2078180110348
2  49 7 0 0 18.2078180110348
2  61 10 12 0 18.2078180110348
0

0101000
+140 0 -129 12 *
Wi

0101100
-128 0 +127 11 +138 11 +184 11 *
Fa
0  1e-07 7 11

0101000
+126 0 *
Ve
1e-07
6 90.3 47.2567763172244
0 0

0101101
*
Ed
 1e-07 1 1 0
1  17 0 74.3 90.3
2  36 5 0 74.3 90.3
2  37 17 0 74.3 90.3
2  62 10 4 74.3 90.3
0

0101000
+129 4 -124 0 *
Ed
 1e-07 1 1 0
1  26 0 0 47.2567763172244
2  63 5 0 0 47.2567763172244
2  64 9 0 0 47.2567763172244
0

0101000
-124 0 +183 0 *
Wi

0101100
-123 3 -128 0 +122 3 +182 3 *
Ve
1.00000000888178e-07
4.5 -1.10218211923262e-15 3
0 0

0101101
*
Ed
 1.00000000888178e-07 1 1 0
1  27 0 0 6.28318530717959
2  65 24 0 0 6.28318530717959
2  66 25 0 0 6.28318530717959
2  67 5 53 0 6.28318530717959
0

0101000
+120 0 -120 0 *
Wi

0101100
-119 52 *
Ve
1.00000000888178e-07
4.5 -1.10218211923262e-15 3
0 0

0101101
*
Ed
 1.00000000888178e-07 1 1 0
1  28 0 0 6.28318530717959
2  68 26 0 0 6.28318530717959
2  69 27 0 0 6.28318530717959
2  70 5 58 0 6.28318530717959
0

0101000
+117 0 -117 0 *
Wi

0101100
-116 57 *
Fa
0  1e-07 5 3

0101000
+121 0 +118 0 +115 0 *
Ed
 1e-07 1 1 0
1  29 0 0 6
2  71 9 0 0 6
2  72 17 0 0 6
2  73 10 4 0 6
0

0101000
-124 0 +177 0 *
Wi

0101100
-181 0 -122 0 +113 0 +174 0 *
Fa
0  1e-07 9 0

0101000
+112 0 *
Wi

0101100
+113 3 -123 3 +176 0 -127 11 -154 3 +135 11 -150 3 +139 8 *
Ve
1.50000001776357e-07
14.6942310009683 25.15 47.2567763172244
0 0

0101101
*
Ve
1.50000007105427e-07
20.2078180110348 25.15 47.2567763172244
0 0

0101101
*
Ed
 1.5e-07 1 1 0
1  30 0 1.34032199545088 6.85390900551738
2  74 10 0 1.34032199545088 6.85390900551738
2  75 28 63 1.34032199545088 6.85390900551738
0

0101000
+109 0 -108 0 *
Ve
1.50000007944109e-07
20.2078180110348 -25.15 47.2567763172244
0 0

0101101
*
Ed
 1.5e-07 1 1 0
1  31 0 -23.15 27.15
2  76 10 0 -23.15 27.15
2  77 29 63 -23.15 27.15
0

0101000
+108 0 -106 0 *
Ve
1.50000001776357e-07
14.6942310009683 -25.15 47.2567763172244
0 0

0101101
*
Ed
 1.5e-07 1 1 0
1  32 0 1.34032199545089 6.85390900551738
2  78 10 0 1.34032199545089 6.85390900551738
2  79 30 63 1.34032199545089 6.85390900551738
0

0101000
+104 0 -106 0 *
Ed
 1.5e-07 1 1 0
1  33 0 -23.15 27.15
2  80 10 0 -23.15 27.15
2  81 31 63 -23.15 27.15
0

0101000
+109 0 -104 0 *
Wi

0101100
-107 0 -105 0 +103 0 +102 0 *
Fa
0  1e-07 10 0

0101000
+110 0 +101 0 *
Ve
1.00000000444089e-07
3 -37.15 33.1925822379183
0 0

0101101
*
Ed
 1e-07 1 1 0
1  34 0 0 6.28318530717959
2  82 12 16 0 6.28318530717959
2  83 32 43 0 6.28318530717959
0

0101100
+99 0 -99 0 *
Ed
 1e-07 1 1 0
1  35 0 3 6
3  84 85CN 12 0 3 6
0

0101000
+172 64 -99 64 *
Wi

0101100
-98 0 +97 16 +171 0 -97 16 *
Fa
0  1e-07 12 16

0101000
+96 0 *
Ve
1.00000000444089e-07
3 -37.15 9.56419407930609
0 0

0101101
*
Ed
 1e-07 1 1 0
1  36 0 0 6.28318530717959
2  86 13 20 0 6.28318530717959
2  87 33 38 0 6.28318530717959
0

0101100
+94 0 -94 0 *
Ed
 1e-07 1 1 0
1  37 0 3 6
3  88 89CN 13 0 3 6
0

0101000
+169 65 -94 65 *
Wi

0101100
-93 0 +92 20 +168 0 -92 20 *
Fa
0  1e-07 13 20

0101000
+91 0 *
Ve
1.00000004010102e-07
8.08165645529423 -5.51091059616309e-16 24.195988335666
0 0

0101101
*
Ed
 1e-07 1 1 0
1  38 0 0 6.28318530717959
2  90 31 63 0 6.28318530717959
2  91 14 26 0 6.28318530717959
0

0101100
+89 0 -89 0 *
Ed
 1e-07 1 1 0
1  39 0 28.9426573487301 37.35
3  92 93CN 14 0 28.9426573487301 37.35
0

0101000
+166 66 -89 66 *
Wi

0101100
-88 0 +87 26 +165 0 -87 26 *
Fa
0  1e-07 14 26

0101000
+86 0 *
Ve
1.00000000444089e-07
3 37.15 33.1925822379183
0 0

0101101
*
Ed
 1e-07 1 1 0
1  40 0 0 6.28318530717959
2  94 15 30 0 6.28318530717959
2  95 34 57 0 6.28318530717959
0

0101100
+84 0 -84 0 *
Ed
 1e-07 1 1 0
1  41 0 3 6
3  96 97CN 15 0 3 6
0

0101000
+163 67 -84 67 *
Wi

0101100
-83 0 +82 30 +162 0 -82 30 *
Fa
0  1e-07 15 30

0101000
+81 0 *
Ve
1.00000000444089e-07
3 37.15 9.56419407930609
0 0

0101101
*
Ed
 1e-07 1 1 0
1  42 0 0 6.28318530717959
2  98 16 34 0 6.28318530717959
2  99 35 52 0 6.28318530717959
0

0101100
+79 0 -79 0 *
Ed
 1e-07 1 1 0
1  43 0 3 6
3  100 101CN 16 0 3 6
0

0101000
+160 68 -79 68 *
Wi

0101100
-78 0 +77 34 +159 0 -77 34 *
Fa
0  1e-07 16 34

0101000
+76 0 *
Ve
1e-07
4.5 -1.10218211923262e-15 0
0 0

0101101
*
Ed
 1e-07 1 1 0
1  44 0 0 3
3  102 103CN 18 0 0 3
0

0101000
-147 0 +74 0 *
Ed
 1e-07 1 1 0
1  45 0 0 6.28318530717959
2  104 18 0 0 6.28318530717959
2  105 33 0 0 6.28318530717959
0

0101000
+74 0 -74 0 *
Wi

0101100
-146 0 +73 0 +72 0 -73 0 *
Fa
0  1e-07 18 0

0111000
+71 0 *
Ve
1e-07
4.5 -1.10218211923262e-15 0
0 0

0101101
*
Ed
 1e-07 1 1 0
1  46 0 0 3
3  106 107CN 20 0 0 3
0

0101000
-144 0 +69 0 *
Ed
 1e-07 1 1 0
1  47 0 0 6.28318530717959
2  108 20 0 0 6.28318530717959
2  109 32 0 0 6.28318530717959
0

0101000
+69 0 -69 0 *
Wi

0101100
-143 0 +68 0 +67 0 -68 0 *
Fa
0  1e-07 20 0

0111000
+66 0 *
Ve
1e-07
4.5 -1.10218211923262e-15 0
0 0

0101101
*
Ed
 1e-07 1 1 0
1  48 0 0 3
3  110 111CN 23 0 0 3
0

0101000
+64 0 -133 69 *
Ed
 1e-07 1 1 0
1  49 0 0 6.28318530717959
2  112 23 0 0 6.28318530717959
2  113 36 0 0 6.28318530717959
0

0101000
+64 0 -64 0 *
Wi

0101100
-132 0 +63 48 +62 48 -63 48 *
Fa
0  1e-07 23 48

0101000
+61 0 *
Ve
1e-07
4.5 -1.10218211923262e-15 0
0 0

0101101
*
Ed
 1e-07 1 1 0
1  50 0 0 3
3  114 115CN 24 0 0 3
0

0101000
-120 0 +59 0 *
Ed
 1e-07 1 1 0
1  51 0 0 6.28318530717959
2  116 24 0 0 6.28318530717959
2  117 35 0 0 6.28318530717959
0

0101000
+59 0 -59 0 *
Wi

0101100
-119 0 +58 0 +57 0 -58 0 *
Fa
0  1e-07 24 0

0111000
+56 0 *
Ve
1e-07
4.5 -1.10218211923262e-15 0
0 0

0101101
*
Ed
 1e-07 1 1 0
1  52 0 0 3
3  118 119CN 26 0 0 3
0

0101000
-117 0 +54 0 *
Ed
 1e-07 1 1 0
1  53 0 0 6.28318530717959
2  120 26 0 0 6.28318530717959
2  121 34 0 0 6.28318530717959
0

0101000
+54 0 -54 0 *
Wi

0101100
-116 0 +53 0 +52 0 -53 0 *
Fa
0  1e-07 26 0

0111000
+51 0 *
Ve
1e-07
5.3 50.3 0
0 0

0101101
*
Ed
 1e-07 1 1 0
1  54 0 0 45.7598752722608
2  122 29 0 0 45.7598752722608
2  123 28 0 0 45.7598752722608
0

0101000
+49 0 -108 70 *
Ve
1e-07
0 50.3 0
0 0

0101101
*
Ed
 1e-07 1 1 0
1  55 0 0 44.2401247277392
2  124 31 0 0 44.2401247277392
2  125 28 0 0 44.2401247277392
0

0101000
+47 0 -109 70 *
Ed
 1e-07 1 1 0
1  56 0 0 5.3
2  126 28 0 0 5.3
2  127 37 0 0 5.3
0

0101000
-49 0 +47 0 *
Wi

0101100
-48 63 +107 0 +46 63 -45 63 *
Fa
0  1e-07 28 63

0101000
+44 0 *
Ve
1e-07
5.3 0 0
0 0

0101101
*
Ed
 1e-07 1 1 0
1  57 0 0 45.7598752722609
2  128 29 0 0 45.7598752722609
2  129 30 0 0 45.7598752722609
0

0101000
+42 0 -106 70 *
Ed
 1e-07 1 1 0
1  58 0 0 50.3
2  130 29 0 0 50.3
2  131 37 0 0 50.3
0

0101000
-49 0 +42 0 *
Wi

0101100
-41 63 +40 63 +105 0 +48 63 *
Ve
1.00000006428411e-07
13.1763434437673 -5.51091059616309e-16 22.7351103498359
0 0

0101101
*
Ed
 1e-07 1 1 0
1  59 0 0 6.28318530717959
2  132 29 63 0 6.28318530717959
2  133 14 26 0 6.28318530717959
0

0101100
+38 0 -38 0 *
Wi

0101100
-37 0 *
Fa
0  1e-07 29 63

0101000
+39 0 +36 0 *
Ve
1e-07
0 0 0
0 0

0101101
*
Ed
 1e-07 1 1 0
1  60 0 0 44.2401247277392
2  134 31 0 0 44.2401247277392
2  135 30 0 0 44.2401247277392
0

0101000
+34 0 -104 70 *
Ed
 1e-07 1 1 0
1  61 0 0 5.3
2  136 30 0 0 5.3
2  137 37 0 0 5.3
0

0101000
-42 0 +34 0 *
Wi

0101100
-41 63 +103 0 +33 63 -32 63 *
Fa
0  1e-07 30 63

0101000
+31 0 *
Ed
 1e-07 1 1 0
1  62 0 0 50.3
2  138 31 0 0 50.3
2  139 37 0 0 50.3
0

0101000
-47 0 +34 0 *
Wi

0101100
-33 63 +29 63 +102 0 +46 63 *
Wi

0101100
-88 0 *
Fa
0  1e-07 31 63

0101000
+28 0 +27 0 *
Wi

0101100
+67 43 *
Wi

0101100
-98 0 *
Fa
0  1e-07 32 43

0101000
+25 0 +24 0 *
Wi

0101100
+72 38 *
Wi

0101100
-93 0 *
Fa
0  1e-07 33 38

0101000
+22 0 +21 0 *
Wi

0101100
+52 57 *
Wi

0101100
-83 0 *
Fa
0  1e-07 34 57

0101000
+19 0 +18 0 *
Wi

0101100
+57 52 *
Wi

0101100
-78 0 *
Fa
0  1e-07 35 52

0101000
+16 0 +15 0 *
Wi

0101100
+62 48 *
Ve
1.00000004010102e-07
13.9886545482652 -5.51091059616309e-16 22.5021838888205
0 0

0101101
*
Ed
 1e-07 1 1 0
1  63 0 0 6.28318530717959
2  140 14 26 0 6.28318530717959
2  141 36 48 0 6.28318530717959
0

0101100
+12 0 -12 0 *
Wi

0101100
-11 0 *
Fa
0  1e-07 36 48

0101000
+13 0 +10 0 *
Wi

0101100
-29 0 -45 0 +40 0 +32 0 *
Fa
0  1e-07 37 0

0111000
+8 0 *
Ed
 1e-07 1 1 0
1  39 0 42.65 43.4950467837533
3  92 93CN 14 0 42.65 43.4950467837533
0

0101000
+38 66 -12 66 *
Wi

0101100
-11 0 +6 26 +37 0 -6 26 *
Fa
0  1e-07 14 26

0101000
+5 0 *
Sh

0101100
-179 0 -157 0 -152 3 +141 0 +136 0 -130 0 -125 0 +114 0 +111 3 -100 0 
-95 0 -90 0 -85 0 -80 0 -75 0 -70 38 -65 43 -60 0 -55 52 -50 57 
-43 0 -35 0 +30 0 +26 0 +23 0 +20 0 +17 0 +14 0 +9 0 +7 63 
-4 0 *
So

0100000
+3 0 *
Co

1100000
+2 0 *

+1 0 