DBRep_DrawableShape

CASCADE Topology V3, (c) Open Cascade
Locations 4
1
              1               0               0              -2 
              0               1               0            -0.6 
              0               0               1           -2.75 
1
              1               0               0               8 
              0               1               0              67 
              0               0               1               3 
2  1 1 2 1 0
2  2 -1 1 -1 0
Curve2ds 52
1 0 0 1 0 
1 0 0 1 0 
1 6 0 0 -1 
1 0 0 0 1 
1 0 -70 1 0 
1 0 0 1 0 
1 0 0 0 -1 
1 0 0 0 1 
1 0 0 0 1 
1 0 0 1 0 
1 0 0 1 0 
1 0 6 1 0 
1 6 0 0 1 
1 0 0 1 0 
1 6 0 0 1 
1 0 70 1 0 
1 6 0 0 -1 
1 6 0 0 1 
1 0 0 0 1 
1 0 70 1 0 
1 0 -70 1 0 
1 0 6 1 0 
1 0 0 0 -1 
1 6 0 0 1 
1 0 0 1 0 
1 0 0 1 0 
1 0.25 -66.400000000000006 1 0 
1 0 0 0 -1 
1 0 0 0 1 
1 0.25 -66.400000000000006 0 -1 
1 0 -1.2 1 0 
1 0 0 1 0 
1 0.25 -67.600000000000009 1 0 
1 5.5 0 0 -1 
1 0 0 0 1 
1 5.75 -66.400000000000006 0 -1 
1 0 0 0 1 
1 0 0 1 0 
1 0 0 1 0 
1 0 4 1 0 
1 5.5 0 0 1 
1 0 0 1 0 
1 0 0 0 1 
1 0 1.2 1 0 
1 0 0 0 -1 
1 4 0 0 1 
1 0 -1.2 1 0 
1 0 4 1 0 
1 5.5 0 0 1 
1 0 1.2 1 0 
1 5.5 0 0 -1 
1 4 0 0 1 
Curves 24
1 0 0 0 0 0 1 
1 0 0 6 -0 1 0 
1 0 70 0 0 0 1 
1 0 0 0 -0 1 0 
1 0 0 0 1 0 -0 
1 6 0 0 0 0 1 
1 0 0 6 1 0 -0 
1 0 70 6 1 0 -0 
1 6 0 6 -0 1 0 
1 0 70 0 1 0 -0 
1 6 70 0 0 0 1 
1 6 0 0 -0 1 0 
1 0 0 0 0 0 1 
1 0 0 0 -0 1 0 
1 0 1.2 0 0 0 1 
1 0 0 5.5 -0 1 0 
1 0 0 0 1 0 -0 
1 4 0 0 0 0 1 
1 0 0 5.5 1 0 -0 
1 0 1.2 0 1 0 -0 
1 4 0 0 -0 1 0 
1 4 1.2 0 0 0 1 
1 0 1.2 5.5 1 0 -0 
1 4 0 5.5 -0 1 0 
Polygon3D 0
PolygonOnTriangulations 0
Surfaces 12
1 0 0 0 1 0 -0 0 0 1 0 -1 0 
1 0 0 0 -0 1 0 0 0 1 1 0 -0 
1 0 0 6 0 0 1 1 0 -0 -0 1 0 
1 0 70 0 -0 1 0 0 0 1 1 0 -0 
1 0 0 0 0 0 1 1 0 -0 -0 1 0 
1 6 0 0 1 0 -0 0 0 1 0 -1 0 
1 0 0 0 1 0 -0 0 0 1 0 -1 0 
1 0 0 0 -0 1 0 0 0 1 1 0 -0 
1 0 0 0 0 0 1 1 0 -0 -0 1 0 
1 0 1.2 0 -0 1 0 0 0 1 1 0 -0 
1 0 0 5.5 0 0 1 1 0 -0 -0 1 0 
1 4 0 0 1 0 -0 0 0 1 0 -1 0 
Triangulations 0

TShapes 66
Ve
1e-07
0 0 6
0 0

0101101
*
Ve
1e-07
0 0 0
0 0

0101101
*
Ed
 1e-07 1 1 0
1  1 0 0 6
2  1 1 0 0 6
2  2 2 0 0 6
0

0101000
-66 0 +65 0 *
Ve
1e-07
0 70 6
0 0

0101101
*
Ed
 1e-07 1 1 0
1  2 0 0 70
2  3 1 0 0 70
2  4 3 0 0 70
0

0101000
-63 0 +66 0 *
Ve
1e-07
0 70 0
0 0

0101101
*
Ed
 1e-07 1 1 0
1  3 0 0 6
2  5 1 0 0 6
2  6 4 0 0 6
0

0101000
-63 0 +61 0 *
Ed
 1e-07 1 1 0
1  4 0 0 70
2  7 1 0 0 70
2  8 5 0 0 70
0

0101000
-61 0 +65 0 *
Wi

0101100
-64 0 -62 0 +60 0 +59 0 *
Fa
0  1e-07 1 0

0111000
+58 0 *
Ve
1e-07
6 0 0
0 0

0101101
*
Ed
 1e-07 1 1 0
1  5 0 0 6
2  9 2 0 0 6
2  10 5 0 0 6
0

0101000
-56 0 +65 0 *
Ve
1e-07
6 0 6
0 0

0101101
*
Ed
 1e-07 1 1 0
1  6 0 0 6
2  11 6 0 0 6
2  12 2 0 0 6
0

0101000
-54 0 +56 0 *
Ed
 1e-07 1 1 0
1  7 0 0 6
2  13 2 0 0 6
2  14 3 0 0 6
0

0101000
-54 0 +66 0 *
Wi

0101100
-55 0 -53 0 +52 0 +64 0 *
Fa
0  1e-07 2 0

0111000
+51 0 *
Ve
1e-07
6 70 6
0 0

0101101
*
Ed
 1e-07 1 1 0
1  8 0 0 6
2  15 4 0 0 6
2  16 3 0 0 6
0

0101000
-49 0 +63 0 *
Ed
 1e-07 1 1 0
1  9 0 0 70
2  17 6 0 0 70
2  18 3 0 0 70
0

0101000
-49 0 +54 0 *
Wi

0101100
-62 0 -48 0 +47 0 +52 0 *
Fa
0  1e-07 3 0

0111000
+46 0 *
Ve
1e-07
6 70 0
0 0

0101101
*
Ed
 1e-07 1 1 0
1  10 0 0 6
2  19 4 0 0 6
2  20 5 0 0 6
0

0101000
-44 0 +61 0 *
Ed
 1e-07 1 1 0
1  11 0 0 6
2  21 6 0 0 6
2  22 4 0 0 6
0

0101000
-49 0 +44 0 *
Wi

0101100
-43 0 -42 0 +48 0 +60 0 *
Fa
0  1e-07 4 0

0111000
+41 0 *
Ed
 1e-07 1 1 0
1  12 0 0 70
2  23 6 0 0 70
2  24 5 0 0 70
0

0101000
-44 0 +56 0 *
Wi

0101100
-59 0 -43 0 +39 0 +55 0 *
Fa
0  1e-07 5 0

0111000
+38 0 *
Wi

0101100
-53 0 -47 0 +39 0 +42 0 *
Ve
1e-07
0 0 5.5
0 0

0101101
*
Ve
1e-07
0 0 0
0 0

0101101
*
Ed
 1e-07 1 1 0
1  13 0 0 5.5
2  25 7 0 0 5.5
2  26 8 0 0 5.5
2  27 6 4 0 5.5
0

0101000
-35 0 +34 0 *
Ve
1e-07
0 1.2 0
0 0

0101101
*
Ed
 1e-07 1 1 0
1  14 0 0 1.2
2  28 7 0 0 1.2
2  29 9 0 0 1.2
2  30 6 4 0 1.2
0

0101000
-32 0 +34 0 *
Ve
1e-07
0 1.2 5.5
0 0

0101101
*
Ed
 1e-07 1 1 0
1  15 0 0 5.5
2  31 7 0 0 5.5
2  32 10 0 0 5.5
2  33 6 4 0 5.5
0

0101000
-30 0 +32 0 *
Ed
 1e-07 1 1 0
1  16 0 0 1.2
2  34 7 0 0 1.2
2  35 11 0 0 1.2
2  36 6 4 0 1.2
0

0101000
-30 0 +35 0 *
Wi

0101100
+33 3 -31 3 -29 3 +28 3 *
Fa
0  1e-07 6 0

0101000
+36 0 +27 0 *
Ve
1e-07
4 0 0
0 0

0101101
*
Ed
 1e-07 1 1 0
1  17 0 0 4
2  37 8 0 0 4
2  38 9 0 0 4
0

0101000
-25 0 +34 0 *
Ve
1e-07
4 0 5.5
0 0

0101101
*
Ed
 1e-07 1 1 0
1  18 0 0 5.5
2  39 12 0 0 5.5
2  40 8 0 0 5.5
0

0101000
-23 0 +25 0 *
Ed
 1e-07 1 1 0
1  19 0 0 4
2  41 8 0 0 4
2  42 11 0 0 4
0

0101000
-23 0 +35 0 *
Wi

0101100
-24 0 -22 0 +21 0 +33 0 *
Fa
0  1e-07 8 0

0111000
+20 0 *
Ve
1e-07
4 1.2 0
0 0

0101101
*
Ed
 1e-07 1 1 0
1  20 0 0 4
2  43 10 0 0 4
2  44 9 0 0 4
0

0101000
-18 0 +32 0 *
Ed
 1e-07 1 1 0
1  21 0 0 1.2
2  45 12 0 0 1.2
2  46 9 0 0 1.2
0

0101000
-18 0 +25 0 *
Wi

0101100
-31 0 -17 0 +16 0 +24 0 *
Fa
0  1e-07 9 0

0111000
+15 0 *
Ve
1e-07
4 1.2 5.5
0 0

0101101
*
Ed
 1e-07 1 1 0
1  22 0 0 5.5
2  47 12 0 0 5.5
2  48 10 0 0 5.5
0

0101000
-13 0 +18 0 *
Ed
 1e-07 1 1 0
1  23 0 0 4
2  49 10 0 0 4
2  50 11 0 0 4
0

0101000
-13 0 +30 0 *
Wi

0101100
-17 0 -12 0 +11 0 +29 0 *
Fa
0  1e-07 10 0

0111000
+10 0 *
Ed
 1e-07 1 1 0
1  24 0 0 1.2
2  51 12 0 0 1.2
2  52 11 0 0 1.2
0

0101000
-13 0 +23 0 *
Wi

0101100
-28 0 -11 0 +8 0 +21 0 *
Fa
0  1e-07 11 0

0111000
+7 0 *
Wi

0101100
-22 0 -8 0 +12 0 +16 0 *
Fa
0  1e-07 12 0

0111000
+5 0 *
Sh

0101100
-57 0 -50 0 +45 0 +40 0 -37 0 +26 0 -19 3 -14 3 +9 3 +6 3 
+4 3 *
So

0100000
+3 0 *
Co

1100000
+2 0 *

+1 0 