DBRep_DrawableShape

CASCADE Topology V3, (c) Open Cascade
Locations 7
1
0.707106781186547 0.707106781186548               0               0 
-0.707106781186548 0.707106781186547              -0               0 
             -0               0               1               0 
1
              1               0               0           -50.8 
              0               1               0               0 
              0               0               1               0 
2  1 1 2 1 0
1
              1               0               0           -50.8 
              0               1               0          -101.6 
              0               0               1           -38.1 
1
              1               0               0 -79.8211111394543 
              0               1               0               0 
              0               0               1           19.05 
2  4 1 5 1 0
2  2 -1 1 -1 0
Curve2ds 41
8 0 38.099999999999994
1 -5.4894444302728536 -19.049999999999997 0 1 
8 0 38.099999999999994
1 19.049999999999997 -123.37888886054563 1 0 
8 0 38.099999999999994
1 -5.4894444302728465 -19.049999999999997 0 1 
8 0 38.099999999999994
1 19.049999999999997 -79.821111139454345 1 0 
1 -36.28944443027283 0 -1 0 
1 0 19.049999999999997 1 0 
1 0 0 0 1 
1 14.510555569727167 0 0 1 
8 3.6341666454092483 32.655277784863586
1 -18.144722215136415 -0.24999999999999645 1 0 
8 3.6341666454092483 32.655277784863586
1 -18.144722215136415 0 -1 0 
1 6.2831853071795862 0 0 1 
1 0 0 0 1 
1 -2.2999999999999998 0 0 1 
1 9.9105555697271726 -7.6499999999999968 0 1 
8 3.6341666454092483 32.655277784863586
1 -18.144722215136415 -15.049999999999997 1 0 
8 3.6341666454092483 32.655277784863586
1 -18.144722215136415 0 -1 0 
1 -36.28944443027283 0 -1 0 
1 0 -19.049999999999997 1 0 
2 0 0 -1 0 0 1 50.799999999999997
1 0 -7.4000000000000004 1 0 
1 0 -15.049999999999997 1 0 
1 1.5707963267948966 0 0 1 
2 0 0 -1 0 0 1 50.799999999999997
1 0 -19.049999999999997 1 0 
8 3.6341666454092483 32.655277784863586
1 -18.144722215136415 -15.049999999999997 1 0 
8 3.6341666454092483 32.655277784863586
1 -2.0144688378672021e-15 18.144722215136415 -1.1102230246251565e-16 1 
1 0 -7.4000000000000004 1 0 
2 0 0 -1 0 0 1 46.200000000000003
1 0 7.4000000000000004 1 0 
2 0 0 -1 0 0 1 46.200000000000003
8 -7.4000006000000003 7.4000006000000003
1 9.9105555697271726 -7.6499999999999968 0 1 
8 -7.4000006000000003 7.4000006000000003
1 1.5707963267948966 0 0 1 
1 0 7.4000000000000004 1 0 
2 0 0 -1 0 0 1 50.799999999999997
1 0 -0.24999999999999645 1 0 
8 3.6341666454092483 32.655277784863586
1 -18.144722215136415 -0.24999999999999645 1 0 
8 3.6341666454092483 32.655277784863586
1 -2.0144688378672021e-15 18.144722215136415 -1.1102230246251565e-16 1 
1 0 19.049999999999997 1 0 
2 0 0 -1 0 0 1 50.799999999999997
1 -4.0289376757344042e-15 36.28944443027283 -1.1102230246251565e-16 1 
1 -4.0289376757344042e-15 36.28944443027283 -1.1102230246251565e-16 1 
Curves 22
8 0 43.557777721091298
1 -29.021111139454348 21.778888860545642 0 0 -1 0 
1 -29.021111139454348 21.778888860545642 0 0 0 1 
8 0 43.557777721091298
1 -29.021111139454348 -21.778888860545653 38.099999999999994 0 1 0 
1 -29.021111139454348 -21.778888860545653 0 0 0 1 
1 36.28944443027283 0 38.099999999999994 1 0 0 
1 50.799999999999997 0 19.049999999999997 0 0 1 
1 18.144722215136415 0 18.800000000000001 1 0 -0 
1 46.200000000000003 0 11.4 0 0 1 
1 18.144722215136415 0 4 1 0 -0 
1 36.28944443027283 0 0 1 0 0 
2 0 0 4 0 0 1 1 0 -0 -0 1 0 50.799999999999997
1 5.6399329650957949e-15 50.799999999999997 19.049999999999997 0 0 1 
2 0 0 0 0 0 1 1 0 -0 -0 1 0 50.799999999999997
1 2.0144688378672021e-15 18.144722215136415 4 1.1102230246251565e-16 1 -0 
2 0 0 4 0 0 1 1 0 -0 -0 1 0 46.200000000000003
2 0 0 18.800000000000001 0 0 1 1 0 -0 -0 1 0 46.200000000000003
1 5.1292303737682235e-15 46.200000000000003 11.4 0 0 1 
2 0 0 18.800000000000001 0 0 1 1 0 -0 -0 1 0 50.799999999999997
1 2.0144688378672021e-15 18.144722215136415 18.800000000000001 1.1102230246251565e-16 1 -0 
2 0 0 38.099999999999994 0 0 1 1 0 -0 -0 1 0 50.799999999999997
1 4.0289376757344042e-15 36.28944443027283 38.099999999999994 1.1102230246251565e-16 1 0 
1 4.0289376757344042e-15 36.28944443027283 0 1.1102230246251565e-16 1 0 
Polygon3D 0
PolygonOnTriangulations 0
Surfaces 12
1 -29.021111139454348 -101.59999999999999 -19.049999999999997 1 0 -0 0 0 1 0 -1 0 
1 4.0289376757344042e-15 36.28944443027283 19.049999999999997 1 -1.1102230246251565e-16 0 1.1102230246251565e-16 1 0 0 0 1 
1 101.59999999999999 0 0 1 0 -0 0 0 1 0 -1 0 
1 36.28944443027283 0 19.049999999999997 0 -1 0 1 0 0 0 0 1 
1 0 0 38.099999999999994 0 0 1 -1 -0 0 -0 1 0 
2 0 0 19.049999999999997 0 0 1 1 0 -0 -0 1 0 50.799999999999997
1 0 0 18.800000000000001 0 0 1 -1 -0 0 -0 1 0 
2 0 0 11.4 0 0 1 1 0 -0 -0 1 0 46.200000000000003
1 48.5 0 11.4 0 -1 0 1 0 0 0 0 1 
1 0 0 4 0 0 1 -1 -0 0 -0 1 0 
1 0 0 0 0 0 1 -1 -0 0 -0 1 0 
2 0 0 11.4 0 0 1 1 0 -0 -0 1 0 50.799999999999997
Triangulations 0

TShapes 63
Ve
1.50000007105427e-07
-29.0211111394543 21.7788888605456 0
0 0

0101101
*
Ve
1.50000003552714e-07
-29.0211111394543 -21.7788888605457 0
0 0

0101101
*
Ed
 1e-07 1 1 0
1  1 0 0 43.5577777210913
0

0101000
+63 0 -62 0 *
Ve
1.50000007105427e-07
-29.0211111394543 21.7788888605456 38.1
0 0

0101101
*
Ed
 1.5e-07 1 1 0
1  2 0 0 38.1
2  1 2 3 0 38.1
2  2 3 6 0 38.1
0

0101000
+63 0 -60 0 *
Ve
1.50000003552714e-07
-29.0211111394543 -21.7788888605457 38.1
0 0

0101101
*
Ed
 1e-07 1 1 0
1  3 0 0 43.5577777210913
0

0101000
+58 0 -60 0 *
Ed
 1.5e-07 1 1 0
1  4 0 0 38.1
2  3 4 3 0 38.1
2  4 3 6 0 38.1
0

0101000
+62 0 -58 0 *
Wi

0101100
-61 0 +59 0 -57 0 -56 0 *
Fa
0  0 1 0

0111000
+55 0 *
Ve
1e-07
50.8 0 38.1
0 0

0101101
*
Ed
 1e-07 1 1 0
1  5 0 -5.48944443027285 14.5105555697272
2  5 5 0 -5.48944443027285 14.5105555697272
2  6 4 0 -5.48944443027285 14.5105555697272
0

0101000
+58 7 -53 0 *
Ve
2.12133034355964e-07
50.8 0 18.8
0 0

0101101
*
Ed
 1e-07 1 1 0
1  6 0 -0.249999999999996 19.05
2  7 6 0 -0.249999999999996 19.05
2  8 4 0 -0.249999999999996 19.05
0

0101000
+51 0 -53 0 *
Ve
1.5e-07
46.2 0 18.8
0 0

0101101
*
Ed
 1.5e-07 1 1 0
1  7 0 28.0552777848636 32.6552777848636
2  9 4 0 28.0552777848636 32.6552777848636
2  10 7 0 28.0552777848636 32.6552777848636
0

0101000
+49 0 -51 0 *
Ve
1.5e-07
46.2 0 4
0 0

0101101
*
Ed
 1e-07 1 1 0
1  8 0 -7.4 7.4
3  11 12CN 8 0 -7.4 7.4
2  13 9 0 -7.4 7.4
2  14 4 0 -7.4 7.4
0

0101000
+47 0 -49 0 *
Ve
2.12133034355964e-07
50.8 0 4
0 0

0101101
*
Ed
 1.5e-07 1 1 0
1  9 0 28.0552777848636 32.6552777848636
2  15 4 0 28.0552777848636 32.6552777848636
2  16 10 0 28.0552777848636 32.6552777848636
0

0101000
+47 0 -45 0 *
Ve
1e-07
50.8 0 0
0 0

0101101
*
Ed
 1e-07 1 1 0
1  6 0 -19.05 -15.05
2  7 6 0 -19.05 -15.05
2  8 4 0 -19.05 -15.05
0

0101000
+43 0 -45 0 *
Ed
 1e-07 1 1 0
1  10 0 -5.48944443027285 14.5105555697272
2  17 11 0 -5.48944443027285 14.5105555697272
2  18 4 0 -5.48944443027285 14.5105555697272
0

0101000
+62 7 -43 0 *
Wi

0101100
-56 0 -52 3 +50 3 +48 3 +46 3 -44 3 +42 3 +41 3 *
Fa
0  1e-07 4 3

0101000
+40 0 *
Ve
1.50000856005146e-07
8.61645078612026e-13 50.8 4
0 0

0101101
*
Ed
 1.00000010658141e-07 1 1 0
1  11 0 0 1.57079632679488
2  19 10 0 0 1.57079632679488
2  20 12 0 0 1.57079632679488
2  21 6 0 0 1.57079632679488
0

0101000
+45 0 -38 0 *
Ve
1e-07
5.63993296509579e-15 50.8 0
0 0

0101101
*
Ed
 1e-07 1 1 0
1  12 0 -19.05 -15.05
2  22 6 0 -19.05 -15.05
2  8 2 0 -19.05 -15.05
0

0101000
+36 0 -38 0 *
Ed
 1e-07 1 1 0
1  13 0 0 1.5707963267949
2  23 11 0 0 1.5707963267949
2  24 6 0 0 1.5707963267949
0

0101000
+43 0 -36 0 *
Wi

0101100
-42 0 -37 0 +35 0 +34 0 *
Fa
0  1e-07 6 0

0101000
+33 0 *
Ve
1.50000002300296e-07
2.82893410603039e-15 46.2 4
0 0

0101101
*
Ed
 1.5e-07 1 1 0
1  14 0 28.0552777848636 32.6552777848636
2  25 2 0 28.0552777848636 32.6552777848636
2  26 10 0 28.0552777848636 32.6552777848636
0

0101000
+31 0 -38 0 *
Ed
 1e-07 1 1 0
1  15 0 0 1.5707963267949
2  27 8 0 0 1.5707963267949
2  28 10 0 0 1.5707963267949
0

0101000
+47 0 -31 0 *
Wi

0101100
-44 0 -37 0 +30 0 +29 0 *
Fa
0  1e-07 10 0

0101000
+28 0 *
Ve
1.50000002300296e-07
2.82893410603039e-15 46.2 18.8
0 0

0101101
*
Ed
 1e-07 1 1 0
1  16 0 0 1.5707963267949
2  29 8 0 0 1.5707963267949
2  30 7 0 0 1.5707963267949
0

0101000
+49 0 -26 0 *
Ed
 1e-07 1 1 0
1  17 0 -7.4 7.4
2  31 2 0 -7.4 7.4
2  32 8 0 -7.4 7.4
0

0101000
+31 0 -26 0 *
Wi

0101100
-46 0 -25 0 +24 0 +29 0 *
Fa
0  1e-07 8 0

0101000
+23 0 *
Ve
1.50000856005146e-07
8.61645078612026e-13 50.8 18.8
0 0

0101101
*
Ed
 1.00000010658141e-07 1 1 0
1  18 0 0 1.57079632679488
2  33 12 0 0 1.57079632679488
2  34 7 0 0 1.57079632679488
2  35 6 0 0 1.57079632679488
0

0101000
+51 0 -21 0 *
Ed
 1.5e-07 1 1 0
1  19 0 28.0552777848636 32.6552777848636
2  36 2 0 28.0552777848636 32.6552777848636
2  37 7 0 28.0552777848636 32.6552777848636
0

0101000
+26 0 -21 0 *
Wi

0101100
-48 0 -20 0 +19 0 +25 0 *
Fa
0  1e-07 7 0

0101000
+18 0 *
Ve
1e-07
5.63993296509579e-15 50.8 38.1
0 0

0101101
*
Ed
 1e-07 1 1 0
1  20 0 0 1.5707963267949
2  38 6 0 0 1.5707963267949
2  39 5 0 0 1.5707963267949
0

0101000
+53 0 -16 0 *
Ed
 1e-07 1 1 0
1  12 0 -0.249999999999996 19.05
2  22 6 0 -0.249999999999996 19.05
2  8 2 0 -0.249999999999996 19.05
0

0101000
+21 0 -16 0 *
Wi

0101100
-50 0 -15 0 +14 0 +20 0 *
Fa
0  1e-07 6 0

0101000
+13 0 *
Ed
 1e-07 1 1 0
1  21 0 -5.48944443027285 14.5105555697272
2  40 5 0 -5.48944443027285 14.5105555697272
2  6 2 0 -5.48944443027285 14.5105555697272
0

0101000
+60 7 -16 0 *
Wi

0101100
+57 0 +11 3 -15 3 -52 3 *
Fa
0  1e-07 5 3

0111000
+10 0 *
Ed
 1e-07 1 1 0
1  22 0 -5.48944443027285 14.5105555697272
2  41 11 0 -5.48944443027285 14.5105555697272
2  18 2 0 -5.48944443027285 14.5105555697272
0

0101000
+63 7 -36 0 *
Wi

0101100
-59 0 -11 3 +14 3 +19 3 +24 3 -30 3 +35 3 +8 3 *
Fa
0  1e-07 2 3

0101000
+7 0 *
Wi

0101100
-41 3 -61 0 +8 3 -34 3 *
Fa
0  1e-07 11 3

0111000
+5 0 *
Sh

0101100
-54 0 +39 0 +32 3 -27 3 +22 3 +17 3 +12 3 -9 0 -6 0 +4 0 
*
So

0100000
+3 0 *
Co

1100000
+2 0 *

+1 0 