DBRep_DrawableShape

CASCADE Topology V3, (c) Open Cascade
Locations 4
1
              1               0               0             -10 
              0               1               0           -38.1 
              0               0               1          -19.05 
1
              1               0               0             -10 
              0               1               0               0 
              0               0               1           19.05 
2  1 1 2 1 0
2  2 -1 1 -1 0
Curve2ds 46
1 0 0 1 0 
1 0 0 1 0 
1 38.099999999999994 0 0 -1 
1 0 0 0 1 
1 0 -76.199999999999989 1 0 
1 0 0 1 0 
1 0 0 0 -1 
1 0 0 0 1 
1 0 0 1 0 
1 0 20 1 0 
8 -12.300000000000001 -7.7000000000000011
1 4 7.6999999999999993 0 -1 
8 -12.300000000000001 -7.7000000000000011
1 -7.7000000000000011 38.099999999999994 -1 -0 
8 -16.800000000000001 -2
1 2 15.4 -1 0 
8 -16.800000000000001 -2
1 -2 38.099999999999994 -1 -0 
8 -12.300000000000001 -7.7000000000000011
1 18.800000000000001 7.6999999999999993 0 -1 
8 -12.300000000000001 -7.7000000000000011
1 -7.7000000000000011 38.099999999999994 -1 -0 
1 38.099999999999994 0 0 1 
1 0 0 1 0 
1 0 0 0 1 
1 0 0 1 0 
1 38.099999999999994 0 0 1 
1 0 76.199999999999989 1 0 
1 38.099999999999994 0 0 -1 
1 20 0 0 1 
1 0 -76.199999999999989 1 0 
1 0 20 1 0 
8 -12.300000000000001 -7.7000000000000011
1 4 7.6999999999999993 0 -1 
8 -12.300000000000001 -7.7000000000000011
1 -7.7000000000000011 -38.099999999999994 -1 -0 
8 -16.800000000000001 -2
1 2 15.4 -1 0 
8 -16.800000000000001 -2
1 -2 -38.099999999999994 -1 -0 
8 -12.300000000000001 -7.7000000000000011
1 18.800000000000001 7.6999999999999993 0 -1 
8 -12.300000000000001 -7.7000000000000011
1 -7.7000000000000011 -38.099999999999994 -1 -0 
1 0 0 0 1 
1 0 76.199999999999989 1 0 
1 0 0 0 -1 
1 20 0 0 1 
1 0 -76.199999999999989 0 1 
1 4.5999999999999996 -76.199999999999989 0 1 
1 4 -114.29999999999998 0 1 
1 0 -76.199999999999989 0 1 
1 0 -76.199999999999989 0 1 
1 0 76.199999999999989 0 -1 
1 14.800000000000001 76.199999999999989 0 -1 
1 14.800000000000001 76.199999999999989 0 -1 
1 4.5999999999999996 76.199999999999989 0 -1 
1 18.800000000000001 38.099999999999994 0 -1 
Curves 22
1 0 0 0 0 0 1 
1 0 0 38.099999999999994 -0 1 0 
1 0 76.199999999999989 0 0 0 1 
1 0 0 0 -0 1 0 
1 20 0 0 0 0 1 
1 -12.300000000000001 -38.099999999999994 4 -1 0 -0 
1 -4.5999999999999996 -38.099999999999994 2 -0 0 -1 
1 -12.300000000000001 -38.099999999999994 18.800000000000001 -1 0 -0 
1 0 0 38.099999999999994 1 0 -0 
1 0 0 0 1 0 -0 
1 0 76.199999999999989 38.099999999999994 1 0 -0 
1 20 0 38.099999999999994 -0 1 0 
1 20 76.199999999999989 0 0 0 1 
1 -12.300000000000001 38.099999999999994 4 -1 0 -0 
1 -4.5999999999999996 38.099999999999994 2 -0 0 -1 
1 -12.300000000000001 38.099999999999994 18.800000000000001 -1 0 -0 
1 0 76.199999999999989 0 1 0 -0 
1 20 0 0 -0 1 0 
8 0 152.39999999999998
1 0 76.199999999999989 4 0 -1 0 
8 0 152.39999999999998
1 -4.5999999999999996 76.199999999999989 4 0 -1 0 
8 0 152.39999999999998
1 -4.5999999999999996 -76.199999999999989 18.800000000000001 0 1 0 
8 0 152.39999999999998
1 0 -76.199999999999989 18.800000000000001 0 1 0 
Polygon3D 0
PolygonOnTriangulations 0
Surfaces 10
1 0 0 0 1 0 -0 0 0 1 0 -1 0 
1 0 0 0 -0 1 0 0 0 1 1 0 -0 
1 0 0 38.099999999999994 0 0 1 1 0 -0 -0 1 0 
1 0 76.199999999999989 0 -0 1 0 0 0 1 1 0 -0 
1 0 0 0 0 0 1 1 0 -0 -0 1 0 
1 20 0 0 1 0 -0 0 0 1 0 -1 0 
1 -4.5999999999999996 0 4 0 0 -1 1 0 0 0 -1 0 
1 -4.5999999999999996 0 4 1 0 -0 0 0 1 0 -1 0 
1 -4.5999999999999996 0 18.800000000000001 0 0 -1 1 0 0 0 -1 0 
1 0 0 4 1 0 -0 0 0 1 0 -1 0 
Triangulations 0

TShapes 63
Ve
1e-07
0 0 38.1
0 0

0101101
*
Ve
1e-07
0 0 0
0 0

0101101
*
Ed
 1e-07 1 1 0
1  1 0 0 38.1
2  1 1 0 0 38.1
2  2 2 0 0 38.1
0

0101000
-63 0 +62 0 *
Ve
1e-07
0 76.2 38.1
0 0

0101101
*
Ed
 1e-07 1 1 0
1  2 0 0 76.2
2  3 1 0 0 76.2
2  4 3 0 0 76.2
0

0101000
-60 0 +63 0 *
Ve
1e-07
0 76.2 0
0 0

0101101
*
Ed
 1e-07 1 1 0
1  3 0 0 38.1
2  5 1 0 0 38.1
2  6 4 0 0 38.1
0

0101000
-60 0 +58 0 *
Ed
 1e-07 1 1 0
1  4 0 0 76.2
2  7 1 0 0 76.2
2  8 5 0 0 76.2
0

0101000
-58 0 +62 0 *
Wi

0101100
-61 0 -59 0 +57 0 +56 0 *
Fa
0  1e-07 1 0

0111000
+55 0 *
Ve
1e-07
20 0 0
0 0

0101101
*
Ve
1.5e-07
0 -38.1 4
0 0

0101101
*
Ed
 1e-07 1 1 0
1  5 0 0 4
2  9 6 0 0 4
2  10 2 0 0 4
0

0101000
+53 0 -52 4 *
Ve
1.5e-07
-4.6 -38.1 4
0 0

0101101
*
Ed
 1.5e-07 1 1 0
1  6 0 -12.3 -7.7
2  11 2 3 -12.3 -7.7
2  12 7 0 -12.3 -7.7
0

0101000
+52 0 -50 0 *
Ve
1.5e-07
-4.6 -38.1 18.8
0 0

0101101
*
Ed
 1.5e-07 1 1 0
1  7 0 -16.8 -2
2  13 2 3 -16.8 -2
2  14 8 0 -16.8 -2
0

0101000
+48 0 -50 0 *
Ve
1.5e-07
0 -38.1 18.8
0 0

0101101
*
Ed
 1.5e-07 1 1 0
1  8 0 -12.3 -7.7
2  15 2 3 -12.3 -7.7
2  16 9 0 -12.3 -7.7
0

0101000
+46 0 -48 0 *
Ve
1e-07
20 0 38.1
0 0

0101101
*
Ed
 1e-07 1 1 0
1  5 0 18.8 38.1
2  9 6 0 18.8 38.1
2  10 2 0 18.8 38.1
0

0101000
+46 4 -44 0 *
Ed
 1e-07 1 1 0
1  9 0 0 20
2  17 2 0 0 20
2  18 3 0 0 20
0

0101000
-44 0 +63 0 *
Ed
 1e-07 1 1 0
1  10 0 0 20
2  19 2 0 0 20
2  20 5 0 0 20
0

0101000
-53 0 +62 0 *
Wi

0101100
-51 3 -49 0 +47 0 +45 0 -43 3 +42 3 +61 3 -41 3 *
Fa
0  1e-07 2 3

0101000
+40 0 *
Ve
1e-07
20 76.2 38.1
0 0

0101101
*
Ed
 1e-07 1 1 0
1  11 0 0 20
2  21 4 0 0 20
2  22 3 0 0 20
0

0101000
-38 0 +60 0 *
Ed
 1e-07 1 1 0
1  12 0 0 76.2
2  23 6 0 0 76.2
2  24 3 0 0 76.2
0

0101000
-38 0 +44 0 *
Wi

0101100
-59 0 -37 0 +36 0 +42 0 *
Fa
0  1e-07 3 0

0111000
+35 0 *
Ve
1e-07
20 76.2 0
0 0

0101101
*
Ve
1.5e-07
0 38.1 4
0 0

0101101
*
Ed
 1e-07 1 1 0
1  13 0 0 4
2  25 6 0 0 4
2  26 4 0 0 4
0

0101000
+33 0 -32 4 *
Ve
1.5e-07
-4.6 38.1 4
0 0

0101101
*
Ed
 1.5e-07 1 1 0
1  14 0 -12.3 -7.7
2  27 4 3 -12.3 -7.7
2  28 7 0 -12.3 -7.7
0

0101000
+32 0 -30 0 *
Ve
1.5e-07
-4.6 38.1 18.8
0 0

0101101
*
Ed
 1.5e-07 1 1 0
1  15 0 -16.8 -2
2  29 4 3 -16.8 -2
2  30 8 0 -16.8 -2
0

0101000
+28 0 -30 0 *
Ve
1.5e-07
0 38.1 18.8
0 0

0101101
*
Ed
 1.5e-07 1 1 0
1  16 0 -12.3 -7.7
2  31 4 3 -12.3 -7.7
2  32 9 0 -12.3 -7.7
0

0101000
+26 0 -28 0 *
Ed
 1e-07 1 1 0
1  13 0 18.8 38.1
2  25 6 0 18.8 38.1
2  26 4 0 18.8 38.1
0

0101000
+26 4 -38 0 *
Ed
 1e-07 1 1 0
1  17 0 0 20
2  33 4 0 0 20
2  34 5 0 0 20
0

0101000
-33 0 +58 0 *
Wi

0101100
-31 3 -29 0 +27 0 +25 0 -24 3 +37 3 +57 3 -23 3 *
Fa
0  1e-07 4 3

0101000
+22 0 *
Ed
 1e-07 1 1 0
1  18 0 0 76.2
2  35 6 0 0 76.2
2  36 5 0 0 76.2
0

0101000
-33 0 +53 0 *
Wi

0101100
-56 0 -23 0 +20 0 +41 0 *
Fa
0  1e-07 5 0

0111000
+19 0 *
Ed
 1e-07 1 1 0
1  19 0 38.1 114.3
2  37 10 0 38.1 114.3
2  38 7 0 38.1 114.3
2  39 6 3 38.1 114.3
0

0101000
+32 0 -52 0 *
Wi

0101100
-51 3 +17 0 +31 3 +20 3 *
Fa
0  1e-07 6 3

0101000
+16 0 *
Ed
 1e-07 1 1 0
1  20 0 38.1 114.3
2  40 7 0 38.1 114.3
2  41 8 0 38.1 114.3
0

0101000
+30 0 -50 0 *
Wi

0101100
-14 0 +49 0 +17 0 -29 0 *
Fa
0  1e-07 7 0

0101000
+13 0 *
Ed
 1e-07 1 1 0
1  21 0 38.1 114.3
2  42 9 0 38.1 114.3
2  43 8 0 38.1 114.3
0

0101000
+48 0 -28 0 *
Wi

0101100
-14 0 +47 0 -11 0 -27 0 *
Fa
0  1e-07 8 0

0101000
+10 0 *
Ed
 1e-07 1 1 0
1  22 0 38.1 114.3
2  44 10 0 38.1 114.3
2  45 9 0 38.1 114.3
2  46 6 3 38.1 114.3
0

0101000
+46 0 -26 0 *
Wi

0101100
+11 0 +45 0 -8 0 -25 0 *
Fa
0  1e-07 9 0

0101000
+7 0 *
Wi

0101100
-43 3 -36 3 +24 3 +8 0 *
Fa
0  1e-07 6 3

0101000
+5 0 *
Sh

0101100
-54 3 -39 0 +34 3 +21 0 -18 3 +15 0 -12 0 +9 0 +6 0 +4 0 
*
So

0100000
+3 0 *
Co

1100000
+2 0 *

+1 0 