DBRep_DrawableShape

CASCADE Topology V3, (c) Open Cascade
Locations 65
1
              1               0               0              -0 
              0               1               0              -0 
              0               0               1              -0 
2  1 -1 0
1
              1               0               0              -0 
              0               1               0              -0 
              0               0               1              -0 
1
              1               0               0               0 
              0               1               0               0 
              0               0               1               3 
2  3 1 4 1 0
2  4 -1 3 -1 0
1
              1               0               0              -0 
              0               1               0              -0 
              0               0               1              -6 
1
              1               0               0           -22.5 
              0               1               0               0 
              0               0               1             1.5 
2  7 1 8 1 0
1
              1               0               0              -0 
              0               1               0              -0 
              0               0               1              -6 
1
              1               0               0            22.5 
              0               1               0               0 
              0               0               1             1.5 
2  10 1 11 1 0
1
              1               0               0              -0 
              0               1               0              -0 
              0               0               1              -0 
2  3 1 13 -1 0
2  8 -1 7 -1 0
2  11 -1 10 -1 0
2  13 1 4 1 0
2  1 1 4 -1 13 -1 0
2  4 -1 13 -1 0
1
              1               0               0              -0 
              0               1               0              -0 
              0               0               1              -0 
1
              1               0               0               0 
              0               1               0               0 
              0               0               1               3 
2  20 1 21 1 0
2  1 1 21 -1 20 -1 0
2  21 -1 20 -1 0
1
              1               0               0              -6 
              0               1               0 -11.388273369263 
              0               0               1             -10 
1
              1               0               0              45 
              0               1               0               0 
              0               0               1              13 
1
             -1 -1.22464679914735e-16               0               0 
1.22464679914735e-16              -1              -0               0 
              0               0               1               0 
2  25 1 26 1 27 1 0
2  27 -1 26 -1 25 -1 0
1
              1               0               0              -6 
              0               1               0 -11.388273369263 
              0               0               1             -10 
1
              1               0               0              45 
              0               1               0               0 
              0               0               1              13 
1
           -0.5 0.866025403784438               0               0 
-0.866025403784438            -0.5               0               0 
              0              -0               1               0 
2  30 1 31 1 32 1 0
2  32 -1 31 -1 30 -1 0
1
              1               0               0              -0 
              0               1               0              -0 
              0               0               1              -0 
2  35 1 21 1 0
2  20 1 35 -1 0
2  1 1 21 -1 35 -1 0
2  21 -1 35 -1 0
1
              1               0               0              -6 
              0               1               0 -11.388273369263 
              0               0               1             -10 
1
              1               0               0              45 
              0               1               0               0 
              0               0               1              13 
1
            0.5 0.866025403784439               0               0 
-0.866025403784439             0.5               0               0 
              0              -0               1               0 
2  40 1 41 1 42 1 0
2  42 -1 41 -1 40 -1 0
1
              1               0               0              -6 
              0               1               0 -11.388273369263 
              0               0               1             -10 
1
              1               0               0              45 
              0               1               0               0 
              0               0               1              13 
1
              1              -0               0               0 
              0               1              -0               0 
              0               0               1               0 
2  45 1 46 1 47 1 0
2  47 -1 46 -1 45 -1 0
1
              1               0               0              -6 
              0               1               0 -11.388273369263 
              0               0               1             -10 
1
              1               0               0              45 
              0               1               0               0 
              0               0               1              13 
1
           -0.5 -0.866025403784439               0               0 
0.866025403784439            -0.5              -0               0 
              0               0               1               0 
2  50 1 51 1 52 1 0
2  52 -1 51 -1 50 -1 0
1
              1               0               0              -6 
              0               1               0 -11.388273369263 
              0               0               1             -10 
1
              1               0               0              45 
              0               1               0               0 
              0               0               1              13 
1
            0.5 -0.866025403784439               0               0 
0.866025403784439             0.5              -0               0 
              0               0               1               0 
2  55 1 56 1 57 1 0
2  57 -1 56 -1 55 -1 0
2  20 1 21 1 27 -1 26 -1 25 -1 0
2  20 1 21 1 32 -1 31 -1 30 -1 0
2  20 1 21 1 42 -1 41 -1 40 -1 0
2  20 1 21 1 47 -1 46 -1 45 -1 0
2  20 1 21 1 52 -1 51 -1 50 -1 0
2  20 1 21 1 57 -1 56 -1 55 -1 0
Curve2ds 239
1 0 0 1 0 
2 0 0 1 0 -0 1 66
1 0 0 1 0 
1 6.2831853071795862 -0 0 1 
1 0 -0 0 1 
1 0 20 1 0 
2 0 0 1 0 -0 1 66
1 0 23 1 0 
2 -22.5 0 1 0 -0 1 2.2999999999999998
1 0 4.5 1 0 
2 22.5 0 1 0 -0 1 2.2999999999999998
1 0 4.5 1 0 
1 0 20 1 0 
2 0 0 1 0 -0 1 63
2 0 0 1 0 -0 1 63
2 -22.5 0 1 0 -0 1 2.2999999999999998
1 0 7.5 1 0 
1 6.2831853071795862 -0 0 1 
1 0 -0 0 1 
2 22.5 0 1 0 -0 1 2.2999999999999998
1 0 7.5 1 0 
1 6.2831853071795862 -0 0 1 
1 0 -0 0 1 
1 6.2831853071795862 -0 0 1 
1 0 -0 0 1 
1 0 0 1 0 
2 0 0 1 0 -0 1 63
2 0 0 1 0 -0 1 63
2 0 0 1 0 -0 1 63
2 0 0 1 0 -0 1 63
2 0 0 1 0 -0 1 63
2 0 0 1 0 -0 1 63
2 0 0 1 0 -0 1 63
2 0 0 1 0 -0 1 63
2 0 0 1 0 -0 1 63
1 0 0 1 0 
2 0 0 1 0 -0 1 45
2 0 0 1 0 -0 1 45
2 0 0 1 0 -0 1 45
2 0 0 1 0 -0 1 45
2 0 0 1 0 -0 1 45
2 0 0 1 0 -0 1 45
2 0 0 1 0 -0 1 45
2 0 0 1 0 -0 1 45
1 0 0 0 1 
1 0 22.776546738525997 1 0 
1 -39 -11.388273369262993 -1 1.2246467991473532e-16 
1 -39 -11.388273369262993 -1 1.2246467991473532e-16 
1 -39 -11.388273369262993 -1 1.2246467991473532e-16 
1 0 0 0 1 
1 0 0 1 0 
1 -29.362534043023565 -28.080854062961592 -0.50000000000000033 -0.86602540378443849 
1 -29.362534043023565 -28.080854062961592 -0.50000000000000033 -0.86602540378443849 
1 0 0 1 0 
2 0 0 1 0 -0 1 42
2 0 0 1 0 -0 1 42
2 0 0 1 0 -0 1 42
2 0 0 1 0 -0 1 42
2 0 0 1 0 -0 1 42
2 0 0 1 0 -0 1 42
2 0 0 1 0 -0 1 42
2 0 0 1 0 -0 1 42
2 0 0 1 0 -0 1 42
2 0 0 1 0 -0 1 45
2 0 0 1 0 -0 1 45
1 0 0 0 1 
1 0 22.776546738525997 1 0 
1 -9.637465956976456 -39.469127432224596 -0.50000000000000033 -0.86602540378443849 
1 -9.637465956976456 -39.469127432224596 -0.50000000000000033 -0.86602540378443849 
1 0 0 0 1 
1 0 0 1 0 
1 9.6374659569764454 -39.46912743222461 0.50000000000000011 -0.8660254037844386 
2 0 0 1 0 -0 1 42
2 0 0 1 0 -0 1 42
2 0 0 1 0 -0 1 45
1 0 0 0 1 
1 0 22.776546738525997 1 0 
1 29.362534043023562 -28.08085406296161 0.50000000000000011 -0.8660254037844386 
1 0 0 0 1 
1 0 0 1 0 
1 39 -11.388273369262999 1 0 
1 39 -11.388273369262999 1 0 
1 39 -11.388273369262999 1 0 
1 39 -11.388273369262999 1 0 
1 39 -11.388273369262999 1 0 
1 39 -11.388273369262999 1 0 
2 0 0 1 0 -0 1 42
2 0 0 1 0 -0 1 45
2 0 0 1 0 -0 1 45
2 0 0 1 0 -0 1 45
1 0 0 0 1 
1 0 22.776546738525997 1 0 
1 -29.362534043023551 28.080854062961617 -0.49999999999999978 0.86602540378443882 
1 -29.362534043023551 28.080854062961617 -0.49999999999999978 0.86602540378443882 
1 -29.362534043023551 28.080854062961617 -0.49999999999999978 0.86602540378443882 
1 -29.362534043023551 28.080854062961617 -0.49999999999999978 0.86602540378443882 
1 0 0 0 1 
1 0 0 1 0 
1 -39 11.388273369263004 -1 1.2246467991473532e-16 
1 -39 11.388273369263004 -1 1.2246467991473532e-16 
1 -39 11.388273369263004 -1 1.2246467991473532e-16 
2 0 0 1 0 -0 1 42
2 0 0 1 0 -0 1 42
2 0 0 1 0 -0 1 42
2 0 0 1 0 -0 1 45
2 0 0 1 0 -0 1 45
2 0 0 1 0 -0 1 45
2 0 0 1 0 -0 1 45
2 0 0 1 0 -0 1 45
1 0 0 0 1 
1 0 22.776546738525997 1 0 
1 39 11.388273369262999 1 0 
1 39 11.388273369262999 1 0 
1 39 11.388273369262999 1 0 
1 39 11.388273369262999 1 0 
1 39 11.388273369262999 1 0 
1 39 11.388273369262999 1 0 
1 0 0 0 1 
1 0 0 1 0 
1 29.362534043023562 28.080854062961606 0.50000000000000011 0.8660254037844386 
1 29.362534043023562 28.080854062961606 0.50000000000000011 0.8660254037844386 
1 29.362534043023562 28.080854062961606 0.50000000000000011 0.8660254037844386 
1 29.362534043023562 28.080854062961606 0.50000000000000011 0.8660254037844386 
1 29.362534043023562 28.080854062961606 0.50000000000000011 0.8660254037844386 
2 0 0 1 0 -0 1 42
2 0 0 1 0 -0 1 42
2 0 0 1 0 -0 1 42
2 0 0 1 0 -0 1 42
2 0 0 1 0 -0 1 42
2 0 0 1 0 -0 1 45
2 0 0 1 0 -0 1 45
2 0 0 1 0 -0 1 45
2 0 0 1 0 -0 1 45
1 0 0 0 1 
1 0 22.776546738525997 1 0 
1 9.6374659569764454 39.46912743222461 0.50000000000000011 0.8660254037844386 
1 9.6374659569764454 39.46912743222461 0.50000000000000011 0.8660254037844386 
1 9.6374659569764454 39.46912743222461 0.50000000000000011 0.8660254037844386 
1 9.6374659569764454 39.46912743222461 0.50000000000000011 0.8660254037844386 
1 9.6374659569764454 39.46912743222461 0.50000000000000011 0.8660254037844386 
1 0 0 0 1 
1 0 0 1 0 
1 -9.6374659569764312 39.46912743222461 -0.49999999999999978 0.86602540378443882 
1 -9.6374659569764312 39.46912743222461 -0.49999999999999978 0.86602540378443882 
1 -9.6374659569764312 39.46912743222461 -0.49999999999999978 0.86602540378443882 
1 -9.6374659569764312 39.46912743222461 -0.49999999999999978 0.86602540378443882 
2 0 0 1 0 -0 1 42
2 0 0 1 0 -0 1 42
2 0 0 1 0 -0 1 42
2 0 0 1 0 -0 1 42
1 0 20 1 0 
2 0 0 1 0 -0 1 45
8 -5.999999999062311e-07 20.0000006
1 3.932935129240533 0 0 1 
8 -5.999999999062311e-07 20.0000006
1 0 4.5351263885490019 1 0 
8 -5.999999999062311e-07 20.0000006
1 3.3974477291356502 0 0 1 
8 -5.999999999062311e-07 20.0000006
1 0 4.5351263885489956 1 0 
1 20 0 0 1 
1 0 22.776546738525997 1 0 
1 -39 -11.388273369262993 -1 1.2246467991473532e-16 
8 -5.999999999062311e-07 20.0000006
1 3.4161795847434053 0 0 1 
8 -5.999999999062311e-07 20.0000006
1 0 1.426565890104186 1 0 
1 20 0 0 1 
1 0 0 1 0 
1 -29.362534043023565 -28.080854062961592 -0.50000000000000033 -0.86602540378443849 
8 -5.999999999062311e-07 20.0000006
1 3.9142032736327779 0 0 1 
8 -5.999999999062311e-07 20.0000006
1 0 1.4265658901041962 1 0 
1 0 20 1 0 
2 0 0 1 0 -0 1 42
2 0 0 1 0 -0 1 42
8 -5.999999999062311e-07 20.0000006
1 4.9801326804371318 0 0 1 
8 -5.999999999062311e-07 20.0000006
1 0 4.535126388548993 1 0 
8 -5.999999999062311e-07 20.0000006
1 4.4446452803322476 0 0 1 
8 -5.999999999062311e-07 20.0000006
1 0 4.5351263885490019 1 0 
1 20 0 0 1 
1 0 22.776546738525997 1 0 
1 -9.637465956976456 -39.469127432224596 -0.50000000000000033 -0.86602540378443849 
8 -5.999999999062311e-07 20.0000006
1 4.4633771359400027 0 0 1 
8 -5.999999999062311e-07 20.0000006
1 0 1.4265658901041944 1 0 
1 20 0 0 1 
1 0 0 1 0 
1 9.6374659569764454 -39.46912743222461 0.50000000000000011 -0.8660254037844386 
8 -5.999999999062311e-07 20.0000006
1 4.9614008248293757 0 0 1 
8 -5.999999999062311e-07 20.0000006
1 0 1.4265658901041796 1 0 
8 -5.999999999062311e-07 20.0000006
1 6.0273302316337292 0 0 1 
8 -5.999999999062311e-07 20.0000006
1 0 4.5351263885489956 1 0 
8 -5.999999999062311e-07 20.0000006
1 5.4918428315288459 0 0 1 
8 -5.999999999062311e-07 20.0000006
1 0 4.5351263885489947 1 0 
1 20 0 0 1 
1 0 22.776546738525997 1 0 
1 29.362534043023562 -28.08085406296161 0.50000000000000011 -0.8660254037844386 
8 -5.999999999062311e-07 20.0000006
1 5.510574687136601 0 0 1 
8 -5.999999999062311e-07 20.0000006
1 0 1.4265658901041787 1 0 
1 20 0 0 1 
1 0 0 1 0 
1 39 -11.388273369262999 1 0 
8 -5.999999999062311e-07 20.0000006
1 6.008598376025974 0 0 1 
8 -5.999999999062311e-07 20.0000006
1 0 1.426565890104186 1 0 
8 -5.999999999062311e-07 20.0000006
1 2.885737578043936 0 0 1 
8 -5.999999999062311e-07 20.0000006
1 0 4.5351263885489956 1 0 
8 -5.999999999062311e-07 20.0000006
1 2.3502501779390523 0 0 1 
8 -5.999999999062311e-07 20.0000006
1 0 4.5351263885489965 1 0 
1 20 0 0 1 
1 0 22.776546738525997 1 0 
1 -29.362534043023551 28.080854062961617 -0.49999999999999978 0.86602540378443882 
8 -5.999999999062311e-07 20.0000006
1 2.3689820335468075 0 0 1 
8 -5.999999999062311e-07 20.0000006
1 0 1.4265658901041864 1 0 
1 20 0 0 1 
1 0 0 1 0 
1 -39 11.388273369263004 -1 1.2246467991473532e-16 
8 -5.999999999062311e-07 20.0000006
1 2.8670057224361809 0 0 1 
8 -5.999999999062311e-07 20.0000006
1 0 1.426565890104186 1 0 
8 -5.999999999062311e-07 20.0000006
1 0.79134247565074045 0 0 1 
8 -5.999999999062311e-07 20.0000006
1 0 4.5351263885489939 1 0 
8 -5.999999999062311e-07 20.0000006
1 0.25585507554585724 0 0 1 
8 -5.999999999062311e-07 20.0000006
1 0 4.5351263885489956 1 0 
1 20 0 0 1 
1 0 22.776546738525997 1 0 
1 39 11.388273369262999 1 0 
8 -5.999999999062311e-07 20.0000006
1 0.27458693115361227 0 0 1 
8 -5.999999999062311e-07 20.0000006
1 0 1.426565890104186 1 0 
1 20 0 0 1 
1 0 0 1 0 
1 29.362534043023562 28.080854062961606 0.50000000000000011 0.8660254037844386 
8 -5.999999999062311e-07 20.0000006
1 0.77261062004298542 0 0 1 
8 -5.999999999062311e-07 20.0000006
1 0 1.4265658901041816 1 0 
8 -5.999999999062311e-07 20.0000006
1 1.838540026847338 0 0 1 
8 -5.999999999062311e-07 20.0000006
1 0 4.5351263885489921 1 0 
8 -5.999999999062311e-07 20.0000006
1 1.3030526267424549 0 0 1 
8 -5.999999999062311e-07 20.0000006
1 0 4.535126388548993 1 0 
1 20 0 0 1 
1 0 22.776546738525997 1 0 
1 9.6374659569764454 39.46912743222461 0.50000000000000011 0.8660254037844386 
8 -5.999999999062311e-07 20.0000006
1 1.3217844823502101 0 0 1 
8 -5.999999999062311e-07 20.0000006
1 0 1.4265658901041796 1 0 
1 20 0 0 1 
1 0 0 1 0 
1 -9.6374659569764312 39.46912743222461 -0.49999999999999978 0.86602540378443882 
8 -5.999999999062311e-07 20.0000006
1 1.8198081712395828 0 0 1 
8 -5.999999999062311e-07 20.0000006
1 0 1.4265658901041847 1 0 
Curves 64
2 0 0 0 0 0 1 1 0 -0 -0 1 0 66
8 0 23
1 66 -1.6165337748745062e-14 0 0 0 1 
2 0 0 20 0 0 1 1 0 -0 -0 1 0 66
2 -22.5 0 0 0 0 1 1 0 -0 -0 1 0 2.2999999999999998
2 22.5 0 0 0 0 1 1 0 -0 -0 1 0 2.2999999999999998
2 0 0 20 0 0 1 1 0 -0 -0 1 0 63
2 -22.5 0 3 0 0 1 1 0 -0 -0 1 0 2.2999999999999998
1 2.2999999999999998 -5.6333752760778241e-16 0 0 0 1 
2 22.5 0 3 0 0 1 1 0 -0 -0 1 0 2.2999999999999998
1 2.2999999999999998 -5.6333752760778241e-16 0 0 0 1 
1 63 -1.5430549669256651e-14 0 0 0 1 
2 0 0 0 0 0 1 1 0 -0 -0 1 0 63
2 0 0 0 0 0 1 1 0 -0 -0 1 0 45
1 0 22.776546738525997 0 1 0 -0 
1 0 0 0 1 0 -0 
2 0 0 0 0 0 1 1 0 -0 -0 1 0 42
1 0 22.776546738525997 0 1 0 -0 
1 0 0 0 1 0 -0 
1 0 22.776546738525997 0 1 0 -0 
1 0 0 0 1 0 -0 
1 0 22.776546738525997 0 1 0 -0 
1 0 0 0 1 0 -0 
1 0 22.776546738525997 0 1 0 -0 
1 0 0 0 1 0 -0 
1 0 22.776546738525997 0 1 0 -0 
1 0 0 0 1 0 -0 
2 0 0 20 0 0 1 1 0 -0 -0 1 0 45
1 -31.630097237298067 -32.008388724818204 3 0 0 1 
1 -43.535126388548996 -11.388273369262993 3 0 0 1 
1 0 22.776546738525997 20 1 0 -0 
1 -40.426565890104186 -11.388273369262993 3 0 0 1 
1 0 0 20 1 0 -0 
1 -30.075816988075665 -29.316296363964184 3 0 0 1 
2 0 0 20 0 0 1 1 0 -0 -0 1 0 42
1 11.905029151250941 -43.396662094081215 3 0 0 1 
1 -11.905029151250957 -43.396662094081208 3 0 0 1 
1 0 22.776546738525997 20 1 0 -0 
1 -10.350748902028553 -40.704569733227189 3 0 0 1 
1 0 0 20 1 0 -0 
1 10.350748902028537 -40.704569733227189 3 0 0 1 
1 43.535126388548996 -11.388273369262999 3 0 0 1 
1 31.630097237298056 -32.008388724818218 3 0 0 1 
1 0 22.776546738525997 20 1 0 -0 
1 30.075816988075651 -29.316296363964188 3 0 0 1 
1 0 0 20 1 0 -0 
1 40.426565890104186 -11.388273369262999 3 0 0 1 
1 -43.535126388548996 11.388273369263004 3 0 0 1 
1 -31.630097237298049 32.008388724818225 3 0 0 1 
1 0 22.776546738525997 20 1 0 -0 
1 -30.075816988075644 29.316296363964202 3 0 0 1 
1 0 0 20 1 0 -0 
1 -40.426565890104186 11.388273369263004 3 0 0 1 
1 31.63009723729806 32.008388724818211 3 0 0 1 
1 43.535126388548996 11.388273369262999 3 0 0 1 
1 0 22.776546738525997 20 1 0 -0 
1 40.426565890104186 11.388273369262999 3 0 0 1 
1 0 0 20 1 0 -0 
1 30.075816988075651 29.316296363964188 3 0 0 1 
1 -11.905029151250925 43.396662094081215 3 0 0 1 
1 11.905029151250941 43.396662094081215 3 0 0 1 
1 0 22.776546738525997 20 1 0 -0 
1 10.350748902028537 40.704569733227189 3 0 0 1 
1 0 0 20 1 0 -0 
1 -10.350748902028521 40.704569733227196 3 0 0 1 
Polygon3D 0
PolygonOnTriangulations 0
Surfaces 48
2 0 0 0 0 0 1 1 0 -0 -0 1 0 66
2 0 0 0 0 0 1 1 0 -0 -0 1 0 66
1 0 0 0 0 0 1 1 0 -0 -0 1 0 
2 0 0 0 0 0 1 1 0 -0 -0 1 0 66
1 0 0 20 0 0 1 1 0 -0 -0 1 0 
2 0 0 0 0 0 1 1 0 -0 -0 1 0 2.2999999999999998
2 0 0 0 0 0 1 1 0 -0 -0 1 0 2.2999999999999998
2 0 0 0 0 0 1 1 0 -0 -0 1 0 63
1 0 0 20 0 0 1 1 0 -0 -0 1 0 
1 0 0 3 0 0 1 1 0 -0 -0 1 0 
1 0 0 0 0 0 1 1 0 -0 -0 1 0 
1 0 0 0 0 0 1 1 0 -0 -0 1 0 
1 0 0 3 0 0 1 1 0 -0 -0 1 0 
1 0 0 3 0 0 1 1 0 -0 -0 1 0 
1 0 0 3 0 0 1 1 0 -0 -0 1 0 
1 0 0 3 0 0 1 1 0 -0 -0 1 0 
1 0 0 3 0 0 1 1 0 -0 -0 1 0 
1 0 0 3 0 0 1 1 0 -0 -0 1 0 
2 0 0 0 0 0 1 1 0 -0 -0 1 0 45
1 0 0 0 0 0 1 1 0 -0 -0 1 0 
1 0 22.776546738525997 0 -0 1 0 0 0 1 1 0 -0 
1 0 0 0 0 0 1 1 0 -0 -0 1 0 
1 0 0 0 -0 1 0 0 0 1 1 0 -0 
1 0 0 0 0 0 1 1 0 -0 -0 1 0 
2 0 0 0 0 0 1 1 0 -0 -0 1 0 42
1 0 0 0 0 0 1 1 0 -0 -0 1 0 
1 0 22.776546738525997 0 -0 1 0 0 0 1 1 0 -0 
1 0 0 0 -0 1 0 0 0 1 1 0 -0 
1 0 0 0 0 0 1 1 0 -0 -0 1 0 
1 0 22.776546738525997 0 -0 1 0 0 0 1 1 0 -0 
1 0 0 0 -0 1 0 0 0 1 1 0 -0 
1 0 0 0 0 0 1 1 0 -0 -0 1 0 
1 0 22.776546738525997 0 -0 1 0 0 0 1 1 0 -0 
1 0 0 0 0 0 1 1 0 -0 -0 1 0 
1 0 0 0 -0 1 0 0 0 1 1 0 -0 
1 0 22.776546738525997 0 -0 1 0 0 0 1 1 0 -0 
1 0 0 0 -0 1 0 0 0 1 1 0 -0 
1 0 0 0 0 0 1 1 0 -0 -0 1 0 
1 0 22.776546738525997 0 -0 1 0 0 0 1 1 0 -0 
1 0 0 0 -0 1 0 0 0 1 1 0 -0 
1 0 0 20 0 0 1 1 0 -0 -0 1 0 
1 0 0 20 0 0 1 1 0 -0 -0 1 0 
1 0 0 20 0 0 1 1 0 -0 -0 1 0 
1 0 0 20 0 0 1 1 0 -0 -0 1 0 
1 0 0 20 0 0 1 1 0 -0 -0 1 0 
1 0 0 20 0 0 1 1 0 -0 -0 1 0 
1 0 0 20 0 0 1 1 0 -0 -0 1 0 
1 0 0 20 0 0 1 1 0 -0 -0 1 0 
Triangulations 0

TShapes 228
Ve
1e-07
66 -1.61653377487451e-14 0
0 0

0101101
*
Ed
 1e-07 1 1 0
1  1 0 0 6.28318530717959
2  1 2 0 0 6.28318530717959
2  2 3 0 0 6.28318530717959
2  3 1 2 0 6.28318530717959
0

0101000
+228 0 -228 0 *
Ve
1e-07
66 -1.61653377487451e-14 20
0 0

0101101
*
Ed
 1e-07 1 1 0
1  2 0 0 23
3  4 5C0 1 0 0 23
0

0101000
+228 1 -226 5 *
Ed
 1e-07 1 1 0
1  3 0 0 6.28318530717959
2  6 4 0 0 6.28318530717959
2  7 5 0 0 6.28318530717959
2  8 1 6 0 6.28318530717959
0

0101000
+226 0 -226 0 *
Wi

0101100
+227 1 +225 0 -224 5 -225 0 *
Fa
0  0 1 0

0111000
+223 0 *
Wi

0101100
+227 1 *
Ve
1.00000000563338e-07
-20.2 -5.63337527607782e-16 0
0 0

0101101
*
Ed
 1e-07 1 1 0
1  4 0 0 6.28318530717959
2  9 3 1 0 6.28318530717959
2  10 6 9 0 6.28318530717959
0

0101100
+220 0 -220 0 *
Wi

0101100
-219 0 *
Ve
1.00000000563338e-07
24.8 -5.63337527607782e-16 0
0 0

0101101
*
Ed
 1e-07 1 1 0
1  5 0 0 6.28318530717959
2  11 3 1 0 6.28318530717959
2  12 7 12 0 6.28318530717959
0

0101100
+217 0 -217 0 *
Wi

0101100
-216 0 *
Fa
0  1e-07 3 1

0101000
+221 0 +218 0 +215 0 *
Wi

0101100
+224 3 *
Ve
1e-07
63 -1.54305496692567e-14 20
0 0

0101101
*
Ed
 1e-07 1 1 0
1  6 0 0 6.28318530717959
2  13 8 0 0 6.28318530717959
2  14 9 0 0 6.28318530717959
2  15 5 14 0 6.28318530717959
0

0101000
+212 0 -212 0 *
Wi

0101100
-211 13 *
Fa
0  1e-07 5 3

0101000
+213 0 +210 0 *
Ve
1.00000000563338e-07
-20.2 -5.63337527607782e-16 3
0 0

0101101
*
Ed
 1e-07 1 1 0
1  7 0 0 6.28318530717959
2  16 10 0 0 6.28318530717959
2  17 6 9 0 6.28318530717959
0

0101100
+208 0 -208 0 *
Ed
 1e-07 1 1 0
1  8 0 4.5 7.5
3  18 19CN 6 0 4.5 7.5
0

0101000
+220 15 -208 15 *
Wi

0101100
-207 0 +206 9 +219 0 -206 9 *
Fa
0  1e-07 6 9

0101000
+205 0 *
Ve
1.00000000563338e-07
24.8 -5.63337527607782e-16 3
0 0

0101101
*
Ed
 1e-07 1 1 0
1  9 0 0 6.28318530717959
2  20 10 0 0 6.28318530717959
2  21 7 12 0 6.28318530717959
0

0101100
+203 0 -203 0 *
Ed
 1e-07 1 1 0
1  10 0 4.5 7.5
3  22 23CN 7 0 4.5 7.5
0

0101000
+217 16 -203 16 *
Wi

0101100
-202 0 +201 12 +216 0 -201 12 *
Fa
0  1e-07 7 12

0101000
+200 0 *
Ve
1e-07
63 -1.54305496692567e-14 0
0 0

0101101
*
Ed
 1e-07 1 1 0
1  11 0 0 20
3  24 25CN 8 0 0 20
0

0101000
-212 0 +198 0 *
Ed
 1e-07 1 1 0
1  12 0 0 6.28318530717959
2  26 8 0 0 6.28318530717959
2  27 11 0 0 6.28318530717959
2  28 12 14 0 6.28318530717959
2  29 13 18 0 6.28318530717959
2  30 14 19 0 6.28318530717959
2  31 15 19 0 6.28318530717959
2  32 16 19 0 6.28318530717959
2  33 17 19 0 6.28318530717959
2  34 18 19 0 6.28318530717959
2  35 10 19 0 6.28318530717959
0

0101000
+198 0 -198 0 *
Wi

0101100
-211 0 +197 0 +196 0 -197 0 *
Fa
0  1e-07 8 0

0111000
+195 0 *
Wi

0101100
+196 17 *
Ve
1.00001577973885e-07
-43.5351263885483 -11.3882733692644 3
0 0

0101101
*
Ve
1.0000033329302e-07
-31.6300972372979 -32.0083887248185 3
0 0

0101101
*
Ed
 1e-07 1 1 0
1  13 0 3.39744772913568 3.93293512924054
2  36 19 0 3.39744772913568 3.93293512924054
2  37 20 0 3.39744772913568 3.93293512924054
2  38 13 23 3.39744772913568 3.93293512924054
2  39 14 24 3.39744772913568 3.93293512924054
2  40 15 24 3.39744772913568 3.93293512924054
2  41 16 24 3.39744772913568 3.93293512924054
2  42 17 24 3.39744772913568 3.93293512924054
2  43 18 24 3.39744772913568 3.93293512924054
2  44 10 24 3.39744772913568 3.93293512924054
0

0101000
+192 24 -191 24 *
Ve
1.00001269552179e-07
-40.4265658901048 -11.3882733692619 3
0 0

0101101
*
Ed
 1e-07 1 1 0
1  14 0 1.42656589010481 4.53512638854826
2  45 21 0 1.42656589010481 4.53512638854826
2  46 22 0 1.42656589010481 4.53512638854826
2  47 17 29 1.42656589010481 4.53512638854826
2  48 18 29 1.42656589010481 4.53512638854826
2  49 10 29 1.42656589010481 4.53512638854826
0

0101000
+189 29 -192 29 *
Ve
1.00001041884395e-07
-30.0758169880751 -29.3162963639651 3
0 0

0101101
*
Ed
 1e-07 1 1 0
1  15 0 1.42656589010471 4.53512638854916
2  50 23 0 1.42656589010471 4.53512638854916
2  51 24 0 1.42656589010471 4.53512638854916
2  52 18 34 1.42656589010471 4.53512638854916
2  53 10 34 1.42656589010471 4.53512638854916
0

0101000
+187 34 -191 34 *
Ed
 1e-07 1 1 0
1  16 0 3.41617958474338 3.9142032736328
2  54 25 0 3.41617958474338 3.9142032736328
2  55 26 0 3.41617958474338 3.9142032736328
2  56 20 37 3.41617958474338 3.9142032736328
2  57 13 38 3.41617958474338 3.9142032736328
2  58 14 39 3.41617958474338 3.9142032736328
2  59 15 39 3.41617958474338 3.9142032736328
2  60 16 39 3.41617958474338 3.9142032736328
2  61 17 39 3.41617958474338 3.9142032736328
2  62 18 39 3.41617958474338 3.9142032736328
2  63 10 39 3.41617958474338 3.9142032736328
0

0101000
+189 39 -187 39 *
Wi

0101100
-190 22 -188 28 +186 33 +185 36 *
Ve
1.00000188829322e-07
-11.9050291512508 -43.3966620940812 3
0 0

0101101
*
Ve
1.00000211505849e-07
11.9050291512507 -43.3966620940812 3
0 0

0101101
*
Ed
 1e-07 1 1 0
1  13 0 4.44464528033225 4.98013268043713
2  36 19 0 4.44464528033225 4.98013268043713
2  37 20 0 4.44464528033225 4.98013268043713
2  38 13 23 4.44464528033225 4.98013268043713
2  39 14 24 4.44464528033225 4.98013268043713
2  40 15 24 4.44464528033225 4.98013268043713
2  41 16 24 4.44464528033225 4.98013268043713
2  42 17 24 4.44464528033225 4.98013268043713
2  64 18 24 4.44464528033225 4.98013268043713
2  65 10 24 4.44464528033225 4.98013268043713
0

0101000
+183 24 -182 24 *
Ve
1.00000763866489e-07
-10.3507489020293 -40.7045697332272 3
0 0

0101101
*
Ed
 1e-07 1 1 0
1  17 0 1.42656589010457 4.53512638854892
2  66 27 0 1.42656589010457 4.53512638854892
2  67 24 0 1.42656589010457 4.53512638854892
2  68 18 34 1.42656589010457 4.53512638854892
2  69 10 34 1.42656589010457 4.53512638854892
0

0101000
+180 34 -183 34 *
Ve
1.00000744293516e-07
10.3507489020293 -40.7045697332272 3
0 0

0101101
*
Ed
 1e-07 1 1 0
1  18 0 1.42656589010455 4.53512638854889
2  70 28 0 1.42656589010455 4.53512638854889
2  71 29 0 1.42656589010455 4.53512638854889
2  72 10 44 1.42656589010455 4.53512638854889
0

0101000
+178 44 -182 44 *
Ed
 1e-07 1 1 0
1  16 0 4.46337713593998 4.96140082482939
2  54 25 0 4.46337713593998 4.96140082482939
2  55 26 0 4.46337713593998 4.96140082482939
2  56 20 37 4.46337713593998 4.96140082482939
2  57 13 38 4.46337713593998 4.96140082482939
2  58 14 39 4.46337713593998 4.96140082482939
2  59 15 39 4.46337713593998 4.96140082482939
2  60 16 39 4.46337713593998 4.96140082482939
2  61 17 39 4.46337713593998 4.96140082482939
2  73 18 39 4.46337713593998 4.96140082482939
2  74 10 39 4.46337713593998 4.96140082482939
0

0101000
+180 39 -178 39 *
Wi

0101100
-181 22 -179 33 +177 43 +176 36 *
Ve
1.00000346876601e-07
31.6300972372979 -32.0083887248185 3
0 0

0101101
*
Ve
1.00001396791526e-07
43.5351263885483 -11.3882733692642 3
0 0

0101101
*
Ed
 1e-07 1 1 0
1  13 0 5.49184283152884 6.0273302316337
2  36 19 0 5.49184283152884 6.0273302316337
2  37 20 0 5.49184283152884 6.0273302316337
2  38 13 23 5.49184283152884 6.0273302316337
2  39 14 24 5.49184283152884 6.0273302316337
2  40 15 24 5.49184283152884 6.0273302316337
2  41 16 24 5.49184283152884 6.0273302316337
2  42 17 24 5.49184283152884 6.0273302316337
2  64 18 24 5.49184283152884 6.0273302316337
2  75 10 24 5.49184283152884 6.0273302316337
0

0101000
+174 24 -173 24 *
Ve
1.00001012691671e-07
30.0758169880751 -29.3162963639651 3
0 0

0101101
*
Ed
 1e-07 1 1 0
1  19 0 1.42656589010468 4.53512638854915
2  76 30 0 1.42656589010468 4.53512638854915
2  77 29 0 1.42656589010468 4.53512638854915
2  78 10 44 1.42656589010468 4.53512638854915
0

0101000
+171 44 -174 44 *
Ve
1.00000386679061e-07
40.4265658901044 -11.3882733692627 3
0 0

0101101
*
Ed
 1e-07 1 1 0
1  20 0 1.42656589010438 4.53512638854835
2  79 31 0 1.42656589010438 4.53512638854835
2  80 32 0 1.42656589010438 4.53512638854835
2  81 14 49 1.42656589010438 4.53512638854835
2  82 15 49 1.42656589010438 4.53512638854835
2  83 16 49 1.42656589010438 4.53512638854835
2  84 17 49 1.42656589010438 4.53512638854835
2  85 18 49 1.42656589010438 4.53512638854835
2  86 10 49 1.42656589010438 4.53512638854835
0

0101000
+169 49 -173 49 *
Ed
 1e-07 1 1 0
1  16 0 5.51057468713658 6.00859837602598
2  54 25 0 5.51057468713658 6.00859837602598
2  55 26 0 5.51057468713658 6.00859837602598
2  56 20 37 5.51057468713658 6.00859837602598
2  57 13 38 5.51057468713658 6.00859837602598
2  58 14 39 5.51057468713658 6.00859837602598
2  59 15 39 5.51057468713658 6.00859837602598
2  60 16 39 5.51057468713658 6.00859837602598
2  61 17 39 5.51057468713658 6.00859837602598
2  73 18 39 5.51057468713658 6.00859837602598
2  87 10 39 5.51057468713658 6.00859837602598
0

0101000
+171 39 -169 39 *
Wi

0101100
-172 22 -170 43 +168 48 +167 36 *
Wi

0101100
-207 0 *
Ve
1.0000034307149e-07
-31.6300972372979 32.0083887248185 3
0 0

0101101
*
Ve
1.00000090594199e-07
-43.535126388549 11.3882733692629 3
0 0

0101101
*
Ed
 1e-07 1 1 0
1  13 0 2.35025017793905 2.88573757804394
2  36 19 0 2.35025017793905 2.88573757804394
2  37 20 0 2.35025017793905 2.88573757804394
2  38 13 23 2.35025017793905 2.88573757804394
2  39 14 24 2.35025017793905 2.88573757804394
2  40 15 24 2.35025017793905 2.88573757804394
2  41 16 24 2.35025017793905 2.88573757804394
2  88 17 24 2.35025017793905 2.88573757804394
2  89 18 24 2.35025017793905 2.88573757804394
2  90 10 24 2.35025017793905 2.88573757804394
0

0101000
+164 24 -163 24 *
Ve
1.00001037015154e-07
-30.0758169880751 29.3162963639651 3
0 0

0101101
*
Ed
 1e-07 1 1 0
1  21 0 1.42656589010469 4.53512638854916
2  91 33 0 1.42656589010469 4.53512638854916
2  92 34 0 1.42656589010469 4.53512638854916
2  93 16 54 1.42656589010469 4.53512638854916
2  94 17 54 1.42656589010469 4.53512638854916
2  95 18 54 1.42656589010469 4.53512638854916
2  96 10 54 1.42656589010469 4.53512638854916
0

0101000
+161 54 -164 54 *
Ve
1.0000153661746e-07
-40.4265658901049 11.3882733692617 3
0 0

0101101
*
Ed
 1e-07 1 1 0
1  22 0 1.42656589010494 4.53512638854904
2  97 35 0 1.42656589010494 4.53512638854904
2  98 22 0 1.42656589010494 4.53512638854904
2  99 17 29 1.42656589010494 4.53512638854904
2  100 18 29 1.42656589010494 4.53512638854904
2  101 10 29 1.42656589010494 4.53512638854904
0

0101000
+159 29 -163 29 *
Ed
 1e-07 1 1 0
1  16 0 2.36898203354678 2.86700572243622
2  54 25 0 2.36898203354678 2.86700572243622
2  55 26 0 2.36898203354678 2.86700572243622
2  56 20 37 2.36898203354678 2.86700572243622
2  57 13 38 2.36898203354678 2.86700572243622
2  58 14 39 2.36898203354678 2.86700572243622
2  59 15 39 2.36898203354678 2.86700572243622
2  60 16 39 2.36898203354678 2.86700572243622
2  102 17 39 2.36898203354678 2.86700572243622
2  103 18 39 2.36898203354678 2.86700572243622
2  104 10 39 2.36898203354678 2.86700572243622
0

0101000
+161 39 -159 39 *
Wi

0101100
-162 22 -160 53 +158 28 +157 36 *
Wi

0101100
-202 0 *
Ve
1.00001409528798e-07
43.5351263885483 11.3882733692642 3
0 0

0101101
*
Ve
1.00000335162338e-07
31.6300972372979 32.0083887248185 3
0 0

0101101
*
Ed
 1e-07 1 1 0
1  13 0 0.255855075545888 0.791342475650748
2  36 19 0 0.255855075545888 0.791342475650748
2  37 20 0 0.255855075545888 0.791342475650748
2  38 13 23 0.255855075545888 0.791342475650748
2  39 14 24 0.255855075545888 0.791342475650748
2  105 15 24 0.255855075545888 0.791342475650748
2  106 16 24 0.255855075545888 0.791342475650748
2  107 17 24 0.255855075545888 0.791342475650748
2  108 18 24 0.255855075545888 0.791342475650748
2  109 10 24 0.255855075545888 0.791342475650748
0

0101000
+154 24 -153 24 *
Ve
1.00000405636053e-07
40.4265658901044 11.3882733692626 3
0 0

0101101
*
Ed
 1e-07 1 1 0
1  23 0 1.42656589010438 4.53512638854834
2  110 36 0 1.42656589010438 4.53512638854834
2  111 32 0 1.42656589010438 4.53512638854834
2  112 14 49 1.42656589010438 4.53512638854834
2  113 15 49 1.42656589010438 4.53512638854834
2  114 16 49 1.42656589010438 4.53512638854834
2  115 17 49 1.42656589010438 4.53512638854834
2  116 18 49 1.42656589010438 4.53512638854834
2  117 10 49 1.42656589010438 4.53512638854834
0

0101000
+151 49 -154 49 *
Ve
1.00001028545891e-07
30.0758169880751 29.3162963639651 3
0 0

0101101
*
Ed
 1e-07 1 1 0
1  24 0 1.42656589010469 4.53512638854915
2  118 37 0 1.42656589010469 4.53512638854915
2  119 38 0 1.42656589010469 4.53512638854915
2  120 15 59 1.42656589010469 4.53512638854915
2  121 16 59 1.42656589010469 4.53512638854915
2  122 17 59 1.42656589010469 4.53512638854915
2  123 18 59 1.42656589010469 4.53512638854915
2  124 10 59 1.42656589010469 4.53512638854915
0

0101000
+149 59 -153 59 *
Ed
 1e-07 1 1 0
1  16 0 0.274586931153603 0.772610620043009
2  54 25 0 0.274586931153603 0.772610620043009
2  55 26 0 0.274586931153603 0.772610620043009
2  56 20 37 0.274586931153603 0.772610620043009
2  57 13 38 0.274586931153603 0.772610620043009
2  58 14 39 0.274586931153603 0.772610620043009
2  125 15 39 0.274586931153603 0.772610620043009
2  126 16 39 0.274586931153603 0.772610620043009
2  127 17 39 0.274586931153603 0.772610620043009
2  128 18 39 0.274586931153603 0.772610620043009
2  129 10 39 0.274586931153603 0.772610620043009
0

0101000
+151 39 -149 39 *
Wi

0101100
-152 22 -150 48 +148 58 +147 36 *
Ve
1.00000213281212e-07
11.9050291512507 43.3966620940812 3
0 0

0101101
*
Ve
1.00000209730503e-07
-11.9050291512507 43.3966620940812 3
0 0

0101101
*
Ed
 1e-07 1 1 0
1  13 0 1.30305262674246 1.83854002684733
2  36 19 0 1.30305262674246 1.83854002684733
2  37 20 0 1.30305262674246 1.83854002684733
2  38 13 23 1.30305262674246 1.83854002684733
2  39 14 24 1.30305262674246 1.83854002684733
2  40 15 24 1.30305262674246 1.83854002684733
2  130 16 24 1.30305262674246 1.83854002684733
2  131 17 24 1.30305262674246 1.83854002684733
2  132 18 24 1.30305262674246 1.83854002684733
2  133 10 24 1.30305262674246 1.83854002684733
0

0101000
+145 24 -144 24 *
Ve
1.00000776267939e-07
10.3507489020293 40.7045697332272 3
0 0

0101101
*
Ed
 1e-07 1 1 0
1  25 0 1.42656589010457 4.53512638854889
2  134 39 0 1.42656589010457 4.53512638854889
2  135 38 0 1.42656589010457 4.53512638854889
2  136 15 59 1.42656589010457 4.53512638854889
2  137 16 59 1.42656589010457 4.53512638854889
2  138 17 59 1.42656589010457 4.53512638854889
2  139 18 59 1.42656589010457 4.53512638854889
2  140 10 59 1.42656589010457 4.53512638854889
0

0101000
+142 59 -145 59 *
Ve
1.00000770971612e-07
-10.3507489020293 40.7045697332272 3
0 0

0101101
*
Ed
 1e-07 1 1 0
1  26 0 1.42656589010456 4.53512638854889
2  141 40 0 1.42656589010456 4.53512638854889
2  142 34 0 1.42656589010456 4.53512638854889
2  143 16 54 1.42656589010456 4.53512638854889
2  144 17 54 1.42656589010456 4.53512638854889
2  145 18 54 1.42656589010456 4.53512638854889
2  146 10 54 1.42656589010456 4.53512638854889
0

0101000
+140 54 -144 54 *
Ed
 1e-07 1 1 0
1  16 0 1.32178448235019 1.8198081712396
2  54 25 0 1.32178448235019 1.8198081712396
2  55 26 0 1.32178448235019 1.8198081712396
2  56 20 37 1.32178448235019 1.8198081712396
2  57 13 38 1.32178448235019 1.8198081712396
2  58 14 39 1.32178448235019 1.8198081712396
2  59 15 39 1.32178448235019 1.8198081712396
2  147 16 39 1.32178448235019 1.8198081712396
2  148 17 39 1.32178448235019 1.8198081712396
2  149 18 39 1.32178448235019 1.8198081712396
2  150 10 39 1.32178448235019 1.8198081712396
0

0101000
+142 39 -140 39 *
Wi

0101100
-143 22 -141 58 +139 53 +138 36 *
Fa
0  1e-07 10 0

0101000
+193 0 +184 0 +175 0 +166 0 +165 0 +156 0 +155 0 +146 0 +137 0 *
Ve
1.00001577973885e-07
-43.5351263885483 -11.3882733692644 23
0 0

0101101
*
Ve
1.0000033329302e-07
-31.6300972372979 -32.0083887248185 23
0 0

0101101
*
Ed
 1e-07 1 1 0
1  27 0 3.39744772913568 3.93293512924054
2  151 19 0 3.39744772913568 3.93293512924054
2  152 41 0 3.39744772913568 3.93293512924054
0

0101000
+135 24 -134 24 *
Ed
 1e-07 1 1 0
1  28 0 0 20
2  153 19 22 0 20
2  154 23 33 0 20
0

0101000
+191 0 -134 0 *
Ed
 1e-07 1 1 0
1  29 0 0 20
2  155 19 22 0 20
2  156 21 28 0 20
0

0101000
+192 0 -135 0 *
Wi

0101100
-133 22 +132 0 +190 22 -131 0 *
Fa
0  1e-07 19 22

0101000
+130 0 *
Ve
1.00001269552179e-07
-40.4265658901048 -11.3882733692619 23
0 0

0101101
*
Ed
 1e-07 1 1 0
1  30 0 1.42656589010481 4.53512638854826
2  157 21 0 1.42656589010481 4.53512638854826
2  158 42 0 1.42656589010481 4.53512638854826
2  159 41 60 1.42656589010481 4.53512638854826
0

0101000
+128 29 -135 29 *
Ed
 1e-07 1 1 0
1  31 0 0 20
2  160 25 36 0 20
2  161 21 28 0 20
0

0101000
+189 0 -128 0 *
Wi

0101100
-188 28 -131 0 +127 28 +126 0 *
Fa
0  1e-07 21 28

0101000
+125 0 *
Ve
1.00001041884395e-07
-30.0758169880751 -29.3162963639651 23
0 0

0101101
*
Ed
 1e-07 1 1 0
1  32 0 1.42656589010471 4.53512638854916
2  162 23 0 1.42656589010471 4.53512638854916
2  163 43 0 1.42656589010471 4.53512638854916
2  164 41 61 1.42656589010471 4.53512638854916
0

0101000
+123 34 -134 34 *
Ed
 1e-07 1 1 0
1  33 0 0 20
2  165 25 36 0 20
2  166 23 33 0 20
0

0101000
+187 0 -123 0 *
Wi

0101100
-186 33 -132 0 +122 33 +121 0 *
Fa
0  1e-07 23 33

0101000
+120 0 *
Ed
 1e-07 1 1 0
1  34 0 3.41617958474338 3.9142032736328
2  167 25 0 3.41617958474338 3.9142032736328
2  168 44 0 3.41617958474338 3.9142032736328
2  169 41 37 3.41617958474338 3.9142032736328
0

0101000
+128 39 -123 39 *
Wi

0101100
-118 36 +121 0 +185 36 -126 0 *
Fa
0  1e-07 25 36

0101000
+117 0 *
Ve
1.00000188829322e-07
-11.9050291512508 -43.3966620940812 23
0 0

0101101
*
Ve
1.00000211505849e-07
11.9050291512507 -43.3966620940812 23
0 0

0101101
*
Ed
 1e-07 1 1 0
1  27 0 4.44464528033225 4.98013268043713
2  151 19 0 4.44464528033225 4.98013268043713
2  152 41 0 4.44464528033225 4.98013268043713
0

0101000
+115 24 -114 24 *
Ed
 1e-07 1 1 0
1  35 0 0 20
2  170 19 22 0 20
2  171 28 43 0 20
0

0101000
+182 0 -114 0 *
Ed
 1e-07 1 1 0
1  36 0 0 20
2  172 19 22 0 20
2  173 27 33 0 20
0

0101000
+183 0 -115 0 *
Wi

0101100
-113 22 +112 0 +181 22 -111 0 *
Fa
0  1e-07 19 22

0101000
+110 0 *
Ve
1.00000763866489e-07
-10.3507489020293 -40.7045697332272 23
0 0

0101101
*
Ed
 1e-07 1 1 0
1  37 0 1.42656589010457 4.53512638854892
2  174 27 0 1.42656589010457 4.53512638854892
2  175 43 0 1.42656589010457 4.53512638854892
2  176 41 61 1.42656589010457 4.53512638854892
0

0101000
+108 34 -115 34 *
Ed
 1e-07 1 1 0
1  38 0 0 20
2  177 25 36 0 20
2  178 27 33 0 20
0

0101000
+180 0 -108 0 *
Wi

0101100
-179 33 -111 0 +107 33 +106 0 *
Fa
0  1e-07 27 33

0101000
+105 0 *
Ve
1.00000744293516e-07
10.3507489020293 -40.7045697332272 23
0 0

0101101
*
Ed
 1e-07 1 1 0
1  39 0 1.42656589010455 4.53512638854889
2  179 28 0 1.42656589010455 4.53512638854889
2  180 45 0 1.42656589010455 4.53512638854889
2  181 41 62 1.42656589010455 4.53512638854889
0

0101000
+103 44 -114 44 *
Ed
 1e-07 1 1 0
1  40 0 0 20
2  182 25 36 0 20
2  183 28 43 0 20
0

0101000
+178 0 -103 0 *
Wi

0101100
-177 43 -112 0 +102 43 +101 0 *
Fa
0  1e-07 28 43

0101000
+100 0 *
Ed
 1e-07 1 1 0
1  34 0 4.46337713593998 4.96140082482939
2  167 25 0 4.46337713593998 4.96140082482939
2  168 44 0 4.46337713593998 4.96140082482939
2  169 41 37 4.46337713593998 4.96140082482939
0

0101000
+108 39 -103 39 *
Wi

0101100
-98 36 +101 0 +176 36 -106 0 *
Fa
0  1e-07 25 36

0101000
+97 0 *
Ve
1.00000346876601e-07
31.6300972372979 -32.0083887248185 23
0 0

0101101
*
Ve
1.00001396791526e-07
43.5351263885483 -11.3882733692642 23
0 0

0101101
*
Ed
 1e-07 1 1 0
1  27 0 5.49184283152884 6.0273302316337
2  151 19 0 5.49184283152884 6.0273302316337
2  152 41 0 5.49184283152884 6.0273302316337
0

0101000
+95 24 -94 24 *
Ed
 1e-07 1 1 0
1  41 0 0 20
2  184 19 22 0 20
2  185 31 48 0 20
0

0101000
+173 0 -94 0 *
Ed
 1e-07 1 1 0
1  42 0 0 20
2  186 19 22 0 20
2  187 30 43 0 20
0

0101000
+174 0 -95 0 *
Wi

0101100
-93 22 +92 0 +172 22 -91 0 *
Fa
0  1e-07 19 22

0101000
+90 0 *
Ve
1.00001012691671e-07
30.0758169880751 -29.3162963639651 23
0 0

0101101
*
Ed
 1e-07 1 1 0
1  43 0 1.42656589010468 4.53512638854915
2  188 30 0 1.42656589010468 4.53512638854915
2  189 45 0 1.42656589010468 4.53512638854915
2  190 41 62 1.42656589010468 4.53512638854915
0

0101000
+88 44 -95 44 *
Ed
 1e-07 1 1 0
1  44 0 0 20
2  191 25 36 0 20
2  192 30 43 0 20
0

0101000
+171 0 -88 0 *
Wi

0101100
-170 43 -91 0 +87 43 +86 0 *
Fa
0  1e-07 30 43

0101000
+85 0 *
Ve
1.00000386679061e-07
40.4265658901044 -11.3882733692627 23
0 0

0101101
*
Ed
 1e-07 1 1 0
1  45 0 1.42656589010438 4.53512638854835
2  193 31 0 1.42656589010438 4.53512638854835
2  194 46 0 1.42656589010438 4.53512638854835
2  195 41 63 1.42656589010438 4.53512638854835
0

0101000
+83 49 -94 49 *
Ed
 1e-07 1 1 0
1  46 0 0 20
2  196 25 36 0 20
2  197 31 48 0 20
0

0101000
+169 0 -83 0 *
Wi

0101100
-168 48 -92 0 +82 48 +81 0 *
Fa
0  1e-07 31 48

0101000
+80 0 *
Ed
 1e-07 1 1 0
1  34 0 5.51057468713658 6.00859837602598
2  167 25 0 5.51057468713658 6.00859837602598
2  168 44 0 5.51057468713658 6.00859837602598
2  169 41 37 5.51057468713658 6.00859837602598
0

0101000
+88 39 -83 39 *
Wi

0101100
-78 36 +81 0 +167 36 -86 0 *
Fa
0  1e-07 25 36

0101000
+77 0 *
Ve
1.0000034307149e-07
-31.6300972372979 32.0083887248185 23
0 0

0101101
*
Ve
1.00000090594199e-07
-43.535126388549 11.3882733692629 23
0 0

0101101
*
Ed
 1e-07 1 1 0
1  27 0 2.35025017793905 2.88573757804394
2  151 19 0 2.35025017793905 2.88573757804394
2  152 41 0 2.35025017793905 2.88573757804394
0

0101000
+75 24 -74 24 *
Ed
 1e-07 1 1 0
1  47 0 0 20
2  198 19 22 0 20
2  199 35 28 0 20
0

0101000
+163 0 -74 0 *
Ed
 1e-07 1 1 0
1  48 0 0 20
2  200 19 22 0 20
2  201 33 53 0 20
0

0101000
+164 0 -75 0 *
Wi

0101100
-73 22 +72 0 +162 22 -71 0 *
Fa
0  1e-07 19 22

0101000
+70 0 *
Ve
1.00001037015154e-07
-30.0758169880751 29.3162963639651 23
0 0

0101101
*
Ed
 1e-07 1 1 0
1  49 0 1.42656589010469 4.53512638854916
2  202 33 0 1.42656589010469 4.53512638854916
2  203 47 0 1.42656589010469 4.53512638854916
2  204 41 64 1.42656589010469 4.53512638854916
0

0101000
+68 54 -75 54 *
Ed
 1e-07 1 1 0
1  50 0 0 20
2  205 25 36 0 20
2  206 33 53 0 20
0

0101000
+161 0 -68 0 *
Wi

0101100
-160 53 -71 0 +67 53 +66 0 *
Fa
0  1e-07 33 53

0101000
+65 0 *
Ve
1.0000153661746e-07
-40.4265658901049 11.3882733692617 23
0 0

0101101
*
Ed
 1e-07 1 1 0
1  51 0 1.42656589010494 4.53512638854904
2  207 35 0 1.42656589010494 4.53512638854904
2  208 42 0 1.42656589010494 4.53512638854904
2  209 41 60 1.42656589010494 4.53512638854904
0

0101000
+63 29 -74 29 *
Ed
 1e-07 1 1 0
1  52 0 0 20
2  210 25 36 0 20
2  211 35 28 0 20
0

0101000
+159 0 -63 0 *
Wi

0101100
-158 28 -72 0 +62 28 +61 0 *
Fa
0  1e-07 35 28

0101000
+60 0 *
Ed
 1e-07 1 1 0
1  34 0 2.36898203354678 2.86700572243622
2  167 25 0 2.36898203354678 2.86700572243622
2  168 44 0 2.36898203354678 2.86700572243622
2  169 41 37 2.36898203354678 2.86700572243622
0

0101000
+68 39 -63 39 *
Wi

0101100
-58 36 +61 0 +157 36 -66 0 *
Fa
0  1e-07 25 36

0101000
+57 0 *
Ve
1.00001409528798e-07
43.5351263885483 11.3882733692642 23
0 0

0101101
*
Ve
1.00000335162338e-07
31.6300972372979 32.0083887248185 23
0 0

0101101
*
Ed
 1e-07 1 1 0
1  27 0 0.255855075545888 0.791342475650748
2  151 19 0 0.255855075545888 0.791342475650748
2  152 41 0 0.255855075545888 0.791342475650748
0

0101000
+55 24 -54 24 *
Ed
 1e-07 1 1 0
1  53 0 0 20
2  212 19 22 0 20
2  213 37 58 0 20
0

0101000
+153 0 -54 0 *
Ed
 1e-07 1 1 0
1  54 0 0 20
2  214 19 22 0 20
2  215 36 48 0 20
0

0101000
+154 0 -55 0 *
Wi

0101100
-53 22 +52 0 +152 22 -51 0 *
Fa
0  1e-07 19 22

0101000
+50 0 *
Ve
1.00000405636053e-07
40.4265658901044 11.3882733692626 23
0 0

0101101
*
Ed
 1e-07 1 1 0
1  55 0 1.42656589010438 4.53512638854834
2  216 36 0 1.42656589010438 4.53512638854834
2  217 46 0 1.42656589010438 4.53512638854834
2  218 41 63 1.42656589010438 4.53512638854834
0

0101000
+48 49 -55 49 *
Ed
 1e-07 1 1 0
1  56 0 0 20
2  219 25 36 0 20
2  220 36 48 0 20
0

0101000
+151 0 -48 0 *
Wi

0101100
-150 48 -51 0 +47 48 +46 0 *
Fa
0  1e-07 36 48

0101000
+45 0 *
Ve
1.00001028545891e-07
30.0758169880751 29.3162963639651 23
0 0

0101101
*
Ed
 1e-07 1 1 0
1  57 0 1.42656589010469 4.53512638854915
2  221 37 0 1.42656589010469 4.53512638854915
2  222 48 0 1.42656589010469 4.53512638854915
2  223 41 65 1.42656589010469 4.53512638854915
0

0101000
+43 59 -54 59 *
Ed
 1e-07 1 1 0
1  58 0 0 20
2  224 25 36 0 20
2  225 37 58 0 20
0

0101000
+149 0 -43 0 *
Wi

0101100
-148 58 -52 0 +42 58 +41 0 *
Fa
0  1e-07 37 58

0101000
+40 0 *
Ed
 1e-07 1 1 0
1  34 0 0.274586931153603 0.772610620043009
2  167 25 0 0.274586931153603 0.772610620043009
2  168 44 0 0.274586931153603 0.772610620043009
2  169 41 37 0.274586931153603 0.772610620043009
0

0101000
+48 39 -43 39 *
Wi

0101100
-38 36 +41 0 +147 36 -46 0 *
Fa
0  1e-07 25 36

0101000
+37 0 *
Ve
1.00000213281212e-07
11.9050291512507 43.3966620940812 23
0 0

0101101
*
Ve
1.00000209730503e-07
-11.9050291512507 43.3966620940812 23
0 0

0101101
*
Ed
 1e-07 1 1 0
1  27 0 1.30305262674246 1.83854002684733
2  151 19 0 1.30305262674246 1.83854002684733
2  152 41 0 1.30305262674246 1.83854002684733
0

0101000
+35 24 -34 24 *
Ed
 1e-07 1 1 0
1  59 0 0 20
2  226 19 22 0 20
2  227 40 53 0 20
0

0101000
+144 0 -34 0 *
Ed
 1e-07 1 1 0
1  60 0 0 20
2  228 19 22 0 20
2  229 39 58 0 20
0

0101000
+145 0 -35 0 *
Wi

0101100
-33 22 +32 0 +143 22 -31 0 *
Fa
0  1e-07 19 22

0101000
+30 0 *
Ve
1.00000776267939e-07
10.3507489020293 40.7045697332272 23
0 0

0101101
*
Ed
 1e-07 1 1 0
1  61 0 1.42656589010457 4.53512638854889
2  230 39 0 1.42656589010457 4.53512638854889
2  231 48 0 1.42656589010457 4.53512638854889
2  232 41 65 1.42656589010457 4.53512638854889
0

0101000
+28 59 -35 59 *
Ed
 1e-07 1 1 0
1  62 0 0 20
2  233 25 36 0 20
2  234 39 58 0 20
0

0101000
+142 0 -28 0 *
Wi

0101100
-141 58 -31 0 +27 58 +26 0 *
Fa
0  1e-07 39 58

0101000
+25 0 *
Ve
1.00000770971612e-07
-10.3507489020293 40.7045697332272 23
0 0

0101101
*
Ed
 1e-07 1 1 0
1  63 0 1.42656589010456 4.53512638854889
2  235 40 0 1.42656589010456 4.53512638854889
2  236 47 0 1.42656589010456 4.53512638854889
2  237 41 64 1.42656589010456 4.53512638854889
0

0101000
+23 54 -34 54 *
Ed
 1e-07 1 1 0
1  64 0 0 20
2  238 25 36 0 20
2  239 40 53 0 20
0

0101000
+140 0 -23 0 *
Wi

0101100
-139 53 -32 0 +22 53 +21 0 *
Fa
0  1e-07 40 53

0101000
+20 0 *
Ed
 1e-07 1 1 0
1  34 0 1.32178448235019 1.8198081712396
2  167 25 0 1.32178448235019 1.8198081712396
2  168 44 0 1.32178448235019 1.8198081712396
2  169 41 37 1.32178448235019 1.8198081712396
0

0101000
+28 39 -23 39 *
Wi

0101100
-18 36 +21 0 +138 36 -26 0 *
Fa
0  1e-07 25 36

0101000
+17 0 *
Wi

0101100
-118 36 -122 33 +133 22 +127 28 *
Fa
0  1e-07 41 22

0101000
+15 0 *
Wi

0101100
-98 36 -102 43 +113 22 +107 33 *
Fa
0  1e-07 41 22

0101000
+13 0 *
Wi

0101100
-78 36 -82 48 +93 22 +87 43 *
Fa
0  1e-07 41 22

0101000
+11 0 *
Wi

0101100
-58 36 -62 28 +73 22 +67 53 *
Fa
0  1e-07 41 22

0101000
+9 0 *
Wi

0101100
-38 36 -42 58 +53 22 +47 48 *
Fa
0  1e-07 41 22

0101000
+7 0 *
Wi

0101100
-18 36 -22 53 +33 22 +27 58 *
Fa
0  1e-07 41 22

0101000
+5 0 *
Sh

0101100
+222 0 -214 0 +209 4 -204 0 -199 0 -194 17 +136 0 +129 0 -124 0 +119 0 
-116 0 +109 0 -104 0 +99 0 -96 0 +89 0 -84 0 +79 0 -76 0 +69 0 
-64 0 +59 0 -56 0 +49 0 -44 0 +39 0 -36 0 +29 0 -24 0 +19 0 
-16 0 +14 0 +12 0 +10 0 +8 0 +6 0 +4 0 *
So

0100000
+3 0 *
Co

1100000
+2 0 *

+1 0 