DBRep_DrawableShape

CASCADE Topology V3, (c) Open Cascade
Locations 32
1
              1               0               0             -10 
              0               1               0           -38.1 
              0               0               1          -19.05 
1
              1               0               0             -10 
              0               1               0               0 
              0               0               1           19.05 
2  1 1 2 1 0
2  2 -1 1 -1 0
1
              1               0               0            -4.6 
              0               1               0           -76.2 
              0               0               1            -7.4 
1
              1               0               0               0 
              0               1               0               0 
              0               0               1           19.05 
2  5 1 6 1 0
1
              1               0               0              -0 
              0               1               0              -0 
              0               0               1          -13.05 
1
              1               0               0               0 
              0               1               0               0 
              0               0               1           25.05 
1
              1               0               0           -12.5 
              0               1               0             -25 
              0               0               1               0 
2  8 1 9 1 10 1 0
2  1 1 2 1 10 -1 9 -1 8 -1 0
1
              1               0               0              -0 
              0               1               0              -0 
              0               0               1          -13.05 
1
              1               0               0               0 
              0               1               0               0 
              0               0               1           25.05 
1
              1               0               0           -12.5 
              0               1               0              25 
              0               0               1               0 
2  13 1 14 1 15 1 0
2  1 1 2 1 15 -1 14 -1 13 -1 0
1
              1               0               0              -0 
              0               1               0              -0 
              0               0               1           -38.1 
1
              1               0               0               0 
              0               1               0               0 
              0               0               1           19.05 
2  18 1 19 1 10 1 0
1
              1               0               0              -0 
              0               1               0              -0 
              0               0               1           -38.1 
1
              1               0               0               0 
              0               1               0               0 
              0               0               1           19.05 
2  21 1 22 1 15 1 0
2  6 -1 5 -1 0
2  10 -1 19 -1 18 -1 0
2  19 -1 18 -1 0
2  18 1 19 1 0
2  8 1 9 1 0
2  15 -1 22 -1 21 -1 0
2  22 -1 21 -1 0
2  21 1 22 1 0
2  13 1 14 1 0
Curve2ds 70
1 0 0 1 0 
1 0 0 1 0 
1 38.099999999999994 0 0 -1 
1 0 0 0 1 
1 0 -76.199999999999989 1 0 
1 0 0 1 0 
1 0 0 0 -1 
1 0 0 0 1 
1 0 0 1 0 
1 0 20 1 0 
8 7.7000000000000011 12.300000000000001
1 11.649999999999997 7.6999999999999993 0 1 
8 7.7000000000000011 12.300000000000001
1 -7.7000000000000011 38.099999999999994 1 0 
8 -20.625 -5.8249999999999984
1 5.8249999999999984 15.4 -1 0 
8 -20.625 -5.8249999999999984
1 -5.8249999999999984 -38.099999999999994 -1 -0 
8 7.7000000000000011 12.300000000000001
1 26.449999999999996 7.6999999999999993 0 1 
8 7.7000000000000011 12.300000000000001
1 -7.7000000000000011 38.099999999999994 1 0 
1 38.099999999999994 0 0 1 
1 0 0 1 0 
1 0 0 0 1 
1 0 0 1 0 
1 38.099999999999994 0 0 1 
1 0 76.199999999999989 1 0 
1 38.099999999999994 0 0 -1 
1 20 0 0 1 
1 0 26.099999999999994 1 0 
2 0 0 1 0 -0 1 4.5
2 7.5 13.099999999999994 1 0 -0 1 4.5
1 0 26.099999999999994 1 0 
2 0 0 1 0 -0 1 4.5
2 7.5 63.099999999999994 1 0 -0 1 4.5
1 0 -76.199999999999989 1 0 
1 0 20 1 0 
8 7.7000000000000011 12.300000000000001
1 11.649999999999997 7.6999999999999993 0 1 
8 7.7000000000000011 12.300000000000001
1 -7.7000000000000011 114.29999999999998 1 0 
8 -20.625 -5.8249999999999984
1 5.8249999999999984 15.4 -1 0 
8 -20.625 -5.8249999999999984
1 -5.8249999999999984 -114.29999999999998 -1 -0 
8 7.7000000000000011 12.300000000000001
1 26.449999999999996 7.6999999999999993 0 1 
8 7.7000000000000011 12.300000000000001
1 -7.7000000000000011 114.29999999999998 1 0 
1 0 0 0 1 
1 0 76.199999999999989 1 0 
1 0 0 0 -1 
1 20 0 0 1 
2 7.5 13.099999999999994 1 0 -0 1 2.2999999999999998
1 0 19.049999999999997 1 0 
2 7.5 63.099999999999994 1 0 -0 1 2.2999999999999998
1 0 19.049999999999997 1 0 
8 -95.249999999999986 -19.049999999999997
1 11.649999999999997 19.049999999999997 0 1 
8 -95.249999999999986 -19.049999999999997
1 4.5999999999999996 19.049999999999997 0 -1 
1 0 0 0 -1 
1 0 0 0 1 
1 14.800000000000001 0 0 -1 
1 0 0 0 1 
8 -95.249999999999986 -19.049999999999997
1 26.449999999999996 19.049999999999997 0 1 
8 -95.249999999999986 -19.049999999999997
1 4.5999999999999996 19.049999999999997 0 -1 
1 6.2831853071795862 -0 0 1 
1 0 -0 0 1 
1 0 0 1 0 
2 0 0 1 0 -0 1 4.5
1 6.2831853071795862 -0 0 1 
1 0 -0 0 1 
1 0 0 1 0 
2 0 0 1 0 -0 1 4.5
1 6.2831853071795862 -0 0 1 
1 0 -0 0 1 
1 0 31.049999999999997 1 0 
2 0 0 1 0 -0 1 2.2999999999999998
1 6.2831853071795862 -0 0 1 
1 0 -0 0 1 
1 0 31.049999999999997 1 0 
2 0 0 1 0 -0 1 2.2999999999999998
Curves 34
1 0 0 0 0 0 1 
1 0 0 38.099999999999994 -0 1 0 
1 0 76.199999999999989 0 0 0 1 
1 0 0 0 -0 1 0 
1 20 0 0 0 0 1 
1 -12.300000000000001 -38.099999999999994 11.649999999999997 1 0 -0 
1 -4.5999999999999996 -38.099999999999994 5.8249999999999984 -0 0 -1 
1 -12.300000000000001 -38.099999999999994 26.449999999999996 1 0 -0 
1 0 0 38.099999999999994 1 0 -0 
1 0 0 0 1 0 -0 
1 0 76.199999999999989 38.099999999999994 1 0 -0 
1 20 0 38.099999999999994 -0 1 0 
2 0 0 26.099999999999994 0 0 1 1 0 -0 -0 1 0 4.5
2 0 0 26.099999999999994 0 0 1 1 0 -0 -0 1 0 4.5
1 20 76.199999999999989 0 0 0 1 
1 -12.300000000000001 38.099999999999994 11.649999999999997 1 0 -0 
1 -4.5999999999999996 38.099999999999994 5.8249999999999984 -0 0 -1 
1 -12.300000000000001 38.099999999999994 26.449999999999996 1 0 -0 
1 0 76.199999999999989 0 1 0 -0 
1 20 0 0 -0 1 0 
2 -12.5 -25 0 0 0 1 1 0 -0 -0 1 0 2.2999999999999998
2 -12.5 25 0 0 0 1 1 0 -0 -0 1 0 2.2999999999999998
1 0 -57.149999999999991 11.649999999999997 0 -1 0 
1 0 0 0 -0 1 0 
1 0 0 14.800000000000001 -0 1 0 
1 0 -57.149999999999991 26.449999999999996 0 -1 0 
1 4.5 -1.1021821192326179e-15 0 0 0 1 
2 0 0 0 0 0 1 1 0 -0 -0 1 0 4.5
1 4.5 -1.1021821192326179e-15 0 0 0 1 
2 0 0 0 0 0 1 1 0 -0 -0 1 0 4.5
1 2.2999999999999998 -5.6333752760778241e-16 0 0 0 1 
2 0 0 12 0 0 1 1 0 -0 -0 1 0 2.2999999999999998
1 2.2999999999999998 -5.6333752760778241e-16 0 0 0 1 
2 0 0 12 0 0 1 1 0 -0 -0 1 0 2.2999999999999998
Polygon3D 0
PolygonOnTriangulations 0
Surfaces 17
1 0 0 0 1 0 -0 0 0 1 0 -1 0 
1 0 0 0 -0 1 0 0 0 1 1 0 -0 
1 0 0 38.099999999999994 0 0 1 1 0 -0 -0 1 0 
1 0 76.199999999999989 0 -0 1 0 0 0 1 1 0 -0 
1 0 0 0 0 0 1 1 0 -0 -0 1 0 
1 20 0 0 1 0 -0 0 0 1 0 -1 0 
1 0 0 0 0 0 1 1 0 -0 -0 1 0 
1 0 0 0 1 0 -0 0 0 1 0 -1 0 
1 0 0 14.800000000000001 0 0 1 1 0 -0 -0 1 0 
2 0 0 0 0 0 1 1 0 -0 -0 1 0 4.5
1 0 0 26.099999999999994 0 0 1 1 0 -0 -0 1 0 
2 0 0 0 0 0 1 1 0 -0 -0 1 0 4.5
1 0 0 26.099999999999994 0 0 1 1 0 -0 -0 1 0 
2 0 0 0 0 0 1 1 0 -0 -0 1 0 2.2999999999999998
2 0 0 0 0 0 1 1 0 -0 -0 1 0 2.2999999999999998
1 0 0 0 0 0 1 1 0 -0 -0 1 0 
1 0 0 0 0 0 1 1 0 -0 -0 1 0 
Triangulations 0

TShapes 101
Ve
1e-07
0 0 38.1
0 0

0101101
*
Ve
1e-07
0 0 0
0 0

0101101
*
Ed
 1e-07 1 1 0
1  1 0 0 38.1
2  1 1 0 0 38.1
2  2 2 0 0 38.1
0

0101000
-101 0 +100 0 *
Ve
1e-07
0 76.2 38.1
0 0

0101101
*
Ed
 1e-07 1 1 0
1  2 0 0 76.2
2  3 1 0 0 76.2
2  4 3 0 0 76.2
0

0101000
-98 0 +101 0 *
Ve
1e-07
0 76.2 0
0 0

0101101
*
Ed
 1e-07 1 1 0
1  3 0 0 38.1
2  5 1 0 0 38.1
2  6 4 0 0 38.1
0

0101000
-98 0 +96 0 *
Ed
 1e-07 1 1 0
1  4 0 0 76.2
2  7 1 0 0 76.2
2  8 5 0 0 76.2
0

0101000
-96 0 +100 0 *
Wi

0101100
-99 0 -97 0 +95 0 +94 0 *
Fa
0  1e-07 1 0

0111000
+93 0 *
Ve
1e-07
20 0 0
0 0

0101101
*
Ve
1.5e-07
0 -38.1 11.65
0 0

0101101
*
Ed
 1e-07 1 1 0
1  5 0 0 11.65
2  9 6 0 0 11.65
2  10 2 0 0 11.65
0

0101000
+91 0 -90 4 *
Ve
1.5e-07
-4.6 -38.1 11.65
0 0

0101101
*
Ed
 1.5e-07 1 1 0
1  6 0 7.7 12.3
2  11 2 3 7.7 12.3
2  12 7 7 7.7 12.3
0

0101000
+88 0 -90 0 *
Ve
1.50000003552714e-07
-4.6 -38.1 26.45
0 0

0101101
*
Ed
 1.5e-07 1 1 0
1  7 0 -20.625 -5.825
2  13 2 3 -20.625 -5.825
2  14 8 7 -20.625 -5.825
0

0101000
+86 0 -88 0 *
Ve
1.5e-07
0 -38.1 26.45
0 0

0101101
*
Ed
 1.5e-07 1 1 0
1  8 0 7.7 12.3
2  15 2 3 7.7 12.3
2  16 9 7 7.7 12.3
0

0101000
+86 0 -84 0 *
Ve
1e-07
20 0 38.1
0 0

0101101
*
Ed
 1e-07 1 1 0
1  5 0 26.45 38.1
2  9 6 0 26.45 38.1
2  10 2 0 26.45 38.1
0

0101000
+84 4 -82 0 *
Ed
 1e-07 1 1 0
1  9 0 0 20
2  17 2 0 0 20
2  18 3 0 0 20
0

0101000
-82 0 +101 0 *
Ed
 1e-07 1 1 0
1  10 0 0 20
2  19 2 0 0 20
2  20 5 0 0 20
0

0101000
-91 0 +100 0 *
Wi

0101100
-89 3 +87 0 +85 0 -83 0 -81 3 +80 3 +99 3 -79 3 *
Fa
0  1e-07 2 3

0101000
+78 0 *
Ve
1e-07
20 76.2 38.1
0 0

0101101
*
Ed
 1e-07 1 1 0
1  11 0 0 20
2  21 4 0 0 20
2  22 3 0 0 20
0

0101000
-76 0 +98 0 *
Ed
 1e-07 1 1 0
1  12 0 0 76.2
2  23 6 0 0 76.2
2  24 3 0 0 76.2
0

0101000
-76 0 +82 0 *
Wi

0101100
-97 3 -75 3 +80 3 +74 3 *
Ve
1e-07
4.5 -1.10218211923262e-15 26.1
0 0

0101101
*
Ed
 1e-07 1 1 0
1  13 0 0 6.28318530717959
2  25 10 0 0 6.28318530717959
2  26 11 0 0 6.28318530717959
2  27 3 12 0 6.28318530717959
0

0101000
+72 0 -72 0 *
Wi

0101100
-71 11 *
Ve
1e-07
4.5 -1.10218211923262e-15 26.1
0 0

0101101
*
Ed
 1e-07 1 1 0
1  14 0 0 6.28318530717959
2  28 12 0 0 6.28318530717959
2  29 13 0 0 6.28318530717959
2  30 3 17 0 6.28318530717959
0

0101000
+69 0 -69 0 *
Wi

0101100
-68 16 *
Fa
0  1e-07 3 3

0101000
+73 0 +70 0 +67 0 *
Ve
1e-07
20 76.2 0
0 0

0101101
*
Ve
1.5e-07
0 38.1 11.65
0 0

0101101
*
Ed
 1e-07 1 1 0
1  15 0 0 11.65
2  31 6 0 0 11.65
2  32 4 0 0 11.65
0

0101000
+65 0 -64 4 *
Ve
1.5e-07
-4.6 38.1 11.65
0 0

0101101
*
Ed
 1.5e-07 1 1 0
1  16 0 7.7 12.3
2  33 4 3 7.7 12.3
2  34 7 7 7.7 12.3
0

0101000
+62 0 -64 0 *
Ve
1.50000003552714e-07
-4.6 38.1 26.45
0 0

0101101
*
Ed
 1.5e-07 1 1 0
1  17 0 -20.625 -5.825
2  35 4 3 -20.625 -5.825
2  36 8 7 -20.625 -5.825
0

0101000
+60 0 -62 0 *
Ve
1.5e-07
0 38.1 26.45
0 0

0101101
*
Ed
 1.5e-07 1 1 0
1  18 0 7.7 12.3
2  37 4 3 7.7 12.3
2  38 9 7 7.7 12.3
0

0101000
+60 0 -58 0 *
Ed
 1e-07 1 1 0
1  15 0 26.45 38.1
2  31 6 0 26.45 38.1
2  32 4 0 26.45 38.1
0

0101000
+58 4 -76 0 *
Ed
 1e-07 1 1 0
1  19 0 0 20
2  39 4 0 0 20
2  40 5 0 0 20
0

0101000
-65 0 +96 0 *
Wi

0101100
-63 3 +61 0 +59 0 -57 0 -56 3 +75 3 +95 3 -55 3 *
Fa
0  1e-07 4 3

0101000
+54 0 *
Ed
 1e-07 1 1 0
1  20 0 0 76.2
2  41 6 0 0 76.2
2  42 5 0 0 76.2
0

0101000
-65 0 +91 0 *
Wi

0101100
-94 3 -55 3 +79 3 +52 3 *
Ve
1e-07
-10.2 -25 0
0 0

0101101
*
Ed
 1e-07 1 1 0
1  21 0 0 6.28318530717959
2  43 5 3 0 6.28318530717959
2  44 14 20 0 6.28318530717959
0

0101100
+50 0 -50 0 *
Wi

0101100
-49 0 *
Ve
1e-07
-10.2 25 0
0 0

0101101
*
Ed
 1e-07 1 1 0
1  22 0 0 6.28318530717959
2  45 5 3 0 6.28318530717959
2  46 15 23 0 6.28318530717959
0

0101100
+47 0 -47 0 *
Wi

0101100
-46 0 *
Fa
0  1e-07 5 3

0101000
+51 0 +48 0 +45 0 *
Ed
 1.5e-07 1 1 0
1  23 0 -95.25 -19.05
2  47 6 3 -95.25 -19.05
2  48 7 7 -95.25 -19.05
0

0101000
+64 0 -90 0 *
Wi

0101100
-89 3 +43 0 +63 3 +52 3 *
Fa
0  1e-07 6 3

0101000
+42 0 *
Ed
 1e-07 1 1 0
1  24 0 38.1 114.3
2  49 8 0 38.1 114.3
2  50 7 0 38.1 114.3
0

0101000
+88 24 -62 24 *
Wi

0101100
-40 7 -61 0 -43 0 +87 0 *
Fa
0  1e-07 7 7

0101000
+39 0 *
Ed
 1e-07 1 1 0
1  25 0 38.1 114.3
2  51 8 0 38.1 114.3
2  52 9 0 38.1 114.3
0

0101000
+86 24 -60 24 *
Wi

0101100
-37 7 -59 0 +40 7 +85 0 *
Fa
0  1e-07 8 7

0101000
+36 0 *
Ed
 1.5e-07 1 1 0
1  26 0 -95.25 -19.05
2  53 6 3 -95.25 -19.05
2  54 9 7 -95.25 -19.05
0

0101000
+58 0 -84 0 *
Wi

0101100
-37 7 -57 0 -34 0 +83 0 *
Fa
0  1e-07 9 7

0101000
+33 0 *
Wi

0101100
-81 3 -74 3 +56 3 -34 0 *
Fa
0  1e-07 6 3

0101000
+31 0 *
Ve
1e-07
4.5 -1.10218211923262e-15 0
0 0

0101101
*
Ed
 1e-07 1 1 0
1  27 0 0 26.1
3  55 56CN 10 0 0 26.1
0

0101000
-72 0 +29 0 *
Ed
 1e-07 1 1 0
1  28 0 0 6.28318530717959
2  57 10 0 0 6.28318530717959
2  58 16 0 0 6.28318530717959
0

0101000
+29 0 -29 0 *
Wi

0101100
-71 0 +28 0 +27 0 -28 0 *
Fa
0  1e-07 10 0

0111000
+26 0 *
Ve
1e-07
4.5 -1.10218211923262e-15 0
0 0

0101101
*
Ed
 1e-07 1 1 0
1  29 0 0 26.1
3  59 60CN 12 0 0 26.1
0

0101000
-69 0 +24 0 *
Ed
 1e-07 1 1 0
1  30 0 0 6.28318530717959
2  61 12 0 0 6.28318530717959
2  62 17 0 0 6.28318530717959
0

0101000
+24 0 -24 0 *
Wi

0101100
-68 0 +23 0 +22 0 -23 0 *
Fa
0  1e-07 12 0

0111000
+21 0 *
Ve
1.00000000563338e-07
2.3 -5.63337527607782e-16 12
0 0

0101101
*
Ed
 1e-07 1 1 0
1  31 0 19.05 31.05
3  63 64CN 14 0 19.05 31.05
0

0101000
+50 25 -19 26 *
Ed
 1e-07 1 1 0
1  32 0 0 6.28318530717959
2  65 14 27 0 6.28318530717959
2  66 16 28 0 6.28318530717959
0

0101100
+19 0 -19 0 *
Wi

0101100
+18 20 +49 0 -18 20 -17 10 *
Fa
0  1e-07 14 20

0101000
+16 0 *
Ve
1.00000000563338e-07
2.3 -5.63337527607782e-16 12
0 0

0101101
*
Ed
 1e-07 1 1 0
1  33 0 19.05 31.05
3  67 68CN 15 0 19.05 31.05
0

0101000
+47 29 -14 30 *
Ed
 1e-07 1 1 0
1  34 0 0 6.28318530717959
2  69 15 31 0 6.28318530717959
2  70 17 32 0 6.28318530717959
0

0101100
+14 0 -14 0 *
Wi

0101100
+13 23 +46 0 -13 23 -12 15 *
Fa
0  1e-07 15 23

0101000
+11 0 *
Wi

0101100
+27 28 *
Wi

0101100
-17 0 *
Fa
0  1e-07 16 28

0101000
+9 0 +8 0 *
Wi

0101100
+22 32 *
Wi

0101100
-12 0 *
Fa
0  1e-07 17 32

0101000
+6 0 +5 0 *
Sh

0101100
-92 3 -77 0 +66 0 +53 0 -44 0 +41 0 +38 0 +35 0 -32 0 +30 0 
-25 11 -20 16 -15 0 -10 0 +7 10 +4 15 *
So

0100000
+3 0 *
Co

1100000
+2 0 *

+1 0 