DBRep_DrawableShape

CASCADE Topology V3, (c) Open Cascade
Locations 39
1
0.994889930754971 0.100965467771757               0               0 
-0.100965467771757 0.994889930754971              -0               0 
             -0               0               1               0 
1
              1               0               0      -376.71375 
              0               1               0               0 
              0               0               1               0 
2  1 1 2 1 0
1
              1               0               0              -0 
              0               1               0              -0 
              0               0               1           -38.1 
1
              1               0               0               0 
              0               1               0               0 
              0               0               1           19.05 
1
              1               0               0       364.21375 
              0               1               0               0 
              0               0               1               0 
1
0.999395430983537 -0.0347674061331995               0               0 
0.0347674061331995 0.999395430983537              -0               0 
              0               0               1               0 
2  4 1 5 1 6 1 7 1 0
1
              1               0               0              -0 
              0               1               0              -0 
              0               0               1           -38.1 
1
              1               0               0               0 
              0               1               0               0 
              0               0               1           19.05 
1
              1               0               0       364.21375 
              0               1               0               0 
              0               0               1               0 
1
0.986004444621847 -0.16671903066526               0               0 
0.16671903066526 0.986004444621847              -0               0 
              0               0               1               0 
2  9 1 10 1 11 1 12 1 0
1
              1               0               0              -0 
              0               1               0              -0 
              0               0               1          -13.05 
1
              1               0               0               0 
              0               1               0               0 
              0               0               1           25.05 
2  14 1 15 1 6 1 7 1 0
2  7 -1 6 -1 15 -1 14 -1 0
1
              1               0               0              -0 
              0               1               0              -0 
              0               0               1          -13.05 
1
              1               0               0               0 
              0               1               0               0 
              0               0               1           25.05 
2  18 1 19 1 11 1 12 1 0
2  12 -1 11 -1 19 -1 18 -1 0
1
              1               0               0              -0 
              0               1               0              -0 
              0               0               1              -0 
1
              1               0               0               0 
              0               1               0               0 
              0               0               1           11.65 
2  22 1 23 1 0
1
              1               0               0              -0 
              0               1               0              -0 
              0               0               1              -0 
1
              1               0               0               0 
              0               1               0               0 
              0               0               1           11.65 
2  25 1 26 1 0
2  26 -1 25 -1 0
2  7 -1 6 -1 5 -1 4 -1 0
2  5 -1 4 -1 0
2  6 1 7 1 0
2  4 1 5 1 0
2  14 1 15 1 0
2  12 -1 11 -1 10 -1 9 -1 0
2  10 -1 9 -1 0
2  11 1 12 1 0
2  9 1 10 1 0
2  18 1 19 1 0
2  22 1 23 1 26 -1 25 -1 0
Curve2ds 69
1 0 -19.049999999999997 1 0 
2 0 0 -1 0 0 1 356.71374999999995
1 0 19.049999999999997 1 0 
2 0 0 -1 0 0 1 356.71374999999995
1 0 0 0 1 
1 -10 0 0 1 
1 0.20227560050568899 0 0 1 
1 -366.71374999999995 0 -1 0 
1 0 -19.049999999999997 1 0 
1 -359.23717122884381 73.672445639878319 -0.9796119486352608 0.20089905448017245 
2 0 0 -1 0 0 1 376.71374999999995
1 0 -19.049999999999997 1 0 
2 -363.99355765138006 12.662767365545605 -0.99939543098353678 0.034767406133199549 0.034767406133199549 0.99939543098353678 2.2999999999999998
1 3.140205606109843e-18 19.049999999999997 1 0 
2 -359.11637629238999 60.72136335495928 -0.98600444462184667 0.16671903066525989 0.16671903066525989 0.98600444462184667 2.2999999999999998
1 0 19.049999999999997 1 0 
1 -366.71374999999995 0 -1 0 
1 0 19.049999999999997 1 0 
1 -359.23717122884381 73.672445639878319 -0.9796119486352608 0.20089905448017245 
1 0 19.049999999999997 1 0 
2 0 0 -1 0 0 1 376.71374999999995
1 0 26.099999999999994 1 0 
2 0 0 1 0 -0 1 4.5
2 -363.99355765138006 12.662767365545605 -0.99939543098353678 0.034767406133199549 0.034767406133199549 0.99939543098353678 4.5000000000000231
1 0 26.099999999999994 1 0 
2 0 0 1 0 -0 1 4.5
2 -359.11637629238999 60.72136335495928 -0.98600444462184667 0.16671903066525989 0.16671903066525989 0.98600444462184667 4.5000000000000169
1 0 0 0 1 
1 10 0 0 1 
8 -193.35687499999997 -173.35687499999997
1 -183.35687499999997 7.3999999999999986 -1 0 
8 -193.35687499999997 -173.35687499999997
1 183.35687499999997 0 -1 0 
1 6.2831853071795862 -0 0 1 
1 0 -0 0 1 
1 5.3999999999999773 -7.4000000000000004 0 1 
8 -193.35687499999997 -173.35687499999997
1 -183.35687499999997 -7.4000000000000004 -1 0 
8 -193.35687499999997 -173.35687499999997
1 183.35687499999997 0 -1 0 
1 0.20227560050568899 0 0 1 
8 -193.356875 -173.356875
1 -183.356875 7.3999999999999986 -1 0 
8 -193.356875 -173.356875
1 179.6185856144219 36.836222819939159 -0.9796119486352608 -0.20089905448017245 
8 -5.999999999062311e-07 14.800000599999999
1 5.4000000000000172 -7.4000000000000004 0 1 
8 -5.999999999062311e-07 14.800000599999999
1 0.20227560050568902 0 0 1 
8 -193.356875 -173.356875
1 -183.356875 -7.4000000000000004 -1 0 
8 -193.356875 -173.356875
1 179.6185856144219 36.836222819939159 -0.9796119486352608 -0.20089905448017245 
1 0 -7.4000000000000004 1 0 
2 0 0 1 0 -0 1 376.71374999999995
1 6.2831853071795862 -0 0 1 
1 0 -0 0 1 
1 0 31.049999999999997 1 0 
2 0 0 1 0 -0 1 2.2999999999999998
1 6.2831853071795862 -0 0 1 
1 0 -0 0 1 
1 0 31.049999999999997 1 0 
2 0 0 1 0 -0 1 2.2999999999999998
1 0 7.3999999999999986 1 0 
2 0 0 1 0 -0 1 376.71374999999995
1 6.2831853071795862 -0 0 1 
1 0 -0 0 1 
1 0 0 1 0 
2 0 0 1 0 -0 1 4.5
1 6.2831853071795862 -0 0 1 
1 0 -0 0 1 
1 0 0 1 0 
2 0 0 1 0 -0 1 4.5
1 0 14.800000000000001 1 0 
2 0 0 1 0 -0 1 372.11374999999992
2 0 0 1 0 -0 1 372.11374999999992
1 0 0 1 0 
2 0 0 1 0 -0 1 372.11374999999992
2 0 0 1 0 -0 1 372.11374999999992
Curves 34
2 0 0 0 0 0 1 1 0 -0 -0 1 0 356.71374999999995
2 0 0 38.099999999999994 0 0 1 1 0 -0 -0 1 0 356.71374999999995
1 356.71374999999995 0 19.049999999999997 0 0 1 
1 349.4410517424912 71.6634550950766 19.049999999999997 0 0 1 
1 366.71374999999995 0 0 1 0 0 
1 359.23717122884381 73.672445639878319 0 0.9796119486352608 0.20089905448017245 0 
2 0 0 0 0 0 1 1 0 -0 -0 1 0 376.71374999999995
2 363.99355765138006 12.662767365545605 0 0 0 1 0.99939543098353678 0.034767406133199549 -0 -0.034767406133199549 0.99939543098353678 0 2.2999999999999998
2 359.11637629238999 60.72136335495928 0 0 0 1 0.98600444462184667 0.16671903066525989 -0 -0.16671903066525989 0.98600444462184667 0 2.2999999999999998
1 366.71374999999995 0 38.099999999999994 1 0 0 
1 359.23717122884381 73.672445639878319 38.099999999999994 0.9796119486352608 0.20089905448017245 0 
2 0 0 38.099999999999994 0 0 1 1 0 -0 -0 1 0 376.71374999999995
2 0 0 26.099999999999994 0 0 1 1 0 -0 -0 1 0 4.5
2 0 0 26.099999999999994 0 0 1 1 0 -0 -0 1 0 4.5
1 376.71374999999995 0 19.049999999999997 0 0 1 
1 183.35687499999997 0 26.449999999999996 -1 0 0 
1 372.11374999999992 -9.1141582571243662e-14 0 0 0 1 
1 183.35687499999997 0 11.649999999999997 -1 0 0 
1 369.03329071519636 75.681436184680038 19.049999999999997 0 0 1 
1 179.6185856144219 36.836222819939159 26.449999999999996 -0.9796119486352608 -0.20089905448017245 0 
1 364.52707575147423 74.757300534071263 11.649999999999997 0 0 1 
1 179.6185856144219 36.836222819939159 11.649999999999997 -0.9796119486352608 -0.20089905448017245 0 
2 0 0 11.649999999999997 0 0 1 1 0 -0 -0 1 0 376.71374999999995
1 2.2999999999999998 -5.6333752760778241e-16 0 0 0 1 
2 0 0 12 0 0 1 1 0 -0 -0 1 0 2.2999999999999998
1 2.2999999999999998 -5.6333752760778241e-16 0 0 0 1 
2 0 0 12 0 0 1 1 0 -0 -0 1 0 2.2999999999999998
2 0 0 26.449999999999996 0 0 1 1 0 -0 -0 1 0 376.71374999999995
1 4.5 -1.1021821192326179e-15 0 0 0 1 
2 0 0 0 0 0 1 1 0 -0 -0 1 0 4.5
1 4.5 -1.1021821192326179e-15 0 0 0 1 
2 0 0 0 0 0 1 1 0 -0 -0 1 0 4.5
2 0 0 14.800000000000001 0 0 1 1 0 -0 -0 1 0 372.11374999999992
2 0 0 0 0 0 1 1 0 -0 -0 1 0 372.11374999999992
Polygon3D 0
PolygonOnTriangulations 0
Surfaces 19
2 0 0 19.049999999999997 0 0 1 1 0 -0 -0 1 0 356.71374999999995
1 0 0 0 0 0 1 -1 -0 0 -0 1 0 
1 0 0 38.099999999999994 0 0 1 -1 -0 0 -0 1 0 
1 366.71374999999995 0 19.049999999999997 0 -1 0 1 0 0 0 0 1 
1 359.23717122884381 73.672445639878319 19.049999999999997 0.20089905448017245 -0.9796119486352608 0 0.9796119486352608 0.20089905448017245 0 0 0 1 
2 0 0 19.049999999999997 0 0 1 1 0 -0 -0 1 0 376.71374999999995
2 0 0 0 0 0 1 1 0 -0 -0 1 0 2.2999999999999998
2 0 0 0 0 0 1 1 0 -0 -0 1 0 2.2999999999999998
2 0 0 0 0 0 1 1 0 -0 -0 1 0 4.5
1 0 0 26.099999999999994 0 0 1 1 0 -0 -0 1 0 
2 0 0 0 0 0 1 1 0 -0 -0 1 0 4.5
1 0 0 26.099999999999994 0 0 1 1 0 -0 -0 1 0 
1 0 0 14.800000000000001 0 0 1 1 0 -0 -0 1 0 
2 0 0 0 0 0 1 1 0 -0 -0 1 0 372.11374999999992
1 0 0 0 0 0 1 1 0 -0 -0 1 0 
1 0 0 0 0 0 1 1 0 -0 -0 1 0 
1 0 0 0 0 0 1 1 0 -0 -0 1 0 
1 0 0 14.800000000000001 0 0 1 1 0 -0 -0 1 0 
1 0 0 0 0 0 1 1 0 -0 -0 1 0 
Triangulations 0

TShapes 101
Ve
1e-07
356.71375 0 0
0 0

0101101
*
Ve
1e-07
349.441051742491 71.6634550950766 0
0 0

0101101
*
Ed
 1e-07 1 1 0
1  1 0 0 0.202275600505689
2  1 1 0 0 0.202275600505689
2  2 2 0 0 0.202275600505689
0

0101000
+101 0 -100 0 *
Ve
1e-07
356.71375 0 38.1
0 0

0101101
*
Ve
1e-07
349.441051742491 71.6634550950766 38.1
0 0

0101101
*
Ed
 1e-07 1 1 0
1  2 0 0 0.202275600505689
2  3 1 0 0 0.202275600505689
2  4 3 0 0 0.202275600505689
0

0101000
+98 0 -97 0 *
Ed
 1e-07 1 1 0
1  3 0 -19.05 19.05
2  5 1 0 -19.05 19.05
2  6 4 0 -19.05 19.05
0

0101000
+101 0 -98 0 *
Ed
 1e-07 1 1 0
1  4 0 -19.05 19.05
2  7 1 0 -19.05 19.05
2  6 5 0 -19.05 19.05
0

0101000
+100 0 -97 0 *
Wi

0101100
+99 0 -96 0 -95 0 +94 0 *
Fa
0  1e-07 1 0

0101000
+93 0 *
Ve
1e-07
376.71375 0 0
0 0

0101101
*
Ed
 1e-07 1 1 0
1  5 0 -10 10
2  8 2 0 -10 10
2  9 4 0 -10 10
0

0101000
+101 0 -91 0 *
Ve
1e-07
369.033290715196 75.68143618468 0
0 0

0101101
*
Ed
 1e-07 1 1 0
1  6 0 -10 10
2  10 2 0 -10 10
2  9 5 0 -10 10
0

0101000
+100 0 -89 0 *
Ed
 1e-07 1 1 0
1  7 0 0 0.202275600505689
2  11 2 0 0 0.202275600505689
2  12 6 0 0 0.202275600505689
0

0101000
+91 0 -89 0 *
Wi

0101100
+99 0 -90 0 +88 0 -87 0 *
Ve
1e-07
366.292167142642 12.742732399652 0
0 0

0101101
*
Ed
 1e-07 1 1 0
1  8 0 0 6.28318530717959
2  13 2 0 0 6.28318530717959
2  14 7 8 0 6.28318530717959
0

0101100
+85 0 -85 0 *
Wi

0101100
+84 0 *
Ve
1e-07
361.38418651502 61.1048171254894 0
0 0

0101101
*
Ed
 1e-07 1 1 0
1  9 0 0 6.28318530717959
2  15 2 0 0 6.28318530717959
2  16 8 13 0 6.28318530717959
0

0101100
+82 0 -82 0 *
Wi

0101100
+81 0 *
Fa
0  1e-07 2 0

0101000
+86 0 +83 0 +80 0 *
Ve
1e-07
376.71375 0 38.1
0 0

0101101
*
Ed
 1e-07 1 1 0
1  10 0 -10 10
2  17 3 0 -10 10
2  18 4 0 -10 10
0

0101000
+98 0 -78 0 *
Ve
1e-07
369.033290715196 75.68143618468 38.1
0 0

0101101
*
Ed
 1e-07 1 1 0
1  11 0 -10 10
2  19 3 0 -10 10
2  18 5 0 -10 10
0

0101000
+97 0 -76 0 *
Ed
 1e-07 1 1 0
1  12 0 0 0.202275600505689
2  20 6 0 0 0.202275600505689
2  21 3 0 0 0.202275600505689
0

0101000
+78 0 -76 0 *
Wi

0101100
+96 0 -77 0 +75 0 -74 0 *
Ve
1e-07
4.5 -1.10218211923262e-15 26.1
0 0

0101101
*
Ed
 1e-07 1 1 0
1  13 0 0 6.28318530717959
2  22 9 0 0 6.28318530717959
2  23 10 0 0 6.28318530717959
2  24 3 17 0 6.28318530717959
0

0101000
+72 0 -72 0 *
Wi

0101100
+71 16 *
Ve
1e-07
4.5 -1.10218211923262e-15 26.1
0 0

0101101
*
Ed
 1e-07 1 1 0
1  14 0 0 6.28318530717959
2  25 11 0 0 6.28318530717959
2  26 12 0 0 6.28318530717959
2  27 3 21 0 6.28318530717959
0

0101000
+69 0 -69 0 *
Wi

0101100
+68 20 *
Fa
0  1e-07 3 0

0101000
+73 0 +70 0 +67 0 *
Ve
1.5e-07
376.71375 0 26.45
0 0

0101101
*
Ed
 1e-07 1 1 0
1  15 0 7.4 19.05
2  28 6 0 7.4 19.05
2  29 4 0 7.4 19.05
0

0101000
+65 0 -78 0 *
Ve
1.50000091141583e-07
372.11375 -9.11415825712437e-14 14.8
0 0

0101101
*
Ed
 1.5e-07 1 1 0
1  16 0 -193.356875 -188.756875
2  30 4 0 -193.356875 -188.756875
2  31 13 24 -193.356875 -188.756875
0

0101000
+65 0 -63 27 *
Ve
1.50000091141583e-07
372.11375 -9.11415825712437e-14 0
0 0

0101101
*
Ed
 1.00000091141583e-07 1 1 0
1  17 0 0 14.8
3  32 33CN 14 0 0 14.8
2  34 4 28 0 14.8
0

0101000
-63 0 +61 0 *
Ve
1.5e-07
376.71375 0 11.65
0 0

0101101
*
Ed
 1.5e-07 1 1 0
1  18 0 -193.356875 -188.756875
2  35 4 0 -193.356875 -188.756875
2  36 15 24 -193.356875 -188.756875
0

0101000
+59 0 -61 27 *
Ed
 1e-07 1 1 0
1  15 0 -19.05 -7.4
2  28 6 0 -19.05 -7.4
2  29 4 0 -19.05 -7.4
0

0101000
+91 0 -59 0 *
Wi

0101100
-95 0 -77 0 +64 0 -62 0 +60 27 +58 0 +57 0 +90 0 *
Fa
0  1e-07 4 0

0101000
+56 0 *
Ve
1.50000114571574e-07
369.033290715196 75.68143618468 26.45
0 0

0101101
*
Ed
 1e-07 1 1 0
1  19 0 7.4 19.05
2  37 6 0 7.4 19.05
2  29 5 0 7.4 19.05
0

0101000
+54 0 -76 0 *
Ve
1.50000014210855e-07
364.527075751474 74.7573005340712 26.45
0 0

0101101
*
Ed
 1.5e-07 1 1 0
1  20 0 -193.356875 -188.756875
2  38 5 0 -193.356875 -188.756875
2  39 13 24 -193.356875 -188.756875
0

0101000
+54 0 -52 0 *
Ve
1.50000014210855e-07
364.527075751474 74.7573005340712 11.65
0 0

0101101
*
Ed
 1e-07 1 1 0
1  21 0 0 14.8
2  40 5 0 0 14.8
2  41 14 27 0 14.8
0

0101000
+50 0 -52 0 *
Ve
1.50000114571574e-07
369.033290715196 75.68143618468 11.65
0 0

0101101
*
Ed
 1.5e-07 1 1 0
1  22 0 -193.356875 -188.756875
2  42 5 0 -193.356875 -188.756875
2  43 15 24 -193.356875 -188.756875
0

0101000
+48 0 -50 0 *
Ed
 1e-07 1 1 0
1  19 0 -19.05 -7.4
2  37 6 0 -19.05 -7.4
2  29 5 0 -19.05 -7.4
0

0101000
+89 0 -48 0 *
Wi

0101100
-94 0 -75 0 +53 0 -51 0 +49 0 +47 0 +46 0 +88 0 *
Fa
0  1e-07 5 0

0101000
+45 0 *
Ed
 1e-07 1 1 0
1  23 0 0 0.202275600505689
2  44 6 0 0 0.202275600505689
2  45 15 24 0 0.202275600505689
0

0101000
+59 0 -48 0 *
Wi

0101100
-57 0 -43 0 +46 0 +87 0 *
Fa
0  1e-07 6 0

0101000
+42 0 *
Ve
1.00000000563338e-07
2.3 -5.63337527607782e-16 12
0 0

0101101
*
Ed
 1e-07 1 1 0
1  24 0 19.05 31.05
3  46 47CN 7 0 19.05 31.05
0

0101000
+85 29 -40 30 *
Ed
 1e-07 1 1 0
1  25 0 0 6.28318530717959
2  48 7 32 0 6.28318530717959
2  49 16 33 0 6.28318530717959
0

0101100
+40 0 -40 0 *
Wi

0101100
+39 8 +84 0 -39 8 -38 31 *
Fa
0  1e-07 7 8

0101000
+37 0 *
Ve
1.00000000563338e-07
2.3 -5.63337527607782e-16 12
0 0

0101101
*
Ed
 1e-07 1 1 0
1  26 0 19.05 31.05
3  50 51CN 8 0 19.05 31.05
0

0101000
+82 34 -35 35 *
Ed
 1e-07 1 1 0
1  27 0 0 6.28318530717959
2  52 8 37 0 6.28318530717959
2  53 17 38 0 6.28318530717959
0

0101100
+35 0 -35 0 *
Wi

0101100
+34 13 +81 0 -34 13 -33 36 *
Fa
0  1e-07 8 13

0101000
+32 0 *
Ed
 1e-07 1 1 0
1  28 0 0 0.202275600505689
2  54 6 0 0 0.202275600505689
2  55 13 24 0 0.202275600505689
0

0101000
+65 0 -54 0 *
Wi

0101100
-64 0 -74 0 +53 0 +30 0 *
Fa
0  1e-07 6 0

0101000
+29 0 *
Ve
1e-07
4.5 -1.10218211923262e-15 0
0 0

0101101
*
Ed
 1e-07 1 1 0
1  29 0 0 26.1
3  56 57CN 9 0 0 26.1
0

0101000
-72 0 +27 0 *
Ed
 1e-07 1 1 0
1  30 0 0 6.28318530717959
2  58 9 0 0 6.28318530717959
2  59 16 0 0 6.28318530717959
0

0101000
+27 0 -27 0 *
Wi

0101100
-71 0 +26 0 +25 0 -26 0 *
Fa
0  1e-07 9 0

0111000
+24 0 *
Ve
1e-07
4.5 -1.10218211923262e-15 0
0 0

0101101
*
Ed
 1e-07 1 1 0
1  31 0 0 26.1
3  60 61CN 11 0 0 26.1
0

0101000
-69 0 +22 0 *
Ed
 1e-07 1 1 0
1  32 0 0 6.28318530717959
2  62 11 0 0 6.28318530717959
2  63 17 0 0 6.28318530717959
0

0101000
+22 0 -22 0 *
Wi

0101100
-68 0 +21 0 +20 0 -21 0 *
Fa
0  1e-07 11 0

0111000
+19 0 *
Ed
 1e-07 1 1 0
1  33 0 0 0.202275600505689
2  64 14 0 0 0.202275600505689
2  65 18 0 0 0.202275600505689
2  66 13 39 0 0.202275600505689
0

0101000
+63 0 -52 28 *
Wi

0101100
-17 27 +51 0 +30 0 -62 0 *
Fa
0  1e-07 13 24

0101000
+16 0 *
Ed
 1e-07 1 1 0
1  34 0 0 0.202275600505689
2  67 14 0 0 0.202275600505689
2  68 19 0 0 0.202275600505689
2  69 15 39 0 0.202275600505689
0

0101000
+61 0 -50 28 *
Wi

0101100
-17 27 +49 0 +14 27 -60 27 *
Fa
0  1e-07 14 27

0101000
+13 0 *
Wi

0101100
-14 27 +47 0 +43 0 -58 0 *
Fa
0  1e-07 15 24

0101000
+11 0 *
Wi

0101100
+25 33 *
Wi

0101100
-38 0 *
Fa
0  1e-07 16 33

0101000
+9 0 +8 0 *
Wi

0101100
+20 38 *
Wi

0101100
-33 0 *
Fa
0  1e-07 17 38

0101000
+6 0 +5 0 *
Sh

0101100
-92 0 +79 0 -66 0 +55 0 -44 0 +41 0 -36 0 -31 0 +28 0 -23 16 
-18 20 -15 0 +12 0 +10 0 +7 31 +4 36 *
So

0100000
+3 0 *
Co

1100000
+2 0 *

+1 3 