DBRep_DrawableShape

CASCADE Topology V3, (c) Open Cascade
Locations 7
1
0.993382395793862 0.114853888601328               0               0 
-0.114853888601328 0.993382395793862              -0               0 
             -0               0               1               0 
1
              1               0               0      -330.99375 
              0               1               0               0 
              0               0               1               0 
2  1 1 2 1 0
1
              1               0               0      -330.99375 
              0               1               0       -661.9875 
              0               0               1           -38.1 
1
              1               0               0 -353.051783548082 
              0               1               0               0 
              0               0               1           19.05 
2  4 1 5 1 0
2  2 -1 1 -1 0
Curve2ds 41
8 0 38.099999999999994
1 -8.970983225958669 -19.049999999999997 0 1 
8 0 38.099999999999994
1 19.049999999999997 -697.70634151820911 1 0 
8 0 38.099999999999994
1 -8.9709832259586726 -19.049999999999997 0 1 
8 0 38.099999999999994
1 19.049999999999997 -626.26865848179079 1 0 
1 -319.96473322595875 0 -1 0 
1 0 19.049999999999997 1 0 
1 0 0 0 1 
1 11.029016774041262 0 0 1 
8 148.95334983893812 171.0113833870206
1 -159.98236661297938 -0.24999999999999645 1 0 
8 148.95334983893812 171.0113833870206
1 -159.98236661297938 0 -1 0 
1 6.2831853071795862 0 0 1 
1 0 0 0 1 
1 -2.2999999999999998 0 0 1 
1 6.4290167740412016 -7.6499999999999968 0 1 
8 148.95334983893812 171.0113833870206
1 -159.98236661297938 -15.049999999999997 1 0 
8 148.95334983893812 171.0113833870206
1 -159.98236661297938 0 -1 0 
1 -319.96473322595875 0 -1 0 
1 0 -19.049999999999997 1 0 
2 0 0 -1 0 0 1 330.99374999999998
1 0 -7.4000000000000004 1 0 
1 0 -15.049999999999997 1 0 
1 0.23021582733812948 0 0 1 
2 0 0 -1 0 0 1 330.99375000000003
1 0 -19.049999999999997 1 0 
8 148.95334983893812 171.01138338702063
1 -159.98236661297938 -15.049999999999997 1 0 
8 148.95334983893812 171.01138338702063
1 -155.76157879906631 36.506002206650777 -0.97361716854630764 0.22818766205005644 
1 0 -7.4000000000000004 1 0 
2 0 0 -1 0 0 1 326.39374999999995
1 0 7.4000000000000004 1 0 
2 0 0 -1 0 0 1 326.39374999999995
8 -7.4000006000000003 7.4000006000000003
1 6.4290167740412416 -7.6499999999999968 0 1 
8 -7.4000006000000003 7.4000006000000003
1 0.23021582733812954 0 0 1 
1 0 7.4000000000000004 1 0 
2 0 0 -1 0 0 1 330.99374999999998
1 0 -0.24999999999999645 1 0 
8 148.95334983893812 171.01138338702063
1 -159.98236661297938 -0.24999999999999645 1 0 
8 148.95334983893812 171.01138338702063
1 -155.76157879906631 36.506002206650777 -0.97361716854630764 0.22818766205005644 
1 0 19.049999999999997 1 0 
2 0 0 -1 0 0 1 330.99375000000003
1 -311.52315759813263 73.01200441330154 -0.97361716854630764 0.22818766205005644 
1 -311.52315759813263 73.01200441330154 -0.97361716854630764 0.22818766205005644 
Curves 22
8 0 71.437683036418292
1 -22.058033548082449 35.718841518209139 0 0 -1 0 
1 -22.058033548082449 35.718841518209175 0 0 0 1 
8 0 71.437683036418292
1 -22.058033548082449 -35.718841518209153 38.099999999999994 0 1 0 
1 -22.058033548082449 -35.71884151820916 0 0 0 1 
1 319.96473322595875 0 38.099999999999994 1 0 0 
1 330.99375000000003 0 19.049999999999997 0 0 1 
1 159.98236661297938 0 18.800000000000001 1 0 -0 
1 326.39374999999995 0 11.4 0 0 1 
1 159.98236661297938 0 4 1 0 -0 
1 319.96473322595875 0 0 1 0 0 
2 0 0 4 0 0 1 1 0 -0 -0 1 0 330.99374999999998
1 322.26119768152444 75.528689965680883 19.049999999999997 0 0 1 
2 0 0 0 0 0 1 1 0 -0 -0 1 0 330.99375000000003
1 155.76157879906631 36.506002206650777 4 0.97361716854630764 0.22818766205005644 -0 
2 0 0 4 0 0 1 1 0 -0 -0 1 0 326.39374999999995
2 0 0 18.800000000000001 0 0 1 1 0 -0 -0 1 0 326.39374999999995
1 317.78255870621138 74.479026720250616 11.4 0 0 1 
2 0 0 18.800000000000001 0 0 1 1 0 -0 -0 1 0 330.99374999999998
1 155.76157879906631 36.506002206650777 18.800000000000001 0.97361716854630764 0.22818766205005644 -0 
2 0 0 38.099999999999994 0 0 1 1 0 -0 -0 1 0 330.99375000000003
1 311.52315759813263 73.01200441330154 38.099999999999994 0.97361716854630764 0.22818766205005644 0 
1 311.52315759813263 73.01200441330154 0 0.97361716854630764 0.22818766205005644 0 
Polygon3D 0
PolygonOnTriangulations 0
Surfaces 12
1 -22.058033548082449 -661.98749999999995 -19.049999999999997 1 0 -0 0 0 1 0 -1 0 
1 311.52315759813263 73.01200441330154 19.049999999999997 0.22818766205005644 -0.97361716854630764 0 0.97361716854630764 0.22818766205005644 0 0 0 1 
1 661.98749999999995 0 0 1 0 -0 0 0 1 0 -1 0 
1 319.96473322595875 0 19.049999999999997 0 -1 0 1 0 0 0 0 1 
1 0 0 38.099999999999994 0 0 1 -1 -0 0 -0 1 0 
2 0 0 19.049999999999997 0 0 1 1 0 -0 -0 1 0 330.99375000000003
1 0 0 18.800000000000001 0 0 1 -1 -0 0 -0 1 0 
2 0 0 11.4 0 0 1 1 0 -0 -0 1 0 326.39374999999995
1 328.69374999999997 0 11.4 0 -1 0 1 0 0 0 0 1 
1 0 0 4 0 0 1 -1 -0 0 -0 1 0 
1 0 0 0 0 0 1 -1 -0 0 -0 1 0 
2 0 0 11.4 0 0 1 1 0 -0 -0 1 0 330.99374999999998
Triangulations 0

TShapes 63
Ve
1.50000035527137e-07
-22.0580335480824 35.7188415182091 0
0 0

0101101
*
Ve
1.50000007105427e-07
-22.0580335480824 -35.7188415182092 0
0 0

0101101
*
Ed
 1e-07 1 1 0
1  1 0 0 71.4376830364183
0

0101000
+63 0 -62 0 *
Ve
1.50000035527137e-07
-22.0580335480824 35.7188415182091 38.1
0 0

0101101
*
Ed
 1.5e-07 1 1 0
1  2 0 0 38.1
2  1 2 3 0 38.1
2  2 3 6 0 38.1
0

0101000
+63 0 -60 0 *
Ve
1.50000007105427e-07
-22.0580335480824 -35.7188415182092 38.1
0 0

0101101
*
Ed
 1e-07 1 1 0
1  3 0 0 71.4376830364183
0

0101000
+58 0 -60 0 *
Ed
 1.5e-07 1 1 0
1  4 0 0 38.1
2  3 4 3 0 38.1
2  4 3 6 0 38.1
0

0101000
+62 0 -58 0 *
Wi

0101100
-61 0 +59 0 -57 0 -56 0 *
Fa
0  0 1 0

0111000
+55 0 *
Ve
1e-07
330.99375 0 38.1
0 0

0101101
*
Ed
 1e-07 1 1 0
1  5 0 -8.97098322595867 11.0290167740413
2  5 5 0 -8.97098322595867 11.0290167740413
2  6 4 0 -8.97098322595867 11.0290167740413
0

0101000
+58 7 -53 0 *
Ve
2.12133034355964e-07
330.99375 0 18.8
0 0

0101101
*
Ed
 1e-07 1 1 0
1  6 0 -0.249999999999996 19.05
2  7 6 0 -0.249999999999996 19.05
2  8 4 0 -0.249999999999996 19.05
0

0101000
+51 0 -53 0 *
Ve
1.5e-07
326.39375 0 18.8
0 0

0101101
*
Ed
 1.5e-07 1 1 0
1  7 0 166.411383387021 171.011383387021
2  9 4 0 166.411383387021 171.011383387021
2  10 7 0 166.411383387021 171.011383387021
0

0101000
+49 0 -51 0 *
Ve
1.5e-07
326.39375 0 4
0 0

0101101
*
Ed
 1e-07 1 1 0
1  8 0 -7.4 7.4
3  11 12CN 8 0 -7.4 7.4
2  13 9 0 -7.4 7.4
2  14 4 0 -7.4 7.4
0

0101000
+47 0 -49 0 *
Ve
2.12133034355964e-07
330.99375 0 4
0 0

0101101
*
Ed
 1.5e-07 1 1 0
1  9 0 166.411383387021 171.011383387021
2  15 4 0 166.411383387021 171.011383387021
2  16 10 0 166.411383387021 171.011383387021
0

0101000
+47 0 -45 0 *
Ve
1e-07
330.99375 0 0
0 0

0101101
*
Ed
 1e-07 1 1 0
1  6 0 -19.05 -15.05
2  7 6 0 -19.05 -15.05
2  8 4 0 -19.05 -15.05
0

0101000
+43 0 -45 0 *
Ed
 1e-07 1 1 0
1  10 0 -8.97098322595867 11.0290167740413
2  17 11 0 -8.97098322595867 11.0290167740413
2  18 4 0 -8.97098322595867 11.0290167740413
0

0101000
+62 7 -43 0 *
Wi

0101100
-56 0 -52 3 +50 3 +48 3 +46 3 -44 3 +42 3 +41 3 *
Fa
0  1e-07 4 3

0101000
+40 0 *
Ve
1.50004894499767e-07
322.261197681523 75.5286899656856 4
0 0

0101101
*
Ed
 1.00000060708798e-07 1 1 0
1  11 0 0 0.230215827338144
2  19 10 0 0 0.230215827338144
2  20 12 0 0 0.230215827338144
2  21 6 0 0 0.230215827338144
0

0101000
+45 0 -38 0 *
Ve
1e-07
322.261197681524 75.5286899656809 0
0 0

0101101
*
Ed
 1e-07 1 1 0
1  12 0 -19.05 -15.05
2  22 6 0 -19.05 -15.05
2  8 2 0 -19.05 -15.05
0

0101000
+36 0 -38 0 *
Ed
 1e-07 1 1 0
1  13 0 0 0.230215827338129
2  23 11 0 0 0.230215827338129
2  24 6 0 0 0.230215827338129
0

0101000
+43 0 -36 0 *
Wi

0101100
-42 0 -37 0 +35 0 +34 0 *
Fa
0  1e-07 6 0

0101000
+33 0 *
Ve
1.50000014210855e-07
317.782558706211 74.4790267202506 4
0 0

0101101
*
Ed
 1.5e-07 1 1 0
1  14 0 166.411383387021 171.011383387021
2  25 2 0 166.411383387021 171.011383387021
2  26 10 0 166.411383387021 171.011383387021
0

0101000
+31 0 -38 0 *
Ed
 1e-07 1 1 0
1  15 0 0 0.23021582733813
2  27 8 0 0 0.23021582733813
2  28 10 0 0 0.23021582733813
0

0101000
+47 0 -31 0 *
Wi

0101100
-44 0 -37 0 +30 0 +29 0 *
Fa
0  1e-07 10 0

0101000
+28 0 *
Ve
1.50000014210855e-07
317.782558706211 74.4790267202506 18.8
0 0

0101101
*
Ed
 1e-07 1 1 0
1  16 0 0 0.23021582733813
2  29 8 0 0 0.23021582733813
2  30 7 0 0 0.23021582733813
0

0101000
+49 0 -26 0 *
Ed
 1e-07 1 1 0
1  17 0 -7.4 7.4
2  31 2 0 -7.4 7.4
2  32 8 0 -7.4 7.4
0

0101000
+31 0 -26 0 *
Wi

0101100
-46 0 -25 0 +24 0 +29 0 *
Fa
0  1e-07 8 0

0101000
+23 0 *
Ve
1.50004894499767e-07
322.261197681523 75.5286899656856 18.8
0 0

0101101
*
Ed
 1.00000060708798e-07 1 1 0
1  18 0 0 0.230215827338144
2  33 12 0 0 0.230215827338144
2  34 7 0 0 0.230215827338144
2  35 6 0 0 0.230215827338144
0

0101000
+51 0 -21 0 *
Ed
 1.5e-07 1 1 0
1  19 0 166.411383387021 171.011383387021
2  36 2 0 166.411383387021 171.011383387021
2  37 7 0 166.411383387021 171.011383387021
0

0101000
+26 0 -21 0 *
Wi

0101100
-48 0 -20 0 +19 0 +25 0 *
Fa
0  1e-07 7 0

0101000
+18 0 *
Ve
1e-07
322.261197681524 75.5286899656809 38.1
0 0

0101101
*
Ed
 1e-07 1 1 0
1  20 0 0 0.230215827338129
2  38 6 0 0 0.230215827338129
2  39 5 0 0 0.230215827338129
0

0101000
+53 0 -16 0 *
Ed
 1e-07 1 1 0
1  12 0 -0.249999999999996 19.05
2  22 6 0 -0.249999999999996 19.05
2  8 2 0 -0.249999999999996 19.05
0

0101000
+21 0 -16 0 *
Wi

0101100
-50 0 -15 0 +14 0 +20 0 *
Fa
0  1e-07 6 0

0101000
+13 0 *
Ed
 1e-07 1 1 0
1  21 0 -8.97098322595867 11.0290167740413
2  40 5 0 -8.97098322595867 11.0290167740413
2  6 2 0 -8.97098322595867 11.0290167740413
0

0101000
+60 7 -16 0 *
Wi

0101100
+57 0 +11 3 -15 3 -52 3 *
Fa
0  1e-07 5 3

0111000
+10 0 *
Ed
 1e-07 1 1 0
1  22 0 -8.97098322595867 11.0290167740413
2  41 11 0 -8.97098322595867 11.0290167740413
2  18 2 0 -8.97098322595867 11.0290167740413
0

0101000
+63 7 -36 0 *
Wi

0101100
-59 0 -11 3 +14 3 +19 3 +24 3 -30 3 +35 3 +8 3 *
Fa
0  1e-07 2 3

0101000
+7 0 *
Wi

0101100
-41 3 -61 0 +8 3 -34 3 *
Fa
0  1e-07 11 3

0111000
+5 0 *
Sh

0101100
-54 0 +39 0 +32 3 -27 3 +22 3 +17 3 +12 3 -9 0 -6 0 +4 0 
*
So

0100000
+3 0 *
Co

1100000
+2 0 *

+1 0 