DBRep_DrawableShape

CASCADE Topology V3, (c) Open Cascade
Locations 45
1
              1               0               0              -0 
              0               1               0              -0 
              0               0               1            -9.5 
1
              1               0               0               0 
              0               1               0               0 
              0               0               1            -9.5 
1
              1               0               0               0 
              0               1               0              -8 
              0               0               1               0 
2  1 1 2 1 3 1 0
2  3 -1 2 -1 1 -1 0
1
              1               0               0          -7.375 
              0               1               0 -2.42501313026659 
              0               0               1           -8.25 
1
              1               0               0               0 
              0               1               0 -22.3249868697334 
              0               0               1           -8.25 
2  6 1 7 1 3 -1 2 -1 1 -1 0
1
              1               0               0              -0 
              0               1               0              -0 
              0               0               1               0 
2  9 1 3 1 0
2  9 -1 0
2  3 -1 9 -1 0
2  6 1 7 1 0
1
              1               0               0              -0 
              0               1               0              -0 
              0               0               1              -1 
1
              1               0               0           -17.5 
              0               1               0               0 
              0               0               1            -0.5 
2  14 1 15 1 3 1 0
1
              1               0               0              -0 
              0               1               0              -0 
              0               0               1              -1 
1
              1               0               0            17.5 
              0               1               0               0 
              0               0               1            -0.5 
2  17 1 18 1 3 1 0
1
              1               0               0              -0 
              0               1               0              -0 
              0               0               1           -0.75 
1
              1               0               0               0 
              0               1               0               0 
              0               0               1            0.75 
2  20 1 21 1 0
2  21 -1 20 -1 0
1
              1               0               0              -0 
              0               1               0              -0 
              0               0               1              -1 
2  9 1 24 1 3 1 0
2  1 1 2 1 3 1 7 -1 6 -1 0
2  24 -1 9 -1 0
2  3 -1 24 -1 9 -1 0
2  3 -1 0
2  3 -1 15 -1 14 -1 0
2  3 -1 18 -1 17 -1 0
1
              1               0               0              -0 
              0               1               0              -0 
              0               0               1              -5 
1
              1               0               0               0 
              0               1               0               0 
              0               0               1               5 
2  32 1 33 1 0
2  33 -1 32 -1 0
1
              1               0               0              -5 
              0               1               0            -2.5 
              0               0               1              -3 
1
              1               0               0               0 
              0               1               0               4 
              0               0               1               7 
2  36 1 37 1 0
1
              1               0               0              -5 
              0               1               0            -2.5 
              0               0               1              -3 
1
              1               0               0               0 
              0               1               0              -4 
              0               0               1               7 
2  39 1 40 1 0
2  32 1 33 1 37 -1 36 -1 0
2  37 -1 36 -1 0
2  32 1 33 1 40 -1 39 -1 0
2  40 -1 39 -1 0
Curve2ds 145
1 0 19 1 0 
2 0 0 1 0 -0 1 14
2 0 0 1 0 -0 1 14
1 0 -3.5 1 0 
1 21 0 1 0 
1 0 -3.5 1 0 
1 -3.1415926535897931 0 1 0 
2 17.510000000000002 -0.0099999999999997868 0 1 -1 0 3.4900000000000002
2 17.510000000000002 -0.0099999999999997868 0 1 -1 0 3.4900000000000002
1 21 0 0 1 
1 21 0 0 1 
1 -4.7123889803846897 0 1 0 
2 17.510000000000002 0.0099999999999997868 0 1 -1 0 3.4900000000000002
2 17.510000000000002 0.0099999999999997868 0 1 -1 0 3.4900000000000002
1 0 3.5 1 0 
1 21 0 1 0 
1 0 3.5 1 0 
2 0 0 1 0 -0 1 14
1 0 3.5 1 0 
1 -4.7123889803846897 0 1 0 
2 -17.510000000000002 0.0099999999999997868 0 1 1 -0 3.4900000000000002
2 -17.510000000000002 0.0099999999999997868 0 1 1 -0 3.4900000000000002
1 -21 0 0 1 
1 -21 0 0 1 
1 -1.5707963267948966 0 1 0 
2 -17.510000000000002 -0.0099999999999997868 0 1 -1 0 3.4900000000000002
2 -17.510000000000002 -0.0099999999999997868 0 1 -1 0 3.4900000000000002
1 0 -3.5 1 0 
1 16.5 0 0 -1 
1 0 0 0 1 
1 16.5 0 0 1 
1 0 0 1 0 
1 16.5 0 0 -1 
1 14.75 0 0 1 
2 -17.5 0 1 0 -0 1 2.1000000000000001
1 0 1.5 1 0 
2 -17.5 0 1 0 -0 1 2.0999999999999996
2 17.5 0 1 0 -0 1 2.1000000000000001
1 0 1.5 1 0 
2 17.5 0 1 0 -0 1 2.1000000000000014
1 0 0 1 0 
2 0 0 1 0 -0 1 4.5
2 0 8 1 0 -0 1 4.5
8 17.899999999999999 19.0000024
1 2.8889123984477147 0 0 1 
8 17.899999999999999 19.0000024
1 7.4445582882740418 -19 0 1 
1 0 18 1 0 
2 0 0 1 0 -0 1 14
8 17.899999999999999 19.0000024
1 3.3942729087318715 0 0 1 
8 17.899999999999999 19.0000024
1 7.4445582882740418 -19 0 1 
1 0 -4.850026260533177 1 0 
1 0 0 1 0 
1 4.1575743866441277 2.5 0 1 
1 0 2.5 1 0 
2 7.375 16.75 1 0 -0 1 14
1 0 -4.850026260533177 1 0 
1 0 14.75 1 0 
1 5.2672035741252516 2.5 0 1 
8 17.899999999999999 19.0000024
1 6.0305050520375074 0 0 1 
8 17.899999999999999 19.0000024
1 34.555441711725962 -19 0 1 
1 0 18 1 0 
2 0 0 1 0 -0 1 14
1 6.2831853071795862 -0 0 1 
1 0 -0 0 1 
1 0 0 1 0 
2 0 0 1 0 -0 1 14
1 0 18 1 0 
2 0 0 1 0 -0 1 14
8 17.899999999999999 19.0000024
1 0.25268025514207865 0 0 1 
8 17.899999999999999 19.0000024
1 34.555441711725962 -19 0 1 
1 21 -1 1 0 
1 1.5707963267948966 0 0 1 
1 3.4899999999999984 0 -0 -1 
1 0 0 0 1 
1 3.4900000000000002 0 -0 -1 
1 -1.5707963267948966 1 1 0 
2 -17.510000000000002 -0.0099999999999997868 0 1 -1 0 3.4900000000000002
1 0 0 0 1 
1 3.5099999999999998 0 -0 -1 
1 1.5707963267948966 0 0 1 
1 3.4899999999999984 0 -0 -1 
1 -4.7123889803846897 1 1 0 
2 -17.510000000000002 0.0099999999999997868 0 1 1 -0 3.4900000000000002
1 21 -1 1 0 
1 1.5707963267948966 0 0 1 
1 38.510000000000005 0 -0 -1 
1 0 0 0 1 
1 3.5099999999999998 0 -0 -1 
1 -4.7123889803846897 1 1 0 
2 17.510000000000002 0.0099999999999997868 0 1 -1 0 3.4900000000000002
1 1.5707963267948966 0 0 1 
1 3.4900000000000002 0 -0 -1 
1 0 0 0 1 
1 38.510000000000005 0 -0 -1 
1 -3.1415926535897931 1 1 0 
2 17.510000000000002 -0.0099999999999997868 0 1 -1 0 3.4900000000000002
1 6.2831853071795862 -0 0 1 
1 0 -0 0 1 
2 -17.5 0 1 0 -0 1 2.1000000000000001
1 0 0.5 1 0 
1 6.2831853071795862 -0 0 1 
1 0 -0 0 1 
2 17.5 0 1 0 -0 1 2.1000000000000001
1 0 0.5 1 0 
1 0 1.5 1 0 
2 0 0 1 0 -0 1 4.5
1 6.2831853071795862 -0 0 1 
1 0 -0 0 1 
1 0 0 1 0 
1 0 0 1 0 
1 0 0 0 -1 
1 0 0 0 1 
1 0 0 0 -1 
1 14.75 0 0 1 
1 0 0 0 1 
1 0 0 1 0 
1 0 0 1 0 
1 0 14.75 1 0 
2 0 0 1 0 -0 1 2.5
1 0 1.5 1 0 
1 6.2831853071795862 -0 0 1 
1 0 -0 0 1 
1 0 10 1 0 
2 0 0 1 0 -0 1 2.5
8 3.3999999999999999 10.0000006
1 0.64350110879328437 0 0 1 
8 3.3999999999999999 10.0000006
1 -4 7 1 0 
1 0 4 1 0 
2 5 -1.5 1 0 -0 1 2.5
8 3.3999999999999999 10.0000006
1 2.4980915447965089 0 0 1 
8 3.3999999999999999 10.0000006
1 -4 3 1 0 
8 3.3999999999999999 10.0000006
1 3.7850937623830774 0 0 1 
8 3.3999999999999999 10.0000006
1 -4 3 1 0 
1 0 4 1 0 
2 5 6.5 1 0 -0 1 2.5
8 3.3999999999999999 10.0000006
1 5.639684198386302 0 0 1 
8 3.3999999999999999 10.0000006
1 -4 7 1 0 
1 6 0 0 1 
1 0 0 1 0 
1 -5 1.5 1 0 
1 6 0 0 1 
1 0 5 1 0 
1 -5 -1.5 1 0 
1 0 0 0 1 
1 0 0 1 0 
1 0 0 0 1 
1 0 5 1 0 
Curves 63
2 0 0 19 0 0 1 1 0 -0 -0 1 0 14
1 0 -3.5 0 1 0 -0 
8 3.1415926535897931 4.7123889803846897
2 17.510000000000002 -8.0099999999999998 0 0 0 1 0 1 -0 -1 0 0 3.4900000000000002
1 21 0 0 -0 1 0 
8 4.7123889803846897 6.2831853071795862
2 17.510000000000002 -7.9900000000000002 0 0 0 1 0 1 -0 -1 0 0 3.4900000000000002
1 0 3.5 0 1 0 -0 
8 4.7123889803846897 6.2831853071795862
2 -17.510000000000002 -7.9900000000000002 0 -0 -0 -1 0 1 -0 1 -0 0 3.4900000000000002
1 -21 0 0 -0 1 0 
8 1.5707963267948966 3.1415926535897931
2 -17.510000000000002 -8.0099999999999998 0 0 0 1 0 1 -0 -1 0 0 3.4900000000000002
1 0 0 16.5 -0 1 0 
1 0 0 16.5 1 0 -0 
1 14.75 0 16.5 -0 1 0 
2 -17.5 -8 0 0 0 1 1 0 -0 -0 1 0 2.1000000000000001
2 17.5 -8 0 0 0 1 1 0 -0 -0 1 0 2.1000000000000001
2 0 0 0 0 0 1 1 0 -0 -0 1 0 4.5
1 -13.555441711725958 -4.5 -19 0 0 1 
2 0 -8 -1 0 0 1 1 0 -0 -0 1 0 14
1 -13.555441711725958 -11.5 -19 0 0 1 
1 0 4.850026260533177 0 0 0 1 
2 0 -8 -16.5 0 0 1 1 0 -0 -0 1 0 14
1 14.75 4.850026260533177 0 0 0 1 
1 13.555441711725958 -11.5 -19 0 0 1 
2 0 -8 -1 0 0 1 1 0 -0 -0 1 0 14
1 14 -3.4290110376125889e-15 0 0 0 1 
2 0 0 0 0 0 1 1 0 -0 -0 1 0 14
2 0 -8 -1 0 0 1 1 0 -0 -0 1 0 14
1 13.555441711725958 -4.5 -19 0 0 1 
1 -17.510000000000002 -11.5 0 -0 -0 -1 
1 -21 -8.0099999999999998 0 -0 -0 -1 
8 1.5707963267948966 3.1415926535897931
2 -17.510000000000002 -8.0099999999999998 -1 0 0 1 0 1 -0 -1 0 0 3.4900000000000002
1 -21 -7.9900000000000002 0 -0 -0 -1 
1 -17.510000000000002 -4.5 0 -0 -0 -1 
8 4.7123889803846897 6.2831853071795862
2 -17.510000000000002 -7.9900000000000002 -1 -0 -0 -1 0 1 -0 1 -0 0 3.4900000000000002
1 17.510000000000002 -4.5 0 -0 -0 -1 
1 21 -7.9900000000000002 0 -0 -0 -1 
8 4.7123889803846897 6.2831853071795862
2 17.510000000000002 -7.9900000000000002 -1 0 0 1 0 1 -0 -1 0 0 3.4900000000000002
1 21 -8.0099999999999998 0 -0 -0 -1 
1 17.510000000000002 -11.5 0 -0 -0 -1 
8 3.1415926535897931 4.7123889803846897
2 17.510000000000002 -8.0099999999999998 -1 0 0 1 0 1 -0 -1 0 0 3.4900000000000002
1 2.1000000000000001 -5.1435165564188839e-16 0 0 0 1 
2 -17.5 -8 -1 0 0 1 1 0 -0 -0 1 0 2.1000000000000001
1 2.1000000000000001 -5.1435165564188839e-16 0 0 0 1 
2 17.5 -8 -1 0 0 1 1 0 -0 -0 1 0 2.1000000000000001
2 0 0 1.5 0 0 1 1 0 -0 -0 1 0 4.5
1 4.5 -1.1021821192326179e-15 0 0 0 1 
1 0 0 0 0 0 1 
1 0 0 0 -0 1 0 
1 14.75 0 0 -0 1 0 
1 0 0 0 1 0 -0 
1 14.75 0 0 0 0 1 
2 0 0 1.5 0 0 1 1 0 -0 -0 1 0 2.5
1 2.5 -6.1232339957367663e-16 0 0 0 1 
2 0 0 10 0 0 1 1 0 -0 -0 1 0 2.5
1 2 1.5 0 0 0 1 
2 0 0 4 0 0 1 1 0 -0 -0 1 0 2.5
1 -2 1.5 0 0 0 1 
1 -2 -1.5 0 0 0 1 
2 0 0 4 0 0 1 1 0 -0 -0 1 0 2.5
1 2 -1.5 0 0 0 1 
1 0 0 6 1 0 -0 
1 0 5 6 1 0 -0 
1 0 0 0 1 0 -0 
1 0 5 0 1 0 -0 
Polygon3D 0
PolygonOnTriangulations 0
Surfaces 33
1 0 -8 0 0 0 1 1 0 -0 -0 1 0 
2 0 0 0 0 0 1 1 0 -0 -0 1 0 14
1 0 0 19 0 0 1 1 0 -0 -0 1 0 
1 0 -8 0 0 0 1 1 0 -0 -0 1 0 
1 0 0 0 0 0 1 1 0 -0 -0 1 0 
1 -21 -3.5 0 0 -1 0 1 0 0 -0 0 1 
2 17.510000000000002 -8.0099999999999998 0 -0 -0 -1 0 -1 0 1 -0 -0 3.4900000000000002
2 17.510000000000002 -7.9900000000000002 0 -0 -0 -1 1 0 -0 -0 1 -0 3.4900000000000002
1 -21 3.5 0 0 -1 0 1 0 0 -0 0 1 
2 -17.510000000000002 -7.9900000000000002 0 -0 -0 -1 -1 0 0 0 1 -0 3.4900000000000002
2 -17.510000000000002 -8.0099999999999998 0 -0 -0 -1 -1 0 0 -0 -1 0 3.4900000000000002
1 0 0 0 1 0 -0 0 0 1 0 -1 0 
1 0 0 16.5 0 0 1 1 0 -0 -0 1 0 
1 0 0 0 -0 1 0 0 0 1 1 0 -0 
1 14.75 0 0 1 0 -0 0 0 1 0 -1 0 
2 0 0 0 0 0 1 1 0 -0 -0 1 0 2.1000000000000001
2 0 0 0 0 0 1 1 0 -0 -0 1 0 2.1000000000000001
2 0 0 0 0 0 1 1 0 -0 -0 1 0 4.5
1 0 0 0 0 0 1 1 0 -0 -0 1 0 
1 0 4.850026260533177 0 -0 1 0 0 0 1 1 0 -0 
1 0 0 0 0 0 1 1 0 -0 -0 1 0 
1 0 0 0 0 0 1 1 0 -0 -0 1 0 
1 -21 -3.5 0 1 0 -0 0 1 0 0 -0 1 
1 21 -3.5 0 1 0 -0 0 1 0 0 -0 1 
1 0 0 1.5 0 0 1 1 0 -0 -0 1 0 
2 0 0 0 0 0 1 1 0 -0 -0 1 0 2.5
1 0 0 10 0 0 1 1 0 -0 -0 1 0 
1 0 0 0 -0 1 0 0 0 1 1 0 -0 
1 0 0 0 0 0 1 1 0 -0 -0 1 0 
1 0 5 0 -0 1 0 0 0 1 1 0 -0 
1 0 0 0 0 0 1 1 0 -0 -0 1 0 
1 0 0 6 0 0 1 1 0 -0 -0 1 0 
1 0 0 6 0 0 1 1 0 -0 -0 1 0 
Triangulations 0

TShapes 192
Ve
1.00000014321447e-07
14.75 4.85002626053318 16.5
0 0

0101101
*
Ve
1.00000191459626e-07
13.5554417117259 -11.5000000000002 0
0 0

0101101
*
Ed
 1e-07 1 1 0
1  1 0 5.26720357412525 6.03050505203749
2  1 2 0 5.26720357412525 6.03050505203749
2  2 3 0 5.26720357412525 6.03050505203749
2  3 4 5 5.26720357412525 6.03050505203749
0

0101000
+192 8 -191 5 *
Ve
1e-07
17.51 -11.5 0
0 0

0101101
*
Ed
 1e-07 1 1 0
1  2 0 13.5554417117259 17.51
2  4 5 0 13.5554417117259 17.51
2  5 6 11 13.5554417117259 17.51
2  6 4 12 13.5554417117259 17.51
0

0101000
+191 12 -189 12 *
Ve
1e-07
21 -8.01 0
0 0

0101101
*
Ed
 1e-07 1 1 0
1  3 0 3.14159265358979 4.71238898038469
2  7 7 0 3.14159265358979 4.71238898038469
2  8 5 10 3.14159265358979 4.71238898038469
2  9 4 0 3.14159265358979 4.71238898038469
0

0101000
+189 0 -187 0 *
Ve
1e-07
21 -7.99 0
0 0

0101101
*
Ed
 1e-07 1 1 0
1  4 0 -0.00999999999999979 0.00999999999999979
2  10 5 0 -0.00999999999999979 0.00999999999999979
2  11 4 12 -0.00999999999999979 0.00999999999999979
0

0101000
+187 12 -185 12 *
Ve
1e-07
17.51 -4.5 0
0 0

0101101
*
Ed
 1e-07 1 1 0
1  5 0 4.71238898038469 6.28318530717959
2  12 8 0 4.71238898038469 6.28318530717959
2  13 5 10 4.71238898038469 6.28318530717959
2  14 4 0 4.71238898038469 6.28318530717959
0

0101000
+185 0 -183 0 *
Ve
1.00000185892582e-07
13.5554417117259 -4.49999999999983 0
0 0

0101101
*
Ed
 1e-07 1 1 0
1  6 0 13.5554417117259 17.51
2  15 5 0 13.5554417117259 17.51
2  16 9 11 13.5554417117259 17.51
2  17 4 12 13.5554417117259 17.51
0

0101000
+181 12 -183 12 *
Ve
1.00000201005196e-07
-13.5554417117261 -4.50000000000018 0
0 0

0101101
*
Ed
 1e-07 1 1 0
1  1 0 0.252680255142092 2.88891239844773
2  1 2 0 0.252680255142092 2.88891239844773
2  2 3 0 0.252680255142092 2.88891239844773
2  18 4 5 0.252680255142092 2.88891239844773
0

0101000
+181 5 -179 5 *
Ve
1e-07
-17.51 -4.5 0
0 0

0101101
*
Ed
 1e-07 1 1 0
1  6 0 -17.51 -13.5554417117261
2  15 5 0 -17.51 -13.5554417117261
2  16 9 11 -17.51 -13.5554417117261
2  19 4 12 -17.51 -13.5554417117261
0

0101000
+177 12 -179 12 *
Ve
1e-07
-21 -7.99 0
0 0

0101101
*
Ed
 1e-07 1 1 0
1  7 0 4.71238898038469 6.28318530717959
2  20 10 0 4.71238898038469 6.28318530717959
2  21 5 10 4.71238898038469 6.28318530717959
2  22 4 0 4.71238898038469 6.28318530717959
0

0101000
+175 0 -177 0 *
Ve
1e-07
-21 -8.01 0
0 0

0101101
*
Ed
 1e-07 1 1 0
1  8 0 -0.00999999999999979 0.00999999999999979
2  23 5 0 -0.00999999999999979 0.00999999999999979
2  24 4 12 -0.00999999999999979 0.00999999999999979
0

0101000
+173 12 -175 12 *
Ve
1e-07
-17.51 -11.5 0
0 0

0101101
*
Ed
 1e-07 1 1 0
1  9 0 1.5707963267949 3.14159265358979
2  25 11 0 1.5707963267949 3.14159265358979
2  26 5 10 1.5707963267949 3.14159265358979
2  27 4 0 1.5707963267949 3.14159265358979
0

0101000
+173 0 -171 0 *
Ve
1.00000200216772e-07
-13.5554417117261 -11.4999999999998 0
0 0

0101101
*
Ed
 1e-07 1 1 0
1  2 0 -17.51 -13.5554417117261
2  4 5 0 -17.51 -13.5554417117261
2  5 6 11 -17.51 -13.5554417117261
2  28 4 12 -17.51 -13.5554417117261
0

0101000
+171 12 -169 12 *
Ve
1.00000014321447e-07
0 4.85002626053318 16.5
0 0

0101101
*
Ed
 1e-07 1 1 0
1  1 0 3.39427290873186 4.15757438664413
2  1 2 0 3.39427290873186 4.15757438664413
2  2 3 0 3.39427290873186 4.15757438664413
2  3 4 5 3.39427290873186 4.15757438664413
0

0101000
+169 5 -167 8 *
Ve
1e-07
0 0 16.5
0 0

0101101
*
Ed
 1e-07 1 1 0
1  10 0 0 4.85002626053318
2  29 12 0 0 4.85002626053318
2  30 13 0 0 4.85002626053318
0

0101000
-167 0 +165 0 *
Ve
1e-07
14.75 0 16.5
0 0

0101101
*
Ed
 1e-07 1 1 0
1  11 0 0 14.75
2  31 14 0 0 14.75
2  32 13 0 0 14.75
0

0101000
-163 0 +165 0 *
Ed
 1e-07 1 1 0
1  12 0 0 4.85002626053318
2  33 15 0 0 4.85002626053318
2  34 13 0 0 4.85002626053318
0

0101000
-192 0 +163 0 *
Wi

0101100
+190 4 +188 10 +186 0 +184 10 +182 0 -180 10 +178 4 -176 10 -174 0 -172 10 
+170 0 +168 10 +166 4 -164 13 +162 13 +161 13 *
Ve
1e-07
-15.4 -8 0
0 0

0101101
*
Ed
 1e-07 1 1 0
1  13 0 0 6.28318530717959
2  35 5 10 0 6.28318530717959
2  36 16 16 0 6.28318530717959
2  37 4 0 0 6.28318530717959
0

0101100
+159 0 -159 0 *
Wi

0101100
-158 0 *
Ve
1e-07
19.6 -8 0
0 0

0101101
*
Ed
 1e-07 1 1 0
1  14 0 0 6.28318530717959
2  38 5 10 0 6.28318530717959
2  39 17 19 0 6.28318530717959
2  40 4 0 0 6.28318530717959
0

0101100
+156 0 -156 0 *
Wi

0101100
-155 0 *
Ve
1e-07
4.5 -1.10218211923262e-15 0
0 0

0101101
*
Ed
 1e-07 1 1 0
1  15 0 0 6.28318530717959
2  41 18 0 0 6.28318530717959
2  42 19 0 0 6.28318530717959
2  43 4 23 0 6.28318530717959
0

0101000
+153 0 -153 0 *
Wi

0101100
-152 22 *
Fa
0  0 1 0

0101000
+160 0 +157 0 +154 0 +151 0 *
Ve
1.00000003972055e-07
-13.555441711726 -4.5 -1
0 0

0101101
*
Ed
 1e-07 1 1 0
1  16 0 18 19
2  44 2 4 18 19
2  45 9 3 18 19
0

0101000
+149 0 -179 0 *
Ve
1.00000001776357e-07
-13.555441711726 -11.5 -1
0 0

0101101
*
Ed
 1e-07 1 1 0
1  17 0 2.88891239844771 3.39427290873187
2  46 2 4 2.88891239844771 3.39427290873187
2  47 5 25 2.88891239844771 3.39427290873187
0

0101000
+149 0 -147 0 *
Ed
 1e-07 1 1 0
1  18 0 18 19
2  48 2 4 18 19
2  49 6 3 18 19
0

0101000
+147 0 -169 0 *
Ve
1.00000010048592e-07
0 4.85002626053318 0
0 0

0101101
*
Ed
 1.00000001776357e-07 1 1 0
1  19 0 0 16.5
2  50 12 0 0 16.5
2  51 20 0 0 16.5
2  52 2 26 0 16.5
0

0101000
-167 0 +144 0 *
Ve
1.00000010695084e-07
14.75 4.85002626053318 0
0 0

0101101
*
Ed
 1e-07 1 1 0
1  20 0 4.15757438664413 5.26720357412525
2  53 2 4 4.15757438664413 5.26720357412525
2  54 21 13 4.15757438664413 5.26720357412525
0

0101000
+144 13 -142 13 *
Ed
 1.00000001776357e-07 1 1 0
1  21 0 0 16.5
2  55 15 0 0 16.5
2  56 20 0 0 16.5
2  57 2 26 0 16.5
0

0101000
-192 0 +142 0 *
Ve
1.00000005329071e-07
13.555441711726 -11.5 -1
0 0

0101101
*
Ed
 1e-07 1 1 0
1  22 0 18 19
2  58 2 4 18 19
2  59 6 3 18 19
0

0101000
+139 0 -191 0 *
Ve
1.00000003552714e-07
14 -8 -1
0 0

0101101
*
Ed
 1e-07 1 1 0
1  23 0 6.03050505203751 6.28318530717959
2  60 2 4 6.03050505203751 6.28318530717959
2  61 5 25 6.03050505203751 6.28318530717959
0

0101000
+139 0 -137 0 *
Ve
1e-07
14 -3.42901103761259e-15 0
0 0

0101101
*
Ed
 1e-07 1 1 0
1  24 0 0 18
3  62 63CN 2 0 0 18
0

0101000
+135 0 -137 5 *
Ed
 1e-07 1 1 0
1  25 0 0 6.28318530717959
2  64 2 0 0 6.28318530717959
2  65 22 0 0 6.28318530717959
0

0101000
+135 0 -135 0 *
Ve
1.00000001986027e-07
13.555441711726 -4.5 -1
0 0

0101101
*
Ed
 1e-07 1 1 0
1  26 0 0 0.252680255142079
2  66 2 4 0 0.252680255142079
2  67 5 25 0 0.252680255142079
0

0101000
+137 0 -132 0 *
Ed
 1e-07 1 1 0
1  27 0 18 19
2  68 2 4 18 19
2  69 9 3 18 19
0

0101000
+132 0 -181 0 *
Wi

0101100
-178 4 +148 0 -146 0 -145 0 -166 4 +143 13 -141 0 -140 13 -190 4 +138 0 
-136 0 +134 4 +133 4 -134 4 -131 0 -130 0 *
Fa
0  1e-07 2 4

0101000
+129 0 *
Ve
1e-07
-17.51 -11.5 -1
0 0

0101101
*
Ed
 1e-07 1 1 0
1  2 0 -17.51 -13.555441711726
2  4 5 0 -17.51 -13.555441711726
2  70 6 27 -17.51 -13.555441711726
0

0101000
+127 28 -147 28 *
Ed
 1e-07 1 1 0
1  28 0 -0 1
2  71 11 0 -0 1
2  72 6 3 -0 1
4 G1 11 0 6 3
0

0101000
+171 0 -127 0 *
Wi

0101100
-168 10 +145 0 +126 25 +125 0 *
Fa
0  1e-07 6 3

0101000
+124 0 *
Ve
1e-07
-21 -8.01 -1
0 0

0101101
*
Ed
 1e-07 1 1 0
1  29 0 -0 1
2  73 11 0 -0 1
2  74 23 3 -0 1
4 G1 11 0 23 3
0

0101000
+173 0 -122 0 *
Ed
 1e-07 1 1 0
1  30 0 1.5707963267949 3.14159265358979
2  75 11 0 1.5707963267949 3.14159265358979
2  76 5 25 1.5707963267949 3.14159265358979
0

0101000
+122 0 -127 0 *
Wi

0101100
+170 0 -121 0 +125 0 -120 0 *
Fa
0  0 11 0

0101000
+119 0 *
Ve
1e-07
-21 -7.99 -1
0 0

0101101
*
Ed
 1e-07 1 1 0
1  31 0 -0 1
2  77 10 0 -0 1
2  78 23 3 -0 1
4 G1 10 0 23 3
0

0101000
+175 0 -117 0 *
Ed
 1e-07 1 1 0
1  8 0 -0.00999999999999979 0.00999999999999979
2  23 5 0 -0.00999999999999979 0.00999999999999979
0

0101000
+122 28 -117 28 *
Wi

0101100
-172 10 +121 0 -116 0 +115 25 *
Fa
0  1e-07 23 0

0101000
+114 29 *
Ve
1e-07
-17.51 -4.5 -1
0 0

0101101
*
Ed
 1e-07 1 1 0
1  32 0 -0 1
2  79 10 0 -0 1
2  80 9 3 -0 1
4 G1 10 0 9 3
0

0101000
+177 0 -112 0 *
Ed
 1e-07 1 1 0
1  33 0 4.71238898038469 6.28318530717959
2  81 10 0 4.71238898038469 6.28318530717959
2  82 5 25 4.71238898038469 6.28318530717959
0

0101000
+117 0 -112 0 *
Wi

0101100
+174 0 -116 0 +111 0 -110 0 *
Fa
0  0 10 0

0101000
+109 0 *
Ed
 1e-07 1 1 0
1  6 0 -17.51 -13.555441711726
2  15 5 0 -17.51 -13.555441711726
2  83 9 27 -17.51 -13.555441711726
0

0101000
+112 28 -149 28 *
Wi

0101100
-176 10 +148 0 +107 25 +111 0 *
Fa
0  1e-07 9 3

0101000
+106 0 *
Ve
1e-07
17.51 -4.5 -1
0 0

0101101
*
Ed
 1e-07 1 1 0
1  34 0 0 1
2  84 8 0 0 1
2  85 9 3 0 1
4 G1 8 0 9 3
0

0101000
+183 0 -104 0 *
Ed
 1e-07 1 1 0
1  6 0 13.555441711726 17.51
2  15 5 0 13.555441711726 17.51
2  83 9 27 13.555441711726 17.51
0

0101000
+132 28 -104 28 *
Wi

0101100
-180 10 -103 0 +102 25 -130 0 *
Fa
0  1e-07 9 3

0101000
+101 0 *
Ve
1e-07
21 -7.99 -1
0 0

0101101
*
Ed
 1e-07 1 1 0
1  35 0 -0 1
2  86 8 0 -0 1
2  87 24 3 -0 1
4 G1 8 0 24 3
0

0101000
+185 0 -99 0 *
Ed
 1e-07 1 1 0
1  36 0 4.71238898038469 6.28318530717959
2  88 8 0 4.71238898038469 6.28318530717959
2  89 5 25 4.71238898038469 6.28318530717959
0

0101000
+99 0 -104 0 *
Wi

0101100
+182 0 -98 0 +103 0 -97 0 *
Fa
0  0 8 0

0101000
+96 0 *
Ve
1e-07
21 -8.01 -1
0 0

0101101
*
Ed
 1e-07 1 1 0
1  37 0 -0 1
2  90 7 0 -0 1
2  91 24 3 -0 1
4 G1 7 0 24 3
0

0101000
+187 0 -94 0 *
Ed
 1e-07 1 1 0
1  4 0 -0.00999999999999979 0.00999999999999979
2  10 5 0 -0.00999999999999979 0.00999999999999979
0

0101000
+94 28 -99 28 *
Wi

0101100
-184 10 +93 0 -98 0 +92 25 *
Fa
0  1e-07 24 0

0101000
+91 29 *
Ve
1e-07
17.51 -11.5 -1
0 0

0101101
*
Ed
 1e-07 1 1 0
1  38 0 0 1
2  92 7 0 0 1
2  93 6 3 0 1
4 G1 7 0 6 3
0

0101000
+189 0 -89 0 *
Ed
 1e-07 1 1 0
1  39 0 3.14159265358979 4.71238898038469
2  94 7 0 3.14159265358979 4.71238898038469
2  95 5 25 3.14159265358979 4.71238898038469
0

0101000
+89 0 -94 0 *
Wi

0101100
+186 0 -88 0 +93 0 -87 0 *
Fa
0  0 7 0

0101000
+86 0 *
Ed
 1e-07 1 1 0
1  2 0 13.555441711726 17.51
2  4 5 0 13.555441711726 17.51
2  70 6 27 13.555441711726 17.51
0

0101000
+139 28 -89 28 *
Wi

0101100
-188 10 -88 0 +84 25 -138 0 *
Fa
0  1e-07 6 3

0101000
+83 0 *
Ve
1e-07
-15.4 -8 -1
0 0

0101101
*
Ed
 1e-07 1 1 0
1  40 0 0.5 1.5
3  96 97CN 16 0 0.5 1.5
0

0101000
+81 30 -159 30 *
Ed
 1e-07 1 1 0
1  41 0 0 6.28318530717959
2  98 5 25 0 6.28318530717959
2  99 16 16 0 6.28318530717959
0

0101100
+81 0 -81 0 *
Wi

0101100
-158 0 +80 16 +79 0 -80 16 *
Fa
0  1e-07 16 16

0101000
+78 0 *
Ve
1e-07
19.6 -8 -1
0 0

0101101
*
Ed
 1e-07 1 1 0
1  42 0 0.5 1.5
3  100 101CN 17 0 0.5 1.5
0

0101000
+76 31 -156 31 *
Ed
 1e-07 1 1 0
1  43 0 0 6.28318530717959
2  102 5 25 0 6.28318530717959
2  103 17 19 0 6.28318530717959
0

0101100
+76 0 -76 0 *
Wi

0101100
-155 0 +75 19 +74 0 -75 19 *
Fa
0  1e-07 17 19

0101000
+73 0 *
Ve
1e-07
4.5 -1.10218211923262e-15 1.5
0 0

0101101
*
Ed
 1e-07 1 1 0
1  44 0 0 6.28318530717959
2  104 18 0 0 6.28318530717959
2  105 25 0 0 6.28318530717959
0

0101000
+71 0 -71 0 *
Ed
 1e-07 1 1 0
1  45 0 0 1.5
3  106 107CN 18 0 0 1.5
0

0101000
-71 0 +153 0 *
Wi

0101100
-70 0 +69 0 +152 0 -69 0 *
Fa
0  1e-07 18 0

0111000
+68 0 *
Wi

0101100
-115 25 -110 0 -107 25 -146 0 +126 25 +120 0 *
Wi

0101100
-79 0 *
Fa
0  1e-07 5 25

0101000
+66 0 +65 0 *
Ve
1e-07
0 0 0
0 0

0101101
*
Ed
 1e-07 1 1 0
1  46 0 0 16.5
2  108 12 0 0 16.5
2  109 14 0 0 16.5
0

0101000
-165 0 +63 0 *
Ed
 1e-07 1 1 0
1  47 0 0 4.85002626053318
2  110 12 0 0 4.85002626053318
2  111 21 0 0 4.85002626053318
0

0101000
-144 0 +63 0 *
Wi

0101100
-62 0 -164 0 +143 0 +61 0 *
Fa
0  1e-07 12 0

0111000
+60 0 *
Ve
1e-07
14.75 0 0
0 0

0101101
*
Ed
 1e-07 1 1 0
1  48 0 0 4.85002626053318
2  112 15 0 0 4.85002626053318
2  113 21 0 0 4.85002626053318
0

0101000
-142 0 +58 0 *
Ed
 1e-07 1 1 0
1  49 0 0 14.75
2  114 14 0 0 14.75
2  115 21 0 0 14.75
0

0101000
-58 0 +63 0 *
Wi

0101100
-141 0 +57 13 +56 13 -61 13 *
Fa
0  1e-07 21 13

0101000
+55 0 *
Ed
 1e-07 1 1 0
1  50 0 0 16.5
2  116 15 0 0 16.5
2  117 14 0 0 16.5
0

0101000
-163 0 +58 0 *
Wi

0101100
-53 0 -161 0 +140 0 +57 0 *
Fa
0  1e-07 15 0

0111000
+52 0 *
Wi

0101100
-136 0 -131 0 -102 25 +97 0 +92 25 +87 0 +84 25 *
Wi

0101100
-74 0 *
Fa
0  1e-07 5 25

0101000
+50 0 +49 0 *
Wi

0101100
-133 0 *
Fa
0  1e-07 22 0

0111000
-47 0 *
Wi

0101100
+70 22 *
Ve
1.00000000612323e-07
2.5 -6.12323399573677e-16 1.5
0 0

0101101
*
Ed
 1e-07 1 1 0
1  51 0 0 6.28318530717959
2  118 25 22 0 6.28318530717959
2  119 26 34 0 6.28318530717959
0

0101100
+44 0 -44 0 *
Wi

0101100
-43 0 *
Fa
0  1e-07 25 22

0101000
+45 0 +42 0 *
Wi

0101100
-56 0 -53 0 +162 0 +62 0 *
Fa
0  1e-07 14 0

0111000
+40 0 *
Ve
1e-07
2.5 -6.12323399573677e-16 10
0 0

0101101
*
Ed
 1e-07 1 1 0
1  52 0 1.5 10
3  120 121CN 26 0 1.5 10
0

0101000
+44 35 -38 0 *
Ve
1.00000021431618e-07
1.99999999999998 1.50000000000001 10
0 0

0101101
*
Ed
 1e-07 1 1 0
1  53 0 0 0.643501108793293
2  122 26 0 0 0.643501108793293
2  123 27 0 0 0.643501108793293
0

0101000
+38 0 -36 35 *
Ve
1e-07
2 1.5 4
0 0

0101101
*
Ed
 1e-07 1 1 0
1  54 0 4 10
2  124 26 34 4 10
2  125 28 38 4 10
0

0101000
+34 0 -36 0 *
Ve
1.00000000222045e-07
-2 1.5 4
0 0

0101101
*
Ed
 1e-07 1 1 0
1  55 0 0.643501108793284 2.49809154479651
2  126 26 34 0.643501108793284 2.49809154479651
2  127 29 38 0.643501108793284 2.49809154479651
0

0101000
+34 0 -32 0 *
Ve
1.0000008486288e-07
-1.99999999999993 1.50000000000005 10
0 0

0101101
*
Ed
 1e-07 1 1 0
1  56 0 4 10
2  128 26 34 4 10
2  129 28 38 4 10
0

0101000
+32 0 -30 0 *
Ve
1.00000020322844e-07
-1.99999999999998 -1.50000000000001 10
0 0

0101101
*
Ed
 1e-07 1 1 0
1  53 0 2.49809154479648 3.78509376238309
2  122 26 0 2.49809154479648 3.78509376238309
2  123 27 0 2.49809154479648 3.78509376238309
0

0101000
+30 35 -28 35 *
Ve
1.00000001601186e-07
-2 -1.5 4
0 0

0101101
*
Ed
 1e-07 1 1 0
1  57 0 4 10
2  130 26 34 4 10
2  131 30 41 4 10
0

0101000
+26 0 -28 0 *
Ve
1.00000001884111e-07
2 -1.5 4
0 0

0101101
*
Ed
 1e-07 1 1 0
1  58 0 3.78509376238308 5.6396841983863
2  132 26 34 3.78509376238308 5.6396841983863
2  133 31 41 3.78509376238308 5.6396841983863
0

0101000
+26 0 -24 0 *
Ve
1.00000021000537e-07
1.99999999999998 -1.50000000000001 10
0 0

0101101
*
Ed
 1e-07 1 1 0
1  59 0 4 10
2  134 26 34 4 10
2  135 30 41 4 10
0

0101000
+24 0 -22 0 *
Ed
 1e-07 1 1 0
1  53 0 5.63968419838629 6.28318530717959
2  122 26 0 5.63968419838629 6.28318530717959
2  123 27 0 5.63968419838629 6.28318530717959
0

0101000
+22 35 -38 0 *
Wi

0101100
+37 34 +43 0 -37 34 -35 34 +33 0 -31 0 -29 0 -27 34 +25 0 -23 0 
-21 0 -20 34 *
Fa
0  1e-07 26 34

0101000
+19 0 *
Ed
 1e-07 1 1 0
1  60 0 3.00000000000007 6.99999999999998
2  136 28 0 3.00000000000007 6.99999999999998
2  137 32 0 3.00000000000007 6.99999999999998
2  138 27 42 3.00000000000007 6.99999999999998
0

0101000
+30 43 -36 43 *
Ed
 1e-07 1 1 0
1  61 0 3.00000000000002 6.99999999999998
2  139 30 0 3.00000000000002 6.99999999999998
2  140 33 0 3.00000000000002 6.99999999999998
2  141 27 44 3.00000000000002 6.99999999999998
0

0101000
+28 45 -22 45 *
Wi

0101100
-17 38 +35 34 +20 34 +16 41 +27 34 *
Fa
0  1e-07 27 34

0101000
+15 0 *
Ed
 1e-07 1 1 0
1  62 0 3 7
2  142 28 0 3 7
2  143 29 0 3 7
0

0101000
+32 43 -34 43 *
Wi

0101100
-13 38 -33 0 +17 38 +29 0 *
Fa
0  1e-07 28 38

0101000
+12 0 *
Wi

0101100
+31 0 +13 38 *
Fa
0  1e-07 29 38

0101000
+10 0 *
Ed
 1e-07 1 1 0
1  63 0 3 7
2  144 30 0 3 7
2  145 31 0 3 7
0

0101000
+26 45 -24 45 *
Wi

0101100
-8 41 -21 0 +16 41 +25 0 *
Fa
0  1e-07 30 41

0101000
+7 0 *
Wi

0101100
-8 41 +23 0 *
Fa
0  1e-07 31 41

0101000
+5 0 *
Sh

0101100
+150 0 +128 0 +123 0 -118 0 -113 3 +108 0 -105 0 -100 0 -95 0 +90 3 
-85 0 +82 0 -77 0 -72 0 +67 22 -64 0 -59 13 -54 0 +51 13 -48 0 
-46 4 +41 0 -39 13 +18 0 +14 0 +11 0 +9 0 -6 0 +4 0 *
So

0100000
+3 0 *
Co

1100000
+2 0 *

+1 0 