DBRep_DrawableShape

CASCADE Topology V3, (c) Open Cascade
Locations 44
1
              1               0               0              -0 
              0               1               0              -0 
              0               0               1               0 
1
              1               0               0               0 
              0               1               0              -8 
              0               0               1               0 
2  1 1 2 1 0
2  1 -1 0
2  2 -1 1 -1 0
1
              1               0               0              -0 
              0               1               0              -0 
              0               0               1            -9.5 
1
              1               0               0               0 
              0               1               0               0 
              0               0               1            -9.5 
2  6 1 7 1 2 1 0
2  2 -1 7 -1 6 -1 0
1
              1               0               0              -0 
              0               1               0              -0 
              0               0               1              -1 
1
              1               0               0           -17.5 
              0               1               0               0 
              0               0               1            -0.5 
2  10 1 11 1 2 1 0
1
              1               0               0              -0 
              0               1               0              -0 
              0               0               1              -1 
1
              1               0               0            17.5 
              0               1               0               0 
              0               0               1            -0.5 
2  13 1 14 1 2 1 0
1
              1               0               0              -0 
              0               1               0              -0 
              0               0               1           -0.75 
1
              1               0               0               0 
              0               1               0               0 
              0               0               1            0.75 
2  16 1 17 1 0
2  17 -1 16 -1 0
1
              1               0               0              -0 
              0               1               0              -0 
              0               0               1              -1 
2  1 1 20 1 2 1 0
2  20 -1 1 -1 0
2  2 -1 20 -1 1 -1 0
1
              1               0               0          -7.375 
              0               1               0            -1.5 
              0               0               1           -8.25 
1
              1               0               0               0 
              0               1               0           -23.5 
              0               0               1           -8.25 
2  24 1 25 1 0
2  2 -1 0
2  2 -1 11 -1 10 -1 0
2  2 -1 14 -1 13 -1 0
1
              1               0               0              -0 
              0               1               0              -0 
              0               0               1              -5 
1
              1               0               0               0 
              0               1               0               0 
              0               0               1               5 
2  30 1 31 1 0
2  31 -1 30 -1 0
1
              1               0               0              -5 
              0               1               0            -2.5 
              0               0               1              -3 
1
              1               0               0               0 
              0               1               0               4 
              0               0               1               7 
2  34 1 35 1 0
1
              1               0               0              -5 
              0               1               0            -2.5 
              0               0               1              -3 
1
              1               0               0               0 
              0               1               0              -4 
              0               0               1               7 
2  37 1 38 1 0
2  30 1 31 1 35 -1 34 -1 0
2  35 -1 34 -1 0
2  30 1 31 1 38 -1 37 -1 0
2  38 -1 37 -1 0
2  25 -1 24 -1 0
Curve2ds 147
1 0 -3.5 1 0 
1 21 0 1 0 
1 0 -3.5 1 0 
1 0 19 1 0 
2 0 0 1 0 -0 1 14
2 0 0 1 0 -0 1 14
1 -3.1415926535897931 0 1 0 
2 17.510000000000002 -0.0099999999999997868 0 1 -1 0 3.4900000000000002
2 17.510000000000002 -0.0099999999999997868 0 1 -1 0 3.4900000000000002
1 0 -3.5 1 0 
1 21 0 0 1 
1 21 0 0 1 
1 -1.5707963267948966 0 1 0 
2 -17.510000000000002 -0.0099999999999997868 0 1 -1 0 3.4900000000000002
2 -17.510000000000002 -0.0099999999999997868 0 1 -1 0 3.4900000000000002
1 -4.7123889803846897 0 1 0 
2 17.510000000000002 0.0099999999999997868 0 1 -1 0 3.4900000000000002
2 17.510000000000002 0.0099999999999997868 0 1 -1 0 3.4900000000000002
1 -21 0 0 1 
1 -21 0 0 1 
1 0 3.5 1 0 
1 21 0 1 0 
1 0 3.5 1 0 
1 -4.7123889803846897 0 1 0 
2 -17.510000000000002 0.0099999999999997868 0 1 1 -0 3.4900000000000002
2 -17.510000000000002 0.0099999999999997868 0 1 1 -0 3.4900000000000002
2 0 0 1 0 -0 1 14
1 0 3.5 1 0 
2 -17.5 0 1 0 -0 1 2.1000000000000001
1 0 1.5 1 0 
2 -17.5 0 1 0 -0 1 2.0999999999999996
2 17.5 0 1 0 -0 1 2.1000000000000001
1 0 1.5 1 0 
2 17.5 0 1 0 -0 1 2.1000000000000014
1 0 0 1 0 
2 0 0 1 0 -0 1 4.5
2 0 8 1 0 -0 1 4.5
1 0 0 0 1 
1 38.510000000000005 0 -0 -1 
1 21 -1 1 0 
8 17.899999999999999 19.0000024
1 6.0305050520375074 0 0 1 
8 17.899999999999999 19.0000024
1 34.555441711725962 -19 0 1 
8 17.899999999999999 19.0000024
1 2.8889123984477147 0 0 1 
8 17.899999999999999 19.0000024
1 7.4445582882740418 -19 0 1 
1 0 18 1 0 
2 0 0 1 0 -0 1 14
8 17.899999999999999 19.0000024
1 3.3942729087318715 0 0 1 
8 17.899999999999999 19.0000024
1 7.4445582882740418 -19 0 1 
1 0 18 1 0 
2 0 0 1 0 -0 1 14
1 6.2831853071795862 -0 0 1 
1 0 -0 0 1 
1 0 0 1 0 
2 0 0 1 0 -0 1 14
1 0 18 1 0 
2 0 0 1 0 -0 1 14
8 17.899999999999999 19.0000024
1 0.25268025514207865 0 0 1 
8 17.899999999999999 19.0000024
1 34.555441711725962 -19 0 1 
8 0.85000000000000142 19.0000024
1 4.7123889803846897 0 0 1 
8 0.85000000000000142 19.0000024
1 -2.5 7.375 1 0 
1 1.5707963267948966 0 0 1 
1 3.4900000000000002 0 -0 -1 
1 -3.1415926535897931 1 1 0 
2 17.510000000000002 -0.0099999999999997868 0 1 -1 0 3.4900000000000002
1 1.5707963267948966 0 0 1 
1 3.4899999999999984 0 -0 -1 
1 0 0 0 1 
1 3.5099999999999998 0 -0 -1 
1 0 0 0 1 
1 3.4900000000000002 0 -0 -1 
1 -1.5707963267948966 1 1 0 
2 -17.510000000000002 -0.0099999999999997868 0 1 -1 0 3.4900000000000002
1 1.5707963267948966 0 0 1 
1 38.510000000000005 0 -0 -1 
1 -4.7123889803846897 1 1 0 
2 17.510000000000002 0.0099999999999997868 0 1 -1 0 3.4900000000000002
1 0 0 0 1 
1 3.5099999999999998 0 -0 -1 
1 21 -1 1 0 
1 1.5707963267948966 0 0 1 
1 3.4899999999999984 0 -0 -1 
1 -4.7123889803846897 1 1 0 
2 -17.510000000000002 0.0099999999999997868 0 1 1 -0 3.4900000000000002
1 6.2831853071795862 -0 0 1 
1 0 -0 0 1 
2 -17.5 0 1 0 -0 1 2.1000000000000001
1 0 0.5 1 0 
1 6.2831853071795862 -0 0 1 
1 0 -0 0 1 
2 17.5 0 1 0 -0 1 2.1000000000000001
1 0 0.5 1 0 
1 0 1.5 1 0 
2 0 0 1 0 -0 1 4.5
1 6.2831853071795862 -0 0 1 
1 0 -0 0 1 
2 0 0 1 0 -0 1 2.5
1 0 1.5 1 0 
1 6.2831853071795862 -0 0 1 
1 0 -0 0 1 
1 0 10 1 0 
2 0 0 1 0 -0 1 2.5
8 3.3999999999999999 10.0000006
1 0.64350110879328437 0 0 1 
8 3.3999999999999999 10.0000006
1 -4 7 1 0 
1 0 4 1 0 
2 5 -1.5 1 0 -0 1 2.5
8 3.3999999999999999 10.0000006
1 2.4980915447965089 0 0 1 
8 3.3999999999999999 10.0000006
1 -4 3 1 0 
8 3.3999999999999999 10.0000006
1 3.7850937623830774 0 0 1 
8 3.3999999999999999 10.0000006
1 -4 3 1 0 
1 0 4 1 0 
2 5 6.5 1 0 -0 1 2.5
8 3.3999999999999999 10.0000006
1 5.639684198386302 0 0 1 
8 3.3999999999999999 10.0000006
1 -4 7 1 0 
1 6 0 0 1 
1 0 0 1 0 
1 -5 1.5 1 0 
1 6 0 0 1 
1 0 5 1 0 
1 -5 -1.5 1 0 
1 0 0 0 1 
1 0 0 1 0 
1 0 0 0 1 
1 0 5 1 0 
1 0 0 0 1 
1 0 3 1 0 
1 16.5 0 0 1 
1 0 3 1 0 
1 0 -3 1 0 
1 0 0 1 0 
1 0 0 0 -1 
1 0 0 0 1 
1 0 0 0 -1 
1 14.75 0 0 1 
1 0 0 0 1 
1 0 0 1 0 
1 0 -3 1 0 
1 0 14.75 1 0 
1 16.5 0 0 -1 
1 0 0 0 1 
1 16.5 0 0 -1 
1 14.75 0 0 1 
1 16.5 0 0 1 
1 0 0 1 0 
1 0 0 1 0 
1 0 0 1 0 
1 0 0 1 0 
1 0 14.75 1 0 
Curves 65
1 0 -3.5 0 1 0 -0 
2 0 0 19 0 0 1 1 0 -0 -0 1 0 14
8 3.1415926535897931 4.7123889803846897
2 17.510000000000002 -8.0099999999999998 0 0 0 1 0 1 -0 -1 0 0 3.4900000000000002
1 21 0 0 -0 1 0 
8 1.5707963267948966 3.1415926535897931
2 -17.510000000000002 -8.0099999999999998 0 0 0 1 0 1 -0 -1 0 0 3.4900000000000002
8 4.7123889803846897 6.2831853071795862
2 17.510000000000002 -7.9900000000000002 0 0 0 1 0 1 -0 -1 0 0 3.4900000000000002
1 -21 0 0 -0 1 0 
1 0 3.5 0 1 0 -0 
8 4.7123889803846897 6.2831853071795862
2 -17.510000000000002 -7.9900000000000002 0 -0 -0 -1 0 1 -0 1 -0 0 3.4900000000000002
2 -17.5 -8 0 0 0 1 1 0 -0 -0 1 0 2.1000000000000001
2 17.5 -8 0 0 0 1 1 0 -0 -0 1 0 2.1000000000000001
2 0 0 0 0 0 1 1 0 -0 -0 1 0 4.5
1 17.510000000000002 -11.5 0 -0 -0 -1 
1 13.555441711725958 -11.5 -19 0 0 1 
1 -13.555441711725958 -4.5 -19 0 0 1 
2 0 -8 -1 0 0 1 1 0 -0 -0 1 0 14
1 -13.555441711725958 -11.5 -19 0 0 1 
2 0 -8 -1 0 0 1 1 0 -0 -0 1 0 14
1 14 -3.4290110376125889e-15 0 0 0 1 
2 0 0 0 0 0 1 1 0 -0 -0 1 0 14
2 0 -8 -1 0 0 1 1 0 -0 -0 1 0 14
1 13.555441711725958 -4.5 -19 0 0 1 
1 0 -22 -19 0 0 1 
1 21 -8.0099999999999998 0 -0 -0 -1 
8 3.1415926535897931 4.7123889803846897
2 17.510000000000002 -8.0099999999999998 -1 0 0 1 0 1 -0 -1 0 0 3.4900000000000002
1 -17.510000000000002 -11.5 0 -0 -0 -1 
1 21 -7.9900000000000002 0 -0 -0 -1 
1 -21 -8.0099999999999998 0 -0 -0 -1 
8 1.5707963267948966 3.1415926535897931
2 -17.510000000000002 -8.0099999999999998 -1 0 0 1 0 1 -0 -1 0 0 3.4900000000000002
1 17.510000000000002 -4.5 0 -0 -0 -1 
8 4.7123889803846897 6.2831853071795862
2 17.510000000000002 -7.9900000000000002 -1 0 0 1 0 1 -0 -1 0 0 3.4900000000000002
1 -21 -7.9900000000000002 0 -0 -0 -1 
1 -17.510000000000002 -4.5 0 -0 -0 -1 
8 4.7123889803846897 6.2831853071795862
2 -17.510000000000002 -7.9900000000000002 -1 -0 -0 -1 0 1 -0 1 -0 0 3.4900000000000002
1 2.1000000000000001 -5.1435165564188839e-16 0 0 0 1 
2 -17.5 -8 -1 0 0 1 1 0 -0 -0 1 0 2.1000000000000001
1 2.1000000000000001 -5.1435165564188839e-16 0 0 0 1 
2 17.5 -8 -1 0 0 1 1 0 -0 -0 1 0 2.1000000000000001
2 0 0 1.5 0 0 1 1 0 -0 -0 1 0 4.5
1 4.5 -1.1021821192326179e-15 0 0 0 1 
2 0 0 1.5 0 0 1 1 0 -0 -0 1 0 2.5
1 2.5 -6.1232339957367663e-16 0 0 0 1 
2 0 0 10 0 0 1 1 0 -0 -0 1 0 2.5
1 2 1.5 0 0 0 1 
2 0 0 4 0 0 1 1 0 -0 -0 1 0 2.5
1 -2 1.5 0 0 0 1 
1 -2 -1.5 0 0 0 1 
2 0 0 4 0 0 1 1 0 -0 -0 1 0 2.5
1 2 -1.5 0 0 0 1 
1 0 0 6 1 0 -0 
1 0 5 6 1 0 -0 
1 0 0 0 1 0 -0 
1 0 5 0 1 0 -0 
1 0 3 0 1 0 -0 
1 0 3 16.5 1 0 -0 
1 0 3 0 0 0 1 
1 0 0 0 -0 1 0 
1 14.75 0 0 -0 1 0 
1 0 0 0 1 0 -0 
1 14.75 3 0 0 0 1 
1 0 0 16.5 -0 1 0 
1 14.75 0 16.5 -0 1 0 
1 0 0 16.5 1 0 -0 
1 0 0 0 0 0 1 
1 14.75 0 0 0 0 1 
Polygon3D 0
PolygonOnTriangulations 0
Surfaces 32
1 0 -8 0 0 0 1 1 0 -0 -0 1 0 
1 0 0 0 0 0 1 1 0 -0 -0 1 0 
1 -21 -3.5 0 0 -1 0 1 0 0 -0 0 1 
2 0 0 0 0 0 1 1 0 -0 -0 1 0 14
1 0 0 19 0 0 1 1 0 -0 -0 1 0 
2 17.510000000000002 -8.0099999999999998 0 -0 -0 -1 0 -1 0 1 -0 -0 3.4900000000000002
2 -17.510000000000002 -8.0099999999999998 0 -0 -0 -1 -1 0 0 -0 -1 0 3.4900000000000002
2 17.510000000000002 -7.9900000000000002 0 -0 -0 -1 1 0 -0 -0 1 -0 3.4900000000000002
1 -21 3.5 0 0 -1 0 1 0 0 -0 0 1 
2 -17.510000000000002 -7.9900000000000002 0 -0 -0 -1 -1 0 0 0 1 -0 3.4900000000000002
2 0 0 0 0 0 1 1 0 -0 -0 1 0 2.1000000000000001
2 0 0 0 0 0 1 1 0 -0 -0 1 0 2.1000000000000001
2 0 0 0 0 0 1 1 0 -0 -0 1 0 4.5
1 0 0 0 0 0 1 1 0 -0 -0 1 0 
1 0 0 0 0 0 1 1 0 -0 -0 1 0 
1 0 3 0 -0 1 0 0 0 1 1 0 -0 
1 21 -3.5 0 1 0 -0 0 1 0 0 -0 1 
1 -21 -3.5 0 1 0 -0 0 1 0 0 -0 1 
1 0 0 1.5 0 0 1 1 0 -0 -0 1 0 
2 0 0 0 0 0 1 1 0 -0 -0 1 0 2.5
1 0 0 10 0 0 1 1 0 -0 -0 1 0 
1 0 0 0 -0 1 0 0 0 1 1 0 -0 
1 0 0 0 0 0 1 1 0 -0 -0 1 0 
1 0 5 0 -0 1 0 0 0 1 1 0 -0 
1 0 0 0 0 0 1 1 0 -0 -0 1 0 
1 0 0 6 0 0 1 1 0 -0 -0 1 0 
1 0 0 6 0 0 1 1 0 -0 -0 1 0 
1 0 0 0 0 0 1 1 0 -0 -0 1 0 
1 0 0 16.5 0 0 1 1 0 -0 -0 1 0 
1 0 0 0 1 0 -0 0 0 1 0 -1 0 
1 14.75 0 0 1 0 -0 0 0 1 0 -1 0 
1 0 0 0 -0 1 0 0 0 1 1 0 -0 
Triangulations 0

TShapes 207
Ve
1.00000191459626e-07
13.5554417117259 -11.5000000000002 0
0 0

0101101
*
Ve
1e-07
17.51 -11.5 0
0 0

0101101
*
Ed
 1e-07 1 1 0
1  1 0 13.5554417117259 17.51
2  1 2 0 13.5554417117259 17.51
2  2 3 4 13.5554417117259 17.51
2  3 1 5 13.5554417117259 17.51
0

0101000
+207 5 -206 5 *
Ve
1.00000200216772e-07
-13.5554417117261 -11.4999999999998 0
0 0

0101101
*
Ve
1.00000012388109e-07
-2.61814676865491e-15 -22 0
0 0

0101101
*
Ed
 1e-07 1 1 0
1  2 0 3.39427290873186 4.71238898038469
2  4 4 0 3.39427290873186 4.71238898038469
2  5 5 0 3.39427290873186 4.71238898038469
2  6 1 9 3.39427290873186 4.71238898038469
0

0101000
+204 9 -203 9 *
Ed
 1e-07 1 1 0
1  2 0 4.71238898038469 6.03050505203749
2  4 4 0 4.71238898038469 6.03050505203749
2  5 5 0 4.71238898038469 6.03050505203749
2  6 1 9 4.71238898038469 6.03050505203749
0

0101000
+203 9 -207 9 *
Ve
1e-07
21 -8.01 0
0 0

0101101
*
Ed
 1e-07 1 1 0
1  3 0 3.14159265358979 4.71238898038469
2  7 6 0 3.14159265358979 4.71238898038469
2  8 2 3 3.14159265358979 4.71238898038469
2  9 1 0 3.14159265358979 4.71238898038469
0

0101000
+206 0 -200 0 *
Ve
1e-07
-17.51 -11.5 0
0 0

0101101
*
Ed
 1e-07 1 1 0
1  1 0 -17.51 -13.5554417117261
2  1 2 0 -17.51 -13.5554417117261
2  2 3 4 -17.51 -13.5554417117261
2  10 1 5 -17.51 -13.5554417117261
0

0101000
+198 5 -204 5 *
Ve
1e-07
21 -7.99 0
0 0

0101101
*
Ed
 1e-07 1 1 0
1  4 0 -0.00999999999999979 0.00999999999999979
2  11 2 0 -0.00999999999999979 0.00999999999999979
2  12 1 5 -0.00999999999999979 0.00999999999999979
0

0101000
+200 5 -196 5 *
Ve
1e-07
-21 -8.01 0
0 0

0101101
*
Ed
 1e-07 1 1 0
1  5 0 1.5707963267949 3.14159265358979
2  13 7 0 1.5707963267949 3.14159265358979
2  14 2 3 1.5707963267949 3.14159265358979
2  15 1 0 1.5707963267949 3.14159265358979
0

0101000
+194 0 -198 0 *
Ve
1e-07
17.51 -4.5 0
0 0

0101101
*
Ed
 1e-07 1 1 0
1  6 0 4.71238898038469 6.28318530717959
2  16 8 0 4.71238898038469 6.28318530717959
2  17 2 3 4.71238898038469 6.28318530717959
2  18 1 0 4.71238898038469 6.28318530717959
0

0101000
+196 0 -192 0 *
Ve
1e-07
-21 -7.99 0
0 0

0101101
*
Ed
 1e-07 1 1 0
1  7 0 -0.00999999999999979 0.00999999999999979
2  19 2 0 -0.00999999999999979 0.00999999999999979
2  20 1 5 -0.00999999999999979 0.00999999999999979
0

0101000
+194 5 -190 5 *
Ve
1.00000185892582e-07
13.5554417117259 -4.49999999999983 0
0 0

0101101
*
Ed
 1e-07 1 1 0
1  8 0 13.5554417117259 17.51
2  21 2 0 13.5554417117259 17.51
2  22 9 4 13.5554417117259 17.51
2  23 1 5 13.5554417117259 17.51
0

0101000
+188 5 -192 5 *
Ve
1e-07
-17.51 -4.5 0
0 0

0101101
*
Ed
 1e-07 1 1 0
1  9 0 4.71238898038469 6.28318530717959
2  24 10 0 4.71238898038469 6.28318530717959
2  25 2 3 4.71238898038469 6.28318530717959
2  26 1 0 4.71238898038469 6.28318530717959
0

0101000
+190 0 -186 0 *
Ve
1.00000201005196e-07
-13.5554417117261 -4.50000000000018 0
0 0

0101101
*
Ed
 1e-07 1 1 0
1  2 0 0.252680255142092 2.88891239844773
2  4 4 0 0.252680255142092 2.88891239844773
2  5 5 0 0.252680255142092 2.88891239844773
2  27 1 9 0.252680255142092 2.88891239844773
0

0101000
+188 9 -184 9 *
Ed
 1e-07 1 1 0
1  8 0 -17.51 -13.5554417117261
2  21 2 0 -17.51 -13.5554417117261
2  22 9 4 -17.51 -13.5554417117261
2  28 1 5 -17.51 -13.5554417117261
0

0101000
+186 5 -184 5 *
Wi

0101100
+205 3 +202 8 +201 8 +199 0 +197 3 +195 3 +193 0 +191 0 -189 3 -187 3 
-185 0 +183 8 -182 3 *
Ve
1e-07
-15.4 -8 0
0 0

0101101
*
Ed
 1e-07 1 1 0
1  10 0 0 6.28318530717959
2  29 2 3 0 6.28318530717959
2  30 11 12 0 6.28318530717959
2  31 1 0 0 6.28318530717959
0

0101100
+180 0 -180 0 *
Wi

0101100
-179 0 *
Ve
1e-07
19.6 -8 0
0 0

0101101
*
Ed
 1e-07 1 1 0
1  11 0 0 6.28318530717959
2  32 2 3 0 6.28318530717959
2  33 12 15 0 6.28318530717959
2  34 1 0 0 6.28318530717959
0

0101100
+177 0 -177 0 *
Wi

0101100
-176 0 *
Ve
1e-07
4.5 -1.10218211923262e-15 0
0 0

0101101
*
Ed
 1e-07 1 1 0
1  12 0 0 6.28318530717959
2  35 13 0 0 6.28318530717959
2  36 14 0 0 6.28318530717959
2  37 1 19 0 6.28318530717959
0

0101000
+174 0 -174 0 *
Wi

0101100
-173 18 *
Fa
0  1e-07 1 0

0101000
+181 0 +178 0 +175 0 +172 0 *
Ve
1e-07
17.51 -11.5 -1
0 0

0101101
*
Ed
 1e-07 1 1 0
1  13 0 0 1
2  38 6 0 0 1
2  39 3 2 0 1
4 G1 6 0 3 2
0

0101000
+206 0 -170 0 *
Ve
1.00000005329071e-07
13.555441711726 -11.5 -1
0 0

0101101
*
Ed
 1e-07 1 1 0
1  1 0 13.555441711726 17.51
2  1 2 0 13.555441711726 17.51
2  40 3 22 13.555441711726 17.51
0

0101000
+168 23 -170 23 *
Ed
 1e-07 1 1 0
1  14 0 18 19
2  41 4 8 18 19
2  42 3 2 18 19
0

0101000
+168 0 -207 0 *
Wi

0101100
-205 3 -169 0 +167 21 -166 0 *
Fa
0  1e-07 3 2

0101000
+165 0 *
Ve
1.00000003972055e-07
-13.555441711726 -4.5 -1
0 0

0101101
*
Ed
 1e-07 1 1 0
1  15 0 18 19
2  43 4 8 18 19
2  44 9 2 18 19
0

0101000
+163 0 -184 0 *
Ve
1.00000001776357e-07
-13.555441711726 -11.5 -1
0 0

0101101
*
Ed
 1e-07 1 1 0
1  16 0 2.88891239844771 3.39427290873187
2  45 4 8 2.88891239844771 3.39427290873187
2  46 2 21 2.88891239844771 3.39427290873187
0

0101000
+163 0 -161 0 *
Ed
 1e-07 1 1 0
1  17 0 18 19
2  47 4 8 18 19
2  48 3 2 18 19
0

0101000
+161 0 -204 0 *
Ve
1.00000003552714e-07
14 -8 -1
0 0

0101101
*
Ed
 1e-07 1 1 0
1  18 0 6.03050505203751 6.28318530717959
2  49 4 8 6.03050505203751 6.28318530717959
2  50 2 21 6.03050505203751 6.28318530717959
0

0101000
+168 0 -158 0 *
Ve
1e-07
14 -3.42901103761259e-15 0
0 0

0101101
*
Ed
 1e-07 1 1 0
1  19 0 0 18
3  51 52CN 4 0 0 18
0

0101000
+156 0 -158 9 *
Ed
 1e-07 1 1 0
1  20 0 0 6.28318530717959
2  53 4 0 0 6.28318530717959
2  54 15 0 0 6.28318530717959
0

0101000
+156 0 -156 0 *
Ve
1.00000001986027e-07
13.555441711726 -4.5 -1
0 0

0101101
*
Ed
 1e-07 1 1 0
1  21 0 0 0.252680255142079
2  55 4 8 0 0.252680255142079
2  56 2 21 0 0.252680255142079
0

0101000
+158 0 -153 0 *
Ed
 1e-07 1 1 0
1  22 0 18 19
2  57 4 8 18 19
2  58 9 2 18 19
0

0101000
+153 0 -188 0 *
Wi

0101100
-183 8 +162 0 -160 0 -159 0 -202 8 -201 8 +166 0 -157 0 +155 8 +154 8 
-155 8 -152 0 -151 0 *
Ve
1e-07
0 -22 -16.5
0 0

0101101
*
Ed
 1e-07 1 1 0
1  23 0 2.5 19
2  59 4 8 2.5 19
2  60 16 26 2.5 19
0

0101000
+149 0 -203 0 *
Wi

0101000
i148 0 *
Fa
0  1e-07 4 8

0101000
+150 0 +147 0 *
Ve
1e-07
21 -8.01 -1
0 0

0101101
*
Ed
 1e-07 1 1 0
1  24 0 -0 1
2  61 6 0 -0 1
2  62 17 2 -0 1
4 G1 6 0 17 2
0

0101000
+200 0 -145 0 *
Ed
 1e-07 1 1 0
1  25 0 3.14159265358979 4.71238898038469
2  63 6 0 3.14159265358979 4.71238898038469
2  64 2 21 3.14159265358979 4.71238898038469
0

0101000
+170 0 -145 0 *
Wi

0101100
+199 0 -169 0 +144 0 -143 0 *
Fa
0  0 6 0

0101000
+142 0 *
Ve
1e-07
-17.51 -11.5 -1
0 0

0101101
*
Ed
 1e-07 1 1 0
1  1 0 -17.51 -13.555441711726
2  1 2 0 -17.51 -13.555441711726
2  40 3 22 -17.51 -13.555441711726
0

0101000
+140 23 -161 23 *
Ed
 1e-07 1 1 0
1  26 0 -0 1
2  65 7 0 -0 1
2  66 3 2 -0 1
4 G1 7 0 3 2
0

0101000
+198 0 -140 0 *
Wi

0101100
-197 3 +159 0 +139 21 +138 0 *
Fa
0  1e-07 3 2

0101000
+137 0 *
Ve
1e-07
21 -7.99 -1
0 0

0101101
*
Ed
 1e-07 1 1 0
1  27 0 -0 1
2  67 8 0 -0 1
2  68 17 2 -0 1
4 G1 8 0 17 2
0

0101000
+196 0 -135 0 *
Ed
 1e-07 1 1 0
1  4 0 -0.00999999999999979 0.00999999999999979
2  11 2 0 -0.00999999999999979 0.00999999999999979
0

0101000
+145 23 -135 23 *
Wi

0101100
-195 3 +144 0 -134 0 +133 21 *
Fa
0  1e-07 17 0

0101000
+132 27 *
Ve
1e-07
-21 -8.01 -1
0 0

0101101
*
Ed
 1e-07 1 1 0
1  28 0 -0 1
2  69 7 0 -0 1
2  70 18 2 -0 1
4 G1 7 0 18 2
0

0101000
+194 0 -130 0 *
Ed
 1e-07 1 1 0
1  29 0 1.5707963267949 3.14159265358979
2  71 7 0 1.5707963267949 3.14159265358979
2  72 2 21 1.5707963267949 3.14159265358979
0

0101000
+130 0 -140 0 *
Wi

0101100
+193 0 -129 0 +138 0 -128 0 *
Fa
0  0 7 0

0101000
+127 0 *
Ve
1e-07
17.51 -4.5 -1
0 0

0101101
*
Ed
 1e-07 1 1 0
1  30 0 0 1
2  73 8 0 0 1
2  74 9 2 0 1
4 G1 8 0 9 2
0

0101000
+192 0 -125 0 *
Ed
 1e-07 1 1 0
1  31 0 4.71238898038469 6.28318530717959
2  75 8 0 4.71238898038469 6.28318530717959
2  76 2 21 4.71238898038469 6.28318530717959
0

0101000
+135 0 -125 0 *
Wi

0101100
+191 0 -134 0 +124 0 -123 0 *
Fa
0  0 8 0

0101000
+122 0 *
Ve
1e-07
-21 -7.99 -1
0 0

0101101
*
Ed
 1e-07 1 1 0
1  32 0 -0 1
2  77 10 0 -0 1
2  78 18 2 -0 1
4 G1 10 0 18 2
0

0101000
+190 0 -120 0 *
Ed
 1e-07 1 1 0
1  7 0 -0.00999999999999979 0.00999999999999979
2  19 2 0 -0.00999999999999979 0.00999999999999979
0

0101000
+130 23 -120 23 *
Wi

0101100
-189 3 +129 0 -119 0 +118 21 *
Fa
0  1e-07 18 0

0101000
+117 27 *
Ed
 1e-07 1 1 0
1  8 0 13.555441711726 17.51
2  21 2 0 13.555441711726 17.51
2  79 9 22 13.555441711726 17.51
0

0101000
+153 23 -125 23 *
Wi

0101100
-187 3 -124 0 +115 21 -151 0 *
Fa
0  1e-07 9 2

0101000
+114 0 *
Ve
1e-07
-17.51 -4.5 -1
0 0

0101101
*
Ed
 1e-07 1 1 0
1  33 0 -0 1
2  80 10 0 -0 1
2  81 9 2 -0 1
4 G1 10 0 9 2
0

0101000
+186 0 -112 0 *
Ed
 1e-07 1 1 0
1  34 0 4.71238898038469 6.28318530717959
2  82 10 0 4.71238898038469 6.28318530717959
2  83 2 21 4.71238898038469 6.28318530717959
0

0101000
+120 0 -112 0 *
Wi

0101100
+185 0 -119 0 +111 0 -110 0 *
Fa
0  0 10 0

0101000
+109 0 *
Ed
 1e-07 1 1 0
1  8 0 -17.51 -13.555441711726
2  21 2 0 -17.51 -13.555441711726
2  79 9 22 -17.51 -13.555441711726
0

0101000
+112 23 -163 23 *
Wi

0101100
-182 3 +162 0 +107 21 +111 0 *
Fa
0  1e-07 9 2

0101000
+106 0 *
Ve
1e-07
-15.4 -8 -1
0 0

0101101
*
Ed
 1e-07 1 1 0
1  35 0 0.5 1.5
3  84 85CN 11 0 0.5 1.5
0

0101000
+104 28 -180 28 *
Ed
 1e-07 1 1 0
1  36 0 0 6.28318530717959
2  86 2 21 0 6.28318530717959
2  87 11 12 0 6.28318530717959
0

0101100
+104 0 -104 0 *
Wi

0101100
-179 0 +103 12 +102 0 -103 12 *
Fa
0  1e-07 11 12

0101000
+101 0 *
Ve
1e-07
19.6 -8 -1
0 0

0101101
*
Ed
 1e-07 1 1 0
1  37 0 0.5 1.5
3  88 89CN 12 0 0.5 1.5
0

0101000
+99 29 -177 29 *
Ed
 1e-07 1 1 0
1  38 0 0 6.28318530717959
2  90 2 21 0 6.28318530717959
2  91 12 15 0 6.28318530717959
0

0101100
+99 0 -99 0 *
Wi

0101100
-176 0 +98 15 +97 0 -98 15 *
Fa
0  1e-07 12 15

0101000
+96 0 *
Ve
1e-07
4.5 -1.10218211923262e-15 1.5
0 0

0101101
*
Ed
 1e-07 1 1 0
1  39 0 0 6.28318530717959
2  92 13 0 0 6.28318530717959
2  93 19 0 0 6.28318530717959
0

0101000
+94 0 -94 0 *
Ed
 1e-07 1 1 0
1  40 0 0 1.5
3  94 95CN 13 0 0 1.5
0

0101000
-94 0 +174 0 *
Wi

0101100
-93 0 +92 0 +173 0 -92 0 *
Fa
0  1e-07 13 0

0111000
+91 0 *
Wi

0101100
-157 0 -152 0 -115 21 +123 0 +133 21 +143 0 +167 21 *
Wi

0101100
-97 0 *
Fa
0  1e-07 2 21

0101000
+89 0 +88 0 *
Wi

0101100
-118 21 -110 0 -107 21 -160 0 +139 21 +128 0 *
Wi

0101100
-102 0 *
Fa
0  1e-07 2 21

0101000
+86 0 +85 0 *
Wi

0101100
-154 0 *
Fa
0  1e-07 15 0

0111000
-83 0 *
Wi

0101100
+93 18 *
Ve
1.00000000612323e-07
2.5 -6.12323399573677e-16 1.5
0 0

0101101
*
Ed
 1e-07 1 1 0
1  41 0 0 6.28318530717959
2  96 19 18 0 6.28318530717959
2  97 20 32 0 6.28318530717959
0

0101100
+80 0 -80 0 *
Wi

0101100
-79 0 *
Fa
0  1e-07 19 18

0101000
+81 0 +78 0 *
Ve
1e-07
2.5 -6.12323399573677e-16 10
0 0

0101101
*
Ed
 1e-07 1 1 0
1  42 0 1.5 10
3  98 99CN 20 0 1.5 10
0

0101000
+80 33 -76 0 *
Ve
1.00000021431618e-07
1.99999999999998 1.50000000000001 10
0 0

0101101
*
Ed
 1e-07 1 1 0
1  43 0 0 0.643501108793293
2  100 20 0 0 0.643501108793293
2  101 21 0 0 0.643501108793293
0

0101000
+76 0 -74 33 *
Ve
1e-07
2 1.5 4
0 0

0101101
*
Ed
 1e-07 1 1 0
1  44 0 4 10
2  102 20 32 4 10
2  103 22 36 4 10
0

0101000
+72 0 -74 0 *
Ve
1.00000000222045e-07
-2 1.5 4
0 0

0101101
*
Ed
 1e-07 1 1 0
1  45 0 0.643501108793284 2.49809154479651
2  104 20 32 0.643501108793284 2.49809154479651
2  105 23 36 0.643501108793284 2.49809154479651
0

0101000
+72 0 -70 0 *
Ve
1.0000008486288e-07
-1.99999999999993 1.50000000000005 10
0 0

0101101
*
Ed
 1e-07 1 1 0
1  46 0 4 10
2  106 20 32 4 10
2  107 22 36 4 10
0

0101000
+70 0 -68 0 *
Ve
1.00000020322844e-07
-1.99999999999998 -1.50000000000001 10
0 0

0101101
*
Ed
 1e-07 1 1 0
1  43 0 2.49809154479648 3.78509376238309
2  100 20 0 2.49809154479648 3.78509376238309
2  101 21 0 2.49809154479648 3.78509376238309
0

0101000
+68 33 -66 33 *
Ve
1.00000001601186e-07
-2 -1.5 4
0 0

0101101
*
Ed
 1e-07 1 1 0
1  47 0 4 10
2  108 20 32 4 10
2  109 24 39 4 10
0

0101000
+64 0 -66 0 *
Ve
1.00000001884111e-07
2 -1.5 4
0 0

0101101
*
Ed
 1e-07 1 1 0
1  48 0 3.78509376238308 5.6396841983863
2  110 20 32 3.78509376238308 5.6396841983863
2  111 25 39 3.78509376238308 5.6396841983863
0

0101000
+64 0 -62 0 *
Ve
1.00000021000537e-07
1.99999999999998 -1.50000000000001 10
0 0

0101101
*
Ed
 1e-07 1 1 0
1  49 0 4 10
2  112 20 32 4 10
2  113 24 39 4 10
0

0101000
+62 0 -60 0 *
Ed
 1e-07 1 1 0
1  43 0 5.63968419838629 6.28318530717959
2  100 20 0 5.63968419838629 6.28318530717959
2  101 21 0 5.63968419838629 6.28318530717959
0

0101000
+60 33 -76 0 *
Wi

0101100
+75 32 +79 0 -75 32 -73 32 +71 0 -69 0 -67 0 -65 32 +63 0 -61 0 
-59 0 -58 32 *
Fa
0  1e-07 20 32

0101000
+57 0 *
Ed
 1e-07 1 1 0
1  50 0 3.00000000000007 6.99999999999998
2  114 22 0 3.00000000000007 6.99999999999998
2  115 26 0 3.00000000000007 6.99999999999998
2  116 21 40 3.00000000000007 6.99999999999998
0

0101000
+68 41 -74 41 *
Ed
 1e-07 1 1 0
1  51 0 3.00000000000002 6.99999999999998
2  117 24 0 3.00000000000002 6.99999999999998
2  118 27 0 3.00000000000002 6.99999999999998
2  119 21 42 3.00000000000002 6.99999999999998
0

0101000
+66 43 -60 43 *
Wi

0101100
-55 36 +73 32 +58 32 +54 39 +65 32 *
Fa
0  1e-07 21 32

0101000
+53 0 *
Ed
 1e-07 1 1 0
1  52 0 3 7
2  120 22 0 3 7
2  121 23 0 3 7
0

0101000
+70 41 -72 41 *
Wi

0101100
-51 36 -71 0 +55 36 +67 0 *
Fa
0  1e-07 22 36

0101000
+50 0 *
Wi

0101100
+69 0 +51 36 *
Fa
0  1e-07 23 36

0101000
+48 0 *
Ed
 1e-07 1 1 0
1  53 0 3 7
2  122 24 0 3 7
2  123 25 0 3 7
0

0101000
+64 43 -62 43 *
Wi

0101100
-46 39 -59 0 +54 39 +63 0 *
Fa
0  1e-07 24 39

0101000
+45 0 *
Wi

0101100
-46 39 +61 0 *
Fa
0  1e-07 25 39

0101000
+43 0 *
Sh

0101100
+171 0 +164 0 +146 0 -141 0 +136 0 +131 2 -126 0 -121 0 -116 2 -113 0 
+108 0 -105 0 -100 0 -95 0 +90 18 -87 0 -84 0 -82 8 +77 0 +56 0 
+52 0 +49 0 +47 0 -44 0 +42 0 *
So

0100000
+41 0 *
Ve
1e-07
0 3 0
0 0

0101101
*
Ed
 1e-07 1 1 0
1  54 0 0 7.375
2  124 16 0 0 7.375
2  125 28 0 0 7.375
0

0101000
+39 0 -149 44 *
Ve
1e-07
0 3 16.5
0 0

0101101
*
Ed
 1e-07 1 1 0
1  55 0 0 7.375
2  126 16 0 0 7.375
2  127 29 0 0 7.375
0

0101000
+37 0 -203 44 *
Ed
 1e-07 1 1 0
1  56 0 0 16.5
2  128 30 0 0 16.5
2  129 16 0 0 16.5
0

0101000
-37 0 +39 0 *
Wi

0101100
-38 26 -148 0 +36 26 +35 26 *
Fa
0  1e-07 16 26

0101000
+34 0 *
Ve
1e-07
0 0 0
0 0

0101101
*
Ed
 1e-07 1 1 0
1  57 0 0 3
2  130 30 0 0 3
2  131 28 0 0 3
0

0101000
-39 0 +32 0 *
Ve
1e-07
14.75 3 0
0 0

0101101
*
Ed
 1e-07 1 1 0
1  54 0 7.375 14.75
2  124 16 0 7.375 14.75
2  125 28 0 7.375 14.75
0

0101000
+149 44 -30 0 *
Ve
1e-07
14.75 0 0
0 0

0101101
*
Ed
 1e-07 1 1 0
1  58 0 0 3
2  132 31 0 0 3
2  133 28 0 0 3
0

0101000
-30 0 +28 0 *
Ed
 1e-07 1 1 0
1  59 0 0 14.75
2  134 32 0 0 14.75
2  135 28 0 0 14.75
0

0101000
-28 0 +32 0 *
Wi

0101100
-31 26 -38 26 -29 26 +27 26 +26 26 *
Fa
0  1e-07 28 26

0101000
+25 0 *
Ve
1e-07
14.75 3 16.5
0 0

0101101
*
Ed
 1e-07 1 1 0
1  60 0 0 16.5
2  136 31 0 0 16.5
2  137 16 0 0 16.5
0

0101000
-23 0 +30 0 *
Ed
 1e-07 1 1 0
1  55 0 7.375 14.75
2  126 16 0 7.375 14.75
2  127 29 0 7.375 14.75
0

0101000
+203 44 -23 0 *
Wi

0101100
-29 26 -22 26 +21 26 +148 0 *
Fa
0  1e-07 16 26

0101000
+20 0 *
Ve
1e-07
0 0 16.5
0 0

0101101
*
Ed
 1e-07 1 1 0
1  61 0 0 3
2  138 30 0 0 3
2  139 29 0 0 3
0

0101000
-37 0 +18 0 *
Ve
1e-07
14.75 0 16.5
0 0

0101101
*
Ed
 1e-07 1 1 0
1  62 0 0 3
2  140 31 0 0 3
2  141 29 0 0 3
0

0101000
-23 0 +16 0 *
Ed
 1e-07 1 1 0
1  63 0 0 14.75
2  142 32 0 0 14.75
2  143 29 0 0 14.75
0

0101000
-16 0 +18 0 *
Wi

0101100
-17 26 -36 26 -21 26 +15 26 +14 26 *
Fa
0  1e-07 29 26

0101000
+13 0 *
Ed
 1e-07 1 1 0
1  64 0 0 16.5
2  144 30 0 0 16.5
2  145 32 0 0 16.5
0

0101000
-18 0 +32 0 *
Wi

0101100
-11 0 -17 0 +35 0 +31 0 *
Fa
0  1e-07 30 0

0111000
+10 0 *
Ed
 1e-07 1 1 0
1  65 0 0 16.5
2  146 31 0 0 16.5
2  147 32 0 0 16.5
0

0101000
-16 0 +28 0 *
Wi

0101100
-8 0 -15 0 +22 0 +27 0 *
Fa
0  1e-07 31 0

0111000
+7 0 *
Wi

0101100
-26 0 -8 0 +14 0 +11 0 *
Fa
0  1e-07 32 0

0111000
+5 0 *
Sh

0101100
+33 0 -24 0 +19 0 +12 0 -9 26 +6 26 -4 26 *
So

0100000
+3 0 *
Co

1100000
+40 0 +2 0 *

+1 0 