DBRep_DrawableShape

CASCADE Topology V3, (c) Open Cascade
Locations 63
1
              1               0               0            -1.5 
              0               1               0             -16 
              0               0               1           -10.5 
1
              1               0               0           19.35 
              0               1               0               0 
              0               0               1           -10.5 
2  1 1 2 1 0
2  2 -1 1 -1 0
1
              1               0               0              -0 
              0               1               0              -0 
              0               0               1               0 
1
              1               0               0               0 
              0               1               0               0 
              0               0               1             -21 
2  5 1 6 1 0
1
              1               0               0          -5.425 
              0               1               0             -16 
              0               0               1              -1 
1
              1               0               0          15.425 
              0               1               0               0 
              0               0               1               1 
2  8 1 9 1 2 -1 1 -1 0
1
              1               0               0              -0 
              0               1               0              -0 
              0               0               1               0 
2  11 -1 0
1
              1               0               0               0 
              0               1               0               0 
              0               0               1               2 
2  13 -1 11 -1 0
2  8 1 9 1 11 -1 0
2  1 1 2 1 11 -1 0
2  5 1 6 1 2 -1 1 -1 0
2  5 -1 0
1
              1               0               0               0 
              0               1               0               0 
              0               0               1              23 
2  19 -1 5 -1 0
2  6 -1 5 -1 0
1
              1               0               0           -3.75 
              0               1               0              -6 
              0               0               1           -2.75 
1
              1               0               0            21.6 
              0               1               0               0 
              0               0               1          -18.25 
2  22 1 23 1 0
2  23 -1 22 -1 0
2  5 1 6 1 23 -1 22 -1 0
1
              1               0               0              -0 
              0               1               0              -0 
              0               0               1           -8.25 
1
              1               0               0           22.75 
              0               1               0               0 
              0               0               1          -18.25 
2  27 1 28 1 0
2  8 1 9 1 0
2  11 1 9 -1 8 -1 0
2  9 -1 8 -1 0
1
              1               0               0              -0 
              0               1               0              -0 
              0               0               1              -3 
1
              1               0               0              13 
              0               1               0             -13 
              0               0               1               0 
2  33 1 34 1 0
1
              1               0               0              -0 
              0               1               0              -0 
              0               0               1              -3 
1
              1               0               0              13 
              0               1               0              13 
              0               0               1               0 
2  36 1 37 1 0
2  11 1 13 1 0
2  8 1 9 1 13 -1 11 -1 0
2  5 1 19 1 6 1 13 -1 11 -1 0
2  11 1 13 1 9 -1 8 -1 0
2  5 1 19 1 6 1 9 -1 8 -1 0
1
              1               0               0              -0 
              0               1               0              -0 
              0               0               1              -6 
1
              1              -0               0               0 
              0 2.22044604925031e-16              -1               0 
              0               1 2.22044604925031e-16               0 
2  44 1 45 1 0
2  45 -1 0
1
              1               0               0              -0 
              0               1               0              -0 
              0               0               1            -5.5 
1
              1               0               0           22.75 
              0               1               0               0 
              0               0               1             -10 
2  48 1 49 1 0
1
              1               0               0               0 
              0               1               0               0 
              0               0               1               6 
2  51 1 45 1 0
2  51 -1 0
2  44 -1 0
2  45 -1 44 -1 0
2  45 1 23 -1 22 -1 0
2  48 1 49 1 23 -1 22 -1 0
2  45 -1 51 -1 0
2  28 -1 27 -1 0
2  5 1 19 1 6 1 0
2  34 -1 33 -1 0
2  37 -1 36 -1 0
2  49 -1 48 -1 0
Curve2ds 189
1 21 0 0 -1 
1 0 0 0 1 
1 21 0 0 -1 
1 0 0 1 0 
1 0 0 1 0 
1 0 0 1 0 
1 0 32 0 -1 
1 0 -32 0 1 
1 17.850000000000001 16 0 -1 
1 0 -32 1 0 
1 0 0 1 0 
1 0 -32 1 0 
1 21 0 0 -1 
1 7.8500000000000014 0 0 1 
1 21 0 0 -1 
1 0 0 1 0 
1 0 -2 1 0 
2 1.9108333729808534e-15 -1.9314363361221341e-15 1 0 -0 1 22.899999999999999
2 -10 16 1 0 -0 1 22.899999999999999
2 -17.850000000000001 16 1 0 -0 1 22.899999999999999
1 21 0 0 -1 
1 3 0 0 1 
1 21 0 0 -1 
2 -17.850000000000001 16 1 0 0 -1 25.5
1 6.2831853071795862 -21 -1 0 
1 21 0 0 1 
1 0 0 1 0 
1 0 0 0 1 
1 0 0 1 0 
1 0 0 1 0 
1 17.850000000000001 -16 1 0 
8 -23.0000006 5.999999999062311e-07
1 0 2.0057296516647796 -1 0 
8 -23.0000006 5.999999999062311e-07
1 5.6049100449660063 0 0 1 
1 0 0 0 1 
1 0 32 1 0 
1 0 32 1 0 
1 17.850000000000001 16 1 0 
1 0 0 1 0 
1 0 -23 1 0 
2 1.7160033035788841e-15 -6.7505352430363358e-16 1 0 -0 1 25.5
2 -17.850000000000001 16 1 0 -0 1 25.5
1 0 0 0 -1 
1 3 0 0 1 
1 0 0 0 -1 
1 3 0 0 1 
1 20.850000000000001 -16 0 1 
1 0 0 0 1 
1 0 12 1 0 
1 0 22 1 0 
1 0 0 0 1 
1 17.850000000000001 5.9999999999999991 1 0 
2 -17.850000000000001 16 1 0 -0 1 25.5
1 0 0 0 -1 
1 7.5 0 0 1 
1 7.5 10 0 1 
1 25.350000000000001 -6.0000000000000009 0 1 
2 -17.850000000000001 16 1 0 -0 1 25.5
1 0 0 0 1 
1 0 0 1 0 
1 0 10 1 0 
1 0 0 0 1 
1 17.850000000000001 -6.0000000000000009 1 0 
1 3 0 0 1 
1 20.850000000000001 -16 0 1 
2 -17.850000000000001 16 1 0 -0 1 25.5
2 4.8999999999999986 16 1 0 -0 1 1.7
1 0 5.5 1 0 
2 22.75 -6.7505352430363358e-16 1 0 -0 1 1.6999999999999993
8 -23.0000006 5.999999999062311e-07
1 0 2.0057296516647796 -1 0 
8 -23.0000006 5.999999999062311e-07
1 0.67827526221357948 0 0 1 
1 21 0 0 1 
1 0 32 1 0 
2 -17.850000000000001 16 1 0 0 -1 25.5
1 6.2831853071795862 -21 -1 0 
1 21 0 0 -1 
2 -10 16 1 0 -0 1 22.899999999999999
2 -17.850000000000001 16 1 0 -0 1 22.899999999999999
1 0 0 0 1 
1 0 32 1 0 
1 10.000000000000002 15.999999999999998 1 0 
1 0 0 0 1 
1 0 0 1 0 
1 10.000000000000002 -16.000000000000004 1 0 
1 0 0 0 -1 
1 0 0 0 1 
1 10.000000000000002 -16.000000000000004 0 1 
2 3 3 1 0 -0 1 1.7
1 0 3 1 0 
2 3 29 1 0 -0 1 1.7
1 0 3 1 0 
8 -2.0000005999999999 5.9999999999999997e-07
1 0 -6.5296515375621027 -1 0 
8 -2.0000005999999999 5.9999999999999997e-07
1 5.8568330812433782 0 0 1 
1 21 -6.5296515375621027 -1 0 
2 -10 16 1 0 -0 1 22.899999999999999
2 1.7160033035788841e-15 -6.7505352430363358e-16 1 0 -0 1 22.899999999999999
8 -2.0000005999999999 5.9999999999999997e-07
1 0 6.3832231261128811 -1 0 
8 -2.0000005999999999 5.9999999999999997e-07
1 5.5096205933682967 0 0 1 
1 2 0 0 -1 
1 10.850000000000001 0 0 1 
1 20.850000000000005 -16.000000000000004 0 1 
1 23 0 0 -1 
1 20.850000000000001 -16 0 1 
8 -2.0000005999999999 5.9999999999999997e-07
1 0 -25.470348462437897 -1 0 
8 -2.0000005999999999 5.9999999999999997e-07
1 0.42635222593620759 0 0 1 
1 21 -25.470348462437897 -1 0 
8 -23.0000006 5.999999999062311e-07
1 0 -30.68085487974048 -1 0 
8 -23.0000006 5.999999999062311e-07
1 0.61348420545585225 0 0 1 
1 9.9999999999999982 -21.999999999999996 -1 -2.6645352591003761e-16 
1 9.9999999999999982 3 -1 0 
1 0 6 0 -1 
1 6.3639610306789285 6 0 -1 
1 10.000000000000002 -9.9999999999999964 -2.2204460492503131e-16 -1 
8 -5.999999999062311e-07 11.0000006
1 5.5 -18.939387691339814 1 0 
8 -5.999999999062311e-07 11.0000006
1 2.1446317793149268 0 0 1 
8 -11.5 -4.5
1 16.5 -8 0 1 
8 -11.5 -4.5
1 -1.8999999999999986 -8 0 -1 
8 -5.999999999062311e-07 11.0000006
1 5.5 -13.060612308660186 1 0 
8 -5.999999999062311e-07 11.0000006
1 4.1385535278646595 0 0 1 
1 0 -10 1 2.6645352591003751e-16 
1 0 3 1 0 
8 -23.0000006 5.999999999062311e-07
1 0 -1.3191451202595186 -1 0 
8 -23.0000006 5.999999999062311e-07
1 5.6697011017237342 0 0 1 
8 -10.999999999999998 5.999999999062311e-07
1 0 6.934067462787457 -1 0 
8 -10.999999999999998 5.999999999062311e-07
1 0.23752117078144624 0 0 1 
1 0 0 1 0 
1 0 -6 1 0 
1 0 0 1 0 
1 0 -6 1 0 
1 2.9090097423302659 -1.5909902576697323 -0.70710678118654757 0.70710678118654757 
1 0 -6 1 0 
1 5.4999999999999982 7.5 0.70710678118654757 -0.70710678118654757 
3 35.850313806157963 2.1871393585115587e-15 -1 -3.1401849173675503e-16 3.1401849173675503e-16 -1 36.062445840513924 25.5
7 0 0  5 6 2  0.077622332781012091 -5.4267830738976173  0.1125585269232057 -5.4958652890745414  0.14749472106539965 -5.6037349746546505  0.18243091520759319 -5.7502166122776348  0.21736710934978648 -5.9349367859976319  0.2523033034919801 -6.1573298553668145 
 0.077622332781011869 6 0.25230330349197988 6
8 -6.0500000000000007 5.999999999062311e-07
1 0 -8.7617928959282843 -1 0 
8 -6.0500000000000007 5.999999999062311e-07
1 0.10851846863367043 0 0 1 
8 -6.0500000000000007 5.999999999062311e-07
1 0 -3.2382071040717153 -1 0 
8 -6.0500000000000007 5.999999999062311e-07
1 6.1746668385459156 0 0 1 
1 5.5 0 0 -1 
1 7.5 0 0 1 
1 0 5.9999999999999956 1.5700924586837752e-16 -1 
1 2.6000000000000014 -6 0 1 
3 35.850313806157963 2.1871393585115587e-15 -1 -3.1401849173675503e-16 3.1401849173675503e-16 -1 36.062445840513924 25.5
7 0 0  5 6 2  6.0308820036876059 -6.1573298553668181  6.0658181978297998 -5.9349367859976345  6.1007543919719893 -5.750216612277641  6.1356905861141948 -5.6037349746546585  6.1706267802563799 -5.4958652890745414  6.2055629743985739 -5.4267830738976173 
 6.0308820036876059 6 6.2055629743985739 6
8 -11.000000000000002 5.999999999062311e-07
1 0 6.934067462787457 -1 0 
8 -11.000000000000002 5.999999999062311e-07
1 6.0456641363981403 0 0 1 
1 0 6 1 0 
1 5.5000000000000018 7.5 0.70710678118654757 -0.70710678118654757 
2 0 0 1 0 -0 1 1.7
1 0 11 1 0 
1 6.2831853071795862 -0 0 1 
1 0 -0 0 1 
8 -2.0000005999999999 5.9999999999999997e-07
1 0 6.3832231261128811 -1 0 
8 -2.0000005999999999 5.9999999999999997e-07
1 0.77356471381128955 0 0 1 
2 -10 16 1 0 -0 1 22.899999999999999
2 1.7160033035788841e-15 -6.7505352430363358e-16 1 0 -0 1 22.899999999999999
1 2 0 0 1 
1 0 32 1 0 
1 10.000000000000002 15.999999999999998 1 0 
1 10.000000000000002 16 1 0 
1 0 -32 1 0 
1 0 0 1 0 
1 2 0 0 1 
1 0 0 1 0 
1 10.000000000000002 -16.000000000000004 1 0 
1 10.000000000000002 -16 1 0 
1 0 0 1 0 
1 0 0 1 0 
1 2 0 0 -1 
1 0 0 0 1 
1 10.000000000000002 -16.000000000000004 0 1 
1 10.000000000000002 -16 0 1 
2 3 3 1 0 -0 1 1.7
1 0 5 1 0 
2 13.000000000000002 -13 1 0 -0 1 1.6999999999999993
1 6.2831853071795862 -0 0 1 
1 0 -0 0 1 
2 3 29 1 0 -0 1 1.7
1 0 5 1 0 
2 13.000000000000002 13 1 0 -0 1 1.6999999999999993
1 6.2831853071795862 -0 0 1 
1 0 -0 0 1 
3 3.6769552621700479 -2.864375403532904e-15 1 3.1401849173675503e-16 -3.1401849173675503e-16 1 4.9497474683058327 3.5
7 0 0  7 8 2  0.73346786211075066 -6.0000000168258794e-07  0.95824833200528525 0.52667672798615162  1.1830288018998567 1.2066176164126807  1.4078092717947019 1.9963521813773717  1.6325897416890491 2.8334692726401949  1.8573702115834387 3.6454284902130039  2.0821506814779585 4.3669773488375334  2.3069311513724928 4.9500000000000046 
 3.875060515700544 8 5.4485238049622859 8
1 0 11 1 0 
2 0 0 1 0 -0 1 3.5
3 3.6769552621700479 -2.864375403532904e-15 1 3.1401849173675503e-16 -3.1401849173675503e-16 1 4.9497474683058327 3.5
7 0 0  7 8 2  3.9762541558070934 4.9500000000000046  4.2010346257016282 4.3669773488375334  4.4258150955958788 3.6454284902129075  4.6505955654928721 2.8334692726403308  4.8753760353837556 1.9963521813771619  5.1001565052803794 1.2066176164127234  5.3249369751743005 0.52667672798615361  5.5497174450688354 -5.999999999062311e-07 
 0.8346615022173004 8 2.4081247914790422 8
1 0 0 1 0 
2 0 0 1 0 -0 1 3.5
Curves 61
1 0 0 21 -0 1 0 
1 0 0 0 0 0 1 
8 0 32
1 17.850000000000001 16 -21 0 -1 0 
1 0 32 0 0 0 1 
2 0 0 0 0 0 1 1 0 -0 -0 1 0 22.899999999999999
1 3 0 21 -0 1 0 
2 0 0 0 0 -0 -1 1 0 -0 0 -1 0 25.5
1 0 0 21 1 0 -0 
1 0 0 0 1 0 -0 
1 19.855729651664781 -16 -21 -0 -0 -1 
1 0 32 0 1 0 -0 
2 0 0 0 0 0 1 1 0 -0 -0 1 0 25.5
1 3 0 0 -0 1 0 
1 0 12 0 1 0 -0 
1 7.5 0 0 -0 1 0 
1 0 0 0 1 0 -0 
2 22.75 0 -21 0 0 1 1 0 -0 -0 1 0 1.7
1 19.855729651664781 16 -21 -0 -0 -1 
1 0 32 21 1 0 -0 
2 0 0 0 0 -0 -1 1 0 -0 0 -1 0 25.5
1 0 32 0 1 0 -0 
1 0 0 0 1 0 -0 
1 0 0 0 -0 1 0 
2 13 -13 0 0 0 1 1 0 -0 -0 1 0 1.7
2 13 13 0 0 0 1 1 0 -0 -0 1 0 1.7
1 20.850000000000001 -9.4703484624378973 0 -0 -0 -1 
1 16.383223126112881 -16 0 -0 -0 -1 
1 10.850000000000001 0 2 -0 1 0 
1 20.850000000000001 9.4703484624378973 0 -0 -0 -1 
1 20.850000000000001 14.680854879740481 -21 -0 -0 -1 
8 0 9.9999999999999982
1 20.850000000000001 5.9999999999999973 -11.000000000000002 0 2.6645352591003761e-16 -1 
8 0 12
1 20.850000000000001 -11 6 0 0 -1 
1 20.850000000000001 2.9393876913398147 -15.5 0 0 1 
1 20.850000000000001 -8 -4.5 0 -1 0 
1 20.850000000000001 -2.9393876913398147 -15.5 0 0 1 
8 0 10.000000000000002
1 20.850000000000001 -6 -21 0 -2.6645352591003751e-16 1 
1 20.850000000000001 -14.680854879740481 -21 -0 -0 -1 
1 24.784067462787458 6 -21 -0 -0 -1 
1 25.350000000000001 -15.5 0 -0.70710678118654757 0.70710678118654757 0 
3 0 0 9.8500000000000014 0.70710678118654757 1.5700924586837752e-16 0.70710678118654757 0.70710678118654757 1.5700924586837754e-16 -0.70710678118654757 -2.2204460492503131e-16 1 7.9581690233903779e-33 36.062445840513924 25.5
1 25.350000000000001 2.7617928959282847 -21 -0 -0 -1 
1 25.350000000000001 -2.7617928959282847 -21 -0 -0 -1 
1 7.5 0 5.5 -0 1 0 
3 0 0 9.8500000000000014 0.70710678118654757 1.5700924586837752e-16 0.70710678118654757 0.70710678118654757 1.5700924586837754e-16 -0.70710678118654757 -2.2204460492503131e-16 1 7.9581690233903779e-33 36.062445840513924 25.5
1 24.784067462787458 -6 -21 -0 -0 -1 
2 22.75 0 -15.5 0 0 1 1 0 -0 -0 1 0 1.7
1 1.7 -4.1637991171010006e-16 0 0 0 1 
1 16.383223126112881 16 0 -0 -0 -1 
1 0 32 2 1 0 -0 
1 0 32 0 0 0 1 
1 0 0 2 1 0 -0 
1 0 0 0 0 0 1 
1 0 0 2 -0 1 0 
2 13 -13 2 0 0 1 1 0 -0 -0 1 0 1.7
1 1.7 -4.1637991171010006e-16 0 0 0 1 
2 13 13 2 0 0 1 1 0 -0 -0 1 0 1.7
1 1.7 -4.1637991171010006e-16 0 0 0 1 
3 22.75 0 -12.9 0.70710678118654757 1.5700924586837752e-16 0.70710678118654757 -0.70710678118654757 -1.5700924586837754e-16 0.70710678118654757 2.2204460492503131e-16 -1 -7.9581690233903779e-33 4.9497474683058327 3.5
2 0 0 11 0 0 1 1 0 -0 -0 1 0 3.5
3 22.75 0 -12.9 0.70710678118654757 1.5700924586837752e-16 0.70710678118654757 -0.70710678118654757 -1.5700924586837754e-16 0.70710678118654757 2.2204460492503131e-16 -1 -7.9581690233903779e-33 4.9497474683058327 3.5
2 0 0 0 0 0 1 1 0 -0 -0 1 0 3.5
Polygon3D 0
PolygonOnTriangulations 0
Surfaces 37
1 17.850000000000001 -16 -21 1 0 -0 0 0 1 0 -1 0 
1 0 0 0 1 0 -0 0 0 1 0 -1 0 
1 0 0 21 0 0 1 1 0 -0 -0 1 0 
1 0 0 0 -0 1 0 0 0 1 1 0 -0 
1 17.850000000000001 -16 -21 0 0 1 1 0 -0 -0 1 0 
1 -1.7160033035788841e-15 6.7505352430363358e-16 0 0 0 1 1 0 -0 -0 1 0 
1 0 32 0 -0 1 0 0 0 1 1 0 -0 
1 0 0 0 0 0 1 1 0 -0 -0 1 0 
2 0 0 0 -0 -0 -1 1 0 -0 -0 1 0 22.899999999999999
1 -1.9108333729808534e-15 1.9314363361221341e-15 0 0 0 1 1 0 -0 -0 1 0 
1 3 0 0 1 0 -0 0 0 1 0 -1 0 
1 20.850000000000001 -16 -21 1 0 -0 0 0 1 0 -1 0 
2 0 0 0 -0 -0 -1 1 0 -0 -0 1 0 25.5
1 0 0 0 0 0 1 1 0 -0 -0 1 0 
1 0 12 0 -0 1 0 0 0 1 1 0 -0 
1 0 0 0 0 0 1 1 0 -0 -0 1 0 
1 17.850000000000001 6 -21 -0 1 0 0 0 1 1 0 -0 
1 7.5 0 0 1 0 -0 0 0 1 0 -1 0 
1 0 0 0 -0 1 0 0 0 1 1 0 -0 
1 17.850000000000001 -6 -21 -0 1 0 0 0 1 1 0 -0 
2 0 0 0 0 0 1 1 0 -0 -0 1 0 1.7
1 0 32 0 -0 1 0 0 0 1 1 0 -0 
1 0 0 0 -0 1 0 0 0 1 1 0 -0 
1 0 0 0 1 0 -0 0 0 1 0 -1 0 
2 0 0 0 0 0 1 1 0 -0 -0 1 0 1.7
2 0 0 0 0 0 1 1 0 -0 -0 1 0 1.7
1 10.850000000000001 0 0 1 0 -0 0 0 1 0 -1 0 
1 0 0 2 0 0 1 1 0 -0 -0 1 0 
1 20.850000000000001 -11 0 -1 0 0 0 -1 0 0 0 1 
1 25.350000000000001 -15.5 0 0.70710678118654757 0.70710678118654757 -0 -0.70710678118654757 0.70710678118654757 0 0 0 1 
2 0 0 0 0 0 1 1 0 -0 -0 1 0 3.5
1 0 0 11 0 0 1 1 0 -0 -0 1 0 
1 25.350000000000001 -15.5 0 -0.70710678118654757 -0.70710678118654757 0 -0.70710678118654757 0.70710678118654757 0 -0 0 -1 
1 25.350000000000001 -15.5 0 0.70710678118654757 0.70710678118654757 -0 -0.70710678118654757 0.70710678118654757 0 0 0 1 
1 22.440990257669736 -13.909009742330268 0 0 0 1 1 0 -0 -0 1 0 
1 0 0 5.5 0 0 1 1 0 -0 -0 1 0 
1 0 0 0 0 0 1 1 0 -0 -0 1 0 
Triangulations 0

TShapes 194
Ve
1e-07
0 0 21
0 0

0101101
*
Ve
1.00000181188398e-07
17.8500000000002 -14.3452953960519 0
0 0

0101101
*
Ed
 1e-07 1 1 0
1  1 0 0 1.65470460394813
2  1 2 0 0 1.65470460394813
2  2 3 0 0 1.65470460394813
2  3 1 4 0 1.65470460394813
0

0101000
+194 0 -193 4 *
Ve
1e-07
0 0 0
0 0

0101101
*
Ed
 1e-07 1 1 0
1  2 0 0 21
2  4 2 0 0 21
2  5 4 0 0 21
2  6 1 4 0 21
0

0101000
-194 0 +191 0 *
Ve
1e-07
0 32 0
0 0

0101101
*
Ed
 1e-07 1 1 0
1  3 0 0 32
2  7 5 0 0 32
2  8 1 0 0 32
2  9 6 7 0 32
0

0101000
+189 3 -191 3 *
Ve
1e-07
0 32 21
0 0

0101101
*
Ed
 1e-07 1 1 0
1  4 0 0 21
2  10 2 0 0 21
2  11 7 0 0 21
2  12 1 4 0 21
0

0101000
-187 0 +189 0 *
Ve
1.00000177635684e-07
17.8500000000002 14.3452953960519 0
0 0

0101101
*
Ed
 1e-07 1 1 0
1  1 0 30.3452953960519 32
2  1 2 0 30.3452953960519 32
2  2 3 0 30.3452953960519 32
2  13 1 4 30.3452953960519 32
0

0101000
+185 4 -187 0 *
Ed
 1e-07 1 1 0
1  1 0 1.65470460394813 30.3452953960519
2  1 2 0 1.65470460394813 30.3452953960519
2  2 3 0 1.65470460394813 30.3452953960519
2  14 8 10 1.65470460394813 30.3452953960519
2  15 1 4 1.65470460394813 30.3452953960519
0

0101000
+193 4 -185 4 *
Wi

0101100
-192 3 -190 3 -188 0 +186 3 -184 3 -183 3 *
Fa
0  0 1 0

0111000
+182 0 *
Ve
1.00001078206167e-07
20.8499999999998 -9.47034846243895 0
0 0

0101101
*
Ed
 1e-07 1 1 0
1  5 0 5.60621785053228 5.85683308124333
2  16 9 12 5.60621785053228 5.85683308124333
2  17 9 14 5.60621785053228 5.85683308124333
2  18 10 0 5.60621785053228 5.85683308124333
2  19 8 15 5.60621785053228 5.85683308124333
2  20 3 16 5.60621785053228 5.85683308124333
0

0101000
+193 12 -180 12 *
Ve
1.00000003972055e-07
20.85 -14.6808548797405 0
0 0

0101101
*
Ed
 1e-07 1 1 0
1  6 0 1.31914512025952 6.52965153756105
2  21 11 0 1.31914512025952 6.52965153756105
2  22 3 0 1.31914512025952 6.52965153756105
2  23 12 4 1.31914512025952 6.52965153756105
0

0101000
+178 4 -180 4 *
Ve
1e-07
19.8557296516648 -16 0
0 0

0101101
*
Ed
 1e-07 1 1 0
1  7 0 0.613484205455852 0.678275262213579
2  24 3 3 0.613484205455852 0.678275262213579
2  25 13 6 0.613484205455852 0.678275262213579
0

0101000
+178 0 -176 0 *
Ed
 1e-07 1 1 0
1  8 0 0 2.00572965166478
2  26 4 0 0 2.00572965166478
2  27 3 0 0 2.00572965166478
0

0101000
+194 0 -176 4 *
Wi

0101100
-192 3 -179 11 +177 3 -175 0 +174 3 *
Fa
0  1e-07 3 3

0101000
+173 0 *
Ve
1.00000330268641e-07
19.8557296516645 -16.0000000000002 -21
0 0

0101101
*
Ed
 1e-07 1 1 0
1  9 0 0 2.0057296516645
2  28 4 0 0 2.0057296516645
2  29 14 0 0 2.0057296516645
2  30 5 4 0 2.0057296516645
2  31 6 17 0 2.0057296516645
0

0101000
+191 0 -171 4 *
Ed
 1e-07 1 1 0
1  10 0 -21 0
2  32 4 3 -21 0
2  33 13 6 -21 0
0

0101000
+176 0 -171 0 *
Wi

0101100
-170 3 +169 0 +174 3 +190 3 *
Fa
0  1e-07 4 3

0101000
+168 0 *
Ve
1.00000330268641e-07
19.8557296516645 16.0000000000002 -21
0 0

0101101
*
Ed
 1e-07 1 1 0
1  11 0 0 2.0057296516645
2  34 7 0 0 2.0057296516645
2  35 14 0 0 2.0057296516645
2  36 5 4 0 2.0057296516645
2  37 6 17 0 2.0057296516645
0

0101000
+189 0 -166 4 *
Ve
1.00000747778716e-07
20.8500000000003 14.6808548797398 -21
0 0

0101101
*
Ed
 1e-07 1 1 0
1  12 0 0.613484205455824 0.678275262213592
2  38 13 18 0.613484205455824 0.678275262213592
2  39 13 20 0.613484205455824 0.678275262213592
2  40 6 0 0.613484205455824 0.678275262213592
2  41 5 21 0.613484205455824 0.678275262213592
0

0101000
+164 21 -166 21 *
Ve
6e-07
20.85 6 -21
0 0

0101101
*
Ed
 1e-07 1 1 0
1  13 0 22 30.6808548797398
2  42 11 0 22 30.6808548797398
2  43 14 0 22 30.6808548797398
2  44 12 4 22 30.6808548797398
2  45 5 4 22 30.6808548797398
2  46 6 17 22 30.6808548797398
0

0101000
+162 4 -164 4 *
Ve
1.00000104865252e-07
24.7840674627875 5.99999999999991 -21
0 0

0101101
*
Ed
 1e-07 1 1 0
1  14 0 3 6.9340674627875
2  47 15 0 3 6.9340674627875
2  48 16 0 3 6.9340674627875
2  49 5 25 3 6.9340674627875
2  50 17 25 3 6.9340674627875
2  51 6 26 3 6.9340674627875
0

0101000
+162 25 -160 25 *
Ve
1.00000931695458e-07
25.35 2.76179289592922 -21
0 0

0101101
*
Ed
 1e-07 1 1 0
1  12 0 0.108518468633707 0.237521170781442
2  38 13 18 0.108518468633707 0.237521170781442
2  39 13 20 0.108518468633707 0.237521170781442
2  40 6 0 0.108518468633707 0.237521170781442
2  52 5 21 0.108518468633707 0.237521170781442
0

0101000
+158 21 -160 21 *
Ve
1.00000891343577e-07
25.35 -2.76179289592917 -21
0 0

0101101
*
Ed
 1e-07 1 1 0
1  15 0 3.23820710407083 8.76179289592922
2  53 18 0 3.23820710407083 8.76179289592922
2  54 16 0 3.23820710407083 8.76179289592922
2  55 5 25 3.23820710407083 8.76179289592922
2  56 6 26 3.23820710407083 8.76179289592922
0

0101000
+156 25 -158 25 *
Ve
1.0000011121753e-07
24.7840674627875 -5.9999999999999 -21
0 0

0101101
*
Ed
 1e-07 1 1 0
1  12 0 6.04566413639814 6.17466683854588
2  38 13 18 6.04566413639814 6.17466683854588
2  39 13 20 6.04566413639814 6.17466683854588
2  40 6 0 6.04566413639814 6.17466683854588
2  57 5 21 6.04566413639814 6.17466683854588
0

0101000
+154 21 -156 21 *
Ve
6e-07
20.85 -6 -21
0 0

0101101
*
Ed
 1e-07 1 1 0
1  16 0 3 6.93406746278751
2  58 19 0 3 6.93406746278751
2  59 16 0 3 6.93406746278751
2  60 5 25 3 6.93406746278751
2  61 20 25 3 6.93406746278751
2  62 6 26 3 6.93406746278751
0

0101000
+152 25 -154 25 *
Ve
1.00000744429168e-07
20.8500000000003 -14.6808548797398 -21
0 0

0101101
*
Ed
 1e-07 1 1 0
1  13 0 1.31914512026022 10
2  42 11 0 1.31914512026022 10
2  43 14 0 1.31914512026022 10
2  44 12 4 1.31914512026022 10
2  63 5 4 1.31914512026022 10
2  64 6 17 1.31914512026022 10
0

0101000
+150 4 -152 4 *
Ed
 1e-07 1 1 0
1  12 0 5.60491004496599 5.66970110172376
2  38 13 18 5.60491004496599 5.66970110172376
2  39 13 20 5.60491004496599 5.66970110172376
2  40 6 0 5.60491004496599 5.66970110172376
2  65 5 21 5.60491004496599 5.66970110172376
0

0101000
+171 21 -150 21 *
Wi

0101100
-165 3 +163 7 +161 3 -159 24 +157 7 +155 24 +153 7 +151 24 +149 3 +148 7 
+170 3 +188 0 *
Ve
1.0000000041638e-07
24.45 -4.163799117101e-16 -21
0 0

0101101
*
Ed
 1e-07 1 1 0
1  17 0 0 6.28318530717959
2  66 5 0 0 6.28318530717959
2  67 21 29 0 6.28318530717959
2  68 6 7 0 6.28318530717959
0

0101100
+146 0 -146 0 *
Wi

0101100
-145 0 *
Fa
0  1e-07 5 0

0101000
+147 0 +144 0 *
Ve
1.00000017763568e-07
19.8557296516648 16 0
0 0

0101101
*
Ed
 1e-07 1 1 0
1  18 0 -21 0
2  69 7 3 -21 0
2  70 13 6 -21 0
0

0101000
+142 0 -166 0 *
Ed
 1e-07 1 1 0
1  19 0 0 2.00572965166478
2  71 7 0 0 2.00572965166478
2  72 3 0 0 2.00572965166478
0

0101000
+187 0 -142 4 *
Wi

0101100
-165 3 +141 0 +140 3 +186 3 *
Fa
0  1e-07 7 3

0101000
+139 0 *
Ve
1.00000001776357e-07
20.85 14.6808548797405 0
0 0

0101101
*
Ed
 1e-07 1 1 0
1  20 0 5.60491004496601 5.66970110172373
2  73 3 3 5.60491004496601 5.66970110172373
2  74 13 6 5.60491004496601 5.66970110172373
0

0101000
+142 0 -137 0 *
Ve
1.00001073960136e-07
20.8499999999998 9.47034846243895 0
0 0

0101101
*
Ed
 1e-07 1 1 0
1  6 0 25.4703484624389 30.6808548797405
2  21 11 0 25.4703484624389 30.6808548797405
2  22 3 0 25.4703484624389 30.6808548797405
2  75 12 4 25.4703484624389 30.6808548797405
0

0101000
+135 4 -137 4 *
Ed
 1e-07 1 1 0
1  5 0 0.426352225936253 0.67696745664731
2  16 9 12 0.426352225936253 0.67696745664731
2  17 9 14 0.426352225936253 0.67696745664731
2  18 10 0 0.426352225936253 0.67696745664731
2  76 8 15 0.426352225936253 0.67696745664731
2  77 3 16 0.426352225936253 0.67696745664731
0

0101000
+135 12 -185 12 *
Wi

0101100
-184 3 -140 3 -136 0 +134 3 -133 11 *
Fa
0  1e-07 3 3

0101000
+132 0 *
Ve
1e-07
0 32 0
0 0

0101101
*
Ve
1.00000754732193e-07
16.3832231261122 16.0000000000003 0
0 0

0101101
*
Ed
 1e-07 1 1 0
1  21 0 0 6.38322312611221
2  78 22 0 0 6.38322312611221
2  79 8 0 0 6.38322312611221
2  80 10 31 0 6.38322312611221
0

0101000
+130 0 -129 32 *
Ed
 1e-07 1 1 0
1  5 0 0.67696745664731 0.773564713811321
2  16 9 12 0.67696745664731 0.773564713811321
2  17 9 14 0.67696745664731 0.773564713811321
2  18 10 0 0.67696745664731 0.773564713811321
2  76 8 15 0.67696745664731 0.773564713811321
0

0101000
+185 12 -129 12 *
Ve
1.00000753116644e-07
16.3832231261122 -16.0000000000003 0
0 0

0101101
*
Ed
 1e-07 1 1 0
1  5 0 5.50962059336827 5.60621785053228
2  16 9 12 5.50962059336827 5.60621785053228
2  17 9 14 5.50962059336827 5.60621785053228
2  18 10 0 5.50962059336827 5.60621785053228
2  19 8 15 5.50962059336827 5.60621785053228
0

0101000
+126 12 -193 12 *
Ve
1e-07
0 0 0
0 0

0101101
*
Ed
 1e-07 1 1 0
1  22 0 0 6.38322312611221
2  81 23 0 0 6.38322312611221
2  82 8 0 0 6.38322312611221
2  83 10 31 0 6.38322312611221
0

0101000
+124 0 -126 32 *
Ed
 1e-07 1 1 0
1  23 0 0 32
2  84 24 0 0 32
2  85 8 0 0 32
2  86 10 31 0 32
0

0101000
-130 0 +124 0 *
Wi

0101100
-128 30 +127 11 +183 3 +125 11 +123 30 -122 30 *
Ve
1e-07
14.7 -13 0
0 0

0101101
*
Ed
 1e-07 1 1 0
1  24 0 0 6.28318530717959
2  87 8 30 0 6.28318530717959
2  88 25 35 0 6.28318530717959
0

0101100
+120 0 -120 0 *
Wi

0101100
-119 0 *
Ve
1e-07
14.7 13 0
0 0

0101101
*
Ed
 1e-07 1 1 0
1  25 0 0 6.28318530717959
2  89 8 30 0 6.28318530717959
2  90 26 38 0 6.28318530717959
0

0101100
+117 0 -117 0 *
Wi

0101100
-116 0 *
Fa
0  1e-07 8 30

0101000
+121 0 +118 0 +115 0 *
Ve
1.00001078206167e-07
20.8499999999998 -9.47034846243895 2
0 0

0101101
*
Ed
 1e-07 1 1 0
1  26 0 -2 0
2  91 27 30 -2 0
2  92 9 0 -2 0
2  93 12 0 -2 0
0

0101000
+113 0 -180 0 *
Ve
1.00000753116644e-07
16.3832231261122 -16.0000000000003 2
0 0

0101101
*
Ed
 1e-07 1 1 0
1  5 0 5.50962059336827 5.85683308124333
2  16 9 12 5.50962059336827 5.85683308124333
2  17 9 14 5.50962059336827 5.85683308124333
2  18 10 0 5.50962059336827 5.85683308124333
2  94 28 40 5.50962059336827 5.85683308124333
2  95 6 41 5.50962059336827 5.85683308124333
0

0101000
+111 14 -113 14 *
Ed
 1e-07 1 1 0
1  27 0 -2 0
2  96 23 30 -2 0
2  97 9 0 -2 0
0

0101000
+111 0 -126 0 *
Wi

0101100
+112 0 +110 39 -109 0 -125 11 -179 11 *
Fa
0  1e-07 9 0

0101000
+108 0 *
Ve
1.00001073960136e-07
20.8499999999998 9.47034846243895 2
0 0

0101101
*
Ed
 1e-07 1 1 0
1  28 0 6.52965153756105 25.4703484624389
2  98 27 0 6.52965153756105 25.4703484624389
2  99 28 0 6.52965153756105 25.4703484624389
2  100 10 42 6.52965153756105 25.4703484624389
2  101 12 32 6.52965153756105 25.4703484624389
2  102 6 43 6.52965153756105 25.4703484624389
0

0101000
+113 32 -106 32 *
Ed
 1e-07 1 1 0
1  29 0 -2 0
2  103 27 30 -2 0
2  104 9 0 -2 0
2  105 12 0 -2 0
0

0101000
+106 0 -135 0 *
Ed
 1e-07 1 1 0
1  30 0 -21 0
2  106 12 0 -21 0
2  107 13 6 -21 0
0

0101000
+137 0 -164 0 *
Ve
1e-07
20.85 -11 0
0 0

0101101
*
Ed
 1e-07 1 1 0
1  31 0 0 10
2  108 12 0 0 10
2  109 17 0 0 10
0

0101000
+102 46 -162 0 *
Ve
1.00000003580362e-07
20.85 2.93938769133982 -11
0 0

0101101
*
Ed
 1e-07 1 1 0
1  32 0 8.93938769133982 12
2  110 29 0 8.93938769133982 12
2  111 30 0 8.93938769133982 12
2  112 12 47 8.93938769133982 12
0

0101000
+100 47 -102 44 *
Ve
1.50000000888178e-07
20.85 2.93938769133981 -4.5
0 0

0101101
*
Ed
 1e-07 1 1 0
1  33 0 4.5 11
2  113 12 0 4.5 11
2  114 31 50 4.5 11
0

0101000
+100 0 -98 0 *
Ve
1.50000000444089e-07
20.85 -2.93938769133981 -4.5
0 0

0101101
*
Ed
 1.5e-07 1 1 0
1  34 0 -10.9393876913398 -5.06061230866019
2  115 12 0 -10.9393876913398 -5.06061230866019
2  116 32 50 -10.9393876913398 -5.06061230866019
0

0101000
+98 0 -96 0 *
Ve
1.00000002843558e-07
20.85 -2.93938769133982 -11
0 0

0101101
*
Ed
 1e-07 1 1 0
1  35 0 4.5 11
2  117 12 0 4.5 11
2  118 31 50 4.5 11
0

0101000
+94 0 -96 0 *
Ve
1e-07
20.85 -11 0
0 0

0101101
*
Ed
 1e-07 1 1 0
1  32 0 0 3.06061230866019
2  110 29 0 0 3.06061230866019
2  111 30 0 0 3.06061230866019
2  112 12 47 0 3.06061230866019
0

0101000
+92 51 -94 47 *
Ed
 1e-07 1 1 0
1  36 0 0 10
2  119 12 0 0 10
2  120 20 0 0 10
0

0101000
+152 0 -92 52 *
Ed
 1e-07 1 1 0
1  37 0 -21 -0
2  121 12 0 -21 -0
2  122 13 6 -21 -0
0

0101000
+178 0 -150 0 *
Wi

0101100
-177 3 +112 0 -105 30 -104 0 -134 3 -103 0 +161 3 +101 0 +99 45 -97 0 
-95 0 +93 0 +91 45 +90 0 +149 3 +89 0 *
Fa
0  1e-07 12 0

0101000
+88 0 *
Wi

0101100
+89 0 -175 0 -169 0 -148 7 *
Fa
0  1e-07 13 6

0101000
+86 0 *
Wi

0101100
-163 7 +141 0 -136 0 -103 0 *
Fa
0  1e-07 13 6

0101000
+84 0 *
Ve
1.0000000814029e-07
24.7840674627875 6 -14.9340674627875
0 0

0101101
*
Ed
 1e-07 1 1 0
1  38 0 -6.06593253721254 0
2  123 17 0 -6.06593253721254 0
2  124 13 6 -6.06593253721254 0
0

0101000
+82 0 -160 0 *
Ed
 1e-07 1 1 0
1  39 0 0.800349469514193 6.36396103067893
2  125 33 0 0.800349469514193 6.36396103067893
2  126 33 53 0.800349469514193 6.36396103067893
2  127 34 0 0.800349469514193 6.36396103067893
2  128 34 54 0.800349469514193 6.36396103067893
2  129 35 0 0.800349469514193 6.36396103067893
2  130 30 54 0.800349469514193 6.36396103067893
2  131 17 55 0.800349469514193 6.36396103067893
0

0101000
+82 55 -102 0 *
Wi

0101100
-159 24 +81 0 -80 46 -101 0 *
Fa
0  1e-07 17 0

0101000
+79 0 *
Ve
1.00000005102197e-07
25.35 2.76179289592828 -15.5
0 0

0101101
*
Ed
 1e-07 1 1 0
1  40 0 0.10851846863367 0.237521170781446
2  132 30 45 0.10851846863367 0.237521170781446
2  133 13 6 0.10851846863367 0.237521170781446
0

0101000
+77 0 -82 0 *
Ed
 1e-07 1 1 0
1  41 0 -5.5 0
2  134 18 24 -5.5 0
2  135 13 6 -5.5 0
0

0101000
+77 0 -158 0 *
Wi

0101100
-157 7 +81 0 +76 0 -75 0 *
Fa
0  1e-07 13 6

0101000
+74 0 *
Ve
1.00000009820298e-07
25.35 -2.76179289592828 -15.5
0 0

0101101
*
Ed
 1e-07 1 1 0
1  42 0 -5.5 0
2  136 18 24 -5.5 0
2  137 13 6 -5.5 0
0

0101000
+72 0 -156 0 *
Ve
1.00000062904104e-07
25.35 -2.34307490277209 -15.5
0 0

0101101
*
Ed
 1.00000001776357e-07 1 1 0
1  43 0 3.23820710407172 3.65692509722791
2  138 18 0 3.23820710407172 3.65692509722791
2  139 36 0 3.23820710407172 3.65692509722791
2  140 30 56 3.23820710407172 3.65692509722791
0

0101000
+72 25 -70 25 *
Ve
1.00000062305574e-07
25.35 2.34307490277209 -15.5
0 0

0101101
*
Ed
 1.00000001776357e-07 1 1 0
1  43 0 3.65692509722791 8.34307490277209
2  138 18 0 3.65692509722791 8.34307490277209
2  139 36 0 3.65692509722791 8.34307490277209
2  140 30 56 3.65692509722791 8.34307490277209
2  141 37 57 3.65692509722791 8.34307490277209
0

0101000
+70 25 -68 25 *
Ed
 1.00000001776357e-07 1 1 0
1  43 0 8.34307490277209 8.76179289592828
2  138 18 0 8.34307490277209 8.76179289592828
2  139 36 0 8.34307490277209 8.76179289592828
2  140 30 56 8.34307490277209 8.76179289592828
0

0101000
+68 25 -77 25 *
Wi

0101100
+71 0 -69 24 -67 24 -66 24 -75 0 +155 24 *
Fa
0  1e-07 18 24

0101000
+65 0 *
Ve
1.0000001256074e-07
24.7840674627875 -6 -14.9340674627875
0 0

0101101
*
Ed
 1e-07 1 1 0
1  44 0 6.04566413639814 6.17466683854592
2  142 30 45 6.04566413639814 6.17466683854592
2  143 13 6 6.04566413639814 6.17466683854592
0

0101000
+63 0 -72 0 *
Ed
 1e-07 1 1 0
1  45 0 -6.06593253721254 -0
2  144 20 0 -6.06593253721254 -0
2  145 13 6 -6.06593253721254 -0
0

0101000
+63 0 -154 0 *
Wi

0101100
+71 0 +62 0 -61 0 -153 7 *
Fa
0  1e-07 13 6

0101000
+60 0 *
Ed
 1e-07 1 1 0
1  39 0 0.800349469514195 6.36396103067893
2  125 33 0 0.800349469514195 6.36396103067893
2  126 33 53 0.800349469514195 6.36396103067893
2  127 34 0 0.800349469514195 6.36396103067893
2  128 34 54 0.800349469514195 6.36396103067893
2  129 35 0 0.800349469514195 6.36396103067893
2  146 30 53 0.800349469514195 6.36396103067893
2  147 20 58 0.800349469514195 6.36396103067893
0

0101000
+63 58 -92 0 *
Wi

0101100
-151 24 +61 0 -58 52 +90 0 *
Fa
0  1e-07 20 0

0101000
+57 0 *
Ve
1.0000000041638e-07
24.45 -4.163799117101e-16 -15.5
0 0

0101101
*
Ed
 1e-07 1 1 0
1  46 0 0 6.28318530717959
2  148 37 50 0 6.28318530717959
2  149 21 29 0 6.28318530717959
0

0101100
+55 0 -55 0 *
Ed
 1e-07 1 1 0
1  47 0 5.5 11
3  150 151CN 21 0 5.5 11
0

0101000
+146 59 -55 59 *
Wi

0101100
-54 0 +53 29 +145 0 -53 29 *
Fa
0  1e-07 21 29

0101000
+52 0 *
Ve
1.00000754732193e-07
16.3832231261122 16.0000000000003 2
0 0

0101101
*
Ed
 1e-07 1 1 0
1  48 0 -2 0
2  152 22 30 -2 0
2  153 9 0 -2 0
0

0101000
+50 0 -129 0 *
Ed
 1e-07 1 1 0
1  5 0 0.426352225936253 0.773564713811321
2  16 9 12 0.426352225936253 0.773564713811321
2  17 9 14 0.426352225936253 0.773564713811321
2  18 10 0 0.426352225936253 0.773564713811321
2  154 28 40 0.426352225936253 0.773564713811321
2  155 6 41 0.426352225936253 0.773564713811321
0

0101000
+106 14 -50 14 *
Wi

0101100
-133 11 -127 11 +49 0 +48 39 -104 0 *
Fa
0  1e-07 9 0

0101000
+47 0 *
Ve
1e-07
0 32 2
0 0

0101101
*
Ed
 1e-07 1 1 0
1  49 0 0 6.38322312611221
2  156 22 0 0 6.38322312611221
2  157 28 0 0 6.38322312611221
2  158 10 42 0 6.38322312611221
2  159 6 43 0 6.38322312611221
0

0101000
+45 0 -50 32 *
Ed
 1e-07 1 1 0
1  50 0 0 2
2  160 24 0 0 2
2  161 22 0 0 2
0

0101000
-45 0 +130 0 *
Wi

0101100
-128 30 +49 0 +44 30 +43 30 *
Fa
0  1e-07 22 30

0101000
+42 0 *
Ve
1e-07
0 0 2
0 0

0101101
*
Ed
 1e-07 1 1 0
1  51 0 0 6.38322312611221
2  162 23 0 0 6.38322312611221
2  163 28 0 0 6.38322312611221
2  164 10 42 0 6.38322312611221
2  165 6 43 0 6.38322312611221
0

0101000
+40 0 -111 32 *
Ed
 1e-07 1 1 0
1  52 0 0 2
2  166 24 0 0 2
2  167 23 0 0 2
0

0101000
-40 0 +124 0 *
Wi

0101100
-123 30 +109 0 +39 30 +38 30 *
Fa
0  1e-07 23 30

0101000
+37 0 *
Ed
 1e-07 1 1 0
1  53 0 0 32
2  168 24 0 0 32
2  169 28 0 0 32
2  170 10 42 0 32
2  171 6 43 0 32
0

0101000
-45 0 +40 0 *
Wi

0101100
-38 0 -35 0 +43 0 +122 0 *
Fa
0  1e-07 24 0

0111000
+34 0 *
Ve
1e-07
14.7 -13 2
0 0

0101101
*
Ed
 1e-07 1 1 0
1  54 0 0 6.28318530717959
2  172 28 30 0 6.28318530717959
2  173 25 35 0 6.28318530717959
2  174 6 60 0 6.28318530717959
0

0101100
+32 0 -32 0 *
Ed
 1e-07 1 1 0
1  55 0 3 5
3  175 176CN 25 0 3 5
0

0101000
+120 61 -32 61 *
Wi

0101100
-31 0 +30 35 +119 0 -30 35 *
Fa
0  1e-07 25 35

0101000
+29 0 *
Ve
1e-07
14.7 13 2
0 0

0101101
*
Ed
 1e-07 1 1 0
1  56 0 0 6.28318530717959
2  177 28 30 0 6.28318530717959
2  178 26 38 0 6.28318530717959
2  179 6 60 0 6.28318530717959
0

0101100
+27 0 -27 0 *
Ed
 1e-07 1 1 0
1  57 0 3 5
3  180 181CN 26 0 3 5
0

0101000
+117 62 -27 62 *
Wi

0101100
-26 0 +25 38 +116 0 -25 38 *
Fa
0  1e-07 26 38

0101000
+24 0 *
Wi

0101100
-44 30 -35 30 +48 39 +39 30 +105 30 +110 39 *
Wi

0101100
-31 0 *
Wi

0101100
-26 0 *
Fa
0  1e-07 28 30

0101000
+22 0 +21 0 +20 0 *
Ed
 1e-07 1 1 0
1  58 0 3.87506077177436 5.28622443290472
2  182 30 45 3.87506077177436 5.28622443290472
2  183 31 50 3.87506077177436 5.28622443290472
0

0101000
+68 0 -100 0 *
Wi

0101100
-18 0 -99 45 +80 46 +76 0 +66 24 *
Fa
0  1e-07 30 45

0101000
+17 0 *
Ed
 1e-07 1 1 0
1  59 0 2.14463177931493 4.13855352786466
2  184 31 0 2.14463177931493 4.13855352786466
2  185 32 0 2.14463177931493 4.13855352786466
0

0101000
+98 63 -96 63 *
Ed
 1e-07 1 1 0
1  60 0 0.996960874274866 2.40812453540523
2  186 30 45 0.996960874274866 2.40812453540523
2  187 31 50 0.996960874274866 2.40812453540523
0

0101000
+94 0 -70 0 *
Ed
 1e-07 1 1 0
1  61 0 0.733468118184575 5.54971718899501
2  188 31 0 0.733468118184575 5.54971718899501
2  189 37 0 0.733468118184575 5.54971718899501
0

0101000
+68 63 -70 63 *
Wi

0101100
-15 50 +93 0 -14 0 +13 50 -18 0 -97 0 *
Fa
0  1e-07 31 50

0101000
+12 0 *
Wi

0101100
-95 0 +15 50 *
Fa
0  1e-07 32 50

0101000
+10 0 *
Wi

0101100
-58 52 -91 45 -14 0 +69 24 +62 0 *
Fa
0  1e-07 30 45

0101000
+8 0 *
Wi

0101100
+67 24 +13 50 *
Wi

0101100
-54 0 *
Fa
0  1e-07 37 50

0101000
+6 0 +5 0 *
Sh

0101100
-181 0 +172 0 -167 0 -143 0 +138 0 +131 0 -114 0 -107 0 +87 0 -85 0 
-83 0 +78 0 -73 0 +64 0 -59 0 -56 0 -51 0 -46 0 +41 0 -36 0 
-33 30 -28 0 -23 0 +19 0 +16 0 -11 0 -9 0 +7 0 +4 0 *
So

0100000
+3 0 *
Co

1100000
+2 0 *

+1 0 