DBRep_DrawableShape

CASCADE Topology V3, (c) Open Cascade
Locations 70
1
              1               0               0              -0 
              0               1               0              -0 
              0               0               1              -1 
1
              1               0               0               0 
              0               1               0               0 
              0               0               1               1 
2  1 1 2 1 0
1
              1               0               0              -0 
              0               1               0              -0 
              0               0               1            -7.5 
1
              1               0               0               0 
              0               1               0               0 
              0               0               1             9.5 
2  4 1 5 1 0
2  1 1 2 1 5 -1 4 -1 0
1
              1               0               0              -0 
              0               1               0              -0 
              0               0               1               0 
2  8 -1 0
1
              1               0               0               0 
              0               1               0               0 
              0               0               1               2 
2  10 -1 8 -1 0
2  1 1 2 1 8 -1 0
1
              1               0               0              -0 
              0               1               0              -0 
              0               0               1          -0.625 
1
              1               0               0               0 
              0               1               0               0 
              0               0               1           4.375 
2  13 1 14 1 0
2  4 1 5 1 14 -1 13 -1 0
2  13 1 14 1 5 -1 4 -1 0
2  8 1 10 1 0
1
              1               0               0              -0 
              0               1               0              -0 
              0               0               1            -7.5 
1
              1               0               0               0 
              0               1               0               0 
              0               0               1             9.5 
2  19 1 20 1 0
2  19 1 20 1 10 -1 8 -1 0
1
              1               0               0              -0 
              0               1               0              -0 
              0               0               1          -0.625 
1
              1               0               0               0 
              0               1               0               0 
              0               0               1           5.625 
2  23 1 24 1 14 -1 13 -1 0
2  14 -1 13 -1 0
2  23 1 24 1 0
2  4 1 5 1 24 -1 23 -1 0
2  24 -1 23 -1 0
2  4 1 5 1 20 -1 19 -1 0
2  23 1 24 1 5 -1 4 -1 0
1
              1               0               0              -0 
              0               1               0              -0 
              0               0               1          -0.625 
1
              1               0               0               0 
              0               1               0               0 
              0               0               1           7.375 
2  32 1 33 1 5 -1 4 -1 0
2  32 1 33 1 0
2  4 1 5 1 33 -1 32 -1 0
1
              1               0               0              -0 
              0               1               0              -0 
              0               0               1          -0.625 
1
              1               0               0               0 
              0               1               0               0 
              0               0               1           8.625 
2  37 1 38 1 33 -1 32 -1 0
2  33 -1 32 -1 0
1
              1               0               0              -0 
              0               1               0              -0 
              0               0               1          -0.625 
1
              1               0               0               0 
              0               1               0               0 
              0               0               1          14.625 
2  41 1 42 1 0
2  4 1 5 1 42 -1 41 -1 0
2  41 1 42 1 5 -1 4 -1 0
2  37 1 38 1 0
2  4 1 5 1 38 -1 37 -1 0
2  38 -1 37 -1 0
2  42 -1 41 -1 0
1
              1               0               0              -0 
              0               1               0              -0 
              0               0               1          -0.625 
1
              1               0               0               0 
              0               1               0               0 
              0               0               1          13.375 
2  50 1 51 1 0
2  41 1 42 1 51 -1 50 -1 0
2  51 -1 50 -1 0
2  37 1 38 1 5 -1 4 -1 0
1
              1               0               0              -0 
              0               1               0              -0 
              0               0               1          -0.625 
1
              1               0               0               0 
              0               1               0               0 
              0               0               1          10.375 
2  56 1 57 1 5 -1 4 -1 0
2  56 1 57 1 0
2  4 1 5 1 57 -1 56 -1 0
2  4 1 5 1 51 -1 50 -1 0
1
              1               0               0              -0 
              0               1               0              -0 
              0               0               1          -0.625 
1
              1               0               0               0 
              0               1               0               0 
              0               0               1          11.625 
2  62 1 63 1 57 -1 56 -1 0
2  57 -1 56 -1 0
2  62 1 63 1 5 -1 4 -1 0
2  50 1 51 1 5 -1 4 -1 0
2  62 1 63 1 0
2  4 1 5 1 63 -1 62 -1 0
2  63 -1 62 -1 0
Curve2ds 106
1 0 2 1 0 
2 0 0 1 0 -0 1 23
1 6.2831853071795862 -0 0 1 
1 0 -0 0 1 
1 0 0 1 0 
2 0 0 1 0 -0 1 23
1 0 0 1 0 
2 0 0 1 0 -0 1 18.875
2 0 0 1 0 -0 1 18.875
1 4.5 0 -1 0 
1 2.25 3.25 -1 0 
1 2.25 3.25 -1 0 
2 -2.25 0 1 0 0 -1 3.25
1 0 0 1 0 
1 0 -2 1 0 
2 -2.25 0 1 0 0 -1 3.25
1 -2.25 0 1 0 
1 -2.25 -3.25 1 0 
1 -2.25 -3.25 1 0 
2 2.25 0 -1 -0 -0 1 3.25
1 0 0 1 0 
1 0 -2 1 0 
2 2.25 0 -1 0 0 1 3.25
1 0 0 1 0 
2 0 0 1 0 -0 1 18.875
1 0 1.75 1 0 
1 6.2831853071795862 -0 0 1 
1 0 -0 0 1 
1 4.7123889803846897 0 0 -1 
1 -4.4408920985006262e-16 0 0 -1 
1 -2.2500000000000004 3.25 1 0 
1 -4.4408920985006262e-16 -2 1 0 
1 -2.2500000000000004 3.25 1 0 
1 1.5707963267948966 0 0 -1 
1 4.5 0 0 -1 
1 1.5707963267948966 0 0 -1 
1 -2.25 0 0 -1 
2 -2.25 0 1 0 0 -1 3.25
1 4.7123889803846897 0 0 -1 
1 2.2500000000000004 0 0 -1 
1 2.2500000000000004 -3.25 -1 0 
1 2.2500000000000004 -2 -1 0 
1 2.2500000000000004 -3.25 -1 0 
2 2.25 0 -1 0 0 1 3.25
1 0 1.6007810593582121 1 0 
2 0 0 1 0 -0 1 19.875
8 0 6.2831853071795862
1 0 0 1 0 
2 0 0 1 0 -0 1 19.875
1 6.2831853071795862 -0 0 1 
1 0 -0 0 1 
1 0 0 1 0 
2 0 0 1 0 -0 1 16.875
1 0 1.6007810593582121 1 0 
2 0 0 1 0 -0 1 18.875
1 0 4.25 1 0 
1 6.2831853071795862 -0 0 1 
1 0 -0 0 1 
1 0 15 1 0 
2 0 0 1 0 -0 1 16.875
2 0 0 1 0 -0 1 16.875
1 6.2831853071795862 -0 0 1 
1 0 -0 0 1 
1 0 0 1 0 
2 0 0 1 0 -0 1 18.875
1 0 4.75 1 0 
1 0 15 1 0 
2 0 0 1 0 -0 1 18.875
1 0 1.6007810593582121 1 0 
2 0 0 1 0 -0 1 19.875
8 0 6.2831853071795862
1 0 0 1 0 
2 0 0 1 0 -0 1 19.875
1 6.2831853071795862 -0 0 1 
1 0 -0 0 1 
1 0 1.6007810593582121 1 0 
2 0 0 1 0 -0 1 18.875
1 0 13.25 1 0 
1 0 1.6007810593582121 1 0 
2 0 0 1 0 -0 1 18.875
1 0 7.25 1 0 
1 6.2831853071795862 -0 0 1 
1 0 -0 0 1 
1 6.2831853071795862 -0 0 1 
1 0 -0 0 1 
1 0 1.6007810593582121 1 0 
2 0 0 1 0 -0 1 19.875
8 0 6.2831853071795862
1 0 0 1 0 
2 0 0 1 0 -0 1 19.875
1 0 0 1 0 
2 0 0 1 0 -0 1 18.875
1 0 7.75 1 0 
1 6.2831853071795862 -0 0 1 
1 0 -0 0 1 
1 0 0 1 0 
2 0 0 1 0 -0 1 18.875
1 0 10.75 1 0 
1 0 1.6007810593582121 1 0 
2 0 0 1 0 -0 1 19.875
8 0 6.2831853071795862
1 0 0 1 0 
2 0 0 1 0 -0 1 19.875
1 6.2831853071795862 -0 0 1 
1 0 -0 0 1 
1 0 1.6007810593582121 1 0 
2 0 0 1 0 -0 1 18.875
1 0 10.25 1 0 
1 6.2831853071795862 -0 0 1 
1 0 -0 0 1 
Curves 39
2 0 0 2 0 0 1 1 0 -0 -0 1 0 23
1 23 -5.6333752760778247e-15 0 0 0 1 
2 0 0 0 0 0 1 1 0 -0 -0 1 0 23
2 0 0 0 0 0 1 1 0 -0 -0 1 0 18.875
8 0 4.5
1 2.25 3.25 0 -1 0 0 
2 -2.25 0 0 0 0 -1 1 0 0 0 -1 0 3.25
8 0 4.5
1 -2.25 -3.25 0 1 0 0 
2 2.25 0 0 -0 0 -1 -1 -0 0 0 1 0 3.25
2 0 0 0 0 0 1 1 0 -0 -0 1 0 18.875
1 18.875 -4.6230416667812582e-15 0 0 0 1 
1 -2.2500000000000004 3.25 0 0 0 1 
8 0 4.5
1 -2.2500000000000004 3.25 2 1 0 0 
1 2.25 3.25 0 0 0 1 
1 -2.25 -3.25 0 0 0 1 
1 2.2500000000000004 -3.25 0 0 0 1 
8 0 4.5
1 2.2500000000000004 -3.25 2 -1 0 0 
2 0 0 1.25 0 0 1 1 0 -0 -0 1 0 19.875
1 18.875 -4.6230416667812582e-15 0 0.6246950475544244 -1.5300615808614589e-16 0.78086880944303039 
2 0 0 0 0 0 1 1 0 -0 -0 1 0 16.875
2 0 0 1.25 0 0 1 1 0 -0 -0 1 0 18.875
1 19.875 -4.8679710266107292e-15 0 -0.6246950475544244 1.5300615808614589e-16 0.78086880944303039 
2 0 0 15 0 0 1 1 0 -0 -0 1 0 16.875
1 16.875 -4.1331829471223168e-15 0 0 0 1 
2 0 0 0 0 0 1 1 0 -0 -0 1 0 18.875
2 0 0 15 0 0 1 1 0 -0 -0 1 0 18.875
2 0 0 1.25 0 0 1 1 0 -0 -0 1 0 19.875
1 18.875 -4.6230416667812582e-15 0 0.6246950475544244 -1.5300615808614589e-16 0.78086880944303039 
2 0 0 1.25 0 0 1 1 0 -0 -0 1 0 18.875
2 0 0 1.25 0 0 1 1 0 -0 -0 1 0 18.875
1 19.875 -4.8679710266107292e-15 0 -0.6246950475544244 1.5300615808614589e-16 0.78086880944303039 
1 19.875 -4.8679710266107292e-15 0 -0.6246950475544244 1.5300615808614589e-16 0.78086880944303039 
2 0 0 1.25 0 0 1 1 0 -0 -0 1 0 19.875
2 0 0 0 0 0 1 1 0 -0 -0 1 0 18.875
1 18.875 -4.6230416667812582e-15 0 0.6246950475544244 -1.5300615808614589e-16 0.78086880944303039 
2 0 0 0 0 0 1 1 0 -0 -0 1 0 18.875
2 0 0 1.25 0 0 1 1 0 -0 -0 1 0 19.875
1 18.875 -4.6230416667812582e-15 0 0.6246950475544244 -1.5300615808614589e-16 0.78086880944303039 
2 0 0 1.25 0 0 1 1 0 -0 -0 1 0 18.875
1 19.875 -4.8679710266107292e-15 0 -0.6246950475544244 1.5300615808614589e-16 0.78086880944303039 
Polygon3D 0
PolygonOnTriangulations 0
Surfaces 42
2 0 0 0 0 0 1 1 0 -0 -0 1 0 23
1 0 0 2 0 0 1 1 0 -0 -0 1 0 
1 0 0 0 0 0 1 1 0 -0 -0 1 0 
2 0 0 0 0 0 1 1 0 -0 -0 1 0 18.875
1 0 0 0 0 0 1 1 0 -0 -0 1 0 
1 -2.25 3.25 0 0 1 0 1 0 0 0 0 -1 
1 0 0 0 0 0 1 1 0 -0 -0 1 0 
2 -2.25 0 0 0 0 -1 1 0 0 0 -1 0 3.25
1 0 -3.25 0 0 1 0 1 0 0 0 0 -1 
2 2.25 0 0 -0 0 -1 -1 -0 0 0 1 0 3.25
3 0 0 0 0 0 1 1 0 -0 -0 1 0 18.875
0.67474094222355274
1 0 0 0 0 0 1 1 0 -0 -0 1 0 
1 -2.25 3.25 0 0 1 0 1 0 0 0 0 -1 
1 0 0 0 0 0 1 1 0 -0 -0 1 0 
1 0 3.25 0 0 1 0 1 0 0 0 0 -1 
1 -2.25 -3.25 0 0 1 0 1 0 0 0 0 -1 
1 0 -3.25 0 0 1 0 1 0 0 0 0 -1 
1 0 0 1.25 0 0 1 1 0 -0 -0 1 0 
3 0 0 0 0 0 1 1 0 -0 -0 1 0 19.875
-0.67474094222355274
1 0 0 0 0 0 1 1 0 -0 -0 1 0 
2 0 0 0 0 0 1 1 0 -0 -0 1 0 16.875
1 0 0 1.25 0 0 1 1 0 -0 -0 1 0 
1 0 0 15 0 0 1 1 0 -0 -0 1 0 
1 0 0 15 0 0 1 1 0 -0 -0 1 0 
3 0 0 0 0 0 1 1 0 -0 -0 1 0 18.875
0.67474094222355274
1 0 0 0 0 0 1 1 0 -0 -0 1 0 
1 0 0 1.25 0 0 1 1 0 -0 -0 1 0 
3 0 0 0 0 0 1 1 0 -0 -0 1 0 19.875
-0.67474094222355274
1 0 0 0 0 0 1 1 0 -0 -0 1 0 
3 0 0 0 0 0 1 1 0 -0 -0 1 0 19.875
-0.67474094222355274
1 0 0 1.25 0 0 1 1 0 -0 -0 1 0 
1 0 0 1.25 0 0 1 1 0 -0 -0 1 0 
3 0 0 0 0 0 1 1 0 -0 -0 1 0 18.875
0.67474094222355274
1 0 0 1.25 0 0 1 1 0 -0 -0 1 0 
1 0 0 0 0 0 1 1 0 -0 -0 1 0 
3 0 0 0 0 0 1 1 0 -0 -0 1 0 18.875
0.67474094222355274
1 0 0 0 0 0 1 1 0 -0 -0 1 0 
1 0 0 0 0 0 1 1 0 -0 -0 1 0 
1 0 0 1.25 0 0 1 1 0 -0 -0 1 0 
3 0 0 0 0 0 1 1 0 -0 -0 1 0 19.875
-0.67474094222355274
1 0 0 0 0 0 1 1 0 -0 -0 1 0 
1 0 0 1.25 0 0 1 1 0 -0 -0 1 0 
Triangulations 0

TShapes 124
Ve
1e-07
23 -5.63337527607782e-15 2
0 0

0101101
*
Ed
 1e-07 1 1 0
1  1 0 0 6.28318530717959
2  1 1 0 0 6.28318530717959
2  2 2 0 0 6.28318530717959
0

0101000
+124 0 -124 0 *
Ve
1e-07
23 -5.63337527607782e-15 0
0 0

0101101
*
Ed
 1e-07 1 1 0
1  2 0 0 2
3  3 4CN 1 0 0 2
0

0101000
-124 0 +122 0 *
Ed
 1e-07 1 1 0
1  3 0 0 6.28318530717959
2  5 1 0 0 6.28318530717959
2  6 3 0 0 6.28318530717959
0

0101000
+122 0 -122 0 *
Wi

0101100
-123 0 +121 0 +120 0 -121 0 *
Fa
0  1e-07 1 0

0111000
+119 0 *
Wi

0101100
+123 3 *
Ve
1e-07
18.875 -4.62304166678126e-15 0
0 0

0101101
*
Ed
 1e-07 1 1 0
1  4 0 0 6.28318530717959
2  7 4 0 0 6.28318530717959
2  8 5 0 0 6.28318530717959
2  9 2 7 0 6.28318530717959
0

0101000
+116 0 -116 0 *
Wi

0101100
-115 6 *
Fa
0  1e-07 2 3

0101000
+117 0 +114 0 *
Wi

0101100
+120 3 *
Ve
1e-07
2.25 3.25 0
0 0

0101101
*
Ve
1e-07
-2.25 3.25 0
0 0

0101101
*
Ed
 1e-07 1 1 0
1  5 0 0 4.5
2  10 6 0 0 4.5
2  11 7 8 0 4.5
2  12 3 3 0 4.5
0

0101000
+111 8 -110 8 *
Ve
1e-07
-2.25 -3.25 0
0 0

0101101
*
Ed
 1e-07 1 1 0
2  13 7 0 1.5707963267949 4.71238898038469
1  6 0 1.5707963267949 4.71238898038469
2  14 8 9 1.5707963267949 4.71238898038469
2  15 8 11 1.5707963267949 4.71238898038469
2  16 3 12 1.5707963267949 4.71238898038469
0

0101000
+108 0 -110 0 *
Ve
1e-07
2.25 -3.25 0
0 0

0101101
*
Ed
 1e-07 1 1 0
1  7 0 0 4.5
2  17 9 0 0 4.5
2  18 7 8 0 4.5
2  19 3 3 0 4.5
0

0101000
+108 8 -106 8 *
Ed
 1e-07 1 1 0
2  20 7 0 1.5707963267949 4.71238898038469
1  8 0 1.5707963267949 4.71238898038469
2  21 10 9 1.5707963267949 4.71238898038469
2  22 10 11 1.5707963267949 4.71238898038469
2  23 3 12 1.5707963267949 4.71238898038469
0

0101000
+111 0 -106 0 *
Wi

0101100
-109 0 +107 8 -105 0 +104 8 *
Fa
0  1e-07 3 3

0101000
+112 0 +103 0 *
Ve
1.00000014321447e-07
18.875 -4.62304166678126e-15 0
0 0

0101101
*
Ed
 1.00000014321447e-07 1 1 0
1  9 0 0 6.28318530717959
2  24 11 0 0 6.28318530717959
2  25 12 0 0 6.28318530717959
2  26 4 16 0 6.28318530717959
0

0101000
+101 0 -101 0 *
Ed
 1e-07 1 1 0
1  10 0 0 1.75
3  27 28CN 4 0 0 1.75
0

0101000
+116 0 -101 17 *
Wi

0101100
-100 15 +99 6 +115 6 -99 6 *
Fa
0  1e-07 4 6

0101000
+98 0 *
Ve
1e-07
-2.25 3.25 0
0 0

0101101
*
Ed
 1e-07 1 1 0
1  11 0 0 2
2  29 8 0 0 2
4 G1 8 0 13 0
2  30 6 0 0 2
0

0101000
+110 8 -96 18 *
Ve
1e-07
2.25 3.25 0
0 0

0101101
*
Ed
 1e-07 1 1 0
1  12 0 0 4.5
2  31 7 18 0 4.5
2  32 6 0 0 4.5
2  33 14 21 0 4.5
0

0101000
+96 18 -94 18 *
Ed
 1e-07 1 1 0
1  13 0 0 2
2  34 10 0 0 2
4 G1 10 0 15 0
2  35 6 0 0 2
0

0101000
+111 8 -94 18 *
Wi

0101100
+95 0 +93 0 -92 0 +109 0 *
Fa
0  0 6 0

0111000
+91 0 *
Ve
1e-07
-2.25 -3.25 0
0 0

0101101
*
Ed
 1e-07 1 1 0
1  14 0 0 2
2  36 8 0 0 2
4 G1 16 0 8 0
2  37 9 0 0 2
0

0101000
+108 8 -89 18 *
Ed
 1e-07 1 1 0
2  13 7 0 1.5707963267949 4.71238898038469
1  6 0 1.5707963267949 4.71238898038469
2  14 8 9 1.5707963267949 4.71238898038469
2  15 8 11 1.5707963267949 4.71238898038469
2  38 14 22 1.5707963267949 4.71238898038469
0

0101000
+89 0 -96 0 *
Wi

0101100
+88 0 -95 0 -107 8 +87 18 *
Fa
0  1e-07 8 0

0101000
+86 0 *
Ve
1e-07
2.25 -3.25 0
0 0

0101101
*
Ed
 1e-07 1 1 0
1  15 0 0 2
2  39 10 0 0 2
4 G1 10 0 17 0
2  40 9 0 0 2
0

0101000
+106 8 -84 18 *
Ed
 1e-07 1 1 0
1  16 0 0 4.5
2  41 7 18 0 4.5
2  42 9 0 0 4.5
2  43 14 21 0 4.5
0

0101000
+84 18 -89 18 *
Wi

0101100
-83 0 -105 0 +88 0 -82 0 *
Fa
0  0 9 0

0111000
+81 0 *
Ed
 1e-07 1 1 0
2  20 7 0 1.5707963267949 4.71238898038469
1  8 0 1.5707963267949 4.71238898038469
2  21 10 9 1.5707963267949 4.71238898038469
2  22 10 11 1.5707963267949 4.71238898038469
2  44 14 22 1.5707963267949 4.71238898038469
0

0101000
+94 0 -84 0 *
Wi

0101100
+92 0 -83 0 -104 8 +79 18 *
Fa
0  1e-07 10 0

0101000
+78 0 *
Ve
1.00000014321447e-07
19.875 -4.86797102661073e-15 5
0 0

0101101
*
Ed
 1.00000014321447e-07 1 1 0
1  17 0 0 6.28318530717959
2  45 11 0 0 6.28318530717959
2  46 18 0 0 6.28318530717959
2  47 19 25 0 6.28318530717959
2  48 20 25 0 6.28318530717959
0

0101000
+76 26 -76 26 *
Ed
 1e-07 1 1 0
1  18 0 0 1.60078105935821
3  49 50CN 11 0 0 1.60078105935821
0

0101000
+101 0 -76 26 *
Wi

0101100
-75 15 +74 15 +100 15 -74 15 *
Fa
0  1e-07 11 15

0101000
+73 0 *
Ve
1e-07
16.875 -4.13318294712232e-15 0
0 0

0101101
*
Ed
 1e-07 1 1 0
1  19 0 0 6.28318530717959
2  51 21 0 0 6.28318530717959
2  52 14 0 0 6.28318530717959
0

0101000
+71 0 -71 0 *
Wi

0101100
+70 21 *
Wi

0101100
+93 0 +87 18 +82 0 +79 18 *
Fa
0  1e-07 14 21

0101000
+69 0 +68 0 *
Ve
1.00000014321447e-07
18.875 -4.62304166678126e-15 1.25
0 0

0101101
*
Ed
 1.00000014321447e-07 1 1 0
1  20 0 0 6.28318530717959
2  53 19 0 0 6.28318530717959
2  54 22 0 0 6.28318530717959
2  55 4 28 0 6.28318530717959
0

0101000
+66 0 -66 0 *
Ed
 1e-07 1 1 0
1  21 0 0 1.60078105935821
3  56 57CN 19 0 0 1.60078105935821
0

0101000
+76 29 -66 0 *
Wi

0101100
-65 27 +64 27 +75 15 -64 27 *
Fa
0  1e-07 19 27

0101000
+63 0 *
Ve
1e-07
16.875 -4.13318294712232e-15 15
0 0

0101101
*
Ed
 1e-07 1 1 0
1  22 0 0 6.28318530717959
2  58 21 0 0 6.28318530717959
2  59 23 0 0 6.28318530717959
2  60 24 30 0 6.28318530717959
0

0101000
+61 0 -61 0 *
Ed
 1e-07 1 1 0
1  23 0 0 15
3  61 62CN 21 0 0 15
0

0101000
-61 0 +71 0 *
Wi

0101100
-60 0 +59 0 +70 0 -59 0 *
Fa
0  1e-07 21 0

0111000
+58 0 *
Ve
1.00000014321447e-07
18.875 -4.62304166678126e-15 0
0 0

0101101
*
Ed
 1e-07 1 1 0
1  10 0 4.25 4.75
3  27 28CN 4 0 4.25 4.75
0

0101000
+66 31 -56 34 *
Ed
 1.00000014321447e-07 1 1 0
1  24 0 0 6.28318530717959
2  63 25 0 0 6.28318530717959
2  64 26 0 0 6.28318530717959
2  65 4 36 0 6.28318530717959
0

0101000
+56 0 -56 0 *
Wi

0101100
-55 6 -54 35 +55 6 +65 27 *
Fa
0  1e-07 4 6

0101000
+53 0 *
Ve
1e-07
18.875 -4.62304166678126e-15 15
0 0

0101101
*
Ed
 1e-07 1 1 0
1  25 0 0 6.28318530717959
2  66 4 0 0 6.28318530717959
2  67 24 0 0 6.28318530717959
0

0101000
+51 0 -51 0 *
Wi

0101100
+50 6 *
Wi

0101100
-60 21 *
Fa
0  1e-07 24 6

0101000
+49 0 +48 0 *
Ve
1.00000014321447e-07
19.875 -4.86797102661073e-15 8
0 0

0101101
*
Ed
 1.00000014321447e-07 1 1 0
1  26 0 0 6.28318530717959
2  68 25 0 0 6.28318530717959
2  69 27 0 0 6.28318530717959
2  70 28 39 0 6.28318530717959
2  71 29 39 0 6.28318530717959
0

0101000
+46 40 -46 40 *
Ed
 1e-07 1 1 0
1  27 0 0 1.60078105935821
3  72 73CN 25 0 0 1.60078105935821
0

0101000
+56 0 -46 40 *
Wi

0101100
-45 35 +44 35 +54 35 -44 35 *
Fa
0  1e-07 25 35

0101000
+43 0 *
Ve
1.00000014321447e-07
18.875 -4.62304166678126e-15 1.25
0 0

0101101
*
Ed
 1.00000014321447e-07 1 1 0
1  28 0 0 6.28318530717959
2  74 30 0 0 6.28318530717959
2  75 31 0 0 6.28318530717959
2  76 4 44 0 6.28318530717959
0

0101000
+41 0 -41 0 *
Ed
 1e-07 1 1 0
1  10 0 13.25 15
3  27 28CN 4 0 13.25 15
0

0101000
+41 45 -51 0 *
Wi

0101100
+40 43 -39 6 -50 6 +39 6 *
Fa
0  1e-07 4 6

0101000
+38 0 *
Ve
1.00000014321447e-07
18.875 -4.62304166678126e-15 1.25
0 0

0101101
*
Ed
 1.00000014321447e-07 1 1 0
1  29 0 0 6.28318530717959
2  77 28 0 0 6.28318530717959
2  78 32 0 0 6.28318530717959
2  79 4 47 0 6.28318530717959
0

0101000
+36 0 -36 0 *
Ed
 1e-07 1 1 0
1  30 0 0 1.60078105935821
3  80 81CN 28 0 0 1.60078105935821
0

0101000
+46 48 -36 0 *
Wi

0101100
-35 46 +34 46 +45 35 -34 46 *
Fa
0  1e-07 28 46

0101000
+33 0 *
Ve
1.00000014321447e-07
19.875 -4.86797102661073e-15 14
0 0

0101101
*
Ed
 1e-07 1 1 0
1  31 0 0 1.60078105935821
3  82 83CN 30 0 0 1.60078105935821
0

0101000
+31 49 -41 0 *
Ed
 1.00000014321447e-07 1 1 0
1  32 0 0 6.28318530717959
2  84 33 0 0 6.28318530717959
2  85 34 0 0 6.28318530717959
2  86 30 53 0 6.28318530717959
2  87 35 53 0 6.28318530717959
0

0101000
+31 54 -31 54 *
Wi

0101100
-40 43 +30 43 +29 52 -30 43 *
Fa
0  1e-07 30 43

0101000
+28 0 *
Ve
1.00000014321447e-07
18.875 -4.62304166678126e-15 0
0 0

0101101
*
Ed
 1e-07 1 1 0
1  10 0 7.25 7.75
3  27 28CN 4 0 7.25 7.75
0

0101000
+36 55 -26 58 *
Ed
 1.00000014321447e-07 1 1 0
1  33 0 0 6.28318530717959
2  88 36 0 0 6.28318530717959
2  89 37 0 0 6.28318530717959
2  90 4 60 0 6.28318530717959
0

0101000
+26 0 -26 0 *
Wi

0101100
-25 6 -24 59 +25 6 +35 46 *
Fa
0  1e-07 4 6

0101000
+23 0 *
Ve
1.00000014321447e-07
18.875 -4.62304166678126e-15 0
0 0

0101101
*
Ed
 1e-07 1 1 0
1  34 0 0 1.60078105935821
3  91 92CN 33 0 0 1.60078105935821
0

0101000
+21 0 -31 54 *
Ed
 1.00000014321447e-07 1 1 0
1  35 0 0 6.28318530717959
2  93 33 0 0 6.28318530717959
2  94 38 0 0 6.28318530717959
2  95 4 61 0 6.28318530717959
0

0101000
+21 0 -21 0 *
Wi

0101100
-29 52 +20 52 +19 52 -20 52 *
Fa
0  1e-07 33 52

0101000
+18 0 *
Ve
1.00000014321447e-07
19.875 -4.86797102661073e-15 11
0 0

0101101
*
Ed
 1.00000014321447e-07 1 1 0
1  36 0 0 6.28318530717959
2  96 36 0 0 6.28318530717959
2  97 39 0 0 6.28318530717959
2  98 40 64 0 6.28318530717959
2  99 41 64 0 6.28318530717959
0

0101000
+16 65 -16 65 *
Ed
 1e-07 1 1 0
1  37 0 0 1.60078105935821
3  100 101CN 36 0 0 1.60078105935821
0

0101000
+26 0 -16 65 *
Wi

0101100
-15 59 +14 59 +24 59 -14 59 *
Fa
0  1e-07 36 59

0101000
+13 0 *
Ve
1.00000014321447e-07
18.875 -4.62304166678126e-15 1.25
0 0

0101101
*
Ed
 1e-07 1 1 0
1  10 0 10.25 10.75
3  27 28CN 4 0 10.25 10.75
0

0101000
+11 66 -21 67 *
Ed
 1.00000014321447e-07 1 1 0
1  38 0 0 6.28318530717959
2  102 40 0 0 6.28318530717959
2  103 42 0 0 6.28318530717959
2  104 4 69 0 6.28318530717959
0

0101000
+11 0 -11 0 *
Wi

0101100
-10 6 -19 52 +10 6 +9 68 *
Fa
0  1e-07 4 6

0101000
+8 0 *
Ed
 1e-07 1 1 0
1  39 0 0 1.60078105935821
3  105 106CN 40 0 0 1.60078105935821
0

0101000
+16 70 -11 0 *
Wi

0101100
-9 68 +6 68 +15 59 -6 68 *
Fa
0  1e-07 40 68

0101000
+5 0 *
Sh

0101100
+118 3 +113 0 -102 0 +97 0 -90 0 -85 0 +80 0 -77 0 +72 0 +67 0 
+62 0 -57 21 +52 0 +47 0 +42 0 +37 0 +32 0 +27 0 +22 0 +17 0 
+12 0 +7 0 +4 0 *
So

0100000
+3 0 *
Co

1100000
+2 0 *

+1 0 