DBRep_DrawableShape

CASCADE Topology V3, (c) Open Cascade
Locations 18
1
              1               0               0              -0 
              0               1               0              -0 
              0               0               1              -1 
1
              1               0               0               0 
              0               1               0               0 
              0               0               1               1 
2  1 1 2 1 0
1
              1               0               0              -0 
              0               1               0              -0 
              0               0               1              -6 
1
              1               0               0               0 
              0               1               0               0 
              0               0               1               8 
2  4 1 5 1 0
2  1 1 2 1 5 -1 4 -1 0
1
              1               0               0              -0 
              0               1               0              -0 
              0               0               1               0 
2  8 -1 0
1
              1               0               0               0 
              0               1               0               0 
              0               0               1               2 
2  10 -1 8 -1 0
2  1 1 2 1 8 -1 0
2  8 1 10 1 0
2  1 1 2 1 10 -1 8 -1 0
1
              1               0               0              -0 
              0               1               0              -0 
              0               0               1              -6 
2  4 1 15 -1 0
2  15 1 5 1 0
2  1 1 2 1 5 -1 15 -1 0
Curve2ds 52
1 0 2 1 0 
2 0 0 1 0 -0 1 23
1 6.2831853071795862 -0 0 1 
1 0 -0 0 1 
1 0 0 1 0 
2 0 0 1 0 -0 1 23
1 0 0 1 0 
2 0 0 1 0 -0 1 18.5
2 0 0 1 0 -0 1 18.5
1 5 0 -1 0 
1 2.5 3 -1 0 
1 2.5 3 -1 0 
2 -2.5 0 1 0 0 -1 3
1 0 0 1 0 
1 0 -2 1 0 
2 -2.5 0 1 0 0 -1 3
1 -2.5 0 1 0 
1 -2.5 -3 1 0 
1 -2.5 -3 1 0 
2 2.5 0 -1 -0 -0 1 3
1 0 0 1 0 
1 0 -2 1 0 
2 2.5 0 -1 0 0 1 3
1 0 12 1 0 
2 0 0 1 0 -0 1 18.5
1 6.2831853071795862 -0 0 1 
1 0 -0 0 1 
1 4.7123889803846897 0 0 -1 
1 -4.4408920985006262e-16 0 0 -1 
1 -2.5000000000000004 3 1 0 
1 -4.4408920985006262e-16 -2 1 0 
1 -2.5000000000000004 3 1 0 
1 1.5707963267948966 0 0 -1 
1 5 0 0 -1 
1 1.5707963267948966 0 0 -1 
1 -2.5 0 0 -1 
2 -2.5 0 1 0 0 -1 3
1 4.7123889803846897 0 0 -1 
1 2.5000000000000004 0 0 -1 
1 2.5000000000000004 -3 -1 0 
1 2.5000000000000004 -2 -1 0 
1 2.5000000000000004 -3 -1 0 
2 2.5 0 -1 0 0 1 3
1 0 12 1 0 
2 0 0 1 0 -0 1 16.5
2 0 0 1 0 -0 1 16.5
1 0 0 1 0 
2 0 0 1 0 -0 1 16.5
2 0 0 1 0 -0 1 16.5
2 0 0 1 0 -0 1 16.5
1 6.2831853071795862 -0 0 1 
1 0 -0 0 1 
Curves 19
2 0 0 2 0 0 1 1 0 -0 -0 1 0 23
1 23 -5.6333752760778247e-15 0 0 0 1 
2 0 0 0 0 0 1 1 0 -0 -0 1 0 23
2 0 0 0 0 0 1 1 0 -0 -0 1 0 18.5
8 0 5
1 2.5 3 0 -1 0 0 
2 -2.5 0 0 0 0 -1 1 0 0 0 -1 0 3
8 0 5
1 -2.5 -3 0 1 0 0 
2 2.5 0 0 -0 0 -1 -1 -0 0 0 1 0 3
2 0 0 12 0 0 1 1 0 -0 -0 1 0 18.5
1 18.5 -4.5311931568452068e-15 0 0 0 1 
1 -2.5000000000000004 3 0 0 0 1 
8 0 5
1 -2.5000000000000004 3 2 1 0 0 
1 2.5 3 0 0 0 1 
1 -2.5 -3 0 0 0 1 
1 2.5000000000000004 -3 0 0 0 1 
8 0 5
1 2.5000000000000004 -3 2 -1 0 0 
2 0 0 12 0 0 1 1 0 -0 -0 1 0 16.5
2 0 0 0 0 0 1 1 0 -0 -0 1 0 16.5
1 16.5 -4.0413344371862654e-15 0 0 0 1 
Polygon3D 0
PolygonOnTriangulations 0
Surfaces 18
2 0 0 0 0 0 1 1 0 -0 -0 1 0 23
1 0 0 2 0 0 1 1 0 -0 -0 1 0 
1 0 0 0 0 0 1 1 0 -0 -0 1 0 
2 0 0 0 0 0 1 1 0 -0 -0 1 0 18.5
1 0 0 0 0 0 1 1 0 -0 -0 1 0 
1 -2.5 3 0 0 1 0 1 0 0 0 0 -1 
1 0 0 0 0 0 1 1 0 -0 -0 1 0 
2 -2.5 0 0 0 0 -1 1 0 0 0 -1 0 3
1 0 -3 0 0 1 0 1 0 0 0 0 -1 
2 2.5 0 0 -0 0 -1 -1 -0 0 0 1 0 3
1 0 0 12 0 0 1 1 0 -0 -0 1 0 
1 -2.5 3 0 0 1 0 1 0 0 0 0 -1 
1 0 3 0 0 1 0 1 0 0 0 0 -1 
1 -2.5 -3 0 0 1 0 1 0 0 0 0 -1 
1 0 -3 0 0 1 0 1 0 0 0 0 -1 
2 0 0 0 0 0 1 1 0 -0 -0 1 0 16.5
1 0 0 12 0 0 1 1 0 -0 -0 1 0 
1 0 0 0 0 0 1 1 0 -0 -0 1 0 
Triangulations 0

TShapes 64
Ve
1e-07
23 -5.63337527607782e-15 2
0 0

0101101
*
Ed
 1e-07 1 1 0
1  1 0 0 6.28318530717959
2  1 1 0 0 6.28318530717959
2  2 2 0 0 6.28318530717959
0

0101000
+64 0 -64 0 *
Ve
1e-07
23 -5.63337527607782e-15 0
0 0

0101101
*
Ed
 1e-07 1 1 0
1  2 0 0 2
3  3 4CN 1 0 0 2
0

0101000
-64 0 +62 0 *
Ed
 1e-07 1 1 0
1  3 0 0 6.28318530717959
2  5 1 0 0 6.28318530717959
2  6 3 0 0 6.28318530717959
0

0101000
+62 0 -62 0 *
Wi

0101100
-63 0 +61 0 +60 0 -61 0 *
Fa
0  1e-07 1 0

0111000
+59 0 *
Wi

0101100
+63 3 *
Ve
1e-07
18.5 -4.53119315684521e-15 0
0 0

0101101
*
Ed
 1e-07 1 1 0
1  4 0 0 6.28318530717959
2  7 4 0 0 6.28318530717959
2  8 5 0 0 6.28318530717959
2  9 2 7 0 6.28318530717959
0

0101000
+56 0 -56 0 *
Wi

0101100
-55 6 *
Fa
0  1e-07 2 3

0101000
+57 0 +54 0 *
Wi

0101100
+60 3 *
Ve
1e-07
2.5 3 0
0 0

0101101
*
Ve
1e-07
-2.5 3 0
0 0

0101101
*
Ed
 1e-07 1 1 0
1  5 0 0 5
2  10 6 0 0 5
2  11 7 8 0 5
2  12 3 3 0 5
0

0101000
+51 8 -50 8 *
Ve
1e-07
-2.5 -3 0
0 0

0101101
*
Ed
 1e-07 1 1 0
2  13 7 0 1.5707963267949 4.71238898038469
1  6 0 1.5707963267949 4.71238898038469
2  14 8 9 1.5707963267949 4.71238898038469
2  15 8 11 1.5707963267949 4.71238898038469
2  16 3 12 1.5707963267949 4.71238898038469
0

0101000
+48 0 -50 0 *
Ve
1e-07
2.5 -3 0
0 0

0101101
*
Ed
 1e-07 1 1 0
1  7 0 0 5
2  17 9 0 0 5
2  18 7 8 0 5
2  19 3 3 0 5
0

0101000
+48 8 -46 8 *
Ed
 1e-07 1 1 0
2  20 7 0 1.5707963267949 4.71238898038469
1  8 0 1.5707963267949 4.71238898038469
2  21 10 9 1.5707963267949 4.71238898038469
2  22 10 11 1.5707963267949 4.71238898038469
2  23 3 12 1.5707963267949 4.71238898038469
0

0101000
+51 0 -46 0 *
Wi

0101100
-49 0 +47 8 -45 0 +44 8 *
Fa
0  1e-07 3 3

0101000
+52 0 +43 0 *
Ve
1e-07
18.5 -4.53119315684521e-15 12
0 0

0101101
*
Ed
 1e-07 1 1 0
1  9 0 0 6.28318530717959
2  24 4 0 0 6.28318530717959
2  25 11 0 0 6.28318530717959
0

0101000
+41 0 -41 0 *
Ed
 1e-07 1 1 0
1  10 0 0 12
3  26 27CN 4 0 0 12
0

0101000
-41 0 +56 0 *
Wi

0101100
-40 0 +39 0 +55 0 -39 0 *
Fa
0  1e-07 4 0

0111000
+38 0 *
Ve
1e-07
-2.5 3 0
0 0

0101101
*
Ed
 1e-07 1 1 0
1  11 0 0 2
2  28 8 0 0 2
4 G1 8 0 12 0
2  29 6 0 0 2
0

0101000
+50 8 -36 13 *
Ve
1e-07
2.5 3 0
0 0

0101101
*
Ed
 1e-07 1 1 0
1  12 0 0 5
2  30 7 13 0 5
2  31 6 0 0 5
2  32 2 3 0 5
0

0101000
+36 13 -34 13 *
Ed
 1e-07 1 1 0
1  13 0 0 2
2  33 10 0 0 2
4 G1 10 0 13 0
2  34 6 0 0 2
0

0101000
+51 8 -34 13 *
Wi

0101100
+35 0 +33 0 -32 0 +49 0 *
Fa
0  0 6 0

0111000
+31 0 *
Ve
1e-07
-2.5 -3 0
0 0

0101101
*
Ed
 1e-07 1 1 0
1  14 0 0 2
2  35 8 0 0 2
4 G1 14 0 8 0
2  36 9 0 0 2
0

0101000
+48 8 -29 13 *
Ed
 1e-07 1 1 0
2  13 7 0 1.5707963267949 4.71238898038469
1  6 0 1.5707963267949 4.71238898038469
2  14 8 9 1.5707963267949 4.71238898038469
2  15 8 11 1.5707963267949 4.71238898038469
2  37 2 14 1.5707963267949 4.71238898038469
0

0101000
+29 0 -36 0 *
Wi

0101100
+28 0 -35 0 -47 8 +27 13 *
Fa
0  1e-07 8 0

0101000
+26 0 *
Ve
1e-07
2.5 -3 0
0 0

0101101
*
Ed
 1e-07 1 1 0
1  15 0 0 2
2  38 10 0 0 2
4 G1 10 0 15 0
2  39 9 0 0 2
0

0101000
+46 8 -24 13 *
Ed
 1e-07 1 1 0
1  16 0 0 5
2  40 7 13 0 5
2  41 9 0 0 5
2  42 2 3 0 5
0

0101000
+24 13 -29 13 *
Wi

0101100
-23 0 -45 0 +28 0 -22 0 *
Fa
0  0 9 0

0111000
+21 0 *
Ed
 1e-07 1 1 0
2  20 7 0 1.5707963267949 4.71238898038469
1  8 0 1.5707963267949 4.71238898038469
2  21 10 9 1.5707963267949 4.71238898038469
2  22 10 11 1.5707963267949 4.71238898038469
2  43 2 14 1.5707963267949 4.71238898038469
0

0101000
+34 0 -24 0 *
Wi

0101100
+32 0 -23 0 -44 8 +19 13 *
Fa
0  1e-07 10 0

0101000
+18 0 *
Wi

0101100
+40 4 *
Ve
1e-07
16.5 -4.04133443718627e-15 12
0 0

0101101
*
Ed
 1e-07 1 1 0
1  17 0 0 6.28318530717959
2  44 16 0 0 6.28318530717959
2  45 17 0 0 6.28318530717959
2  46 11 16 0 6.28318530717959
0

0101000
+15 0 -15 0 *
Wi

0101100
-14 15 *
Fa
0  1e-07 11 4

0101000
+16 0 +13 0 *
Ve
1e-07
16.5 -4.04133443718627e-15 0
0 0

0101101
*
Ed
 1e-07 1 1 0
1  18 0 0 6.28318530717959
2  47 16 0 0 6.28318530717959
2  48 18 0 0 6.28318530717959
2  49 5 16 0 6.28318530717959
2  50 2 18 0 6.28318530717959
0

0101000
+11 0 -11 0 *
Wi

0101100
+10 17 *
Wi

0101100
+33 0 +27 13 +22 0 +19 13 *
Fa
0  1e-07 2 3

0101000
+9 0 +8 0 *
Ed
 1e-07 1 1 0
1  19 0 0 12
3  51 52CN 16 0 0 12
0

0101000
-15 0 +11 0 *
Wi

0101100
-14 0 +6 0 +10 0 -6 0 *
Fa
0  1e-07 16 0

0111000
+5 0 *
Sh

0101100
+58 3 +53 0 -42 0 +37 6 -30 0 -25 0 +20 0 -17 0 +12 5 +7 0 
-4 17 *
So

0100000
+3 0 *
Co

1100000
+2 0 *

+1 0 