DBRep_DrawableShape

CASCADE Topology V3, (c) Open Cascade
Locations 57
1
              1               0               0              -0 
              0               1               0              -0 
              0               0               1              -1 
1
              1               0               0               0 
              0               1               0               0 
              0               0               1               1 
2  1 1 2 1 0
1
              1               0               0              -0 
              0               1               0              -0 
              0               0               1            -7.5 
1
              1               0               0               0 
              0               1               0               0 
              0               0               1             9.5 
2  4 1 5 1 0
2  1 1 2 1 5 -1 4 -1 0
1
              1               0               0              -0 
              0               1               0              -0 
              0               0               1               0 
2  8 -1 0
1
              1               0               0               0 
              0               1               0               0 
              0               0               1               2 
2  10 -1 8 -1 0
2  1 1 2 1 8 -1 0
1
              1               0               0              -0 
              0               1               0              -0 
              0               0               1          -0.625 
1
              1               0               0               0 
              0               1               0               0 
              0               0               1           5.125 
2  13 1 14 1 0
2  4 1 5 1 14 -1 13 -1 0
2  13 1 14 1 5 -1 4 -1 0
2  8 1 10 1 0
1
              1               0               0              -0 
              0               1               0              -0 
              0               0               1            -7.5 
1
              1               0               0               0 
              0               1               0               0 
              0               0               1             9.5 
2  19 1 20 1 0
2  19 1 20 1 10 -1 8 -1 0
1
              1               0               0              -0 
              0               1               0              -0 
              0               0               1          -0.625 
1
              1               0               0               0 
              0               1               0               0 
              0               0               1           6.375 
2  23 1 24 1 14 -1 13 -1 0
2  14 -1 13 -1 0
2  23 1 24 1 0
2  4 1 5 1 24 -1 23 -1 0
2  24 -1 23 -1 0
2  4 1 5 1 20 -1 19 -1 0
2  23 1 24 1 5 -1 4 -1 0
1
              1               0               0              -0 
              0               1               0              -0 
              0               0               1          -0.625 
1
              1               0               0               0 
              0               1               0               0 
              0               0               1           8.875 
2  32 1 33 1 5 -1 4 -1 0
2  32 1 33 1 0
2  4 1 5 1 33 -1 32 -1 0
1
              1               0               0              -0 
              0               1               0              -0 
              0               0               1          -0.625 
1
              1               0               0               0 
              0               1               0               0 
              0               0               1          10.125 
2  37 1 38 1 33 -1 32 -1 0
2  33 -1 32 -1 0
1
              1               0               0              -0 
              0               1               0              -0 
              0               0               1          -0.625 
1
              1               0               0               0 
              0               1               0               0 
              0               0               1          13.875 
2  41 1 42 1 0
2  4 1 5 1 42 -1 41 -1 0
2  41 1 42 1 5 -1 4 -1 0
2  37 1 38 1 0
2  4 1 5 1 38 -1 37 -1 0
2  38 -1 37 -1 0
2  42 -1 41 -1 0
1
              1               0               0              -0 
              0               1               0              -0 
              0               0               1          -0.625 
1
              1               0               0               0 
              0               1               0               0 
              0               0               1          12.625 
2  50 1 51 1 0
2  41 1 42 1 51 -1 50 -1 0
2  51 -1 50 -1 0
2  37 1 38 1 5 -1 4 -1 0
2  50 1 51 1 5 -1 4 -1 0
2  4 1 5 1 51 -1 50 -1 0
Curve2ds 92
1 0 2 1 0 
2 0 0 1 0 -0 1 23
1 6.2831853071795862 -0 0 1 
1 0 -0 0 1 
1 0 0 1 0 
2 0 0 1 0 -0 1 23
1 0 0 1 0 
2 0 0 1 0 -0 1 18.875
2 0 0 1 0 -0 1 18.875
1 4.5 0 -1 0 
1 2.25 3.25 -1 0 
1 2.25 3.25 -1 0 
2 -2.25 0 1 0 0 -1 3.25
1 0 0 1 0 
1 0 -2 1 0 
2 -2.25 0 1 0 0 -1 3.25
1 -2.25 0 1 0 
1 -2.25 -3.25 1 0 
1 -2.25 -3.25 1 0 
2 2.25 0 -1 -0 -0 1 3.25
1 0 0 1 0 
1 0 -2 1 0 
2 2.25 0 -1 0 0 1 3.25
1 0 0 1 0 
2 0 0 1 0 -0 1 18.875
1 0 2.5 1 0 
1 6.2831853071795862 -0 0 1 
1 0 -0 0 1 
1 4.7123889803846897 0 0 -1 
1 -4.4408920985006262e-16 0 0 -1 
1 -2.2500000000000004 3.25 1 0 
1 -4.4408920985006262e-16 -2 1 0 
1 -2.2500000000000004 3.25 1 0 
1 1.5707963267948966 0 0 -1 
1 4.5 0 0 -1 
1 1.5707963267948966 0 0 -1 
1 -2.25 0 0 -1 
2 -2.25 0 1 0 0 -1 3.25
1 4.7123889803846897 0 0 -1 
1 2.2500000000000004 0 0 -1 
1 2.2500000000000004 -3.25 -1 0 
1 2.2500000000000004 -2 -1 0 
1 2.2500000000000004 -3.25 -1 0 
2 2.25 0 -1 0 0 1 3.25
1 0 1.4577379737113252 1 0 
2 0 0 1 0 -0 1 19.625
8 0 6.2831853071795862
1 0 0 1 0 
2 0 0 1 0 -0 1 19.625
1 6.2831853071795862 -0 0 1 
1 0 -0 0 1 
1 0 0 1 0 
2 0 0 1 0 -0 1 16.875
1 0 1.4577379737113252 1 0 
2 0 0 1 0 -0 1 18.875
1 0 5 1 0 
1 6.2831853071795862 -0 0 1 
1 0 -0 0 1 
1 0 15 1 0 
2 0 0 1 0 -0 1 16.875
2 0 0 1 0 -0 1 16.875
1 6.2831853071795862 -0 0 1 
1 0 -0 0 1 
1 0 0 1 0 
2 0 0 1 0 -0 1 18.875
1 0 6.25 1 0 
1 0 15 1 0 
2 0 0 1 0 -0 1 18.875
1 0 1.4577379737113252 1 0 
2 0 0 1 0 -0 1 19.625
8 0 6.2831853071795862
1 0 0 1 0 
2 0 0 1 0 -0 1 19.625
1 6.2831853071795862 -0 0 1 
1 0 -0 0 1 
1 0 1.4577379737113252 1 0 
2 0 0 1 0 -0 1 18.875
1 0 12.5 1 0 
1 0 1.4577379737113252 1 0 
2 0 0 1 0 -0 1 18.875
1 0 8.75 1 0 
1 6.2831853071795862 -0 0 1 
1 0 -0 0 1 
1 6.2831853071795862 -0 0 1 
1 0 -0 0 1 
1 0 1.4577379737113252 1 0 
2 0 0 1 0 -0 1 19.625
8 0 6.2831853071795862
1 0 0 1 0 
2 0 0 1 0 -0 1 19.625
1 0 0 1 0 
2 0 0 1 0 -0 1 18.875
1 0 10 1 0 
1 6.2831853071795862 -0 0 1 
1 0 -0 0 1 
Curves 34
2 0 0 2 0 0 1 1 0 -0 -0 1 0 23
1 23 -5.6333752760778247e-15 0 0 0 1 
2 0 0 0 0 0 1 1 0 -0 -0 1 0 23
2 0 0 0 0 0 1 1 0 -0 -0 1 0 18.875
8 0 4.5
1 2.25 3.25 0 -1 0 0 
2 -2.25 0 0 0 0 -1 1 0 0 0 -1 0 3.25
8 0 4.5
1 -2.25 -3.25 0 1 0 0 
2 2.25 0 0 -0 0 -1 -1 -0 0 0 1 0 3.25
2 0 0 0 0 0 1 1 0 -0 -0 1 0 18.875
1 18.875 -4.6230416667812582e-15 0 0 0 1 
1 -2.2500000000000004 3.25 0 0 0 1 
8 0 4.5
1 -2.2500000000000004 3.25 2 1 0 0 
1 2.25 3.25 0 0 0 1 
1 -2.25 -3.25 0 0 0 1 
1 2.2500000000000004 -3.25 0 0 0 1 
8 0 4.5
1 2.2500000000000004 -3.25 2 -1 0 0 
2 0 0 1.25 0 0 1 1 0 -0 -0 1 0 19.625
1 18.875 -4.6230416667812582e-15 0 0.51449575542752657 -1.2601511601184397e-16 0.85749292571254421 
2 0 0 0 0 0 1 1 0 -0 -0 1 0 16.875
2 0 0 1.25 0 0 1 1 0 -0 -0 1 0 18.875
1 19.625 -4.8067386866533617e-15 0 -0.51449575542752657 1.2601511601184397e-16 0.85749292571254421 
2 0 0 15 0 0 1 1 0 -0 -0 1 0 16.875
1 16.875 -4.1331829471223168e-15 0 0 0 1 
2 0 0 0 0 0 1 1 0 -0 -0 1 0 18.875
2 0 0 15 0 0 1 1 0 -0 -0 1 0 18.875
2 0 0 1.25 0 0 1 1 0 -0 -0 1 0 19.625
1 18.875 -4.6230416667812582e-15 0 0.51449575542752657 -1.2601511601184397e-16 0.85749292571254421 
2 0 0 1.25 0 0 1 1 0 -0 -0 1 0 18.875
2 0 0 1.25 0 0 1 1 0 -0 -0 1 0 18.875
1 19.625 -4.8067386866533617e-15 0 -0.51449575542752657 1.2601511601184397e-16 0.85749292571254421 
1 19.625 -4.8067386866533617e-15 0 -0.51449575542752657 1.2601511601184397e-16 0.85749292571254421 
2 0 0 1.25 0 0 1 1 0 -0 -0 1 0 19.625
2 0 0 0 0 0 1 1 0 -0 -0 1 0 18.875
1 18.875 -4.6230416667812582e-15 0 0.51449575542752657 -1.2601511601184397e-16 0.85749292571254421 
Polygon3D 0
PolygonOnTriangulations 0
Surfaces 36
2 0 0 0 0 0 1 1 0 -0 -0 1 0 23
1 0 0 2 0 0 1 1 0 -0 -0 1 0 
1 0 0 0 0 0 1 1 0 -0 -0 1 0 
2 0 0 0 0 0 1 1 0 -0 -0 1 0 18.875
1 0 0 0 0 0 1 1 0 -0 -0 1 0 
1 -2.25 3.25 0 0 1 0 1 0 0 0 0 -1 
1 0 0 0 0 0 1 1 0 -0 -0 1 0 
2 -2.25 0 0 0 0 -1 1 0 0 0 -1 0 3.25
1 0 -3.25 0 0 1 0 1 0 0 0 0 -1 
2 2.25 0 0 -0 0 -1 -1 -0 0 0 1 0 3.25
3 0 0 0 0 0 1 1 0 -0 -0 1 0 18.875
0.54041950027058416
1 0 0 0 0 0 1 1 0 -0 -0 1 0 
1 -2.25 3.25 0 0 1 0 1 0 0 0 0 -1 
1 0 0 0 0 0 1 1 0 -0 -0 1 0 
1 0 3.25 0 0 1 0 1 0 0 0 0 -1 
1 -2.25 -3.25 0 0 1 0 1 0 0 0 0 -1 
1 0 -3.25 0 0 1 0 1 0 0 0 0 -1 
1 0 0 1.25 0 0 1 1 0 -0 -0 1 0 
3 0 0 0 0 0 1 1 0 -0 -0 1 0 19.625
-0.54041950027058416
1 0 0 0 0 0 1 1 0 -0 -0 1 0 
2 0 0 0 0 0 1 1 0 -0 -0 1 0 16.875
1 0 0 1.25 0 0 1 1 0 -0 -0 1 0 
1 0 0 15 0 0 1 1 0 -0 -0 1 0 
1 0 0 15 0 0 1 1 0 -0 -0 1 0 
3 0 0 0 0 0 1 1 0 -0 -0 1 0 18.875
0.54041950027058416
1 0 0 0 0 0 1 1 0 -0 -0 1 0 
1 0 0 1.25 0 0 1 1 0 -0 -0 1 0 
3 0 0 0 0 0 1 1 0 -0 -0 1 0 19.625
-0.54041950027058416
1 0 0 0 0 0 1 1 0 -0 -0 1 0 
3 0 0 0 0 0 1 1 0 -0 -0 1 0 19.625
-0.54041950027058416
1 0 0 1.25 0 0 1 1 0 -0 -0 1 0 
1 0 0 1.25 0 0 1 1 0 -0 -0 1 0 
3 0 0 0 0 0 1 1 0 -0 -0 1 0 18.875
0.54041950027058416
1 0 0 1.25 0 0 1 1 0 -0 -0 1 0 
1 0 0 0 0 0 1 1 0 -0 -0 1 0 
1 0 0 0 0 0 1 1 0 -0 -0 1 0 
Triangulations 0

TShapes 109
Ve
1e-07
23 -5.63337527607782e-15 2
0 0

0101101
*
Ed
 1e-07 1 1 0
1  1 0 0 6.28318530717959
2  1 1 0 0 6.28318530717959
2  2 2 0 0 6.28318530717959
0

0101000
+109 0 -109 0 *
Ve
1e-07
23 -5.63337527607782e-15 0
0 0

0101101
*
Ed
 1e-07 1 1 0
1  2 0 0 2
3  3 4CN 1 0 0 2
0

0101000
-109 0 +107 0 *
Ed
 1e-07 1 1 0
1  3 0 0 6.28318530717959
2  5 1 0 0 6.28318530717959
2  6 3 0 0 6.28318530717959
0

0101000
+107 0 -107 0 *
Wi

0101100
-108 0 +106 0 +105 0 -106 0 *
Fa
0  1e-07 1 0

0111000
+104 0 *
Wi

0101100
+108 3 *
Ve
1e-07
18.875 -4.62304166678126e-15 0
0 0

0101101
*
Ed
 1e-07 1 1 0
1  4 0 0 6.28318530717959
2  7 4 0 0 6.28318530717959
2  8 5 0 0 6.28318530717959
2  9 2 7 0 6.28318530717959
0

0101000
+101 0 -101 0 *
Wi

0101100
-100 6 *
Fa
0  1e-07 2 3

0101000
+102 0 +99 0 *
Wi

0101100
+105 3 *
Ve
1e-07
2.25 3.25 0
0 0

0101101
*
Ve
1e-07
-2.25 3.25 0
0 0

0101101
*
Ed
 1e-07 1 1 0
1  5 0 0 4.5
2  10 6 0 0 4.5
2  11 7 8 0 4.5
2  12 3 3 0 4.5
0

0101000
+96 8 -95 8 *
Ve
1e-07
-2.25 -3.25 0
0 0

0101101
*
Ed
 1e-07 1 1 0
2  13 7 0 1.5707963267949 4.71238898038469
1  6 0 1.5707963267949 4.71238898038469
2  14 8 9 1.5707963267949 4.71238898038469
2  15 8 11 1.5707963267949 4.71238898038469
2  16 3 12 1.5707963267949 4.71238898038469
0

0101000
+93 0 -95 0 *
Ve
1e-07
2.25 -3.25 0
0 0

0101101
*
Ed
 1e-07 1 1 0
1  7 0 0 4.5
2  17 9 0 0 4.5
2  18 7 8 0 4.5
2  19 3 3 0 4.5
0

0101000
+93 8 -91 8 *
Ed
 1e-07 1 1 0
2  20 7 0 1.5707963267949 4.71238898038469
1  8 0 1.5707963267949 4.71238898038469
2  21 10 9 1.5707963267949 4.71238898038469
2  22 10 11 1.5707963267949 4.71238898038469
2  23 3 12 1.5707963267949 4.71238898038469
0

0101000
+96 0 -91 0 *
Wi

0101100
-94 0 +92 8 -90 0 +89 8 *
Fa
0  1e-07 3 3

0101000
+97 0 +88 0 *
Ve
1.00000014321447e-07
18.875 -4.62304166678126e-15 0
0 0

0101101
*
Ed
 1.00000014321447e-07 1 1 0
1  9 0 0 6.28318530717959
2  24 11 0 0 6.28318530717959
2  25 12 0 0 6.28318530717959
2  26 4 16 0 6.28318530717959
0

0101000
+86 0 -86 0 *
Ed
 1e-07 1 1 0
1  10 0 0 2.5
3  27 28CN 4 0 0 2.5
0

0101000
+101 0 -86 17 *
Wi

0101100
-85 15 +84 6 +100 6 -84 6 *
Fa
0  1e-07 4 6

0101000
+83 0 *
Ve
1e-07
-2.25 3.25 0
0 0

0101101
*
Ed
 1e-07 1 1 0
1  11 0 0 2
2  29 8 0 0 2
4 G1 8 0 13 0
2  30 6 0 0 2
0

0101000
+95 8 -81 18 *
Ve
1e-07
2.25 3.25 0
0 0

0101101
*
Ed
 1e-07 1 1 0
1  12 0 0 4.5
2  31 7 18 0 4.5
2  32 6 0 0 4.5
2  33 14 21 0 4.5
0

0101000
+81 18 -79 18 *
Ed
 1e-07 1 1 0
1  13 0 0 2
2  34 10 0 0 2
4 G1 10 0 15 0
2  35 6 0 0 2
0

0101000
+96 8 -79 18 *
Wi

0101100
+80 0 +78 0 -77 0 +94 0 *
Fa
0  0 6 0

0111000
+76 0 *
Ve
1e-07
-2.25 -3.25 0
0 0

0101101
*
Ed
 1e-07 1 1 0
1  14 0 0 2
2  36 8 0 0 2
4 G1 16 0 8 0
2  37 9 0 0 2
0

0101000
+93 8 -74 18 *
Ed
 1e-07 1 1 0
2  13 7 0 1.5707963267949 4.71238898038469
1  6 0 1.5707963267949 4.71238898038469
2  14 8 9 1.5707963267949 4.71238898038469
2  15 8 11 1.5707963267949 4.71238898038469
2  38 14 22 1.5707963267949 4.71238898038469
0

0101000
+74 0 -81 0 *
Wi

0101100
+73 0 -80 0 -92 8 +72 18 *
Fa
0  1e-07 8 0

0101000
+71 0 *
Ve
1e-07
2.25 -3.25 0
0 0

0101101
*
Ed
 1e-07 1 1 0
1  15 0 0 2
2  39 10 0 0 2
4 G1 10 0 17 0
2  40 9 0 0 2
0

0101000
+91 8 -69 18 *
Ed
 1e-07 1 1 0
1  16 0 0 4.5
2  41 7 18 0 4.5
2  42 9 0 0 4.5
2  43 14 21 0 4.5
0

0101000
+69 18 -74 18 *
Wi

0101100
-68 0 -90 0 +73 0 -67 0 *
Fa
0  0 9 0

0111000
+66 0 *
Ed
 1e-07 1 1 0
2  20 7 0 1.5707963267949 4.71238898038469
1  8 0 1.5707963267949 4.71238898038469
2  21 10 9 1.5707963267949 4.71238898038469
2  22 10 11 1.5707963267949 4.71238898038469
2  44 14 22 1.5707963267949 4.71238898038469
0

0101000
+79 0 -69 0 *
Wi

0101100
+77 0 -68 0 -89 8 +64 18 *
Fa
0  1e-07 10 0

0101000
+63 0 *
Ve
1.00000014321447e-07
19.625 -4.80673868665336e-15 5.75
0 0

0101101
*
Ed
 1.00000014321447e-07 1 1 0
1  17 0 0 6.28318530717959
2  45 11 0 0 6.28318530717959
2  46 18 0 0 6.28318530717959
2  47 19 25 0 6.28318530717959
2  48 20 25 0 6.28318530717959
0

0101000
+61 26 -61 26 *
Ed
 1e-07 1 1 0
1  18 0 0 1.45773797371133
3  49 50CN 11 0 0 1.45773797371133
0

0101000
+86 0 -61 26 *
Wi

0101100
-60 15 +59 15 +85 15 -59 15 *
Fa
0  1e-07 11 15

0101000
+58 0 *
Ve
1e-07
16.875 -4.13318294712232e-15 0
0 0

0101101
*
Ed
 1e-07 1 1 0
1  19 0 0 6.28318530717959
2  51 21 0 0 6.28318530717959
2  52 14 0 0 6.28318530717959
0

0101000
+56 0 -56 0 *
Wi

0101100
+55 21 *
Wi

0101100
+78 0 +72 18 +67 0 +64 18 *
Fa
0  1e-07 14 21

0101000
+54 0 +53 0 *
Ve
1.00000014321447e-07
18.875 -4.62304166678126e-15 1.25
0 0

0101101
*
Ed
 1.00000014321447e-07 1 1 0
1  20 0 0 6.28318530717959
2  53 19 0 0 6.28318530717959
2  54 22 0 0 6.28318530717959
2  55 4 28 0 6.28318530717959
0

0101000
+51 0 -51 0 *
Ed
 1e-07 1 1 0
1  21 0 0 1.45773797371133
3  56 57CN 19 0 0 1.45773797371133
0

0101000
+61 29 -51 0 *
Wi

0101100
-50 27 +49 27 +60 15 -49 27 *
Fa
0  1e-07 19 27

0101000
+48 0 *
Ve
1e-07
16.875 -4.13318294712232e-15 15
0 0

0101101
*
Ed
 1e-07 1 1 0
1  22 0 0 6.28318530717959
2  58 21 0 0 6.28318530717959
2  59 23 0 0 6.28318530717959
2  60 24 30 0 6.28318530717959
0

0101000
+46 0 -46 0 *
Ed
 1e-07 1 1 0
1  23 0 0 15
3  61 62CN 21 0 0 15
0

0101000
-46 0 +56 0 *
Wi

0101100
-45 0 +44 0 +55 0 -44 0 *
Fa
0  1e-07 21 0

0111000
+43 0 *
Ve
1.00000014321447e-07
18.875 -4.62304166678126e-15 0
0 0

0101101
*
Ed
 1e-07 1 1 0
1  10 0 5 6.25
3  27 28CN 4 0 5 6.25
0

0101000
+51 31 -41 34 *
Ed
 1.00000014321447e-07 1 1 0
1  24 0 0 6.28318530717959
2  63 25 0 0 6.28318530717959
2  64 26 0 0 6.28318530717959
2  65 4 36 0 6.28318530717959
0

0101000
+41 0 -41 0 *
Wi

0101100
-40 6 -39 35 +40 6 +50 27 *
Fa
0  1e-07 4 6

0101000
+38 0 *
Ve
1e-07
18.875 -4.62304166678126e-15 15
0 0

0101101
*
Ed
 1e-07 1 1 0
1  25 0 0 6.28318530717959
2  66 4 0 0 6.28318530717959
2  67 24 0 0 6.28318530717959
0

0101000
+36 0 -36 0 *
Wi

0101100
+35 6 *
Wi

0101100
-45 21 *
Fa
0  1e-07 24 6

0101000
+34 0 +33 0 *
Ve
1.00000014321447e-07
19.625 -4.80673868665336e-15 9.5
0 0

0101101
*
Ed
 1.00000014321447e-07 1 1 0
1  26 0 0 6.28318530717959
2  68 25 0 0 6.28318530717959
2  69 27 0 0 6.28318530717959
2  70 28 39 0 6.28318530717959
2  71 29 39 0 6.28318530717959
0

0101000
+31 40 -31 40 *
Ed
 1e-07 1 1 0
1  27 0 0 1.45773797371133
3  72 73CN 25 0 0 1.45773797371133
0

0101000
+41 0 -31 40 *
Wi

0101100
-30 35 +29 35 +39 35 -29 35 *
Fa
0  1e-07 25 35

0101000
+28 0 *
Ve
1.00000014321447e-07
18.875 -4.62304166678126e-15 1.25
0 0

0101101
*
Ed
 1.00000014321447e-07 1 1 0
1  28 0 0 6.28318530717959
2  74 30 0 0 6.28318530717959
2  75 31 0 0 6.28318530717959
2  76 4 44 0 6.28318530717959
0

0101000
+26 0 -26 0 *
Ed
 1e-07 1 1 0
1  10 0 12.5 15
3  27 28CN 4 0 12.5 15
0

0101000
+26 45 -36 0 *
Wi

0101100
+25 43 -24 6 -35 6 +24 6 *
Fa
0  1e-07 4 6

0101000
+23 0 *
Ve
1.00000014321447e-07
18.875 -4.62304166678126e-15 1.25
0 0

0101101
*
Ed
 1.00000014321447e-07 1 1 0
1  29 0 0 6.28318530717959
2  77 28 0 0 6.28318530717959
2  78 32 0 0 6.28318530717959
2  79 4 47 0 6.28318530717959
0

0101000
+21 0 -21 0 *
Ed
 1e-07 1 1 0
1  30 0 0 1.45773797371133
3  80 81CN 28 0 0 1.45773797371133
0

0101000
+31 48 -21 0 *
Wi

0101100
-20 46 +19 46 +30 35 -19 46 *
Fa
0  1e-07 28 46

0101000
+18 0 *
Ve
1.00000014321447e-07
19.625 -4.80673868665336e-15 13.25
0 0

0101101
*
Ed
 1e-07 1 1 0
1  31 0 0 1.45773797371133
3  82 83CN 30 0 0 1.45773797371133
0

0101000
+16 49 -26 0 *
Ed
 1.00000014321447e-07 1 1 0
1  32 0 0 6.28318530717959
2  84 33 0 0 6.28318530717959
2  85 34 0 0 6.28318530717959
2  86 30 53 0 6.28318530717959
2  87 35 53 0 6.28318530717959
0

0101000
+16 54 -16 54 *
Wi

0101100
-25 43 +15 43 +14 52 -15 43 *
Fa
0  1e-07 30 43

0101000
+13 0 *
Ve
1.00000014321447e-07
18.875 -4.62304166678126e-15 0
0 0

0101101
*
Ed
 1e-07 1 1 0
1  10 0 8.75 10
3  27 28CN 4 0 8.75 10
0

0101000
+21 55 -11 56 *
Ed
 1.00000014321447e-07 1 1 0
1  33 0 0 6.28318530717959
2  88 33 0 0 6.28318530717959
2  89 36 0 0 6.28318530717959
2  90 4 57 0 6.28318530717959
0

0101000
+11 0 -11 0 *
Wi

0101100
-10 6 -9 52 +10 6 +20 46 *
Fa
0  1e-07 4 6

0101000
+8 0 *
Ed
 1e-07 1 1 0
1  34 0 0 1.45773797371133
3  91 92CN 33 0 0 1.45773797371133
0

0101000
+11 0 -16 54 *
Wi

0101100
-14 52 +6 52 +9 52 -6 52 *
Fa
0  1e-07 33 52

0101000
+5 0 *
Sh

0101100
+103 3 +98 0 -87 0 +82 0 -75 0 -70 0 +65 0 -62 0 +57 0 +52 0 
+47 0 -42 21 +37 0 +32 0 +27 0 +22 0 +17 0 +12 0 +7 0 +4 0 
*
So

0100000
+3 0 *
Co

1100000
+2 0 *

+1 0 