DBRep_DrawableShape

CASCADE Topology V3, (c) Open Cascade
Locations 15
1
              1               0               0              -0 
              0               1               0              -0 
              0               0               1              -1 
1
              1               0               0               0 
              0               1               0               0 
              0               0               1               1 
2  1 1 2 1 0
2  2 -1 1 -1 0
1
              1               0               0             -23 
              0               1               0              -2 
              0               0               1             -17 
1
              1               0               0              23 
              0               1               0               0 
              0               0               1             8.5 
2  5 1 6 1 0
1
              1               0               0              -0 
              0               1               0              -0 
              0               0               1            -7.5 
1
              1               0               0               0 
              0               1               0               0 
              0               0               1             9.5 
2  8 1 9 1 0
2  1 1 2 1 9 -1 8 -1 0
2  9 -1 8 -1 0
1
              1               0               0              -0 
              0               1               0              -0 
              0               0               1             -17 
1
              1               0               0               0 
              0               1               0               0 
              0               0               1             8.5 
2  13 1 14 1 0
Curve2ds 37
1 0 2 1 0 
2 0 0 1 0 -0 1 23
8 -5.9999999999999997e-07 2.0000005999999999
1 6.1961188248321903 0 0 1 
8 -5.9999999999999997e-07 2.0000005999999999
1 8.5 22.912878474779198 1 0 
1 0 0 1 0 
2 0 0 1 0 -0 1 23
8 -5.9999999999999997e-07 2.0000005999999999
1 0.087066482347395752 0 0 1 
8 -5.9999999999999997e-07 2.0000005999999999
1 8.5 22.912878474779198 1 0 
8 -23 0
1 0 2 -1 0 
8 -23 0
1 10.5 0 0 -1 
1 0 0 1 0 
2 0 0 1 0 -0 1 18.5
2 0 0 1 0 -0 1 18.5
8 -23 0
1 0 -2 -1 0 
8 -23 0
1 10.5 0 0 -1 
8 -5.999999999062311e-07 15.0000006
1 6.1748655006644686 0 0 1 
8 -5.999999999062311e-07 15.0000006
1 10.5 18.39157415774952 1 0 
8 -18.5 0
1 0 -2 -1 0 
8 -18.5 0
1 25.5 0 0 -1 
8 8.4999994000000001 25.5000006
1 5.3558900891779739 0 0 1 
8 8.4999994000000001 25.5000006
1 0 1.5 1 0 
8 -23 0
1 0 -2 -1 0 
8 -23 0
1 8.5 0 0 -1 
8 -23 0
1 0 2 -1 0 
8 -23 0
1 8.5 0 0 -1 
2 0 0 1 0 -0 1 2.5
1 0 8.5 1 0 
8 -5.999999999062311e-07 15.0000006
1 0.10831980651511758 0 0 1 
8 -5.999999999062311e-07 15.0000006
1 10.5 18.39157415774952 1 0 
8 -18.5 0
1 0 2 -1 0 
8 -18.5 0
1 25.5 0 0 -1 
8 8.4999994000000001 25.5000006
1 0.92729521800161219 0 0 1 
8 8.4999994000000001 25.5000006
1 0 1.5 1 0 
1 0 15 1 0 
2 0 0 1 0 -0 1 18.5
2 0 0 1 0 -0 1 2.5
1 0 25.5 1 0 
Curves 18
2 0 0 2 0 0 1 1 0 -0 -0 1 0 23
1 22.912878474779198 -2 0 0 0 1 
2 0 0 0 0 0 1 1 0 -0 -0 1 0 23
1 22.912878474779198 2 0 0 0 1 
1 0 2 2 -1 -0 0 
2 0 0 0 0 0 1 1 0 -0 -0 1 0 18.5
1 0 -2 2 -1 -0 0 
1 18.39157415774952 -2 2 0 0 1 
1 0 -2 17 -1 -0 0 
1 1.5 -2 -8.5 0 0 1 
1 0 -2 0 -1 -0 0 
1 0 2 0 -1 -0 0 
2 0 0 0 0 0 1 1 0 -0 -0 1 0 2.5
1 18.39157415774952 2 2 0 0 1 
1 0 2 17 -1 -0 0 
1 1.5 2 -8.5 0 0 1 
2 0 0 15 0 0 1 1 0 -0 -0 1 0 18.5
2 0 0 17 0 0 1 1 0 -0 -0 1 0 2.5
Polygon3D 0
PolygonOnTriangulations 0
Surfaces 9
2 0 0 0 0 0 1 1 0 -0 -0 1 0 23
1 0 0 2 0 0 1 1 0 -0 -0 1 0 
1 0 0 0 -0 1 0 0 0 1 1 0 -0 
1 0 0 0 0 0 1 1 0 -0 -0 1 0 
1 0 4 0 -0 1 0 0 0 1 1 0 -0 
2 0 0 0 0 0 1 1 0 -0 -0 1 0 18.5
1 0 0 0 0 0 1 1 0 -0 -0 1 0 
1 0 0 15 0 0 1 1 0 -0 -0 1 0 
2 0 0 0 0 0 1 1 0 -0 -0 1 0 2.5
Triangulations 0

TShapes 49
Ve
1.50000000444089e-07
22.9128784747792 2 2
0 0

0101101
*
Ve
1.50000008881784e-07
22.9128784747792 -2.00000000000001 2
0 0

0101101
*
Ed
 1e-07 1 1 0
1  1 0 0.0870664823473958 6.19611882483219
2  1 1 0 0.0870664823473958 6.19611882483219
2  2 2 0 0.0870664823473958 6.19611882483219
0

0101000
+49 4 -48 4 *
Ve
1.50000008881784e-07
22.9128784747792 -2.00000000000001 0
0 0

0101101
*
Ed
 1e-07 1 1 0
1  2 0 0 2
2  3 1 3 0 2
2  4 3 7 0 2
0

0101000
+46 0 -48 0 *
Ve
1.50000000444089e-07
22.9128784747792 2 0
0 0

0101101
*
Ed
 1e-07 1 1 0
1  3 0 0.0870664823473958 6.19611882483219
2  5 1 0 0.0870664823473958 6.19611882483219
2  6 4 0 0.0870664823473958 6.19611882483219
0

0101000
+44 4 -46 4 *
Ed
 1e-07 1 1 0
1  4 0 0 2
2  7 1 3 0 2
2  8 5 7 0 2
0

0101000
+44 0 -49 0 *
Wi

0101100
-47 3 +45 0 +43 3 -42 0 *
Fa
0  1e-07 1 3

0101000
+41 0 *
Ve
1.5e-07
18.3915741577495 2 2
0 0

0101101
*
Ed
 1.5e-07 1 1 0
1  5 0 -22.9128784747792 -18.3915741577495
2  9 2 3 -22.9128784747792 -18.3915741577495
2  10 5 7 -22.9128784747792 -18.3915741577495
0

0101000
+49 0 -39 0 *
Ve
1.5000000577316e-07
18.3915741577495 -2.00000000000001 2
0 0

0101101
*
Ed
 1e-07 1 1 0
1  6 0 0.108319806515118 6.17486550066447
2  11 6 0 0.108319806515118 6.17486550066447
2  12 7 0 0.108319806515118 6.17486550066447
2  13 2 11 0.108319806515118 6.17486550066447
0

0101000
+39 12 -37 12 *
Ed
 1.5e-07 1 1 0
1  7 0 -22.9128784747792 -18.3915741577495
2  14 2 3 -22.9128784747792 -18.3915741577495
2  15 3 7 -22.9128784747792 -18.3915741577495
0

0101000
+48 0 -37 0 *
Wi

0101100
-38 0 -36 10 +35 0 +47 3 *
Fa
0  1e-07 2 3

0101000
+34 0 *
Ve
1.5000000577316e-07
18.3915741577495 -2.00000000000001 17
0 0

0101101
*
Ed
 1e-07 1 1 0
1  8 0 0 15
2  16 6 10 0 15
2  17 3 7 0 15
0

0101000
+37 0 -32 0 *
Ve
1.50000000444089e-07
1.5 -2 17
0 0

0101101
*
Ed
 1.5e-07 1 1 0
1  9 0 -18.3915741577495 -1.5
2  18 8 10 -18.3915741577495 -1.5
2  19 3 7 -18.3915741577495 -1.5
0

0101000
+32 0 -30 0 *
Ve
1.50000000444089e-07
1.5 -2 0
0 0

0101101
*
Ed
 1e-07 1 1 0
1  10 0 8.5 25.5
2  20 9 15 8.5 25.5
2  21 3 7 8.5 25.5
0

0101000
+28 0 -30 0 *
Ed
 1.5e-07 1 1 0
1  11 0 -22.9128784747792 -1.5
2  22 4 3 -22.9128784747792 -1.5
2  23 3 7 -22.9128784747792 -1.5
0

0101000
+46 0 -28 0 *
Wi

0101100
-45 0 -35 0 -31 0 -29 0 +27 0 +26 0 *
Fa
0  1e-07 3 7

0101000
+25 0 *
Ve
1.5e-07
1.5 2 0
0 0

0101101
*
Ed
 1.5e-07 1 1 0
1  12 0 -22.9128784747792 -1.5
2  24 4 3 -22.9128784747792 -1.5
2  25 5 7 -22.9128784747792 -1.5
0

0101000
+44 0 -23 0 *
Ed
 1e-07 1 1 0
1  13 0 0.927295218001612 5.35589008917797
2  26 4 3 0.927295218001612 5.35589008917797
2  27 9 15 0.927295218001612 5.35589008917797
0

0101000
+23 0 -28 0 *
Wi

0101100
-22 0 -21 0 +26 0 +43 3 *
Fa
0  1e-07 4 3

0101000
+20 0 *
Ve
1.5e-07
18.3915741577495 2 17
0 0

0101101
*
Ed
 1e-07 1 1 0
1  14 0 0 15
2  28 6 10 0 15
2  29 5 7 0 15
0

0101000
+39 0 -18 0 *
Ve
1.5e-07
1.5 2 17
0 0

0101101
*
Ed
 1.5e-07 1 1 0
1  15 0 -18.3915741577495 -1.5
2  30 8 10 -18.3915741577495 -1.5
2  31 5 7 -18.3915741577495 -1.5
0

0101000
+18 0 -16 0 *
Ed
 1e-07 1 1 0
1  16 0 8.5 25.5
2  32 9 15 8.5 25.5
2  33 5 7 8.5 25.5
0

0101000
+23 0 -16 0 *
Wi

0101100
-42 0 -38 0 -17 0 -15 0 +14 0 +22 0 *
Fa
0  1e-07 5 7

0101000
+13 0 *
Ed
 1e-07 1 1 0
1  17 0 0.108319806515118 6.17486550066447
2  34 6 0 0.108319806515118 6.17486550066447
2  35 8 0 0.108319806515118 6.17486550066447
0

0101000
+18 12 -32 12 *
Wi

0101100
-11 10 +31 0 +36 10 -17 0 *
Fa
0  1e-07 6 10

0101000
+10 0 *
Ed
 1e-07 1 1 0
1  18 0 0.927295218001612 5.35589008917797
2  36 8 10 0.927295218001612 5.35589008917797
2  37 9 15 0.927295218001612 5.35589008917797
0

0101000
+16 0 -30 0 *
Wi

0101100
-15 0 -8 0 +29 0 +11 10 *
Fa
0  1e-07 8 10

0101000
+7 0 *
Wi

0101100
-8 0 +27 0 +21 0 -14 0 *
Fa
0  1e-07 9 15

0101000
+5 0 *
Sh

0101100
+40 0 +33 0 +24 0 -19 0 -12 0 +9 0 +6 0 -4 0 *
So

0100000
+3 0 *
Co

1100000
+2 0 *

+1 0 