<svg xmlns="http://www.w3.org/2000/svg" viewBox="-40 -40 824.0 992.0" font-family="monospace">
<rect x="-40" y="-40" width="824.0" height="992.0" fill="#10141a"/>
<rect x="0" y="0" width="744.0" height="912.0" rx="8" fill="#173425" stroke="#c8a038" stroke-width="2"/>
<circle cx="42.0" cy="42.0" r="19.200000000000003" fill="#10141a"/>
<circle cx="702.0" cy="42.0" r="19.200000000000003" fill="#10141a"/>
<circle cx="42.0" cy="870.0" r="19.200000000000003" fill="#10141a"/>
<circle cx="702.0" cy="870.0" r="19.200000000000003" fill="#10141a"/>
<line x1="424.8" y1="96.0" x2="424.8" y2="163.2" stroke="#3b6ea5" stroke-width="4.8" stroke-linecap="round" opacity="0.9"/>
<line x1="424.8" y1="163.2" x2="535.2" y2="163.2" stroke="#3b6ea5" stroke-width="4.8" stroke-linecap="round" opacity="0.9"/>
<line x1="499.2" y1="199.2" x2="546.0" y2="210.0" stroke="#3b6ea5" stroke-width="12.0" stroke-linecap="round" opacity="0.9"/>
<line x1="546.0" y1="210.0" x2="546.0" y2="686.9" stroke="#3b6ea5" stroke-width="12.0" stroke-linecap="round" opacity="0.9"/>
<line x1="546.0" y1="686.9" x2="478.7" y2="686.9" stroke="#3b6ea5" stroke-width="12.0" stroke-linecap="round" opacity="0.9"/>
<line x1="444.0" y1="223.2" x2="546.0" y2="223.2" stroke="#3b6ea5" stroke-width="4.8" stroke-linecap="round" opacity="0.9"/>
<line x1="606.0" y1="252.0" x2="546.0" y2="252.0" stroke="#3b6ea5" stroke-width="9.6" stroke-linecap="round" opacity="0.9"/>
<line x1="535.2" y1="718.8" x2="546.0" y2="708.0" stroke="#3b6ea5" stroke-width="9.6" stroke-linecap="round" opacity="0.9"/>
<line x1="546.0" y1="708.0" x2="546.0" y2="686.9" stroke="#3b6ea5" stroke-width="9.6" stroke-linecap="round" opacity="0.9"/>
<line x1="516.0" y1="276.6" x2="516.0" y2="360.0" stroke="#3b6ea5" stroke-width="4.8" stroke-linecap="round" opacity="0.9"/>
<line x1="480.0" y1="372.0" x2="480.0" y2="348.0" stroke="#3b6ea5" stroke-width="9.6" stroke-linecap="round" opacity="0.9"/>
<line x1="480.0" y1="348.0" x2="408.0" y2="348.0" stroke="#3b6ea5" stroke-width="9.6" stroke-linecap="round" opacity="0.9"/>
<line x1="408.0" y1="348.0" x2="408.0" y2="76.8" stroke="#3b6ea5" stroke-width="9.6" stroke-linecap="round" opacity="0.9"/>
<line x1="408.0" y1="76.8" x2="326.9" y2="76.8" stroke="#3b6ea5" stroke-width="9.6" stroke-linecap="round" opacity="0.9"/>
<line x1="326.9" y1="76.8" x2="326.9" y2="100.6" stroke="#3b6ea5" stroke-width="9.6" stroke-linecap="round" opacity="0.9"/>
<line x1="102.0" y1="798.0" x2="54.0" y2="798.0" stroke="#3b6ea5" stroke-width="9.6" stroke-linecap="round" opacity="0.9"/>
<line x1="54.0" y1="798.0" x2="54.0" y2="76.8" stroke="#3b6ea5" stroke-width="9.6" stroke-linecap="round" opacity="0.9"/>
<line x1="54.0" y1="76.8" x2="408.0" y2="76.8" stroke="#3b6ea5" stroke-width="9.6" stroke-linecap="round" opacity="0.9"/>
<line x1="112.8" y1="100.6" x2="112.8" y2="432.0" stroke="#3b6ea5" stroke-width="4.8" stroke-linecap="round" opacity="0.9"/>
<line x1="112.8" y1="432.0" x2="295.8" y2="432.0" stroke="#3b6ea5" stroke-width="4.8" stroke-linecap="round" opacity="0.9"/>
<line x1="96.0" y1="131.0" x2="96.0" y2="448.8" stroke="#3b6ea5" stroke-width="4.8" stroke-linecap="round" opacity="0.9"/>
<line x1="96.0" y1="448.8" x2="265.3" y2="448.8" stroke="#3b6ea5" stroke-width="4.8" stroke-linecap="round" opacity="0.9"/>
<line x1="79.2" y1="161.5" x2="79.2" y2="468.0" stroke="#3b6ea5" stroke-width="4.8" stroke-linecap="round" opacity="0.9"/>
<line x1="79.2" y1="468.0" x2="478.7" y2="468.0" stroke="#3b6ea5" stroke-width="4.8" stroke-linecap="round" opacity="0.9"/>
<line x1="478.7" y1="468.0" x2="478.7" y2="504.0" stroke="#3b6ea5" stroke-width="4.8" stroke-linecap="round" opacity="0.9"/>
<line x1="144.0" y1="283.4" x2="144.0" y2="331.2" stroke="#3b6ea5" stroke-width="4.8" stroke-linecap="round" opacity="0.9"/>
<line x1="144.0" y1="331.2" x2="219.0" y2="331.2" stroke="#3b6ea5" stroke-width="4.8" stroke-linecap="round" opacity="0.9"/>
<line x1="387.2" y1="686.9" x2="387.2" y2="744.0" stroke="#3b6ea5" stroke-width="12.0" stroke-linecap="round" opacity="0.9"/>
<line x1="387.2" y1="744.0" x2="344.0" y2="780.0" stroke="#3b6ea5" stroke-width="12.0" stroke-linecap="round" opacity="0.9"/>
<line x1="344.0" y1="780.0" x2="344.0" y2="816.0" stroke="#3b6ea5" stroke-width="12.0" stroke-linecap="round" opacity="0.9"/>
<line x1="417.7" y1="686.9" x2="450.0" y2="720.0" stroke="#3b6ea5" stroke-width="12.0" stroke-linecap="round" opacity="0.9"/>
<line x1="450.0" y1="720.0" x2="450.0" y2="846.0" stroke="#3b6ea5" stroke-width="12.0" stroke-linecap="round" opacity="0.9"/>
<line x1="450.0" y1="846.0" x2="313.6" y2="846.0" stroke="#3b6ea5" stroke-width="12.0" stroke-linecap="round" opacity="0.9"/>
<line x1="313.6" y1="846.0" x2="313.6" y2="816.0" stroke="#3b6ea5" stroke-width="12.0" stroke-linecap="round" opacity="0.9"/>
<line x1="709.8" y1="128.4" x2="709.8" y2="74.4" stroke="#b0433b" stroke-width="12.0" stroke-linecap="round" opacity="0.9"/>
<line x1="709.8" y1="74.4" x2="546.0" y2="74.4" stroke="#b0433b" stroke-width="12.0" stroke-linecap="round" opacity="0.9"/>
<line x1="546.0" y1="74.4" x2="546.0" y2="114.6" stroke="#b0433b" stroke-width="12.0" stroke-linecap="round" opacity="0.9"/>
<line x1="546.0" y1="114.6" x2="517.8" y2="114.6" stroke="#b0433b" stroke-width="12.0" stroke-linecap="round" opacity="0.9"/>
<line x1="459.0" y1="96.0" x2="530.4" y2="96.0" stroke="#b0433b" stroke-width="4.8" stroke-linecap="round" opacity="0.9"/>
<line x1="530.4" y1="96.0" x2="530.4" y2="74.4" stroke="#b0433b" stroke-width="4.8" stroke-linecap="round" opacity="0.9"/>
<line x1="530.4" y1="74.4" x2="546.0" y2="74.4" stroke="#b0433b" stroke-width="4.8" stroke-linecap="round" opacity="0.9"/>
<line x1="441.0" y1="96.0" x2="424.8" y2="96.0" stroke="#b0433b" stroke-width="4.8" stroke-linecap="round" opacity="0.9"/>
<line x1="535.2" y1="163.2" x2="535.2" y2="137.4" stroke="#b0433b" stroke-width="4.8" stroke-linecap="round" opacity="0.9"/>
<line x1="535.2" y1="137.4" x2="517.8" y2="137.4" stroke="#b0433b" stroke-width="4.8" stroke-linecap="round" opacity="0.9"/>
<line x1="441.0" y1="151.2" x2="412.8" y2="151.2" stroke="#b0433b" stroke-width="4.8" stroke-linecap="round" opacity="0.9"/>
<line x1="412.8" y1="151.2" x2="412.8" y2="96.0" stroke="#b0433b" stroke-width="4.8" stroke-linecap="round" opacity="0.9"/>
<line x1="412.8" y1="96.0" x2="424.8" y2="96.0" stroke="#b0433b" stroke-width="4.8" stroke-linecap="round" opacity="0.9"/>
<line x1="490.2" y1="126.0" x2="499.2" y2="126.0" stroke="#b0433b" stroke-width="12.0" stroke-linecap="round" opacity="0.9"/>
<line x1="499.2" y1="126.0" x2="499.2" y2="199.2" stroke="#b0433b" stroke-width="12.0" stroke-linecap="round" opacity="0.9"/>
<line x1="465.0" y1="240.0" x2="444.0" y2="240.0" stroke="#b0433b" stroke-width="4.8" stroke-linecap="round" opacity="0.9"/>
<line x1="444.0" y1="240.0" x2="444.0" y2="223.2" stroke="#b0433b" stroke-width="4.8" stroke-linecap="round" opacity="0.9"/>
<line x1="606.0" y1="276.0" x2="606.0" y2="252.0" stroke="#b0433b" stroke-width="9.6" stroke-linecap="round" opacity="0.9"/>
<line x1="568.2" y1="276.6" x2="568.2" y2="266.4" stroke="#b0433b" stroke-width="7.2" stroke-linecap="round" opacity="0.9"/>
<line x1="568.2" y1="266.4" x2="606.0" y2="266.4" stroke="#b0433b" stroke-width="7.2" stroke-linecap="round" opacity="0.9"/>
<line x1="606.0" y1="266.4" x2="606.0" y2="276.0" stroke="#b0433b" stroke-width="7.2" stroke-linecap="round" opacity="0.9"/>
<line x1="546.0" y1="686.9" x2="546.0" y2="648.0" stroke="#b0433b" stroke-width="12.0" stroke-linecap="round" opacity="0.9"/>
<line x1="474.0" y1="744.0" x2="474.0" y2="718.8" stroke="#b0433b" stroke-width="9.6" stroke-linecap="round" opacity="0.9"/>
<line x1="474.0" y1="718.8" x2="535.2" y2="718.8" stroke="#b0433b" stroke-width="9.6" stroke-linecap="round" opacity="0.9"/>
<line x1="568.2" y1="288.0" x2="583.2" y2="288.0" stroke="#b0433b" stroke-width="7.2" stroke-linecap="round" opacity="0.9"/>
<line x1="583.2" y1="288.0" x2="583.2" y2="354.0" stroke="#b0433b" stroke-width="7.2" stroke-linecap="round" opacity="0.9"/>
<line x1="583.2" y1="354.0" x2="618.0" y2="354.0" stroke="#b0433b" stroke-width="7.2" stroke-linecap="round" opacity="0.9"/>
<line x1="560.4" y1="326.4" x2="583.2" y2="326.4" stroke="#b0433b" stroke-width="4.8" stroke-linecap="round" opacity="0.9"/>
<line x1="535.8" y1="299.4" x2="523.2" y2="299.4" stroke="#b0433b" stroke-width="4.8" stroke-linecap="round" opacity="0.9"/>
<line x1="523.2" y1="299.4" x2="523.2" y2="326.4" stroke="#b0433b" stroke-width="4.8" stroke-linecap="round" opacity="0.9"/>
<line x1="523.2" y1="326.4" x2="543.6" y2="326.4" stroke="#b0433b" stroke-width="4.8" stroke-linecap="round" opacity="0.9"/>
<line x1="535.8" y1="288.0" x2="506.4" y2="288.0" stroke="#b0433b" stroke-width="4.8" stroke-linecap="round" opacity="0.9"/>
<line x1="506.4" y1="288.0" x2="506.4" y2="240.0" stroke="#b0433b" stroke-width="4.8" stroke-linecap="round" opacity="0.9"/>
<line x1="506.4" y1="240.0" x2="483.0" y2="240.0" stroke="#b0433b" stroke-width="4.8" stroke-linecap="round" opacity="0.9"/>
<line x1="465.0" y1="276.0" x2="465.0" y2="259.2" stroke="#b0433b" stroke-width="4.8" stroke-linecap="round" opacity="0.9"/>
<line x1="465.0" y1="259.2" x2="506.4" y2="259.2" stroke="#b0433b" stroke-width="4.8" stroke-linecap="round" opacity="0.9"/>
<line x1="535.8" y1="276.6" x2="516.0" y2="276.6" stroke="#b0433b" stroke-width="4.8" stroke-linecap="round" opacity="0.9"/>
<line x1="516.0" y1="360.0" x2="525.0" y2="360.0" stroke="#b0433b" stroke-width="4.8" stroke-linecap="round" opacity="0.9"/>
<line x1="525.0" y1="360.0" x2="525.0" y2="384.0" stroke="#b0433b" stroke-width="4.8" stroke-linecap="round" opacity="0.9"/>
<line x1="507.0" y1="414.0" x2="507.0" y2="432.0" stroke="#b0433b" stroke-width="4.8" stroke-linecap="round" opacity="0.9"/>
<line x1="507.0" y1="432.0" x2="535.2" y2="432.0" stroke="#b0433b" stroke-width="4.8" stroke-linecap="round" opacity="0.9"/>
<line x1="535.2" y1="432.0" x2="535.2" y2="391.2" stroke="#b0433b" stroke-width="4.8" stroke-linecap="round" opacity="0.9"/>
<line x1="535.2" y1="391.2" x2="525.0" y2="391.2" stroke="#b0433b" stroke-width="4.8" stroke-linecap="round" opacity="0.9"/>
<line x1="525.0" y1="391.2" x2="525.0" y2="384.0" stroke="#b0433b" stroke-width="4.8" stroke-linecap="round" opacity="0.9"/>
<line x1="666.0" y1="354.0" x2="691.2" y2="354.0" stroke="#b0433b" stroke-width="9.6" stroke-linecap="round" opacity="0.9"/>
<line x1="691.2" y1="354.0" x2="691.2" y2="396.0" stroke="#b0433b" stroke-width="9.6" stroke-linecap="round" opacity="0.9"/>
<line x1="691.2" y1="396.0" x2="687.6" y2="396.0" stroke="#b0433b" stroke-width="9.6" stroke-linecap="round" opacity="0.9"/>
<line x1="687.6" y1="396.0" x2="687.6" y2="414.0" stroke="#b0433b" stroke-width="9.6" stroke-linecap="round" opacity="0.9"/>
<line x1="630.0" y1="414.0" x2="630.0" y2="396.0" stroke="#b0433b" stroke-width="9.6" stroke-linecap="round" opacity="0.9"/>
<line x1="630.0" y1="396.0" x2="687.6" y2="396.0" stroke="#b0433b" stroke-width="9.6" stroke-linecap="round" opacity="0.9"/>
<line x1="570.0" y1="414.0" x2="570.0" y2="396.0" stroke="#b0433b" stroke-width="9.6" stroke-linecap="round" opacity="0.9"/>
<line x1="570.0" y1="396.0" x2="630.0" y2="396.0" stroke="#b0433b" stroke-width="9.6" stroke-linecap="round" opacity="0.9"/>
<line x1="507.0" y1="384.0" x2="507.0" y2="348.0" stroke="#b0433b" stroke-width="4.8" stroke-linecap="round" opacity="0.9"/>
<line x1="507.0" y1="348.0" x2="552.0" y2="348.0" stroke="#b0433b" stroke-width="4.8" stroke-linecap="round" opacity="0.9"/>
<line x1="552.0" y1="348.0" x2="552.0" y2="396.0" stroke="#b0433b" stroke-width="4.8" stroke-linecap="round" opacity="0.9"/>
<line x1="552.0" y1="396.0" x2="570.0" y2="396.0" stroke="#b0433b" stroke-width="4.8" stroke-linecap="round" opacity="0.9"/>
<line x1="651.0" y1="216.0" x2="651.0" y2="204.0" stroke="#b0433b" stroke-width="4.8" stroke-linecap="round" opacity="0.9"/>
<line x1="651.0" y1="204.0" x2="691.2" y2="204.0" stroke="#b0433b" stroke-width="4.8" stroke-linecap="round" opacity="0.9"/>
<line x1="691.2" y1="204.0" x2="691.2" y2="354.0" stroke="#b0433b" stroke-width="4.8" stroke-linecap="round" opacity="0.9"/>
<line x1="507.0" y1="384.0" x2="480.0" y2="384.0" stroke="#b0433b" stroke-width="9.6" stroke-linecap="round" opacity="0.9"/>
<line x1="480.0" y1="384.0" x2="480.0" y2="372.0" stroke="#b0433b" stroke-width="9.6" stroke-linecap="round" opacity="0.9"/>
<line x1="669.0" y1="216.0" x2="669.0" y2="252.0" stroke="#b0433b" stroke-width="4.8" stroke-linecap="round" opacity="0.9"/>
<line x1="144.0" y1="100.6" x2="112.8" y2="100.6" stroke="#b0433b" stroke-width="4.8" stroke-linecap="round" opacity="0.9"/>
<line x1="295.8" y1="432.0" x2="295.8" y2="504.0" stroke="#b0433b" stroke-width="4.8" stroke-linecap="round" opacity="0.9"/>
<line x1="144.0" y1="131.0" x2="96.0" y2="131.0" stroke="#b0433b" stroke-width="4.8" stroke-linecap="round" opacity="0.9"/>
<line x1="265.3" y1="448.8" x2="265.3" y2="504.0" stroke="#b0433b" stroke-width="4.8" stroke-linecap="round" opacity="0.9"/>
<line x1="144.0" y1="161.5" x2="79.2" y2="161.5" stroke="#b0433b" stroke-width="4.8" stroke-linecap="round" opacity="0.9"/>
<line x1="219.0" y1="331.2" x2="219.0" y2="360.0" stroke="#b0433b" stroke-width="4.8" stroke-linecap="round" opacity="0.9"/>
<line x1="237.0" y1="360.0" x2="326.3" y2="360.0" stroke="#b0433b" stroke-width="4.8" stroke-linecap="round" opacity="0.9"/>
<line x1="326.3" y1="360.0" x2="326.3" y2="504.0" stroke="#b0433b" stroke-width="4.8" stroke-linecap="round" opacity="0.9"/>
<line x1="326.9" y1="161.5" x2="379.2" y2="161.5" stroke="#b0433b" stroke-width="4.8" stroke-linecap="round" opacity="0.9"/>
<line x1="379.2" y1="161.5" x2="379.2" y2="312.0" stroke="#b0433b" stroke-width="4.8" stroke-linecap="round" opacity="0.9"/>
<line x1="379.2" y1="312.0" x2="192.0" y2="312.0" stroke="#b0433b" stroke-width="4.8" stroke-linecap="round" opacity="0.9"/>
<line x1="192.0" y1="312.0" x2="192.0" y2="636.0" stroke="#b0433b" stroke-width="4.8" stroke-linecap="round" opacity="0.9"/>
<line x1="192.0" y1="636.0" x2="295.8" y2="636.0" stroke="#b0433b" stroke-width="4.8" stroke-linecap="round" opacity="0.9"/>
<line x1="295.8" y1="636.0" x2="295.8" y2="686.9" stroke="#b0433b" stroke-width="4.8" stroke-linecap="round" opacity="0.9"/>
<line x1="326.9" y1="253.0" x2="367.2" y2="253.0" stroke="#b0433b" stroke-width="4.8" stroke-linecap="round" opacity="0.9"/>
<line x1="367.2" y1="253.0" x2="367.2" y2="300.0" stroke="#b0433b" stroke-width="4.8" stroke-linecap="round" opacity="0.9"/>
<line x1="367.2" y1="300.0" x2="127.2" y2="300.0" stroke="#b0433b" stroke-width="4.8" stroke-linecap="round" opacity="0.9"/>
<line x1="127.2" y1="300.0" x2="127.2" y2="756.0" stroke="#b0433b" stroke-width="4.8" stroke-linecap="round" opacity="0.9"/>
<line x1="127.2" y1="756.0" x2="162.0" y2="756.0" stroke="#b0433b" stroke-width="4.8" stroke-linecap="round" opacity="0.9"/>
<line x1="162.0" y1="756.0" x2="162.0" y2="798.0" stroke="#b0433b" stroke-width="4.8" stroke-linecap="round" opacity="0.9"/>
<line x1="356.8" y1="686.9" x2="356.8" y2="720.0" stroke="#b0433b" stroke-width="12.0" stroke-linecap="round" opacity="0.9"/>
<line x1="356.8" y1="720.0" x2="405.0" y2="756.0" stroke="#b0433b" stroke-width="12.0" stroke-linecap="round" opacity="0.9"/>
<line x1="405.0" y1="756.0" x2="405.0" y2="816.0" stroke="#b0433b" stroke-width="12.0" stroke-linecap="round" opacity="0.9"/>
<line x1="326.3" y1="686.9" x2="326.3" y2="732.0" stroke="#b0433b" stroke-width="12.0" stroke-linecap="round" opacity="0.9"/>
<line x1="326.3" y1="732.0" x2="374.5" y2="774.0" stroke="#b0433b" stroke-width="12.0" stroke-linecap="round" opacity="0.9"/>
<line x1="374.5" y1="774.0" x2="374.5" y2="816.0" stroke="#b0433b" stroke-width="12.0" stroke-linecap="round" opacity="0.9"/>
<line x1="544.2" y1="182.9" x2="642.2" y2="182.9" stroke="#8fa3b8" stroke-width="1"/>
<line x1="544.2" y1="74.9" x2="714.6" y2="74.9" stroke="#8fa3b8" stroke-width="1"/>
<line x1="714.6" y1="74.9" x2="714.6" y2="103.8" stroke="#8fa3b8" stroke-width="1"/>
<line x1="544.2" y1="74.9" x2="544.2" y2="182.9" stroke="#8fa3b8" stroke-width="1"/>
<line x1="714.6" y1="153.0" x2="714.6" y2="182.9" stroke="#8fa3b8" stroke-width="1"/>
<line x1="714.6" y1="182.9" x2="702.6" y2="182.9" stroke="#8fa3b8" stroke-width="1"/>
<line x1="649.1" y1="182.9" x2="642.2" y2="182.9" stroke="#8fa3b8" stroke-width="1"/>
<line x1="577.3" y1="75.0" x2="577.3" y2="183.0" stroke="#8fa3b8" stroke-width="1"/>
<rect x="652.8" y="175.8" width="42.0" height="15.6" rx="2" fill="#d4b03c"/>
<circle cx="673.8" cy="183.6" r="18.0" fill="#10141a"/>
<rect x="625.2" y="107.4" width="18.0" height="42.0" rx="2" fill="#d4b03c"/>
<circle cx="634.2" cy="128.4" r="18.0" fill="#10141a"/>
<rect x="700.8" y="107.4" width="18.0" height="42.0" rx="2" fill="#d4b03c"/>
<circle cx="709.8" cy="128.4" r="18.0" fill="#10141a"/>
<text x="672.0" y="153.0" fill="#e8e0d0" font-size="9" text-anchor="middle">J3</text>
<line x1="434.8" y1="821.8" x2="434.8" y2="905.9" stroke="#8fa3b8" stroke-width="1"/>
<line x1="434.8" y1="905.9" x2="284.9" y2="905.7" stroke="#8fa3b8" stroke-width="1"/>
<line x1="284.9" y1="821.5" x2="284.9" y2="905.7" stroke="#8fa3b8" stroke-width="1"/>
<line x1="434.8" y1="821.8" x2="423.2" y2="821.8" stroke="#8fa3b8" stroke-width="1"/>
<line x1="423.2" y1="821.8" x2="418.0" y2="821.8" stroke="#8fa3b8" stroke-width="1"/>
<line x1="418.0" y1="821.8" x2="418.0" y2="828.8" stroke="#8fa3b8" stroke-width="1"/>
<line x1="418.0" y1="828.8" x2="392.4" y2="828.8" stroke="#8fa3b8" stroke-width="1"/>
<line x1="392.4" y1="828.8" x2="392.3" y2="822.4" stroke="#8fa3b8" stroke-width="1"/>
<line x1="392.3" y1="822.4" x2="387.5" y2="822.4" stroke="#8fa3b8" stroke-width="1"/>
<line x1="387.5" y1="822.4" x2="387.5" y2="828.5" stroke="#8fa3b8" stroke-width="1"/>
<line x1="392.3" y1="822.4" x2="387.5" y2="822.4" stroke="#8fa3b8" stroke-width="1"/>
<line x1="387.5" y1="822.4" x2="387.5" y2="828.5" stroke="#8fa3b8" stroke-width="1"/>
<line x1="387.5" y1="828.5" x2="362.9" y2="828.8" stroke="#8fa3b8" stroke-width="1"/>
<line x1="362.9" y1="828.8" x2="362.9" y2="822.4" stroke="#8fa3b8" stroke-width="1"/>
<line x1="362.9" y1="822.4" x2="357.4" y2="822.4" stroke="#8fa3b8" stroke-width="1"/>
<line x1="357.4" y1="822.4" x2="357.4" y2="828.6" stroke="#8fa3b8" stroke-width="1"/>
<line x1="362.9" y1="822.4" x2="357.4" y2="822.4" stroke="#8fa3b8" stroke-width="1"/>
<line x1="357.4" y1="822.4" x2="357.4" y2="828.6" stroke="#8fa3b8" stroke-width="1"/>
<line x1="357.4" y1="828.6" x2="332.6" y2="828.8" stroke="#8fa3b8" stroke-width="1"/>
<line x1="332.6" y1="828.8" x2="332.6" y2="823.0" stroke="#8fa3b8" stroke-width="1"/>
<line x1="332.6" y1="823.0" x2="327.7" y2="823.0" stroke="#8fa3b8" stroke-width="1"/>
<line x1="327.7" y1="823.0" x2="327.8" y2="828.7" stroke="#8fa3b8" stroke-width="1"/>
<line x1="327.8" y1="828.7" x2="320.6" y2="828.8" stroke="#8fa3b8" stroke-width="1"/>
<line x1="320.6" y1="828.8" x2="301.9" y2="828.8" stroke="#8fa3b8" stroke-width="1"/>
<line x1="301.9" y1="828.8" x2="300.8" y2="821.5" stroke="#8fa3b8" stroke-width="1"/>
<line x1="300.8" y1="821.5" x2="284.9" y2="821.5" stroke="#8fa3b8" stroke-width="1"/>
<circle cx="405.0" cy="816.0" r="10.8" fill="#d4b03c"/>
<circle cx="405.0" cy="816.0" r="6.6" fill="#10141a"/>
<circle cx="375.0" cy="816.0" r="10.8" fill="#d4b03c"/>
<circle cx="375.0" cy="816.0" r="6.6" fill="#10141a"/>
<circle cx="345.0" cy="816.0" r="10.8" fill="#d4b03c"/>
<circle cx="345.0" cy="816.0" r="6.6" fill="#10141a"/>
<circle cx="315.0" cy="816.0" r="10.8" fill="#d4b03c"/>
<circle cx="315.0" cy="816.0" r="6.6" fill="#10141a"/>
<text x="360.0" y="813.0" fill="#e8e0d0" font-size="9" text-anchor="middle">J2</text>
<line x1="187.2" y1="800.4" x2="193.0" y2="800.1" stroke="#8fa3b8" stroke-width="1"/>
<line x1="193.0" y1="800.4" x2="193.0" y2="800.1" stroke="#8fa3b8" stroke-width="1"/>
<line x1="187.2" y1="793.2" x2="193.0" y2="793.2" stroke="#8fa3b8" stroke-width="1"/>
<line x1="193.0" y1="793.2" x2="193.0" y2="793.2" stroke="#8fa3b8" stroke-width="1"/>
<line x1="72.4" y1="800.9" x2="78.0" y2="800.6" stroke="#8fa3b8" stroke-width="1"/>
<line x1="78.0" y1="800.9" x2="78.0" y2="800.6" stroke="#8fa3b8" stroke-width="1"/>
<line x1="72.4" y1="794.0" x2="78.0" y2="794.2" stroke="#8fa3b8" stroke-width="1"/>
<line x1="78.0" y1="794.0" x2="78.0" y2="794.2" stroke="#8fa3b8" stroke-width="1"/>
<line x1="72.4" y1="838.8" x2="192.3" y2="838.8" stroke="#8fa3b8" stroke-width="1"/>
<line x1="92.4" y1="774.8" x2="92.4" y2="768.7" stroke="#8fa3b8" stroke-width="1"/>
<line x1="110.6" y1="774.8" x2="110.6" y2="768.7" stroke="#8fa3b8" stroke-width="1"/>
<line x1="171.6" y1="770.9" x2="171.6" y2="771.6" stroke="#8fa3b8" stroke-width="1"/>
<line x1="171.6" y1="772.3" x2="171.6" y2="771.6" stroke="#8fa3b8" stroke-width="1"/>
<line x1="153.4" y1="774.8" x2="153.4" y2="768.7" stroke="#8fa3b8" stroke-width="1"/>
<line x1="192.3" y1="768.7" x2="72.4" y2="768.7" stroke="#8fa3b8" stroke-width="1"/>
<line x1="192.3" y1="838.8" x2="192.3" y2="768.7" stroke="#8fa3b8" stroke-width="1"/>
<line x1="72.4" y1="768.7" x2="72.4" y2="838.8" stroke="#8fa3b8" stroke-width="1"/>
<line x1="78.7" y1="774.8" x2="186.8" y2="774.8" stroke="#8fa3b8" stroke-width="1"/>
<line x1="186.8" y1="774.8" x2="186.8" y2="832.8" stroke="#8fa3b8" stroke-width="1"/>
<line x1="186.8" y1="832.8" x2="78.7" y2="832.8" stroke="#8fa3b8" stroke-width="1"/>
<line x1="78.7" y1="832.8" x2="78.7" y2="774.8" stroke="#8fa3b8" stroke-width="1"/>
<circle cx="102.0" cy="798.0" r="9.3" fill="#d4b03c"/>
<circle cx="102.0" cy="798.0" r="5.4" fill="#10141a"/>
<circle cx="132.0" cy="798.0" r="9.3" fill="#d4b03c"/>
<circle cx="132.0" cy="798.0" r="5.4" fill="#10141a"/>
<circle cx="162.0" cy="798.0" r="9.3" fill="#d4b03c"/>
<circle cx="162.0" cy="798.0" r="5.4" fill="#10141a"/>
<text x="132.0" y="795.0" fill="#e8e0d0" font-size="9" text-anchor="middle">J1</text>
<line x1="159.0" y1="115.8" x2="129.0" y2="115.8" stroke="#8fa3b8" stroke-width="1"/>
<line x1="129.0" y1="85.3" x2="129.0" y2="298.7" stroke="#8fa3b8" stroke-width="1"/>
<line x1="159.0" y1="85.3" x2="129.0" y2="85.3" stroke="#8fa3b8" stroke-width="1"/>
<line x1="129.0" y1="298.7" x2="159.0" y2="298.7" stroke="#8fa3b8" stroke-width="1"/>
<line x1="159.0" y1="298.7" x2="159.0" y2="85.3" stroke="#8fa3b8" stroke-width="1"/>
<rect x="133.8" y="90.4" width="20.4" height="20.4" rx="0" fill="#d4b03c"/>
<circle cx="144.0" cy="100.6" r="6.6" fill="#10141a"/>
<circle cx="144.0" cy="131.0" r="10.2" fill="#d4b03c"/>
<circle cx="144.0" cy="131.0" r="6.6" fill="#10141a"/>
<circle cx="144.0" cy="161.5" r="10.2" fill="#d4b03c"/>
<circle cx="144.0" cy="161.5" r="6.6" fill="#10141a"/>
<circle cx="144.0" cy="192.0" r="10.2" fill="#d4b03c"/>
<circle cx="144.0" cy="192.0" r="6.6" fill="#10141a"/>
<circle cx="144.0" cy="222.5" r="10.2" fill="#d4b03c"/>
<circle cx="144.0" cy="222.5" r="6.6" fill="#10141a"/>
<circle cx="144.0" cy="253.0" r="10.2" fill="#d4b03c"/>
<circle cx="144.0" cy="253.0" r="6.6" fill="#10141a"/>
<circle cx="144.0" cy="283.4" r="10.2" fill="#d4b03c"/>
<circle cx="144.0" cy="283.4" r="6.6" fill="#10141a"/>
<text x="144.0" y="189.0" fill="#e8e0d0" font-size="9" text-anchor="middle">J6</text>
<line x1="341.9" y1="115.8" x2="311.9" y2="115.8" stroke="#8fa3b8" stroke-width="1"/>
<line x1="311.9" y1="85.3" x2="311.9" y2="298.7" stroke="#8fa3b8" stroke-width="1"/>
<line x1="341.9" y1="85.3" x2="311.9" y2="85.3" stroke="#8fa3b8" stroke-width="1"/>
<line x1="311.9" y1="298.7" x2="341.9" y2="298.7" stroke="#8fa3b8" stroke-width="1"/>
<line x1="341.9" y1="298.7" x2="341.9" y2="85.3" stroke="#8fa3b8" stroke-width="1"/>
<rect x="316.7" y="90.4" width="20.4" height="20.4" rx="0" fill="#d4b03c"/>
<circle cx="326.9" cy="100.6" r="6.6" fill="#10141a"/>
<circle cx="326.9" cy="131.0" r="10.2" fill="#d4b03c"/>
<circle cx="326.9" cy="131.0" r="6.6" fill="#10141a"/>
<circle cx="326.9" cy="161.5" r="10.2" fill="#d4b03c"/>
<circle cx="326.9" cy="161.5" r="6.6" fill="#10141a"/>
<circle cx="326.9" cy="192.0" r="10.2" fill="#d4b03c"/>
<circle cx="326.9" cy="192.0" r="6.6" fill="#10141a"/>
<circle cx="326.9" cy="222.5" r="10.2" fill="#d4b03c"/>
<circle cx="326.9" cy="222.5" r="6.6" fill="#10141a"/>
<circle cx="326.9" cy="253.0" r="10.2" fill="#d4b03c"/>
<circle cx="326.9" cy="253.0" r="6.6" fill="#10141a"/>
<circle cx="326.9" cy="283.4" r="10.2" fill="#d4b03c"/>
<circle cx="326.9" cy="283.4" r="6.6" fill="#10141a"/>
<text x="326.9" y="189.0" fill="#e8e0d0" font-size="9" text-anchor="middle">J7</text>
<line x1="493.9" y1="671.6" x2="493.9" y2="702.1" stroke="#8fa3b8" stroke-width="1"/>
<line x1="493.9" y1="702.1" x2="250.1" y2="702.1" stroke="#8fa3b8" stroke-width="1"/>
<line x1="250.1" y1="702.1" x2="250.1" y2="671.6" stroke="#8fa3b8" stroke-width="1"/>
<line x1="250.1" y1="671.6" x2="493.9" y2="671.6" stroke="#8fa3b8" stroke-width="1"/>
<line x1="280.8" y1="671.6" x2="280.8" y2="702.1" stroke="#8fa3b8" stroke-width="1"/>
<rect x="256.3" y="677.9" width="18.0" height="18.0" rx="0" fill="#d4b03c"/>
<circle cx="265.3" cy="686.9" r="6.0" fill="#10141a"/>
<circle cx="295.8" cy="686.9" r="9.0" fill="#d4b03c"/>
<circle cx="295.8" cy="686.9" r="6.0" fill="#10141a"/>
<circle cx="326.3" cy="686.9" r="9.0" fill="#d4b03c"/>
<circle cx="326.3" cy="686.9" r="6.0" fill="#10141a"/>
<circle cx="356.8" cy="686.9" r="9.0" fill="#d4b03c"/>
<circle cx="356.8" cy="686.9" r="6.0" fill="#10141a"/>
<circle cx="387.2" cy="686.9" r="9.0" fill="#d4b03c"/>
<circle cx="387.2" cy="686.9" r="6.0" fill="#10141a"/>
<circle cx="417.7" cy="686.9" r="9.0" fill="#d4b03c"/>
<circle cx="417.7" cy="686.9" r="6.0" fill="#10141a"/>
<circle cx="448.2" cy="686.9" r="9.0" fill="#d4b03c"/>
<circle cx="448.2" cy="686.9" r="6.0" fill="#10141a"/>
<circle cx="478.7" cy="686.9" r="9.0" fill="#d4b03c"/>
<circle cx="478.7" cy="686.9" r="6.0" fill="#10141a"/>
<text x="372.0" y="683.9" fill="#e8e0d0" font-size="9" text-anchor="middle">J4</text>
<line x1="493.9" y1="488.8" x2="493.9" y2="519.2" stroke="#8fa3b8" stroke-width="1"/>
<line x1="493.9" y1="519.2" x2="250.1" y2="519.2" stroke="#8fa3b8" stroke-width="1"/>
<line x1="250.1" y1="519.2" x2="250.1" y2="488.8" stroke="#8fa3b8" stroke-width="1"/>
<line x1="250.1" y1="488.8" x2="493.9" y2="488.8" stroke="#8fa3b8" stroke-width="1"/>
<line x1="280.8" y1="488.8" x2="280.8" y2="519.2" stroke="#8fa3b8" stroke-width="1"/>
<rect x="256.3" y="495.0" width="18.0" height="18.0" rx="0" fill="#d4b03c"/>
<circle cx="265.3" cy="504.0" r="6.0" fill="#10141a"/>
<circle cx="295.8" cy="504.0" r="9.0" fill="#d4b03c"/>
<circle cx="295.8" cy="504.0" r="6.0" fill="#10141a"/>
<circle cx="326.3" cy="504.0" r="9.0" fill="#d4b03c"/>
<circle cx="326.3" cy="504.0" r="6.0" fill="#10141a"/>
<circle cx="356.8" cy="504.0" r="9.0" fill="#d4b03c"/>
<circle cx="356.8" cy="504.0" r="6.0" fill="#10141a"/>
<circle cx="387.2" cy="504.0" r="9.0" fill="#d4b03c"/>
<circle cx="387.2" cy="504.0" r="6.0" fill="#10141a"/>
<circle cx="417.7" cy="504.0" r="9.0" fill="#d4b03c"/>
<circle cx="417.7" cy="504.0" r="6.0" fill="#10141a"/>
<circle cx="448.2" cy="504.0" r="9.0" fill="#d4b03c"/>
<circle cx="448.2" cy="504.0" r="6.0" fill="#10141a"/>
<circle cx="478.7" cy="504.0" r="9.0" fill="#d4b03c"/>
<circle cx="478.7" cy="504.0" r="6.0" fill="#10141a"/>
<text x="372.0" y="501.0" fill="#e8e0d0" font-size="9" text-anchor="middle">J5</text>
<line x1="495.6" y1="117.4" x2="495.6" y2="108.0" stroke="#8fa3b8" stroke-width="1"/>
<line x1="495.6" y1="108.0" x2="507.6" y2="108.0" stroke="#8fa3b8" stroke-width="1"/>
<line x1="512.4" y1="129.7" x2="512.4" y2="122.2" stroke="#8fa3b8" stroke-width="1"/>
<line x1="495.6" y1="144.0" x2="495.6" y2="134.5" stroke="#8fa3b8" stroke-width="1"/>
<line x1="495.6" y1="144.0" x2="507.6" y2="144.0" stroke="#8fa3b8" stroke-width="1"/>
<rect x="511.8" y="109.8" width="12.0" height="9.6" rx="0" fill="#c87533"/>
<rect x="484.2" y="121.2" width="12.0" height="9.6" rx="0" fill="#c87533"/>
<rect x="511.8" y="132.6" width="12.0" height="9.6" rx="0" fill="#c87533"/>
<text x="504.0" y="123.0" fill="#e8e0d0" font-size="9" text-anchor="middle">Q1</text>
<line x1="455.2" y1="103.9" x2="466.7" y2="103.9" stroke="#8fa3b8" stroke-width="1"/>
<line x1="466.7" y1="103.9" x2="466.7" y2="88.1" stroke="#8fa3b8" stroke-width="1"/>
<line x1="466.7" y1="88.1" x2="455.2" y2="88.1" stroke="#8fa3b8" stroke-width="1"/>
<line x1="444.8" y1="103.9" x2="433.3" y2="103.9" stroke="#8fa3b8" stroke-width="1"/>
<line x1="433.3" y1="103.9" x2="433.3" y2="88.1" stroke="#8fa3b8" stroke-width="1"/>
<line x1="433.3" y1="88.1" x2="444.8" y2="88.1" stroke="#8fa3b8" stroke-width="1"/>
<rect x="454.1" y="90.8" width="9.7" height="10.3" rx="0" fill="#c87533"/>
<rect x="436.1" y="90.8" width="9.7" height="10.3" rx="0" fill="#c87533"/>
<text x="450.0" y="93.0" fill="#e8e0d0" font-size="9" text-anchor="middle">R5</text>
<line x1="455.2" y1="159.1" x2="466.7" y2="159.1" stroke="#8fa3b8" stroke-width="1"/>
<line x1="466.7" y1="159.1" x2="466.7" y2="143.3" stroke="#8fa3b8" stroke-width="1"/>
<line x1="466.7" y1="143.3" x2="455.2" y2="143.3" stroke="#8fa3b8" stroke-width="1"/>
<line x1="444.8" y1="159.1" x2="433.3" y2="159.1" stroke="#8fa3b8" stroke-width="1"/>
<line x1="433.3" y1="159.1" x2="433.3" y2="143.3" stroke="#8fa3b8" stroke-width="1"/>
<line x1="433.3" y1="143.3" x2="444.8" y2="143.3" stroke="#8fa3b8" stroke-width="1"/>
<rect x="454.1" y="146.0" width="9.7" height="10.3" rx="0" fill="#c87533"/>
<rect x="436.1" y="146.0" width="9.7" height="10.3" rx="0" fill="#c87533"/>
<text x="450.0" y="148.2" fill="#e8e0d0" font-size="9" text-anchor="middle">R6</text>
<line x1="662.6" y1="673.3" x2="662.6" y2="624.2" stroke="#8fa3b8" stroke-width="1"/>
<line x1="662.6" y1="624.2" x2="562.9" y2="624.2" stroke="#8fa3b8" stroke-width="1"/>
<line x1="562.9" y1="624.2" x2="537.2" y2="649.8" stroke="#8fa3b8" stroke-width="1"/>
<line x1="537.2" y1="649.8" x2="537.2" y2="673.3" stroke="#8fa3b8" stroke-width="1"/>
<line x1="662.6" y1="700.4" x2="662.6" y2="749.6" stroke="#8fa3b8" stroke-width="1"/>
<line x1="662.6" y1="749.6" x2="562.9" y2="749.6" stroke="#8fa3b8" stroke-width="1"/>
<line x1="562.9" y1="749.6" x2="537.2" y2="724.0" stroke="#8fa3b8" stroke-width="1"/>
<line x1="537.2" y1="724.0" x2="537.2" y2="700.5" stroke="#8fa3b8" stroke-width="1"/>
<rect x="627.0" y="677.0" width="54.0" height="19.8" rx="0" fill="#c87533"/>
<rect x="519.0" y="677.0" width="54.0" height="19.8" rx="0" fill="#c87533"/>
<text x="600.0" y="683.9" fill="#e8e0d0" font-size="9" text-anchor="middle">C6</text>
<line x1="508.6" y1="734.1" x2="490.8" y2="733.2" stroke="#8fa3b8" stroke-width="1"/>
<line x1="490.8" y1="754.8" x2="508.6" y2="753.9" stroke="#8fa3b8" stroke-width="1"/>
<line x1="508.6" y1="753.9" x2="508.6" y2="734.1" stroke="#8fa3b8" stroke-width="1"/>
<line x1="463.4" y1="734.1" x2="481.2" y2="733.2" stroke="#8fa3b8" stroke-width="1"/>
<line x1="481.2" y1="754.8" x2="463.4" y2="753.9" stroke="#8fa3b8" stroke-width="1"/>
<line x1="463.4" y1="753.9" x2="463.4" y2="734.1" stroke="#8fa3b8" stroke-width="1"/>
<rect x="489.5" y="735.9" width="16.9" height="16.2" rx="0" fill="#c87533"/>
<rect x="465.5" y="735.9" width="16.9" height="16.2" rx="0" fill="#c87533"/>
<text x="486.0" y="741.0" fill="#e8e0d0" font-size="9" text-anchor="middle">C7</text>
<line x1="546.2" y1="269.4" x2="557.8" y2="269.4" stroke="#8fa3b8" stroke-width="1"/>
<line x1="546.2" y1="306.6" x2="557.8" y2="306.6" stroke="#8fa3b8" stroke-width="1"/>
<rect x="561.6" y="273.0" width="13.2" height="7.2" rx="0" fill="#c87533"/>
<rect x="561.6" y="284.4" width="13.2" height="7.2" rx="0" fill="#c87533"/>
<rect x="561.6" y="295.8" width="13.2" height="7.2" rx="0" fill="#c87533"/>
<rect x="529.2" y="295.8" width="13.2" height="7.2" rx="0" fill="#c87533"/>
<rect x="529.2" y="284.4" width="13.2" height="7.2" rx="0" fill="#c87533"/>
<rect x="529.2" y="273.0" width="13.2" height="7.2" rx="0" fill="#c87533"/>
<text x="552.0" y="285.0" fill="#e8e0d0" font-size="9" text-anchor="middle">U1</text>
<line x1="615.9" y1="310.6" x2="616.8" y2="292.8" stroke="#8fa3b8" stroke-width="1"/>
<line x1="595.2" y1="292.8" x2="596.1" y2="310.6" stroke="#8fa3b8" stroke-width="1"/>
<line x1="596.1" y1="310.6" x2="615.9" y2="310.6" stroke="#8fa3b8" stroke-width="1"/>
<line x1="615.9" y1="265.4" x2="616.8" y2="283.2" stroke="#8fa3b8" stroke-width="1"/>
<line x1="595.2" y1="283.2" x2="596.1" y2="265.4" stroke="#8fa3b8" stroke-width="1"/>
<line x1="596.1" y1="265.4" x2="615.9" y2="265.4" stroke="#8fa3b8" stroke-width="1"/>
<rect x="597.5" y="291.9" width="16.9" height="16.2" rx="0" fill="#c87533"/>
<rect x="597.5" y="267.9" width="16.9" height="16.2" rx="0" fill="#c87533"/>
<text x="606.0" y="285.0" fill="#e8e0d0" font-size="9" text-anchor="middle">C2</text>
<line x1="548.6" y1="334.9" x2="539.0" y2="334.9" stroke="#8fa3b8" stroke-width="1"/>
<line x1="555.4" y1="334.9" x2="565.0" y2="334.9" stroke="#8fa3b8" stroke-width="1"/>
<line x1="548.6" y1="317.9" x2="539.0" y2="317.9" stroke="#8fa3b8" stroke-width="1"/>
<line x1="555.4" y1="317.9" x2="565.0" y2="317.9" stroke="#8fa3b8" stroke-width="1"/>
<line x1="535.3" y1="331.2" x2="535.3" y2="321.6" stroke="#8fa3b8" stroke-width="1"/>
<line x1="568.7" y1="321.6" x2="568.7" y2="331.2" stroke="#8fa3b8" stroke-width="1"/>
<rect x="555.6" y="321.0" width="9.6" height="10.8" rx="0" fill="#c87533"/>
<rect x="538.8" y="321.0" width="9.6" height="10.8" rx="0" fill="#c87533"/>
<text x="552.0" y="323.4" fill="#e8e0d0" font-size="9" text-anchor="middle">C5</text>
<line x1="611.6" y1="324.9" x2="611.6" y2="324.7" stroke="#8fa3b8" stroke-width="1"/>
<line x1="611.6" y1="324.7" x2="658.7" y2="325.1" stroke="#8fa3b8" stroke-width="1"/>
<line x1="672.4" y1="323.6" x2="672.4" y2="325.3" stroke="#8fa3b8" stroke-width="1"/>
<line x1="611.6" y1="383.1" x2="611.6" y2="383.3" stroke="#8fa3b8" stroke-width="1"/>
<line x1="611.6" y1="383.3" x2="658.7" y2="382.9" stroke="#8fa3b8" stroke-width="1"/>
<line x1="672.4" y1="384.4" x2="672.4" y2="382.7" stroke="#8fa3b8" stroke-width="1"/>
<rect x="653.3" y="328.7" width="25.4" height="50.6" rx="0" fill="#c87533"/>
<rect x="605.3" y="328.7" width="25.4" height="50.6" rx="0" fill="#c87533"/>
<text x="642.0" y="351.0" fill="#e8e0d0" font-size="9" text-anchor="middle">L1</text>
<line x1="604.6" y1="404.1" x2="586.8" y2="403.2" stroke="#8fa3b8" stroke-width="1"/>
<line x1="586.8" y1="424.8" x2="604.6" y2="423.9" stroke="#8fa3b8" stroke-width="1"/>
<line x1="604.6" y1="423.9" x2="604.6" y2="404.1" stroke="#8fa3b8" stroke-width="1"/>
<line x1="559.4" y1="404.1" x2="577.2" y2="403.2" stroke="#8fa3b8" stroke-width="1"/>
<line x1="577.2" y1="424.8" x2="559.4" y2="423.9" stroke="#8fa3b8" stroke-width="1"/>
<line x1="559.4" y1="423.9" x2="559.4" y2="404.1" stroke="#8fa3b8" stroke-width="1"/>
<rect x="585.5" y="405.9" width="16.9" height="16.2" rx="0" fill="#c87533"/>
<rect x="561.5" y="405.9" width="16.9" height="16.2" rx="0" fill="#c87533"/>
<text x="582.0" y="411.0" fill="#e8e0d0" font-size="9" text-anchor="middle">C3</text>
<line x1="664.6" y1="404.1" x2="646.8" y2="403.2" stroke="#8fa3b8" stroke-width="1"/>
<line x1="646.8" y1="424.8" x2="664.6" y2="423.9" stroke="#8fa3b8" stroke-width="1"/>
<line x1="664.6" y1="423.9" x2="664.6" y2="404.1" stroke="#8fa3b8" stroke-width="1"/>
<line x1="619.4" y1="404.1" x2="637.2" y2="403.2" stroke="#8fa3b8" stroke-width="1"/>
<line x1="637.2" y1="424.8" x2="619.4" y2="423.9" stroke="#8fa3b8" stroke-width="1"/>
<line x1="619.4" y1="423.9" x2="619.4" y2="404.1" stroke="#8fa3b8" stroke-width="1"/>
<rect x="645.5" y="405.9" width="16.9" height="16.2" rx="0" fill="#c87533"/>
<rect x="621.5" y="405.9" width="16.9" height="16.2" rx="0" fill="#c87533"/>
<text x="642.0" y="411.0" fill="#e8e0d0" font-size="9" text-anchor="middle">C4</text>
<line x1="521.2" y1="391.9" x2="532.7" y2="391.9" stroke="#8fa3b8" stroke-width="1"/>
<line x1="532.7" y1="391.9" x2="532.7" y2="376.1" stroke="#8fa3b8" stroke-width="1"/>
<line x1="532.7" y1="376.1" x2="521.2" y2="376.1" stroke="#8fa3b8" stroke-width="1"/>
<line x1="510.8" y1="391.9" x2="499.3" y2="391.9" stroke="#8fa3b8" stroke-width="1"/>
<line x1="499.3" y1="391.9" x2="499.3" y2="376.1" stroke="#8fa3b8" stroke-width="1"/>
<line x1="499.3" y1="376.1" x2="510.8" y2="376.1" stroke="#8fa3b8" stroke-width="1"/>
<rect x="520.1" y="378.8" width="9.7" height="10.3" rx="0" fill="#c87533"/>
<rect x="502.1" y="378.8" width="9.7" height="10.3" rx="0" fill="#c87533"/>
<text x="516.0" y="381.0" fill="#e8e0d0" font-size="9" text-anchor="middle">R3</text>
<line x1="521.2" y1="421.9" x2="532.7" y2="421.9" stroke="#8fa3b8" stroke-width="1"/>
<line x1="532.7" y1="421.9" x2="532.7" y2="406.1" stroke="#8fa3b8" stroke-width="1"/>
<line x1="532.7" y1="406.1" x2="521.2" y2="406.1" stroke="#8fa3b8" stroke-width="1"/>
<line x1="510.8" y1="421.9" x2="499.3" y2="421.9" stroke="#8fa3b8" stroke-width="1"/>
<line x1="499.3" y1="421.9" x2="499.3" y2="406.1" stroke="#8fa3b8" stroke-width="1"/>
<line x1="499.3" y1="406.1" x2="510.8" y2="406.1" stroke="#8fa3b8" stroke-width="1"/>
<rect x="520.1" y="408.8" width="9.7" height="10.3" rx="0" fill="#c87533"/>
<rect x="502.1" y="408.8" width="9.7" height="10.3" rx="0" fill="#c87533"/>
<text x="516.0" y="411.0" fill="#e8e0d0" font-size="9" text-anchor="middle">R4</text>
<line x1="479.2" y1="247.9" x2="490.7" y2="247.9" stroke="#8fa3b8" stroke-width="1"/>
<line x1="490.7" y1="247.9" x2="490.7" y2="232.1" stroke="#8fa3b8" stroke-width="1"/>
<line x1="490.7" y1="232.1" x2="479.2" y2="232.1" stroke="#8fa3b8" stroke-width="1"/>
<line x1="468.8" y1="247.9" x2="457.3" y2="247.9" stroke="#8fa3b8" stroke-width="1"/>
<line x1="457.3" y1="247.9" x2="457.3" y2="232.1" stroke="#8fa3b8" stroke-width="1"/>
<line x1="457.3" y1="232.1" x2="468.8" y2="232.1" stroke="#8fa3b8" stroke-width="1"/>
<rect x="478.1" y="234.8" width="9.7" height="10.3" rx="0" fill="#c87533"/>
<rect x="460.1" y="234.8" width="9.7" height="10.3" rx="0" fill="#c87533"/>
<text x="474.0" y="237.0" fill="#e8e0d0" font-size="9" text-anchor="middle">R1</text>
<line x1="479.2" y1="283.9" x2="490.7" y2="283.9" stroke="#8fa3b8" stroke-width="1"/>
<line x1="490.7" y1="283.9" x2="490.7" y2="268.1" stroke="#8fa3b8" stroke-width="1"/>
<line x1="490.7" y1="268.1" x2="479.2" y2="268.1" stroke="#8fa3b8" stroke-width="1"/>
<line x1="468.8" y1="283.9" x2="457.3" y2="283.9" stroke="#8fa3b8" stroke-width="1"/>
<line x1="457.3" y1="283.9" x2="457.3" y2="268.1" stroke="#8fa3b8" stroke-width="1"/>
<line x1="457.3" y1="268.1" x2="468.8" y2="268.1" stroke="#8fa3b8" stroke-width="1"/>
<rect x="478.1" y="270.8" width="9.7" height="10.3" rx="0" fill="#c87533"/>
<rect x="460.1" y="270.8" width="9.7" height="10.3" rx="0" fill="#c87533"/>
<text x="474.0" y="273.0" fill="#e8e0d0" font-size="9" text-anchor="middle">R2</text>
<line x1="692.6" y1="422.5" x2="683.0" y2="422.5" stroke="#8fa3b8" stroke-width="1"/>
<line x1="699.4" y1="422.5" x2="709.0" y2="422.5" stroke="#8fa3b8" stroke-width="1"/>
<line x1="692.6" y1="405.5" x2="683.0" y2="405.5" stroke="#8fa3b8" stroke-width="1"/>
<line x1="699.4" y1="405.5" x2="709.0" y2="405.5" stroke="#8fa3b8" stroke-width="1"/>
<line x1="679.3" y1="418.8" x2="679.3" y2="409.2" stroke="#8fa3b8" stroke-width="1"/>
<line x1="712.7" y1="409.2" x2="712.7" y2="418.8" stroke="#8fa3b8" stroke-width="1"/>
<rect x="699.6" y="408.6" width="9.6" height="10.8" rx="0" fill="#c87533"/>
<rect x="682.8" y="408.6" width="9.6" height="10.8" rx="0" fill="#c87533"/>
<text x="696.0" y="411.0" fill="#e8e0d0" font-size="9" text-anchor="middle">C1</text>
<line x1="661.3" y1="254.4" x2="661.2" y2="254.3" stroke="#8fa3b8" stroke-width="1"/>
<line x1="661.1" y1="254.1" x2="661.0" y2="253.9" stroke="#8fa3b8" stroke-width="1"/>
<line x1="662.6" y1="247.9" x2="662.6" y2="247.9" stroke="#8fa3b8" stroke-width="1"/>
<line x1="662.6" y1="247.9" x2="661.0" y2="253.8" stroke="#8fa3b8" stroke-width="1"/>
<line x1="662.6" y1="247.9" x2="661.0" y2="253.8" stroke="#8fa3b8" stroke-width="1"/>
<line x1="660.6" y1="243.0" x2="676.7" y2="243.0" stroke="#8fa3b8" stroke-width="1"/>
<line x1="660.6" y1="261.0" x2="676.7" y2="260.9" stroke="#8fa3b8" stroke-width="1"/>
<line x1="676.7" y1="243.0" x2="676.7" y2="260.9" stroke="#8fa3b8" stroke-width="1"/>
<line x1="660.6" y1="261.0" x2="645.7" y2="261.0" stroke="#8fa3b8" stroke-width="1"/>
<line x1="642.1" y1="256.8" x2="642.1" y2="256.8" stroke="#8fa3b8" stroke-width="1"/>
<line x1="642.1" y1="256.8" x2="645.7" y2="261.0" stroke="#8fa3b8" stroke-width="1"/>
<line x1="642.1" y1="247.2" x2="642.1" y2="256.8" stroke="#8fa3b8" stroke-width="1"/>
<line x1="642.1" y1="247.2" x2="642.1" y2="247.2" stroke="#8fa3b8" stroke-width="1"/>
<line x1="642.1" y1="247.2" x2="645.7" y2="243.0" stroke="#8fa3b8" stroke-width="1"/>
<line x1="660.6" y1="243.0" x2="645.7" y2="243.0" stroke="#8fa3b8" stroke-width="1"/>
<line x1="661.0" y1="253.7" x2="661.0" y2="253.8" stroke="#8fa3b8" stroke-width="1"/>
<rect x="664.2" y="247.2" width="9.6" height="9.6" rx="0" fill="#c87533"/>
<rect x="646.2" y="247.2" width="9.6" height="9.6" rx="0" fill="#c87533"/>
<text x="660.0" y="249.0" fill="#e8e0d0" font-size="9" text-anchor="middle">D1</text>
<line x1="665.2" y1="223.9" x2="676.7" y2="223.9" stroke="#8fa3b8" stroke-width="1"/>
<line x1="676.7" y1="223.9" x2="676.7" y2="208.1" stroke="#8fa3b8" stroke-width="1"/>
<line x1="676.7" y1="208.1" x2="665.2" y2="208.1" stroke="#8fa3b8" stroke-width="1"/>
<line x1="654.8" y1="223.9" x2="643.3" y2="223.9" stroke="#8fa3b8" stroke-width="1"/>
<line x1="643.3" y1="223.9" x2="643.3" y2="208.1" stroke="#8fa3b8" stroke-width="1"/>
<line x1="643.3" y1="208.1" x2="654.8" y2="208.1" stroke="#8fa3b8" stroke-width="1"/>
<rect x="664.1" y="210.8" width="9.7" height="10.3" rx="0" fill="#c87533"/>
<rect x="646.1" y="210.8" width="9.7" height="10.3" rx="0" fill="#c87533"/>
<text x="660.0" y="213.0" fill="#e8e0d0" font-size="9" text-anchor="middle">R7</text>
<line x1="233.2" y1="367.9" x2="244.7" y2="367.9" stroke="#8fa3b8" stroke-width="1"/>
<line x1="244.7" y1="367.9" x2="244.7" y2="352.1" stroke="#8fa3b8" stroke-width="1"/>
<line x1="244.7" y1="352.1" x2="233.2" y2="352.1" stroke="#8fa3b8" stroke-width="1"/>
<line x1="222.8" y1="367.9" x2="211.3" y2="367.9" stroke="#8fa3b8" stroke-width="1"/>
<line x1="211.3" y1="367.9" x2="211.3" y2="352.1" stroke="#8fa3b8" stroke-width="1"/>
<line x1="211.3" y1="352.1" x2="222.8" y2="352.1" stroke="#8fa3b8" stroke-width="1"/>
<rect x="232.1" y="354.8" width="9.7" height="10.3" rx="0" fill="#c87533"/>
<rect x="214.1" y="354.8" width="9.7" height="10.3" rx="0" fill="#c87533"/>
<text x="228.0" y="357.0" fill="#e8e0d0" font-size="9" text-anchor="middle">R8</text>
<circle cx="210.0" cy="240.0" r="3.6" fill="#d4b03c"/><circle cx="210.0" cy="240.0" r="1.8" fill="#10141a"/>
<circle cx="84.0" cy="600.0" r="3.6" fill="#d4b03c"/><circle cx="84.0" cy="600.0" r="1.8" fill="#10141a"/>
<circle cx="432.0" cy="240.0" r="3.6" fill="#d4b03c"/><circle cx="432.0" cy="240.0" r="1.8" fill="#10141a"/>
<circle cx="432.0" cy="600.0" r="3.6" fill="#d4b03c"/><circle cx="432.0" cy="600.0" r="1.8" fill="#10141a"/>
<circle cx="624.0" cy="540.0" r="3.6" fill="#d4b03c"/><circle cx="624.0" cy="540.0" r="1.8" fill="#10141a"/>
<circle cx="624.0" cy="240.0" r="3.6" fill="#d4b03c"/><circle cx="624.0" cy="240.0" r="1.8" fill="#10141a"/>
<circle cx="240.0" cy="864.0" r="3.6" fill="#d4b03c"/><circle cx="240.0" cy="864.0" r="1.8" fill="#10141a"/>
<circle cx="528.0" cy="864.0" r="3.6" fill="#d4b03c"/><circle cx="528.0" cy="864.0" r="1.8" fill="#10141a"/>
<circle cx="424.8" cy="96.0" r="3.6" fill="#d4b03c"/><circle cx="424.8" cy="96.0" r="1.8" fill="#10141a"/>
<circle cx="535.2" cy="163.2" r="3.6" fill="#d4b03c"/><circle cx="535.2" cy="163.2" r="1.8" fill="#10141a"/>
<circle cx="499.2" cy="199.2" r="3.6" fill="#d4b03c"/><circle cx="499.2" cy="199.2" r="1.8" fill="#10141a"/>
<circle cx="444.0" cy="223.2" r="3.6" fill="#d4b03c"/><circle cx="444.0" cy="223.2" r="1.8" fill="#10141a"/>
<circle cx="606.0" cy="252.0" r="3.6" fill="#d4b03c"/><circle cx="606.0" cy="252.0" r="1.8" fill="#10141a"/>
<circle cx="546.0" cy="648.0" r="3.6" fill="#d4b03c"/><circle cx="546.0" cy="648.0" r="1.8" fill="#10141a"/>
<circle cx="535.2" cy="718.8" r="3.6" fill="#d4b03c"/><circle cx="535.2" cy="718.8" r="1.8" fill="#10141a"/>
<circle cx="516.0" cy="276.6" r="3.6" fill="#d4b03c"/><circle cx="516.0" cy="276.6" r="1.8" fill="#10141a"/>
<circle cx="516.0" cy="360.0" r="3.6" fill="#d4b03c"/><circle cx="516.0" cy="360.0" r="1.8" fill="#10141a"/>
<circle cx="480.0" cy="372.0" r="3.6" fill="#d4b03c"/><circle cx="480.0" cy="372.0" r="1.8" fill="#10141a"/>
<circle cx="112.8" cy="100.6" r="3.6" fill="#d4b03c"/><circle cx="112.8" cy="100.6" r="1.8" fill="#10141a"/>
<circle cx="295.8" cy="432.0" r="3.6" fill="#d4b03c"/><circle cx="295.8" cy="432.0" r="1.8" fill="#10141a"/>
<circle cx="96.0" cy="131.0" r="3.6" fill="#d4b03c"/><circle cx="96.0" cy="131.0" r="1.8" fill="#10141a"/>
<circle cx="265.3" cy="448.8" r="3.6" fill="#d4b03c"/><circle cx="265.3" cy="448.8" r="1.8" fill="#10141a"/>
<circle cx="79.2" cy="161.5" r="3.6" fill="#d4b03c"/><circle cx="79.2" cy="161.5" r="1.8" fill="#10141a"/>
<circle cx="219.0" cy="331.2" r="3.6" fill="#d4b03c"/><circle cx="219.0" cy="331.2" r="1.8" fill="#10141a"/>
<line x1="673.8" y1="183.6" x2="634.2" y2="128.4" stroke="#4fd1c5" stroke-width="0.8" opacity="0.6"/>
<line x1="634.2" y1="128.4" x2="132.0" y2="798.0" stroke="#4fd1c5" stroke-width="0.8" opacity="0.6"/>
<line x1="132.0" y1="798.0" x2="326.9" y2="131.0" stroke="#4fd1c5" stroke-width="0.8" opacity="0.6"/>
<line x1="326.9" y1="131.0" x2="265.3" y2="686.9" stroke="#4fd1c5" stroke-width="0.8" opacity="0.6"/>
<line x1="265.3" y1="686.9" x2="448.2" y2="686.9" stroke="#4fd1c5" stroke-width="0.8" opacity="0.6"/>
<line x1="448.2" y1="686.9" x2="387.2" y2="504.0" stroke="#4fd1c5" stroke-width="0.8" opacity="0.6"/>
<line x1="387.2" y1="504.0" x2="417.7" y2="504.0" stroke="#4fd1c5" stroke-width="0.8" opacity="0.6"/>
<line x1="417.7" y1="504.0" x2="448.2" y2="504.0" stroke="#4fd1c5" stroke-width="0.8" opacity="0.6"/>
<line x1="448.2" y1="504.0" x2="459.0" y2="151.2" stroke="#4fd1c5" stroke-width="0.8" opacity="0.6"/>
<line x1="459.0" y1="151.2" x2="654.0" y2="686.9" stroke="#4fd1c5" stroke-width="0.8" opacity="0.6"/>
<line x1="654.0" y1="686.9" x2="498.0" y2="744.0" stroke="#4fd1c5" stroke-width="0.8" opacity="0.6"/>
<line x1="498.0" y1="744.0" x2="568.2" y2="299.4" stroke="#4fd1c5" stroke-width="0.8" opacity="0.6"/>
<line x1="568.2" y1="299.4" x2="606.0" y2="300.0" stroke="#4fd1c5" stroke-width="0.8" opacity="0.6"/>
<line x1="606.0" y1="300.0" x2="594.0" y2="414.0" stroke="#4fd1c5" stroke-width="0.8" opacity="0.6"/>
<line x1="594.0" y1="414.0" x2="654.0" y2="414.0" stroke="#4fd1c5" stroke-width="0.8" opacity="0.6"/>
<line x1="654.0" y1="414.0" x2="525.0" y2="414.0" stroke="#4fd1c5" stroke-width="0.8" opacity="0.6"/>
<line x1="525.0" y1="414.0" x2="483.0" y2="276.0" stroke="#4fd1c5" stroke-width="0.8" opacity="0.6"/>
<line x1="483.0" y1="276.0" x2="704.4" y2="414.0" stroke="#4fd1c5" stroke-width="0.8" opacity="0.6"/>
<line x1="704.4" y1="414.0" x2="651.0" y2="252.0" stroke="#4fd1c5" stroke-width="0.8" opacity="0.6"/>
<text x="204.0" y="381.6" fill="#dfe7ef" font-size="9.2" text-anchor="middle" opacity="0.75">SPLIT-FLAP DRIVER v2</text>
<text x="204.0" y="403.2" fill="#dfe7ef" font-size="7.6" text-anchor="middle" opacity="0.75">NEMA 14 / TMC2209</text>
<text x="235.2" y="36.0" fill="#dfe7ef" font-size="8.4" text-anchor="middle" opacity="0.75">XIAO ESP32-C6</text>
<text x="235.2" y="60.0" fill="#dfe7ef" font-size="6.7" text-anchor="middle" opacity="0.75">USB ^</text>
<text x="180.0" y="436.8" fill="#dfe7ef" font-size="6.7" text-anchor="middle" opacity="0.75">STEP=D0 DIR=D1 EN=D2</text>
<text x="180.0" y="458.4" fill="#dfe7ef" font-size="6.7" text-anchor="middle" opacity="0.75">PDN=D6 (1k)  HALL DO=D8</text>
<text x="606.0" y="52.8" fill="#dfe7ef" font-size="8.4" text-anchor="middle" opacity="0.75">12V IN</text>
<text x="606.0" y="31.2" fill="#dfe7ef" font-size="6.7" text-anchor="middle" opacity="0.75">+ CENTRE</text>
<text x="696.0" y="288.0" fill="#dfe7ef" font-size="6.7" text-anchor="middle" opacity="0.75">5V</text>
<text x="372.0" y="468.0" fill="#dfe7ef" font-size="8.4" text-anchor="middle" opacity="0.75">TMC2209 StepStick</text>
<text x="372.0" y="597.6" fill="#dfe7ef" font-size="6.7" text-anchor="middle" opacity="0.75">PIN 1 / PIN 9 THIS END ></text>
<text x="372.0" y="619.2" fill="#dfe7ef" font-size="6.7" text-anchor="middle" opacity="0.75">MS1 MS2 SPRD = GND</text>
<text x="600.0" y="592.8" fill="#dfe7ef" font-size="6.7" text-anchor="middle" opacity="0.75">VM BULK 470u</text>
<text x="360.0" y="768.0" fill="#dfe7ef" font-size="8.4" text-anchor="middle" opacity="0.75">MOTOR</text>
<text x="315.0" y="790.8" fill="#dfe7ef" font-size="6.7" text-anchor="middle" opacity="0.75">B2</text>
<text x="345.0" y="790.8" fill="#dfe7ef" font-size="6.7" text-anchor="middle" opacity="0.75">B1</text>
<text x="375.0" y="790.8" fill="#dfe7ef" font-size="6.7" text-anchor="middle" opacity="0.75">A2</text>
<text x="405.0" y="790.8" fill="#dfe7ef" font-size="6.7" text-anchor="middle" opacity="0.75">A1</text>
<text x="132.0" y="738.0" fill="#dfe7ef" font-size="8.4" text-anchor="middle" opacity="0.75">HALL</text>
<text x="132.0" y="759.6" fill="#dfe7ef" font-size="6.7" text-anchor="middle" opacity="0.75">5V GND DO</text>
<text x="168.0" y="895.2" fill="#dfe7ef" font-size="7.6" text-anchor="middle" opacity="0.75">Designed by 0x63616c</text>
<text x="372.0" y="-14" fill="#e8e0d0" font-size="14" text-anchor="middle">split-flap driver v2 — 62x76mm — red=F.Cu blue=B.Cu</text>
</svg>