%TF.GenerationSoftware,KiCad,Pcbnew,10.0.4*%
%TF.CreationDate,2026-07-19T09:17:58-07:00*%
%TF.ProjectId,filled,66696c6c-6564-42e6-9b69-6361645f7063,rev?*%
%TF.SameCoordinates,Original*%
%TF.FileFunction,Legend,Top*%
%TF.FilePolarity,Positive*%
%FSLAX46Y46*%
G04 Gerber Fmt 4.6, Leading zero omitted, Abs format (unit mm)*
G04 Created by KiCad (PCBNEW 10.0.4) date 2026-07-19 09:17:58*
%MOMM*%
%LPD*%
G01*
G04 APERTURE LIST*
%ADD10C,0.120000*%
%ADD11C,0.135000*%
%ADD12C,0.150000*%
%ADD13C,0.165000*%
%ADD14C,0.250000*%
%ADD15C,0.060000*%
G04 APERTURE END LIST*
D10*
X8200000Y-62863855D02*
X7819048Y-62863855D01*
X7819048Y-62863855D02*
X7780952Y-63244807D01*
X7780952Y-63244807D02*
X7819048Y-63206712D01*
X7819048Y-63206712D02*
X7895238Y-63168617D01*
X7895238Y-63168617D02*
X8085714Y-63168617D01*
X8085714Y-63168617D02*
X8161905Y-63206712D01*
X8161905Y-63206712D02*
X8200000Y-63244807D01*
X8200000Y-63244807D02*
X8238095Y-63320998D01*
X8238095Y-63320998D02*
X8238095Y-63511474D01*
X8238095Y-63511474D02*
X8200000Y-63587664D01*
X8200000Y-63587664D02*
X8161905Y-63625760D01*
X8161905Y-63625760D02*
X8085714Y-63663855D01*
X8085714Y-63663855D02*
X7895238Y-63663855D01*
X7895238Y-63663855D02*
X7819048Y-63625760D01*
X7819048Y-63625760D02*
X7780952Y-63587664D01*
X8466667Y-62863855D02*
X8733334Y-63663855D01*
X8733334Y-63663855D02*
X9000000Y-62863855D01*
X10295238Y-62901950D02*
X10219048Y-62863855D01*
X10219048Y-62863855D02*
X10104762Y-62863855D01*
X10104762Y-62863855D02*
X9990476Y-62901950D01*
X9990476Y-62901950D02*
X9914286Y-62978140D01*
X9914286Y-62978140D02*
X9876191Y-63054331D01*
X9876191Y-63054331D02*
X9838095Y-63206712D01*
X9838095Y-63206712D02*
X9838095Y-63320998D01*
X9838095Y-63320998D02*
X9876191Y-63473379D01*
X9876191Y-63473379D02*
X9914286Y-63549569D01*
X9914286Y-63549569D02*
X9990476Y-63625760D01*
X9990476Y-63625760D02*
X10104762Y-63663855D01*
X10104762Y-63663855D02*
X10180953Y-63663855D01*
X10180953Y-63663855D02*
X10295238Y-63625760D01*
X10295238Y-63625760D02*
X10333334Y-63587664D01*
X10333334Y-63587664D02*
X10333334Y-63320998D01*
X10333334Y-63320998D02*
X10180953Y-63320998D01*
X10676191Y-63663855D02*
X10676191Y-62863855D01*
X10676191Y-62863855D02*
X11133334Y-63663855D01*
X11133334Y-63663855D02*
X11133334Y-62863855D01*
X11514286Y-63663855D02*
X11514286Y-62863855D01*
X11514286Y-62863855D02*
X11704762Y-62863855D01*
X11704762Y-62863855D02*
X11819048Y-62901950D01*
X11819048Y-62901950D02*
X11895238Y-62978140D01*
X11895238Y-62978140D02*
X11933333Y-63054331D01*
X11933333Y-63054331D02*
X11971429Y-63206712D01*
X11971429Y-63206712D02*
X11971429Y-63320998D01*
X11971429Y-63320998D02*
X11933333Y-63473379D01*
X11933333Y-63473379D02*
X11895238Y-63549569D01*
X11895238Y-63549569D02*
X11819048Y-63625760D01*
X11819048Y-63625760D02*
X11704762Y-63663855D01*
X11704762Y-63663855D02*
X11514286Y-63663855D01*
X12923810Y-63663855D02*
X12923810Y-62863855D01*
X12923810Y-62863855D02*
X13114286Y-62863855D01*
X13114286Y-62863855D02*
X13228572Y-62901950D01*
X13228572Y-62901950D02*
X13304762Y-62978140D01*
X13304762Y-62978140D02*
X13342857Y-63054331D01*
X13342857Y-63054331D02*
X13380953Y-63206712D01*
X13380953Y-63206712D02*
X13380953Y-63320998D01*
X13380953Y-63320998D02*
X13342857Y-63473379D01*
X13342857Y-63473379D02*
X13304762Y-63549569D01*
X13304762Y-63549569D02*
X13228572Y-63625760D01*
X13228572Y-63625760D02*
X13114286Y-63663855D01*
X13114286Y-63663855D02*
X12923810Y-63663855D01*
X13876191Y-62863855D02*
X14028572Y-62863855D01*
X14028572Y-62863855D02*
X14104762Y-62901950D01*
X14104762Y-62901950D02*
X14180953Y-62978140D01*
X14180953Y-62978140D02*
X14219048Y-63130521D01*
X14219048Y-63130521D02*
X14219048Y-63397188D01*
X14219048Y-63397188D02*
X14180953Y-63549569D01*
X14180953Y-63549569D02*
X14104762Y-63625760D01*
X14104762Y-63625760D02*
X14028572Y-63663855D01*
X14028572Y-63663855D02*
X13876191Y-63663855D01*
X13876191Y-63663855D02*
X13800000Y-63625760D01*
X13800000Y-63625760D02*
X13723810Y-63549569D01*
X13723810Y-63549569D02*
X13685714Y-63397188D01*
X13685714Y-63397188D02*
X13685714Y-63130521D01*
X13685714Y-63130521D02*
X13723810Y-62978140D01*
X13723810Y-62978140D02*
X13800000Y-62901950D01*
X13800000Y-62901950D02*
X13876191Y-62863855D01*
X7495237Y-36725760D02*
X7609523Y-36763855D01*
X7609523Y-36763855D02*
X7799999Y-36763855D01*
X7799999Y-36763855D02*
X7876190Y-36725760D01*
X7876190Y-36725760D02*
X7914285Y-36687664D01*
X7914285Y-36687664D02*
X7952380Y-36611474D01*
X7952380Y-36611474D02*
X7952380Y-36535283D01*
X7952380Y-36535283D02*
X7914285Y-36459093D01*
X7914285Y-36459093D02*
X7876190Y-36420998D01*
X7876190Y-36420998D02*
X7799999Y-36382902D01*
X7799999Y-36382902D02*
X7647618Y-36344807D01*
X7647618Y-36344807D02*
X7571428Y-36306712D01*
X7571428Y-36306712D02*
X7533333Y-36268617D01*
X7533333Y-36268617D02*
X7495237Y-36192426D01*
X7495237Y-36192426D02*
X7495237Y-36116236D01*
X7495237Y-36116236D02*
X7533333Y-36040045D01*
X7533333Y-36040045D02*
X7571428Y-36001950D01*
X7571428Y-36001950D02*
X7647618Y-35963855D01*
X7647618Y-35963855D02*
X7838095Y-35963855D01*
X7838095Y-35963855D02*
X7952380Y-36001950D01*
X8180952Y-35963855D02*
X8638095Y-35963855D01*
X8409523Y-36763855D02*
X8409523Y-35963855D01*
X8904762Y-36344807D02*
X9171428Y-36344807D01*
X9285714Y-36763855D02*
X8904762Y-36763855D01*
X8904762Y-36763855D02*
X8904762Y-35963855D01*
X8904762Y-35963855D02*
X9285714Y-35963855D01*
X9628572Y-36763855D02*
X9628572Y-35963855D01*
X9628572Y-35963855D02*
X9933334Y-35963855D01*
X9933334Y-35963855D02*
X10009524Y-36001950D01*
X10009524Y-36001950D02*
X10047619Y-36040045D01*
X10047619Y-36040045D02*
X10085715Y-36116236D01*
X10085715Y-36116236D02*
X10085715Y-36230521D01*
X10085715Y-36230521D02*
X10047619Y-36306712D01*
X10047619Y-36306712D02*
X10009524Y-36344807D01*
X10009524Y-36344807D02*
X9933334Y-36382902D01*
X9933334Y-36382902D02*
X9628572Y-36382902D01*
X10428572Y-36344807D02*
X11038096Y-36344807D01*
X11038096Y-36573379D02*
X10428572Y-36573379D01*
X11419048Y-36763855D02*
X11419048Y-35963855D01*
X11419048Y-35963855D02*
X11609524Y-35963855D01*
X11609524Y-35963855D02*
X11723810Y-36001950D01*
X11723810Y-36001950D02*
X11800000Y-36078140D01*
X11800000Y-36078140D02*
X11838095Y-36154331D01*
X11838095Y-36154331D02*
X11876191Y-36306712D01*
X11876191Y-36306712D02*
X11876191Y-36420998D01*
X11876191Y-36420998D02*
X11838095Y-36573379D01*
X11838095Y-36573379D02*
X11800000Y-36649569D01*
X11800000Y-36649569D02*
X11723810Y-36725760D01*
X11723810Y-36725760D02*
X11609524Y-36763855D01*
X11609524Y-36763855D02*
X11419048Y-36763855D01*
X12371429Y-35963855D02*
X12447619Y-35963855D01*
X12447619Y-35963855D02*
X12523810Y-36001950D01*
X12523810Y-36001950D02*
X12561905Y-36040045D01*
X12561905Y-36040045D02*
X12600000Y-36116236D01*
X12600000Y-36116236D02*
X12638095Y-36268617D01*
X12638095Y-36268617D02*
X12638095Y-36459093D01*
X12638095Y-36459093D02*
X12600000Y-36611474D01*
X12600000Y-36611474D02*
X12561905Y-36687664D01*
X12561905Y-36687664D02*
X12523810Y-36725760D01*
X12523810Y-36725760D02*
X12447619Y-36763855D01*
X12447619Y-36763855D02*
X12371429Y-36763855D01*
X12371429Y-36763855D02*
X12295238Y-36725760D01*
X12295238Y-36725760D02*
X12257143Y-36687664D01*
X12257143Y-36687664D02*
X12219048Y-36611474D01*
X12219048Y-36611474D02*
X12180952Y-36459093D01*
X12180952Y-36459093D02*
X12180952Y-36268617D01*
X12180952Y-36268617D02*
X12219048Y-36116236D01*
X12219048Y-36116236D02*
X12257143Y-36040045D01*
X12257143Y-36040045D02*
X12295238Y-36001950D01*
X12295238Y-36001950D02*
X12371429Y-35963855D01*
X13590477Y-36763855D02*
X13590477Y-35963855D01*
X13590477Y-35963855D02*
X13780953Y-35963855D01*
X13780953Y-35963855D02*
X13895239Y-36001950D01*
X13895239Y-36001950D02*
X13971429Y-36078140D01*
X13971429Y-36078140D02*
X14009524Y-36154331D01*
X14009524Y-36154331D02*
X14047620Y-36306712D01*
X14047620Y-36306712D02*
X14047620Y-36420998D01*
X14047620Y-36420998D02*
X14009524Y-36573379D01*
X14009524Y-36573379D02*
X13971429Y-36649569D01*
X13971429Y-36649569D02*
X13895239Y-36725760D01*
X13895239Y-36725760D02*
X13780953Y-36763855D01*
X13780953Y-36763855D02*
X13590477Y-36763855D01*
X14390477Y-36763855D02*
X14390477Y-35963855D01*
X15228572Y-36763855D02*
X14961905Y-36382902D01*
X14771429Y-36763855D02*
X14771429Y-35963855D01*
X14771429Y-35963855D02*
X15076191Y-35963855D01*
X15076191Y-35963855D02*
X15152381Y-36001950D01*
X15152381Y-36001950D02*
X15190476Y-36040045D01*
X15190476Y-36040045D02*
X15228572Y-36116236D01*
X15228572Y-36116236D02*
X15228572Y-36230521D01*
X15228572Y-36230521D02*
X15190476Y-36306712D01*
X15190476Y-36306712D02*
X15152381Y-36344807D01*
X15152381Y-36344807D02*
X15076191Y-36382902D01*
X15076191Y-36382902D02*
X14771429Y-36382902D01*
X15571429Y-36344807D02*
X16180953Y-36344807D01*
X16180953Y-36573379D02*
X15571429Y-36573379D01*
X16561905Y-36763855D02*
X16561905Y-35963855D01*
X16561905Y-35963855D02*
X16752381Y-35963855D01*
X16752381Y-35963855D02*
X16866667Y-36001950D01*
X16866667Y-36001950D02*
X16942857Y-36078140D01*
X16942857Y-36078140D02*
X16980952Y-36154331D01*
X16980952Y-36154331D02*
X17019048Y-36306712D01*
X17019048Y-36306712D02*
X17019048Y-36420998D01*
X17019048Y-36420998D02*
X16980952Y-36573379D01*
X16980952Y-36573379D02*
X16942857Y-36649569D01*
X16942857Y-36649569D02*
X16866667Y-36725760D01*
X16866667Y-36725760D02*
X16752381Y-36763855D01*
X16752381Y-36763855D02*
X16561905Y-36763855D01*
X17780952Y-36763855D02*
X17323809Y-36763855D01*
X17552381Y-36763855D02*
X17552381Y-35963855D01*
X17552381Y-35963855D02*
X17476190Y-36078140D01*
X17476190Y-36078140D02*
X17400000Y-36154331D01*
X17400000Y-36154331D02*
X17323809Y-36192426D01*
X18733334Y-36344807D02*
X19000000Y-36344807D01*
X19114286Y-36763855D02*
X18733334Y-36763855D01*
X18733334Y-36763855D02*
X18733334Y-35963855D01*
X18733334Y-35963855D02*
X19114286Y-35963855D01*
X19457144Y-36763855D02*
X19457144Y-35963855D01*
X19457144Y-35963855D02*
X19914287Y-36763855D01*
X19914287Y-36763855D02*
X19914287Y-35963855D01*
X20295239Y-36344807D02*
X20904763Y-36344807D01*
X20904763Y-36573379D02*
X20295239Y-36573379D01*
X21285715Y-36763855D02*
X21285715Y-35963855D01*
X21285715Y-35963855D02*
X21476191Y-35963855D01*
X21476191Y-35963855D02*
X21590477Y-36001950D01*
X21590477Y-36001950D02*
X21666667Y-36078140D01*
X21666667Y-36078140D02*
X21704762Y-36154331D01*
X21704762Y-36154331D02*
X21742858Y-36306712D01*
X21742858Y-36306712D02*
X21742858Y-36420998D01*
X21742858Y-36420998D02*
X21704762Y-36573379D01*
X21704762Y-36573379D02*
X21666667Y-36649569D01*
X21666667Y-36649569D02*
X21590477Y-36725760D01*
X21590477Y-36725760D02*
X21476191Y-36763855D01*
X21476191Y-36763855D02*
X21285715Y-36763855D01*
X22047619Y-36040045D02*
X22085715Y-36001950D01*
X22085715Y-36001950D02*
X22161905Y-35963855D01*
X22161905Y-35963855D02*
X22352381Y-35963855D01*
X22352381Y-35963855D02*
X22428572Y-36001950D01*
X22428572Y-36001950D02*
X22466667Y-36040045D01*
X22466667Y-36040045D02*
X22504762Y-36116236D01*
X22504762Y-36116236D02*
X22504762Y-36192426D01*
X22504762Y-36192426D02*
X22466667Y-36306712D01*
X22466667Y-36306712D02*
X22009524Y-36763855D01*
X22009524Y-36763855D02*
X22504762Y-36763855D01*
X6733334Y-38563855D02*
X6733334Y-37763855D01*
X6733334Y-37763855D02*
X7038096Y-37763855D01*
X7038096Y-37763855D02*
X7114286Y-37801950D01*
X7114286Y-37801950D02*
X7152381Y-37840045D01*
X7152381Y-37840045D02*
X7190477Y-37916236D01*
X7190477Y-37916236D02*
X7190477Y-38030521D01*
X7190477Y-38030521D02*
X7152381Y-38106712D01*
X7152381Y-38106712D02*
X7114286Y-38144807D01*
X7114286Y-38144807D02*
X7038096Y-38182902D01*
X7038096Y-38182902D02*
X6733334Y-38182902D01*
X7533334Y-38563855D02*
X7533334Y-37763855D01*
X7533334Y-37763855D02*
X7723810Y-37763855D01*
X7723810Y-37763855D02*
X7838096Y-37801950D01*
X7838096Y-37801950D02*
X7914286Y-37878140D01*
X7914286Y-37878140D02*
X7952381Y-37954331D01*
X7952381Y-37954331D02*
X7990477Y-38106712D01*
X7990477Y-38106712D02*
X7990477Y-38220998D01*
X7990477Y-38220998D02*
X7952381Y-38373379D01*
X7952381Y-38373379D02*
X7914286Y-38449569D01*
X7914286Y-38449569D02*
X7838096Y-38525760D01*
X7838096Y-38525760D02*
X7723810Y-38563855D01*
X7723810Y-38563855D02*
X7533334Y-38563855D01*
X8333334Y-38563855D02*
X8333334Y-37763855D01*
X8333334Y-37763855D02*
X8790477Y-38563855D01*
X8790477Y-38563855D02*
X8790477Y-37763855D01*
X9171429Y-38144807D02*
X9780953Y-38144807D01*
X9780953Y-38373379D02*
X9171429Y-38373379D01*
X10161905Y-38563855D02*
X10161905Y-37763855D01*
X10161905Y-37763855D02*
X10352381Y-37763855D01*
X10352381Y-37763855D02*
X10466667Y-37801950D01*
X10466667Y-37801950D02*
X10542857Y-37878140D01*
X10542857Y-37878140D02*
X10580952Y-37954331D01*
X10580952Y-37954331D02*
X10619048Y-38106712D01*
X10619048Y-38106712D02*
X10619048Y-38220998D01*
X10619048Y-38220998D02*
X10580952Y-38373379D01*
X10580952Y-38373379D02*
X10542857Y-38449569D01*
X10542857Y-38449569D02*
X10466667Y-38525760D01*
X10466667Y-38525760D02*
X10352381Y-38563855D01*
X10352381Y-38563855D02*
X10161905Y-38563855D01*
X11304762Y-37763855D02*
X11152381Y-37763855D01*
X11152381Y-37763855D02*
X11076190Y-37801950D01*
X11076190Y-37801950D02*
X11038095Y-37840045D01*
X11038095Y-37840045D02*
X10961905Y-37954331D01*
X10961905Y-37954331D02*
X10923809Y-38106712D01*
X10923809Y-38106712D02*
X10923809Y-38411474D01*
X10923809Y-38411474D02*
X10961905Y-38487664D01*
X10961905Y-38487664D02*
X11000000Y-38525760D01*
X11000000Y-38525760D02*
X11076190Y-38563855D01*
X11076190Y-38563855D02*
X11228571Y-38563855D01*
X11228571Y-38563855D02*
X11304762Y-38525760D01*
X11304762Y-38525760D02*
X11342857Y-38487664D01*
X11342857Y-38487664D02*
X11380952Y-38411474D01*
X11380952Y-38411474D02*
X11380952Y-38220998D01*
X11380952Y-38220998D02*
X11342857Y-38144807D01*
X11342857Y-38144807D02*
X11304762Y-38106712D01*
X11304762Y-38106712D02*
X11228571Y-38068617D01*
X11228571Y-38068617D02*
X11076190Y-38068617D01*
X11076190Y-38068617D02*
X11000000Y-38106712D01*
X11000000Y-38106712D02*
X10961905Y-38144807D01*
X10961905Y-38144807D02*
X10923809Y-38220998D01*
X12561905Y-38868617D02*
X12523810Y-38830521D01*
X12523810Y-38830521D02*
X12447619Y-38716236D01*
X12447619Y-38716236D02*
X12409524Y-38640045D01*
X12409524Y-38640045D02*
X12371429Y-38525760D01*
X12371429Y-38525760D02*
X12333334Y-38335283D01*
X12333334Y-38335283D02*
X12333334Y-38182902D01*
X12333334Y-38182902D02*
X12371429Y-37992426D01*
X12371429Y-37992426D02*
X12409524Y-37878140D01*
X12409524Y-37878140D02*
X12447619Y-37801950D01*
X12447619Y-37801950D02*
X12523810Y-37687664D01*
X12523810Y-37687664D02*
X12561905Y-37649569D01*
X13285714Y-38563855D02*
X12828571Y-38563855D01*
X13057143Y-38563855D02*
X13057143Y-37763855D01*
X13057143Y-37763855D02*
X12980952Y-37878140D01*
X12980952Y-37878140D02*
X12904762Y-37954331D01*
X12904762Y-37954331D02*
X12828571Y-37992426D01*
X13628572Y-38563855D02*
X13628572Y-37763855D01*
X13704762Y-38259093D02*
X13933334Y-38563855D01*
X13933334Y-38030521D02*
X13628572Y-38335283D01*
X14200000Y-38868617D02*
X14238095Y-38830521D01*
X14238095Y-38830521D02*
X14314286Y-38716236D01*
X14314286Y-38716236D02*
X14352381Y-38640045D01*
X14352381Y-38640045D02*
X14390476Y-38525760D01*
X14390476Y-38525760D02*
X14428572Y-38335283D01*
X14428572Y-38335283D02*
X14428572Y-38182902D01*
X14428572Y-38182902D02*
X14390476Y-37992426D01*
X14390476Y-37992426D02*
X14352381Y-37878140D01*
X14352381Y-37878140D02*
X14314286Y-37801950D01*
X14314286Y-37801950D02*
X14238095Y-37687664D01*
X14238095Y-37687664D02*
X14200000Y-37649569D01*
X16028572Y-38563855D02*
X16028572Y-37763855D01*
X16028572Y-38144807D02*
X16485715Y-38144807D01*
X16485715Y-38563855D02*
X16485715Y-37763855D01*
X16828571Y-38335283D02*
X17209524Y-38335283D01*
X16752381Y-38563855D02*
X17019048Y-37763855D01*
X17019048Y-37763855D02*
X17285714Y-38563855D01*
X17933333Y-38563855D02*
X17552381Y-38563855D01*
X17552381Y-38563855D02*
X17552381Y-37763855D01*
X18580952Y-38563855D02*
X18200000Y-38563855D01*
X18200000Y-38563855D02*
X18200000Y-37763855D01*
X19457143Y-38563855D02*
X19457143Y-37763855D01*
X19457143Y-37763855D02*
X19647619Y-37763855D01*
X19647619Y-37763855D02*
X19761905Y-37801950D01*
X19761905Y-37801950D02*
X19838095Y-37878140D01*
X19838095Y-37878140D02*
X19876190Y-37954331D01*
X19876190Y-37954331D02*
X19914286Y-38106712D01*
X19914286Y-38106712D02*
X19914286Y-38220998D01*
X19914286Y-38220998D02*
X19876190Y-38373379D01*
X19876190Y-38373379D02*
X19838095Y-38449569D01*
X19838095Y-38449569D02*
X19761905Y-38525760D01*
X19761905Y-38525760D02*
X19647619Y-38563855D01*
X19647619Y-38563855D02*
X19457143Y-38563855D01*
X20409524Y-37763855D02*
X20561905Y-37763855D01*
X20561905Y-37763855D02*
X20638095Y-37801950D01*
X20638095Y-37801950D02*
X20714286Y-37878140D01*
X20714286Y-37878140D02*
X20752381Y-38030521D01*
X20752381Y-38030521D02*
X20752381Y-38297188D01*
X20752381Y-38297188D02*
X20714286Y-38449569D01*
X20714286Y-38449569D02*
X20638095Y-38525760D01*
X20638095Y-38525760D02*
X20561905Y-38563855D01*
X20561905Y-38563855D02*
X20409524Y-38563855D01*
X20409524Y-38563855D02*
X20333333Y-38525760D01*
X20333333Y-38525760D02*
X20257143Y-38449569D01*
X20257143Y-38449569D02*
X20219047Y-38297188D01*
X20219047Y-38297188D02*
X20219047Y-38030521D01*
X20219047Y-38030521D02*
X20257143Y-37878140D01*
X20257143Y-37878140D02*
X20333333Y-37801950D01*
X20333333Y-37801950D02*
X20409524Y-37763855D01*
X21095238Y-38144807D02*
X21704762Y-38144807D01*
X21704762Y-38373379D02*
X21095238Y-38373379D01*
X22085714Y-38563855D02*
X22085714Y-37763855D01*
X22085714Y-37763855D02*
X22276190Y-37763855D01*
X22276190Y-37763855D02*
X22390476Y-37801950D01*
X22390476Y-37801950D02*
X22466666Y-37878140D01*
X22466666Y-37878140D02*
X22504761Y-37954331D01*
X22504761Y-37954331D02*
X22542857Y-38106712D01*
X22542857Y-38106712D02*
X22542857Y-38220998D01*
X22542857Y-38220998D02*
X22504761Y-38373379D01*
X22504761Y-38373379D02*
X22466666Y-38449569D01*
X22466666Y-38449569D02*
X22390476Y-38525760D01*
X22390476Y-38525760D02*
X22276190Y-38563855D01*
X22276190Y-38563855D02*
X22085714Y-38563855D01*
X22999999Y-38106712D02*
X22923809Y-38068617D01*
X22923809Y-38068617D02*
X22885714Y-38030521D01*
X22885714Y-38030521D02*
X22847618Y-37954331D01*
X22847618Y-37954331D02*
X22847618Y-37916236D01*
X22847618Y-37916236D02*
X22885714Y-37840045D01*
X22885714Y-37840045D02*
X22923809Y-37801950D01*
X22923809Y-37801950D02*
X22999999Y-37763855D01*
X22999999Y-37763855D02*
X23152380Y-37763855D01*
X23152380Y-37763855D02*
X23228571Y-37801950D01*
X23228571Y-37801950D02*
X23266666Y-37840045D01*
X23266666Y-37840045D02*
X23304761Y-37916236D01*
X23304761Y-37916236D02*
X23304761Y-37954331D01*
X23304761Y-37954331D02*
X23266666Y-38030521D01*
X23266666Y-38030521D02*
X23228571Y-38068617D01*
X23228571Y-38068617D02*
X23152380Y-38106712D01*
X23152380Y-38106712D02*
X22999999Y-38106712D01*
X22999999Y-38106712D02*
X22923809Y-38144807D01*
X22923809Y-38144807D02*
X22885714Y-38182902D01*
X22885714Y-38182902D02*
X22847618Y-38259093D01*
X22847618Y-38259093D02*
X22847618Y-38411474D01*
X22847618Y-38411474D02*
X22885714Y-38487664D01*
X22885714Y-38487664D02*
X22923809Y-38525760D01*
X22923809Y-38525760D02*
X22999999Y-38563855D01*
X22999999Y-38563855D02*
X23152380Y-38563855D01*
X23152380Y-38563855D02*
X23228571Y-38525760D01*
X23228571Y-38525760D02*
X23266666Y-38487664D01*
X23266666Y-38487664D02*
X23304761Y-38411474D01*
X23304761Y-38411474D02*
X23304761Y-38259093D01*
X23304761Y-38259093D02*
X23266666Y-38182902D01*
X23266666Y-38182902D02*
X23228571Y-38144807D01*
X23228571Y-38144807D02*
X23152380Y-38106712D01*
X18057143Y-4563855D02*
X18057143Y-5211474D01*
X18057143Y-5211474D02*
X18095238Y-5287664D01*
X18095238Y-5287664D02*
X18133333Y-5325760D01*
X18133333Y-5325760D02*
X18209524Y-5363855D01*
X18209524Y-5363855D02*
X18361905Y-5363855D01*
X18361905Y-5363855D02*
X18438095Y-5325760D01*
X18438095Y-5325760D02*
X18476190Y-5287664D01*
X18476190Y-5287664D02*
X18514286Y-5211474D01*
X18514286Y-5211474D02*
X18514286Y-4563855D01*
X18857142Y-5325760D02*
X18971428Y-5363855D01*
X18971428Y-5363855D02*
X19161904Y-5363855D01*
X19161904Y-5363855D02*
X19238095Y-5325760D01*
X19238095Y-5325760D02*
X19276190Y-5287664D01*
X19276190Y-5287664D02*
X19314285Y-5211474D01*
X19314285Y-5211474D02*
X19314285Y-5135283D01*
X19314285Y-5135283D02*
X19276190Y-5059093D01*
X19276190Y-5059093D02*
X19238095Y-5020998D01*
X19238095Y-5020998D02*
X19161904Y-4982902D01*
X19161904Y-4982902D02*
X19009523Y-4944807D01*
X19009523Y-4944807D02*
X18933333Y-4906712D01*
X18933333Y-4906712D02*
X18895238Y-4868617D01*
X18895238Y-4868617D02*
X18857142Y-4792426D01*
X18857142Y-4792426D02*
X18857142Y-4716236D01*
X18857142Y-4716236D02*
X18895238Y-4640045D01*
X18895238Y-4640045D02*
X18933333Y-4601950D01*
X18933333Y-4601950D02*
X19009523Y-4563855D01*
X19009523Y-4563855D02*
X19200000Y-4563855D01*
X19200000Y-4563855D02*
X19314285Y-4601950D01*
X19923809Y-4944807D02*
X20038095Y-4982902D01*
X20038095Y-4982902D02*
X20076190Y-5020998D01*
X20076190Y-5020998D02*
X20114286Y-5097188D01*
X20114286Y-5097188D02*
X20114286Y-5211474D01*
X20114286Y-5211474D02*
X20076190Y-5287664D01*
X20076190Y-5287664D02*
X20038095Y-5325760D01*
X20038095Y-5325760D02*
X19961905Y-5363855D01*
X19961905Y-5363855D02*
X19657143Y-5363855D01*
X19657143Y-5363855D02*
X19657143Y-4563855D01*
X19657143Y-4563855D02*
X19923809Y-4563855D01*
X19923809Y-4563855D02*
X20000000Y-4601950D01*
X20000000Y-4601950D02*
X20038095Y-4640045D01*
X20038095Y-4640045D02*
X20076190Y-4716236D01*
X20076190Y-4716236D02*
X20076190Y-4792426D01*
X20076190Y-4792426D02*
X20038095Y-4868617D01*
X20038095Y-4868617D02*
X20000000Y-4906712D01*
X20000000Y-4906712D02*
X19923809Y-4944807D01*
X19923809Y-4944807D02*
X19657143Y-4944807D01*
X20952381Y-4640045D02*
X21104762Y-4525760D01*
X21104762Y-4525760D02*
X21257143Y-4640045D01*
X25926190Y-65844807D02*
X26040476Y-65882902D01*
X26040476Y-65882902D02*
X26078571Y-65920998D01*
X26078571Y-65920998D02*
X26116667Y-65997188D01*
X26116667Y-65997188D02*
X26116667Y-66111474D01*
X26116667Y-66111474D02*
X26078571Y-66187664D01*
X26078571Y-66187664D02*
X26040476Y-66225760D01*
X26040476Y-66225760D02*
X25964286Y-66263855D01*
X25964286Y-66263855D02*
X25659524Y-66263855D01*
X25659524Y-66263855D02*
X25659524Y-65463855D01*
X25659524Y-65463855D02*
X25926190Y-65463855D01*
X25926190Y-65463855D02*
X26002381Y-65501950D01*
X26002381Y-65501950D02*
X26040476Y-65540045D01*
X26040476Y-65540045D02*
X26078571Y-65616236D01*
X26078571Y-65616236D02*
X26078571Y-65692426D01*
X26078571Y-65692426D02*
X26040476Y-65768617D01*
X26040476Y-65768617D02*
X26002381Y-65806712D01*
X26002381Y-65806712D02*
X25926190Y-65844807D01*
X25926190Y-65844807D02*
X25659524Y-65844807D01*
X26421428Y-65540045D02*
X26459524Y-65501950D01*
X26459524Y-65501950D02*
X26535714Y-65463855D01*
X26535714Y-65463855D02*
X26726190Y-65463855D01*
X26726190Y-65463855D02*
X26802381Y-65501950D01*
X26802381Y-65501950D02*
X26840476Y-65540045D01*
X26840476Y-65540045D02*
X26878571Y-65616236D01*
X26878571Y-65616236D02*
X26878571Y-65692426D01*
X26878571Y-65692426D02*
X26840476Y-65806712D01*
X26840476Y-65806712D02*
X26383333Y-66263855D01*
X26383333Y-66263855D02*
X26878571Y-66263855D01*
X28426190Y-65844807D02*
X28540476Y-65882902D01*
X28540476Y-65882902D02*
X28578571Y-65920998D01*
X28578571Y-65920998D02*
X28616667Y-65997188D01*
X28616667Y-65997188D02*
X28616667Y-66111474D01*
X28616667Y-66111474D02*
X28578571Y-66187664D01*
X28578571Y-66187664D02*
X28540476Y-66225760D01*
X28540476Y-66225760D02*
X28464286Y-66263855D01*
X28464286Y-66263855D02*
X28159524Y-66263855D01*
X28159524Y-66263855D02*
X28159524Y-65463855D01*
X28159524Y-65463855D02*
X28426190Y-65463855D01*
X28426190Y-65463855D02*
X28502381Y-65501950D01*
X28502381Y-65501950D02*
X28540476Y-65540045D01*
X28540476Y-65540045D02*
X28578571Y-65616236D01*
X28578571Y-65616236D02*
X28578571Y-65692426D01*
X28578571Y-65692426D02*
X28540476Y-65768617D01*
X28540476Y-65768617D02*
X28502381Y-65806712D01*
X28502381Y-65806712D02*
X28426190Y-65844807D01*
X28426190Y-65844807D02*
X28159524Y-65844807D01*
X29378571Y-66263855D02*
X28921428Y-66263855D01*
X29150000Y-66263855D02*
X29150000Y-65463855D01*
X29150000Y-65463855D02*
X29073809Y-65578140D01*
X29073809Y-65578140D02*
X28997619Y-65654331D01*
X28997619Y-65654331D02*
X28921428Y-65692426D01*
X22885714Y-50163855D02*
X22885714Y-49363855D01*
X22885714Y-49363855D02*
X23190476Y-49363855D01*
X23190476Y-49363855D02*
X23266666Y-49401950D01*
X23266666Y-49401950D02*
X23304761Y-49440045D01*
X23304761Y-49440045D02*
X23342857Y-49516236D01*
X23342857Y-49516236D02*
X23342857Y-49630521D01*
X23342857Y-49630521D02*
X23304761Y-49706712D01*
X23304761Y-49706712D02*
X23266666Y-49744807D01*
X23266666Y-49744807D02*
X23190476Y-49782902D01*
X23190476Y-49782902D02*
X22885714Y-49782902D01*
X23685714Y-50163855D02*
X23685714Y-49363855D01*
X24066666Y-50163855D02*
X24066666Y-49363855D01*
X24066666Y-49363855D02*
X24523809Y-50163855D01*
X24523809Y-50163855D02*
X24523809Y-49363855D01*
X25933332Y-50163855D02*
X25476189Y-50163855D01*
X25704761Y-50163855D02*
X25704761Y-49363855D01*
X25704761Y-49363855D02*
X25628570Y-49478140D01*
X25628570Y-49478140D02*
X25552380Y-49554331D01*
X25552380Y-49554331D02*
X25476189Y-49592426D01*
X27457142Y-49325760D02*
X26771428Y-50354331D01*
X28333333Y-50163855D02*
X28333333Y-49363855D01*
X28333333Y-49363855D02*
X28638095Y-49363855D01*
X28638095Y-49363855D02*
X28714285Y-49401950D01*
X28714285Y-49401950D02*
X28752380Y-49440045D01*
X28752380Y-49440045D02*
X28790476Y-49516236D01*
X28790476Y-49516236D02*
X28790476Y-49630521D01*
X28790476Y-49630521D02*
X28752380Y-49706712D01*
X28752380Y-49706712D02*
X28714285Y-49744807D01*
X28714285Y-49744807D02*
X28638095Y-49782902D01*
X28638095Y-49782902D02*
X28333333Y-49782902D01*
X29133333Y-50163855D02*
X29133333Y-49363855D01*
X29514285Y-50163855D02*
X29514285Y-49363855D01*
X29514285Y-49363855D02*
X29971428Y-50163855D01*
X29971428Y-50163855D02*
X29971428Y-49363855D01*
X30999999Y-50163855D02*
X31152380Y-50163855D01*
X31152380Y-50163855D02*
X31228570Y-50125760D01*
X31228570Y-50125760D02*
X31266666Y-50087664D01*
X31266666Y-50087664D02*
X31342856Y-49973379D01*
X31342856Y-49973379D02*
X31380951Y-49820998D01*
X31380951Y-49820998D02*
X31380951Y-49516236D01*
X31380951Y-49516236D02*
X31342856Y-49440045D01*
X31342856Y-49440045D02*
X31304761Y-49401950D01*
X31304761Y-49401950D02*
X31228570Y-49363855D01*
X31228570Y-49363855D02*
X31076189Y-49363855D01*
X31076189Y-49363855D02*
X30999999Y-49401950D01*
X30999999Y-49401950D02*
X30961904Y-49440045D01*
X30961904Y-49440045D02*
X30923808Y-49516236D01*
X30923808Y-49516236D02*
X30923808Y-49706712D01*
X30923808Y-49706712D02*
X30961904Y-49782902D01*
X30961904Y-49782902D02*
X30999999Y-49820998D01*
X30999999Y-49820998D02*
X31076189Y-49859093D01*
X31076189Y-49859093D02*
X31228570Y-49859093D01*
X31228570Y-49859093D02*
X31304761Y-49820998D01*
X31304761Y-49820998D02*
X31342856Y-49782902D01*
X31342856Y-49782902D02*
X31380951Y-49706712D01*
X32219047Y-49363855D02*
X32676190Y-49363855D01*
X32447618Y-50163855D02*
X32447618Y-49363855D01*
X32942857Y-50163855D02*
X32942857Y-49363855D01*
X32942857Y-49744807D02*
X33400000Y-49744807D01*
X33400000Y-50163855D02*
X33400000Y-49363855D01*
X33780952Y-50163855D02*
X33780952Y-49363855D01*
X34123808Y-50125760D02*
X34238094Y-50163855D01*
X34238094Y-50163855D02*
X34428570Y-50163855D01*
X34428570Y-50163855D02*
X34504761Y-50125760D01*
X34504761Y-50125760D02*
X34542856Y-50087664D01*
X34542856Y-50087664D02*
X34580951Y-50011474D01*
X34580951Y-50011474D02*
X34580951Y-49935283D01*
X34580951Y-49935283D02*
X34542856Y-49859093D01*
X34542856Y-49859093D02*
X34504761Y-49820998D01*
X34504761Y-49820998D02*
X34428570Y-49782902D01*
X34428570Y-49782902D02*
X34276189Y-49744807D01*
X34276189Y-49744807D02*
X34199999Y-49706712D01*
X34199999Y-49706712D02*
X34161904Y-49668617D01*
X34161904Y-49668617D02*
X34123808Y-49592426D01*
X34123808Y-49592426D02*
X34123808Y-49516236D01*
X34123808Y-49516236D02*
X34161904Y-49440045D01*
X34161904Y-49440045D02*
X34199999Y-49401950D01*
X34199999Y-49401950D02*
X34276189Y-49363855D01*
X34276189Y-49363855D02*
X34466666Y-49363855D01*
X34466666Y-49363855D02*
X34580951Y-49401950D01*
X35533333Y-49744807D02*
X35799999Y-49744807D01*
X35914285Y-50163855D02*
X35533333Y-50163855D01*
X35533333Y-50163855D02*
X35533333Y-49363855D01*
X35533333Y-49363855D02*
X35914285Y-49363855D01*
X36257143Y-50163855D02*
X36257143Y-49363855D01*
X36257143Y-49363855D02*
X36714286Y-50163855D01*
X36714286Y-50163855D02*
X36714286Y-49363855D01*
X37095238Y-50163855D02*
X37095238Y-49363855D01*
X37095238Y-49363855D02*
X37285714Y-49363855D01*
X37285714Y-49363855D02*
X37400000Y-49401950D01*
X37400000Y-49401950D02*
X37476190Y-49478140D01*
X37476190Y-49478140D02*
X37514285Y-49554331D01*
X37514285Y-49554331D02*
X37552381Y-49706712D01*
X37552381Y-49706712D02*
X37552381Y-49820998D01*
X37552381Y-49820998D02*
X37514285Y-49973379D01*
X37514285Y-49973379D02*
X37476190Y-50049569D01*
X37476190Y-50049569D02*
X37400000Y-50125760D01*
X37400000Y-50125760D02*
X37285714Y-50163855D01*
X37285714Y-50163855D02*
X37095238Y-50163855D01*
X38504762Y-49630521D02*
X39114286Y-49859093D01*
X39114286Y-49859093D02*
X38504762Y-50087664D01*
X24238094Y-51963855D02*
X24238094Y-51163855D01*
X24238094Y-51163855D02*
X24504760Y-51735283D01*
X24504760Y-51735283D02*
X24771427Y-51163855D01*
X24771427Y-51163855D02*
X24771427Y-51963855D01*
X25114284Y-51925760D02*
X25228570Y-51963855D01*
X25228570Y-51963855D02*
X25419046Y-51963855D01*
X25419046Y-51963855D02*
X25495237Y-51925760D01*
X25495237Y-51925760D02*
X25533332Y-51887664D01*
X25533332Y-51887664D02*
X25571427Y-51811474D01*
X25571427Y-51811474D02*
X25571427Y-51735283D01*
X25571427Y-51735283D02*
X25533332Y-51659093D01*
X25533332Y-51659093D02*
X25495237Y-51620998D01*
X25495237Y-51620998D02*
X25419046Y-51582902D01*
X25419046Y-51582902D02*
X25266665Y-51544807D01*
X25266665Y-51544807D02*
X25190475Y-51506712D01*
X25190475Y-51506712D02*
X25152380Y-51468617D01*
X25152380Y-51468617D02*
X25114284Y-51392426D01*
X25114284Y-51392426D02*
X25114284Y-51316236D01*
X25114284Y-51316236D02*
X25152380Y-51240045D01*
X25152380Y-51240045D02*
X25190475Y-51201950D01*
X25190475Y-51201950D02*
X25266665Y-51163855D01*
X25266665Y-51163855D02*
X25457142Y-51163855D01*
X25457142Y-51163855D02*
X25571427Y-51201950D01*
X26333332Y-51963855D02*
X25876189Y-51963855D01*
X26104761Y-51963855D02*
X26104761Y-51163855D01*
X26104761Y-51163855D02*
X26028570Y-51278140D01*
X26028570Y-51278140D02*
X25952380Y-51354331D01*
X25952380Y-51354331D02*
X25876189Y-51392426D01*
X27285714Y-51963855D02*
X27285714Y-51163855D01*
X27285714Y-51163855D02*
X27552380Y-51735283D01*
X27552380Y-51735283D02*
X27819047Y-51163855D01*
X27819047Y-51163855D02*
X27819047Y-51963855D01*
X28161904Y-51925760D02*
X28276190Y-51963855D01*
X28276190Y-51963855D02*
X28466666Y-51963855D01*
X28466666Y-51963855D02*
X28542857Y-51925760D01*
X28542857Y-51925760D02*
X28580952Y-51887664D01*
X28580952Y-51887664D02*
X28619047Y-51811474D01*
X28619047Y-51811474D02*
X28619047Y-51735283D01*
X28619047Y-51735283D02*
X28580952Y-51659093D01*
X28580952Y-51659093D02*
X28542857Y-51620998D01*
X28542857Y-51620998D02*
X28466666Y-51582902D01*
X28466666Y-51582902D02*
X28314285Y-51544807D01*
X28314285Y-51544807D02*
X28238095Y-51506712D01*
X28238095Y-51506712D02*
X28200000Y-51468617D01*
X28200000Y-51468617D02*
X28161904Y-51392426D01*
X28161904Y-51392426D02*
X28161904Y-51316236D01*
X28161904Y-51316236D02*
X28200000Y-51240045D01*
X28200000Y-51240045D02*
X28238095Y-51201950D01*
X28238095Y-51201950D02*
X28314285Y-51163855D01*
X28314285Y-51163855D02*
X28504762Y-51163855D01*
X28504762Y-51163855D02*
X28619047Y-51201950D01*
X28923809Y-51240045D02*
X28961905Y-51201950D01*
X28961905Y-51201950D02*
X29038095Y-51163855D01*
X29038095Y-51163855D02*
X29228571Y-51163855D01*
X29228571Y-51163855D02*
X29304762Y-51201950D01*
X29304762Y-51201950D02*
X29342857Y-51240045D01*
X29342857Y-51240045D02*
X29380952Y-51316236D01*
X29380952Y-51316236D02*
X29380952Y-51392426D01*
X29380952Y-51392426D02*
X29342857Y-51506712D01*
X29342857Y-51506712D02*
X28885714Y-51963855D01*
X28885714Y-51963855D02*
X29380952Y-51963855D01*
X30295238Y-51925760D02*
X30409524Y-51963855D01*
X30409524Y-51963855D02*
X30600000Y-51963855D01*
X30600000Y-51963855D02*
X30676191Y-51925760D01*
X30676191Y-51925760D02*
X30714286Y-51887664D01*
X30714286Y-51887664D02*
X30752381Y-51811474D01*
X30752381Y-51811474D02*
X30752381Y-51735283D01*
X30752381Y-51735283D02*
X30714286Y-51659093D01*
X30714286Y-51659093D02*
X30676191Y-51620998D01*
X30676191Y-51620998D02*
X30600000Y-51582902D01*
X30600000Y-51582902D02*
X30447619Y-51544807D01*
X30447619Y-51544807D02*
X30371429Y-51506712D01*
X30371429Y-51506712D02*
X30333334Y-51468617D01*
X30333334Y-51468617D02*
X30295238Y-51392426D01*
X30295238Y-51392426D02*
X30295238Y-51316236D01*
X30295238Y-51316236D02*
X30333334Y-51240045D01*
X30333334Y-51240045D02*
X30371429Y-51201950D01*
X30371429Y-51201950D02*
X30447619Y-51163855D01*
X30447619Y-51163855D02*
X30638096Y-51163855D01*
X30638096Y-51163855D02*
X30752381Y-51201950D01*
X31095239Y-51963855D02*
X31095239Y-51163855D01*
X31095239Y-51163855D02*
X31400001Y-51163855D01*
X31400001Y-51163855D02*
X31476191Y-51201950D01*
X31476191Y-51201950D02*
X31514286Y-51240045D01*
X31514286Y-51240045D02*
X31552382Y-51316236D01*
X31552382Y-51316236D02*
X31552382Y-51430521D01*
X31552382Y-51430521D02*
X31514286Y-51506712D01*
X31514286Y-51506712D02*
X31476191Y-51544807D01*
X31476191Y-51544807D02*
X31400001Y-51582902D01*
X31400001Y-51582902D02*
X31095239Y-51582902D01*
X32352382Y-51963855D02*
X32085715Y-51582902D01*
X31895239Y-51963855D02*
X31895239Y-51163855D01*
X31895239Y-51163855D02*
X32200001Y-51163855D01*
X32200001Y-51163855D02*
X32276191Y-51201950D01*
X32276191Y-51201950D02*
X32314286Y-51240045D01*
X32314286Y-51240045D02*
X32352382Y-51316236D01*
X32352382Y-51316236D02*
X32352382Y-51430521D01*
X32352382Y-51430521D02*
X32314286Y-51506712D01*
X32314286Y-51506712D02*
X32276191Y-51544807D01*
X32276191Y-51544807D02*
X32200001Y-51582902D01*
X32200001Y-51582902D02*
X31895239Y-51582902D01*
X32695239Y-51963855D02*
X32695239Y-51163855D01*
X32695239Y-51163855D02*
X32885715Y-51163855D01*
X32885715Y-51163855D02*
X33000001Y-51201950D01*
X33000001Y-51201950D02*
X33076191Y-51278140D01*
X33076191Y-51278140D02*
X33114286Y-51354331D01*
X33114286Y-51354331D02*
X33152382Y-51506712D01*
X33152382Y-51506712D02*
X33152382Y-51620998D01*
X33152382Y-51620998D02*
X33114286Y-51773379D01*
X33114286Y-51773379D02*
X33076191Y-51849569D01*
X33076191Y-51849569D02*
X33000001Y-51925760D01*
X33000001Y-51925760D02*
X32885715Y-51963855D01*
X32885715Y-51963855D02*
X32695239Y-51963855D01*
X34104763Y-51544807D02*
X34714287Y-51544807D01*
X34714287Y-51773379D02*
X34104763Y-51773379D01*
X36123810Y-51201950D02*
X36047620Y-51163855D01*
X36047620Y-51163855D02*
X35933334Y-51163855D01*
X35933334Y-51163855D02*
X35819048Y-51201950D01*
X35819048Y-51201950D02*
X35742858Y-51278140D01*
X35742858Y-51278140D02*
X35704763Y-51354331D01*
X35704763Y-51354331D02*
X35666667Y-51506712D01*
X35666667Y-51506712D02*
X35666667Y-51620998D01*
X35666667Y-51620998D02*
X35704763Y-51773379D01*
X35704763Y-51773379D02*
X35742858Y-51849569D01*
X35742858Y-51849569D02*
X35819048Y-51925760D01*
X35819048Y-51925760D02*
X35933334Y-51963855D01*
X35933334Y-51963855D02*
X36009525Y-51963855D01*
X36009525Y-51963855D02*
X36123810Y-51925760D01*
X36123810Y-51925760D02*
X36161906Y-51887664D01*
X36161906Y-51887664D02*
X36161906Y-51620998D01*
X36161906Y-51620998D02*
X36009525Y-51620998D01*
X36504763Y-51963855D02*
X36504763Y-51163855D01*
X36504763Y-51163855D02*
X36961906Y-51963855D01*
X36961906Y-51963855D02*
X36961906Y-51163855D01*
X37342858Y-51963855D02*
X37342858Y-51163855D01*
X37342858Y-51163855D02*
X37533334Y-51163855D01*
X37533334Y-51163855D02*
X37647620Y-51201950D01*
X37647620Y-51201950D02*
X37723810Y-51278140D01*
X37723810Y-51278140D02*
X37761905Y-51354331D01*
X37761905Y-51354331D02*
X37800001Y-51506712D01*
X37800001Y-51506712D02*
X37800001Y-51620998D01*
X37800001Y-51620998D02*
X37761905Y-51773379D01*
X37761905Y-51773379D02*
X37723810Y-51849569D01*
X37723810Y-51849569D02*
X37647620Y-51925760D01*
X37647620Y-51925760D02*
X37533334Y-51963855D01*
X37533334Y-51963855D02*
X37342858Y-51963855D01*
X30678571Y-66035283D02*
X31059524Y-66035283D01*
X30602381Y-66263855D02*
X30869048Y-65463855D01*
X30869048Y-65463855D02*
X31135714Y-66263855D01*
X31364285Y-65540045D02*
X31402381Y-65501950D01*
X31402381Y-65501950D02*
X31478571Y-65463855D01*
X31478571Y-65463855D02*
X31669047Y-65463855D01*
X31669047Y-65463855D02*
X31745238Y-65501950D01*
X31745238Y-65501950D02*
X31783333Y-65540045D01*
X31783333Y-65540045D02*
X31821428Y-65616236D01*
X31821428Y-65616236D02*
X31821428Y-65692426D01*
X31821428Y-65692426D02*
X31783333Y-65806712D01*
X31783333Y-65806712D02*
X31326190Y-66263855D01*
X31326190Y-66263855D02*
X31821428Y-66263855D01*
X33178571Y-66035283D02*
X33559524Y-66035283D01*
X33102381Y-66263855D02*
X33369048Y-65463855D01*
X33369048Y-65463855D02*
X33635714Y-66263855D01*
X34321428Y-66263855D02*
X33864285Y-66263855D01*
X34092857Y-66263855D02*
X34092857Y-65463855D01*
X34092857Y-65463855D02*
X34016666Y-65578140D01*
X34016666Y-65578140D02*
X33940476Y-65654331D01*
X33940476Y-65654331D02*
X33864285Y-65692426D01*
X45619047Y-48963855D02*
X45885714Y-49763855D01*
X45885714Y-49763855D02*
X46152380Y-48963855D01*
X46419047Y-49763855D02*
X46419047Y-48963855D01*
X46419047Y-48963855D02*
X46685713Y-49535283D01*
X46685713Y-49535283D02*
X46952380Y-48963855D01*
X46952380Y-48963855D02*
X46952380Y-49763855D01*
X48209523Y-49344807D02*
X48323809Y-49382902D01*
X48323809Y-49382902D02*
X48361904Y-49420998D01*
X48361904Y-49420998D02*
X48400000Y-49497188D01*
X48400000Y-49497188D02*
X48400000Y-49611474D01*
X48400000Y-49611474D02*
X48361904Y-49687664D01*
X48361904Y-49687664D02*
X48323809Y-49725760D01*
X48323809Y-49725760D02*
X48247619Y-49763855D01*
X48247619Y-49763855D02*
X47942857Y-49763855D01*
X47942857Y-49763855D02*
X47942857Y-48963855D01*
X47942857Y-48963855D02*
X48209523Y-48963855D01*
X48209523Y-48963855D02*
X48285714Y-49001950D01*
X48285714Y-49001950D02*
X48323809Y-49040045D01*
X48323809Y-49040045D02*
X48361904Y-49116236D01*
X48361904Y-49116236D02*
X48361904Y-49192426D01*
X48361904Y-49192426D02*
X48323809Y-49268617D01*
X48323809Y-49268617D02*
X48285714Y-49306712D01*
X48285714Y-49306712D02*
X48209523Y-49344807D01*
X48209523Y-49344807D02*
X47942857Y-49344807D01*
X48742857Y-48963855D02*
X48742857Y-49611474D01*
X48742857Y-49611474D02*
X48780952Y-49687664D01*
X48780952Y-49687664D02*
X48819047Y-49725760D01*
X48819047Y-49725760D02*
X48895238Y-49763855D01*
X48895238Y-49763855D02*
X49047619Y-49763855D01*
X49047619Y-49763855D02*
X49123809Y-49725760D01*
X49123809Y-49725760D02*
X49161904Y-49687664D01*
X49161904Y-49687664D02*
X49200000Y-49611474D01*
X49200000Y-49611474D02*
X49200000Y-48963855D01*
X49961904Y-49763855D02*
X49580952Y-49763855D01*
X49580952Y-49763855D02*
X49580952Y-48963855D01*
X50228571Y-49763855D02*
X50228571Y-48963855D01*
X50685714Y-49763855D02*
X50342856Y-49306712D01*
X50685714Y-48963855D02*
X50228571Y-49420998D01*
X51980952Y-49230521D02*
X51980952Y-49763855D01*
X51790476Y-48925760D02*
X51599999Y-49497188D01*
X51599999Y-49497188D02*
X52095238Y-49497188D01*
X52323809Y-48963855D02*
X52857143Y-48963855D01*
X52857143Y-48963855D02*
X52514285Y-49763855D01*
X53314286Y-48963855D02*
X53390476Y-48963855D01*
X53390476Y-48963855D02*
X53466667Y-49001950D01*
X53466667Y-49001950D02*
X53504762Y-49040045D01*
X53504762Y-49040045D02*
X53542857Y-49116236D01*
X53542857Y-49116236D02*
X53580952Y-49268617D01*
X53580952Y-49268617D02*
X53580952Y-49459093D01*
X53580952Y-49459093D02*
X53542857Y-49611474D01*
X53542857Y-49611474D02*
X53504762Y-49687664D01*
X53504762Y-49687664D02*
X53466667Y-49725760D01*
X53466667Y-49725760D02*
X53390476Y-49763855D01*
X53390476Y-49763855D02*
X53314286Y-49763855D01*
X53314286Y-49763855D02*
X53238095Y-49725760D01*
X53238095Y-49725760D02*
X53200000Y-49687664D01*
X53200000Y-49687664D02*
X53161905Y-49611474D01*
X53161905Y-49611474D02*
X53123809Y-49459093D01*
X53123809Y-49459093D02*
X53123809Y-49268617D01*
X53123809Y-49268617D02*
X53161905Y-49116236D01*
X53161905Y-49116236D02*
X53200000Y-49040045D01*
X53200000Y-49040045D02*
X53238095Y-49001950D01*
X53238095Y-49001950D02*
X53314286Y-48963855D01*
X54266667Y-49230521D02*
X54266667Y-49763855D01*
X53923810Y-49230521D02*
X53923810Y-49649569D01*
X53923810Y-49649569D02*
X53961905Y-49725760D01*
X53961905Y-49725760D02*
X54038095Y-49763855D01*
X54038095Y-49763855D02*
X54152381Y-49763855D01*
X54152381Y-49763855D02*
X54228572Y-49725760D01*
X54228572Y-49725760D02*
X54266667Y-49687664D01*
X47642857Y-2659093D02*
X48252381Y-2659093D01*
X47947619Y-2963855D02*
X47947619Y-2354331D01*
X49700000Y-2887664D02*
X49661904Y-2925760D01*
X49661904Y-2925760D02*
X49547619Y-2963855D01*
X49547619Y-2963855D02*
X49471428Y-2963855D01*
X49471428Y-2963855D02*
X49357142Y-2925760D01*
X49357142Y-2925760D02*
X49280952Y-2849569D01*
X49280952Y-2849569D02*
X49242857Y-2773379D01*
X49242857Y-2773379D02*
X49204761Y-2620998D01*
X49204761Y-2620998D02*
X49204761Y-2506712D01*
X49204761Y-2506712D02*
X49242857Y-2354331D01*
X49242857Y-2354331D02*
X49280952Y-2278140D01*
X49280952Y-2278140D02*
X49357142Y-2201950D01*
X49357142Y-2201950D02*
X49471428Y-2163855D01*
X49471428Y-2163855D02*
X49547619Y-2163855D01*
X49547619Y-2163855D02*
X49661904Y-2201950D01*
X49661904Y-2201950D02*
X49700000Y-2240045D01*
X50042857Y-2544807D02*
X50309523Y-2544807D01*
X50423809Y-2963855D02*
X50042857Y-2963855D01*
X50042857Y-2963855D02*
X50042857Y-2163855D01*
X50042857Y-2163855D02*
X50423809Y-2163855D01*
X50766667Y-2963855D02*
X50766667Y-2163855D01*
X50766667Y-2163855D02*
X51223810Y-2963855D01*
X51223810Y-2963855D02*
X51223810Y-2163855D01*
X51490476Y-2163855D02*
X51947619Y-2163855D01*
X51719047Y-2963855D02*
X51719047Y-2163855D01*
X52671429Y-2963855D02*
X52404762Y-2582902D01*
X52214286Y-2963855D02*
X52214286Y-2163855D01*
X52214286Y-2163855D02*
X52519048Y-2163855D01*
X52519048Y-2163855D02*
X52595238Y-2201950D01*
X52595238Y-2201950D02*
X52633333Y-2240045D01*
X52633333Y-2240045D02*
X52671429Y-2316236D01*
X52671429Y-2316236D02*
X52671429Y-2430521D01*
X52671429Y-2430521D02*
X52633333Y-2506712D01*
X52633333Y-2506712D02*
X52595238Y-2544807D01*
X52595238Y-2544807D02*
X52519048Y-2582902D01*
X52519048Y-2582902D02*
X52214286Y-2582902D01*
X53014286Y-2544807D02*
X53280952Y-2544807D01*
X53395238Y-2963855D02*
X53014286Y-2963855D01*
X53014286Y-2963855D02*
X53014286Y-2163855D01*
X53014286Y-2163855D02*
X53395238Y-2163855D01*
X57847619Y-23563855D02*
X57466667Y-23563855D01*
X57466667Y-23563855D02*
X57428571Y-23944807D01*
X57428571Y-23944807D02*
X57466667Y-23906712D01*
X57466667Y-23906712D02*
X57542857Y-23868617D01*
X57542857Y-23868617D02*
X57733333Y-23868617D01*
X57733333Y-23868617D02*
X57809524Y-23906712D01*
X57809524Y-23906712D02*
X57847619Y-23944807D01*
X57847619Y-23944807D02*
X57885714Y-24020998D01*
X57885714Y-24020998D02*
X57885714Y-24211474D01*
X57885714Y-24211474D02*
X57847619Y-24287664D01*
X57847619Y-24287664D02*
X57809524Y-24325760D01*
X57809524Y-24325760D02*
X57733333Y-24363855D01*
X57733333Y-24363855D02*
X57542857Y-24363855D01*
X57542857Y-24363855D02*
X57466667Y-24325760D01*
X57466667Y-24325760D02*
X57428571Y-24287664D01*
X58114286Y-23563855D02*
X58380953Y-24363855D01*
X58380953Y-24363855D02*
X58647619Y-23563855D01*
D11*
X6435713Y-75009337D02*
X6435713Y-74109337D01*
X6435713Y-74109337D02*
X6649999Y-74109337D01*
X6649999Y-74109337D02*
X6778570Y-74152194D01*
X6778570Y-74152194D02*
X6864285Y-74237908D01*
X6864285Y-74237908D02*
X6907142Y-74323622D01*
X6907142Y-74323622D02*
X6949999Y-74495051D01*
X6949999Y-74495051D02*
X6949999Y-74623622D01*
X6949999Y-74623622D02*
X6907142Y-74795051D01*
X6907142Y-74795051D02*
X6864285Y-74880765D01*
X6864285Y-74880765D02*
X6778570Y-74966480D01*
X6778570Y-74966480D02*
X6649999Y-75009337D01*
X6649999Y-75009337D02*
X6435713Y-75009337D01*
X7678570Y-74966480D02*
X7592856Y-75009337D01*
X7592856Y-75009337D02*
X7421428Y-75009337D01*
X7421428Y-75009337D02*
X7335713Y-74966480D01*
X7335713Y-74966480D02*
X7292856Y-74880765D01*
X7292856Y-74880765D02*
X7292856Y-74537908D01*
X7292856Y-74537908D02*
X7335713Y-74452194D01*
X7335713Y-74452194D02*
X7421428Y-74409337D01*
X7421428Y-74409337D02*
X7592856Y-74409337D01*
X7592856Y-74409337D02*
X7678570Y-74452194D01*
X7678570Y-74452194D02*
X7721428Y-74537908D01*
X7721428Y-74537908D02*
X7721428Y-74623622D01*
X7721428Y-74623622D02*
X7292856Y-74709337D01*
X8064285Y-74966480D02*
X8149999Y-75009337D01*
X8149999Y-75009337D02*
X8321428Y-75009337D01*
X8321428Y-75009337D02*
X8407142Y-74966480D01*
X8407142Y-74966480D02*
X8449999Y-74880765D01*
X8449999Y-74880765D02*
X8449999Y-74837908D01*
X8449999Y-74837908D02*
X8407142Y-74752194D01*
X8407142Y-74752194D02*
X8321428Y-74709337D01*
X8321428Y-74709337D02*
X8192857Y-74709337D01*
X8192857Y-74709337D02*
X8107142Y-74666480D01*
X8107142Y-74666480D02*
X8064285Y-74580765D01*
X8064285Y-74580765D02*
X8064285Y-74537908D01*
X8064285Y-74537908D02*
X8107142Y-74452194D01*
X8107142Y-74452194D02*
X8192857Y-74409337D01*
X8192857Y-74409337D02*
X8321428Y-74409337D01*
X8321428Y-74409337D02*
X8407142Y-74452194D01*
X8835713Y-75009337D02*
X8835713Y-74409337D01*
X8835713Y-74109337D02*
X8792856Y-74152194D01*
X8792856Y-74152194D02*
X8835713Y-74195051D01*
X8835713Y-74195051D02*
X8878570Y-74152194D01*
X8878570Y-74152194D02*
X8835713Y-74109337D01*
X8835713Y-74109337D02*
X8835713Y-74195051D01*
X9649999Y-74409337D02*
X9649999Y-75137908D01*
X9649999Y-75137908D02*
X9607141Y-75223622D01*
X9607141Y-75223622D02*
X9564284Y-75266480D01*
X9564284Y-75266480D02*
X9478570Y-75309337D01*
X9478570Y-75309337D02*
X9349999Y-75309337D01*
X9349999Y-75309337D02*
X9264284Y-75266480D01*
X9649999Y-74966480D02*
X9564284Y-75009337D01*
X9564284Y-75009337D02*
X9392856Y-75009337D01*
X9392856Y-75009337D02*
X9307141Y-74966480D01*
X9307141Y-74966480D02*
X9264284Y-74923622D01*
X9264284Y-74923622D02*
X9221427Y-74837908D01*
X9221427Y-74837908D02*
X9221427Y-74580765D01*
X9221427Y-74580765D02*
X9264284Y-74495051D01*
X9264284Y-74495051D02*
X9307141Y-74452194D01*
X9307141Y-74452194D02*
X9392856Y-74409337D01*
X9392856Y-74409337D02*
X9564284Y-74409337D01*
X9564284Y-74409337D02*
X9649999Y-74452194D01*
X10078570Y-74409337D02*
X10078570Y-75009337D01*
X10078570Y-74495051D02*
X10121427Y-74452194D01*
X10121427Y-74452194D02*
X10207142Y-74409337D01*
X10207142Y-74409337D02*
X10335713Y-74409337D01*
X10335713Y-74409337D02*
X10421427Y-74452194D01*
X10421427Y-74452194D02*
X10464285Y-74537908D01*
X10464285Y-74537908D02*
X10464285Y-75009337D01*
X11235713Y-74966480D02*
X11149999Y-75009337D01*
X11149999Y-75009337D02*
X10978571Y-75009337D01*
X10978571Y-75009337D02*
X10892856Y-74966480D01*
X10892856Y-74966480D02*
X10849999Y-74880765D01*
X10849999Y-74880765D02*
X10849999Y-74537908D01*
X10849999Y-74537908D02*
X10892856Y-74452194D01*
X10892856Y-74452194D02*
X10978571Y-74409337D01*
X10978571Y-74409337D02*
X11149999Y-74409337D01*
X11149999Y-74409337D02*
X11235713Y-74452194D01*
X11235713Y-74452194D02*
X11278571Y-74537908D01*
X11278571Y-74537908D02*
X11278571Y-74623622D01*
X11278571Y-74623622D02*
X10849999Y-74709337D01*
X12050000Y-75009337D02*
X12050000Y-74109337D01*
X12050000Y-74966480D02*
X11964285Y-75009337D01*
X11964285Y-75009337D02*
X11792857Y-75009337D01*
X11792857Y-75009337D02*
X11707142Y-74966480D01*
X11707142Y-74966480D02*
X11664285Y-74923622D01*
X11664285Y-74923622D02*
X11621428Y-74837908D01*
X11621428Y-74837908D02*
X11621428Y-74580765D01*
X11621428Y-74580765D02*
X11664285Y-74495051D01*
X11664285Y-74495051D02*
X11707142Y-74452194D01*
X11707142Y-74452194D02*
X11792857Y-74409337D01*
X11792857Y-74409337D02*
X11964285Y-74409337D01*
X11964285Y-74409337D02*
X12050000Y-74452194D01*
X13164285Y-75009337D02*
X13164285Y-74109337D01*
X13164285Y-74452194D02*
X13250000Y-74409337D01*
X13250000Y-74409337D02*
X13421428Y-74409337D01*
X13421428Y-74409337D02*
X13507142Y-74452194D01*
X13507142Y-74452194D02*
X13550000Y-74495051D01*
X13550000Y-74495051D02*
X13592857Y-74580765D01*
X13592857Y-74580765D02*
X13592857Y-74837908D01*
X13592857Y-74837908D02*
X13550000Y-74923622D01*
X13550000Y-74923622D02*
X13507142Y-74966480D01*
X13507142Y-74966480D02*
X13421428Y-75009337D01*
X13421428Y-75009337D02*
X13250000Y-75009337D01*
X13250000Y-75009337D02*
X13164285Y-74966480D01*
X13892857Y-74409337D02*
X14107143Y-75009337D01*
X14321428Y-74409337D02*
X14107143Y-75009337D01*
X14107143Y-75009337D02*
X14021428Y-75223622D01*
X14021428Y-75223622D02*
X13978571Y-75266480D01*
X13978571Y-75266480D02*
X13892857Y-75309337D01*
X15521428Y-74109337D02*
X15607142Y-74109337D01*
X15607142Y-74109337D02*
X15692856Y-74152194D01*
X15692856Y-74152194D02*
X15735714Y-74195051D01*
X15735714Y-74195051D02*
X15778571Y-74280765D01*
X15778571Y-74280765D02*
X15821428Y-74452194D01*
X15821428Y-74452194D02*
X15821428Y-74666480D01*
X15821428Y-74666480D02*
X15778571Y-74837908D01*
X15778571Y-74837908D02*
X15735714Y-74923622D01*
X15735714Y-74923622D02*
X15692856Y-74966480D01*
X15692856Y-74966480D02*
X15607142Y-75009337D01*
X15607142Y-75009337D02*
X15521428Y-75009337D01*
X15521428Y-75009337D02*
X15435714Y-74966480D01*
X15435714Y-74966480D02*
X15392856Y-74923622D01*
X15392856Y-74923622D02*
X15349999Y-74837908D01*
X15349999Y-74837908D02*
X15307142Y-74666480D01*
X15307142Y-74666480D02*
X15307142Y-74452194D01*
X15307142Y-74452194D02*
X15349999Y-74280765D01*
X15349999Y-74280765D02*
X15392856Y-74195051D01*
X15392856Y-74195051D02*
X15435714Y-74152194D01*
X15435714Y-74152194D02*
X15521428Y-74109337D01*
X16121428Y-75009337D02*
X16592857Y-74409337D01*
X16121428Y-74409337D02*
X16592857Y-75009337D01*
X17321428Y-74109337D02*
X17149999Y-74109337D01*
X17149999Y-74109337D02*
X17064285Y-74152194D01*
X17064285Y-74152194D02*
X17021428Y-74195051D01*
X17021428Y-74195051D02*
X16935713Y-74323622D01*
X16935713Y-74323622D02*
X16892856Y-74495051D01*
X16892856Y-74495051D02*
X16892856Y-74837908D01*
X16892856Y-74837908D02*
X16935713Y-74923622D01*
X16935713Y-74923622D02*
X16978570Y-74966480D01*
X16978570Y-74966480D02*
X17064285Y-75009337D01*
X17064285Y-75009337D02*
X17235713Y-75009337D01*
X17235713Y-75009337D02*
X17321428Y-74966480D01*
X17321428Y-74966480D02*
X17364285Y-74923622D01*
X17364285Y-74923622D02*
X17407142Y-74837908D01*
X17407142Y-74837908D02*
X17407142Y-74623622D01*
X17407142Y-74623622D02*
X17364285Y-74537908D01*
X17364285Y-74537908D02*
X17321428Y-74495051D01*
X17321428Y-74495051D02*
X17235713Y-74452194D01*
X17235713Y-74452194D02*
X17064285Y-74452194D01*
X17064285Y-74452194D02*
X16978570Y-74495051D01*
X16978570Y-74495051D02*
X16935713Y-74537908D01*
X16935713Y-74537908D02*
X16892856Y-74623622D01*
X17707142Y-74109337D02*
X18264285Y-74109337D01*
X18264285Y-74109337D02*
X17964285Y-74452194D01*
X17964285Y-74452194D02*
X18092856Y-74452194D01*
X18092856Y-74452194D02*
X18178571Y-74495051D01*
X18178571Y-74495051D02*
X18221428Y-74537908D01*
X18221428Y-74537908D02*
X18264285Y-74623622D01*
X18264285Y-74623622D02*
X18264285Y-74837908D01*
X18264285Y-74837908D02*
X18221428Y-74923622D01*
X18221428Y-74923622D02*
X18178571Y-74966480D01*
X18178571Y-74966480D02*
X18092856Y-75009337D01*
X18092856Y-75009337D02*
X17835713Y-75009337D01*
X17835713Y-75009337D02*
X17749999Y-74966480D01*
X17749999Y-74966480D02*
X17707142Y-74923622D01*
X19035714Y-74109337D02*
X18864285Y-74109337D01*
X18864285Y-74109337D02*
X18778571Y-74152194D01*
X18778571Y-74152194D02*
X18735714Y-74195051D01*
X18735714Y-74195051D02*
X18649999Y-74323622D01*
X18649999Y-74323622D02*
X18607142Y-74495051D01*
X18607142Y-74495051D02*
X18607142Y-74837908D01*
X18607142Y-74837908D02*
X18649999Y-74923622D01*
X18649999Y-74923622D02*
X18692856Y-74966480D01*
X18692856Y-74966480D02*
X18778571Y-75009337D01*
X18778571Y-75009337D02*
X18949999Y-75009337D01*
X18949999Y-75009337D02*
X19035714Y-74966480D01*
X19035714Y-74966480D02*
X19078571Y-74923622D01*
X19078571Y-74923622D02*
X19121428Y-74837908D01*
X19121428Y-74837908D02*
X19121428Y-74623622D01*
X19121428Y-74623622D02*
X19078571Y-74537908D01*
X19078571Y-74537908D02*
X19035714Y-74495051D01*
X19035714Y-74495051D02*
X18949999Y-74452194D01*
X18949999Y-74452194D02*
X18778571Y-74452194D01*
X18778571Y-74452194D02*
X18692856Y-74495051D01*
X18692856Y-74495051D02*
X18649999Y-74537908D01*
X18649999Y-74537908D02*
X18607142Y-74623622D01*
X19978571Y-75009337D02*
X19464285Y-75009337D01*
X19721428Y-75009337D02*
X19721428Y-74109337D01*
X19721428Y-74109337D02*
X19635714Y-74237908D01*
X19635714Y-74237908D02*
X19549999Y-74323622D01*
X19549999Y-74323622D02*
X19464285Y-74366480D01*
X20750000Y-74109337D02*
X20578571Y-74109337D01*
X20578571Y-74109337D02*
X20492857Y-74152194D01*
X20492857Y-74152194D02*
X20450000Y-74195051D01*
X20450000Y-74195051D02*
X20364285Y-74323622D01*
X20364285Y-74323622D02*
X20321428Y-74495051D01*
X20321428Y-74495051D02*
X20321428Y-74837908D01*
X20321428Y-74837908D02*
X20364285Y-74923622D01*
X20364285Y-74923622D02*
X20407142Y-74966480D01*
X20407142Y-74966480D02*
X20492857Y-75009337D01*
X20492857Y-75009337D02*
X20664285Y-75009337D01*
X20664285Y-75009337D02*
X20750000Y-74966480D01*
X20750000Y-74966480D02*
X20792857Y-74923622D01*
X20792857Y-74923622D02*
X20835714Y-74837908D01*
X20835714Y-74837908D02*
X20835714Y-74623622D01*
X20835714Y-74623622D02*
X20792857Y-74537908D01*
X20792857Y-74537908D02*
X20750000Y-74495051D01*
X20750000Y-74495051D02*
X20664285Y-74452194D01*
X20664285Y-74452194D02*
X20492857Y-74452194D01*
X20492857Y-74452194D02*
X20407142Y-74495051D01*
X20407142Y-74495051D02*
X20364285Y-74537908D01*
X20364285Y-74537908D02*
X20321428Y-74623622D01*
X21607143Y-74966480D02*
X21521428Y-75009337D01*
X21521428Y-75009337D02*
X21350000Y-75009337D01*
X21350000Y-75009337D02*
X21264285Y-74966480D01*
X21264285Y-74966480D02*
X21221428Y-74923622D01*
X21221428Y-74923622D02*
X21178571Y-74837908D01*
X21178571Y-74837908D02*
X21178571Y-74580765D01*
X21178571Y-74580765D02*
X21221428Y-74495051D01*
X21221428Y-74495051D02*
X21264285Y-74452194D01*
X21264285Y-74452194D02*
X21350000Y-74409337D01*
X21350000Y-74409337D02*
X21521428Y-74409337D01*
X21521428Y-74409337D02*
X21607143Y-74452194D01*
X10057143Y-34009337D02*
X10057143Y-33109337D01*
X10057143Y-33109337D02*
X10571429Y-34009337D01*
X10571429Y-34009337D02*
X10571429Y-33109337D01*
X11000000Y-33537908D02*
X11300000Y-33537908D01*
X11428572Y-34009337D02*
X11000000Y-34009337D01*
X11000000Y-34009337D02*
X11000000Y-33109337D01*
X11000000Y-33109337D02*
X11428572Y-33109337D01*
X11814286Y-34009337D02*
X11814286Y-33109337D01*
X11814286Y-33109337D02*
X12114286Y-33752194D01*
X12114286Y-33752194D02*
X12414286Y-33109337D01*
X12414286Y-33109337D02*
X12414286Y-34009337D01*
X12800000Y-33752194D02*
X13228572Y-33752194D01*
X12714286Y-34009337D02*
X13014286Y-33109337D01*
X13014286Y-33109337D02*
X13314286Y-34009337D01*
X14771429Y-34009337D02*
X14257143Y-34009337D01*
X14514286Y-34009337D02*
X14514286Y-33109337D01*
X14514286Y-33109337D02*
X14428572Y-33237908D01*
X14428572Y-33237908D02*
X14342857Y-33323622D01*
X14342857Y-33323622D02*
X14257143Y-33366480D01*
X15542858Y-33409337D02*
X15542858Y-34009337D01*
X15328572Y-33066480D02*
X15114286Y-33709337D01*
X15114286Y-33709337D02*
X15671429Y-33709337D01*
X17342857Y-33066480D02*
X16571429Y-34223622D01*
X18200000Y-33109337D02*
X18714286Y-33109337D01*
X18457143Y-34009337D02*
X18457143Y-33109337D01*
X19014285Y-34009337D02*
X19014285Y-33109337D01*
X19014285Y-33109337D02*
X19314285Y-33752194D01*
X19314285Y-33752194D02*
X19614285Y-33109337D01*
X19614285Y-33109337D02*
X19614285Y-34009337D01*
X20557142Y-33923622D02*
X20514285Y-33966480D01*
X20514285Y-33966480D02*
X20385713Y-34009337D01*
X20385713Y-34009337D02*
X20299999Y-34009337D01*
X20299999Y-34009337D02*
X20171428Y-33966480D01*
X20171428Y-33966480D02*
X20085713Y-33880765D01*
X20085713Y-33880765D02*
X20042856Y-33795051D01*
X20042856Y-33795051D02*
X19999999Y-33623622D01*
X19999999Y-33623622D02*
X19999999Y-33495051D01*
X19999999Y-33495051D02*
X20042856Y-33323622D01*
X20042856Y-33323622D02*
X20085713Y-33237908D01*
X20085713Y-33237908D02*
X20171428Y-33152194D01*
X20171428Y-33152194D02*
X20299999Y-33109337D01*
X20299999Y-33109337D02*
X20385713Y-33109337D01*
X20385713Y-33109337D02*
X20514285Y-33152194D01*
X20514285Y-33152194D02*
X20557142Y-33195051D01*
X20899999Y-33195051D02*
X20942856Y-33152194D01*
X20942856Y-33152194D02*
X21028571Y-33109337D01*
X21028571Y-33109337D02*
X21242856Y-33109337D01*
X21242856Y-33109337D02*
X21328571Y-33152194D01*
X21328571Y-33152194D02*
X21371428Y-33195051D01*
X21371428Y-33195051D02*
X21414285Y-33280765D01*
X21414285Y-33280765D02*
X21414285Y-33366480D01*
X21414285Y-33366480D02*
X21371428Y-33495051D01*
X21371428Y-33495051D02*
X20857142Y-34009337D01*
X20857142Y-34009337D02*
X21414285Y-34009337D01*
X21757142Y-33195051D02*
X21799999Y-33152194D01*
X21799999Y-33152194D02*
X21885714Y-33109337D01*
X21885714Y-33109337D02*
X22099999Y-33109337D01*
X22099999Y-33109337D02*
X22185714Y-33152194D01*
X22185714Y-33152194D02*
X22228571Y-33195051D01*
X22228571Y-33195051D02*
X22271428Y-33280765D01*
X22271428Y-33280765D02*
X22271428Y-33366480D01*
X22271428Y-33366480D02*
X22228571Y-33495051D01*
X22228571Y-33495051D02*
X21714285Y-34009337D01*
X21714285Y-34009337D02*
X22271428Y-34009337D01*
X22828571Y-33109337D02*
X22914285Y-33109337D01*
X22914285Y-33109337D02*
X22999999Y-33152194D01*
X22999999Y-33152194D02*
X23042857Y-33195051D01*
X23042857Y-33195051D02*
X23085714Y-33280765D01*
X23085714Y-33280765D02*
X23128571Y-33452194D01*
X23128571Y-33452194D02*
X23128571Y-33666480D01*
X23128571Y-33666480D02*
X23085714Y-33837908D01*
X23085714Y-33837908D02*
X23042857Y-33923622D01*
X23042857Y-33923622D02*
X22999999Y-33966480D01*
X22999999Y-33966480D02*
X22914285Y-34009337D01*
X22914285Y-34009337D02*
X22828571Y-34009337D01*
X22828571Y-34009337D02*
X22742857Y-33966480D01*
X22742857Y-33966480D02*
X22699999Y-33923622D01*
X22699999Y-33923622D02*
X22657142Y-33837908D01*
X22657142Y-33837908D02*
X22614285Y-33666480D01*
X22614285Y-33666480D02*
X22614285Y-33452194D01*
X22614285Y-33452194D02*
X22657142Y-33280765D01*
X22657142Y-33280765D02*
X22699999Y-33195051D01*
X22699999Y-33195051D02*
X22742857Y-33152194D01*
X22742857Y-33152194D02*
X22828571Y-33109337D01*
X23557142Y-34009337D02*
X23728571Y-34009337D01*
X23728571Y-34009337D02*
X23814285Y-33966480D01*
X23814285Y-33966480D02*
X23857142Y-33923622D01*
X23857142Y-33923622D02*
X23942857Y-33795051D01*
X23942857Y-33795051D02*
X23985714Y-33623622D01*
X23985714Y-33623622D02*
X23985714Y-33280765D01*
X23985714Y-33280765D02*
X23942857Y-33195051D01*
X23942857Y-33195051D02*
X23900000Y-33152194D01*
X23900000Y-33152194D02*
X23814285Y-33109337D01*
X23814285Y-33109337D02*
X23642857Y-33109337D01*
X23642857Y-33109337D02*
X23557142Y-33152194D01*
X23557142Y-33152194D02*
X23514285Y-33195051D01*
X23514285Y-33195051D02*
X23471428Y-33280765D01*
X23471428Y-33280765D02*
X23471428Y-33495051D01*
X23471428Y-33495051D02*
X23514285Y-33580765D01*
X23514285Y-33580765D02*
X23557142Y-33623622D01*
X23557142Y-33623622D02*
X23642857Y-33666480D01*
X23642857Y-33666480D02*
X23814285Y-33666480D01*
X23814285Y-33666480D02*
X23900000Y-33623622D01*
X23900000Y-33623622D02*
X23942857Y-33580765D01*
X23942857Y-33580765D02*
X23985714Y-33495051D01*
D12*
X9476190Y-61954819D02*
X9476190Y-60954819D01*
X9476190Y-61431009D02*
X10047618Y-61431009D01*
X10047618Y-61954819D02*
X10047618Y-60954819D01*
X10476190Y-61669104D02*
X10952380Y-61669104D01*
X10380952Y-61954819D02*
X10714285Y-60954819D01*
X10714285Y-60954819D02*
X11047618Y-61954819D01*
X11857142Y-61954819D02*
X11380952Y-61954819D01*
X11380952Y-61954819D02*
X11380952Y-60954819D01*
X12666666Y-61954819D02*
X12190476Y-61954819D01*
X12190476Y-61954819D02*
X12190476Y-60954819D01*
X13719048Y-2454819D02*
X14385714Y-3454819D01*
X14385714Y-2454819D02*
X13719048Y-3454819D01*
X14766667Y-3454819D02*
X14766667Y-2454819D01*
X15195238Y-3169104D02*
X15671428Y-3169104D01*
X15100000Y-3454819D02*
X15433333Y-2454819D01*
X15433333Y-2454819D02*
X15766666Y-3454819D01*
X16290476Y-2454819D02*
X16480952Y-2454819D01*
X16480952Y-2454819D02*
X16576190Y-2502438D01*
X16576190Y-2502438D02*
X16671428Y-2597676D01*
X16671428Y-2597676D02*
X16719047Y-2788152D01*
X16719047Y-2788152D02*
X16719047Y-3121485D01*
X16719047Y-3121485D02*
X16671428Y-3311961D01*
X16671428Y-3311961D02*
X16576190Y-3407200D01*
X16576190Y-3407200D02*
X16480952Y-3454819D01*
X16480952Y-3454819D02*
X16290476Y-3454819D01*
X16290476Y-3454819D02*
X16195238Y-3407200D01*
X16195238Y-3407200D02*
X16100000Y-3311961D01*
X16100000Y-3311961D02*
X16052381Y-3121485D01*
X16052381Y-3121485D02*
X16052381Y-2788152D01*
X16052381Y-2788152D02*
X16100000Y-2597676D01*
X16100000Y-2597676D02*
X16195238Y-2502438D01*
X16195238Y-2502438D02*
X16290476Y-2454819D01*
X17909524Y-2931009D02*
X18242857Y-2931009D01*
X18385714Y-3454819D02*
X17909524Y-3454819D01*
X17909524Y-3454819D02*
X17909524Y-2454819D01*
X17909524Y-2454819D02*
X18385714Y-2454819D01*
X18766667Y-3407200D02*
X18909524Y-3454819D01*
X18909524Y-3454819D02*
X19147619Y-3454819D01*
X19147619Y-3454819D02*
X19242857Y-3407200D01*
X19242857Y-3407200D02*
X19290476Y-3359580D01*
X19290476Y-3359580D02*
X19338095Y-3264342D01*
X19338095Y-3264342D02*
X19338095Y-3169104D01*
X19338095Y-3169104D02*
X19290476Y-3073866D01*
X19290476Y-3073866D02*
X19242857Y-3026247D01*
X19242857Y-3026247D02*
X19147619Y-2978628D01*
X19147619Y-2978628D02*
X18957143Y-2931009D01*
X18957143Y-2931009D02*
X18861905Y-2883390D01*
X18861905Y-2883390D02*
X18814286Y-2835771D01*
X18814286Y-2835771D02*
X18766667Y-2740533D01*
X18766667Y-2740533D02*
X18766667Y-2645295D01*
X18766667Y-2645295D02*
X18814286Y-2550057D01*
X18814286Y-2550057D02*
X18861905Y-2502438D01*
X18861905Y-2502438D02*
X18957143Y-2454819D01*
X18957143Y-2454819D02*
X19195238Y-2454819D01*
X19195238Y-2454819D02*
X19338095Y-2502438D01*
X19766667Y-3454819D02*
X19766667Y-2454819D01*
X19766667Y-2454819D02*
X20147619Y-2454819D01*
X20147619Y-2454819D02*
X20242857Y-2502438D01*
X20242857Y-2502438D02*
X20290476Y-2550057D01*
X20290476Y-2550057D02*
X20338095Y-2645295D01*
X20338095Y-2645295D02*
X20338095Y-2788152D01*
X20338095Y-2788152D02*
X20290476Y-2883390D01*
X20290476Y-2883390D02*
X20242857Y-2931009D01*
X20242857Y-2931009D02*
X20147619Y-2978628D01*
X20147619Y-2978628D02*
X19766667Y-2978628D01*
X20671429Y-2454819D02*
X21290476Y-2454819D01*
X21290476Y-2454819D02*
X20957143Y-2835771D01*
X20957143Y-2835771D02*
X21100000Y-2835771D01*
X21100000Y-2835771D02*
X21195238Y-2883390D01*
X21195238Y-2883390D02*
X21242857Y-2931009D01*
X21242857Y-2931009D02*
X21290476Y-3026247D01*
X21290476Y-3026247D02*
X21290476Y-3264342D01*
X21290476Y-3264342D02*
X21242857Y-3359580D01*
X21242857Y-3359580D02*
X21195238Y-3407200D01*
X21195238Y-3407200D02*
X21100000Y-3454819D01*
X21100000Y-3454819D02*
X20814286Y-3454819D01*
X20814286Y-3454819D02*
X20719048Y-3407200D01*
X20719048Y-3407200D02*
X20671429Y-3359580D01*
X21671429Y-2550057D02*
X21719048Y-2502438D01*
X21719048Y-2502438D02*
X21814286Y-2454819D01*
X21814286Y-2454819D02*
X22052381Y-2454819D01*
X22052381Y-2454819D02*
X22147619Y-2502438D01*
X22147619Y-2502438D02*
X22195238Y-2550057D01*
X22195238Y-2550057D02*
X22242857Y-2645295D01*
X22242857Y-2645295D02*
X22242857Y-2740533D01*
X22242857Y-2740533D02*
X22195238Y-2883390D01*
X22195238Y-2883390D02*
X21623810Y-3454819D01*
X21623810Y-3454819D02*
X22242857Y-3454819D01*
X22671429Y-3073866D02*
X23433334Y-3073866D01*
X24480952Y-3359580D02*
X24433333Y-3407200D01*
X24433333Y-3407200D02*
X24290476Y-3454819D01*
X24290476Y-3454819D02*
X24195238Y-3454819D01*
X24195238Y-3454819D02*
X24052381Y-3407200D01*
X24052381Y-3407200D02*
X23957143Y-3311961D01*
X23957143Y-3311961D02*
X23909524Y-3216723D01*
X23909524Y-3216723D02*
X23861905Y-3026247D01*
X23861905Y-3026247D02*
X23861905Y-2883390D01*
X23861905Y-2883390D02*
X23909524Y-2692914D01*
X23909524Y-2692914D02*
X23957143Y-2597676D01*
X23957143Y-2597676D02*
X24052381Y-2502438D01*
X24052381Y-2502438D02*
X24195238Y-2454819D01*
X24195238Y-2454819D02*
X24290476Y-2454819D01*
X24290476Y-2454819D02*
X24433333Y-2502438D01*
X24433333Y-2502438D02*
X24480952Y-2550057D01*
X25338095Y-2454819D02*
X25147619Y-2454819D01*
X25147619Y-2454819D02*
X25052381Y-2502438D01*
X25052381Y-2502438D02*
X25004762Y-2550057D01*
X25004762Y-2550057D02*
X24909524Y-2692914D01*
X24909524Y-2692914D02*
X24861905Y-2883390D01*
X24861905Y-2883390D02*
X24861905Y-3264342D01*
X24861905Y-3264342D02*
X24909524Y-3359580D01*
X24909524Y-3359580D02*
X24957143Y-3407200D01*
X24957143Y-3407200D02*
X25052381Y-3454819D01*
X25052381Y-3454819D02*
X25242857Y-3454819D01*
X25242857Y-3454819D02*
X25338095Y-3407200D01*
X25338095Y-3407200D02*
X25385714Y-3359580D01*
X25385714Y-3359580D02*
X25433333Y-3264342D01*
X25433333Y-3264342D02*
X25433333Y-3026247D01*
X25433333Y-3026247D02*
X25385714Y-2931009D01*
X25385714Y-2931009D02*
X25338095Y-2883390D01*
X25338095Y-2883390D02*
X25242857Y-2835771D01*
X25242857Y-2835771D02*
X25052381Y-2835771D01*
X25052381Y-2835771D02*
X24957143Y-2883390D01*
X24957143Y-2883390D02*
X24909524Y-2931009D01*
X24909524Y-2931009D02*
X24861905Y-3026247D01*
X27738095Y-64454819D02*
X27738095Y-63454819D01*
X27738095Y-63454819D02*
X28071428Y-64169104D01*
X28071428Y-64169104D02*
X28404761Y-63454819D01*
X28404761Y-63454819D02*
X28404761Y-64454819D01*
X29071428Y-63454819D02*
X29261904Y-63454819D01*
X29261904Y-63454819D02*
X29357142Y-63502438D01*
X29357142Y-63502438D02*
X29452380Y-63597676D01*
X29452380Y-63597676D02*
X29499999Y-63788152D01*
X29499999Y-63788152D02*
X29499999Y-64121485D01*
X29499999Y-64121485D02*
X29452380Y-64311961D01*
X29452380Y-64311961D02*
X29357142Y-64407200D01*
X29357142Y-64407200D02*
X29261904Y-64454819D01*
X29261904Y-64454819D02*
X29071428Y-64454819D01*
X29071428Y-64454819D02*
X28976190Y-64407200D01*
X28976190Y-64407200D02*
X28880952Y-64311961D01*
X28880952Y-64311961D02*
X28833333Y-64121485D01*
X28833333Y-64121485D02*
X28833333Y-63788152D01*
X28833333Y-63788152D02*
X28880952Y-63597676D01*
X28880952Y-63597676D02*
X28976190Y-63502438D01*
X28976190Y-63502438D02*
X29071428Y-63454819D01*
X29785714Y-63454819D02*
X30357142Y-63454819D01*
X30071428Y-64454819D02*
X30071428Y-63454819D01*
X30880952Y-63454819D02*
X31071428Y-63454819D01*
X31071428Y-63454819D02*
X31166666Y-63502438D01*
X31166666Y-63502438D02*
X31261904Y-63597676D01*
X31261904Y-63597676D02*
X31309523Y-63788152D01*
X31309523Y-63788152D02*
X31309523Y-64121485D01*
X31309523Y-64121485D02*
X31261904Y-64311961D01*
X31261904Y-64311961D02*
X31166666Y-64407200D01*
X31166666Y-64407200D02*
X31071428Y-64454819D01*
X31071428Y-64454819D02*
X30880952Y-64454819D01*
X30880952Y-64454819D02*
X30785714Y-64407200D01*
X30785714Y-64407200D02*
X30690476Y-64311961D01*
X30690476Y-64311961D02*
X30642857Y-64121485D01*
X30642857Y-64121485D02*
X30642857Y-63788152D01*
X30642857Y-63788152D02*
X30690476Y-63597676D01*
X30690476Y-63597676D02*
X30785714Y-63502438D01*
X30785714Y-63502438D02*
X30880952Y-63454819D01*
X32309523Y-64454819D02*
X31976190Y-63978628D01*
X31738095Y-64454819D02*
X31738095Y-63454819D01*
X31738095Y-63454819D02*
X32119047Y-63454819D01*
X32119047Y-63454819D02*
X32214285Y-63502438D01*
X32214285Y-63502438D02*
X32261904Y-63550057D01*
X32261904Y-63550057D02*
X32309523Y-63645295D01*
X32309523Y-63645295D02*
X32309523Y-63788152D01*
X32309523Y-63788152D02*
X32261904Y-63883390D01*
X32261904Y-63883390D02*
X32214285Y-63931009D01*
X32214285Y-63931009D02*
X32119047Y-63978628D01*
X32119047Y-63978628D02*
X31738095Y-63978628D01*
X23880952Y-38454819D02*
X24452380Y-38454819D01*
X24166666Y-39454819D02*
X24166666Y-38454819D01*
X24785714Y-39454819D02*
X24785714Y-38454819D01*
X24785714Y-38454819D02*
X25119047Y-39169104D01*
X25119047Y-39169104D02*
X25452380Y-38454819D01*
X25452380Y-38454819D02*
X25452380Y-39454819D01*
X26499999Y-39359580D02*
X26452380Y-39407200D01*
X26452380Y-39407200D02*
X26309523Y-39454819D01*
X26309523Y-39454819D02*
X26214285Y-39454819D01*
X26214285Y-39454819D02*
X26071428Y-39407200D01*
X26071428Y-39407200D02*
X25976190Y-39311961D01*
X25976190Y-39311961D02*
X25928571Y-39216723D01*
X25928571Y-39216723D02*
X25880952Y-39026247D01*
X25880952Y-39026247D02*
X25880952Y-38883390D01*
X25880952Y-38883390D02*
X25928571Y-38692914D01*
X25928571Y-38692914D02*
X25976190Y-38597676D01*
X25976190Y-38597676D02*
X26071428Y-38502438D01*
X26071428Y-38502438D02*
X26214285Y-38454819D01*
X26214285Y-38454819D02*
X26309523Y-38454819D01*
X26309523Y-38454819D02*
X26452380Y-38502438D01*
X26452380Y-38502438D02*
X26499999Y-38550057D01*
X26880952Y-38550057D02*
X26928571Y-38502438D01*
X26928571Y-38502438D02*
X27023809Y-38454819D01*
X27023809Y-38454819D02*
X27261904Y-38454819D01*
X27261904Y-38454819D02*
X27357142Y-38502438D01*
X27357142Y-38502438D02*
X27404761Y-38550057D01*
X27404761Y-38550057D02*
X27452380Y-38645295D01*
X27452380Y-38645295D02*
X27452380Y-38740533D01*
X27452380Y-38740533D02*
X27404761Y-38883390D01*
X27404761Y-38883390D02*
X26833333Y-39454819D01*
X26833333Y-39454819D02*
X27452380Y-39454819D01*
X27833333Y-38550057D02*
X27880952Y-38502438D01*
X27880952Y-38502438D02*
X27976190Y-38454819D01*
X27976190Y-38454819D02*
X28214285Y-38454819D01*
X28214285Y-38454819D02*
X28309523Y-38502438D01*
X28309523Y-38502438D02*
X28357142Y-38550057D01*
X28357142Y-38550057D02*
X28404761Y-38645295D01*
X28404761Y-38645295D02*
X28404761Y-38740533D01*
X28404761Y-38740533D02*
X28357142Y-38883390D01*
X28357142Y-38883390D02*
X27785714Y-39454819D01*
X27785714Y-39454819D02*
X28404761Y-39454819D01*
X29023809Y-38454819D02*
X29119047Y-38454819D01*
X29119047Y-38454819D02*
X29214285Y-38502438D01*
X29214285Y-38502438D02*
X29261904Y-38550057D01*
X29261904Y-38550057D02*
X29309523Y-38645295D01*
X29309523Y-38645295D02*
X29357142Y-38835771D01*
X29357142Y-38835771D02*
X29357142Y-39073866D01*
X29357142Y-39073866D02*
X29309523Y-39264342D01*
X29309523Y-39264342D02*
X29261904Y-39359580D01*
X29261904Y-39359580D02*
X29214285Y-39407200D01*
X29214285Y-39407200D02*
X29119047Y-39454819D01*
X29119047Y-39454819D02*
X29023809Y-39454819D01*
X29023809Y-39454819D02*
X28928571Y-39407200D01*
X28928571Y-39407200D02*
X28880952Y-39359580D01*
X28880952Y-39359580D02*
X28833333Y-39264342D01*
X28833333Y-39264342D02*
X28785714Y-39073866D01*
X28785714Y-39073866D02*
X28785714Y-38835771D01*
X28785714Y-38835771D02*
X28833333Y-38645295D01*
X28833333Y-38645295D02*
X28880952Y-38550057D01*
X28880952Y-38550057D02*
X28928571Y-38502438D01*
X28928571Y-38502438D02*
X29023809Y-38454819D01*
X29833333Y-39454819D02*
X30023809Y-39454819D01*
X30023809Y-39454819D02*
X30119047Y-39407200D01*
X30119047Y-39407200D02*
X30166666Y-39359580D01*
X30166666Y-39359580D02*
X30261904Y-39216723D01*
X30261904Y-39216723D02*
X30309523Y-39026247D01*
X30309523Y-39026247D02*
X30309523Y-38645295D01*
X30309523Y-38645295D02*
X30261904Y-38550057D01*
X30261904Y-38550057D02*
X30214285Y-38502438D01*
X30214285Y-38502438D02*
X30119047Y-38454819D01*
X30119047Y-38454819D02*
X29928571Y-38454819D01*
X29928571Y-38454819D02*
X29833333Y-38502438D01*
X29833333Y-38502438D02*
X29785714Y-38550057D01*
X29785714Y-38550057D02*
X29738095Y-38645295D01*
X29738095Y-38645295D02*
X29738095Y-38883390D01*
X29738095Y-38883390D02*
X29785714Y-38978628D01*
X29785714Y-38978628D02*
X29833333Y-39026247D01*
X29833333Y-39026247D02*
X29928571Y-39073866D01*
X29928571Y-39073866D02*
X30119047Y-39073866D01*
X30119047Y-39073866D02*
X30214285Y-39026247D01*
X30214285Y-39026247D02*
X30261904Y-38978628D01*
X30261904Y-38978628D02*
X30309523Y-38883390D01*
X31452381Y-39407200D02*
X31595238Y-39454819D01*
X31595238Y-39454819D02*
X31833333Y-39454819D01*
X31833333Y-39454819D02*
X31928571Y-39407200D01*
X31928571Y-39407200D02*
X31976190Y-39359580D01*
X31976190Y-39359580D02*
X32023809Y-39264342D01*
X32023809Y-39264342D02*
X32023809Y-39169104D01*
X32023809Y-39169104D02*
X31976190Y-39073866D01*
X31976190Y-39073866D02*
X31928571Y-39026247D01*
X31928571Y-39026247D02*
X31833333Y-38978628D01*
X31833333Y-38978628D02*
X31642857Y-38931009D01*
X31642857Y-38931009D02*
X31547619Y-38883390D01*
X31547619Y-38883390D02*
X31500000Y-38835771D01*
X31500000Y-38835771D02*
X31452381Y-38740533D01*
X31452381Y-38740533D02*
X31452381Y-38645295D01*
X31452381Y-38645295D02*
X31500000Y-38550057D01*
X31500000Y-38550057D02*
X31547619Y-38502438D01*
X31547619Y-38502438D02*
X31642857Y-38454819D01*
X31642857Y-38454819D02*
X31880952Y-38454819D01*
X31880952Y-38454819D02*
X32023809Y-38502438D01*
X32309524Y-38788152D02*
X32690476Y-38788152D01*
X32452381Y-38454819D02*
X32452381Y-39311961D01*
X32452381Y-39311961D02*
X32500000Y-39407200D01*
X32500000Y-39407200D02*
X32595238Y-39454819D01*
X32595238Y-39454819D02*
X32690476Y-39454819D01*
X33404762Y-39407200D02*
X33309524Y-39454819D01*
X33309524Y-39454819D02*
X33119048Y-39454819D01*
X33119048Y-39454819D02*
X33023810Y-39407200D01*
X33023810Y-39407200D02*
X32976191Y-39311961D01*
X32976191Y-39311961D02*
X32976191Y-38931009D01*
X32976191Y-38931009D02*
X33023810Y-38835771D01*
X33023810Y-38835771D02*
X33119048Y-38788152D01*
X33119048Y-38788152D02*
X33309524Y-38788152D01*
X33309524Y-38788152D02*
X33404762Y-38835771D01*
X33404762Y-38835771D02*
X33452381Y-38931009D01*
X33452381Y-38931009D02*
X33452381Y-39026247D01*
X33452381Y-39026247D02*
X32976191Y-39121485D01*
X33880953Y-38788152D02*
X33880953Y-39788152D01*
X33880953Y-38835771D02*
X33976191Y-38788152D01*
X33976191Y-38788152D02*
X34166667Y-38788152D01*
X34166667Y-38788152D02*
X34261905Y-38835771D01*
X34261905Y-38835771D02*
X34309524Y-38883390D01*
X34309524Y-38883390D02*
X34357143Y-38978628D01*
X34357143Y-38978628D02*
X34357143Y-39264342D01*
X34357143Y-39264342D02*
X34309524Y-39359580D01*
X34309524Y-39359580D02*
X34261905Y-39407200D01*
X34261905Y-39407200D02*
X34166667Y-39454819D01*
X34166667Y-39454819D02*
X33976191Y-39454819D01*
X33976191Y-39454819D02*
X33880953Y-39407200D01*
X34738096Y-39407200D02*
X34880953Y-39454819D01*
X34880953Y-39454819D02*
X35119048Y-39454819D01*
X35119048Y-39454819D02*
X35214286Y-39407200D01*
X35214286Y-39407200D02*
X35261905Y-39359580D01*
X35261905Y-39359580D02*
X35309524Y-39264342D01*
X35309524Y-39264342D02*
X35309524Y-39169104D01*
X35309524Y-39169104D02*
X35261905Y-39073866D01*
X35261905Y-39073866D02*
X35214286Y-39026247D01*
X35214286Y-39026247D02*
X35119048Y-38978628D01*
X35119048Y-38978628D02*
X34928572Y-38931009D01*
X34928572Y-38931009D02*
X34833334Y-38883390D01*
X34833334Y-38883390D02*
X34785715Y-38835771D01*
X34785715Y-38835771D02*
X34738096Y-38740533D01*
X34738096Y-38740533D02*
X34738096Y-38645295D01*
X34738096Y-38645295D02*
X34785715Y-38550057D01*
X34785715Y-38550057D02*
X34833334Y-38502438D01*
X34833334Y-38502438D02*
X34928572Y-38454819D01*
X34928572Y-38454819D02*
X35166667Y-38454819D01*
X35166667Y-38454819D02*
X35309524Y-38502438D01*
X35595239Y-38788152D02*
X35976191Y-38788152D01*
X35738096Y-38454819D02*
X35738096Y-39311961D01*
X35738096Y-39311961D02*
X35785715Y-39407200D01*
X35785715Y-39407200D02*
X35880953Y-39454819D01*
X35880953Y-39454819D02*
X35976191Y-39454819D01*
X36309525Y-39454819D02*
X36309525Y-38788152D01*
X36309525Y-38454819D02*
X36261906Y-38502438D01*
X36261906Y-38502438D02*
X36309525Y-38550057D01*
X36309525Y-38550057D02*
X36357144Y-38502438D01*
X36357144Y-38502438D02*
X36309525Y-38454819D01*
X36309525Y-38454819D02*
X36309525Y-38550057D01*
X37214286Y-39407200D02*
X37119048Y-39454819D01*
X37119048Y-39454819D02*
X36928572Y-39454819D01*
X36928572Y-39454819D02*
X36833334Y-39407200D01*
X36833334Y-39407200D02*
X36785715Y-39359580D01*
X36785715Y-39359580D02*
X36738096Y-39264342D01*
X36738096Y-39264342D02*
X36738096Y-38978628D01*
X36738096Y-38978628D02*
X36785715Y-38883390D01*
X36785715Y-38883390D02*
X36833334Y-38835771D01*
X36833334Y-38835771D02*
X36928572Y-38788152D01*
X36928572Y-38788152D02*
X37119048Y-38788152D01*
X37119048Y-38788152D02*
X37214286Y-38835771D01*
X37642858Y-39454819D02*
X37642858Y-38454819D01*
X37738096Y-39073866D02*
X38023810Y-39454819D01*
X38023810Y-38788152D02*
X37642858Y-39169104D01*
X48738095Y-4854819D02*
X48166667Y-4854819D01*
X48452381Y-4854819D02*
X48452381Y-3854819D01*
X48452381Y-3854819D02*
X48357143Y-3997676D01*
X48357143Y-3997676D02*
X48261905Y-4092914D01*
X48261905Y-4092914D02*
X48166667Y-4140533D01*
X49119048Y-3950057D02*
X49166667Y-3902438D01*
X49166667Y-3902438D02*
X49261905Y-3854819D01*
X49261905Y-3854819D02*
X49500000Y-3854819D01*
X49500000Y-3854819D02*
X49595238Y-3902438D01*
X49595238Y-3902438D02*
X49642857Y-3950057D01*
X49642857Y-3950057D02*
X49690476Y-4045295D01*
X49690476Y-4045295D02*
X49690476Y-4140533D01*
X49690476Y-4140533D02*
X49642857Y-4283390D01*
X49642857Y-4283390D02*
X49071429Y-4854819D01*
X49071429Y-4854819D02*
X49690476Y-4854819D01*
X49976191Y-3854819D02*
X50309524Y-4854819D01*
X50309524Y-4854819D02*
X50642857Y-3854819D01*
X51738096Y-4854819D02*
X51738096Y-3854819D01*
X52214286Y-4854819D02*
X52214286Y-3854819D01*
X52214286Y-3854819D02*
X52785714Y-4854819D01*
X52785714Y-4854819D02*
X52785714Y-3854819D01*
D13*
X7728571Y-32247920D02*
X7885714Y-32300300D01*
X7885714Y-32300300D02*
X8147619Y-32300300D01*
X8147619Y-32300300D02*
X8252381Y-32247920D01*
X8252381Y-32247920D02*
X8304762Y-32195539D01*
X8304762Y-32195539D02*
X8357143Y-32090777D01*
X8357143Y-32090777D02*
X8357143Y-31986015D01*
X8357143Y-31986015D02*
X8304762Y-31881253D01*
X8304762Y-31881253D02*
X8252381Y-31828872D01*
X8252381Y-31828872D02*
X8147619Y-31776491D01*
X8147619Y-31776491D02*
X7938095Y-31724110D01*
X7938095Y-31724110D02*
X7833333Y-31671729D01*
X7833333Y-31671729D02*
X7780952Y-31619348D01*
X7780952Y-31619348D02*
X7728571Y-31514586D01*
X7728571Y-31514586D02*
X7728571Y-31409824D01*
X7728571Y-31409824D02*
X7780952Y-31305062D01*
X7780952Y-31305062D02*
X7833333Y-31252681D01*
X7833333Y-31252681D02*
X7938095Y-31200300D01*
X7938095Y-31200300D02*
X8200000Y-31200300D01*
X8200000Y-31200300D02*
X8357143Y-31252681D01*
X8828571Y-32300300D02*
X8828571Y-31200300D01*
X8828571Y-31200300D02*
X9247619Y-31200300D01*
X9247619Y-31200300D02*
X9352381Y-31252681D01*
X9352381Y-31252681D02*
X9404762Y-31305062D01*
X9404762Y-31305062D02*
X9457143Y-31409824D01*
X9457143Y-31409824D02*
X9457143Y-31566967D01*
X9457143Y-31566967D02*
X9404762Y-31671729D01*
X9404762Y-31671729D02*
X9352381Y-31724110D01*
X9352381Y-31724110D02*
X9247619Y-31776491D01*
X9247619Y-31776491D02*
X8828571Y-31776491D01*
X10452381Y-32300300D02*
X9928571Y-32300300D01*
X9928571Y-32300300D02*
X9928571Y-31200300D01*
X10819047Y-32300300D02*
X10819047Y-31200300D01*
X11185714Y-31200300D02*
X11814286Y-31200300D01*
X11500000Y-32300300D02*
X11500000Y-31200300D01*
X12180952Y-31881253D02*
X13019048Y-31881253D01*
X13909524Y-31724110D02*
X13542857Y-31724110D01*
X13542857Y-32300300D02*
X13542857Y-31200300D01*
X13542857Y-31200300D02*
X14066667Y-31200300D01*
X15009524Y-32300300D02*
X14485714Y-32300300D01*
X14485714Y-32300300D02*
X14485714Y-31200300D01*
X15323809Y-31986015D02*
X15847619Y-31986015D01*
X15219047Y-32300300D02*
X15585714Y-31200300D01*
X15585714Y-31200300D02*
X15952381Y-32300300D01*
X16319047Y-32300300D02*
X16319047Y-31200300D01*
X16319047Y-31200300D02*
X16738095Y-31200300D01*
X16738095Y-31200300D02*
X16842857Y-31252681D01*
X16842857Y-31252681D02*
X16895238Y-31305062D01*
X16895238Y-31305062D02*
X16947619Y-31409824D01*
X16947619Y-31409824D02*
X16947619Y-31566967D01*
X16947619Y-31566967D02*
X16895238Y-31671729D01*
X16895238Y-31671729D02*
X16842857Y-31724110D01*
X16842857Y-31724110D02*
X16738095Y-31776491D01*
X16738095Y-31776491D02*
X16319047Y-31776491D01*
X18257142Y-32300300D02*
X18257142Y-31200300D01*
X18257142Y-31200300D02*
X18519047Y-31200300D01*
X18519047Y-31200300D02*
X18676190Y-31252681D01*
X18676190Y-31252681D02*
X18780952Y-31357443D01*
X18780952Y-31357443D02*
X18833333Y-31462205D01*
X18833333Y-31462205D02*
X18885714Y-31671729D01*
X18885714Y-31671729D02*
X18885714Y-31828872D01*
X18885714Y-31828872D02*
X18833333Y-32038396D01*
X18833333Y-32038396D02*
X18780952Y-32143158D01*
X18780952Y-32143158D02*
X18676190Y-32247920D01*
X18676190Y-32247920D02*
X18519047Y-32300300D01*
X18519047Y-32300300D02*
X18257142Y-32300300D01*
X19985714Y-32300300D02*
X19619047Y-31776491D01*
X19357142Y-32300300D02*
X19357142Y-31200300D01*
X19357142Y-31200300D02*
X19776190Y-31200300D01*
X19776190Y-31200300D02*
X19880952Y-31252681D01*
X19880952Y-31252681D02*
X19933333Y-31305062D01*
X19933333Y-31305062D02*
X19985714Y-31409824D01*
X19985714Y-31409824D02*
X19985714Y-31566967D01*
X19985714Y-31566967D02*
X19933333Y-31671729D01*
X19933333Y-31671729D02*
X19880952Y-31724110D01*
X19880952Y-31724110D02*
X19776190Y-31776491D01*
X19776190Y-31776491D02*
X19357142Y-31776491D01*
X20457142Y-32300300D02*
X20457142Y-31200300D01*
X20823809Y-31200300D02*
X21190476Y-32300300D01*
X21190476Y-32300300D02*
X21557143Y-31200300D01*
X21923809Y-31724110D02*
X22290476Y-31724110D01*
X22447619Y-32300300D02*
X21923809Y-32300300D01*
X21923809Y-32300300D02*
X21923809Y-31200300D01*
X21923809Y-31200300D02*
X22447619Y-31200300D01*
X23547619Y-32300300D02*
X23180952Y-31776491D01*
X22919047Y-32300300D02*
X22919047Y-31200300D01*
X22919047Y-31200300D02*
X23338095Y-31200300D01*
X23338095Y-31200300D02*
X23442857Y-31252681D01*
X23442857Y-31252681D02*
X23495238Y-31305062D01*
X23495238Y-31305062D02*
X23547619Y-31409824D01*
X23547619Y-31409824D02*
X23547619Y-31566967D01*
X23547619Y-31566967D02*
X23495238Y-31671729D01*
X23495238Y-31671729D02*
X23442857Y-31724110D01*
X23442857Y-31724110D02*
X23338095Y-31776491D01*
X23338095Y-31776491D02*
X22919047Y-31776491D01*
X24752380Y-31566967D02*
X25014285Y-32300300D01*
X25014285Y-32300300D02*
X25276190Y-31566967D01*
X25642856Y-31305062D02*
X25695237Y-31252681D01*
X25695237Y-31252681D02*
X25799999Y-31200300D01*
X25799999Y-31200300D02*
X26061904Y-31200300D01*
X26061904Y-31200300D02*
X26166666Y-31252681D01*
X26166666Y-31252681D02*
X26219047Y-31305062D01*
X26219047Y-31305062D02*
X26271428Y-31409824D01*
X26271428Y-31409824D02*
X26271428Y-31514586D01*
X26271428Y-31514586D02*
X26219047Y-31671729D01*
X26219047Y-31671729D02*
X25590475Y-32300300D01*
X25590475Y-32300300D02*
X26271428Y-32300300D01*
D10*
X16266667Y-30363855D02*
X16000000Y-29982902D01*
X15809524Y-30363855D02*
X15809524Y-29563855D01*
X15809524Y-29563855D02*
X16114286Y-29563855D01*
X16114286Y-29563855D02*
X16190476Y-29601950D01*
X16190476Y-29601950D02*
X16228571Y-29640045D01*
X16228571Y-29640045D02*
X16266667Y-29716236D01*
X16266667Y-29716236D02*
X16266667Y-29830521D01*
X16266667Y-29830521D02*
X16228571Y-29906712D01*
X16228571Y-29906712D02*
X16190476Y-29944807D01*
X16190476Y-29944807D02*
X16114286Y-29982902D01*
X16114286Y-29982902D02*
X15809524Y-29982902D01*
X16723809Y-29906712D02*
X16647619Y-29868617D01*
X16647619Y-29868617D02*
X16609524Y-29830521D01*
X16609524Y-29830521D02*
X16571428Y-29754331D01*
X16571428Y-29754331D02*
X16571428Y-29716236D01*
X16571428Y-29716236D02*
X16609524Y-29640045D01*
X16609524Y-29640045D02*
X16647619Y-29601950D01*
X16647619Y-29601950D02*
X16723809Y-29563855D01*
X16723809Y-29563855D02*
X16876190Y-29563855D01*
X16876190Y-29563855D02*
X16952381Y-29601950D01*
X16952381Y-29601950D02*
X16990476Y-29640045D01*
X16990476Y-29640045D02*
X17028571Y-29716236D01*
X17028571Y-29716236D02*
X17028571Y-29754331D01*
X17028571Y-29754331D02*
X16990476Y-29830521D01*
X16990476Y-29830521D02*
X16952381Y-29868617D01*
X16952381Y-29868617D02*
X16876190Y-29906712D01*
X16876190Y-29906712D02*
X16723809Y-29906712D01*
X16723809Y-29906712D02*
X16647619Y-29944807D01*
X16647619Y-29944807D02*
X16609524Y-29982902D01*
X16609524Y-29982902D02*
X16571428Y-30059093D01*
X16571428Y-30059093D02*
X16571428Y-30211474D01*
X16571428Y-30211474D02*
X16609524Y-30287664D01*
X16609524Y-30287664D02*
X16647619Y-30325760D01*
X16647619Y-30325760D02*
X16723809Y-30363855D01*
X16723809Y-30363855D02*
X16876190Y-30363855D01*
X16876190Y-30363855D02*
X16952381Y-30325760D01*
X16952381Y-30325760D02*
X16990476Y-30287664D01*
X16990476Y-30287664D02*
X17028571Y-30211474D01*
X17028571Y-30211474D02*
X17028571Y-30059093D01*
X17028571Y-30059093D02*
X16990476Y-29982902D01*
X16990476Y-29982902D02*
X16952381Y-29944807D01*
X16952381Y-29944807D02*
X16876190Y-29906712D01*
X45866667Y-29497664D02*
X45828571Y-29535760D01*
X45828571Y-29535760D02*
X45714286Y-29573855D01*
X45714286Y-29573855D02*
X45638095Y-29573855D01*
X45638095Y-29573855D02*
X45523809Y-29535760D01*
X45523809Y-29535760D02*
X45447619Y-29459569D01*
X45447619Y-29459569D02*
X45409524Y-29383379D01*
X45409524Y-29383379D02*
X45371428Y-29230998D01*
X45371428Y-29230998D02*
X45371428Y-29116712D01*
X45371428Y-29116712D02*
X45409524Y-28964331D01*
X45409524Y-28964331D02*
X45447619Y-28888140D01*
X45447619Y-28888140D02*
X45523809Y-28811950D01*
X45523809Y-28811950D02*
X45638095Y-28773855D01*
X45638095Y-28773855D02*
X45714286Y-28773855D01*
X45714286Y-28773855D02*
X45828571Y-28811950D01*
X45828571Y-28811950D02*
X45866667Y-28850045D01*
X46590476Y-28773855D02*
X46209524Y-28773855D01*
X46209524Y-28773855D02*
X46171428Y-29154807D01*
X46171428Y-29154807D02*
X46209524Y-29116712D01*
X46209524Y-29116712D02*
X46285714Y-29078617D01*
X46285714Y-29078617D02*
X46476190Y-29078617D01*
X46476190Y-29078617D02*
X46552381Y-29116712D01*
X46552381Y-29116712D02*
X46590476Y-29154807D01*
X46590476Y-29154807D02*
X46628571Y-29230998D01*
X46628571Y-29230998D02*
X46628571Y-29421474D01*
X46628571Y-29421474D02*
X46590476Y-29497664D01*
X46590476Y-29497664D02*
X46552381Y-29535760D01*
X46552381Y-29535760D02*
X46476190Y-29573855D01*
X46476190Y-29573855D02*
X46285714Y-29573855D01*
X46285714Y-29573855D02*
X46209524Y-29535760D01*
X46209524Y-29535760D02*
X46171428Y-29497664D01*
X41923809Y-8140045D02*
X41847619Y-8101950D01*
X41847619Y-8101950D02*
X41771428Y-8025760D01*
X41771428Y-8025760D02*
X41657142Y-7911474D01*
X41657142Y-7911474D02*
X41580952Y-7873379D01*
X41580952Y-7873379D02*
X41504761Y-7873379D01*
X41542857Y-8063855D02*
X41466666Y-8025760D01*
X41466666Y-8025760D02*
X41390476Y-7949569D01*
X41390476Y-7949569D02*
X41352380Y-7797188D01*
X41352380Y-7797188D02*
X41352380Y-7530521D01*
X41352380Y-7530521D02*
X41390476Y-7378140D01*
X41390476Y-7378140D02*
X41466666Y-7301950D01*
X41466666Y-7301950D02*
X41542857Y-7263855D01*
X41542857Y-7263855D02*
X41695238Y-7263855D01*
X41695238Y-7263855D02*
X41771428Y-7301950D01*
X41771428Y-7301950D02*
X41847619Y-7378140D01*
X41847619Y-7378140D02*
X41885714Y-7530521D01*
X41885714Y-7530521D02*
X41885714Y-7797188D01*
X41885714Y-7797188D02*
X41847619Y-7949569D01*
X41847619Y-7949569D02*
X41771428Y-8025760D01*
X41771428Y-8025760D02*
X41695238Y-8063855D01*
X41695238Y-8063855D02*
X41542857Y-8063855D01*
X42647618Y-8063855D02*
X42190475Y-8063855D01*
X42419047Y-8063855D02*
X42419047Y-7263855D01*
X42419047Y-7263855D02*
X42342856Y-7378140D01*
X42342856Y-7378140D02*
X42266666Y-7454331D01*
X42266666Y-7454331D02*
X42190475Y-7492426D01*
X22233333Y-65563855D02*
X22233333Y-66135283D01*
X22233333Y-66135283D02*
X22195238Y-66249569D01*
X22195238Y-66249569D02*
X22119047Y-66325760D01*
X22119047Y-66325760D02*
X22004762Y-66363855D01*
X22004762Y-66363855D02*
X21928571Y-66363855D01*
X22576190Y-65640045D02*
X22614286Y-65601950D01*
X22614286Y-65601950D02*
X22690476Y-65563855D01*
X22690476Y-65563855D02*
X22880952Y-65563855D01*
X22880952Y-65563855D02*
X22957143Y-65601950D01*
X22957143Y-65601950D02*
X22995238Y-65640045D01*
X22995238Y-65640045D02*
X23033333Y-65716236D01*
X23033333Y-65716236D02*
X23033333Y-65792426D01*
X23033333Y-65792426D02*
X22995238Y-65906712D01*
X22995238Y-65906712D02*
X22538095Y-66363855D01*
X22538095Y-66363855D02*
X23033333Y-66363855D01*
X52176667Y-18363855D02*
X51910000Y-17982902D01*
X51719524Y-18363855D02*
X51719524Y-17563855D01*
X51719524Y-17563855D02*
X52024286Y-17563855D01*
X52024286Y-17563855D02*
X52100476Y-17601950D01*
X52100476Y-17601950D02*
X52138571Y-17640045D01*
X52138571Y-17640045D02*
X52176667Y-17716236D01*
X52176667Y-17716236D02*
X52176667Y-17830521D01*
X52176667Y-17830521D02*
X52138571Y-17906712D01*
X52138571Y-17906712D02*
X52100476Y-17944807D01*
X52100476Y-17944807D02*
X52024286Y-17982902D01*
X52024286Y-17982902D02*
X51719524Y-17982902D01*
X52443333Y-17563855D02*
X52976667Y-17563855D01*
X52976667Y-17563855D02*
X52633809Y-18363855D01*
X11733333Y-5163855D02*
X11733333Y-5735283D01*
X11733333Y-5735283D02*
X11695238Y-5849569D01*
X11695238Y-5849569D02*
X11619047Y-5925760D01*
X11619047Y-5925760D02*
X11504762Y-5963855D01*
X11504762Y-5963855D02*
X11428571Y-5963855D01*
X12457143Y-5163855D02*
X12304762Y-5163855D01*
X12304762Y-5163855D02*
X12228571Y-5201950D01*
X12228571Y-5201950D02*
X12190476Y-5240045D01*
X12190476Y-5240045D02*
X12114286Y-5354331D01*
X12114286Y-5354331D02*
X12076190Y-5506712D01*
X12076190Y-5506712D02*
X12076190Y-5811474D01*
X12076190Y-5811474D02*
X12114286Y-5887664D01*
X12114286Y-5887664D02*
X12152381Y-5925760D01*
X12152381Y-5925760D02*
X12228571Y-5963855D01*
X12228571Y-5963855D02*
X12380952Y-5963855D01*
X12380952Y-5963855D02*
X12457143Y-5925760D01*
X12457143Y-5925760D02*
X12495238Y-5887664D01*
X12495238Y-5887664D02*
X12533333Y-5811474D01*
X12533333Y-5811474D02*
X12533333Y-5620998D01*
X12533333Y-5620998D02*
X12495238Y-5544807D01*
X12495238Y-5544807D02*
X12457143Y-5506712D01*
X12457143Y-5506712D02*
X12380952Y-5468617D01*
X12380952Y-5468617D02*
X12228571Y-5468617D01*
X12228571Y-5468617D02*
X12152381Y-5506712D01*
X12152381Y-5506712D02*
X12114286Y-5544807D01*
X12114286Y-5544807D02*
X12076190Y-5620998D01*
X30733333Y-59403855D02*
X30733333Y-59975283D01*
X30733333Y-59975283D02*
X30695238Y-60089569D01*
X30695238Y-60089569D02*
X30619047Y-60165760D01*
X30619047Y-60165760D02*
X30504762Y-60203855D01*
X30504762Y-60203855D02*
X30428571Y-60203855D01*
X31457143Y-59670521D02*
X31457143Y-60203855D01*
X31266667Y-59365760D02*
X31076190Y-59937188D01*
X31076190Y-59937188D02*
X31571429Y-59937188D01*
X50366667Y-26687664D02*
X50328571Y-26725760D01*
X50328571Y-26725760D02*
X50214286Y-26763855D01*
X50214286Y-26763855D02*
X50138095Y-26763855D01*
X50138095Y-26763855D02*
X50023809Y-26725760D01*
X50023809Y-26725760D02*
X49947619Y-26649569D01*
X49947619Y-26649569D02*
X49909524Y-26573379D01*
X49909524Y-26573379D02*
X49871428Y-26420998D01*
X49871428Y-26420998D02*
X49871428Y-26306712D01*
X49871428Y-26306712D02*
X49909524Y-26154331D01*
X49909524Y-26154331D02*
X49947619Y-26078140D01*
X49947619Y-26078140D02*
X50023809Y-26001950D01*
X50023809Y-26001950D02*
X50138095Y-25963855D01*
X50138095Y-25963855D02*
X50214286Y-25963855D01*
X50214286Y-25963855D02*
X50328571Y-26001950D01*
X50328571Y-26001950D02*
X50366667Y-26040045D01*
X50671428Y-26040045D02*
X50709524Y-26001950D01*
X50709524Y-26001950D02*
X50785714Y-25963855D01*
X50785714Y-25963855D02*
X50976190Y-25963855D01*
X50976190Y-25963855D02*
X51052381Y-26001950D01*
X51052381Y-26001950D02*
X51090476Y-26040045D01*
X51090476Y-26040045D02*
X51128571Y-26116236D01*
X51128571Y-26116236D02*
X51128571Y-26192426D01*
X51128571Y-26192426D02*
X51090476Y-26306712D01*
X51090476Y-26306712D02*
X50633333Y-26763855D01*
X50633333Y-26763855D02*
X51128571Y-26763855D01*
X53366667Y-38187664D02*
X53328571Y-38225760D01*
X53328571Y-38225760D02*
X53214286Y-38263855D01*
X53214286Y-38263855D02*
X53138095Y-38263855D01*
X53138095Y-38263855D02*
X53023809Y-38225760D01*
X53023809Y-38225760D02*
X52947619Y-38149569D01*
X52947619Y-38149569D02*
X52909524Y-38073379D01*
X52909524Y-38073379D02*
X52871428Y-37920998D01*
X52871428Y-37920998D02*
X52871428Y-37806712D01*
X52871428Y-37806712D02*
X52909524Y-37654331D01*
X52909524Y-37654331D02*
X52947619Y-37578140D01*
X52947619Y-37578140D02*
X53023809Y-37501950D01*
X53023809Y-37501950D02*
X53138095Y-37463855D01*
X53138095Y-37463855D02*
X53214286Y-37463855D01*
X53214286Y-37463855D02*
X53328571Y-37501950D01*
X53328571Y-37501950D02*
X53366667Y-37540045D01*
X54052381Y-37730521D02*
X54052381Y-38263855D01*
X53861905Y-37425760D02*
X53671428Y-37997188D01*
X53671428Y-37997188D02*
X54166667Y-37997188D01*
X48366667Y-36987664D02*
X48328571Y-37025760D01*
X48328571Y-37025760D02*
X48214286Y-37063855D01*
X48214286Y-37063855D02*
X48138095Y-37063855D01*
X48138095Y-37063855D02*
X48023809Y-37025760D01*
X48023809Y-37025760D02*
X47947619Y-36949569D01*
X47947619Y-36949569D02*
X47909524Y-36873379D01*
X47909524Y-36873379D02*
X47871428Y-36720998D01*
X47871428Y-36720998D02*
X47871428Y-36606712D01*
X47871428Y-36606712D02*
X47909524Y-36454331D01*
X47909524Y-36454331D02*
X47947619Y-36378140D01*
X47947619Y-36378140D02*
X48023809Y-36301950D01*
X48023809Y-36301950D02*
X48138095Y-36263855D01*
X48138095Y-36263855D02*
X48214286Y-36263855D01*
X48214286Y-36263855D02*
X48328571Y-36301950D01*
X48328571Y-36301950D02*
X48366667Y-36340045D01*
X48633333Y-36263855D02*
X49128571Y-36263855D01*
X49128571Y-36263855D02*
X48861905Y-36568617D01*
X48861905Y-36568617D02*
X48976190Y-36568617D01*
X48976190Y-36568617D02*
X49052381Y-36606712D01*
X49052381Y-36606712D02*
X49090476Y-36644807D01*
X49090476Y-36644807D02*
X49128571Y-36720998D01*
X49128571Y-36720998D02*
X49128571Y-36911474D01*
X49128571Y-36911474D02*
X49090476Y-36987664D01*
X49090476Y-36987664D02*
X49052381Y-37025760D01*
X49052381Y-37025760D02*
X48976190Y-37063855D01*
X48976190Y-37063855D02*
X48747619Y-37063855D01*
X48747619Y-37063855D02*
X48671428Y-37025760D01*
X48671428Y-37025760D02*
X48633333Y-36987664D01*
X42190476Y-23563855D02*
X42190476Y-24211474D01*
X42190476Y-24211474D02*
X42228571Y-24287664D01*
X42228571Y-24287664D02*
X42266666Y-24325760D01*
X42266666Y-24325760D02*
X42342857Y-24363855D01*
X42342857Y-24363855D02*
X42495238Y-24363855D01*
X42495238Y-24363855D02*
X42571428Y-24325760D01*
X42571428Y-24325760D02*
X42609523Y-24287664D01*
X42609523Y-24287664D02*
X42647619Y-24211474D01*
X42647619Y-24211474D02*
X42647619Y-23563855D01*
X43447618Y-24363855D02*
X42990475Y-24363855D01*
X43219047Y-24363855D02*
X43219047Y-23563855D01*
X43219047Y-23563855D02*
X43142856Y-23678140D01*
X43142856Y-23678140D02*
X43066666Y-23754331D01*
X43066666Y-23754331D02*
X42990475Y-23792426D01*
X36676667Y-20363855D02*
X36410000Y-19982902D01*
X36219524Y-20363855D02*
X36219524Y-19563855D01*
X36219524Y-19563855D02*
X36524286Y-19563855D01*
X36524286Y-19563855D02*
X36600476Y-19601950D01*
X36600476Y-19601950D02*
X36638571Y-19640045D01*
X36638571Y-19640045D02*
X36676667Y-19716236D01*
X36676667Y-19716236D02*
X36676667Y-19830521D01*
X36676667Y-19830521D02*
X36638571Y-19906712D01*
X36638571Y-19906712D02*
X36600476Y-19944807D01*
X36600476Y-19944807D02*
X36524286Y-19982902D01*
X36524286Y-19982902D02*
X36219524Y-19982902D01*
X37438571Y-20363855D02*
X36981428Y-20363855D01*
X37210000Y-20363855D02*
X37210000Y-19563855D01*
X37210000Y-19563855D02*
X37133809Y-19678140D01*
X37133809Y-19678140D02*
X37057619Y-19754331D01*
X37057619Y-19754331D02*
X36981428Y-19792426D01*
X37366667Y-6403855D02*
X37100000Y-6022902D01*
X36909524Y-6403855D02*
X36909524Y-5603855D01*
X36909524Y-5603855D02*
X37214286Y-5603855D01*
X37214286Y-5603855D02*
X37290476Y-5641950D01*
X37290476Y-5641950D02*
X37328571Y-5680045D01*
X37328571Y-5680045D02*
X37366667Y-5756236D01*
X37366667Y-5756236D02*
X37366667Y-5870521D01*
X37366667Y-5870521D02*
X37328571Y-5946712D01*
X37328571Y-5946712D02*
X37290476Y-5984807D01*
X37290476Y-5984807D02*
X37214286Y-6022902D01*
X37214286Y-6022902D02*
X36909524Y-6022902D01*
X38090476Y-5603855D02*
X37709524Y-5603855D01*
X37709524Y-5603855D02*
X37671428Y-5984807D01*
X37671428Y-5984807D02*
X37709524Y-5946712D01*
X37709524Y-5946712D02*
X37785714Y-5908617D01*
X37785714Y-5908617D02*
X37976190Y-5908617D01*
X37976190Y-5908617D02*
X38052381Y-5946712D01*
X38052381Y-5946712D02*
X38090476Y-5984807D01*
X38090476Y-5984807D02*
X38128571Y-6060998D01*
X38128571Y-6060998D02*
X38128571Y-6251474D01*
X38128571Y-6251474D02*
X38090476Y-6327664D01*
X38090476Y-6327664D02*
X38052381Y-6365760D01*
X38052381Y-6365760D02*
X37976190Y-6403855D01*
X37976190Y-6403855D02*
X37785714Y-6403855D01*
X37785714Y-6403855D02*
X37709524Y-6365760D01*
X37709524Y-6365760D02*
X37671428Y-6327664D01*
X53366666Y-26463855D02*
X52985714Y-26463855D01*
X52985714Y-26463855D02*
X52985714Y-25663855D01*
X54052380Y-26463855D02*
X53595237Y-26463855D01*
X53823809Y-26463855D02*
X53823809Y-25663855D01*
X53823809Y-25663855D02*
X53747618Y-25778140D01*
X53747618Y-25778140D02*
X53671428Y-25854331D01*
X53671428Y-25854331D02*
X53595237Y-25892426D01*
X44233333Y-6563855D02*
X44233333Y-7135283D01*
X44233333Y-7135283D02*
X44195238Y-7249569D01*
X44195238Y-7249569D02*
X44119047Y-7325760D01*
X44119047Y-7325760D02*
X44004762Y-7363855D01*
X44004762Y-7363855D02*
X43928571Y-7363855D01*
X44538095Y-6563855D02*
X45033333Y-6563855D01*
X45033333Y-6563855D02*
X44766667Y-6868617D01*
X44766667Y-6868617D02*
X44880952Y-6868617D01*
X44880952Y-6868617D02*
X44957143Y-6906712D01*
X44957143Y-6906712D02*
X44995238Y-6944807D01*
X44995238Y-6944807D02*
X45033333Y-7020998D01*
X45033333Y-7020998D02*
X45033333Y-7211474D01*
X45033333Y-7211474D02*
X44995238Y-7287664D01*
X44995238Y-7287664D02*
X44957143Y-7325760D01*
X44957143Y-7325760D02*
X44880952Y-7363855D01*
X44880952Y-7363855D02*
X44652381Y-7363855D01*
X44652381Y-7363855D02*
X44576190Y-7325760D01*
X44576190Y-7325760D02*
X44538095Y-7287664D01*
X40176667Y-32363855D02*
X39910000Y-31982902D01*
X39719524Y-32363855D02*
X39719524Y-31563855D01*
X39719524Y-31563855D02*
X40024286Y-31563855D01*
X40024286Y-31563855D02*
X40100476Y-31601950D01*
X40100476Y-31601950D02*
X40138571Y-31640045D01*
X40138571Y-31640045D02*
X40176667Y-31716236D01*
X40176667Y-31716236D02*
X40176667Y-31830521D01*
X40176667Y-31830521D02*
X40138571Y-31906712D01*
X40138571Y-31906712D02*
X40100476Y-31944807D01*
X40100476Y-31944807D02*
X40024286Y-31982902D01*
X40024286Y-31982902D02*
X39719524Y-31982902D01*
X40443333Y-31563855D02*
X40938571Y-31563855D01*
X40938571Y-31563855D02*
X40671905Y-31868617D01*
X40671905Y-31868617D02*
X40786190Y-31868617D01*
X40786190Y-31868617D02*
X40862381Y-31906712D01*
X40862381Y-31906712D02*
X40900476Y-31944807D01*
X40900476Y-31944807D02*
X40938571Y-32020998D01*
X40938571Y-32020998D02*
X40938571Y-32211474D01*
X40938571Y-32211474D02*
X40900476Y-32287664D01*
X40900476Y-32287664D02*
X40862381Y-32325760D01*
X40862381Y-32325760D02*
X40786190Y-32363855D01*
X40786190Y-32363855D02*
X40557619Y-32363855D01*
X40557619Y-32363855D02*
X40481428Y-32325760D01*
X40481428Y-32325760D02*
X40443333Y-32287664D01*
X26973333Y-25963855D02*
X26973333Y-26535283D01*
X26973333Y-26535283D02*
X26935238Y-26649569D01*
X26935238Y-26649569D02*
X26859047Y-26725760D01*
X26859047Y-26725760D02*
X26744762Y-26763855D01*
X26744762Y-26763855D02*
X26668571Y-26763855D01*
X27278095Y-25963855D02*
X27811429Y-25963855D01*
X27811429Y-25963855D02*
X27468571Y-26763855D01*
X37366667Y-14923855D02*
X37100000Y-14542902D01*
X36909524Y-14923855D02*
X36909524Y-14123855D01*
X36909524Y-14123855D02*
X37214286Y-14123855D01*
X37214286Y-14123855D02*
X37290476Y-14161950D01*
X37290476Y-14161950D02*
X37328571Y-14200045D01*
X37328571Y-14200045D02*
X37366667Y-14276236D01*
X37366667Y-14276236D02*
X37366667Y-14390521D01*
X37366667Y-14390521D02*
X37328571Y-14466712D01*
X37328571Y-14466712D02*
X37290476Y-14504807D01*
X37290476Y-14504807D02*
X37214286Y-14542902D01*
X37214286Y-14542902D02*
X36909524Y-14542902D01*
X38052381Y-14123855D02*
X37900000Y-14123855D01*
X37900000Y-14123855D02*
X37823809Y-14161950D01*
X37823809Y-14161950D02*
X37785714Y-14200045D01*
X37785714Y-14200045D02*
X37709524Y-14314331D01*
X37709524Y-14314331D02*
X37671428Y-14466712D01*
X37671428Y-14466712D02*
X37671428Y-14771474D01*
X37671428Y-14771474D02*
X37709524Y-14847664D01*
X37709524Y-14847664D02*
X37747619Y-14885760D01*
X37747619Y-14885760D02*
X37823809Y-14923855D01*
X37823809Y-14923855D02*
X37976190Y-14923855D01*
X37976190Y-14923855D02*
X38052381Y-14885760D01*
X38052381Y-14885760D02*
X38090476Y-14847664D01*
X38090476Y-14847664D02*
X38128571Y-14771474D01*
X38128571Y-14771474D02*
X38128571Y-14580998D01*
X38128571Y-14580998D02*
X38090476Y-14504807D01*
X38090476Y-14504807D02*
X38052381Y-14466712D01*
X38052381Y-14466712D02*
X37976190Y-14428617D01*
X37976190Y-14428617D02*
X37823809Y-14428617D01*
X37823809Y-14428617D02*
X37747619Y-14466712D01*
X37747619Y-14466712D02*
X37709524Y-14504807D01*
X37709524Y-14504807D02*
X37671428Y-14580998D01*
X4733333Y-62863855D02*
X4733333Y-63435283D01*
X4733333Y-63435283D02*
X4695238Y-63549569D01*
X4695238Y-63549569D02*
X4619047Y-63625760D01*
X4619047Y-63625760D02*
X4504762Y-63663855D01*
X4504762Y-63663855D02*
X4428571Y-63663855D01*
X5533333Y-63663855D02*
X5076190Y-63663855D01*
X5304762Y-63663855D02*
X5304762Y-62863855D01*
X5304762Y-62863855D02*
X5228571Y-62978140D01*
X5228571Y-62978140D02*
X5152381Y-63054331D01*
X5152381Y-63054331D02*
X5076190Y-63092426D01*
X51619524Y-21363855D02*
X51619524Y-20563855D01*
X51619524Y-20563855D02*
X51810000Y-20563855D01*
X51810000Y-20563855D02*
X51924286Y-20601950D01*
X51924286Y-20601950D02*
X52000476Y-20678140D01*
X52000476Y-20678140D02*
X52038571Y-20754331D01*
X52038571Y-20754331D02*
X52076667Y-20906712D01*
X52076667Y-20906712D02*
X52076667Y-21020998D01*
X52076667Y-21020998D02*
X52038571Y-21173379D01*
X52038571Y-21173379D02*
X52000476Y-21249569D01*
X52000476Y-21249569D02*
X51924286Y-21325760D01*
X51924286Y-21325760D02*
X51810000Y-21363855D01*
X51810000Y-21363855D02*
X51619524Y-21363855D01*
X52838571Y-21363855D02*
X52381428Y-21363855D01*
X52610000Y-21363855D02*
X52610000Y-20563855D01*
X52610000Y-20563855D02*
X52533809Y-20678140D01*
X52533809Y-20678140D02*
X52457619Y-20754331D01*
X52457619Y-20754331D02*
X52381428Y-20792426D01*
X19233333Y-41563855D02*
X19233333Y-42135283D01*
X19233333Y-42135283D02*
X19195238Y-42249569D01*
X19195238Y-42249569D02*
X19119047Y-42325760D01*
X19119047Y-42325760D02*
X19004762Y-42363855D01*
X19004762Y-42363855D02*
X18928571Y-42363855D01*
X19995238Y-41563855D02*
X19614286Y-41563855D01*
X19614286Y-41563855D02*
X19576190Y-41944807D01*
X19576190Y-41944807D02*
X19614286Y-41906712D01*
X19614286Y-41906712D02*
X19690476Y-41868617D01*
X19690476Y-41868617D02*
X19880952Y-41868617D01*
X19880952Y-41868617D02*
X19957143Y-41906712D01*
X19957143Y-41906712D02*
X19995238Y-41944807D01*
X19995238Y-41944807D02*
X20033333Y-42020998D01*
X20033333Y-42020998D02*
X20033333Y-42211474D01*
X20033333Y-42211474D02*
X19995238Y-42287664D01*
X19995238Y-42287664D02*
X19957143Y-42325760D01*
X19957143Y-42325760D02*
X19880952Y-42363855D01*
X19880952Y-42363855D02*
X19690476Y-42363855D01*
X19690476Y-42363855D02*
X19614286Y-42325760D01*
X19614286Y-42325760D02*
X19576190Y-42287664D01*
X40176667Y-34863855D02*
X39910000Y-34482902D01*
X39719524Y-34863855D02*
X39719524Y-34063855D01*
X39719524Y-34063855D02*
X40024286Y-34063855D01*
X40024286Y-34063855D02*
X40100476Y-34101950D01*
X40100476Y-34101950D02*
X40138571Y-34140045D01*
X40138571Y-34140045D02*
X40176667Y-34216236D01*
X40176667Y-34216236D02*
X40176667Y-34330521D01*
X40176667Y-34330521D02*
X40138571Y-34406712D01*
X40138571Y-34406712D02*
X40100476Y-34444807D01*
X40100476Y-34444807D02*
X40024286Y-34482902D01*
X40024286Y-34482902D02*
X39719524Y-34482902D01*
X40862381Y-34330521D02*
X40862381Y-34863855D01*
X40671905Y-34025760D02*
X40481428Y-34597188D01*
X40481428Y-34597188D02*
X40976667Y-34597188D01*
X57866667Y-36797664D02*
X57828571Y-36835760D01*
X57828571Y-36835760D02*
X57714286Y-36873855D01*
X57714286Y-36873855D02*
X57638095Y-36873855D01*
X57638095Y-36873855D02*
X57523809Y-36835760D01*
X57523809Y-36835760D02*
X57447619Y-36759569D01*
X57447619Y-36759569D02*
X57409524Y-36683379D01*
X57409524Y-36683379D02*
X57371428Y-36530998D01*
X57371428Y-36530998D02*
X57371428Y-36416712D01*
X57371428Y-36416712D02*
X57409524Y-36264331D01*
X57409524Y-36264331D02*
X57447619Y-36188140D01*
X57447619Y-36188140D02*
X57523809Y-36111950D01*
X57523809Y-36111950D02*
X57638095Y-36073855D01*
X57638095Y-36073855D02*
X57714286Y-36073855D01*
X57714286Y-36073855D02*
X57828571Y-36111950D01*
X57828571Y-36111950D02*
X57866667Y-36150045D01*
X58628571Y-36873855D02*
X58171428Y-36873855D01*
X58400000Y-36873855D02*
X58400000Y-36073855D01*
X58400000Y-36073855D02*
X58323809Y-36188140D01*
X58323809Y-36188140D02*
X58247619Y-36264331D01*
X58247619Y-36264331D02*
X58171428Y-36302426D01*
X49866667Y-51327664D02*
X49828571Y-51365760D01*
X49828571Y-51365760D02*
X49714286Y-51403855D01*
X49714286Y-51403855D02*
X49638095Y-51403855D01*
X49638095Y-51403855D02*
X49523809Y-51365760D01*
X49523809Y-51365760D02*
X49447619Y-51289569D01*
X49447619Y-51289569D02*
X49409524Y-51213379D01*
X49409524Y-51213379D02*
X49371428Y-51060998D01*
X49371428Y-51060998D02*
X49371428Y-50946712D01*
X49371428Y-50946712D02*
X49409524Y-50794331D01*
X49409524Y-50794331D02*
X49447619Y-50718140D01*
X49447619Y-50718140D02*
X49523809Y-50641950D01*
X49523809Y-50641950D02*
X49638095Y-50603855D01*
X49638095Y-50603855D02*
X49714286Y-50603855D01*
X49714286Y-50603855D02*
X49828571Y-50641950D01*
X49828571Y-50641950D02*
X49866667Y-50680045D01*
X50552381Y-50603855D02*
X50400000Y-50603855D01*
X50400000Y-50603855D02*
X50323809Y-50641950D01*
X50323809Y-50641950D02*
X50285714Y-50680045D01*
X50285714Y-50680045D02*
X50209524Y-50794331D01*
X50209524Y-50794331D02*
X50171428Y-50946712D01*
X50171428Y-50946712D02*
X50171428Y-51251474D01*
X50171428Y-51251474D02*
X50209524Y-51327664D01*
X50209524Y-51327664D02*
X50247619Y-51365760D01*
X50247619Y-51365760D02*
X50323809Y-51403855D01*
X50323809Y-51403855D02*
X50476190Y-51403855D01*
X50476190Y-51403855D02*
X50552381Y-51365760D01*
X50552381Y-51365760D02*
X50590476Y-51327664D01*
X50590476Y-51327664D02*
X50628571Y-51251474D01*
X50628571Y-51251474D02*
X50628571Y-51060998D01*
X50628571Y-51060998D02*
X50590476Y-50984807D01*
X50590476Y-50984807D02*
X50552381Y-50946712D01*
X50552381Y-50946712D02*
X50476190Y-50908617D01*
X50476190Y-50908617D02*
X50323809Y-50908617D01*
X50323809Y-50908617D02*
X50247619Y-50946712D01*
X50247619Y-50946712D02*
X50209524Y-50984807D01*
X50209524Y-50984807D02*
X50171428Y-51060998D01*
X36676667Y-23363855D02*
X36410000Y-22982902D01*
X36219524Y-23363855D02*
X36219524Y-22563855D01*
X36219524Y-22563855D02*
X36524286Y-22563855D01*
X36524286Y-22563855D02*
X36600476Y-22601950D01*
X36600476Y-22601950D02*
X36638571Y-22640045D01*
X36638571Y-22640045D02*
X36676667Y-22716236D01*
X36676667Y-22716236D02*
X36676667Y-22830521D01*
X36676667Y-22830521D02*
X36638571Y-22906712D01*
X36638571Y-22906712D02*
X36600476Y-22944807D01*
X36600476Y-22944807D02*
X36524286Y-22982902D01*
X36524286Y-22982902D02*
X36219524Y-22982902D01*
X36981428Y-22640045D02*
X37019524Y-22601950D01*
X37019524Y-22601950D02*
X37095714Y-22563855D01*
X37095714Y-22563855D02*
X37286190Y-22563855D01*
X37286190Y-22563855D02*
X37362381Y-22601950D01*
X37362381Y-22601950D02*
X37400476Y-22640045D01*
X37400476Y-22640045D02*
X37438571Y-22716236D01*
X37438571Y-22716236D02*
X37438571Y-22792426D01*
X37438571Y-22792426D02*
X37400476Y-22906712D01*
X37400476Y-22906712D02*
X36943333Y-23363855D01*
X36943333Y-23363855D02*
X37438571Y-23363855D01*
X40366667Y-64487664D02*
X40328571Y-64525760D01*
X40328571Y-64525760D02*
X40214286Y-64563855D01*
X40214286Y-64563855D02*
X40138095Y-64563855D01*
X40138095Y-64563855D02*
X40023809Y-64525760D01*
X40023809Y-64525760D02*
X39947619Y-64449569D01*
X39947619Y-64449569D02*
X39909524Y-64373379D01*
X39909524Y-64373379D02*
X39871428Y-64220998D01*
X39871428Y-64220998D02*
X39871428Y-64106712D01*
X39871428Y-64106712D02*
X39909524Y-63954331D01*
X39909524Y-63954331D02*
X39947619Y-63878140D01*
X39947619Y-63878140D02*
X40023809Y-63801950D01*
X40023809Y-63801950D02*
X40138095Y-63763855D01*
X40138095Y-63763855D02*
X40214286Y-63763855D01*
X40214286Y-63763855D02*
X40328571Y-63801950D01*
X40328571Y-63801950D02*
X40366667Y-63840045D01*
X40633333Y-63763855D02*
X41166667Y-63763855D01*
X41166667Y-63763855D02*
X40823809Y-64563855D01*
%TO.C,R8*%
D12*
X17610000Y-29340000D02*
X18570000Y-29340000D01*
X17610000Y-30660000D02*
X17610000Y-29340000D01*
X18570000Y-30660000D02*
X17610000Y-30660000D01*
X19430000Y-30660000D02*
X20390000Y-30660000D01*
X20390000Y-29340000D02*
X19430000Y-29340000D01*
X20390000Y-30660000D02*
X20390000Y-29340000D01*
%TO.C,C5*%
D14*
X44610000Y-27600000D02*
X44610000Y-26800000D01*
X45720000Y-26490000D02*
X44920000Y-26490000D01*
X45720000Y-27910000D02*
X44920000Y-27910000D01*
X46280000Y-26490000D02*
X47080000Y-26490000D01*
X46280000Y-27910000D02*
X47080000Y-27910000D01*
X47390000Y-26800000D02*
X47390000Y-27600000D01*
X44610000Y-26800000D02*
G75*
G02*
X44920000Y-26490000I310000J0D01*
G01*
X44920000Y-27910000D02*
G75*
G02*
X44610000Y-27600000I0J310000D01*
G01*
X47080000Y-26490000D02*
G75*
G02*
X47390000Y-26800000I0J-310000D01*
G01*
X47390000Y-27600000D02*
G75*
G02*
X47080000Y-27910000I-310000J0D01*
G01*
D15*
X45230000Y-27600000D02*
G75*
G02*
X45170000Y-27600000I-30000J0D01*
G01*
X45170000Y-27600000D02*
G75*
G02*
X45230000Y-27600000I30000J0D01*
G01*
%TO.C,Q1*%
D14*
X41300000Y-9000000D02*
X42300000Y-9000000D01*
X41300000Y-9780000D02*
X41300000Y-9000000D01*
X41300000Y-12000000D02*
X41300000Y-11210930D01*
X41300000Y-12000000D02*
X42300000Y-12000000D01*
X42700000Y-10810000D02*
X42700000Y-10180000D01*
%TO.C,J2*%
X23740000Y-68460000D02*
X23740000Y-75475000D01*
X25069552Y-68460000D02*
X23740000Y-68460000D01*
X25160000Y-69070000D02*
X25069552Y-68460000D01*
X26720000Y-69070000D02*
X25160000Y-69070000D01*
X27310000Y-68580000D02*
X27315000Y-69055000D01*
X27315000Y-69055000D02*
X26720000Y-69070000D01*
X27720000Y-68580000D02*
X27310000Y-68580000D01*
X27720000Y-69070000D02*
X27720000Y-68580000D01*
X29780000Y-68534688D02*
X29780000Y-69047031D01*
X29780000Y-68535000D02*
X29780000Y-69045938D01*
X29780000Y-69047031D02*
X27720000Y-69070000D01*
X30240000Y-68536563D02*
X29780000Y-68534688D01*
X30240000Y-68536563D02*
X29780000Y-68535625D01*
X30240000Y-69070000D02*
X30240000Y-68536875D01*
X32290000Y-68530000D02*
X32290000Y-69042500D01*
X32290000Y-68530000D02*
X32290000Y-69043750D01*
X32290000Y-69043750D02*
X30240000Y-69070000D01*
X32693125Y-68530000D02*
X32290000Y-68530000D01*
X32693125Y-68530000D02*
X32290000Y-68530000D01*
X32700000Y-69070000D02*
X32693750Y-68530000D01*
X34830000Y-68480000D02*
X34830000Y-69070000D01*
X34830000Y-69070000D02*
X32700000Y-69070000D01*
X35270000Y-68480000D02*
X34830000Y-68480000D01*
X36230000Y-68485000D02*
X35270000Y-68480000D01*
X36230000Y-68485000D02*
X36230000Y-75490000D01*
X36230000Y-75490000D02*
X23740000Y-75475000D01*
%TO.C,R7*%
D12*
X53610000Y-17340000D02*
X54570000Y-17340000D01*
X53610000Y-18660000D02*
X53610000Y-17340000D01*
X54570000Y-18660000D02*
X53610000Y-18660000D01*
X55430000Y-18660000D02*
X56390000Y-18660000D01*
X56390000Y-17340000D02*
X55430000Y-17340000D01*
X56390000Y-18660000D02*
X56390000Y-17340000D01*
%TO.C,J6*%
D14*
X10750000Y-7110000D02*
X10750000Y-24890000D01*
X10750000Y-24890000D02*
X13250000Y-24890000D01*
X13250000Y-7110000D02*
X10750000Y-7110000D01*
X13250000Y-9650000D02*
X10750000Y-9650000D01*
X13250000Y-24890000D02*
X13250000Y-7110000D01*
D15*
X10780000Y-7120000D02*
G75*
G02*
X10720000Y-7120000I-30000J0D01*
G01*
X10720000Y-7120000D02*
G75*
G02*
X10780000Y-7120000I30000J0D01*
G01*
%TO.C,J4*%
D14*
X20840000Y-55970000D02*
X41160000Y-55970000D01*
X20840000Y-58510000D02*
X20840000Y-55970000D01*
X23400000Y-55970000D02*
X23400000Y-58510000D01*
X41160000Y-55970000D02*
X41160000Y-58510000D01*
X41160000Y-58510000D02*
X20840000Y-58510000D01*
%TO.C,C2*%
D12*
X49600000Y-23600000D02*
X49675000Y-22115000D01*
X49600000Y-24400000D02*
X49675000Y-25885000D01*
X49675000Y-22115000D02*
X51325000Y-22115000D01*
X49675000Y-25885000D02*
X51325000Y-25885000D01*
X51325000Y-22115000D02*
X51400000Y-23600000D01*
X51325000Y-25885000D02*
X51400000Y-24400000D01*
X49600000Y-22190000D02*
G75*
G02*
X49750000Y-22040000I150000J0D01*
G01*
X49750000Y-25960000D02*
G75*
G02*
X49600000Y-25810000I0J150000D01*
G01*
X51250000Y-22040000D02*
G75*
G02*
X51400000Y-22190000I0J-150000D01*
G01*
X51400000Y-25810000D02*
G75*
G02*
X51250000Y-25960000I-150000J0D01*
G01*
%TO.C,C4*%
X51615000Y-33675000D02*
X53100000Y-33600000D01*
X51615000Y-35325000D02*
X51615000Y-33675000D01*
X53100000Y-35400000D02*
X51615000Y-35325000D01*
X53900000Y-35400000D02*
X55385000Y-35325000D01*
X55385000Y-33675000D02*
X53900000Y-33600000D01*
X55385000Y-35325000D02*
X55385000Y-33675000D01*
X51540000Y-33750000D02*
G75*
G02*
X51690000Y-33600000I150000J0D01*
G01*
X51690000Y-35400000D02*
G75*
G02*
X51540000Y-35250000I0J150000D01*
G01*
X55310000Y-33600000D02*
G75*
G02*
X55460000Y-33750000I0J-150000D01*
G01*
X55460000Y-35250000D02*
G75*
G02*
X55310000Y-35400000I-150000J0D01*
G01*
%TO.C,C3*%
X46615000Y-33675000D02*
X48100000Y-33600000D01*
X46615000Y-35325000D02*
X46615000Y-33675000D01*
X48100000Y-35400000D02*
X46615000Y-35325000D01*
X48900000Y-35400000D02*
X50385000Y-35325000D01*
X50385000Y-33675000D02*
X48900000Y-33600000D01*
X50385000Y-35325000D02*
X50385000Y-33675000D01*
X46540000Y-33750000D02*
G75*
G02*
X46690000Y-33600000I150000J0D01*
G01*
X46690000Y-35400000D02*
G75*
G02*
X46540000Y-35250000I0J150000D01*
G01*
X50310000Y-33600000D02*
G75*
G02*
X50460000Y-33750000I0J-150000D01*
G01*
X50460000Y-35250000D02*
G75*
G02*
X50310000Y-35400000I-150000J0D01*
G01*
%TO.C,U1*%
D14*
X45520000Y-22450000D02*
X46480000Y-22450000D01*
X45520000Y-25550000D02*
X46480000Y-25550000D01*
X47530000Y-25650000D02*
G75*
G02*
X47270000Y-25650000I-130000J0D01*
G01*
X47270000Y-25650000D02*
G75*
G02*
X47530000Y-25650000I130000J0D01*
G01*
%TO.C,R1*%
D12*
X38110000Y-19340000D02*
X39070000Y-19340000D01*
X38110000Y-20660000D02*
X38110000Y-19340000D01*
X39070000Y-20660000D02*
X38110000Y-20660000D01*
X39930000Y-20660000D02*
X40890000Y-20660000D01*
X40890000Y-19340000D02*
X39930000Y-19340000D01*
X40890000Y-20660000D02*
X40890000Y-19340000D01*
%TO.C,R5*%
X36110000Y-7340000D02*
X37070000Y-7340000D01*
X36110000Y-8660000D02*
X36110000Y-7340000D01*
X37070000Y-8660000D02*
X36110000Y-8660000D01*
X37930000Y-8660000D02*
X38890000Y-8660000D01*
X38890000Y-7340000D02*
X37930000Y-7340000D01*
X38890000Y-8660000D02*
X38890000Y-7340000D01*
%TO.C,L1*%
X50970000Y-27054375D02*
X54890000Y-27089792D01*
X50970000Y-27071250D02*
X50970000Y-27054375D01*
X50970000Y-31928750D02*
X50970000Y-31945625D01*
X50970000Y-31945625D02*
X54890000Y-31910208D01*
X56030000Y-26970000D02*
X56030000Y-27105000D01*
X56030000Y-32030000D02*
X56030000Y-31895000D01*
%TO.C,J3*%
D14*
X45350000Y-6245000D02*
X45350000Y-15240000D01*
X45350000Y-6245000D02*
X59550000Y-6240000D01*
X45350000Y-15240000D02*
X53520000Y-15240000D01*
X48110000Y-6250000D02*
X48110000Y-15250000D01*
X54089032Y-15240000D02*
X53520000Y-15240000D01*
X59550000Y-6240000D02*
X59550000Y-8649756D01*
X59550000Y-12750236D02*
X59550000Y-15240000D01*
X59550000Y-15240000D02*
X58550000Y-15240000D01*
%TO.C,R3*%
D12*
X41610000Y-31340000D02*
X42570000Y-31340000D01*
X41610000Y-32660000D02*
X41610000Y-31340000D01*
X42570000Y-32660000D02*
X41610000Y-32660000D01*
X43430000Y-32660000D02*
X44390000Y-32660000D01*
X44390000Y-31340000D02*
X43430000Y-31340000D01*
X44390000Y-32660000D02*
X44390000Y-31340000D01*
%TO.C,J7*%
D14*
X25990000Y-7110000D02*
X25990000Y-24890000D01*
X25990000Y-24890000D02*
X28490000Y-24890000D01*
X28490000Y-7110000D02*
X25990000Y-7110000D01*
X28490000Y-9650000D02*
X25990000Y-9650000D01*
X28490000Y-24890000D02*
X28490000Y-7110000D01*
D15*
X26020000Y-7120000D02*
G75*
G02*
X25960000Y-7120000I-30000J0D01*
G01*
X25960000Y-7120000D02*
G75*
G02*
X26020000Y-7120000I30000J0D01*
G01*
%TO.C,R6*%
D12*
X36110000Y-11940000D02*
X37070000Y-11940000D01*
X36110000Y-13260000D02*
X36110000Y-11940000D01*
X37070000Y-13260000D02*
X36110000Y-13260000D01*
X37930000Y-13260000D02*
X38890000Y-13260000D01*
X38890000Y-11940000D02*
X37930000Y-11940000D01*
X38890000Y-13260000D02*
X38890000Y-11940000D01*
%TO.C,J1*%
D14*
X6030000Y-64060000D02*
X6030000Y-69900000D01*
X6030000Y-66170000D02*
X6500000Y-66185000D01*
X6030000Y-66740000D02*
X6500000Y-66720000D01*
X6030000Y-69900000D02*
X16025000Y-69900000D01*
X6500000Y-66170000D02*
X6500000Y-66185000D01*
X6500000Y-66740000D02*
X6500000Y-66720000D01*
X6560000Y-64570000D02*
X15570000Y-64570000D01*
X6560000Y-69400000D02*
X6560000Y-64570000D01*
X7700000Y-64570000D02*
X7700000Y-64060000D01*
X9220000Y-64570000D02*
X9220000Y-64060000D01*
X12780000Y-64570000D02*
X12780000Y-64060000D01*
X14300000Y-64245000D02*
X14300000Y-64302500D01*
X14300000Y-64360000D02*
X14300000Y-64302500D01*
X15570000Y-64570000D02*
X15570000Y-69400000D01*
X15570000Y-69400000D02*
X6560000Y-69400000D01*
X15600000Y-66100000D02*
X16080000Y-66100000D01*
X15600000Y-66700000D02*
X16080000Y-66675000D01*
X16025000Y-64060000D02*
X6030000Y-64060000D01*
X16025000Y-69900000D02*
X16025000Y-64060000D01*
X16080000Y-66100000D02*
X16080000Y-66100000D01*
X16080000Y-66700000D02*
X16080000Y-66675000D01*
D15*
X6030000Y-69780000D02*
G75*
G02*
X5970000Y-69780000I-30000J0D01*
G01*
X5970000Y-69780000D02*
G75*
G02*
X6030000Y-69780000I30000J0D01*
G01*
%TO.C,D1*%
D12*
X53510000Y-20598437D02*
X53510000Y-20599219D01*
X53510000Y-20599219D02*
X53810000Y-20250000D01*
X53510000Y-20603125D02*
X53510000Y-21398438D01*
X53510000Y-21398438D02*
X53810000Y-21750000D01*
X53510000Y-21403125D02*
X53510000Y-21400000D01*
X55050000Y-20250000D02*
X53810000Y-20250000D01*
X55050000Y-20250000D02*
X56390000Y-20250000D01*
X55050000Y-21750000D02*
X53810000Y-21750000D01*
X55050000Y-21750000D02*
X56390000Y-21740000D01*
X55084896Y-21143207D02*
X55084576Y-21147960D01*
X55089732Y-21173379D02*
X55085094Y-21160649D01*
X55107598Y-21203672D02*
X55099275Y-21190459D01*
X55220000Y-20654844D02*
X55084255Y-21152714D01*
X55220000Y-20654844D02*
X55084576Y-21147960D01*
X55220000Y-20655312D02*
X55220000Y-20655000D01*
X56390000Y-20250000D02*
X56390000Y-21740000D01*
%TO.C,J5*%
D14*
X20840000Y-40730000D02*
X41160000Y-40730000D01*
X20840000Y-43270000D02*
X20840000Y-40730000D01*
X23400000Y-40730000D02*
X23400000Y-43270000D01*
X41160000Y-40730000D02*
X41160000Y-43270000D01*
X41160000Y-43270000D02*
X20840000Y-43270000D01*
%TO.C,R4*%
D12*
X41610000Y-33840000D02*
X42570000Y-33840000D01*
X41610000Y-35160000D02*
X41610000Y-33840000D01*
X42570000Y-35160000D02*
X41610000Y-35160000D01*
X43430000Y-35160000D02*
X44390000Y-35160000D01*
X44390000Y-33840000D02*
X43430000Y-33840000D01*
X44390000Y-35160000D02*
X44390000Y-33840000D01*
%TO.C,C1*%
D14*
X56610000Y-34900000D02*
X56610000Y-34100000D01*
X57720000Y-33790000D02*
X56920000Y-33790000D01*
X57720000Y-35210000D02*
X56920000Y-35210000D01*
X58280000Y-33790000D02*
X59080000Y-33790000D01*
X58280000Y-35210000D02*
X59080000Y-35210000D01*
X59390000Y-34100000D02*
X59390000Y-34900000D01*
X56610000Y-34100000D02*
G75*
G02*
X56920000Y-33790000I310000J0D01*
G01*
X56920000Y-35210000D02*
G75*
G02*
X56610000Y-34900000I0J310000D01*
G01*
X59080000Y-33790000D02*
G75*
G02*
X59390000Y-34100000I0J-310000D01*
G01*
X59390000Y-34900000D02*
G75*
G02*
X59080000Y-35210000I-310000J0D01*
G01*
D15*
X57230000Y-34900000D02*
G75*
G02*
X57170000Y-34900000I-30000J0D01*
G01*
X57170000Y-34900000D02*
G75*
G02*
X57230000Y-34900000I30000J0D01*
G01*
%TO.C,C6*%
D12*
X44770000Y-54150000D02*
X44770000Y-56107477D01*
X44770000Y-60330000D02*
X44770000Y-58372523D01*
X46910000Y-52020000D02*
X44770000Y-54150000D01*
X46910000Y-62470000D02*
X44770000Y-60330000D01*
X55220000Y-52020000D02*
X46910000Y-52020000D01*
X55220000Y-56109358D02*
X55220000Y-52020000D01*
X55220000Y-58370000D02*
X55220000Y-62470000D01*
X55220000Y-62470000D02*
X46910000Y-62470000D01*
%TO.C,R2*%
X38110000Y-22340000D02*
X39070000Y-22340000D01*
X38110000Y-23660000D02*
X38110000Y-22340000D01*
X39070000Y-23660000D02*
X38110000Y-23660000D01*
X39930000Y-23660000D02*
X40890000Y-23660000D01*
X40890000Y-22340000D02*
X39930000Y-22340000D01*
X40890000Y-23660000D02*
X40890000Y-22340000D01*
%TO.C,C7*%
X38615000Y-61175000D02*
X40100000Y-61100000D01*
X38615000Y-62825000D02*
X38615000Y-61175000D01*
X40100000Y-62900000D02*
X38615000Y-62825000D01*
X40900000Y-62900000D02*
X42385000Y-62825000D01*
X42385000Y-61175000D02*
X40900000Y-61100000D01*
X42385000Y-62825000D02*
X42385000Y-61175000D01*
X38540000Y-61250000D02*
G75*
G02*
X38690000Y-61100000I150000J0D01*
G01*
X38690000Y-62900000D02*
G75*
G02*
X38540000Y-62750000I0J150000D01*
G01*
X42310000Y-61100000D02*
G75*
G02*
X42460000Y-61250000I0J-150000D01*
G01*
X42460000Y-62750000D02*
G75*
G02*
X42310000Y-62900000I-150000J0D01*
G01*
%TD*%
M02*
