%TF.GenerationSoftware,KiCad,Pcbnew,10.0.4*%
%TF.CreationDate,2026-07-19T09:17:58-07:00*%
%TF.ProjectId,filled,66696c6c-6564-42e6-9b69-6361645f7063,rev?*%
%TF.SameCoordinates,Original*%
%TF.FileFunction,Copper,L1,Top*%
%TF.FilePolarity,Positive*%
%FSLAX46Y46*%
G04 Gerber Fmt 4.6, Leading zero omitted, Abs format (unit mm)*
G04 Created by KiCad (PCBNEW 10.0.4) date 2026-07-19 09:17:58*
%MOMM*%
%LPD*%
G01*
G04 APERTURE LIST*
%TA.AperFunction,SMDPad,CuDef*%
%ADD10R,0.810000X0.860000*%
%TD*%
%TA.AperFunction,SMDPad,CuDef*%
%ADD11R,0.800000X0.900000*%
%TD*%
%TA.AperFunction,SMDPad,CuDef*%
%ADD12R,1.000000X0.800000*%
%TD*%
%TA.AperFunction,ComponentPad*%
%ADD13C,1.800000*%
%TD*%
%TA.AperFunction,ComponentPad*%
%ADD14R,1.700000X1.700000*%
%TD*%
%TA.AperFunction,ComponentPad*%
%ADD15C,1.700000*%
%TD*%
%TA.AperFunction,ComponentPad*%
%ADD16R,1.500000X1.500000*%
%TD*%
%TA.AperFunction,ComponentPad*%
%ADD17C,1.500000*%
%TD*%
%TA.AperFunction,SMDPad,CuDef*%
%ADD18R,1.350000X1.410000*%
%TD*%
%TA.AperFunction,SMDPad,CuDef*%
%ADD19R,1.410000X1.350000*%
%TD*%
%TA.AperFunction,SMDPad,CuDef*%
%ADD20R,1.100000X0.600000*%
%TD*%
%TA.AperFunction,SMDPad,CuDef*%
%ADD21R,2.120000X4.220000*%
%TD*%
%TA.AperFunction,ComponentPad*%
%ADD22O,3.500000X1.300000*%
%TD*%
%TA.AperFunction,ComponentPad*%
%ADD23O,1.500000X3.500000*%
%TD*%
%TA.AperFunction,ComponentPad*%
%ADD24C,1.550000*%
%TD*%
%TA.AperFunction,SMDPad,CuDef*%
%ADD25R,0.800000X0.800000*%
%TD*%
%TA.AperFunction,SMDPad,CuDef*%
%ADD26R,4.500000X1.650000*%
%TD*%
%TA.AperFunction,ViaPad*%
%ADD27C,0.600000*%
%TD*%
%TA.AperFunction,Conductor*%
%ADD28C,0.800000*%
%TD*%
%TA.AperFunction,Conductor*%
%ADD29C,0.400000*%
%TD*%
%TA.AperFunction,Conductor*%
%ADD30C,1.000000*%
%TD*%
%TA.AperFunction,Conductor*%
%ADD31C,0.600000*%
%TD*%
G04 APERTURE END LIST*
D10*
%TO.P,R8,1*%
%TO.N,1-3*%
X18250000Y-30000000D03*
%TO.P,R8,2*%
%TO.N,pdn*%
X19750000Y-30000000D03*
%TD*%
D11*
%TO.P,C5,1*%
%TO.N,vbst*%
X45300000Y-27200000D03*
%TO.P,C5,2*%
%TO.N,2-1*%
X46700000Y-27200000D03*
%TD*%
D12*
%TO.P,Q1,1*%
%TO.N,1-2*%
X43150000Y-11450000D03*
%TO.P,Q1,2*%
%TO.N,v12_raw*%
X43150000Y-9550000D03*
%TO.P,Q1,3*%
%TO.N,1-1*%
X40850000Y-10500000D03*
%TD*%
D13*
%TO.P,J2,1*%
%TO.N,m1a*%
X33750000Y-68000000D03*
%TO.P,J2,2*%
%TO.N,m1b*%
X31250000Y-68000000D03*
%TO.P,J2,3*%
%TO.N,m2a*%
X28750000Y-68000000D03*
%TO.P,J2,4*%
%TO.N,m2b*%
X26250000Y-68000000D03*
%TD*%
D10*
%TO.P,R7,1*%
%TO.N,1*%
X54250000Y-18000000D03*
%TO.P,R7,2*%
%TO.N,2-2*%
X55750000Y-18000000D03*
%TD*%
D14*
%TO.P,J6,1*%
%TO.N,step*%
X12000000Y-8380000D03*
D15*
%TO.P,J6,2*%
%TO.N,dir*%
X12000000Y-10920000D03*
%TO.P,J6,3*%
%TO.N,en_n*%
X12000000Y-13460000D03*
%TO.P,J6,4*%
%TO.N,xiao_left-4*%
X12000000Y-16000000D03*
%TO.P,J6,5*%
%TO.N,5*%
X12000000Y-18540000D03*
%TO.P,J6,6*%
%TO.N,6*%
X12000000Y-21080000D03*
%TO.P,J6,7*%
%TO.N,1-3*%
X12000000Y-23620000D03*
%TD*%
D16*
%TO.P,J4,1*%
%TO.N,2*%
X22110000Y-57240000D03*
D17*
%TO.P,J4,2*%
%TO.N,p3v3*%
X24650000Y-57240000D03*
%TO.P,J4,3*%
%TO.N,m1b*%
X27190000Y-57240000D03*
%TO.P,J4,4*%
%TO.N,m1a*%
X29730000Y-57240000D03*
%TO.P,J4,5*%
%TO.N,m2a*%
X32270000Y-57240000D03*
%TO.P,J4,6*%
%TO.N,m2b*%
X34810000Y-57240000D03*
%TO.P,J4,7*%
%TO.N,2*%
X37350000Y-57240000D03*
%TO.P,J4,8*%
%TO.N,1-1*%
X39890000Y-57240000D03*
%TD*%
D18*
%TO.P,C2,1*%
%TO.N,1-1*%
X50500000Y-23000000D03*
%TO.P,C2,2*%
%TO.N,2*%
X50500000Y-25000000D03*
%TD*%
D19*
%TO.P,C4,1*%
%TO.N,1*%
X52500000Y-34500000D03*
%TO.P,C4,2*%
%TO.N,2*%
X54500000Y-34500000D03*
%TD*%
%TO.P,C3,1*%
%TO.N,1*%
X47500000Y-34500000D03*
%TO.P,C3,2*%
%TO.N,2*%
X49500000Y-34500000D03*
%TD*%
D20*
%TO.P,U1,1*%
%TO.N,2*%
X47350000Y-24950000D03*
%TO.P,U1,2*%
%TO.N,2-1*%
X47350000Y-24000000D03*
%TO.P,U1,3*%
%TO.N,1-1*%
X47350000Y-23050000D03*
%TO.P,U1,4*%
%TO.N,vfb*%
X44650000Y-23050000D03*
%TO.P,U1,5*%
%TO.N,ven*%
X44650000Y-24000000D03*
%TO.P,U1,6*%
%TO.N,vbst*%
X44650000Y-24950000D03*
%TD*%
D10*
%TO.P,R1,1*%
%TO.N,1-1*%
X38750000Y-20000000D03*
%TO.P,R1,2*%
%TO.N,ven*%
X40250000Y-20000000D03*
%TD*%
%TO.P,R5,1*%
%TO.N,1-2*%
X36750000Y-8000000D03*
%TO.P,R5,2*%
%TO.N,v12_raw*%
X38250000Y-8000000D03*
%TD*%
D21*
%TO.P,L1,1*%
%TO.N,1*%
X55500000Y-29500000D03*
%TO.P,L1,2*%
%TO.N,2-1*%
X51500000Y-29500000D03*
%TD*%
D22*
%TO.P,J3,2*%
%TO.N,2*%
X56150000Y-15300000D03*
D23*
%TO.P,J3,3*%
X52850000Y-10700000D03*
%TO.P,J3,4*%
%TO.N,v12_raw*%
X59150000Y-10700000D03*
%TD*%
D10*
%TO.P,R3,1*%
%TO.N,1*%
X42250000Y-32000000D03*
%TO.P,R3,2*%
%TO.N,vfb*%
X43750000Y-32000000D03*
%TD*%
D14*
%TO.P,J7,1*%
%TO.N,1*%
X27240000Y-8380000D03*
D15*
%TO.P,J7,2*%
%TO.N,2*%
X27240000Y-10920000D03*
%TO.P,J7,3*%
%TO.N,p3v3*%
X27240000Y-13460000D03*
%TO.P,J7,4*%
%TO.N,xiao_right-4*%
X27240000Y-16000000D03*
%TO.P,J7,5*%
%TO.N,xiao_right-5*%
X27240000Y-18540000D03*
%TO.P,J7,6*%
%TO.N,hall_do*%
X27240000Y-21080000D03*
%TO.P,J7,7*%
%TO.N,7*%
X27240000Y-23620000D03*
%TD*%
D10*
%TO.P,R6,1*%
%TO.N,1-2*%
X36750000Y-12600000D03*
%TO.P,R6,2*%
%TO.N,2*%
X38250000Y-12600000D03*
%TD*%
D24*
%TO.P,J1,1*%
%TO.N,1*%
X8500000Y-66500000D03*
%TO.P,J1,2*%
%TO.N,2*%
X11000000Y-66500000D03*
%TO.P,J1,3*%
%TO.N,hall_do*%
X13500000Y-66500000D03*
%TD*%
D25*
%TO.P,D1,1*%
%TO.N,2*%
X54250000Y-21000000D03*
%TO.P,D1,2*%
%TO.N,2-2*%
X55750000Y-21000000D03*
%TD*%
D16*
%TO.P,J5,1*%
%TO.N,dir*%
X22110000Y-42000000D03*
D17*
%TO.P,J5,2*%
%TO.N,step*%
X24650000Y-42000000D03*
%TO.P,J5,3*%
%TO.N,pdn*%
X27190000Y-42000000D03*
%TO.P,J5,4*%
%TO.N,4*%
X29730000Y-42000000D03*
%TO.P,J5,5*%
%TO.N,2*%
X32270000Y-42000000D03*
%TO.P,J5,6*%
X34810000Y-42000000D03*
%TO.P,J5,7*%
X37350000Y-42000000D03*
%TO.P,J5,8*%
%TO.N,en_n*%
X39890000Y-42000000D03*
%TD*%
D10*
%TO.P,R4,1*%
%TO.N,vfb*%
X42250000Y-34500000D03*
%TO.P,R4,2*%
%TO.N,2*%
X43750000Y-34500000D03*
%TD*%
D11*
%TO.P,C1,1*%
%TO.N,1*%
X57300000Y-34500000D03*
%TO.P,C1,2*%
%TO.N,2*%
X58700000Y-34500000D03*
%TD*%
D26*
%TO.P,C6,1*%
%TO.N,1-1*%
X45500000Y-57240000D03*
%TO.P,C6,2*%
%TO.N,2*%
X54500000Y-57240000D03*
%TD*%
D10*
%TO.P,R2,1*%
%TO.N,ven*%
X38750000Y-23000000D03*
%TO.P,R2,2*%
%TO.N,2*%
X40250000Y-23000000D03*
%TD*%
D19*
%TO.P,C7,1*%
%TO.N,1-1*%
X39500000Y-62000000D03*
%TO.P,C7,2*%
%TO.N,2*%
X41500000Y-62000000D03*
%TD*%
D27*
%TO.N,2*%
X44000000Y-72000000D03*
X52000000Y-20000000D03*
X17500000Y-20000000D03*
X7000000Y-50000000D03*
X20000000Y-72000000D03*
X36000000Y-50000000D03*
X52000000Y-45000000D03*
X36000000Y-20000000D03*
%TO.N,1*%
X40000000Y-31000000D03*
%TO.N,1-1*%
X45500000Y-54000000D03*
X50500000Y-21000000D03*
X37000000Y-18600000D03*
X41600000Y-16600000D03*
X44600000Y-59900000D03*
%TO.N,vfb*%
X43000000Y-30000000D03*
X43000000Y-23050000D03*
%TO.N,1-2*%
X35400000Y-8000000D03*
X44600000Y-13600000D03*
%TO.N,dir*%
X8000000Y-10920000D03*
X22110000Y-37400000D03*
%TO.N,step*%
X24650000Y-36000000D03*
X9400000Y-8380000D03*
%TO.N,en_n*%
X6600000Y-13460000D03*
%TO.N,1-3*%
X18250000Y-27600000D03*
%TD*%
%TO.N,1*%
D28*
X47500000Y-34500000D02*
X47500000Y-33000000D01*
X57600000Y-29500000D02*
X57600000Y-33000000D01*
D29*
X42250000Y-29000000D02*
X46000000Y-29000000D01*
X54250000Y-18000000D02*
X54250000Y-17000000D01*
D28*
X42250000Y-32000000D02*
X40000000Y-32000000D01*
D29*
X46000000Y-33000000D02*
X47500000Y-33000000D01*
X42250000Y-32000000D02*
X42250000Y-29000000D01*
D28*
X47500000Y-33000000D02*
X52500000Y-33000000D01*
X52500000Y-34500000D02*
X52500000Y-33000000D01*
D29*
X46000000Y-29000000D02*
X46000000Y-33000000D01*
X57600000Y-17000000D02*
X57600000Y-29500000D01*
X54250000Y-17000000D02*
X57600000Y-17000000D01*
D28*
X40000000Y-32000000D02*
X40000000Y-31000000D01*
X57600000Y-33000000D02*
X57300000Y-33000000D01*
X55500000Y-29500000D02*
X57600000Y-29500000D01*
X57300000Y-33000000D02*
X57300000Y-34500000D01*
X52500000Y-33000000D02*
X57300000Y-33000000D01*
%TO.N,hall_do*%
D29*
X30600000Y-25000000D02*
X10600000Y-25000000D01*
X27240000Y-21080000D02*
X30600000Y-21080000D01*
X30600000Y-21080000D02*
X30600000Y-25000000D01*
X10600000Y-25000000D02*
X10600000Y-63000000D01*
X10600000Y-63000000D02*
X13500000Y-63000000D01*
X13500000Y-63000000D02*
X13500000Y-66500000D01*
%TO.N,m1a*%
D30*
X33750000Y-63000000D02*
X33750000Y-68000000D01*
X29730000Y-60000000D02*
X33750000Y-63000000D01*
X29730000Y-57240000D02*
X29730000Y-60000000D01*
%TO.N,v12_raw*%
D29*
X44200000Y-8000000D02*
X44200000Y-6200000D01*
X38250000Y-8000000D02*
X44200000Y-8000000D01*
D30*
X45500000Y-6200000D02*
X45500000Y-9550000D01*
D29*
X44200000Y-6200000D02*
X45500000Y-6200000D01*
D30*
X59150000Y-10700000D02*
X59150000Y-6200000D01*
X59150000Y-6200000D02*
X45500000Y-6200000D01*
X45500000Y-9550000D02*
X43150000Y-9550000D01*
%TO.N,1-1*%
X40850000Y-10500000D02*
X41600000Y-10500000D01*
D31*
X47350000Y-22200000D02*
X50500000Y-22200000D01*
D30*
X45500000Y-57240000D02*
X45500000Y-54000000D01*
D29*
X37000000Y-20000000D02*
X37000000Y-18600000D01*
D31*
X50500000Y-22200000D02*
X50500000Y-23000000D01*
D28*
X39500000Y-62000000D02*
X39500000Y-59900000D01*
D30*
X41600000Y-10500000D02*
X41600000Y-16600000D01*
D31*
X47350000Y-23050000D02*
X47350000Y-22200000D01*
D28*
X39500000Y-59900000D02*
X44600000Y-59900000D01*
D29*
X38750000Y-20000000D02*
X37000000Y-20000000D01*
D28*
X50500000Y-23000000D02*
X50500000Y-21000000D01*
%TO.N,ven*%
D29*
X42200000Y-20000000D02*
X40250000Y-20000000D01*
X38750000Y-23000000D02*
X38750000Y-21600000D01*
X44650000Y-24000000D02*
X42200000Y-24000000D01*
X38750000Y-21600000D02*
X42200000Y-21600000D01*
X42200000Y-24000000D02*
X42200000Y-20000000D01*
%TO.N,vfb*%
X44650000Y-23050000D02*
X43000000Y-23050000D01*
X43750000Y-30000000D02*
X43750000Y-32000000D01*
X42250000Y-34500000D02*
X42250000Y-36000000D01*
X43000000Y-30000000D02*
X43750000Y-30000000D01*
X44600000Y-36000000D02*
X44600000Y-32600000D01*
X44600000Y-32600000D02*
X43750000Y-32600000D01*
X42250000Y-36000000D02*
X44600000Y-36000000D01*
X43750000Y-32600000D02*
X43750000Y-32000000D01*
%TO.N,1-2*%
X44600000Y-13600000D02*
X44600000Y-11450000D01*
X34400000Y-8000000D02*
X35400000Y-8000000D01*
X44600000Y-11450000D02*
X43150000Y-11450000D01*
X34400000Y-12600000D02*
X34400000Y-8000000D01*
X36750000Y-12600000D02*
X34400000Y-12600000D01*
X36750000Y-8000000D02*
X35400000Y-8000000D01*
%TO.N,2-2*%
X55750000Y-18000000D02*
X55750000Y-21000000D01*
%TO.N,pdn*%
X27190000Y-30000000D02*
X27190000Y-42000000D01*
X19750000Y-30000000D02*
X27190000Y-30000000D01*
%TO.N,m1b*%
D30*
X27190000Y-61000000D02*
X31210000Y-64500000D01*
X27190000Y-57240000D02*
X27190000Y-61000000D01*
X31210000Y-64500000D02*
X31210000Y-68000000D01*
%TO.N,dir*%
D29*
X12000000Y-10920000D02*
X8000000Y-10920000D01*
X22110000Y-37400000D02*
X22110000Y-42000000D01*
%TO.N,step*%
X24650000Y-36000000D02*
X24650000Y-42000000D01*
X12000000Y-8380000D02*
X9400000Y-8380000D01*
%TO.N,en_n*%
X12000000Y-13460000D02*
X6600000Y-13460000D01*
%TO.N,2-1*%
D31*
X48600000Y-29500000D02*
X51500000Y-29500000D01*
X47350000Y-24000000D02*
X48600000Y-24000000D01*
X48600000Y-24000000D02*
X48600000Y-29500000D01*
D29*
X46700000Y-27200000D02*
X48600000Y-27200000D01*
%TO.N,vbst*%
X44650000Y-24950000D02*
X43600000Y-24950000D01*
X43600000Y-24950000D02*
X43600000Y-27200000D01*
X43600000Y-27200000D02*
X45300000Y-27200000D01*
%TO.N,1-3*%
X18250000Y-27600000D02*
X18250000Y-30000000D01*
%TO.N,p3v3*%
X16000000Y-26000000D02*
X16000000Y-53000000D01*
X31600000Y-13460000D02*
X31600000Y-26000000D01*
X31600000Y-26000000D02*
X16000000Y-26000000D01*
X27240000Y-13460000D02*
X31600000Y-13460000D01*
X16000000Y-53000000D02*
X24650000Y-53000000D01*
X24650000Y-53000000D02*
X24650000Y-57240000D01*
%TD*%
%TA.AperFunction,Conductor*%
%TO.N,2*%
G36*
X61425000Y-520462D02*
G01*
X61479538Y-575000D01*
X61499500Y-649500D01*
X61499500Y-75350500D01*
X61479538Y-75425000D01*
X61425000Y-75479538D01*
X61350500Y-75499500D01*
X649500Y-75499500D01*
X575000Y-75479538D01*
X520462Y-75425000D01*
X500500Y-75350500D01*
X500500Y-72362320D01*
X1399500Y-72362320D01*
X1399500Y-72637679D01*
X1435437Y-72910650D01*
X1435440Y-72910667D01*
X1506703Y-73176629D01*
X1506703Y-73176630D01*
X1572745Y-73336066D01*
X1612077Y-73431021D01*
X1749751Y-73669479D01*
X1917372Y-73887928D01*
X2112072Y-74082628D01*
X2330521Y-74250249D01*
X2568979Y-74387923D01*
X2712420Y-74447338D01*
X2823369Y-74493296D01*
X2986139Y-74536909D01*
X3089334Y-74564560D01*
X3362326Y-74600500D01*
X3637674Y-74600500D01*
X3910666Y-74564560D01*
X4120423Y-74508355D01*
X4176629Y-74493296D01*
X4176630Y-74493296D01*
X4209125Y-74479835D01*
X4431021Y-74387923D01*
X4669479Y-74250249D01*
X4887928Y-74082628D01*
X5082628Y-73887928D01*
X5250249Y-73669479D01*
X5387923Y-73431021D01*
X5493295Y-73176632D01*
X5564560Y-72910666D01*
X5600500Y-72637674D01*
X5600500Y-72362326D01*
X5600499Y-72362320D01*
X56399500Y-72362320D01*
X56399500Y-72637679D01*
X56435437Y-72910650D01*
X56435440Y-72910667D01*
X56506703Y-73176629D01*
X56506703Y-73176630D01*
X56572745Y-73336066D01*
X56612077Y-73431021D01*
X56749751Y-73669479D01*
X56917372Y-73887928D01*
X57112072Y-74082628D01*
X57330521Y-74250249D01*
X57568979Y-74387923D01*
X57712420Y-74447338D01*
X57823369Y-74493296D01*
X57986139Y-74536909D01*
X58089334Y-74564560D01*
X58362326Y-74600500D01*
X58637674Y-74600500D01*
X58910666Y-74564560D01*
X59120423Y-74508355D01*
X59176629Y-74493296D01*
X59176630Y-74493296D01*
X59209125Y-74479835D01*
X59431021Y-74387923D01*
X59669479Y-74250249D01*
X59887928Y-74082628D01*
X60082628Y-73887928D01*
X60250249Y-73669479D01*
X60387923Y-73431021D01*
X60493295Y-73176632D01*
X60564560Y-72910666D01*
X60600500Y-72637674D01*
X60600500Y-72362326D01*
X60564560Y-72089334D01*
X60493296Y-71823370D01*
X60493296Y-71823369D01*
X60427255Y-71663934D01*
X60387923Y-71568979D01*
X60250249Y-71330521D01*
X60082628Y-71112072D01*
X59887928Y-70917372D01*
X59669479Y-70749751D01*
X59431021Y-70612077D01*
X59398527Y-70598617D01*
X59176630Y-70506703D01*
X58910667Y-70435440D01*
X58910650Y-70435437D01*
X58637679Y-70399500D01*
X58637674Y-70399500D01*
X58362326Y-70399500D01*
X58362320Y-70399500D01*
X58089349Y-70435437D01*
X58089332Y-70435440D01*
X57823370Y-70506703D01*
X57823369Y-70506703D01*
X57568976Y-70612078D01*
X57330522Y-70749750D01*
X57112070Y-70917373D01*
X56917373Y-71112070D01*
X56749750Y-71330522D01*
X56612078Y-71568976D01*
X56506703Y-71823369D01*
X56506703Y-71823370D01*
X56435440Y-72089332D01*
X56435437Y-72089349D01*
X56399500Y-72362320D01*
X5600499Y-72362320D01*
X5564560Y-72089334D01*
X5493296Y-71823370D01*
X5493296Y-71823369D01*
X5427255Y-71663934D01*
X5387923Y-71568979D01*
X5250249Y-71330521D01*
X5082628Y-71112072D01*
X4887928Y-70917372D01*
X4669479Y-70749751D01*
X4431021Y-70612077D01*
X4398527Y-70598617D01*
X4176630Y-70506703D01*
X3910667Y-70435440D01*
X3910650Y-70435437D01*
X3637679Y-70399500D01*
X3637674Y-70399500D01*
X3362326Y-70399500D01*
X3362320Y-70399500D01*
X3089349Y-70435437D01*
X3089332Y-70435440D01*
X2823370Y-70506703D01*
X2823369Y-70506703D01*
X2568976Y-70612078D01*
X2330522Y-70749750D01*
X2112070Y-70917373D01*
X1917373Y-71112070D01*
X1749750Y-71330522D01*
X1612078Y-71568976D01*
X1506703Y-71823369D01*
X1506703Y-71823370D01*
X1435440Y-72089332D01*
X1435437Y-72089349D01*
X1399500Y-72362320D01*
X500500Y-72362320D01*
X500500Y-13391006D01*
X5899500Y-13391006D01*
X5899500Y-13528993D01*
X5926419Y-13664325D01*
X5926420Y-13664329D01*
X5979224Y-13791809D01*
X5979227Y-13791815D01*
X5987589Y-13804329D01*
X6055886Y-13906542D01*
X6153458Y-14004114D01*
X6153461Y-14004116D01*
X6268184Y-14080772D01*
X6268186Y-14080773D01*
X6268189Y-14080775D01*
X6395672Y-14133580D01*
X6531007Y-14160500D01*
X6668993Y-14160500D01*
X6804328Y-14133580D01*
X6931811Y-14080775D01*
X6931820Y-14080768D01*
X6936826Y-14078094D01*
X7007065Y-14060500D01*
X10814665Y-14060500D01*
X10889165Y-14080462D01*
X10935208Y-14121919D01*
X10994430Y-14203430D01*
X11046172Y-14274646D01*
X11185354Y-14413828D01*
X11344595Y-14529524D01*
X11412744Y-14564247D01*
X11477495Y-14597240D01*
X11534813Y-14648849D01*
X11558647Y-14722202D01*
X11542611Y-14797644D01*
X11491002Y-14854962D01*
X11477495Y-14862760D01*
X11344598Y-14930474D01*
X11344593Y-14930477D01*
X11185363Y-15046165D01*
X11185352Y-15046174D01*
X11046174Y-15185352D01*
X11046165Y-15185363D01*
X10930477Y-15344593D01*
X10930474Y-15344598D01*
X10841121Y-15519963D01*
X10841117Y-15519972D01*
X10841116Y-15519975D01*
X10780291Y-15707174D01*
X10749500Y-15901583D01*
X10749500Y-16098417D01*
X10780291Y-16292826D01*
X10841116Y-16480025D01*
X10841119Y-16480030D01*
X10841121Y-16480036D01*
X10861219Y-16519480D01*
X10930476Y-16655405D01*
X11046172Y-16814646D01*
X11185354Y-16953828D01*
X11344595Y-17069524D01*
X11412744Y-17104247D01*
X11477495Y-17137240D01*
X11534813Y-17188849D01*
X11558647Y-17262202D01*
X11542611Y-17337644D01*
X11491002Y-17394962D01*
X11477495Y-17402760D01*
X11344598Y-17470474D01*
X11344593Y-17470477D01*
X11185363Y-17586165D01*
X11185352Y-17586174D01*
X11046174Y-17725352D01*
X11046165Y-17725363D01*
X10930477Y-17884593D01*
X10930474Y-17884598D01*
X10841121Y-18059963D01*
X10841117Y-18059972D01*
X10841116Y-18059975D01*
X10780291Y-18247174D01*
X10749500Y-18441583D01*
X10749500Y-18638417D01*
X10780291Y-18832826D01*
X10841116Y-19020025D01*
X10841119Y-19020030D01*
X10841121Y-19020036D01*
X10917277Y-19169500D01*
X10930476Y-19195405D01*
X11046172Y-19354646D01*
X11185354Y-19493828D01*
X11344595Y-19609524D01*
X11387300Y-19631283D01*
X11477495Y-19677240D01*
X11534813Y-19728849D01*
X11558647Y-19802202D01*
X11542611Y-19877644D01*
X11491002Y-19934962D01*
X11477495Y-19942760D01*
X11344598Y-20010474D01*
X11344593Y-20010477D01*
X11185363Y-20126165D01*
X11185352Y-20126174D01*
X11046174Y-20265352D01*
X11046165Y-20265363D01*
X10930477Y-20424593D01*
X10930474Y-20424598D01*
X10841121Y-20599963D01*
X10841117Y-20599972D01*
X10841116Y-20599975D01*
X10780291Y-20787174D01*
X10749500Y-20981583D01*
X10749500Y-21178417D01*
X10780291Y-21372826D01*
X10841116Y-21560025D01*
X10841119Y-21560030D01*
X10841121Y-21560036D01*
X10881020Y-21638342D01*
X10930476Y-21735405D01*
X11046172Y-21894646D01*
X11185354Y-22033828D01*
X11344595Y-22149524D01*
X11384185Y-22169696D01*
X11477495Y-22217240D01*
X11534813Y-22268849D01*
X11558647Y-22342202D01*
X11542611Y-22417644D01*
X11491002Y-22474962D01*
X11477495Y-22482760D01*
X11344598Y-22550474D01*
X11344593Y-22550477D01*
X11185363Y-22666165D01*
X11185352Y-22666174D01*
X11046174Y-22805352D01*
X11046165Y-22805363D01*
X10930477Y-22964593D01*
X10930474Y-22964598D01*
X10841121Y-23139963D01*
X10841117Y-23139972D01*
X10841116Y-23139975D01*
X10780291Y-23327174D01*
X10749500Y-23521583D01*
X10749500Y-23718417D01*
X10780291Y-23912826D01*
X10841116Y-24100025D01*
X10841120Y-24100034D01*
X10841121Y-24100035D01*
X10883320Y-24182856D01*
X10899356Y-24258298D01*
X10875522Y-24331651D01*
X10818204Y-24383260D01*
X10750560Y-24399500D01*
X10679057Y-24399500D01*
X10520943Y-24399500D01*
X10368216Y-24440423D01*
X10368214Y-24440423D01*
X10368214Y-24440424D01*
X10231283Y-24519480D01*
X10119480Y-24631283D01*
X10040424Y-24768214D01*
X10040423Y-24768216D01*
X10035105Y-24788064D01*
X9999500Y-24920941D01*
X9999500Y-24920943D01*
X9999500Y-62920943D01*
X9999500Y-63079057D01*
X10040423Y-63231784D01*
X10119480Y-63368716D01*
X10231284Y-63480520D01*
X10368216Y-63559577D01*
X10520943Y-63600500D01*
X12750500Y-63600500D01*
X12825000Y-63620462D01*
X12879538Y-63675000D01*
X12899500Y-63749500D01*
X12899500Y-65407371D01*
X12879538Y-65481871D01*
X12838081Y-65527914D01*
X12734217Y-65603376D01*
X12734211Y-65603381D01*
X12603376Y-65734216D01*
X12494624Y-65883899D01*
X12494623Y-65883902D01*
X12410623Y-66048759D01*
X12410621Y-66048764D01*
X12391443Y-66107788D01*
X12349435Y-66172472D01*
X12280713Y-66207486D01*
X12203690Y-66203449D01*
X12139006Y-66161441D01*
X12108028Y-66107784D01*
X12088914Y-66048958D01*
X12088912Y-66048951D01*
X12004948Y-65884165D01*
X12004945Y-65884160D01*
X11989985Y-65863568D01*
X11442147Y-66411405D01*
X11419344Y-66326302D01*
X11360099Y-66223686D01*
X11276314Y-66139901D01*
X11173698Y-66080656D01*
X11088592Y-66057851D01*
X11636431Y-65510013D01*
X11615831Y-65495048D01*
X11451054Y-65411090D01*
X11451044Y-65411086D01*
X11275142Y-65353932D01*
X11092469Y-65325000D01*
X10907531Y-65325000D01*
X10724857Y-65353932D01*
X10548955Y-65411086D01*
X10548951Y-65411088D01*
X10384167Y-65495049D01*
X10363569Y-65510014D01*
X10911406Y-66057852D01*
X10826302Y-66080656D01*
X10723686Y-66139901D01*
X10639901Y-66223686D01*
X10580656Y-66326302D01*
X10557852Y-66411406D01*
X10010014Y-65863569D01*
X9995049Y-65884167D01*
X9911088Y-66048951D01*
X9911082Y-66048963D01*
X9891970Y-66107786D01*
X9849963Y-66172471D01*
X9781241Y-66207486D01*
X9704219Y-66203449D01*
X9639534Y-66161442D01*
X9608556Y-66107786D01*
X9599741Y-66080656D01*
X9589379Y-66048765D01*
X9505378Y-65883904D01*
X9505375Y-65883900D01*
X9505375Y-65883899D01*
X9396623Y-65734216D01*
X9396621Y-65734213D01*
X9265787Y-65603379D01*
X9265783Y-65603376D01*
X9116100Y-65494624D01*
X9116097Y-65494623D01*
X9116098Y-65494623D01*
X9116096Y-65494622D01*
X9038206Y-65454935D01*
X8951240Y-65410623D01*
X8951236Y-65410621D01*
X8951235Y-65410621D01*
X8897516Y-65393167D01*
X8775269Y-65353446D01*
X8775270Y-65353446D01*
X8775264Y-65353445D01*
X8592514Y-65324500D01*
X8407486Y-65324500D01*
X8246787Y-65349952D01*
X8224729Y-65353446D01*
X8048771Y-65410619D01*
X8048759Y-65410623D01*
X7883902Y-65494623D01*
X7883899Y-65494624D01*
X7734216Y-65603376D01*
X7603376Y-65734216D01*
X7494624Y-65883899D01*
X7494623Y-65883902D01*
X7410623Y-66048759D01*
X7410619Y-66048771D01*
X7353446Y-66224729D01*
X7353445Y-66224736D01*
X7324500Y-66407486D01*
X7324500Y-66592514D01*
X7341445Y-66699500D01*
X7353446Y-66775270D01*
X7389982Y-66887714D01*
X7410560Y-66951048D01*
X7410619Y-66951228D01*
X7410623Y-66951240D01*
X7454912Y-67038161D01*
X7494490Y-67115837D01*
X7494623Y-67116097D01*
X7494624Y-67116100D01*
X7603376Y-67265783D01*
X7603379Y-67265787D01*
X7734213Y-67396621D01*
X7734216Y-67396623D01*
X7883899Y-67505375D01*
X7883900Y-67505375D01*
X7883904Y-67505378D01*
X8048765Y-67589379D01*
X8224730Y-67646553D01*
X8224736Y-67646555D01*
X8407486Y-67675500D01*
X8407491Y-67675500D01*
X8592509Y-67675500D01*
X8592514Y-67675500D01*
X8775264Y-67646555D01*
X8951235Y-67589379D01*
X9116096Y-67505378D01*
X9265787Y-67396621D01*
X9396621Y-67265787D01*
X9505378Y-67116096D01*
X9589379Y-66951235D01*
X9608556Y-66892211D01*
X9650562Y-66827529D01*
X9719284Y-66792513D01*
X9796306Y-66796549D01*
X9860991Y-66838556D01*
X9891970Y-66892213D01*
X9911083Y-66951036D01*
X9911090Y-66951054D01*
X9995048Y-67115831D01*
X10010013Y-67136430D01*
X10557851Y-66588592D01*
X10580656Y-66673698D01*
X10639901Y-66776314D01*
X10723686Y-66860099D01*
X10826302Y-66919344D01*
X10911405Y-66942147D01*
X10363568Y-67489984D01*
X10363568Y-67489985D01*
X10384160Y-67504945D01*
X10384165Y-67504948D01*
X10548951Y-67588912D01*
X10548955Y-67588913D01*
X10724857Y-67646067D01*
X10907531Y-67675000D01*
X11092469Y-67675000D01*
X11275142Y-67646067D01*
X11451044Y-67588913D01*
X11451048Y-67588911D01*
X11615835Y-67504948D01*
X11615837Y-67504947D01*
X11636430Y-67489985D01*
X11636430Y-67489984D01*
X11088593Y-66942147D01*
X11173698Y-66919344D01*
X11276314Y-66860099D01*
X11360099Y-66776314D01*
X11419344Y-66673698D01*
X11442147Y-66588593D01*
X11989984Y-67136430D01*
X11989985Y-67136430D01*
X12004947Y-67115837D01*
X12004948Y-67115835D01*
X12088911Y-66951048D01*
X12088914Y-66951041D01*
X12108028Y-66892215D01*
X12150034Y-66827530D01*
X12218755Y-66792513D01*
X12295778Y-66796549D01*
X12360463Y-66838555D01*
X12391443Y-66892212D01*
X12391444Y-66892214D01*
X12410560Y-66951048D01*
X12410620Y-66951231D01*
X12410623Y-66951240D01*
X12454912Y-67038161D01*
X12494490Y-67115837D01*
X12494623Y-67116097D01*
X12494624Y-67116100D01*
X12603376Y-67265783D01*
X12603379Y-67265787D01*
X12734213Y-67396621D01*
X12734216Y-67396623D01*
X12883899Y-67505375D01*
X12883900Y-67505375D01*
X12883904Y-67505378D01*
X13048765Y-67589379D01*
X13224730Y-67646553D01*
X13224736Y-67646555D01*
X13407486Y-67675500D01*
X13407491Y-67675500D01*
X13592509Y-67675500D01*
X13592514Y-67675500D01*
X13775264Y-67646555D01*
X13951235Y-67589379D01*
X14116096Y-67505378D01*
X14265787Y-67396621D01*
X14396621Y-67265787D01*
X14505378Y-67116096D01*
X14589379Y-66951235D01*
X14646555Y-66775264D01*
X14675500Y-66592514D01*
X14675500Y-66407486D01*
X14646555Y-66224736D01*
X14639638Y-66203449D01*
X14633734Y-66185276D01*
X14589379Y-66048765D01*
X14505378Y-65883904D01*
X14505375Y-65883900D01*
X14505375Y-65883899D01*
X14396623Y-65734216D01*
X14396621Y-65734213D01*
X14265787Y-65603379D01*
X14201884Y-65556951D01*
X14161919Y-65527914D01*
X14113381Y-65467974D01*
X14100500Y-65407371D01*
X14100500Y-62920943D01*
X14100499Y-62920941D01*
X14098463Y-62913342D01*
X14059577Y-62768216D01*
X13980520Y-62631284D01*
X13868716Y-62519480D01*
X13731784Y-62440423D01*
X13579057Y-62399500D01*
X11349500Y-62399500D01*
X11275000Y-62379538D01*
X11220462Y-62325000D01*
X11200500Y-62250500D01*
X11200500Y-25749500D01*
X11220462Y-25675000D01*
X11275000Y-25620462D01*
X11349500Y-25600500D01*
X15291182Y-25600500D01*
X15365682Y-25620462D01*
X15420220Y-25675000D01*
X15440182Y-25749500D01*
X15435105Y-25788061D01*
X15432041Y-25799499D01*
X15399500Y-25920941D01*
X15399500Y-25920943D01*
X15399500Y-52920943D01*
X15399500Y-53079057D01*
X15440423Y-53231784D01*
X15519480Y-53368716D01*
X15631284Y-53480520D01*
X15768216Y-53559577D01*
X15920943Y-53600500D01*
X23900500Y-53600500D01*
X23975000Y-53620462D01*
X24029538Y-53675000D01*
X24049500Y-53749500D01*
X24049500Y-56178272D01*
X24029538Y-56252772D01*
X23988080Y-56298816D01*
X23900500Y-56362446D01*
X23900497Y-56362448D01*
X23772448Y-56490497D01*
X23772446Y-56490500D01*
X23666005Y-56637003D01*
X23666005Y-56637004D01*
X23583787Y-56798363D01*
X23583785Y-56798368D01*
X23550706Y-56900177D01*
X23508700Y-56964862D01*
X23439978Y-56999878D01*
X23362956Y-56995841D01*
X23298271Y-56953835D01*
X23263255Y-56885113D01*
X23259999Y-56854134D01*
X23259999Y-56458517D01*
X23245165Y-56364853D01*
X23187640Y-56251954D01*
X23098045Y-56162359D01*
X22985150Y-56104836D01*
X22985148Y-56104835D01*
X22891476Y-56090000D01*
X22360000Y-56090000D01*
X22360000Y-56806989D01*
X22302992Y-56774076D01*
X22175826Y-56740001D01*
X22044174Y-56740001D01*
X21917008Y-56774076D01*
X21860000Y-56806989D01*
X21860000Y-56090000D01*
X21328517Y-56090000D01*
X21234853Y-56104834D01*
X21121954Y-56162359D01*
X21032359Y-56251954D01*
X20974836Y-56364849D01*
X20974835Y-56364851D01*
X20960000Y-56458523D01*
X20960000Y-56990000D01*
X21676990Y-56990000D01*
X21644076Y-57047008D01*
X21610001Y-57174174D01*
X21610001Y-57305826D01*
X21644076Y-57432992D01*
X21676990Y-57490000D01*
X20960001Y-57490000D01*
X20960001Y-58021482D01*
X20974834Y-58115146D01*
X21032359Y-58228045D01*
X21121954Y-58317640D01*
X21234849Y-58375163D01*
X21234851Y-58375164D01*
X21328523Y-58389999D01*
X21860000Y-58389999D01*
X21860000Y-57673010D01*
X21917008Y-57705924D01*
X22044174Y-57739999D01*
X22175826Y-57739999D01*
X22302992Y-57705924D01*
X22360000Y-57673010D01*
X22360000Y-58389999D01*
X22891483Y-58389999D01*
X22985146Y-58375165D01*
X23098045Y-58317640D01*
X23187640Y-58228045D01*
X23245163Y-58115150D01*
X23245164Y-58115148D01*
X23259999Y-58021476D01*
X23259999Y-57625866D01*
X23279961Y-57551366D01*
X23334499Y-57496828D01*
X23408999Y-57476866D01*
X23483499Y-57496828D01*
X23538037Y-57551366D01*
X23550706Y-57579823D01*
X23583785Y-57681631D01*
X23583787Y-57681636D01*
X23583789Y-57681639D01*
X23665873Y-57842737D01*
X23666005Y-57842995D01*
X23666005Y-57842996D01*
X23719225Y-57916247D01*
X23772447Y-57989501D01*
X23900499Y-58117553D01*
X24047006Y-58223996D01*
X24208361Y-58306211D01*
X24380591Y-58362171D01*
X24559454Y-58390500D01*
X24559458Y-58390500D01*
X24740542Y-58390500D01*
X24740546Y-58390500D01*
X24919409Y-58362171D01*
X25091639Y-58306211D01*
X25252994Y-58223996D01*
X25399501Y-58117553D01*
X25527553Y-57989501D01*
X25633996Y-57842994D01*
X25716211Y-57681639D01*
X25772171Y-57509409D01*
X25772834Y-57505223D01*
X25804204Y-57434762D01*
X25866602Y-57389427D01*
X25943307Y-57381364D01*
X26013768Y-57412734D01*
X26059103Y-57475132D01*
X26067166Y-57505223D01*
X26067828Y-57509408D01*
X26110292Y-57640098D01*
X26123789Y-57681639D01*
X26206004Y-57842994D01*
X26261044Y-57918750D01*
X26288684Y-57990753D01*
X26289500Y-58006328D01*
X26289500Y-60942600D01*
X26285527Y-60973640D01*
X26289500Y-61031094D01*
X26289500Y-61088690D01*
X26293752Y-61110067D01*
X26296260Y-61128855D01*
X26297763Y-61150598D01*
X26297764Y-61150601D01*
X26312870Y-61206179D01*
X26324106Y-61262666D01*
X26336076Y-61291565D01*
X26338567Y-61300729D01*
X26338568Y-61300731D01*
X26344287Y-61321771D01*
X26344287Y-61321773D01*
X26367654Y-61368731D01*
X26371913Y-61378088D01*
X26391981Y-61426536D01*
X26391989Y-61426552D01*
X26404099Y-61444675D01*
X26409376Y-61452573D01*
X26423314Y-61480581D01*
X26458535Y-61526143D01*
X26490536Y-61574035D01*
X26512663Y-61596162D01*
X26531802Y-61620920D01*
X26575241Y-61658740D01*
X26615965Y-61699464D01*
X26634086Y-61711571D01*
X26649139Y-61723078D01*
X30258341Y-64865418D01*
X30301420Y-64929392D01*
X30309500Y-64977793D01*
X30309500Y-67039597D01*
X30289538Y-67114097D01*
X30281036Y-67127187D01*
X30274144Y-67136670D01*
X30258034Y-67152781D01*
X30137713Y-67318390D01*
X30127434Y-67338562D01*
X30120536Y-67348056D01*
X30099372Y-67365191D01*
X30081150Y-67385429D01*
X30069837Y-67389104D01*
X30060592Y-67396590D01*
X30033694Y-67400847D01*
X30007796Y-67409262D01*
X29996160Y-67406788D01*
X29984412Y-67408648D01*
X29958991Y-67398887D01*
X29932354Y-67393225D01*
X29923514Y-67385265D01*
X29912410Y-67381002D01*
X29895274Y-67359838D01*
X29875037Y-67341616D01*
X29867241Y-67328112D01*
X29862287Y-67318390D01*
X29741971Y-67152787D01*
X29741964Y-67152779D01*
X29597220Y-67008035D01*
X29597212Y-67008028D01*
X29431612Y-66887714D01*
X29249224Y-66794782D01*
X29249220Y-66794780D01*
X29249219Y-66794780D01*
X29054534Y-66731523D01*
X28852352Y-66699500D01*
X28647648Y-66699500D01*
X28479163Y-66726185D01*
X28445465Y-66731523D01*
X28250787Y-66794778D01*
X28250775Y-66794782D01*
X28068387Y-66887714D01*
X27902787Y-67008028D01*
X27902779Y-67008035D01*
X27758035Y-67152779D01*
X27758028Y-67152787D01*
X27637712Y-67318390D01*
X27632759Y-67328112D01*
X27581150Y-67385429D01*
X27507796Y-67409262D01*
X27432354Y-67393225D01*
X27375037Y-67341616D01*
X27367241Y-67328112D01*
X27362287Y-67318390D01*
X27241971Y-67152787D01*
X27241964Y-67152779D01*
X27097220Y-67008035D01*
X27097212Y-67008028D01*
X26931612Y-66887714D01*
X26749224Y-66794782D01*
X26749220Y-66794780D01*
X26749219Y-66794780D01*
X26554534Y-66731523D01*
X26352352Y-66699500D01*
X26147648Y-66699500D01*
X25979163Y-66726185D01*
X25945465Y-66731523D01*
X25750787Y-66794778D01*
X25750775Y-66794782D01*
X25568387Y-66887714D01*
X25402787Y-67008028D01*
X25402779Y-67008035D01*
X25258035Y-67152779D01*
X25258028Y-67152787D01*
X25137714Y-67318387D01*
X25044782Y-67500775D01*
X25044778Y-67500787D01*
X24997574Y-67646067D01*
X24981523Y-67695466D01*
X24949500Y-67897648D01*
X24949500Y-68102352D01*
X24981523Y-68304534D01*
X25044778Y-68499212D01*
X25044782Y-68499224D01*
X25137714Y-68681612D01*
X25258028Y-68847212D01*
X25258035Y-68847220D01*
X25402779Y-68991964D01*
X25402787Y-68991971D01*
X25568387Y-69112285D01*
X25568390Y-69112287D01*
X25750781Y-69205220D01*
X25945466Y-69268477D01*
X26147648Y-69300500D01*
X26147653Y-69300500D01*
X26352347Y-69300500D01*
X26352352Y-69300500D01*
X26554534Y-69268477D01*
X26749219Y-69205220D01*
X26931610Y-69112287D01*
X27097219Y-68991966D01*
X27241966Y-68847219D01*
X27362287Y-68681610D01*
X27367240Y-68671888D01*
X27418847Y-68614572D01*
X27492200Y-68590737D01*
X27567643Y-68606772D01*
X27624961Y-68658380D01*
X27632755Y-68671881D01*
X27637560Y-68681310D01*
X27637714Y-68681612D01*
X27758028Y-68847212D01*
X27758035Y-68847220D01*
X27902779Y-68991964D01*
X27902787Y-68991971D01*
X28068387Y-69112285D01*
X28068390Y-69112287D01*
X28250781Y-69205220D01*
X28445466Y-69268477D01*
X28647648Y-69300500D01*
X28647653Y-69300500D01*
X28852347Y-69300500D01*
X28852352Y-69300500D01*
X29054534Y-69268477D01*
X29249219Y-69205220D01*
X29431610Y-69112287D01*
X29597219Y-68991966D01*
X29741966Y-68847219D01*
X29862287Y-68681610D01*
X29867240Y-68671888D01*
X29918847Y-68614572D01*
X29992200Y-68590737D01*
X30067643Y-68606772D01*
X30124961Y-68658380D01*
X30132755Y-68671881D01*
X30137560Y-68681310D01*
X30137714Y-68681612D01*
X30258028Y-68847212D01*
X30258035Y-68847220D01*
X30402779Y-68991964D01*
X30402787Y-68991971D01*
X30568387Y-69112285D01*
X30568390Y-69112287D01*
X30750781Y-69205220D01*
X30945466Y-69268477D01*
X31147648Y-69300500D01*
X31147653Y-69300500D01*
X31352347Y-69300500D01*
X31352352Y-69300500D01*
X31554534Y-69268477D01*
X31749219Y-69205220D01*
X31931610Y-69112287D01*
X32097219Y-68991966D01*
X32241966Y-68847219D01*
X32362287Y-68681610D01*
X32367240Y-68671888D01*
X32418847Y-68614572D01*
X32492200Y-68590737D01*
X32567643Y-68606772D01*
X32624961Y-68658380D01*
X32632755Y-68671881D01*
X32637560Y-68681310D01*
X32637714Y-68681612D01*
X32758028Y-68847212D01*
X32758035Y-68847220D01*
X32902779Y-68991964D01*
X32902787Y-68991971D01*
X33068387Y-69112285D01*
X33068390Y-69112287D01*
X33250781Y-69205220D01*
X33445466Y-69268477D01*
X33647648Y-69300500D01*
X33647653Y-69300500D01*
X33852347Y-69300500D01*
X33852352Y-69300500D01*
X34054534Y-69268477D01*
X34249219Y-69205220D01*
X34431610Y-69112287D01*
X34597219Y-68991966D01*
X34741966Y-68847219D01*
X34862287Y-68681610D01*
X34955220Y-68499219D01*
X35018477Y-68304534D01*
X35050500Y-68102352D01*
X35050500Y-67897648D01*
X35018477Y-67695466D01*
X34955220Y-67500781D01*
X34862287Y-67318390D01*
X34824066Y-67265783D01*
X34741971Y-67152787D01*
X34741964Y-67152779D01*
X34694141Y-67104956D01*
X34655577Y-67038161D01*
X34650500Y-66999597D01*
X34650500Y-63023444D01*
X34653895Y-62958288D01*
X34650500Y-62934922D01*
X34650500Y-62911309D01*
X34637770Y-62847312D01*
X34628389Y-62782748D01*
X34620500Y-62760492D01*
X34615894Y-62737334D01*
X34590926Y-62677057D01*
X34569128Y-62615557D01*
X34557048Y-62595267D01*
X34548013Y-62573453D01*
X34548010Y-62573448D01*
X34548009Y-62573446D01*
X34513912Y-62522418D01*
X34513910Y-62522416D01*
X34511762Y-62519201D01*
X34478387Y-62463140D01*
X34462582Y-62445599D01*
X34456598Y-62436642D01*
X34456597Y-62436640D01*
X34449468Y-62425971D01*
X34449465Y-62425967D01*
X34449464Y-62425965D01*
X34406059Y-62382560D01*
X34400738Y-62376954D01*
X34359660Y-62331359D01*
X34359658Y-62331357D01*
X34359655Y-62331354D01*
X34349358Y-62323669D01*
X34340726Y-62317227D01*
X34324035Y-62300536D01*
X34269807Y-62264302D01*
X34266722Y-62261999D01*
X34266691Y-62261977D01*
X33121076Y-61407041D01*
X32968906Y-61293481D01*
X38394500Y-61293481D01*
X38394500Y-61293482D01*
X38394500Y-61293485D01*
X38394500Y-62706518D01*
X38409354Y-62800304D01*
X38466950Y-62913342D01*
X38556658Y-63003050D01*
X38669696Y-63060646D01*
X38763481Y-63075500D01*
X40236518Y-63075499D01*
X40330304Y-63060646D01*
X40443342Y-63003050D01*
X40533050Y-62913342D01*
X40590646Y-62800304D01*
X40605500Y-62706519D01*
X40605499Y-61293482D01*
X40590646Y-61199696D01*
X40533050Y-61086658D01*
X40443342Y-60996950D01*
X40443341Y-60996949D01*
X40414511Y-60982260D01*
X40357193Y-60930652D01*
X40333359Y-60857299D01*
X40349395Y-60781856D01*
X40401003Y-60724538D01*
X40474356Y-60700704D01*
X40482155Y-60700500D01*
X44678842Y-60700500D01*
X44833497Y-60669737D01*
X44979179Y-60609394D01*
X45110289Y-60521789D01*
X45221789Y-60410289D01*
X45309394Y-60279179D01*
X45369737Y-60133497D01*
X45400500Y-59978842D01*
X45400500Y-59821158D01*
X45369737Y-59666503D01*
X45309394Y-59520821D01*
X45221789Y-59389711D01*
X45110289Y-59278211D01*
X44979179Y-59190606D01*
X44979178Y-59190605D01*
X44979176Y-59190604D01*
X44833498Y-59130263D01*
X44833494Y-59130262D01*
X44678842Y-59099500D01*
X39578842Y-59099500D01*
X39421158Y-59099500D01*
X39266505Y-59130262D01*
X39266501Y-59130263D01*
X39120823Y-59190604D01*
X38989707Y-59278214D01*
X38878214Y-59389707D01*
X38790604Y-59520823D01*
X38730263Y-59666501D01*
X38730262Y-59666505D01*
X38699500Y-59821157D01*
X38699500Y-60832861D01*
X38679538Y-60907361D01*
X38625000Y-60961899D01*
X38618154Y-60965615D01*
X38602406Y-60973640D01*
X38556657Y-60996950D01*
X38466950Y-61086657D01*
X38409354Y-61199694D01*
X38409354Y-61199696D01*
X38394500Y-61293481D01*
X32968906Y-61293481D01*
X30690385Y-59593093D01*
X30642618Y-59532537D01*
X30630500Y-59473679D01*
X30630500Y-58006328D01*
X30650462Y-57931828D01*
X30658948Y-57918760D01*
X30713996Y-57842994D01*
X30796211Y-57681639D01*
X30852171Y-57509409D01*
X30852834Y-57505223D01*
X30884204Y-57434762D01*
X30946602Y-57389427D01*
X31023307Y-57381364D01*
X31093768Y-57412734D01*
X31139103Y-57475132D01*
X31147166Y-57505223D01*
X31147828Y-57509408D01*
X31190292Y-57640098D01*
X31203789Y-57681639D01*
X31285873Y-57842737D01*
X31286005Y-57842995D01*
X31286005Y-57842996D01*
X31339225Y-57916247D01*
X31392447Y-57989501D01*
X31520499Y-58117553D01*
X31667006Y-58223996D01*
X31828361Y-58306211D01*
X32000591Y-58362171D01*
X32179454Y-58390500D01*
X32179458Y-58390500D01*
X32360542Y-58390500D01*
X32360546Y-58390500D01*
X32539409Y-58362171D01*
X32711639Y-58306211D01*
X32872994Y-58223996D01*
X33019501Y-58117553D01*
X33147553Y-57989501D01*
X33253996Y-57842994D01*
X33336211Y-57681639D01*
X33392171Y-57509409D01*
X33392834Y-57505223D01*
X33424204Y-57434762D01*
X33486602Y-57389427D01*
X33563307Y-57381364D01*
X33633768Y-57412734D01*
X33679103Y-57475132D01*
X33687166Y-57505223D01*
X33687828Y-57509408D01*
X33730292Y-57640098D01*
X33743789Y-57681639D01*
X33825873Y-57842737D01*
X33826005Y-57842995D01*
X33826005Y-57842996D01*
X33879225Y-57916247D01*
X33932447Y-57989501D01*
X34060499Y-58117553D01*
X34207006Y-58223996D01*
X34368361Y-58306211D01*
X34540591Y-58362171D01*
X34719454Y-58390500D01*
X34719458Y-58390500D01*
X34900542Y-58390500D01*
X34900546Y-58390500D01*
X35079409Y-58362171D01*
X35251639Y-58306211D01*
X35412994Y-58223996D01*
X35559501Y-58117553D01*
X35687553Y-57989501D01*
X35793996Y-57842994D01*
X35876211Y-57681639D01*
X35932171Y-57509409D01*
X35933087Y-57503627D01*
X35964455Y-57433166D01*
X36026852Y-57387829D01*
X36103557Y-57379765D01*
X36174018Y-57411133D01*
X36219355Y-57473530D01*
X36227418Y-57503620D01*
X36228316Y-57509289D01*
X36228318Y-57509297D01*
X36284253Y-57681449D01*
X36366433Y-57842732D01*
X36377912Y-57858532D01*
X36377913Y-57858533D01*
X36867038Y-57369407D01*
X36884076Y-57432992D01*
X36949902Y-57547006D01*
X37042994Y-57640098D01*
X37157008Y-57705924D01*
X37220591Y-57722961D01*
X36731467Y-58212085D01*
X36747273Y-58223570D01*
X36908550Y-58305746D01*
X37080702Y-58361681D01*
X37080702Y-58361682D01*
X37259497Y-58390000D01*
X37440503Y-58390000D01*
X37619297Y-58361682D01*
X37619297Y-58361681D01*
X37791449Y-58305746D01*
X37952737Y-58223564D01*
X37952738Y-58223563D01*
X37968532Y-58212087D01*
X37968532Y-58212086D01*
X37479408Y-57722961D01*
X37542992Y-57705924D01*
X37657006Y-57640098D01*
X37750098Y-57547006D01*
X37815924Y-57432992D01*
X37832961Y-57369407D01*
X38322086Y-57858532D01*
X38322087Y-57858532D01*
X38333563Y-57842738D01*
X38333564Y-57842737D01*
X38415746Y-57681449D01*
X38471681Y-57509297D01*
X38471682Y-57509294D01*
X38472579Y-57503633D01*
X38503945Y-57433170D01*
X38566339Y-57387831D01*
X38643044Y-57379764D01*
X38713507Y-57411130D01*
X38758846Y-57473524D01*
X38766910Y-57503614D01*
X38767827Y-57509403D01*
X38795169Y-57593553D01*
X38823789Y-57681639D01*
X38905873Y-57842737D01*
X38906005Y-57842995D01*
X38906005Y-57842996D01*
X38959225Y-57916247D01*
X39012447Y-57989501D01*
X39140499Y-58117553D01*
X39287006Y-58223996D01*
X39448361Y-58306211D01*
X39620591Y-58362171D01*
X39799454Y-58390500D01*
X39799458Y-58390500D01*
X39980542Y-58390500D01*
X39980546Y-58390500D01*
X40159409Y-58362171D01*
X40331639Y-58306211D01*
X40492994Y-58223996D01*
X40639501Y-58117553D01*
X40767553Y-57989501D01*
X40873996Y-57842994D01*
X40956211Y-57681639D01*
X41012171Y-57509409D01*
X41040500Y-57330546D01*
X41040500Y-57149454D01*
X41012171Y-56970591D01*
X40956211Y-56798361D01*
X40873996Y-56637006D01*
X40767553Y-56490499D01*
X40660535Y-56383481D01*
X42849500Y-56383481D01*
X42849500Y-56383482D01*
X42849500Y-56383485D01*
X42849500Y-58096518D01*
X42852832Y-58117553D01*
X42864354Y-58190304D01*
X42921950Y-58303342D01*
X43011658Y-58393050D01*
X43124696Y-58450646D01*
X43218481Y-58465500D01*
X47781518Y-58465499D01*
X47875304Y-58450646D01*
X47988342Y-58393050D01*
X48078050Y-58303342D01*
X48135646Y-58190304D01*
X48150500Y-58096519D01*
X48150499Y-56383482D01*
X48135646Y-56289696D01*
X48078050Y-56176658D01*
X47988342Y-56086950D01*
X47875305Y-56029354D01*
X47859673Y-56026878D01*
X47781519Y-56014500D01*
X47781514Y-56014500D01*
X46549500Y-56014500D01*
X46475000Y-55994538D01*
X46420462Y-55940000D01*
X46400500Y-55865500D01*
X46400500Y-53911308D01*
X46365894Y-53737336D01*
X46365893Y-53737332D01*
X46298013Y-53573453D01*
X46298012Y-53573451D01*
X46199466Y-53425968D01*
X46199462Y-53425963D01*
X46074036Y-53300537D01*
X46074031Y-53300533D01*
X45926548Y-53201987D01*
X45926546Y-53201986D01*
X45762667Y-53134106D01*
X45762663Y-53134105D01*
X45588691Y-53099500D01*
X45411309Y-53099500D01*
X45237336Y-53134105D01*
X45237332Y-53134106D01*
X45073453Y-53201986D01*
X45073451Y-53201987D01*
X44925968Y-53300533D01*
X44925963Y-53300537D01*
X44800537Y-53425963D01*
X44800533Y-53425968D01*
X44701987Y-53573451D01*
X44701986Y-53573453D01*
X44634106Y-53737332D01*
X44634105Y-53737336D01*
X44599500Y-53911308D01*
X44599500Y-55865500D01*
X44579538Y-55940000D01*
X44525000Y-55994538D01*
X44450500Y-56014500D01*
X43218481Y-56014500D01*
X43124695Y-56029354D01*
X43124693Y-56029355D01*
X43011657Y-56086950D01*
X42921950Y-56176657D01*
X42864354Y-56289694D01*
X42859402Y-56320957D01*
X42849500Y-56383481D01*
X40660535Y-56383481D01*
X40639501Y-56362447D01*
X40492994Y-56256004D01*
X40331639Y-56173789D01*
X40159409Y-56117829D01*
X39980546Y-56089500D01*
X39799454Y-56089500D01*
X39620591Y-56117829D01*
X39448360Y-56173789D01*
X39287004Y-56256005D01*
X39287003Y-56256005D01*
X39140500Y-56362446D01*
X39140497Y-56362448D01*
X39012448Y-56490497D01*
X39012446Y-56490500D01*
X38906005Y-56637003D01*
X38906005Y-56637004D01*
X38823789Y-56798360D01*
X38767827Y-56970595D01*
X38766910Y-56976387D01*
X38735534Y-57046845D01*
X38673133Y-57092175D01*
X38596427Y-57100232D01*
X38525969Y-57068856D01*
X38480639Y-57006455D01*
X38472579Y-56976368D01*
X38471681Y-56970702D01*
X38415746Y-56798550D01*
X38333570Y-56637273D01*
X38322085Y-56621467D01*
X37832961Y-57110590D01*
X37815924Y-57047008D01*
X37750098Y-56932994D01*
X37657006Y-56839902D01*
X37542992Y-56774076D01*
X37479407Y-56757038D01*
X37968533Y-56267913D01*
X37968532Y-56267912D01*
X37952732Y-56256433D01*
X37952732Y-56256432D01*
X37791449Y-56174253D01*
X37619297Y-56118318D01*
X37619297Y-56118317D01*
X37440503Y-56090000D01*
X37259497Y-56090000D01*
X37080702Y-56118317D01*
X37080702Y-56118318D01*
X36908548Y-56174254D01*
X36747267Y-56256433D01*
X36747266Y-56256433D01*
X36731466Y-56267912D01*
X37220591Y-56757038D01*
X37157008Y-56774076D01*
X37042994Y-56839902D01*
X36949902Y-56932994D01*
X36884076Y-57047008D01*
X36867038Y-57110591D01*
X36377912Y-56621466D01*
X36366433Y-56637266D01*
X36366433Y-56637267D01*
X36284254Y-56798548D01*
X36228318Y-56970702D01*
X36228316Y-56970707D01*
X36227418Y-56976381D01*
X36196045Y-57046840D01*
X36133646Y-57092173D01*
X36056940Y-57100233D01*
X35986481Y-57068860D01*
X35941148Y-57006461D01*
X35933087Y-56976374D01*
X35932189Y-56970707D01*
X35932171Y-56970591D01*
X35876211Y-56798361D01*
X35793996Y-56637006D01*
X35687553Y-56490499D01*
X35559501Y-56362447D01*
X35412994Y-56256004D01*
X35251639Y-56173789D01*
X35079409Y-56117829D01*
X34900546Y-56089500D01*
X34719454Y-56089500D01*
X34540591Y-56117829D01*
X34368360Y-56173789D01*
X34207004Y-56256005D01*
X34207003Y-56256005D01*
X34060500Y-56362446D01*
X34060497Y-56362448D01*
X33932448Y-56490497D01*
X33932446Y-56490500D01*
X33826005Y-56637003D01*
X33826005Y-56637004D01*
X33743789Y-56798360D01*
X33687827Y-56970595D01*
X33687165Y-56974779D01*
X33655794Y-57045238D01*
X33593396Y-57090573D01*
X33516690Y-57098634D01*
X33446231Y-57067263D01*
X33400896Y-57004865D01*
X33392835Y-56974779D01*
X33392172Y-56970595D01*
X33392171Y-56970591D01*
X33336211Y-56798361D01*
X33253996Y-56637006D01*
X33147553Y-56490499D01*
X33019501Y-56362447D01*
X32872994Y-56256004D01*
X32711639Y-56173789D01*
X32539409Y-56117829D01*
X32360546Y-56089500D01*
X32179454Y-56089500D01*
X32000591Y-56117829D01*
X31828360Y-56173789D01*
X31667004Y-56256005D01*
X31667003Y-56256005D01*
X31520500Y-56362446D01*
X31520497Y-56362448D01*
X31392448Y-56490497D01*
X31392446Y-56490500D01*
X31286005Y-56637003D01*
X31286005Y-56637004D01*
X31203789Y-56798360D01*
X31147827Y-56970595D01*
X31147165Y-56974779D01*
X31115794Y-57045238D01*
X31053396Y-57090573D01*
X30976690Y-57098634D01*
X30906231Y-57067263D01*
X30860896Y-57004865D01*
X30852835Y-56974779D01*
X30852172Y-56970595D01*
X30852171Y-56970591D01*
X30796211Y-56798361D01*
X30713996Y-56637006D01*
X30607553Y-56490499D01*
X30479501Y-56362447D01*
X30332994Y-56256004D01*
X30171639Y-56173789D01*
X29999409Y-56117829D01*
X29820546Y-56089500D01*
X29639454Y-56089500D01*
X29460591Y-56117829D01*
X29288360Y-56173789D01*
X29127004Y-56256005D01*
X29127003Y-56256005D01*
X28980500Y-56362446D01*
X28980497Y-56362448D01*
X28852448Y-56490497D01*
X28852446Y-56490500D01*
X28746005Y-56637003D01*
X28746005Y-56637004D01*
X28663789Y-56798360D01*
X28607827Y-56970595D01*
X28607165Y-56974779D01*
X28575794Y-57045238D01*
X28513396Y-57090573D01*
X28436690Y-57098634D01*
X28366231Y-57067263D01*
X28320896Y-57004865D01*
X28312835Y-56974779D01*
X28312172Y-56970595D01*
X28312171Y-56970591D01*
X28256211Y-56798361D01*
X28173996Y-56637006D01*
X28067553Y-56490499D01*
X27939501Y-56362447D01*
X27792994Y-56256004D01*
X27631639Y-56173789D01*
X27459409Y-56117829D01*
X27280546Y-56089500D01*
X27099454Y-56089500D01*
X26920591Y-56117829D01*
X26748360Y-56173789D01*
X26587004Y-56256005D01*
X26587003Y-56256005D01*
X26440500Y-56362446D01*
X26440497Y-56362448D01*
X26312448Y-56490497D01*
X26312446Y-56490500D01*
X26206005Y-56637003D01*
X26206005Y-56637004D01*
X26123789Y-56798360D01*
X26067827Y-56970595D01*
X26067165Y-56974779D01*
X26035794Y-57045238D01*
X25973396Y-57090573D01*
X25896690Y-57098634D01*
X25826231Y-57067263D01*
X25780896Y-57004865D01*
X25772835Y-56974779D01*
X25772172Y-56970595D01*
X25772171Y-56970591D01*
X25716211Y-56798361D01*
X25633996Y-56637006D01*
X25527553Y-56490499D01*
X25399501Y-56362447D01*
X25311920Y-56298816D01*
X25263382Y-56238876D01*
X25250500Y-56178272D01*
X25250500Y-52920943D01*
X25250499Y-52920941D01*
X25209577Y-52768216D01*
X25130520Y-52631284D01*
X25018716Y-52519480D01*
X24881784Y-52440423D01*
X24729057Y-52399500D01*
X16749500Y-52399500D01*
X16675000Y-52379538D01*
X16620462Y-52325000D01*
X16600500Y-52250500D01*
X16600500Y-29538481D01*
X17444500Y-29538481D01*
X17444500Y-29538484D01*
X17444500Y-29538485D01*
X17444500Y-30461518D01*
X17459354Y-30555304D01*
X17516950Y-30668342D01*
X17606658Y-30758050D01*
X17719696Y-30815646D01*
X17813481Y-30830500D01*
X18686518Y-30830499D01*
X18780304Y-30815646D01*
X18893342Y-30758050D01*
X18894641Y-30756751D01*
X18897022Y-30755376D01*
X18902831Y-30751156D01*
X18903274Y-30751766D01*
X18961436Y-30718187D01*
X19038564Y-30718187D01*
X19096725Y-30751766D01*
X19097169Y-30751156D01*
X19102977Y-30755376D01*
X19105359Y-30756751D01*
X19106658Y-30758050D01*
X19219696Y-30815646D01*
X19313481Y-30830500D01*
X20186518Y-30830499D01*
X20280304Y-30815646D01*
X20393342Y-30758050D01*
X20483050Y-30668342D01*
X20483052Y-30668336D01*
X20487713Y-30661923D01*
X20547652Y-30613383D01*
X20608259Y-30600500D01*
X26440500Y-30600500D01*
X26515000Y-30620462D01*
X26569538Y-30675000D01*
X26589500Y-30749500D01*
X26589500Y-40938272D01*
X26569538Y-41012772D01*
X26528080Y-41058816D01*
X26440500Y-41122446D01*
X26440497Y-41122448D01*
X26312448Y-41250497D01*
X26312446Y-41250500D01*
X26206005Y-41397003D01*
X26206005Y-41397004D01*
X26123789Y-41558360D01*
X26067827Y-41730595D01*
X26067165Y-41734779D01*
X26035794Y-41805238D01*
X25973396Y-41850573D01*
X25896690Y-41858634D01*
X25826231Y-41827263D01*
X25780896Y-41764865D01*
X25772835Y-41734779D01*
X25772172Y-41730595D01*
X25759955Y-41692994D01*
X25716211Y-41558361D01*
X25633996Y-41397006D01*
X25527553Y-41250499D01*
X25399501Y-41122447D01*
X25311920Y-41058816D01*
X25263382Y-40998876D01*
X25250500Y-40938272D01*
X25250500Y-36407065D01*
X25268097Y-36336821D01*
X25270771Y-36331816D01*
X25270775Y-36331811D01*
X25323580Y-36204328D01*
X25350500Y-36068993D01*
X25350500Y-35931007D01*
X25323580Y-35795672D01*
X25270775Y-35668189D01*
X25194114Y-35553458D01*
X25096542Y-35455886D01*
X25012155Y-35399500D01*
X24981815Y-35379227D01*
X24981809Y-35379224D01*
X24854329Y-35326420D01*
X24854325Y-35326419D01*
X24718993Y-35299500D01*
X24581007Y-35299500D01*
X24445674Y-35326419D01*
X24445670Y-35326420D01*
X24318190Y-35379224D01*
X24318184Y-35379227D01*
X24203461Y-35455883D01*
X24203454Y-35455889D01*
X24105889Y-35553454D01*
X24105883Y-35553461D01*
X24029227Y-35668184D01*
X24029224Y-35668190D01*
X23976420Y-35795670D01*
X23976419Y-35795674D01*
X23949500Y-35931006D01*
X23949500Y-36068993D01*
X23976419Y-36204325D01*
X23976420Y-36204329D01*
X24029222Y-36331806D01*
X24031903Y-36336821D01*
X24049500Y-36407065D01*
X24049500Y-40938272D01*
X24029538Y-41012772D01*
X23988080Y-41058816D01*
X23900500Y-41122446D01*
X23900497Y-41122448D01*
X23772448Y-41250497D01*
X23772446Y-41250500D01*
X23666005Y-41397003D01*
X23666005Y-41397004D01*
X23583789Y-41558360D01*
X23551207Y-41658639D01*
X23509200Y-41723324D01*
X23440478Y-41758340D01*
X23363456Y-41754304D01*
X23298771Y-41712297D01*
X23263755Y-41643575D01*
X23260499Y-41612596D01*
X23260499Y-41218481D01*
X23258146Y-41203628D01*
X23245646Y-41124696D01*
X23188050Y-41011658D01*
X23098342Y-40921950D01*
X22985305Y-40864354D01*
X22969673Y-40861878D01*
X22891519Y-40849500D01*
X22891514Y-40849500D01*
X22859500Y-40849500D01*
X22785000Y-40829538D01*
X22730462Y-40775000D01*
X22710500Y-40700500D01*
X22710500Y-37807065D01*
X22728097Y-37736821D01*
X22730771Y-37731816D01*
X22730775Y-37731811D01*
X22783580Y-37604328D01*
X22810500Y-37468993D01*
X22810500Y-37331007D01*
X22783580Y-37195672D01*
X22730775Y-37068189D01*
X22654114Y-36953458D01*
X22556542Y-36855886D01*
X22556538Y-36855883D01*
X22441815Y-36779227D01*
X22441809Y-36779224D01*
X22314329Y-36726420D01*
X22314325Y-36726419D01*
X22178993Y-36699500D01*
X22041007Y-36699500D01*
X21905674Y-36726419D01*
X21905670Y-36726420D01*
X21778190Y-36779224D01*
X21778184Y-36779227D01*
X21663461Y-36855883D01*
X21663454Y-36855889D01*
X21565889Y-36953454D01*
X21565883Y-36953461D01*
X21489227Y-37068184D01*
X21489224Y-37068190D01*
X21436420Y-37195670D01*
X21436419Y-37195674D01*
X21409500Y-37331006D01*
X21409500Y-37468993D01*
X21436419Y-37604325D01*
X21436420Y-37604329D01*
X21489222Y-37731806D01*
X21491903Y-37736821D01*
X21509500Y-37807065D01*
X21509500Y-40700500D01*
X21489538Y-40775000D01*
X21435000Y-40829538D01*
X21360504Y-40849500D01*
X21328487Y-40849500D01*
X21234695Y-40864354D01*
X21234693Y-40864355D01*
X21121657Y-40921950D01*
X21031950Y-41011657D01*
X20974354Y-41124694D01*
X20974354Y-41124696D01*
X20959500Y-41218481D01*
X20959500Y-41218482D01*
X20959500Y-41218485D01*
X20959500Y-42781518D01*
X20974354Y-42875304D01*
X21031950Y-42988342D01*
X21121658Y-43078050D01*
X21234696Y-43135646D01*
X21328481Y-43150500D01*
X22891518Y-43150499D01*
X22985304Y-43135646D01*
X23098342Y-43078050D01*
X23188050Y-42988342D01*
X23245646Y-42875304D01*
X23260500Y-42781519D01*
X23260499Y-42387402D01*
X23280461Y-42312905D01*
X23334999Y-42258367D01*
X23409499Y-42238405D01*
X23483999Y-42258367D01*
X23538537Y-42312905D01*
X23551206Y-42341362D01*
X23583785Y-42441631D01*
X23583787Y-42441636D01*
X23583789Y-42441639D01*
X23665873Y-42602737D01*
X23666005Y-42602995D01*
X23666005Y-42602996D01*
X23719225Y-42676247D01*
X23772447Y-42749501D01*
X23900499Y-42877553D01*
X24047006Y-42983996D01*
X24208361Y-43066211D01*
X24380591Y-43122171D01*
X24559454Y-43150500D01*
X24559458Y-43150500D01*
X24740542Y-43150500D01*
X24740546Y-43150500D01*
X24919409Y-43122171D01*
X25091639Y-43066211D01*
X25252994Y-42983996D01*
X25399501Y-42877553D01*
X25527553Y-42749501D01*
X25633996Y-42602994D01*
X25716211Y-42441639D01*
X25772171Y-42269409D01*
X25772834Y-42265223D01*
X25804204Y-42194762D01*
X25866602Y-42149427D01*
X25943307Y-42141364D01*
X26013768Y-42172734D01*
X26059103Y-42235132D01*
X26067166Y-42265223D01*
X26067828Y-42269408D01*
X26110292Y-42400098D01*
X26123789Y-42441639D01*
X26205873Y-42602737D01*
X26206005Y-42602995D01*
X26206005Y-42602996D01*
X26259225Y-42676247D01*
X26312447Y-42749501D01*
X26440499Y-42877553D01*
X26587006Y-42983996D01*
X26748361Y-43066211D01*
X26920591Y-43122171D01*
X27099454Y-43150500D01*
X27099458Y-43150500D01*
X27280542Y-43150500D01*
X27280546Y-43150500D01*
X27459409Y-43122171D01*
X27631639Y-43066211D01*
X27792994Y-42983996D01*
X27939501Y-42877553D01*
X28067553Y-42749501D01*
X28173996Y-42602994D01*
X28256211Y-42441639D01*
X28312171Y-42269409D01*
X28312834Y-42265223D01*
X28344204Y-42194762D01*
X28406602Y-42149427D01*
X28483307Y-42141364D01*
X28553768Y-42172734D01*
X28599103Y-42235132D01*
X28607166Y-42265223D01*
X28607828Y-42269408D01*
X28650292Y-42400098D01*
X28663789Y-42441639D01*
X28745873Y-42602737D01*
X28746005Y-42602995D01*
X28746005Y-42602996D01*
X28799225Y-42676247D01*
X28852447Y-42749501D01*
X28980499Y-42877553D01*
X29127006Y-42983996D01*
X29288361Y-43066211D01*
X29460591Y-43122171D01*
X29639454Y-43150500D01*
X29639458Y-43150500D01*
X29820542Y-43150500D01*
X29820546Y-43150500D01*
X29999409Y-43122171D01*
X30171639Y-43066211D01*
X30332994Y-42983996D01*
X30479501Y-42877553D01*
X30607553Y-42749501D01*
X30713996Y-42602994D01*
X30796211Y-42441639D01*
X30852171Y-42269409D01*
X30853087Y-42263627D01*
X30884455Y-42193166D01*
X30946852Y-42147829D01*
X31023557Y-42139765D01*
X31094018Y-42171133D01*
X31139355Y-42233530D01*
X31147418Y-42263620D01*
X31148316Y-42269289D01*
X31148318Y-42269297D01*
X31204253Y-42441449D01*
X31286433Y-42602732D01*
X31297912Y-42618532D01*
X31297913Y-42618533D01*
X31787038Y-42129407D01*
X31804076Y-42192992D01*
X31869902Y-42307006D01*
X31962994Y-42400098D01*
X32077008Y-42465924D01*
X32140591Y-42482961D01*
X31651467Y-42972085D01*
X31667273Y-42983570D01*
X31828550Y-43065746D01*
X32000702Y-43121681D01*
X32000702Y-43121682D01*
X32179497Y-43150000D01*
X32360503Y-43150000D01*
X32539297Y-43121682D01*
X32539297Y-43121681D01*
X32711449Y-43065746D01*
X32872737Y-42983564D01*
X32872738Y-42983563D01*
X32888532Y-42972087D01*
X32888532Y-42972086D01*
X32399408Y-42482961D01*
X32462992Y-42465924D01*
X32577006Y-42400098D01*
X32670098Y-42307006D01*
X32735924Y-42192992D01*
X32752961Y-42129407D01*
X33242086Y-42618532D01*
X33242087Y-42618532D01*
X33253563Y-42602738D01*
X33253564Y-42602737D01*
X33335746Y-42441449D01*
X33391681Y-42269297D01*
X33391682Y-42269297D01*
X33392834Y-42262024D01*
X33424205Y-42191564D01*
X33486602Y-42146229D01*
X33563308Y-42138166D01*
X33633768Y-42169537D01*
X33679103Y-42231934D01*
X33687166Y-42262024D01*
X33688317Y-42269297D01*
X33744253Y-42441449D01*
X33826433Y-42602732D01*
X33837912Y-42618532D01*
X33837913Y-42618533D01*
X34327038Y-42129407D01*
X34344076Y-42192992D01*
X34409902Y-42307006D01*
X34502994Y-42400098D01*
X34617008Y-42465924D01*
X34680591Y-42482961D01*
X34191467Y-42972085D01*
X34207273Y-42983570D01*
X34368550Y-43065746D01*
X34540702Y-43121681D01*
X34540702Y-43121682D01*
X34719497Y-43150000D01*
X34900503Y-43150000D01*
X35079297Y-43121682D01*
X35079297Y-43121681D01*
X35251449Y-43065746D01*
X35412737Y-42983564D01*
X35412738Y-42983563D01*
X35428532Y-42972087D01*
X35428532Y-42972086D01*
X34939408Y-42482961D01*
X35002992Y-42465924D01*
X35117006Y-42400098D01*
X35210098Y-42307006D01*
X35275924Y-42192992D01*
X35292961Y-42129407D01*
X35782086Y-42618532D01*
X35782087Y-42618532D01*
X35793563Y-42602738D01*
X35793564Y-42602737D01*
X35875746Y-42441449D01*
X35931681Y-42269297D01*
X35931682Y-42269297D01*
X35932834Y-42262024D01*
X35964205Y-42191564D01*
X36026602Y-42146229D01*
X36103308Y-42138166D01*
X36173768Y-42169537D01*
X36219103Y-42231934D01*
X36227166Y-42262024D01*
X36228317Y-42269297D01*
X36284253Y-42441449D01*
X36366433Y-42602732D01*
X36377912Y-42618532D01*
X36377913Y-42618533D01*
X36867038Y-42129407D01*
X36884076Y-42192992D01*
X36949902Y-42307006D01*
X37042994Y-42400098D01*
X37157008Y-42465924D01*
X37220591Y-42482961D01*
X36731467Y-42972085D01*
X36747273Y-42983570D01*
X36908550Y-43065746D01*
X37080702Y-43121681D01*
X37080702Y-43121682D01*
X37259497Y-43150000D01*
X37440503Y-43150000D01*
X37619297Y-43121682D01*
X37619297Y-43121681D01*
X37791449Y-43065746D01*
X37952737Y-42983564D01*
X37952738Y-42983563D01*
X37968532Y-42972087D01*
X37968532Y-42972086D01*
X37479408Y-42482961D01*
X37542992Y-42465924D01*
X37657006Y-42400098D01*
X37750098Y-42307006D01*
X37815924Y-42192992D01*
X37832961Y-42129407D01*
X38322086Y-42618532D01*
X38322087Y-42618532D01*
X38333563Y-42602738D01*
X38333564Y-42602737D01*
X38415746Y-42441449D01*
X38471681Y-42269297D01*
X38471682Y-42269294D01*
X38472579Y-42263633D01*
X38503945Y-42193170D01*
X38566339Y-42147831D01*
X38643044Y-42139764D01*
X38713507Y-42171130D01*
X38758846Y-42233524D01*
X38766910Y-42263614D01*
X38767827Y-42269403D01*
X38767828Y-42269405D01*
X38767829Y-42269409D01*
X38823789Y-42441639D01*
X38905873Y-42602737D01*
X38906005Y-42602995D01*
X38906005Y-42602996D01*
X38959225Y-42676247D01*
X39012447Y-42749501D01*
X39140499Y-42877553D01*
X39287006Y-42983996D01*
X39448361Y-43066211D01*
X39620591Y-43122171D01*
X39799454Y-43150500D01*
X39799458Y-43150500D01*
X39980542Y-43150500D01*
X39980546Y-43150500D01*
X40159409Y-43122171D01*
X40331639Y-43066211D01*
X40492994Y-42983996D01*
X40639501Y-42877553D01*
X40767553Y-42749501D01*
X40873996Y-42602994D01*
X40956211Y-42441639D01*
X41012171Y-42269409D01*
X41040500Y-42090546D01*
X41040500Y-41909454D01*
X41012171Y-41730591D01*
X40956211Y-41558361D01*
X40873996Y-41397006D01*
X40767553Y-41250499D01*
X40639501Y-41122447D01*
X40492994Y-41016004D01*
X40331639Y-40933789D01*
X40159409Y-40877829D01*
X39980546Y-40849500D01*
X39799454Y-40849500D01*
X39620591Y-40877829D01*
X39448360Y-40933789D01*
X39287004Y-41016005D01*
X39287003Y-41016005D01*
X39140500Y-41122446D01*
X39140497Y-41122448D01*
X39012448Y-41250497D01*
X39012446Y-41250500D01*
X38906005Y-41397003D01*
X38906005Y-41397004D01*
X38823789Y-41558360D01*
X38767827Y-41730595D01*
X38766910Y-41736387D01*
X38735534Y-41806845D01*
X38673133Y-41852175D01*
X38596427Y-41860232D01*
X38525969Y-41828856D01*
X38480639Y-41766455D01*
X38472579Y-41736368D01*
X38471681Y-41730702D01*
X38415746Y-41558550D01*
X38333570Y-41397273D01*
X38322085Y-41381467D01*
X37832961Y-41870590D01*
X37815924Y-41807008D01*
X37750098Y-41692994D01*
X37657006Y-41599902D01*
X37542992Y-41534076D01*
X37479407Y-41517038D01*
X37968533Y-41027913D01*
X37968532Y-41027912D01*
X37952732Y-41016433D01*
X37952732Y-41016432D01*
X37791449Y-40934253D01*
X37619297Y-40878318D01*
X37619297Y-40878317D01*
X37440503Y-40850000D01*
X37259497Y-40850000D01*
X37080702Y-40878317D01*
X37080702Y-40878318D01*
X36908548Y-40934254D01*
X36747267Y-41016433D01*
X36747266Y-41016433D01*
X36731466Y-41027912D01*
X37220591Y-41517038D01*
X37157008Y-41534076D01*
X37042994Y-41599902D01*
X36949902Y-41692994D01*
X36884076Y-41807008D01*
X36867038Y-41870591D01*
X36377912Y-41381466D01*
X36366433Y-41397266D01*
X36366433Y-41397267D01*
X36284254Y-41558548D01*
X36228318Y-41730702D01*
X36228315Y-41730711D01*
X36227165Y-41737977D01*
X36195794Y-41808436D01*
X36133396Y-41853771D01*
X36056690Y-41861832D01*
X35986231Y-41830461D01*
X35940896Y-41768063D01*
X35932835Y-41737977D01*
X35931684Y-41730711D01*
X35931681Y-41730702D01*
X35875746Y-41558550D01*
X35793570Y-41397273D01*
X35782085Y-41381467D01*
X35292961Y-41870590D01*
X35275924Y-41807008D01*
X35210098Y-41692994D01*
X35117006Y-41599902D01*
X35002992Y-41534076D01*
X34939407Y-41517037D01*
X35428533Y-41027912D01*
X35412732Y-41016433D01*
X35412732Y-41016432D01*
X35251449Y-40934253D01*
X35079297Y-40878318D01*
X35079297Y-40878317D01*
X34900503Y-40850000D01*
X34719497Y-40850000D01*
X34540702Y-40878317D01*
X34540702Y-40878318D01*
X34368548Y-40934254D01*
X34207267Y-41016433D01*
X34207266Y-41016433D01*
X34191466Y-41027912D01*
X34680591Y-41517038D01*
X34617008Y-41534076D01*
X34502994Y-41599902D01*
X34409902Y-41692994D01*
X34344076Y-41807008D01*
X34327038Y-41870591D01*
X33837912Y-41381466D01*
X33826433Y-41397266D01*
X33826433Y-41397267D01*
X33744254Y-41558548D01*
X33688318Y-41730702D01*
X33688315Y-41730711D01*
X33687165Y-41737977D01*
X33655794Y-41808436D01*
X33593396Y-41853771D01*
X33516690Y-41861832D01*
X33446231Y-41830461D01*
X33400896Y-41768063D01*
X33392835Y-41737977D01*
X33391684Y-41730711D01*
X33391681Y-41730702D01*
X33335746Y-41558550D01*
X33253570Y-41397273D01*
X33242085Y-41381467D01*
X32752961Y-41870590D01*
X32735924Y-41807008D01*
X32670098Y-41692994D01*
X32577006Y-41599902D01*
X32462992Y-41534076D01*
X32399407Y-41517037D01*
X32888533Y-41027912D01*
X32872732Y-41016433D01*
X32872732Y-41016432D01*
X32711449Y-40934253D01*
X32539297Y-40878318D01*
X32539297Y-40878317D01*
X32360503Y-40850000D01*
X32179497Y-40850000D01*
X32000702Y-40878317D01*
X32000702Y-40878318D01*
X31828548Y-40934254D01*
X31667267Y-41016433D01*
X31667266Y-41016433D01*
X31651466Y-41027912D01*
X32140591Y-41517038D01*
X32077008Y-41534076D01*
X31962994Y-41599902D01*
X31869902Y-41692994D01*
X31804076Y-41807008D01*
X31787038Y-41870591D01*
X31297912Y-41381466D01*
X31286433Y-41397266D01*
X31286433Y-41397267D01*
X31204254Y-41558548D01*
X31148318Y-41730702D01*
X31148316Y-41730707D01*
X31147418Y-41736381D01*
X31116045Y-41806840D01*
X31053646Y-41852173D01*
X30976940Y-41860233D01*
X30906481Y-41828860D01*
X30861148Y-41766461D01*
X30853087Y-41736374D01*
X30852189Y-41730707D01*
X30852171Y-41730591D01*
X30796211Y-41558361D01*
X30713996Y-41397006D01*
X30607553Y-41250499D01*
X30479501Y-41122447D01*
X30332994Y-41016004D01*
X30171639Y-40933789D01*
X29999409Y-40877829D01*
X29820546Y-40849500D01*
X29639454Y-40849500D01*
X29460591Y-40877829D01*
X29288360Y-40933789D01*
X29127004Y-41016005D01*
X29127003Y-41016005D01*
X28980500Y-41122446D01*
X28980497Y-41122448D01*
X28852448Y-41250497D01*
X28852446Y-41250500D01*
X28746005Y-41397003D01*
X28746005Y-41397004D01*
X28663789Y-41558360D01*
X28607827Y-41730595D01*
X28607165Y-41734779D01*
X28575794Y-41805238D01*
X28513396Y-41850573D01*
X28436690Y-41858634D01*
X28366231Y-41827263D01*
X28320896Y-41764865D01*
X28312835Y-41734779D01*
X28312172Y-41730595D01*
X28299955Y-41692994D01*
X28256211Y-41558361D01*
X28173996Y-41397006D01*
X28067553Y-41250499D01*
X27939501Y-41122447D01*
X27851920Y-41058816D01*
X27803382Y-40998876D01*
X27790500Y-40938272D01*
X27790500Y-29920943D01*
X27790499Y-29920941D01*
X27749577Y-29768216D01*
X27670520Y-29631284D01*
X27558716Y-29519480D01*
X27421784Y-29440423D01*
X27269057Y-29399500D01*
X20608259Y-29399500D01*
X20533759Y-29379538D01*
X20487713Y-29338077D01*
X20483051Y-29331660D01*
X20483050Y-29331658D01*
X20393342Y-29241950D01*
X20280305Y-29184354D01*
X20264673Y-29181878D01*
X20186519Y-29169500D01*
X20186514Y-29169500D01*
X19313481Y-29169500D01*
X19219695Y-29184354D01*
X19219693Y-29184355D01*
X19106656Y-29241951D01*
X19106651Y-29241955D01*
X19105352Y-29243254D01*
X19105288Y-29243290D01*
X19105252Y-29243354D01*
X19102710Y-29244817D01*
X19097169Y-29248844D01*
X19096741Y-29248256D01*
X19072156Y-29262417D01*
X19038556Y-29281815D01*
X19038481Y-29281814D01*
X19038419Y-29281851D01*
X19000375Y-29281813D01*
X18961427Y-29281811D01*
X18961363Y-29281774D01*
X18961291Y-29281774D01*
X18928202Y-29262625D01*
X18894635Y-29243243D01*
X18894535Y-29243143D01*
X18894036Y-29242643D01*
X18855539Y-29175810D01*
X18850500Y-29137390D01*
X18850500Y-28007065D01*
X18868097Y-27936821D01*
X18870771Y-27931816D01*
X18870775Y-27931811D01*
X18923580Y-27804328D01*
X18950500Y-27668993D01*
X18950500Y-27531007D01*
X18923580Y-27395672D01*
X18870775Y-27268189D01*
X18868440Y-27264695D01*
X18794116Y-27153461D01*
X18794114Y-27153458D01*
X18696542Y-27055886D01*
X18693808Y-27054059D01*
X18581815Y-26979227D01*
X18581809Y-26979224D01*
X18454329Y-26926420D01*
X18454325Y-26926419D01*
X18318993Y-26899500D01*
X18181007Y-26899500D01*
X18045674Y-26926419D01*
X18045670Y-26926420D01*
X17918190Y-26979224D01*
X17918184Y-26979227D01*
X17803461Y-27055883D01*
X17803454Y-27055889D01*
X17705889Y-27153454D01*
X17705883Y-27153461D01*
X17629227Y-27268184D01*
X17629224Y-27268190D01*
X17576420Y-27395670D01*
X17576419Y-27395674D01*
X17549500Y-27531006D01*
X17549500Y-27668993D01*
X17576419Y-27804325D01*
X17576420Y-27804329D01*
X17629222Y-27931806D01*
X17631903Y-27936821D01*
X17649500Y-28007065D01*
X17649500Y-29137390D01*
X17629538Y-29211890D01*
X17605859Y-29242749D01*
X17516950Y-29331657D01*
X17459354Y-29444694D01*
X17459354Y-29444696D01*
X17444500Y-29538481D01*
X16600500Y-29538481D01*
X16600500Y-26749500D01*
X16620462Y-26675000D01*
X16675000Y-26620462D01*
X16749500Y-26600500D01*
X31679057Y-26600500D01*
X31831784Y-26559577D01*
X31968716Y-26480520D01*
X32080520Y-26368716D01*
X32159577Y-26231784D01*
X32200500Y-26079057D01*
X32200500Y-18531006D01*
X36299500Y-18531006D01*
X36299500Y-18668993D01*
X36326419Y-18804325D01*
X36326420Y-18804329D01*
X36379222Y-18931806D01*
X36381903Y-18936821D01*
X36399500Y-19007065D01*
X36399500Y-20079057D01*
X36440423Y-20231784D01*
X36519480Y-20368716D01*
X36631284Y-20480520D01*
X36768216Y-20559577D01*
X36920943Y-20600500D01*
X37079057Y-20600500D01*
X37891741Y-20600500D01*
X37966241Y-20620462D01*
X38012287Y-20661923D01*
X38016949Y-20668340D01*
X38016950Y-20668342D01*
X38106658Y-20758050D01*
X38219696Y-20815646D01*
X38313481Y-20830500D01*
X38325731Y-20830499D01*
X38400229Y-20850457D01*
X38454770Y-20904992D01*
X38474736Y-20979491D01*
X38454778Y-21053992D01*
X38400243Y-21108533D01*
X38400241Y-21108534D01*
X38381284Y-21119479D01*
X38269480Y-21231283D01*
X38190424Y-21368214D01*
X38149500Y-21520941D01*
X38149500Y-22137390D01*
X38129538Y-22211890D01*
X38105859Y-22242749D01*
X38016950Y-22331657D01*
X37959354Y-22444694D01*
X37959354Y-22444696D01*
X37944500Y-22538481D01*
X37944500Y-22538482D01*
X37944500Y-22538485D01*
X37944500Y-23461518D01*
X37959061Y-23553456D01*
X37959354Y-23555304D01*
X38016950Y-23668342D01*
X38106658Y-23758050D01*
X38219696Y-23815646D01*
X38313481Y-23830500D01*
X39186518Y-23830499D01*
X39280304Y-23815646D01*
X39393342Y-23758050D01*
X39483050Y-23668342D01*
X39540646Y-23555304D01*
X39555500Y-23461519D01*
X39555499Y-22538482D01*
X39540646Y-22444696D01*
X39526607Y-22417144D01*
X39510572Y-22341702D01*
X39534406Y-22268349D01*
X39591723Y-22216740D01*
X39659368Y-22200500D01*
X41450500Y-22200500D01*
X41525000Y-22220462D01*
X41579538Y-22275000D01*
X41599500Y-22349500D01*
X41599500Y-24079057D01*
X41640423Y-24231784D01*
X41719480Y-24368716D01*
X41831284Y-24480520D01*
X41968216Y-24559577D01*
X42120943Y-24600500D01*
X42279057Y-24600500D01*
X42877784Y-24600500D01*
X42952284Y-24620462D01*
X43006822Y-24675000D01*
X43026784Y-24749500D01*
X43021707Y-24788064D01*
X42999500Y-24870939D01*
X42999500Y-24870943D01*
X42999500Y-27120943D01*
X42999500Y-27279057D01*
X43040423Y-27431784D01*
X43119480Y-27568716D01*
X43231284Y-27680520D01*
X43368216Y-27759577D01*
X43520943Y-27800500D01*
X44435885Y-27800500D01*
X44510385Y-27820462D01*
X44564923Y-27875000D01*
X44568644Y-27881854D01*
X44571950Y-27888342D01*
X44661658Y-27978050D01*
X44774696Y-28035646D01*
X44868481Y-28050500D01*
X45731518Y-28050499D01*
X45825304Y-28035646D01*
X45932356Y-27981099D01*
X46007797Y-27965064D01*
X46067642Y-27981099D01*
X46174696Y-28035646D01*
X46268481Y-28050500D01*
X47131518Y-28050499D01*
X47225304Y-28035646D01*
X47338342Y-27978050D01*
X47428050Y-27888342D01*
X47431356Y-27881854D01*
X47434038Y-27878874D01*
X47435077Y-27875000D01*
X47459683Y-27850393D01*
X47482965Y-27824537D01*
X47486779Y-27823297D01*
X47489615Y-27820462D01*
X47523222Y-27811456D01*
X47556318Y-27800704D01*
X47564115Y-27800500D01*
X47750500Y-27800500D01*
X47825000Y-27820462D01*
X47879538Y-27875000D01*
X47899500Y-27949500D01*
X47899500Y-29568993D01*
X47926419Y-29704325D01*
X47926420Y-29704329D01*
X47979224Y-29831809D01*
X47979227Y-29831815D01*
X48038780Y-29920941D01*
X48055886Y-29946542D01*
X48153458Y-30044114D01*
X48153461Y-30044116D01*
X48268184Y-30120772D01*
X48268186Y-30120773D01*
X48268189Y-30120775D01*
X48395672Y-30173580D01*
X48531007Y-30200500D01*
X49890501Y-30200500D01*
X49965001Y-30220462D01*
X50019539Y-30275000D01*
X50039501Y-30349500D01*
X50039501Y-31641518D01*
X50054354Y-31735304D01*
X50054355Y-31735306D01*
X50111950Y-31848342D01*
X50208749Y-31945141D01*
X50247313Y-32011936D01*
X50247313Y-32089064D01*
X50208749Y-32155859D01*
X50141954Y-32194423D01*
X50103390Y-32199500D01*
X47421158Y-32199500D01*
X47266505Y-32230262D01*
X47266501Y-32230263D01*
X47120822Y-32290605D01*
X47120816Y-32290608D01*
X46995433Y-32374388D01*
X46990692Y-32375997D01*
X46987152Y-32379538D01*
X46954450Y-32388300D01*
X46922398Y-32399181D01*
X46912652Y-32399500D01*
X46749500Y-32399500D01*
X46675000Y-32379538D01*
X46620462Y-32325000D01*
X46600500Y-32250500D01*
X46600500Y-28920943D01*
X46600499Y-28920941D01*
X46598278Y-28912651D01*
X46559577Y-28768216D01*
X46480520Y-28631284D01*
X46368716Y-28519480D01*
X46231784Y-28440423D01*
X46079057Y-28399500D01*
X42329057Y-28399500D01*
X42170943Y-28399500D01*
X42018216Y-28440423D01*
X42018214Y-28440423D01*
X42018214Y-28440424D01*
X41881283Y-28519480D01*
X41769480Y-28631283D01*
X41690424Y-28768214D01*
X41690423Y-28768216D01*
X41671431Y-28839095D01*
X41649500Y-28920941D01*
X41649500Y-31050500D01*
X41629538Y-31125000D01*
X41575000Y-31179538D01*
X41500500Y-31199500D01*
X40949500Y-31199500D01*
X40875000Y-31179538D01*
X40820462Y-31125000D01*
X40800500Y-31050500D01*
X40800500Y-30921157D01*
X40769737Y-30766505D01*
X40769736Y-30766501D01*
X40765697Y-30756751D01*
X40709394Y-30620821D01*
X40621789Y-30489711D01*
X40510289Y-30378211D01*
X40379179Y-30290606D01*
X40379178Y-30290605D01*
X40379176Y-30290604D01*
X40233498Y-30230263D01*
X40233494Y-30230262D01*
X40078842Y-30199500D01*
X39921158Y-30199500D01*
X39766505Y-30230262D01*
X39766501Y-30230263D01*
X39620823Y-30290604D01*
X39489707Y-30378214D01*
X39378214Y-30489707D01*
X39290604Y-30620823D01*
X39230263Y-30766501D01*
X39230262Y-30766505D01*
X39199500Y-30921157D01*
X39199500Y-32078842D01*
X39230262Y-32233494D01*
X39230263Y-32233498D01*
X39290604Y-32379176D01*
X39290605Y-32379178D01*
X39290606Y-32379179D01*
X39378211Y-32510289D01*
X39489711Y-32621789D01*
X39620821Y-32709394D01*
X39766503Y-32769737D01*
X39921158Y-32800500D01*
X40078842Y-32800500D01*
X41654198Y-32800500D01*
X41708082Y-32813436D01*
X41708542Y-32812022D01*
X41719693Y-32815645D01*
X41719694Y-32815645D01*
X41719696Y-32815646D01*
X41813481Y-32830500D01*
X42686518Y-32830499D01*
X42780304Y-32815646D01*
X42893342Y-32758050D01*
X42894641Y-32756751D01*
X42897022Y-32755376D01*
X42902831Y-32751156D01*
X42903274Y-32751766D01*
X42961436Y-32718187D01*
X43038564Y-32718187D01*
X43082204Y-32737838D01*
X43094735Y-32746127D01*
X43106658Y-32758050D01*
X43133216Y-32771582D01*
X43140255Y-32776238D01*
X43160412Y-32799008D01*
X43183013Y-32819359D01*
X43187089Y-32826010D01*
X43190423Y-32831784D01*
X43269480Y-32968716D01*
X43381284Y-33080520D01*
X43518216Y-33159577D01*
X43670943Y-33200500D01*
X43829057Y-33200500D01*
X43850500Y-33200500D01*
X43925000Y-33220462D01*
X43979538Y-33275000D01*
X43999500Y-33349500D01*
X43999500Y-35250500D01*
X43979538Y-35325000D01*
X43925000Y-35379538D01*
X43850500Y-35399500D01*
X43107533Y-35399500D01*
X43033033Y-35379538D01*
X42978495Y-35325000D01*
X42958533Y-35250500D01*
X42977744Y-35178799D01*
X42977726Y-35178790D01*
X42977771Y-35178701D01*
X42978495Y-35176000D01*
X42981524Y-35171334D01*
X42983047Y-35168344D01*
X42983050Y-35168342D01*
X43040646Y-35055304D01*
X43055500Y-34961519D01*
X43055499Y-34038482D01*
X43040646Y-33944696D01*
X42983050Y-33831658D01*
X42893342Y-33741950D01*
X42780305Y-33684354D01*
X42764673Y-33681878D01*
X42686519Y-33669500D01*
X42686514Y-33669500D01*
X41813481Y-33669500D01*
X41719695Y-33684354D01*
X41719693Y-33684355D01*
X41606657Y-33741950D01*
X41516950Y-33831657D01*
X41459354Y-33944694D01*
X41459354Y-33944696D01*
X41444500Y-34038481D01*
X41444500Y-34038482D01*
X41444500Y-34038485D01*
X41444500Y-34961518D01*
X41459354Y-35055304D01*
X41459355Y-35055306D01*
X41516950Y-35168342D01*
X41605859Y-35257251D01*
X41644423Y-35324046D01*
X41649500Y-35362610D01*
X41649500Y-35920943D01*
X41649500Y-36079057D01*
X41690423Y-36231784D01*
X41769480Y-36368716D01*
X41881284Y-36480520D01*
X42018216Y-36559577D01*
X42170943Y-36600500D01*
X44679057Y-36600500D01*
X44831784Y-36559577D01*
X44968716Y-36480520D01*
X45080520Y-36368716D01*
X45159577Y-36231784D01*
X45200500Y-36079057D01*
X45200500Y-33372301D01*
X45220462Y-33297801D01*
X45275000Y-33243263D01*
X45349500Y-33223301D01*
X45424000Y-33243263D01*
X45478538Y-33297801D01*
X45478538Y-33297802D01*
X45508385Y-33349500D01*
X45519480Y-33368716D01*
X45631284Y-33480520D01*
X45768216Y-33559577D01*
X45920943Y-33600500D01*
X46250609Y-33600500D01*
X46325109Y-33620462D01*
X46379647Y-33675000D01*
X46399609Y-33749500D01*
X46397775Y-33772798D01*
X46394500Y-33793481D01*
X46394500Y-33793484D01*
X46394500Y-33793485D01*
X46394500Y-35206518D01*
X46406119Y-35279879D01*
X46409354Y-35300304D01*
X46466950Y-35413342D01*
X46556658Y-35503050D01*
X46669696Y-35560646D01*
X46763481Y-35575500D01*
X48236518Y-35575499D01*
X48330304Y-35560646D01*
X48443342Y-35503050D01*
X48533050Y-35413342D01*
X48590646Y-35300304D01*
X48605500Y-35206519D01*
X48605499Y-33949499D01*
X48625461Y-33875000D01*
X48679999Y-33820462D01*
X48754499Y-33800500D01*
X51245500Y-33800500D01*
X51320000Y-33820462D01*
X51374538Y-33875000D01*
X51394500Y-33949500D01*
X51394500Y-35206518D01*
X51406119Y-35279879D01*
X51409354Y-35300304D01*
X51466950Y-35413342D01*
X51556658Y-35503050D01*
X51669696Y-35560646D01*
X51763481Y-35575500D01*
X53236518Y-35575499D01*
X53330304Y-35560646D01*
X53443342Y-35503050D01*
X53533050Y-35413342D01*
X53590646Y-35300304D01*
X53605500Y-35206519D01*
X53605499Y-33949499D01*
X53625461Y-33875000D01*
X53679999Y-33820462D01*
X53754499Y-33800500D01*
X56350500Y-33800500D01*
X56425000Y-33820462D01*
X56479538Y-33875000D01*
X56499500Y-33949500D01*
X56499500Y-34981518D01*
X56511187Y-35055305D01*
X56514354Y-35075304D01*
X56571950Y-35188342D01*
X56661658Y-35278050D01*
X56774696Y-35335646D01*
X56868481Y-35350500D01*
X57731518Y-35350499D01*
X57825304Y-35335646D01*
X57938342Y-35278050D01*
X58028050Y-35188342D01*
X58085646Y-35075304D01*
X58100500Y-34981519D01*
X58100500Y-34578842D01*
X58100500Y-33693295D01*
X58120462Y-33618795D01*
X58144138Y-33587939D01*
X58221789Y-33510289D01*
X58309394Y-33379179D01*
X58369737Y-33233497D01*
X58400500Y-33078842D01*
X58400500Y-29421158D01*
X58369737Y-29266503D01*
X58309394Y-29120821D01*
X58225611Y-28995431D01*
X58200819Y-28922396D01*
X58200500Y-28912651D01*
X58200500Y-16920943D01*
X58200499Y-16920941D01*
X58159577Y-16768216D01*
X58080520Y-16631284D01*
X57968716Y-16519480D01*
X57968715Y-16519479D01*
X57825462Y-16436773D01*
X57770924Y-16382236D01*
X57750961Y-16307736D01*
X57770923Y-16233236D01*
X57817181Y-16183846D01*
X57919335Y-16115589D01*
X58065585Y-15969339D01*
X58065589Y-15969334D01*
X58180495Y-15797367D01*
X58180500Y-15797357D01*
X58259649Y-15606273D01*
X58259650Y-15606269D01*
X58270843Y-15550000D01*
X57565682Y-15550000D01*
X57570077Y-15545605D01*
X57622738Y-15454394D01*
X57649997Y-15352661D01*
X57649997Y-15247339D01*
X57622738Y-15145606D01*
X57570077Y-15054395D01*
X57565682Y-15050000D01*
X58270843Y-15050000D01*
X58270843Y-15049999D01*
X58259650Y-14993730D01*
X58259649Y-14993726D01*
X58180500Y-14802642D01*
X58180495Y-14802632D01*
X58065589Y-14630665D01*
X58065585Y-14630660D01*
X57919339Y-14484414D01*
X57919334Y-14484410D01*
X57747367Y-14369504D01*
X57747357Y-14369499D01*
X57556273Y-14290350D01*
X57556271Y-14290349D01*
X57353416Y-14250000D01*
X56400000Y-14250000D01*
X56400000Y-14900001D01*
X55900000Y-14900001D01*
X55900000Y-14250000D01*
X54946584Y-14250000D01*
X54743728Y-14290349D01*
X54743726Y-14290350D01*
X54552642Y-14369499D01*
X54552632Y-14369504D01*
X54380665Y-14484410D01*
X54380660Y-14484414D01*
X54234414Y-14630660D01*
X54234410Y-14630665D01*
X54119504Y-14802632D01*
X54119499Y-14802642D01*
X54040350Y-14993726D01*
X54040349Y-14993730D01*
X54029156Y-15049999D01*
X54029157Y-15050000D01*
X54734318Y-15050000D01*
X54729923Y-15054395D01*
X54677262Y-15145606D01*
X54650003Y-15247339D01*
X54650003Y-15352661D01*
X54677262Y-15454394D01*
X54729923Y-15545605D01*
X54734318Y-15550000D01*
X54029157Y-15550000D01*
X54040349Y-15606269D01*
X54040350Y-15606273D01*
X54119499Y-15797357D01*
X54119504Y-15797367D01*
X54234410Y-15969334D01*
X54234414Y-15969339D01*
X54380660Y-16115585D01*
X54380667Y-16115591D01*
X54397161Y-16126612D01*
X54448014Y-16184600D01*
X54463061Y-16260246D01*
X54438268Y-16333281D01*
X54380280Y-16384134D01*
X54314380Y-16399500D01*
X54170943Y-16399500D01*
X54018216Y-16440423D01*
X54018214Y-16440423D01*
X54018214Y-16440424D01*
X53881283Y-16519480D01*
X53769480Y-16631283D01*
X53690424Y-16768214D01*
X53649500Y-16920941D01*
X53649500Y-17137390D01*
X53629538Y-17211890D01*
X53605859Y-17242749D01*
X53516950Y-17331657D01*
X53459354Y-17444694D01*
X53455271Y-17470474D01*
X53444500Y-17538481D01*
X53444500Y-17538484D01*
X53444500Y-17538485D01*
X53444500Y-18461518D01*
X53455506Y-18531006D01*
X53459354Y-18555304D01*
X53516950Y-18668342D01*
X53606658Y-18758050D01*
X53719696Y-18815646D01*
X53813481Y-18830500D01*
X54686518Y-18830499D01*
X54780304Y-18815646D01*
X54893342Y-18758050D01*
X54894641Y-18756751D01*
X54897022Y-18755376D01*
X54902831Y-18751156D01*
X54903274Y-18751766D01*
X54961436Y-18718187D01*
X55038564Y-18718187D01*
X55105359Y-18756751D01*
X55105859Y-18757251D01*
X55144423Y-18824046D01*
X55149500Y-18862610D01*
X55149500Y-20172390D01*
X55129538Y-20246890D01*
X55105859Y-20277749D01*
X55021950Y-20361657D01*
X54964354Y-20474694D01*
X54961976Y-20489711D01*
X54949500Y-20568481D01*
X54949500Y-20568482D01*
X54949500Y-20568485D01*
X54949500Y-21431518D01*
X54960267Y-21499500D01*
X54964354Y-21525304D01*
X55021950Y-21638342D01*
X55111658Y-21728050D01*
X55224696Y-21785646D01*
X55318481Y-21800500D01*
X56181518Y-21800499D01*
X56275304Y-21785646D01*
X56388342Y-21728050D01*
X56478050Y-21638342D01*
X56535646Y-21525304D01*
X56550500Y-21431519D01*
X56550499Y-20568482D01*
X56535646Y-20474696D01*
X56478050Y-20361658D01*
X56394141Y-20277749D01*
X56355577Y-20210954D01*
X56350500Y-20172390D01*
X56350500Y-18862610D01*
X56370462Y-18788110D01*
X56394141Y-18757251D01*
X56433205Y-18718187D01*
X56483050Y-18668342D01*
X56540646Y-18555304D01*
X56555500Y-18461519D01*
X56555499Y-17749499D01*
X56575461Y-17675000D01*
X56629999Y-17620462D01*
X56704499Y-17600500D01*
X56850500Y-17600500D01*
X56925000Y-17620462D01*
X56979538Y-17675000D01*
X56999500Y-17749500D01*
X56999500Y-26921299D01*
X56979538Y-26995799D01*
X56925000Y-27050337D01*
X56850500Y-27070299D01*
X56782855Y-27054059D01*
X56685305Y-27004354D01*
X56669673Y-27001878D01*
X56591519Y-26989500D01*
X56591514Y-26989500D01*
X54408481Y-26989500D01*
X54314695Y-27004354D01*
X54314693Y-27004355D01*
X54201657Y-27061950D01*
X54111950Y-27151657D01*
X54054354Y-27264694D01*
X54052079Y-27279057D01*
X54039500Y-27358481D01*
X54039500Y-27358482D01*
X54039500Y-27358485D01*
X54039500Y-31641518D01*
X54054354Y-31735304D01*
X54054355Y-31735306D01*
X54111950Y-31848342D01*
X54208749Y-31945141D01*
X54247313Y-32011936D01*
X54247313Y-32089064D01*
X54208749Y-32155859D01*
X54141954Y-32194423D01*
X54103390Y-32199500D01*
X52896610Y-32199500D01*
X52822110Y-32179538D01*
X52767572Y-32125000D01*
X52747610Y-32050500D01*
X52767572Y-31976000D01*
X52791251Y-31945141D01*
X52826821Y-31909571D01*
X52888050Y-31848342D01*
X52945646Y-31735304D01*
X52960500Y-31641519D01*
X52960499Y-27358482D01*
X52945646Y-27264696D01*
X52888050Y-27151658D01*
X52798342Y-27061950D01*
X52782855Y-27054059D01*
X52685305Y-27004354D01*
X52669673Y-27001878D01*
X52591519Y-26989500D01*
X52591514Y-26989500D01*
X50408481Y-26989500D01*
X50314695Y-27004354D01*
X50314693Y-27004355D01*
X50201657Y-27061950D01*
X50111950Y-27151657D01*
X50054354Y-27264694D01*
X50052079Y-27279057D01*
X50039500Y-27358481D01*
X50039500Y-27358482D01*
X50039500Y-27358485D01*
X50039500Y-28650500D01*
X50019538Y-28725000D01*
X49965000Y-28779538D01*
X49890500Y-28799500D01*
X49449500Y-28799500D01*
X49375000Y-28779538D01*
X49320462Y-28725000D01*
X49300500Y-28650500D01*
X49300500Y-24106610D01*
X49320462Y-24032110D01*
X49375000Y-23977572D01*
X49449500Y-23957610D01*
X49524000Y-23977572D01*
X49554859Y-24001251D01*
X49586658Y-24033050D01*
X49699696Y-24090646D01*
X49793481Y-24105500D01*
X51206518Y-24105499D01*
X51300304Y-24090646D01*
X51413342Y-24033050D01*
X51503050Y-23943342D01*
X51560646Y-23830304D01*
X51575500Y-23736519D01*
X51575499Y-22263482D01*
X51560646Y-22169696D01*
X51503050Y-22056658D01*
X51413342Y-21966950D01*
X51413341Y-21966949D01*
X51413339Y-21966948D01*
X51381854Y-21950905D01*
X51324537Y-21899296D01*
X51300704Y-21825943D01*
X51300500Y-21818146D01*
X51300500Y-20921157D01*
X51275885Y-20797411D01*
X51269737Y-20766503D01*
X51213828Y-20631526D01*
X51209395Y-20620823D01*
X51202788Y-20610935D01*
X51121789Y-20489711D01*
X51010289Y-20378211D01*
X50879179Y-20290606D01*
X50879178Y-20290605D01*
X50879176Y-20290604D01*
X50733498Y-20230263D01*
X50733494Y-20230262D01*
X50578842Y-20199500D01*
X50421158Y-20199500D01*
X50266505Y-20230262D01*
X50266501Y-20230263D01*
X50120823Y-20290604D01*
X50033012Y-20349278D01*
X50003922Y-20368716D01*
X49989707Y-20378214D01*
X49878214Y-20489707D01*
X49790604Y-20620823D01*
X49730263Y-20766501D01*
X49730262Y-20766505D01*
X49699500Y-20921157D01*
X49699500Y-21350500D01*
X49679538Y-21425000D01*
X49625000Y-21479538D01*
X49550500Y-21499500D01*
X47281007Y-21499500D01*
X47145674Y-21526419D01*
X47145670Y-21526420D01*
X47018190Y-21579224D01*
X47018184Y-21579227D01*
X46903461Y-21655883D01*
X46903454Y-21655889D01*
X46805889Y-21753454D01*
X46805883Y-21753461D01*
X46729227Y-21868184D01*
X46729224Y-21868190D01*
X46676420Y-21995670D01*
X46676419Y-21995674D01*
X46649500Y-22131006D01*
X46649500Y-22285885D01*
X46629538Y-22360385D01*
X46575000Y-22414923D01*
X46568146Y-22418644D01*
X46561658Y-22421949D01*
X46471950Y-22511657D01*
X46414354Y-22624694D01*
X46414354Y-22624696D01*
X46399500Y-22718481D01*
X46399500Y-22718482D01*
X46399500Y-22718485D01*
X46399500Y-23381519D01*
X46414353Y-23475301D01*
X46415541Y-23478957D01*
X46415841Y-23484701D01*
X46416188Y-23486886D01*
X46415958Y-23486922D01*
X46419577Y-23555980D01*
X46415542Y-23571040D01*
X46414354Y-23574694D01*
X46414354Y-23574696D01*
X46399500Y-23668481D01*
X46399500Y-23668482D01*
X46399500Y-23668485D01*
X46399500Y-24331518D01*
X46407695Y-24383260D01*
X46414354Y-24425304D01*
X46471950Y-24538342D01*
X46561658Y-24628050D01*
X46674696Y-24685646D01*
X46768481Y-24700500D01*
X47268989Y-24700499D01*
X47269003Y-24700500D01*
X47281007Y-24700500D01*
X47750500Y-24700500D01*
X47825000Y-24720462D01*
X47879538Y-24775000D01*
X47899500Y-24849500D01*
X47899500Y-26450500D01*
X47879538Y-26525000D01*
X47825000Y-26579538D01*
X47750500Y-26599500D01*
X47564115Y-26599500D01*
X47489615Y-26579538D01*
X47435077Y-26525000D01*
X47431356Y-26518146D01*
X47428050Y-26511658D01*
X47338342Y-26421950D01*
X47225305Y-26364354D01*
X47209673Y-26361878D01*
X47131519Y-26349500D01*
X47131514Y-26349500D01*
X46268481Y-26349500D01*
X46174695Y-26364354D01*
X46174690Y-26364356D01*
X46067644Y-26418899D01*
X45992202Y-26434935D01*
X45932356Y-26418899D01*
X45825306Y-26364354D01*
X45798508Y-26360110D01*
X45731519Y-26349500D01*
X45731514Y-26349500D01*
X44868481Y-26349500D01*
X44774695Y-26364354D01*
X44774693Y-26364355D01*
X44661657Y-26421950D01*
X44571949Y-26511658D01*
X44568644Y-26518146D01*
X44565961Y-26521125D01*
X44564923Y-26525000D01*
X44540316Y-26549606D01*
X44517035Y-26575463D01*
X44513220Y-26576702D01*
X44510385Y-26579538D01*
X44476777Y-26588543D01*
X44443682Y-26599296D01*
X44435885Y-26599500D01*
X44349500Y-26599500D01*
X44275000Y-26579538D01*
X44220462Y-26525000D01*
X44200500Y-26450500D01*
X44200500Y-25799499D01*
X44220462Y-25724999D01*
X44275000Y-25670461D01*
X44349500Y-25650499D01*
X45231519Y-25650499D01*
X45244341Y-25648468D01*
X45325304Y-25635646D01*
X45438342Y-25578050D01*
X45528050Y-25488342D01*
X45585646Y-25375304D01*
X45600500Y-25281519D01*
X45600499Y-24618482D01*
X45585646Y-24524696D01*
X45585643Y-24524690D01*
X45584458Y-24521042D01*
X45584157Y-24515299D01*
X45583811Y-24513114D01*
X45584040Y-24513077D01*
X45580422Y-24444019D01*
X45584461Y-24428948D01*
X45585641Y-24425312D01*
X45585646Y-24425304D01*
X45600500Y-24331519D01*
X45600499Y-23668482D01*
X45585646Y-23574696D01*
X45585643Y-23574690D01*
X45584458Y-23571042D01*
X45584157Y-23565299D01*
X45583811Y-23563114D01*
X45584040Y-23563077D01*
X45580422Y-23494019D01*
X45584461Y-23478948D01*
X45585641Y-23475312D01*
X45585646Y-23475304D01*
X45600500Y-23381519D01*
X45600499Y-22718482D01*
X45585646Y-22624696D01*
X45528050Y-22511658D01*
X45438342Y-22421950D01*
X45395834Y-22400291D01*
X45325305Y-22364354D01*
X45309673Y-22361878D01*
X45231519Y-22349500D01*
X45231514Y-22349500D01*
X44068481Y-22349500D01*
X43974695Y-22364354D01*
X43974693Y-22364355D01*
X43908255Y-22398207D01*
X43861658Y-22421950D01*
X43861657Y-22421950D01*
X43851210Y-22427274D01*
X43850467Y-22425817D01*
X43790901Y-22448684D01*
X43775326Y-22449500D01*
X43407065Y-22449500D01*
X43336826Y-22431906D01*
X43331805Y-22429222D01*
X43204329Y-22376420D01*
X43204325Y-22376419D01*
X43068993Y-22349500D01*
X42949500Y-22349500D01*
X42875000Y-22329538D01*
X42820462Y-22275000D01*
X42800500Y-22200500D01*
X42800500Y-19920943D01*
X42800499Y-19920941D01*
X42759577Y-19768216D01*
X42680520Y-19631284D01*
X42568716Y-19519480D01*
X42431784Y-19440423D01*
X42279057Y-19399500D01*
X41108259Y-19399500D01*
X41033759Y-19379538D01*
X40987713Y-19338077D01*
X40983051Y-19331660D01*
X40983050Y-19331658D01*
X40893342Y-19241950D01*
X40801995Y-19195406D01*
X40780305Y-19184354D01*
X40764673Y-19181878D01*
X40686519Y-19169500D01*
X40686514Y-19169500D01*
X39813481Y-19169500D01*
X39719695Y-19184354D01*
X39719693Y-19184355D01*
X39606657Y-19241950D01*
X39605359Y-19243249D01*
X39602977Y-19244623D01*
X39597169Y-19248844D01*
X39596725Y-19248233D01*
X39538564Y-19281813D01*
X39461436Y-19281813D01*
X39403274Y-19248233D01*
X39402831Y-19248844D01*
X39397022Y-19244623D01*
X39394641Y-19243249D01*
X39393342Y-19241950D01*
X39280305Y-19184354D01*
X39264673Y-19181878D01*
X39186519Y-19169500D01*
X39186514Y-19169500D01*
X38313481Y-19169500D01*
X38219695Y-19184354D01*
X38219693Y-19184355D01*
X38106657Y-19241950D01*
X38016951Y-19331656D01*
X38012287Y-19338077D01*
X37988177Y-19357601D01*
X37966241Y-19379538D01*
X37958542Y-19381600D01*
X37952348Y-19386617D01*
X37891741Y-19399500D01*
X37749500Y-19399500D01*
X37675000Y-19379538D01*
X37620462Y-19325000D01*
X37600500Y-19250500D01*
X37600500Y-19007065D01*
X37618097Y-18936821D01*
X37620771Y-18931816D01*
X37620775Y-18931811D01*
X37673580Y-18804328D01*
X37700500Y-18668993D01*
X37700500Y-18531007D01*
X37673580Y-18395672D01*
X37620775Y-18268189D01*
X37544114Y-18153458D01*
X37446542Y-18055886D01*
X37446538Y-18055883D01*
X37331815Y-17979227D01*
X37331809Y-17979224D01*
X37204329Y-17926420D01*
X37204325Y-17926419D01*
X37068993Y-17899500D01*
X36931007Y-17899500D01*
X36795674Y-17926419D01*
X36795670Y-17926420D01*
X36668190Y-17979224D01*
X36668184Y-17979227D01*
X36553461Y-18055883D01*
X36553454Y-18055889D01*
X36455889Y-18153454D01*
X36455883Y-18153461D01*
X36379227Y-18268184D01*
X36379224Y-18268190D01*
X36326420Y-18395670D01*
X36326419Y-18395674D01*
X36299500Y-18531006D01*
X32200500Y-18531006D01*
X32200500Y-13380943D01*
X32159577Y-13228216D01*
X32080520Y-13091284D01*
X31968716Y-12979480D01*
X31831784Y-12900423D01*
X31679057Y-12859500D01*
X28425335Y-12859500D01*
X28350835Y-12839538D01*
X28304792Y-12798081D01*
X28221903Y-12683996D01*
X28193828Y-12645354D01*
X28054646Y-12506172D01*
X27895405Y-12390476D01*
X27844538Y-12364558D01*
X27761953Y-12322479D01*
X27704635Y-12270870D01*
X27680801Y-12197517D01*
X27696837Y-12122075D01*
X27748446Y-12064757D01*
X27761953Y-12056959D01*
X27895138Y-11989098D01*
X27930123Y-11963678D01*
X27410243Y-11443797D01*
X27452297Y-11432530D01*
X27577715Y-11360119D01*
X27680119Y-11257715D01*
X27752530Y-11132297D01*
X27763798Y-11090243D01*
X28283678Y-11610123D01*
X28309098Y-11575138D01*
X28398414Y-11399844D01*
X28398421Y-11399826D01*
X28459220Y-11212708D01*
X28490000Y-11018372D01*
X28490000Y-10821627D01*
X28459220Y-10627291D01*
X28398421Y-10440173D01*
X28398414Y-10440155D01*
X28309098Y-10264861D01*
X28283678Y-10229874D01*
X27763797Y-10749755D01*
X27752530Y-10707703D01*
X27680119Y-10582285D01*
X27577715Y-10479881D01*
X27452297Y-10407470D01*
X27410242Y-10396201D01*
X27930124Y-9876320D01*
X27928677Y-9857935D01*
X27914237Y-9840103D01*
X27902171Y-9763925D01*
X27929811Y-9691919D01*
X27989751Y-9643381D01*
X28050354Y-9630499D01*
X28121518Y-9630499D01*
X28121519Y-9630499D01*
X28134341Y-9628468D01*
X28215304Y-9615646D01*
X28328342Y-9558050D01*
X28418050Y-9468342D01*
X28475646Y-9355304D01*
X28490500Y-9261519D01*
X28490499Y-7920941D01*
X33799500Y-7920941D01*
X33799500Y-7920943D01*
X33799500Y-12679057D01*
X33840423Y-12831784D01*
X33919480Y-12968716D01*
X34031284Y-13080520D01*
X34168216Y-13159577D01*
X34320943Y-13200500D01*
X34479057Y-13200500D01*
X35891741Y-13200500D01*
X35966241Y-13220462D01*
X36012287Y-13261923D01*
X36016949Y-13268340D01*
X36016950Y-13268342D01*
X36106658Y-13358050D01*
X36219696Y-13415646D01*
X36313481Y-13430500D01*
X37186518Y-13430499D01*
X37280304Y-13415646D01*
X37393342Y-13358050D01*
X37483050Y-13268342D01*
X37540646Y-13155304D01*
X37555500Y-13061519D01*
X37555499Y-12138482D01*
X37540646Y-12044696D01*
X37483050Y-11931658D01*
X37393342Y-11841950D01*
X37280305Y-11784354D01*
X37264673Y-11781878D01*
X37186519Y-11769500D01*
X37186514Y-11769500D01*
X36313481Y-11769500D01*
X36219695Y-11784354D01*
X36219693Y-11784355D01*
X36106657Y-11841950D01*
X36016951Y-11931656D01*
X36012287Y-11938077D01*
X35952348Y-11986617D01*
X35891741Y-11999500D01*
X35149500Y-11999500D01*
X35075000Y-11979538D01*
X35020462Y-11925000D01*
X35000500Y-11850500D01*
X35000500Y-8815278D01*
X35020462Y-8740778D01*
X35075000Y-8686240D01*
X35149500Y-8666278D01*
X35192760Y-8672696D01*
X35195664Y-8673576D01*
X35195672Y-8673580D01*
X35331007Y-8700500D01*
X35468993Y-8700500D01*
X35604328Y-8673580D01*
X35731811Y-8620775D01*
X35731820Y-8620768D01*
X35736826Y-8618094D01*
X35807065Y-8600500D01*
X35891741Y-8600500D01*
X35966241Y-8620462D01*
X36012287Y-8661923D01*
X36016949Y-8668340D01*
X36016950Y-8668342D01*
X36106658Y-8758050D01*
X36219696Y-8815646D01*
X36313481Y-8830500D01*
X37186518Y-8830499D01*
X37280304Y-8815646D01*
X37393342Y-8758050D01*
X37394641Y-8756751D01*
X37397022Y-8755376D01*
X37402831Y-8751156D01*
X37403274Y-8751766D01*
X37461436Y-8718187D01*
X37538564Y-8718187D01*
X37596725Y-8751766D01*
X37597169Y-8751156D01*
X37602977Y-8755376D01*
X37605359Y-8756751D01*
X37606658Y-8758050D01*
X37719696Y-8815646D01*
X37813481Y-8830500D01*
X38686518Y-8830499D01*
X38780304Y-8815646D01*
X38893342Y-8758050D01*
X38983050Y-8668342D01*
X38983052Y-8668336D01*
X38987713Y-8661923D01*
X39047652Y-8613383D01*
X39108259Y-8600500D01*
X42273390Y-8600500D01*
X42347890Y-8620462D01*
X42402428Y-8675000D01*
X42422390Y-8749500D01*
X42402428Y-8824000D01*
X42378749Y-8854859D01*
X42321950Y-8911657D01*
X42264354Y-9024694D01*
X42264354Y-9024696D01*
X42249500Y-9118481D01*
X42249500Y-9118485D01*
X42249500Y-9572566D01*
X42229538Y-9647066D01*
X42175000Y-9701604D01*
X42100500Y-9721566D01*
X42033329Y-9704741D01*
X42033310Y-9704788D01*
X42032999Y-9704659D01*
X42030267Y-9703975D01*
X42026546Y-9701986D01*
X41862667Y-9634106D01*
X41862663Y-9634105D01*
X41688691Y-9599500D01*
X40761309Y-9599500D01*
X40587334Y-9634105D01*
X40587333Y-9634106D01*
X40456833Y-9688159D01*
X40399817Y-9699500D01*
X40318486Y-9699500D01*
X40224695Y-9714354D01*
X40224693Y-9714355D01*
X40111657Y-9771950D01*
X40021950Y-9861657D01*
X39964354Y-9974694D01*
X39959402Y-10005957D01*
X39949500Y-10068481D01*
X39949500Y-10068485D01*
X39949500Y-10931513D01*
X39963263Y-11018417D01*
X39964354Y-11025304D01*
X40021950Y-11138342D01*
X40111658Y-11228050D01*
X40224696Y-11285646D01*
X40318481Y-11300500D01*
X40399817Y-11300499D01*
X40455670Y-11311363D01*
X40456260Y-11311601D01*
X40587334Y-11365894D01*
X40593640Y-11367148D01*
X40606352Y-11372288D01*
X40631982Y-11391612D01*
X40659244Y-11408563D01*
X40662471Y-11414600D01*
X40667937Y-11418721D01*
X40680469Y-11448266D01*
X40695606Y-11476581D01*
X40696769Y-11486696D01*
X40698055Y-11489726D01*
X40697571Y-11493659D01*
X40699500Y-11510424D01*
X40699500Y-16688691D01*
X40734105Y-16862663D01*
X40734106Y-16862667D01*
X40801986Y-17026546D01*
X40801987Y-17026548D01*
X40890412Y-17158884D01*
X40900536Y-17174035D01*
X41025965Y-17299464D01*
X41025968Y-17299466D01*
X41173451Y-17398012D01*
X41173453Y-17398013D01*
X41337334Y-17465894D01*
X41511309Y-17500500D01*
X41688691Y-17500500D01*
X41862666Y-17465894D01*
X42026547Y-17398013D01*
X42174035Y-17299464D01*
X42299464Y-17174035D01*
X42398013Y-17026547D01*
X42465894Y-16862666D01*
X42500500Y-16688691D01*
X42500500Y-12399499D01*
X42520462Y-12324999D01*
X42575000Y-12270461D01*
X42649496Y-12250499D01*
X43681518Y-12250499D01*
X43681519Y-12250499D01*
X43694341Y-12248468D01*
X43775304Y-12235646D01*
X43782852Y-12231799D01*
X43858295Y-12215762D01*
X43931648Y-12239594D01*
X43983258Y-12296910D01*
X43999500Y-12364558D01*
X43999500Y-13192934D01*
X43981908Y-13263168D01*
X43979225Y-13268186D01*
X43926420Y-13395670D01*
X43926419Y-13395674D01*
X43899500Y-13531006D01*
X43899500Y-13668993D01*
X43926419Y-13804325D01*
X43926420Y-13804329D01*
X43979224Y-13931809D01*
X43979227Y-13931815D01*
X44055883Y-14046538D01*
X44055886Y-14046542D01*
X44153458Y-14144114D01*
X44153461Y-14144116D01*
X44268184Y-14220772D01*
X44268186Y-14220773D01*
X44268189Y-14220775D01*
X44395672Y-14273580D01*
X44531007Y-14300500D01*
X44668993Y-14300500D01*
X44804328Y-14273580D01*
X44931811Y-14220775D01*
X45046542Y-14144114D01*
X45144114Y-14046542D01*
X45220775Y-13931811D01*
X45273580Y-13804328D01*
X45300500Y-13668993D01*
X45300500Y-13531007D01*
X45300099Y-13528993D01*
X45280508Y-13430500D01*
X45273580Y-13395672D01*
X45220839Y-13268343D01*
X45220774Y-13268186D01*
X45218092Y-13263168D01*
X45200500Y-13192934D01*
X45200500Y-11370943D01*
X45200499Y-11370941D01*
X45159577Y-11218216D01*
X45080520Y-11081284D01*
X44968716Y-10969480D01*
X44831784Y-10890423D01*
X44679057Y-10849500D01*
X44077610Y-10849500D01*
X44059803Y-10844728D01*
X44041372Y-10845026D01*
X44023843Y-10835093D01*
X44003110Y-10829538D01*
X43973964Y-10807545D01*
X43973113Y-10806721D01*
X43888342Y-10721950D01*
X43882474Y-10718960D01*
X43869652Y-10706545D01*
X43855055Y-10682178D01*
X43837180Y-10660105D01*
X43835507Y-10649547D01*
X43830016Y-10640380D01*
X43829557Y-10611983D01*
X43825114Y-10583927D01*
X43828944Y-10573948D01*
X43828772Y-10563262D01*
X43842576Y-10538436D01*
X43852754Y-10511921D01*
X43861058Y-10505195D01*
X43866253Y-10495854D01*
X43890619Y-10481257D01*
X43912693Y-10463382D01*
X43924730Y-10460823D01*
X43932418Y-10456218D01*
X43947544Y-10455973D01*
X43973298Y-10450500D01*
X45588691Y-10450500D01*
X45762666Y-10415894D01*
X45926547Y-10348013D01*
X46074035Y-10249464D01*
X46199464Y-10124035D01*
X46298013Y-9976547D01*
X46365894Y-9812666D01*
X46400500Y-9638691D01*
X46400500Y-9609496D01*
X51700000Y-9609496D01*
X51700000Y-10450000D01*
X52350001Y-10450000D01*
X52350001Y-10950000D01*
X51700000Y-10950000D01*
X51700000Y-11790503D01*
X51728317Y-11969297D01*
X51784253Y-12141449D01*
X51866432Y-12302732D01*
X51866433Y-12302733D01*
X51972828Y-12449173D01*
X51972830Y-12449176D01*
X52100823Y-12577169D01*
X52100826Y-12577171D01*
X52247266Y-12683566D01*
X52247267Y-12683567D01*
X52408550Y-12765746D01*
X52580702Y-12821681D01*
X52600000Y-12824737D01*
X52600000Y-12133008D01*
X52657008Y-12165922D01*
X52784174Y-12199997D01*
X52915826Y-12199997D01*
X53042992Y-12165922D01*
X53100000Y-12133008D01*
X53100000Y-12824737D01*
X53119297Y-12821681D01*
X53291449Y-12765746D01*
X53452732Y-12683567D01*
X53452733Y-12683566D01*
X53599173Y-12577171D01*
X53599176Y-12577169D01*
X53727169Y-12449176D01*
X53727171Y-12449173D01*
X53833566Y-12302733D01*
X53833567Y-12302732D01*
X53915746Y-12141449D01*
X53971681Y-11969297D01*
X53971682Y-11969297D01*
X54000000Y-11790503D01*
X54000000Y-10950000D01*
X53349999Y-10950000D01*
X53349999Y-10450000D01*
X54000000Y-10450000D01*
X54000000Y-9609496D01*
X53971682Y-9430702D01*
X53915746Y-9258550D01*
X53833567Y-9097267D01*
X53833566Y-9097266D01*
X53727171Y-8950826D01*
X53727169Y-8950823D01*
X53599176Y-8822830D01*
X53599173Y-8822828D01*
X53452733Y-8716433D01*
X53452732Y-8716432D01*
X53291453Y-8634255D01*
X53119292Y-8578317D01*
X53119284Y-8578316D01*
X53100000Y-8575261D01*
X53100000Y-9266991D01*
X53042992Y-9234078D01*
X52915826Y-9200003D01*
X52784174Y-9200003D01*
X52657008Y-9234078D01*
X52600000Y-9266991D01*
X52600000Y-8575261D01*
X52580715Y-8578316D01*
X52580707Y-8578317D01*
X52408546Y-8634255D01*
X52247267Y-8716432D01*
X52247266Y-8716433D01*
X52100826Y-8822828D01*
X52100823Y-8822830D01*
X51972830Y-8950823D01*
X51972828Y-8950826D01*
X51866433Y-9097266D01*
X51866432Y-9097267D01*
X51784253Y-9258550D01*
X51728318Y-9430702D01*
X51728317Y-9430702D01*
X51700000Y-9609496D01*
X46400500Y-9609496D01*
X46400500Y-7249500D01*
X46420462Y-7175000D01*
X46475000Y-7120462D01*
X46549500Y-7100500D01*
X58100500Y-7100500D01*
X58175000Y-7120462D01*
X58229538Y-7175000D01*
X58249500Y-7249500D01*
X58249500Y-8933669D01*
X58229538Y-9008169D01*
X58221044Y-9021248D01*
X58166009Y-9096997D01*
X58166005Y-9097004D01*
X58083789Y-9258360D01*
X58052290Y-9355306D01*
X58027829Y-9430591D01*
X57999500Y-9609454D01*
X57999500Y-11790546D01*
X58027829Y-11969409D01*
X58083789Y-12141639D01*
X58165871Y-12302733D01*
X58166005Y-12302995D01*
X58166005Y-12302996D01*
X58181991Y-12324999D01*
X58272447Y-12449501D01*
X58400499Y-12577553D01*
X58547006Y-12683996D01*
X58708361Y-12766211D01*
X58880591Y-12822171D01*
X59059454Y-12850500D01*
X59059458Y-12850500D01*
X59240542Y-12850500D01*
X59240546Y-12850500D01*
X59419409Y-12822171D01*
X59591639Y-12766211D01*
X59752994Y-12683996D01*
X59899501Y-12577553D01*
X60027553Y-12449501D01*
X60133996Y-12302994D01*
X60216211Y-12141639D01*
X60272171Y-11969409D01*
X60300500Y-11790546D01*
X60300500Y-9609454D01*
X60272171Y-9430591D01*
X60216211Y-9258361D01*
X60133996Y-9097006D01*
X60133991Y-9097000D01*
X60133990Y-9096997D01*
X60078956Y-9021248D01*
X60051316Y-8949243D01*
X60050500Y-8933669D01*
X60050500Y-6111308D01*
X60015894Y-5937336D01*
X60015893Y-5937332D01*
X59948013Y-5773453D01*
X59948012Y-5773451D01*
X59849466Y-5625968D01*
X59849462Y-5625963D01*
X59724036Y-5500537D01*
X59724028Y-5500531D01*
X59693404Y-5480068D01*
X59642550Y-5422080D01*
X59627504Y-5346434D01*
X59652297Y-5273399D01*
X59685476Y-5237973D01*
X59887928Y-5082628D01*
X60082628Y-4887928D01*
X60250249Y-4669479D01*
X60387923Y-4431021D01*
X60493295Y-4176632D01*
X60564560Y-3910666D01*
X60600500Y-3637674D01*
X60600500Y-3362326D01*
X60564560Y-3089334D01*
X60493296Y-2823370D01*
X60493296Y-2823369D01*
X60427255Y-2663934D01*
X60387923Y-2568979D01*
X60250249Y-2330521D01*
X60082628Y-2112072D01*
X59887928Y-1917372D01*
X59669479Y-1749751D01*
X59431021Y-1612077D01*
X59398527Y-1598617D01*
X59176630Y-1506703D01*
X58910667Y-1435440D01*
X58910650Y-1435437D01*
X58637679Y-1399500D01*
X58637674Y-1399500D01*
X58362326Y-1399500D01*
X58362320Y-1399500D01*
X58089349Y-1435437D01*
X58089332Y-1435440D01*
X57823370Y-1506703D01*
X57823369Y-1506703D01*
X57568976Y-1612078D01*
X57330522Y-1749750D01*
X57112070Y-1917373D01*
X56917373Y-2112070D01*
X56749750Y-2330522D01*
X56612078Y-2568976D01*
X56506703Y-2823369D01*
X56506703Y-2823370D01*
X56435440Y-3089332D01*
X56435437Y-3089349D01*
X56399500Y-3362320D01*
X56399500Y-3637679D01*
X56435437Y-3910650D01*
X56435440Y-3910667D01*
X56506703Y-4176629D01*
X56506703Y-4176630D01*
X56572745Y-4336066D01*
X56612077Y-4431021D01*
X56749751Y-4669479D01*
X56917372Y-4887928D01*
X56917373Y-4887929D01*
X57074585Y-5045141D01*
X57113149Y-5111936D01*
X57113149Y-5189064D01*
X57074585Y-5255859D01*
X57007790Y-5294423D01*
X56969226Y-5299500D01*
X45411309Y-5299500D01*
X45237336Y-5334105D01*
X45237332Y-5334106D01*
X45073453Y-5401986D01*
X45073451Y-5401987D01*
X44925968Y-5500533D01*
X44925963Y-5500537D01*
X44870642Y-5555859D01*
X44803847Y-5594423D01*
X44765283Y-5599500D01*
X44279057Y-5599500D01*
X44120943Y-5599500D01*
X43968216Y-5640423D01*
X43968214Y-5640423D01*
X43968214Y-5640424D01*
X43831283Y-5719480D01*
X43719480Y-5831283D01*
X43640424Y-5968214D01*
X43599500Y-6120941D01*
X43599500Y-7250500D01*
X43579538Y-7325000D01*
X43525000Y-7379538D01*
X43450500Y-7399500D01*
X39108259Y-7399500D01*
X39033759Y-7379538D01*
X38987713Y-7338077D01*
X38983051Y-7331660D01*
X38983050Y-7331658D01*
X38893342Y-7241950D01*
X38780305Y-7184354D01*
X38764673Y-7181878D01*
X38686519Y-7169500D01*
X38686514Y-7169500D01*
X37813481Y-7169500D01*
X37719695Y-7184354D01*
X37719693Y-7184355D01*
X37606657Y-7241950D01*
X37605359Y-7243249D01*
X37602977Y-7244623D01*
X37597169Y-7248844D01*
X37596725Y-7248233D01*
X37538564Y-7281813D01*
X37461436Y-7281813D01*
X37403274Y-7248233D01*
X37402831Y-7248844D01*
X37397022Y-7244623D01*
X37394641Y-7243249D01*
X37393342Y-7241950D01*
X37280305Y-7184354D01*
X37264673Y-7181878D01*
X37186519Y-7169500D01*
X37186514Y-7169500D01*
X36313481Y-7169500D01*
X36219695Y-7184354D01*
X36219693Y-7184355D01*
X36106657Y-7241950D01*
X36016951Y-7331656D01*
X36012287Y-7338077D01*
X35988177Y-7357601D01*
X35966241Y-7379538D01*
X35958542Y-7381600D01*
X35952348Y-7386617D01*
X35891741Y-7399500D01*
X35807065Y-7399500D01*
X35736826Y-7381906D01*
X35731805Y-7379222D01*
X35604329Y-7326420D01*
X35604325Y-7326419D01*
X35468993Y-7299500D01*
X35331007Y-7299500D01*
X35195674Y-7326419D01*
X35195670Y-7326420D01*
X35068194Y-7379222D01*
X35063174Y-7381906D01*
X34992935Y-7399500D01*
X34479057Y-7399500D01*
X34320943Y-7399500D01*
X34168216Y-7440423D01*
X34168214Y-7440423D01*
X34168214Y-7440424D01*
X34031283Y-7519480D01*
X33919480Y-7631283D01*
X33845614Y-7759224D01*
X33840423Y-7768216D01*
X33822292Y-7835883D01*
X33799500Y-7920941D01*
X28490499Y-7920941D01*
X28490499Y-7498482D01*
X28475646Y-7404696D01*
X28418050Y-7291658D01*
X28328342Y-7201950D01*
X28264656Y-7169500D01*
X28215305Y-7144354D01*
X28199673Y-7141878D01*
X28121519Y-7129500D01*
X28121514Y-7129500D01*
X26358481Y-7129500D01*
X26264695Y-7144354D01*
X26264693Y-7144355D01*
X26151657Y-7201950D01*
X26061950Y-7291657D01*
X26004354Y-7404694D01*
X26004354Y-7404696D01*
X25989500Y-7498481D01*
X25989500Y-7498482D01*
X25989500Y-7498485D01*
X25989500Y-9261518D01*
X25995580Y-9299904D01*
X26004354Y-9355304D01*
X26061950Y-9468342D01*
X26151658Y-9558050D01*
X26264696Y-9615646D01*
X26358481Y-9630500D01*
X26429641Y-9630499D01*
X26504138Y-9650460D01*
X26558677Y-9704997D01*
X26578640Y-9779497D01*
X26558679Y-9853997D01*
X26550956Y-9862574D01*
X26549874Y-9876319D01*
X27069756Y-10396202D01*
X27027703Y-10407470D01*
X26902285Y-10479881D01*
X26799881Y-10582285D01*
X26727470Y-10707703D01*
X26716202Y-10749756D01*
X26196319Y-10229874D01*
X26170902Y-10264859D01*
X26170901Y-10264860D01*
X26081585Y-10440155D01*
X26081578Y-10440173D01*
X26020779Y-10627291D01*
X25990000Y-10821627D01*
X25990000Y-11018372D01*
X26020779Y-11212708D01*
X26081578Y-11399826D01*
X26081585Y-11399843D01*
X26170905Y-11575145D01*
X26196320Y-11610124D01*
X26716201Y-11090242D01*
X26727470Y-11132297D01*
X26799881Y-11257715D01*
X26902285Y-11360119D01*
X27027703Y-11432530D01*
X27069755Y-11443797D01*
X26549874Y-11963678D01*
X26584862Y-11989098D01*
X26718046Y-12056959D01*
X26775364Y-12108568D01*
X26799198Y-12181921D01*
X26783162Y-12257363D01*
X26731553Y-12314681D01*
X26718047Y-12322479D01*
X26584593Y-12390477D01*
X26425363Y-12506165D01*
X26425352Y-12506174D01*
X26286174Y-12645352D01*
X26286165Y-12645363D01*
X26170477Y-12804593D01*
X26170474Y-12804598D01*
X26081121Y-12979963D01*
X26081117Y-12979972D01*
X26081116Y-12979975D01*
X26020291Y-13167174D01*
X25989500Y-13361583D01*
X25989500Y-13558417D01*
X26020291Y-13752826D01*
X26081116Y-13940025D01*
X26081119Y-13940030D01*
X26081121Y-13940036D01*
X26135387Y-14046538D01*
X26170476Y-14115405D01*
X26286172Y-14274646D01*
X26425354Y-14413828D01*
X26584595Y-14529524D01*
X26652744Y-14564247D01*
X26717495Y-14597240D01*
X26774813Y-14648849D01*
X26798647Y-14722202D01*
X26782611Y-14797644D01*
X26731002Y-14854962D01*
X26717495Y-14862760D01*
X26584598Y-14930474D01*
X26584593Y-14930477D01*
X26425363Y-15046165D01*
X26425352Y-15046174D01*
X26286174Y-15185352D01*
X26286165Y-15185363D01*
X26170477Y-15344593D01*
X26170474Y-15344598D01*
X26081121Y-15519963D01*
X26081117Y-15519972D01*
X26081116Y-15519975D01*
X26020291Y-15707174D01*
X25989500Y-15901583D01*
X25989500Y-16098417D01*
X26020291Y-16292826D01*
X26081116Y-16480025D01*
X26081119Y-16480030D01*
X26081121Y-16480036D01*
X26101219Y-16519480D01*
X26170476Y-16655405D01*
X26286172Y-16814646D01*
X26425354Y-16953828D01*
X26584595Y-17069524D01*
X26652744Y-17104247D01*
X26717495Y-17137240D01*
X26774813Y-17188849D01*
X26798647Y-17262202D01*
X26782611Y-17337644D01*
X26731002Y-17394962D01*
X26717495Y-17402760D01*
X26584598Y-17470474D01*
X26584593Y-17470477D01*
X26425363Y-17586165D01*
X26425352Y-17586174D01*
X26286174Y-17725352D01*
X26286165Y-17725363D01*
X26170477Y-17884593D01*
X26170474Y-17884598D01*
X26081121Y-18059963D01*
X26081117Y-18059972D01*
X26081116Y-18059975D01*
X26020291Y-18247174D01*
X25989500Y-18441583D01*
X25989500Y-18638417D01*
X26020291Y-18832826D01*
X26081116Y-19020025D01*
X26081119Y-19020030D01*
X26081121Y-19020036D01*
X26157277Y-19169500D01*
X26170476Y-19195405D01*
X26286172Y-19354646D01*
X26425354Y-19493828D01*
X26584595Y-19609524D01*
X26627300Y-19631283D01*
X26717495Y-19677240D01*
X26774813Y-19728849D01*
X26798647Y-19802202D01*
X26782611Y-19877644D01*
X26731002Y-19934962D01*
X26717495Y-19942760D01*
X26584598Y-20010474D01*
X26584593Y-20010477D01*
X26425363Y-20126165D01*
X26425352Y-20126174D01*
X26286174Y-20265352D01*
X26286165Y-20265363D01*
X26170477Y-20424593D01*
X26170474Y-20424598D01*
X26081121Y-20599963D01*
X26081117Y-20599972D01*
X26081116Y-20599975D01*
X26020291Y-20787174D01*
X25989500Y-20981583D01*
X25989500Y-21178417D01*
X26020291Y-21372826D01*
X26081116Y-21560025D01*
X26081119Y-21560030D01*
X26081121Y-21560036D01*
X26121020Y-21638342D01*
X26170476Y-21735405D01*
X26286172Y-21894646D01*
X26425354Y-22033828D01*
X26584595Y-22149524D01*
X26624185Y-22169696D01*
X26717495Y-22217240D01*
X26774813Y-22268849D01*
X26798647Y-22342202D01*
X26782611Y-22417644D01*
X26731002Y-22474962D01*
X26717495Y-22482760D01*
X26584598Y-22550474D01*
X26584593Y-22550477D01*
X26425363Y-22666165D01*
X26425352Y-22666174D01*
X26286174Y-22805352D01*
X26286165Y-22805363D01*
X26170477Y-22964593D01*
X26170474Y-22964598D01*
X26081121Y-23139963D01*
X26081117Y-23139972D01*
X26081116Y-23139975D01*
X26020291Y-23327174D01*
X25989500Y-23521583D01*
X25989500Y-23718417D01*
X26020291Y-23912826D01*
X26081116Y-24100025D01*
X26081120Y-24100034D01*
X26081121Y-24100035D01*
X26123320Y-24182856D01*
X26139356Y-24258298D01*
X26115522Y-24331651D01*
X26058204Y-24383260D01*
X25990560Y-24399500D01*
X13249440Y-24399500D01*
X13174940Y-24379538D01*
X13120402Y-24325000D01*
X13100440Y-24250500D01*
X13116680Y-24182856D01*
X13125283Y-24165969D01*
X13158884Y-24100025D01*
X13219709Y-23912826D01*
X13250500Y-23718417D01*
X13250500Y-23521583D01*
X13219709Y-23327174D01*
X13158884Y-23139975D01*
X13069524Y-22964595D01*
X12953828Y-22805354D01*
X12814646Y-22666172D01*
X12655405Y-22550476D01*
X12522503Y-22482759D01*
X12465186Y-22431152D01*
X12441352Y-22357799D01*
X12457388Y-22282356D01*
X12508996Y-22225038D01*
X12522504Y-22217240D01*
X12555358Y-22200500D01*
X12655405Y-22149524D01*
X12814646Y-22033828D01*
X12953828Y-21894646D01*
X13069524Y-21735405D01*
X13158884Y-21560025D01*
X13219709Y-21372826D01*
X13250500Y-21178417D01*
X13250500Y-20981583D01*
X13219709Y-20787174D01*
X13158884Y-20599975D01*
X13069524Y-20424595D01*
X12953828Y-20265354D01*
X12814646Y-20126172D01*
X12655405Y-20010476D01*
X12522503Y-19942759D01*
X12465186Y-19891152D01*
X12441352Y-19817799D01*
X12457388Y-19742356D01*
X12508996Y-19685038D01*
X12522504Y-19677240D01*
X12655405Y-19609524D01*
X12814646Y-19493828D01*
X12953828Y-19354646D01*
X13069524Y-19195405D01*
X13158884Y-19020025D01*
X13219709Y-18832826D01*
X13250500Y-18638417D01*
X13250500Y-18441583D01*
X13219709Y-18247174D01*
X13158884Y-18059975D01*
X13069524Y-17884595D01*
X12953828Y-17725354D01*
X12814646Y-17586172D01*
X12655405Y-17470476D01*
X12522503Y-17402759D01*
X12465186Y-17351152D01*
X12441352Y-17277799D01*
X12457388Y-17202356D01*
X12508996Y-17145038D01*
X12522504Y-17137240D01*
X12655405Y-17069524D01*
X12814646Y-16953828D01*
X12953828Y-16814646D01*
X13069524Y-16655405D01*
X13158884Y-16480025D01*
X13219709Y-16292826D01*
X13250500Y-16098417D01*
X13250500Y-15901583D01*
X13219709Y-15707174D01*
X13158884Y-15519975D01*
X13069524Y-15344595D01*
X12953828Y-15185354D01*
X12814646Y-15046172D01*
X12655405Y-14930476D01*
X12522503Y-14862759D01*
X12465186Y-14811152D01*
X12441352Y-14737799D01*
X12457388Y-14662356D01*
X12508996Y-14605038D01*
X12522504Y-14597240D01*
X12655405Y-14529524D01*
X12814646Y-14413828D01*
X12953828Y-14274646D01*
X13069524Y-14115405D01*
X13158884Y-13940025D01*
X13219709Y-13752826D01*
X13250500Y-13558417D01*
X13250500Y-13361583D01*
X13219709Y-13167174D01*
X13158884Y-12979975D01*
X13069524Y-12804595D01*
X12953828Y-12645354D01*
X12814646Y-12506172D01*
X12655405Y-12390476D01*
X12522503Y-12322759D01*
X12465186Y-12271152D01*
X12441352Y-12197799D01*
X12457388Y-12122356D01*
X12508996Y-12065038D01*
X12522504Y-12057240D01*
X12655405Y-11989524D01*
X12814646Y-11873828D01*
X12953828Y-11734646D01*
X13069524Y-11575405D01*
X13158884Y-11400025D01*
X13219709Y-11212826D01*
X13250500Y-11018417D01*
X13250500Y-10821583D01*
X13219709Y-10627174D01*
X13158884Y-10439975D01*
X13069524Y-10264595D01*
X12953828Y-10105354D01*
X12814646Y-9966172D01*
X12723625Y-9900041D01*
X12675088Y-9840103D01*
X12663022Y-9763924D01*
X12690663Y-9691919D01*
X12750602Y-9643381D01*
X12811205Y-9630499D01*
X12881518Y-9630499D01*
X12881519Y-9630499D01*
X12894341Y-9628468D01*
X12975304Y-9615646D01*
X13088342Y-9558050D01*
X13178050Y-9468342D01*
X13235646Y-9355304D01*
X13250500Y-9261519D01*
X13250499Y-7498482D01*
X13235646Y-7404696D01*
X13178050Y-7291658D01*
X13088342Y-7201950D01*
X13024656Y-7169500D01*
X12975305Y-7144354D01*
X12959673Y-7141878D01*
X12881519Y-7129500D01*
X12881514Y-7129500D01*
X11118481Y-7129500D01*
X11024695Y-7144354D01*
X11024693Y-7144355D01*
X10911657Y-7201950D01*
X10821950Y-7291657D01*
X10764354Y-7404694D01*
X10764354Y-7404696D01*
X10749500Y-7498481D01*
X10749500Y-7498482D01*
X10749500Y-7498485D01*
X10749500Y-7630500D01*
X10729538Y-7705000D01*
X10675000Y-7759538D01*
X10600500Y-7779500D01*
X9807065Y-7779500D01*
X9736826Y-7761906D01*
X9731805Y-7759222D01*
X9604329Y-7706420D01*
X9604325Y-7706419D01*
X9468993Y-7679500D01*
X9331007Y-7679500D01*
X9195674Y-7706419D01*
X9195670Y-7706420D01*
X9068190Y-7759224D01*
X9068184Y-7759227D01*
X8953461Y-7835883D01*
X8953454Y-7835889D01*
X8855889Y-7933454D01*
X8855883Y-7933461D01*
X8779227Y-8048184D01*
X8779224Y-8048190D01*
X8726420Y-8175670D01*
X8726419Y-8175674D01*
X8699500Y-8311006D01*
X8699500Y-8448993D01*
X8726419Y-8584325D01*
X8726420Y-8584329D01*
X8779224Y-8711809D01*
X8779227Y-8711815D01*
X8854187Y-8824000D01*
X8855886Y-8826542D01*
X8953458Y-8924114D01*
X8953461Y-8924116D01*
X9068184Y-9000772D01*
X9068186Y-9000773D01*
X9068189Y-9000775D01*
X9195672Y-9053580D01*
X9331007Y-9080500D01*
X9468993Y-9080500D01*
X9604328Y-9053580D01*
X9731811Y-9000775D01*
X9731820Y-9000768D01*
X9736826Y-8998094D01*
X9807065Y-8980500D01*
X10600501Y-8980500D01*
X10675001Y-9000462D01*
X10729539Y-9055000D01*
X10749501Y-9129500D01*
X10749501Y-9261518D01*
X10764354Y-9355304D01*
X10821950Y-9468342D01*
X10911658Y-9558050D01*
X11024696Y-9615646D01*
X11118481Y-9630500D01*
X11188793Y-9630499D01*
X11263290Y-9650460D01*
X11317829Y-9704997D01*
X11337792Y-9779497D01*
X11317831Y-9853997D01*
X11276373Y-9900042D01*
X11185358Y-9966169D01*
X11185352Y-9966174D01*
X11046174Y-10105352D01*
X11046169Y-10105358D01*
X10935208Y-10258081D01*
X10875268Y-10306619D01*
X10814665Y-10319500D01*
X8407065Y-10319500D01*
X8336826Y-10301906D01*
X8331805Y-10299222D01*
X8204329Y-10246420D01*
X8204325Y-10246419D01*
X8068993Y-10219500D01*
X7931007Y-10219500D01*
X7795674Y-10246419D01*
X7795670Y-10246420D01*
X7668190Y-10299224D01*
X7668184Y-10299227D01*
X7553461Y-10375883D01*
X7553454Y-10375889D01*
X7455889Y-10473454D01*
X7455883Y-10473461D01*
X7379227Y-10588184D01*
X7379224Y-10588190D01*
X7326420Y-10715670D01*
X7326419Y-10715674D01*
X7299500Y-10851006D01*
X7299500Y-10988993D01*
X7326419Y-11124325D01*
X7326420Y-11124329D01*
X7379224Y-11251809D01*
X7379227Y-11251815D01*
X7411757Y-11300499D01*
X7455886Y-11366542D01*
X7553458Y-11464114D01*
X7553461Y-11464116D01*
X7668184Y-11540772D01*
X7668186Y-11540773D01*
X7668189Y-11540775D01*
X7795672Y-11593580D01*
X7931007Y-11620500D01*
X8068993Y-11620500D01*
X8204328Y-11593580D01*
X8331811Y-11540775D01*
X8331820Y-11540768D01*
X8336826Y-11538094D01*
X8407065Y-11520500D01*
X10814665Y-11520500D01*
X10889165Y-11540462D01*
X10935208Y-11581919D01*
X10994430Y-11663430D01*
X11046172Y-11734646D01*
X11185354Y-11873828D01*
X11344595Y-11989524D01*
X11378902Y-12007004D01*
X11477495Y-12057240D01*
X11534813Y-12108849D01*
X11558647Y-12182202D01*
X11542611Y-12257644D01*
X11491002Y-12314962D01*
X11477495Y-12322760D01*
X11344598Y-12390474D01*
X11344593Y-12390477D01*
X11185363Y-12506165D01*
X11185352Y-12506174D01*
X11046174Y-12645352D01*
X11046169Y-12645358D01*
X10935208Y-12798081D01*
X10875268Y-12846619D01*
X10814665Y-12859500D01*
X7007065Y-12859500D01*
X6936826Y-12841906D01*
X6931805Y-12839222D01*
X6804329Y-12786420D01*
X6804325Y-12786419D01*
X6668993Y-12759500D01*
X6531007Y-12759500D01*
X6395674Y-12786419D01*
X6395670Y-12786420D01*
X6268190Y-12839224D01*
X6268184Y-12839227D01*
X6153461Y-12915883D01*
X6153454Y-12915889D01*
X6055889Y-13013454D01*
X6055883Y-13013461D01*
X5979227Y-13128184D01*
X5979224Y-13128190D01*
X5926420Y-13255670D01*
X5926419Y-13255674D01*
X5899500Y-13391006D01*
X500500Y-13391006D01*
X500500Y-3362320D01*
X1399500Y-3362320D01*
X1399500Y-3637679D01*
X1435437Y-3910650D01*
X1435440Y-3910667D01*
X1506703Y-4176629D01*
X1506703Y-4176630D01*
X1572745Y-4336066D01*
X1612077Y-4431021D01*
X1749751Y-4669479D01*
X1917372Y-4887928D01*
X2112072Y-5082628D01*
X2330521Y-5250249D01*
X2568979Y-5387923D01*
X2712420Y-5447338D01*
X2823369Y-5493296D01*
X2986139Y-5536909D01*
X3089334Y-5564560D01*
X3362326Y-5600500D01*
X3637674Y-5600500D01*
X3910666Y-5564560D01*
X4120423Y-5508355D01*
X4176629Y-5493296D01*
X4176630Y-5493296D01*
X4209125Y-5479835D01*
X4431021Y-5387923D01*
X4669479Y-5250249D01*
X4887928Y-5082628D01*
X5082628Y-4887928D01*
X5250249Y-4669479D01*
X5387923Y-4431021D01*
X5493295Y-4176632D01*
X5564560Y-3910666D01*
X5600500Y-3637674D01*
X5600500Y-3362326D01*
X5564560Y-3089334D01*
X5493296Y-2823370D01*
X5493296Y-2823369D01*
X5427255Y-2663934D01*
X5387923Y-2568979D01*
X5250249Y-2330521D01*
X5082628Y-2112072D01*
X4887928Y-1917372D01*
X4669479Y-1749751D01*
X4431021Y-1612077D01*
X4398527Y-1598617D01*
X4176630Y-1506703D01*
X3910667Y-1435440D01*
X3910650Y-1435437D01*
X3637679Y-1399500D01*
X3637674Y-1399500D01*
X3362326Y-1399500D01*
X3362320Y-1399500D01*
X3089349Y-1435437D01*
X3089332Y-1435440D01*
X2823370Y-1506703D01*
X2823369Y-1506703D01*
X2568976Y-1612078D01*
X2330522Y-1749750D01*
X2112070Y-1917373D01*
X1917373Y-2112070D01*
X1749750Y-2330522D01*
X1612078Y-2568976D01*
X1506703Y-2823369D01*
X1506703Y-2823370D01*
X1435440Y-3089332D01*
X1435437Y-3089349D01*
X1399500Y-3362320D01*
X500500Y-3362320D01*
X500500Y-649500D01*
X520462Y-575000D01*
X575000Y-520462D01*
X649500Y-500500D01*
X61350500Y-500500D01*
X61425000Y-520462D01*
G37*
%TD.AperFunction*%
%TD*%
M02*
