%TF.GenerationSoftware,KiCad,Pcbnew,10.0.4*%
%TF.CreationDate,2026-07-19T10:20:52-07:00*%
%TF.ProjectId,filled,66696c6c-6564-42e6-9b69-6361645f7063,rev?*%
%TF.SameCoordinates,Original*%
%TF.FileFunction,Soldermask,Top*%
%TF.FilePolarity,Negative*%
%FSLAX46Y46*%
G04 Gerber Fmt 4.6, Leading zero omitted, Abs format (unit mm)*
G04 Created by KiCad (PCBNEW 10.0.4) date 2026-07-19 10:20:52*
%MOMM*%
%LPD*%
G01*
G04 APERTURE LIST*
G04 Aperture macros list*
%AMRoundRect*
0 Rectangle with rounded corners*
0 $1 Rounding radius*
0 $2 $3 $4 $5 $6 $7 $8 $9 X,Y pos of 4 corners*
0 Add a 4 corners polygon primitive as box body*
4,1,4,$2,$3,$4,$5,$6,$7,$8,$9,$2,$3,0*
0 Add four circle primitives for the rounded corners*
1,1,$1+$1,$2,$3*
1,1,$1+$1,$4,$5*
1,1,$1+$1,$6,$7*
1,1,$1+$1,$8,$9*
0 Add four rect primitives between the rounded corners*
20,1,$1+$1,$2,$3,$4,$5,0*
20,1,$1+$1,$4,$5,$6,$7,0*
20,1,$1+$1,$6,$7,$8,$9,0*
20,1,$1+$1,$8,$9,$2,$3,0*%
G04 Aperture macros list end*
%ADD10RoundRect,0.050000X-0.405000X-0.430000X0.405000X-0.430000X0.405000X0.430000X-0.405000X0.430000X0*%
%ADD11RoundRect,0.050000X-0.400000X-0.450000X0.400000X-0.450000X0.400000X0.450000X-0.400000X0.450000X0*%
%ADD12RoundRect,0.050000X0.500000X0.400000X-0.500000X0.400000X-0.500000X-0.400000X0.500000X-0.400000X0*%
%ADD13C,1.900000*%
%ADD14RoundRect,0.050000X-0.850000X0.785000X-0.850000X-0.785000X0.850000X-0.785000X0.850000X0.785000X0*%
%ADD15C,1.800000*%
%ADD16C,3.300000*%
%ADD17RoundRect,0.050000X-0.785000X-0.850000X0.785000X-0.850000X0.785000X0.850000X-0.785000X0.850000X0*%
%ADD18RoundRect,0.050000X-0.675000X0.705000X-0.675000X-0.705000X0.675000X-0.705000X0.675000X0.705000X0*%
%ADD19RoundRect,0.050000X-0.705000X-0.675000X0.705000X-0.675000X0.705000X0.675000X-0.705000X0.675000X0*%
%ADD20RoundRect,0.050000X-0.550000X-0.300000X0.550000X-0.300000X0.550000X0.300000X-0.550000X0.300000X0*%
%ADD21RoundRect,0.050000X-0.450000X0.400000X-0.450000X-0.400000X0.450000X-0.400000X0.450000X0.400000X0*%
%ADD22RoundRect,0.050000X-1.060000X-2.110000X1.060000X-2.110000X1.060000X2.110000X-1.060000X2.110000X0*%
%ADD23RoundRect,0.050000X-0.430000X0.405000X-0.430000X-0.405000X0.430000X-0.405000X0.430000X0.405000X0*%
%ADD24O,1.700000X3.200000*%
%ADD25O,3.200000X1.700000*%
%ADD26C,1.650000*%
%ADD27RoundRect,0.050000X-0.600000X-0.475000X0.600000X-0.475000X0.600000X0.475000X-0.600000X0.475000X0*%
%ADD28RoundRect,0.050000X0.400000X-0.400000X0.400000X0.400000X-0.400000X0.400000X-0.400000X-0.400000X0*%
%ADD29RoundRect,0.050000X0.450000X-0.400000X0.450000X0.400000X-0.450000X0.400000X-0.450000X-0.400000X0*%
%ADD30RoundRect,0.050000X-2.250000X-0.825000X2.250000X-0.825000X2.250000X0.825000X-2.250000X0.825000X0*%
G04 APERTURE END LIST*
D10*
%TO.C,R8*%
X18250000Y-30000000D03*
X19750000Y-30000000D03*
%TD*%
D11*
%TO.C,C5*%
X45300000Y-27200000D03*
X46700000Y-27200000D03*
%TD*%
D12*
%TO.C,Q1*%
X43150000Y-11450000D03*
X43150000Y-9550000D03*
X40850000Y-10500000D03*
%TD*%
D13*
%TO.C,J2*%
X33750000Y-68000000D03*
X31250000Y-68000000D03*
X28750000Y-68000000D03*
X26250000Y-68000000D03*
%TD*%
D10*
%TO.C,R7*%
X54250000Y-18000000D03*
X55750000Y-18000000D03*
%TD*%
D14*
%TO.C,J6*%
X12000000Y-8380000D03*
D15*
X12000000Y-10920000D03*
X12000000Y-13460000D03*
X12000000Y-16000000D03*
X12000000Y-18540000D03*
X12000000Y-21080000D03*
X12000000Y-23620000D03*
%TD*%
D16*
%TO.C,*%
X58500000Y-72500000D03*
%TD*%
D17*
%TO.C,J4*%
X22110000Y-57240000D03*
D15*
X24650000Y-57240000D03*
X27190000Y-57240000D03*
X29730000Y-57240000D03*
X32270000Y-57240000D03*
X34810000Y-57240000D03*
X37350000Y-57240000D03*
X39890000Y-57240000D03*
%TD*%
D18*
%TO.C,C2*%
X51200000Y-23000000D03*
X51200000Y-25000000D03*
%TD*%
D19*
%TO.C,C4*%
X52500000Y-34500000D03*
X54500000Y-34500000D03*
%TD*%
%TO.C,C3*%
X47500000Y-34500000D03*
X49500000Y-34500000D03*
%TD*%
D20*
%TO.C,U1*%
X47350000Y-24950000D03*
X47350000Y-24000000D03*
X47350000Y-23050000D03*
X44650000Y-23050000D03*
X44650000Y-24000000D03*
X44650000Y-24950000D03*
%TD*%
D16*
%TO.C,*%
X58500000Y-3500000D03*
%TD*%
D21*
%TO.C,C9*%
X42300000Y-19900000D03*
X42300000Y-21300000D03*
%TD*%
D10*
%TO.C,R1*%
X38050000Y-20000000D03*
X39550000Y-20000000D03*
%TD*%
%TO.C,R5*%
X36750000Y-8000000D03*
X38250000Y-8000000D03*
%TD*%
D22*
%TO.C,L1*%
X55500000Y-29500000D03*
X51500000Y-29500000D03*
%TD*%
D19*
%TO.C,C8*%
X43000000Y-34500000D03*
X45000000Y-34500000D03*
%TD*%
D23*
%TO.C,R3*%
X44650000Y-19850000D03*
X44650000Y-21350000D03*
%TD*%
D14*
%TO.C,J7*%
X27240000Y-8380000D03*
D15*
X27240000Y-10920000D03*
X27240000Y-13460000D03*
X27240000Y-16000000D03*
X27240000Y-18540000D03*
X27240000Y-21080000D03*
X27240000Y-23620000D03*
%TD*%
D24*
%TO.C,J3*%
X59330000Y-10650000D03*
X52670000Y-10650000D03*
D25*
X56770000Y-15350000D03*
%TD*%
D10*
%TO.C,R9*%
X15750000Y-63000000D03*
X17250000Y-63000000D03*
%TD*%
%TO.C,R6*%
X36750000Y-12600000D03*
X38250000Y-12600000D03*
%TD*%
D16*
%TO.C,*%
X3500000Y-3500000D03*
%TD*%
%TO.C,*%
X3500000Y-72500000D03*
%TD*%
D26*
%TO.C,J1*%
X8500000Y-66500000D03*
X11000000Y-66500000D03*
X13500000Y-66500000D03*
%TD*%
D27*
%TO.C,D2*%
X28800000Y-6400000D03*
X32200000Y-6400000D03*
%TD*%
D28*
%TO.C,D1*%
X54250000Y-21000000D03*
X55750000Y-21000000D03*
%TD*%
D29*
%TO.C,C10*%
X39890000Y-54700000D03*
X39890000Y-53300000D03*
%TD*%
D17*
%TO.C,J5*%
X22110000Y-44540000D03*
D15*
X24650000Y-44540000D03*
X27190000Y-44540000D03*
X29730000Y-44540000D03*
X32270000Y-44540000D03*
X34810000Y-44540000D03*
X37350000Y-44540000D03*
X39890000Y-44540000D03*
%TD*%
D10*
%TO.C,R4*%
X46450000Y-21350000D03*
X47950000Y-21350000D03*
%TD*%
D11*
%TO.C,C1*%
X57300000Y-34500000D03*
X58700000Y-34500000D03*
%TD*%
D30*
%TO.C,C6*%
X45500000Y-57240000D03*
X54500000Y-57240000D03*
%TD*%
D19*
%TO.C,C7*%
X39500000Y-62000000D03*
X41500000Y-62000000D03*
%TD*%
M02*
