%TF.GenerationSoftware,KiCad,Pcbnew,10.0.4*%
%TF.CreationDate,2026-07-19T09:17:58-07:00*%
%TF.ProjectId,filled,66696c6c-6564-42e6-9b69-6361645f7063,rev?*%
%TF.SameCoordinates,Original*%
%TF.FileFunction,Soldermask,Bot*%
%TF.FilePolarity,Negative*%
%FSLAX46Y46*%
G04 Gerber Fmt 4.6, Leading zero omitted, Abs format (unit mm)*
G04 Created by KiCad (PCBNEW 10.0.4) date 2026-07-19 09:17:58*
%MOMM*%
%LPD*%
G01*
G04 APERTURE LIST*
%ADD10C,1.800000*%
%ADD11R,1.700000X1.700000*%
%ADD12C,1.700000*%
%ADD13R,1.500000X1.500000*%
%ADD14C,1.500000*%
%ADD15O,3.500000X1.300000*%
%ADD16O,1.500000X3.500000*%
%ADD17C,1.550000*%
G04 APERTURE END LIST*
D10*
%TO.C,J2*%
X33750000Y-68000000D03*
X31250000Y-68000000D03*
X28750000Y-68000000D03*
X26250000Y-68000000D03*
%TD*%
D11*
%TO.C,J6*%
X12000000Y-8380000D03*
D12*
X12000000Y-10920000D03*
X12000000Y-13460000D03*
X12000000Y-16000000D03*
X12000000Y-18540000D03*
X12000000Y-21080000D03*
X12000000Y-23620000D03*
%TD*%
D13*
%TO.C,J4*%
X22110000Y-57240000D03*
D14*
X24650000Y-57240000D03*
X27190000Y-57240000D03*
X29730000Y-57240000D03*
X32270000Y-57240000D03*
X34810000Y-57240000D03*
X37350000Y-57240000D03*
X39890000Y-57240000D03*
%TD*%
D15*
%TO.C,J3*%
X56150000Y-15300000D03*
D16*
X52850000Y-10700000D03*
X59150000Y-10700000D03*
%TD*%
D11*
%TO.C,J7*%
X27240000Y-8380000D03*
D12*
X27240000Y-10920000D03*
X27240000Y-13460000D03*
X27240000Y-16000000D03*
X27240000Y-18540000D03*
X27240000Y-21080000D03*
X27240000Y-23620000D03*
%TD*%
D17*
%TO.C,J1*%
X8500000Y-66500000D03*
X11000000Y-66500000D03*
X13500000Y-66500000D03*
%TD*%
D13*
%TO.C,J5*%
X22110000Y-42000000D03*
D14*
X24650000Y-42000000D03*
X27190000Y-42000000D03*
X29730000Y-42000000D03*
X32270000Y-42000000D03*
X34810000Y-42000000D03*
X37350000Y-42000000D03*
X39890000Y-42000000D03*
%TD*%
M02*
