%TF.GenerationSoftware,KiCad,Pcbnew,10.0.4*%
%TF.CreationDate,2026-07-19T09:17:58-07:00*%
%TF.ProjectId,filled,66696c6c-6564-42e6-9b69-6361645f7063,rev?*%
%TF.SameCoordinates,Original*%
%TF.FileFunction,Copper,L2,Bot*%
%TF.FilePolarity,Positive*%
%FSLAX46Y46*%
G04 Gerber Fmt 4.6, Leading zero omitted, Abs format (unit mm)*
G04 Created by KiCad (PCBNEW 10.0.4) date 2026-07-19 09:17:58*
%MOMM*%
%LPD*%
G01*
G04 APERTURE LIST*
%TA.AperFunction,ComponentPad*%
%ADD10C,1.800000*%
%TD*%
%TA.AperFunction,ComponentPad*%
%ADD11R,1.700000X1.700000*%
%TD*%
%TA.AperFunction,ComponentPad*%
%ADD12C,1.700000*%
%TD*%
%TA.AperFunction,ComponentPad*%
%ADD13R,1.500000X1.500000*%
%TD*%
%TA.AperFunction,ComponentPad*%
%ADD14C,1.500000*%
%TD*%
%TA.AperFunction,ComponentPad*%
%ADD15O,3.500000X1.300000*%
%TD*%
%TA.AperFunction,ComponentPad*%
%ADD16O,1.500000X3.500000*%
%TD*%
%TA.AperFunction,ComponentPad*%
%ADD17C,1.550000*%
%TD*%
%TA.AperFunction,ViaPad*%
%ADD18C,0.600000*%
%TD*%
%TA.AperFunction,Conductor*%
%ADD19C,0.800000*%
%TD*%
%TA.AperFunction,Conductor*%
%ADD20C,1.000000*%
%TD*%
%TA.AperFunction,Conductor*%
%ADD21C,0.400000*%
%TD*%
G04 APERTURE END LIST*
D10*
%TO.P,J2,1*%
%TO.N,m1a*%
X33750000Y-68000000D03*
%TO.P,J2,2*%
%TO.N,m1b*%
X31250000Y-68000000D03*
%TO.P,J2,3*%
%TO.N,m2a*%
X28750000Y-68000000D03*
%TO.P,J2,4*%
%TO.N,m2b*%
X26250000Y-68000000D03*
%TD*%
D11*
%TO.P,J6,1*%
%TO.N,step*%
X12000000Y-8380000D03*
D12*
%TO.P,J6,2*%
%TO.N,dir*%
X12000000Y-10920000D03*
%TO.P,J6,3*%
%TO.N,en_n*%
X12000000Y-13460000D03*
%TO.P,J6,4*%
%TO.N,xiao_left-4*%
X12000000Y-16000000D03*
%TO.P,J6,5*%
%TO.N,5*%
X12000000Y-18540000D03*
%TO.P,J6,6*%
%TO.N,6*%
X12000000Y-21080000D03*
%TO.P,J6,7*%
%TO.N,1-3*%
X12000000Y-23620000D03*
%TD*%
D13*
%TO.P,J4,1*%
%TO.N,2*%
X22110000Y-57240000D03*
D14*
%TO.P,J4,2*%
%TO.N,p3v3*%
X24650000Y-57240000D03*
%TO.P,J4,3*%
%TO.N,m1b*%
X27190000Y-57240000D03*
%TO.P,J4,4*%
%TO.N,m1a*%
X29730000Y-57240000D03*
%TO.P,J4,5*%
%TO.N,m2a*%
X32270000Y-57240000D03*
%TO.P,J4,6*%
%TO.N,m2b*%
X34810000Y-57240000D03*
%TO.P,J4,7*%
%TO.N,2*%
X37350000Y-57240000D03*
%TO.P,J4,8*%
%TO.N,1-1*%
X39890000Y-57240000D03*
%TD*%
D15*
%TO.P,J3,2*%
%TO.N,2*%
X56150000Y-15300000D03*
D16*
%TO.P,J3,3*%
X52850000Y-10700000D03*
%TO.P,J3,4*%
%TO.N,v12_raw*%
X59150000Y-10700000D03*
%TD*%
D11*
%TO.P,J7,1*%
%TO.N,1*%
X27240000Y-8380000D03*
D12*
%TO.P,J7,2*%
%TO.N,2*%
X27240000Y-10920000D03*
%TO.P,J7,3*%
%TO.N,p3v3*%
X27240000Y-13460000D03*
%TO.P,J7,4*%
%TO.N,xiao_right-4*%
X27240000Y-16000000D03*
%TO.P,J7,5*%
%TO.N,xiao_right-5*%
X27240000Y-18540000D03*
%TO.P,J7,6*%
%TO.N,hall_do*%
X27240000Y-21080000D03*
%TO.P,J7,7*%
%TO.N,7*%
X27240000Y-23620000D03*
%TD*%
D17*
%TO.P,J1,1*%
%TO.N,1*%
X8500000Y-66500000D03*
%TO.P,J1,2*%
%TO.N,2*%
X11000000Y-66500000D03*
%TO.P,J1,3*%
%TO.N,hall_do*%
X13500000Y-66500000D03*
%TD*%
D13*
%TO.P,J5,1*%
%TO.N,dir*%
X22110000Y-42000000D03*
D14*
%TO.P,J5,2*%
%TO.N,step*%
X24650000Y-42000000D03*
%TO.P,J5,3*%
%TO.N,pdn*%
X27190000Y-42000000D03*
%TO.P,J5,4*%
%TO.N,4*%
X29730000Y-42000000D03*
%TO.P,J5,5*%
%TO.N,2*%
X32270000Y-42000000D03*
%TO.P,J5,6*%
X34810000Y-42000000D03*
%TO.P,J5,7*%
X37350000Y-42000000D03*
%TO.P,J5,8*%
%TO.N,en_n*%
X39890000Y-42000000D03*
%TD*%
D18*
%TO.N,2*%
X44000000Y-72000000D03*
X52000000Y-20000000D03*
X17500000Y-20000000D03*
X7000000Y-50000000D03*
X20000000Y-72000000D03*
X36000000Y-50000000D03*
X52000000Y-45000000D03*
X36000000Y-20000000D03*
%TO.N,1*%
X40000000Y-31000000D03*
%TO.N,1-1*%
X45500000Y-54000000D03*
X50500000Y-21000000D03*
X37000000Y-18600000D03*
X41600000Y-16600000D03*
X44600000Y-59900000D03*
%TO.N,vfb*%
X43000000Y-30000000D03*
X43000000Y-23050000D03*
%TO.N,1-2*%
X35400000Y-8000000D03*
X44600000Y-13600000D03*
%TO.N,dir*%
X8000000Y-10920000D03*
X22110000Y-37400000D03*
%TO.N,step*%
X24650000Y-36000000D03*
X9400000Y-8380000D03*
%TO.N,en_n*%
X6600000Y-13460000D03*
%TO.N,1-3*%
X18250000Y-27600000D03*
%TD*%
%TO.N,1*%
D19*
X34000000Y-6400000D02*
X27240000Y-6400000D01*
X40000000Y-31000000D02*
X40000000Y-29000000D01*
X4500000Y-66500000D02*
X4500000Y-6400000D01*
X27240000Y-6400000D02*
X27240000Y-8380000D01*
X4500000Y-6400000D02*
X34000000Y-6400000D01*
X8500000Y-66500000D02*
X4500000Y-66500000D01*
X34000000Y-29000000D02*
X34000000Y-6400000D01*
X40000000Y-29000000D02*
X34000000Y-29000000D01*
%TO.N,m2a*%
D20*
X28670000Y-65000000D02*
X28670000Y-68000000D01*
X32270000Y-62000000D02*
X28670000Y-65000000D01*
X32270000Y-57240000D02*
X32270000Y-62000000D01*
%TO.N,1-1*%
X41600000Y-16600000D02*
X45500000Y-17500000D01*
D21*
X37000000Y-18600000D02*
X45500000Y-18600000D01*
D20*
X45500000Y-57240000D02*
X39890000Y-57240000D01*
D19*
X44600000Y-59900000D02*
X45500000Y-59000000D01*
D20*
X45500000Y-17500000D02*
X45500000Y-57240000D01*
D19*
X50500000Y-21000000D02*
X45500000Y-21000000D01*
X45500000Y-59000000D02*
X45500000Y-57240000D01*
%TO.N,vfb*%
D21*
X43000000Y-23050000D02*
X43000000Y-30000000D01*
%TO.N,1-2*%
X35400000Y-8000000D02*
X35400000Y-13600000D01*
X35400000Y-13600000D02*
X44600000Y-13600000D01*
%TO.N,m2b*%
D20*
X26130000Y-70500000D02*
X26130000Y-68000000D01*
X37500000Y-60000000D02*
X37500000Y-70500000D01*
X34810000Y-57240000D02*
X37500000Y-60000000D01*
X37500000Y-70500000D02*
X26130000Y-70500000D01*
%TO.N,dir*%
D21*
X8000000Y-37400000D02*
X22110000Y-37400000D01*
X8000000Y-10920000D02*
X8000000Y-37400000D01*
%TO.N,step*%
X9400000Y-8380000D02*
X9400000Y-36000000D01*
X9400000Y-36000000D02*
X24650000Y-36000000D01*
%TO.N,en_n*%
X39890000Y-39000000D02*
X39890000Y-42000000D01*
X6600000Y-39000000D02*
X39890000Y-39000000D01*
X6600000Y-13460000D02*
X6600000Y-39000000D01*
%TO.N,1-3*%
X12000000Y-23620000D02*
X12000000Y-27600000D01*
X12000000Y-27600000D02*
X18250000Y-27600000D01*
%TD*%
%TA.AperFunction,Conductor*%
%TO.N,2*%
G36*
X61425000Y-520462D02*
G01*
X61479538Y-575000D01*
X61499500Y-649500D01*
X61499500Y-75350500D01*
X61479538Y-75425000D01*
X61425000Y-75479538D01*
X61350500Y-75499500D01*
X649500Y-75499500D01*
X575000Y-75479538D01*
X520462Y-75425000D01*
X500500Y-75350500D01*
X500500Y-72362320D01*
X1399500Y-72362320D01*
X1399500Y-72637679D01*
X1435437Y-72910650D01*
X1435440Y-72910667D01*
X1506703Y-73176629D01*
X1506703Y-73176630D01*
X1572745Y-73336066D01*
X1612077Y-73431021D01*
X1749751Y-73669479D01*
X1917372Y-73887928D01*
X2112072Y-74082628D01*
X2330521Y-74250249D01*
X2568979Y-74387923D01*
X2712420Y-74447338D01*
X2823369Y-74493296D01*
X2986139Y-74536909D01*
X3089334Y-74564560D01*
X3362326Y-74600500D01*
X3637674Y-74600500D01*
X3910666Y-74564560D01*
X4120423Y-74508355D01*
X4176629Y-74493296D01*
X4176630Y-74493296D01*
X4209125Y-74479835D01*
X4431021Y-74387923D01*
X4669479Y-74250249D01*
X4887928Y-74082628D01*
X5082628Y-73887928D01*
X5250249Y-73669479D01*
X5387923Y-73431021D01*
X5493295Y-73176632D01*
X5564560Y-72910666D01*
X5600500Y-72637674D01*
X5600500Y-72362326D01*
X5600499Y-72362320D01*
X56399500Y-72362320D01*
X56399500Y-72637679D01*
X56435437Y-72910650D01*
X56435440Y-72910667D01*
X56506703Y-73176629D01*
X56506703Y-73176630D01*
X56572745Y-73336066D01*
X56612077Y-73431021D01*
X56749751Y-73669479D01*
X56917372Y-73887928D01*
X57112072Y-74082628D01*
X57330521Y-74250249D01*
X57568979Y-74387923D01*
X57712420Y-74447338D01*
X57823369Y-74493296D01*
X57986139Y-74536909D01*
X58089334Y-74564560D01*
X58362326Y-74600500D01*
X58637674Y-74600500D01*
X58910666Y-74564560D01*
X59120423Y-74508355D01*
X59176629Y-74493296D01*
X59176630Y-74493296D01*
X59209125Y-74479835D01*
X59431021Y-74387923D01*
X59669479Y-74250249D01*
X59887928Y-74082628D01*
X60082628Y-73887928D01*
X60250249Y-73669479D01*
X60387923Y-73431021D01*
X60493295Y-73176632D01*
X60564560Y-72910666D01*
X60600500Y-72637674D01*
X60600500Y-72362326D01*
X60564560Y-72089334D01*
X60493296Y-71823370D01*
X60493296Y-71823369D01*
X60427255Y-71663934D01*
X60387923Y-71568979D01*
X60250249Y-71330521D01*
X60082628Y-71112072D01*
X59887928Y-70917372D01*
X59669479Y-70749751D01*
X59431021Y-70612077D01*
X59374563Y-70588691D01*
X59176630Y-70506703D01*
X58910667Y-70435440D01*
X58910650Y-70435437D01*
X58637679Y-70399500D01*
X58637674Y-70399500D01*
X58362326Y-70399500D01*
X58362320Y-70399500D01*
X58089349Y-70435437D01*
X58089332Y-70435440D01*
X57823370Y-70506703D01*
X57823369Y-70506703D01*
X57568976Y-70612078D01*
X57330522Y-70749750D01*
X57112070Y-70917373D01*
X56917373Y-71112070D01*
X56749750Y-71330522D01*
X56612078Y-71568976D01*
X56506703Y-71823369D01*
X56506703Y-71823370D01*
X56435440Y-72089332D01*
X56435437Y-72089349D01*
X56399500Y-72362320D01*
X5600499Y-72362320D01*
X5564560Y-72089334D01*
X5493296Y-71823370D01*
X5493296Y-71823369D01*
X5427255Y-71663934D01*
X5387923Y-71568979D01*
X5250249Y-71330521D01*
X5082628Y-71112072D01*
X4887928Y-70917372D01*
X4669479Y-70749751D01*
X4431021Y-70612077D01*
X4374563Y-70588691D01*
X4176630Y-70506703D01*
X3910667Y-70435440D01*
X3910650Y-70435437D01*
X3637679Y-70399500D01*
X3637674Y-70399500D01*
X3362326Y-70399500D01*
X3362320Y-70399500D01*
X3089349Y-70435437D01*
X3089332Y-70435440D01*
X2823370Y-70506703D01*
X2823369Y-70506703D01*
X2568976Y-70612078D01*
X2330522Y-70749750D01*
X2112070Y-70917373D01*
X1917373Y-71112070D01*
X1749750Y-71330522D01*
X1612078Y-71568976D01*
X1506703Y-71823369D01*
X1506703Y-71823370D01*
X1435440Y-72089332D01*
X1435437Y-72089349D01*
X1399500Y-72362320D01*
X500500Y-72362320D01*
X500500Y-3362320D01*
X1399500Y-3362320D01*
X1399500Y-3637679D01*
X1435437Y-3910650D01*
X1435440Y-3910667D01*
X1506703Y-4176629D01*
X1506703Y-4176630D01*
X1572745Y-4336066D01*
X1612077Y-4431021D01*
X1749751Y-4669479D01*
X1917372Y-4887928D01*
X2112072Y-5082628D01*
X2330521Y-5250249D01*
X2568979Y-5387923D01*
X2712420Y-5447338D01*
X2823369Y-5493296D01*
X2941693Y-5525000D01*
X3089334Y-5564560D01*
X3362326Y-5600500D01*
X3637674Y-5600500D01*
X3759392Y-5584475D01*
X3812553Y-5577477D01*
X3889021Y-5587544D01*
X3950211Y-5634497D01*
X3979726Y-5705754D01*
X3969659Y-5782222D01*
X3937361Y-5830560D01*
X3878214Y-5889707D01*
X3790604Y-6020823D01*
X3730263Y-6166501D01*
X3730262Y-6166505D01*
X3699500Y-6321157D01*
X3699500Y-66578842D01*
X3730262Y-66733494D01*
X3730263Y-66733498D01*
X3790604Y-66879176D01*
X3790605Y-66879178D01*
X3790606Y-66879179D01*
X3878211Y-67010289D01*
X3989711Y-67121789D01*
X4120821Y-67209394D01*
X4266503Y-67269737D01*
X4421158Y-67300500D01*
X4578842Y-67300500D01*
X7576374Y-67300500D01*
X7650874Y-67320462D01*
X7681732Y-67344140D01*
X7734213Y-67396621D01*
X7734216Y-67396623D01*
X7883899Y-67505375D01*
X7883900Y-67505375D01*
X7883904Y-67505378D01*
X8048765Y-67589379D01*
X8224730Y-67646553D01*
X8224736Y-67646555D01*
X8407486Y-67675500D01*
X8407491Y-67675500D01*
X8592509Y-67675500D01*
X8592514Y-67675500D01*
X8775264Y-67646555D01*
X8951235Y-67589379D01*
X9116096Y-67505378D01*
X9265787Y-67396621D01*
X9396621Y-67265787D01*
X9505378Y-67116096D01*
X9589379Y-66951235D01*
X9608556Y-66892211D01*
X9650562Y-66827529D01*
X9719284Y-66792513D01*
X9796306Y-66796549D01*
X9860991Y-66838556D01*
X9891970Y-66892213D01*
X9911083Y-66951036D01*
X9911090Y-66951054D01*
X9995048Y-67115831D01*
X10010013Y-67136430D01*
X10557851Y-66588592D01*
X10580656Y-66673698D01*
X10639901Y-66776314D01*
X10723686Y-66860099D01*
X10826302Y-66919344D01*
X10911405Y-66942147D01*
X10363568Y-67489984D01*
X10363568Y-67489985D01*
X10384160Y-67504945D01*
X10384165Y-67504948D01*
X10548951Y-67588912D01*
X10548955Y-67588913D01*
X10724857Y-67646067D01*
X10907531Y-67675000D01*
X11092469Y-67675000D01*
X11275142Y-67646067D01*
X11451044Y-67588913D01*
X11451048Y-67588911D01*
X11615835Y-67504948D01*
X11615837Y-67504947D01*
X11636430Y-67489985D01*
X11636430Y-67489984D01*
X11088593Y-66942147D01*
X11173698Y-66919344D01*
X11276314Y-66860099D01*
X11360099Y-66776314D01*
X11419344Y-66673698D01*
X11442147Y-66588593D01*
X11989984Y-67136430D01*
X11989985Y-67136430D01*
X12004947Y-67115837D01*
X12004948Y-67115835D01*
X12088911Y-66951048D01*
X12088914Y-66951041D01*
X12108028Y-66892215D01*
X12150034Y-66827530D01*
X12218755Y-66792513D01*
X12295778Y-66796549D01*
X12360463Y-66838555D01*
X12391443Y-66892212D01*
X12391444Y-66892214D01*
X12410560Y-66951048D01*
X12410620Y-66951231D01*
X12410623Y-66951240D01*
X12440712Y-67010292D01*
X12494490Y-67115837D01*
X12494623Y-67116097D01*
X12494624Y-67116100D01*
X12603376Y-67265783D01*
X12603379Y-67265787D01*
X12734213Y-67396621D01*
X12734216Y-67396623D01*
X12883899Y-67505375D01*
X12883900Y-67505375D01*
X12883904Y-67505378D01*
X13048765Y-67589379D01*
X13224730Y-67646553D01*
X13224736Y-67646555D01*
X13407486Y-67675500D01*
X13407491Y-67675500D01*
X13592509Y-67675500D01*
X13592514Y-67675500D01*
X13775264Y-67646555D01*
X13951235Y-67589379D01*
X14116096Y-67505378D01*
X14265787Y-67396621D01*
X14396621Y-67265787D01*
X14505378Y-67116096D01*
X14589379Y-66951235D01*
X14646555Y-66775264D01*
X14675500Y-66592514D01*
X14675500Y-66407486D01*
X14646555Y-66224736D01*
X14639638Y-66203449D01*
X14633734Y-66185276D01*
X14589379Y-66048765D01*
X14505378Y-65883904D01*
X14505375Y-65883900D01*
X14505375Y-65883899D01*
X14396623Y-65734216D01*
X14396621Y-65734213D01*
X14265787Y-65603379D01*
X14265783Y-65603376D01*
X14116100Y-65494624D01*
X14116097Y-65494623D01*
X14116098Y-65494623D01*
X14116096Y-65494622D01*
X14038206Y-65454935D01*
X13951240Y-65410623D01*
X13951236Y-65410621D01*
X13951235Y-65410621D01*
X13848049Y-65377094D01*
X13775269Y-65353446D01*
X13775270Y-65353446D01*
X13775264Y-65353445D01*
X13592514Y-65324500D01*
X13407486Y-65324500D01*
X13246787Y-65349952D01*
X13224729Y-65353446D01*
X13048771Y-65410619D01*
X13048759Y-65410623D01*
X12883902Y-65494623D01*
X12883899Y-65494624D01*
X12734216Y-65603376D01*
X12603376Y-65734216D01*
X12494624Y-65883899D01*
X12494623Y-65883902D01*
X12410623Y-66048759D01*
X12410621Y-66048764D01*
X12391443Y-66107788D01*
X12349435Y-66172472D01*
X12280713Y-66207486D01*
X12203690Y-66203449D01*
X12139006Y-66161441D01*
X12108028Y-66107784D01*
X12088914Y-66048958D01*
X12088912Y-66048951D01*
X12004948Y-65884165D01*
X12004945Y-65884160D01*
X11989985Y-65863568D01*
X11442147Y-66411405D01*
X11419344Y-66326302D01*
X11360099Y-66223686D01*
X11276314Y-66139901D01*
X11173698Y-66080656D01*
X11088592Y-66057851D01*
X11636431Y-65510013D01*
X11615831Y-65495048D01*
X11451054Y-65411090D01*
X11451044Y-65411086D01*
X11275142Y-65353932D01*
X11092469Y-65325000D01*
X10907531Y-65325000D01*
X10724857Y-65353932D01*
X10548955Y-65411086D01*
X10548951Y-65411088D01*
X10384167Y-65495049D01*
X10363569Y-65510014D01*
X10911406Y-66057852D01*
X10826302Y-66080656D01*
X10723686Y-66139901D01*
X10639901Y-66223686D01*
X10580656Y-66326302D01*
X10557852Y-66411406D01*
X10010014Y-65863569D01*
X9995049Y-65884167D01*
X9911088Y-66048951D01*
X9911082Y-66048963D01*
X9891970Y-66107786D01*
X9849963Y-66172471D01*
X9781241Y-66207486D01*
X9704219Y-66203449D01*
X9639534Y-66161442D01*
X9608556Y-66107786D01*
X9599741Y-66080656D01*
X9589379Y-66048765D01*
X9505378Y-65883904D01*
X9505375Y-65883900D01*
X9505375Y-65883899D01*
X9396623Y-65734216D01*
X9396621Y-65734213D01*
X9265787Y-65603379D01*
X9265783Y-65603376D01*
X9116100Y-65494624D01*
X9116097Y-65494623D01*
X9116098Y-65494623D01*
X9116096Y-65494622D01*
X9038206Y-65454935D01*
X8951240Y-65410623D01*
X8951236Y-65410621D01*
X8951235Y-65410621D01*
X8848049Y-65377094D01*
X8775269Y-65353446D01*
X8775270Y-65353446D01*
X8775264Y-65353445D01*
X8592514Y-65324500D01*
X8407486Y-65324500D01*
X8246787Y-65349952D01*
X8224729Y-65353446D01*
X8048771Y-65410619D01*
X8048759Y-65410623D01*
X7883902Y-65494623D01*
X7883899Y-65494624D01*
X7734216Y-65603376D01*
X7681732Y-65655860D01*
X7614937Y-65694423D01*
X7576374Y-65699500D01*
X5449500Y-65699500D01*
X5375000Y-65679538D01*
X5320462Y-65625000D01*
X5300500Y-65550500D01*
X5300500Y-56458523D01*
X20960000Y-56458523D01*
X20960000Y-56990000D01*
X21676990Y-56990000D01*
X21644076Y-57047008D01*
X21610001Y-57174174D01*
X21610001Y-57305826D01*
X21644076Y-57432992D01*
X21676990Y-57490000D01*
X20960001Y-57490000D01*
X20960001Y-58021482D01*
X20974834Y-58115146D01*
X21032359Y-58228045D01*
X21121954Y-58317640D01*
X21234849Y-58375163D01*
X21234851Y-58375164D01*
X21328523Y-58389999D01*
X21860000Y-58389999D01*
X21860000Y-57673010D01*
X21917008Y-57705924D01*
X22044174Y-57739999D01*
X22175826Y-57739999D01*
X22302992Y-57705924D01*
X22360000Y-57673010D01*
X22360000Y-58389999D01*
X22891483Y-58389999D01*
X22985146Y-58375165D01*
X23098045Y-58317640D01*
X23187640Y-58228045D01*
X23245163Y-58115150D01*
X23245164Y-58115148D01*
X23259999Y-58021476D01*
X23259999Y-57625866D01*
X23279961Y-57551366D01*
X23334499Y-57496828D01*
X23408999Y-57476866D01*
X23483499Y-57496828D01*
X23538037Y-57551366D01*
X23550706Y-57579823D01*
X23583785Y-57681631D01*
X23583787Y-57681636D01*
X23583789Y-57681639D01*
X23666004Y-57842994D01*
X23772447Y-57989501D01*
X23900499Y-58117553D01*
X24047006Y-58223996D01*
X24208361Y-58306211D01*
X24380591Y-58362171D01*
X24559454Y-58390500D01*
X24559458Y-58390500D01*
X24740542Y-58390500D01*
X24740546Y-58390500D01*
X24919409Y-58362171D01*
X25091639Y-58306211D01*
X25252994Y-58223996D01*
X25399501Y-58117553D01*
X25527553Y-57989501D01*
X25633996Y-57842994D01*
X25716211Y-57681639D01*
X25772171Y-57509409D01*
X25772834Y-57505223D01*
X25804204Y-57434762D01*
X25866602Y-57389427D01*
X25943307Y-57381364D01*
X26013768Y-57412734D01*
X26059103Y-57475132D01*
X26067166Y-57505223D01*
X26067828Y-57509408D01*
X26108037Y-57633159D01*
X26123789Y-57681639D01*
X26206004Y-57842994D01*
X26312447Y-57989501D01*
X26440499Y-58117553D01*
X26587006Y-58223996D01*
X26748361Y-58306211D01*
X26920591Y-58362171D01*
X27099454Y-58390500D01*
X27099458Y-58390500D01*
X27280542Y-58390500D01*
X27280546Y-58390500D01*
X27459409Y-58362171D01*
X27631639Y-58306211D01*
X27792994Y-58223996D01*
X27939501Y-58117553D01*
X28067553Y-57989501D01*
X28173996Y-57842994D01*
X28256211Y-57681639D01*
X28312171Y-57509409D01*
X28312834Y-57505223D01*
X28344204Y-57434762D01*
X28406602Y-57389427D01*
X28483307Y-57381364D01*
X28553768Y-57412734D01*
X28599103Y-57475132D01*
X28607166Y-57505223D01*
X28607828Y-57509408D01*
X28648037Y-57633159D01*
X28663789Y-57681639D01*
X28746004Y-57842994D01*
X28852447Y-57989501D01*
X28980499Y-58117553D01*
X29127006Y-58223996D01*
X29288361Y-58306211D01*
X29460591Y-58362171D01*
X29639454Y-58390500D01*
X29639458Y-58390500D01*
X29820542Y-58390500D01*
X29820546Y-58390500D01*
X29999409Y-58362171D01*
X30171639Y-58306211D01*
X30332994Y-58223996D01*
X30479501Y-58117553D01*
X30607553Y-57989501D01*
X30713996Y-57842994D01*
X30796211Y-57681639D01*
X30852171Y-57509409D01*
X30852834Y-57505223D01*
X30884204Y-57434762D01*
X30946602Y-57389427D01*
X31023307Y-57381364D01*
X31093768Y-57412734D01*
X31139103Y-57475132D01*
X31147166Y-57505223D01*
X31147828Y-57509408D01*
X31188037Y-57633159D01*
X31203789Y-57681639D01*
X31286004Y-57842994D01*
X31341044Y-57918750D01*
X31368684Y-57990753D01*
X31369500Y-58006328D01*
X31369500Y-61508440D01*
X31349538Y-61582940D01*
X31315887Y-61622905D01*
X28136159Y-64272676D01*
X28136160Y-64272677D01*
X28130104Y-64277724D01*
X28095965Y-64300536D01*
X28062137Y-64334362D01*
X28056947Y-64338688D01*
X28025381Y-64364993D01*
X28025380Y-64364994D01*
X28004523Y-64390801D01*
X27994003Y-64402496D01*
X27970534Y-64425966D01*
X27970532Y-64425967D01*
X27947705Y-64460130D01*
X27947706Y-64460131D01*
X27943953Y-64465748D01*
X27913883Y-64502956D01*
X27894805Y-64539298D01*
X27890431Y-64545846D01*
X27871987Y-64573451D01*
X27856262Y-64611413D01*
X27853673Y-64617663D01*
X27831442Y-64660018D01*
X27819818Y-64699397D01*
X27816803Y-64706678D01*
X27804107Y-64737330D01*
X27804105Y-64737335D01*
X27796090Y-64777628D01*
X27792860Y-64790732D01*
X27781228Y-64830142D01*
X27778223Y-64863190D01*
X27775974Y-64878754D01*
X27770623Y-64905660D01*
X27769500Y-64911309D01*
X27769500Y-64959157D01*
X27765169Y-65006800D01*
X27769500Y-65047627D01*
X27769500Y-67088586D01*
X27749538Y-67163086D01*
X27741044Y-67176165D01*
X27637712Y-67318390D01*
X27632759Y-67328112D01*
X27581150Y-67385429D01*
X27507796Y-67409262D01*
X27432354Y-67393225D01*
X27375037Y-67341616D01*
X27367241Y-67328112D01*
X27362287Y-67318390D01*
X27241971Y-67152787D01*
X27241964Y-67152779D01*
X27097220Y-67008035D01*
X27097212Y-67008028D01*
X26931612Y-66887714D01*
X26749224Y-66794782D01*
X26749220Y-66794780D01*
X26749219Y-66794780D01*
X26554534Y-66731523D01*
X26352352Y-66699500D01*
X26147648Y-66699500D01*
X25979163Y-66726185D01*
X25945465Y-66731523D01*
X25750787Y-66794778D01*
X25750775Y-66794782D01*
X25568387Y-66887714D01*
X25402787Y-67008028D01*
X25402779Y-67008035D01*
X25258035Y-67152779D01*
X25258028Y-67152787D01*
X25137714Y-67318387D01*
X25044782Y-67500775D01*
X25044778Y-67500787D01*
X24997574Y-67646067D01*
X24981523Y-67695466D01*
X24949500Y-67897648D01*
X24949500Y-68102352D01*
X24981523Y-68304534D01*
X25044778Y-68499212D01*
X25044782Y-68499224D01*
X25091411Y-68590737D01*
X25137713Y-68681610D01*
X25137714Y-68681612D01*
X25137719Y-68681620D01*
X25201043Y-68768777D01*
X25228684Y-68840782D01*
X25229500Y-68856357D01*
X25229500Y-70588691D01*
X25264105Y-70762663D01*
X25264106Y-70762667D01*
X25331986Y-70926546D01*
X25331987Y-70926548D01*
X25430533Y-71074031D01*
X25430536Y-71074035D01*
X25555965Y-71199464D01*
X25555968Y-71199466D01*
X25703451Y-71298012D01*
X25703453Y-71298013D01*
X25867334Y-71365894D01*
X26041309Y-71400500D01*
X37588691Y-71400500D01*
X37762666Y-71365894D01*
X37926547Y-71298013D01*
X38074035Y-71199464D01*
X38199464Y-71074035D01*
X38298013Y-70926547D01*
X38365894Y-70762666D01*
X38400500Y-70588691D01*
X38400500Y-60005803D01*
X38401565Y-59922881D01*
X38400500Y-59917142D01*
X38400500Y-59911309D01*
X38384482Y-59830786D01*
X38384192Y-59829276D01*
X38369197Y-59748476D01*
X38369196Y-59748473D01*
X38367621Y-59743032D01*
X38365896Y-59737344D01*
X38365894Y-59737334D01*
X38334523Y-59661598D01*
X38333837Y-59659909D01*
X38303423Y-59583734D01*
X38300787Y-59578645D01*
X38298015Y-59573459D01*
X38298013Y-59573453D01*
X38251928Y-59504482D01*
X38206778Y-59434995D01*
X38202706Y-59430817D01*
X38199464Y-59425965D01*
X38141487Y-59367988D01*
X38140143Y-59366626D01*
X37422919Y-58630738D01*
X37385217Y-58563454D01*
X37386207Y-58486333D01*
X37425626Y-58420039D01*
X37492911Y-58382336D01*
X37506315Y-58379576D01*
X37619297Y-58361682D01*
X37619297Y-58361681D01*
X37791449Y-58305746D01*
X37952737Y-58223564D01*
X37952738Y-58223563D01*
X37968532Y-58212087D01*
X37968532Y-58212086D01*
X37479407Y-57722961D01*
X37542992Y-57705924D01*
X37657006Y-57640098D01*
X37750098Y-57547006D01*
X37815924Y-57432992D01*
X37832961Y-57369407D01*
X38322086Y-57858532D01*
X38322087Y-57858532D01*
X38333563Y-57842738D01*
X38333564Y-57842737D01*
X38415746Y-57681449D01*
X38471681Y-57509297D01*
X38471682Y-57509294D01*
X38472579Y-57503633D01*
X38503945Y-57433170D01*
X38566339Y-57387831D01*
X38643044Y-57379764D01*
X38713507Y-57411130D01*
X38758846Y-57473524D01*
X38766910Y-57503614D01*
X38767827Y-57509403D01*
X38805668Y-57625866D01*
X38823789Y-57681639D01*
X38906004Y-57842994D01*
X39012447Y-57989501D01*
X39140499Y-58117553D01*
X39287006Y-58223996D01*
X39448361Y-58306211D01*
X39620591Y-58362171D01*
X39799454Y-58390500D01*
X39799458Y-58390500D01*
X39980542Y-58390500D01*
X39980546Y-58390500D01*
X40159409Y-58362171D01*
X40331639Y-58306211D01*
X40492994Y-58223996D01*
X40505376Y-58215000D01*
X40568752Y-58168956D01*
X40640757Y-58141316D01*
X40656331Y-58140500D01*
X44550500Y-58140500D01*
X44625000Y-58160462D01*
X44679538Y-58215000D01*
X44699500Y-58289500D01*
X44699500Y-58606704D01*
X44679538Y-58681204D01*
X44655859Y-58712063D01*
X43978214Y-59389707D01*
X43978211Y-59389710D01*
X43978211Y-59389711D01*
X43953987Y-59425965D01*
X43890604Y-59520823D01*
X43830263Y-59666501D01*
X43830262Y-59666505D01*
X43799500Y-59821157D01*
X43799500Y-59978842D01*
X43830262Y-60133494D01*
X43830263Y-60133498D01*
X43890604Y-60279176D01*
X43890605Y-60279178D01*
X43890606Y-60279179D01*
X43978211Y-60410289D01*
X44089711Y-60521789D01*
X44220821Y-60609394D01*
X44366503Y-60669737D01*
X44521158Y-60700500D01*
X44678842Y-60700500D01*
X44833497Y-60669737D01*
X44979179Y-60609394D01*
X45110289Y-60521789D01*
X46121789Y-59510289D01*
X46159762Y-59453458D01*
X46209394Y-59379179D01*
X46269737Y-59233497D01*
X46276005Y-59201987D01*
X46300500Y-59078843D01*
X46300500Y-58921158D01*
X46300500Y-57690179D01*
X46311842Y-57633159D01*
X46314863Y-57625866D01*
X46365894Y-57502666D01*
X46400500Y-57328691D01*
X46400500Y-21949500D01*
X46420462Y-21875000D01*
X46475000Y-21820462D01*
X46549500Y-21800500D01*
X50578842Y-21800500D01*
X50733497Y-21769737D01*
X50879179Y-21709394D01*
X51010289Y-21621789D01*
X51121789Y-21510289D01*
X51209394Y-21379179D01*
X51269737Y-21233497D01*
X51300500Y-21078842D01*
X51300500Y-20921158D01*
X51269737Y-20766503D01*
X51209394Y-20620821D01*
X51121789Y-20489711D01*
X51010289Y-20378211D01*
X50879179Y-20290606D01*
X50879178Y-20290605D01*
X50879176Y-20290604D01*
X50733498Y-20230263D01*
X50733494Y-20230262D01*
X50578842Y-20199500D01*
X46549500Y-20199500D01*
X46475000Y-20179538D01*
X46420462Y-20125000D01*
X46400500Y-20050500D01*
X46400500Y-17513691D01*
X46402782Y-17438765D01*
X46400500Y-17425135D01*
X46400500Y-17411309D01*
X46386302Y-17339935D01*
X46385499Y-17335542D01*
X46376478Y-17281664D01*
X46373490Y-17263817D01*
X46371948Y-17259749D01*
X46368588Y-17250883D01*
X46365894Y-17237334D01*
X46337212Y-17168091D01*
X46336407Y-17165966D01*
X46310632Y-17097953D01*
X46310631Y-17097951D01*
X46310629Y-17097946D01*
X46303303Y-17086224D01*
X46298013Y-17073453D01*
X46256352Y-17011104D01*
X46216616Y-16947526D01*
X46215631Y-16946479D01*
X46200255Y-16927149D01*
X46199466Y-16925968D01*
X46199464Y-16925965D01*
X46148048Y-16874549D01*
X46144890Y-16871293D01*
X46095065Y-16818337D01*
X46095058Y-16818331D01*
X46093891Y-16817499D01*
X46075048Y-16801549D01*
X46074038Y-16800539D01*
X46074035Y-16800536D01*
X46011694Y-16758881D01*
X45950644Y-16715343D01*
X45938043Y-16709668D01*
X45927738Y-16702782D01*
X45927737Y-16702781D01*
X45926549Y-16701988D01*
X45926546Y-16701986D01*
X45859367Y-16674159D01*
X45859367Y-16674160D01*
X45857269Y-16673291D01*
X45788906Y-16642504D01*
X45775436Y-16639395D01*
X45763990Y-16634654D01*
X45763988Y-16634653D01*
X45762672Y-16634108D01*
X45762668Y-16634106D01*
X45762666Y-16634106D01*
X45691338Y-16619917D01*
X45686904Y-16618965D01*
X41716067Y-15702618D01*
X41538763Y-15697217D01*
X41363821Y-15726508D01*
X41197948Y-15789369D01*
X41197939Y-15789374D01*
X41047531Y-15883379D01*
X41047522Y-15883387D01*
X40918337Y-16004934D01*
X40918335Y-16004936D01*
X40815342Y-16149356D01*
X40742505Y-16311090D01*
X40742504Y-16311092D01*
X40702618Y-16483931D01*
X40702618Y-16483935D01*
X40697217Y-16661235D01*
X40726508Y-16836178D01*
X40789369Y-17002051D01*
X40789374Y-17002060D01*
X40883379Y-17152468D01*
X40883383Y-17152472D01*
X40883384Y-17152474D01*
X40930317Y-17202356D01*
X41001299Y-17277799D01*
X41004936Y-17281664D01*
X41149356Y-17384657D01*
X41311094Y-17457496D01*
X42384981Y-17705316D01*
X42453085Y-17741519D01*
X42493962Y-17806923D01*
X42496661Y-17884004D01*
X42460458Y-17952108D01*
X42395054Y-17992985D01*
X42351477Y-17999500D01*
X37407065Y-17999500D01*
X37336826Y-17981906D01*
X37331805Y-17979222D01*
X37204329Y-17926420D01*
X37204325Y-17926419D01*
X37068993Y-17899500D01*
X36931007Y-17899500D01*
X36795674Y-17926419D01*
X36795670Y-17926420D01*
X36668190Y-17979224D01*
X36668184Y-17979227D01*
X36553461Y-18055883D01*
X36553454Y-18055889D01*
X36455889Y-18153454D01*
X36455883Y-18153461D01*
X36379227Y-18268184D01*
X36379224Y-18268190D01*
X36326420Y-18395670D01*
X36326419Y-18395674D01*
X36299500Y-18531006D01*
X36299500Y-18668993D01*
X36326419Y-18804325D01*
X36326420Y-18804329D01*
X36379224Y-18931809D01*
X36379227Y-18931815D01*
X36438175Y-19020036D01*
X36455886Y-19046542D01*
X36553458Y-19144114D01*
X36553461Y-19144116D01*
X36668184Y-19220772D01*
X36668186Y-19220773D01*
X36668189Y-19220775D01*
X36795672Y-19273580D01*
X36931007Y-19300500D01*
X37068993Y-19300500D01*
X37204328Y-19273580D01*
X37331811Y-19220775D01*
X37331820Y-19220768D01*
X37336826Y-19218094D01*
X37407065Y-19200500D01*
X44450500Y-19200500D01*
X44525000Y-19220462D01*
X44579538Y-19275000D01*
X44599500Y-19349500D01*
X44599500Y-56190500D01*
X44579538Y-56265000D01*
X44525000Y-56319538D01*
X44450500Y-56339500D01*
X40656331Y-56339500D01*
X40581831Y-56319538D01*
X40568752Y-56311044D01*
X40493002Y-56256009D01*
X40492995Y-56256005D01*
X40492996Y-56256005D01*
X40492994Y-56256004D01*
X40331639Y-56173789D01*
X40159409Y-56117829D01*
X39980546Y-56089500D01*
X39799454Y-56089500D01*
X39620591Y-56117829D01*
X39448360Y-56173789D01*
X39287004Y-56256005D01*
X39287003Y-56256005D01*
X39140500Y-56362446D01*
X39140497Y-56362448D01*
X39012448Y-56490497D01*
X39012446Y-56490500D01*
X38906005Y-56637003D01*
X38906005Y-56637004D01*
X38823789Y-56798360D01*
X38767827Y-56970595D01*
X38766910Y-56976387D01*
X38735534Y-57046845D01*
X38673133Y-57092175D01*
X38596427Y-57100232D01*
X38525969Y-57068856D01*
X38480639Y-57006455D01*
X38472579Y-56976368D01*
X38471681Y-56970702D01*
X38415746Y-56798550D01*
X38333570Y-56637273D01*
X38322085Y-56621467D01*
X37832961Y-57110590D01*
X37815924Y-57047008D01*
X37750098Y-56932994D01*
X37657006Y-56839902D01*
X37542992Y-56774076D01*
X37479407Y-56757038D01*
X37968533Y-56267913D01*
X37968532Y-56267912D01*
X37952732Y-56256433D01*
X37952732Y-56256432D01*
X37791449Y-56174253D01*
X37619297Y-56118318D01*
X37619297Y-56118317D01*
X37440503Y-56090000D01*
X37259497Y-56090000D01*
X37080702Y-56118317D01*
X37080702Y-56118318D01*
X36908548Y-56174254D01*
X36747267Y-56256433D01*
X36747266Y-56256433D01*
X36731466Y-56267912D01*
X37220591Y-56757038D01*
X37157008Y-56774076D01*
X37042994Y-56839902D01*
X36949902Y-56932994D01*
X36884076Y-57047008D01*
X36867038Y-57110592D01*
X36377912Y-56621466D01*
X36366433Y-56637266D01*
X36366433Y-56637267D01*
X36284254Y-56798548D01*
X36228318Y-56970702D01*
X36228316Y-56970710D01*
X36227418Y-56976380D01*
X36196046Y-57046840D01*
X36133648Y-57092173D01*
X36056942Y-57100234D01*
X35986482Y-57068862D01*
X35941149Y-57006464D01*
X35933087Y-56976375D01*
X35932171Y-56970591D01*
X35876272Y-56798550D01*
X35876211Y-56798361D01*
X35793996Y-56637006D01*
X35687553Y-56490499D01*
X35559501Y-56362447D01*
X35412994Y-56256004D01*
X35251639Y-56173789D01*
X35079409Y-56117829D01*
X34900546Y-56089500D01*
X34719454Y-56089500D01*
X34540591Y-56117829D01*
X34368360Y-56173789D01*
X34207004Y-56256005D01*
X34207003Y-56256005D01*
X34060500Y-56362446D01*
X34060497Y-56362448D01*
X33932448Y-56490497D01*
X33932446Y-56490500D01*
X33826005Y-56637003D01*
X33826005Y-56637004D01*
X33743789Y-56798360D01*
X33687827Y-56970595D01*
X33687165Y-56974779D01*
X33655794Y-57045238D01*
X33593396Y-57090573D01*
X33516690Y-57098634D01*
X33446231Y-57067263D01*
X33400896Y-57004865D01*
X33392835Y-56974779D01*
X33392172Y-56970595D01*
X33392171Y-56970591D01*
X33336211Y-56798361D01*
X33253996Y-56637006D01*
X33147553Y-56490499D01*
X33019501Y-56362447D01*
X32872994Y-56256004D01*
X32711639Y-56173789D01*
X32539409Y-56117829D01*
X32360546Y-56089500D01*
X32179454Y-56089500D01*
X32000591Y-56117829D01*
X31828360Y-56173789D01*
X31667004Y-56256005D01*
X31667003Y-56256005D01*
X31520500Y-56362446D01*
X31520497Y-56362448D01*
X31392448Y-56490497D01*
X31392446Y-56490500D01*
X31286005Y-56637003D01*
X31286005Y-56637004D01*
X31203789Y-56798360D01*
X31147827Y-56970595D01*
X31147165Y-56974779D01*
X31115794Y-57045238D01*
X31053396Y-57090573D01*
X30976690Y-57098634D01*
X30906231Y-57067263D01*
X30860896Y-57004865D01*
X30852835Y-56974779D01*
X30852172Y-56970595D01*
X30852171Y-56970591D01*
X30796211Y-56798361D01*
X30713996Y-56637006D01*
X30607553Y-56490499D01*
X30479501Y-56362447D01*
X30332994Y-56256004D01*
X30171639Y-56173789D01*
X29999409Y-56117829D01*
X29820546Y-56089500D01*
X29639454Y-56089500D01*
X29460591Y-56117829D01*
X29288360Y-56173789D01*
X29127004Y-56256005D01*
X29127003Y-56256005D01*
X28980500Y-56362446D01*
X28980497Y-56362448D01*
X28852448Y-56490497D01*
X28852446Y-56490500D01*
X28746005Y-56637003D01*
X28746005Y-56637004D01*
X28663789Y-56798360D01*
X28607827Y-56970595D01*
X28607165Y-56974779D01*
X28575794Y-57045238D01*
X28513396Y-57090573D01*
X28436690Y-57098634D01*
X28366231Y-57067263D01*
X28320896Y-57004865D01*
X28312835Y-56974779D01*
X28312172Y-56970595D01*
X28312171Y-56970591D01*
X28256211Y-56798361D01*
X28173996Y-56637006D01*
X28067553Y-56490499D01*
X27939501Y-56362447D01*
X27792994Y-56256004D01*
X27631639Y-56173789D01*
X27459409Y-56117829D01*
X27280546Y-56089500D01*
X27099454Y-56089500D01*
X26920591Y-56117829D01*
X26748360Y-56173789D01*
X26587004Y-56256005D01*
X26587003Y-56256005D01*
X26440500Y-56362446D01*
X26440497Y-56362448D01*
X26312448Y-56490497D01*
X26312446Y-56490500D01*
X26206005Y-56637003D01*
X26206005Y-56637004D01*
X26123789Y-56798360D01*
X26067827Y-56970595D01*
X26067165Y-56974779D01*
X26035794Y-57045238D01*
X25973396Y-57090573D01*
X25896690Y-57098634D01*
X25826231Y-57067263D01*
X25780896Y-57004865D01*
X25772835Y-56974779D01*
X25772172Y-56970595D01*
X25772171Y-56970591D01*
X25716211Y-56798361D01*
X25633996Y-56637006D01*
X25527553Y-56490499D01*
X25399501Y-56362447D01*
X25252994Y-56256004D01*
X25091639Y-56173789D01*
X24919409Y-56117829D01*
X24740546Y-56089500D01*
X24559454Y-56089500D01*
X24380591Y-56117829D01*
X24208360Y-56173789D01*
X24047004Y-56256005D01*
X24047003Y-56256005D01*
X23900500Y-56362446D01*
X23900497Y-56362448D01*
X23772448Y-56490497D01*
X23772446Y-56490500D01*
X23666005Y-56637003D01*
X23666005Y-56637004D01*
X23583787Y-56798363D01*
X23583785Y-56798368D01*
X23550706Y-56900177D01*
X23508700Y-56964862D01*
X23439978Y-56999878D01*
X23362956Y-56995841D01*
X23298271Y-56953835D01*
X23263255Y-56885113D01*
X23259999Y-56854134D01*
X23259999Y-56458517D01*
X23245165Y-56364853D01*
X23187640Y-56251954D01*
X23098045Y-56162359D01*
X22985150Y-56104836D01*
X22985148Y-56104835D01*
X22891476Y-56090000D01*
X22360000Y-56090000D01*
X22360000Y-56806989D01*
X22302992Y-56774076D01*
X22175826Y-56740001D01*
X22044174Y-56740001D01*
X21917008Y-56774076D01*
X21860000Y-56806989D01*
X21860000Y-56090000D01*
X21328517Y-56090000D01*
X21234853Y-56104834D01*
X21121954Y-56162359D01*
X21032359Y-56251954D01*
X20974836Y-56364849D01*
X20974835Y-56364851D01*
X20960000Y-56458523D01*
X5300500Y-56458523D01*
X5300500Y-13391006D01*
X5899500Y-13391006D01*
X5899500Y-13528993D01*
X5926419Y-13664325D01*
X5926420Y-13664329D01*
X5979222Y-13791806D01*
X5981903Y-13796821D01*
X5999500Y-13867065D01*
X5999500Y-38920943D01*
X5999500Y-39079057D01*
X6040423Y-39231784D01*
X6119480Y-39368716D01*
X6231284Y-39480520D01*
X6368216Y-39559577D01*
X6520943Y-39600500D01*
X39140500Y-39600500D01*
X39215000Y-39620462D01*
X39269538Y-39675000D01*
X39289500Y-39749500D01*
X39289500Y-40938272D01*
X39269538Y-41012772D01*
X39228080Y-41058816D01*
X39140500Y-41122446D01*
X39140497Y-41122448D01*
X39012448Y-41250497D01*
X39012446Y-41250500D01*
X38906005Y-41397003D01*
X38906005Y-41397004D01*
X38823789Y-41558360D01*
X38767827Y-41730595D01*
X38766910Y-41736387D01*
X38735534Y-41806845D01*
X38673133Y-41852175D01*
X38596427Y-41860232D01*
X38525969Y-41828856D01*
X38480639Y-41766455D01*
X38472579Y-41736368D01*
X38471681Y-41730702D01*
X38415746Y-41558550D01*
X38333570Y-41397273D01*
X38322085Y-41381467D01*
X37832961Y-41870590D01*
X37815924Y-41807008D01*
X37750098Y-41692994D01*
X37657006Y-41599902D01*
X37542992Y-41534076D01*
X37479407Y-41517038D01*
X37968533Y-41027913D01*
X37968532Y-41027912D01*
X37952732Y-41016433D01*
X37952732Y-41016432D01*
X37791449Y-40934253D01*
X37619297Y-40878318D01*
X37619297Y-40878317D01*
X37440503Y-40850000D01*
X37259497Y-40850000D01*
X37080702Y-40878317D01*
X37080702Y-40878318D01*
X36908548Y-40934254D01*
X36747267Y-41016433D01*
X36747266Y-41016433D01*
X36731466Y-41027912D01*
X37220591Y-41517038D01*
X37157008Y-41534076D01*
X37042994Y-41599902D01*
X36949902Y-41692994D01*
X36884076Y-41807008D01*
X36867038Y-41870591D01*
X36377912Y-41381466D01*
X36366433Y-41397266D01*
X36366433Y-41397267D01*
X36284254Y-41558548D01*
X36228318Y-41730702D01*
X36228315Y-41730711D01*
X36227165Y-41737977D01*
X36195794Y-41808436D01*
X36133396Y-41853771D01*
X36056690Y-41861832D01*
X35986231Y-41830461D01*
X35940896Y-41768063D01*
X35932835Y-41737977D01*
X35931684Y-41730711D01*
X35931681Y-41730702D01*
X35875746Y-41558550D01*
X35793570Y-41397273D01*
X35782085Y-41381467D01*
X35292961Y-41870590D01*
X35275924Y-41807008D01*
X35210098Y-41692994D01*
X35117006Y-41599902D01*
X35002992Y-41534076D01*
X34939407Y-41517037D01*
X35428533Y-41027912D01*
X35412732Y-41016433D01*
X35412732Y-41016432D01*
X35251449Y-40934253D01*
X35079297Y-40878318D01*
X35079297Y-40878317D01*
X34900503Y-40850000D01*
X34719497Y-40850000D01*
X34540702Y-40878317D01*
X34540702Y-40878318D01*
X34368548Y-40934254D01*
X34207267Y-41016433D01*
X34207266Y-41016433D01*
X34191466Y-41027912D01*
X34680591Y-41517038D01*
X34617008Y-41534076D01*
X34502994Y-41599902D01*
X34409902Y-41692994D01*
X34344076Y-41807008D01*
X34327038Y-41870591D01*
X33837912Y-41381466D01*
X33826433Y-41397266D01*
X33826433Y-41397267D01*
X33744254Y-41558548D01*
X33688318Y-41730702D01*
X33688315Y-41730711D01*
X33687165Y-41737977D01*
X33655794Y-41808436D01*
X33593396Y-41853771D01*
X33516690Y-41861832D01*
X33446231Y-41830461D01*
X33400896Y-41768063D01*
X33392835Y-41737977D01*
X33391684Y-41730711D01*
X33391681Y-41730702D01*
X33335746Y-41558550D01*
X33253570Y-41397273D01*
X33242085Y-41381467D01*
X32752961Y-41870590D01*
X32735924Y-41807008D01*
X32670098Y-41692994D01*
X32577006Y-41599902D01*
X32462992Y-41534076D01*
X32399407Y-41517037D01*
X32888533Y-41027912D01*
X32872732Y-41016433D01*
X32872732Y-41016432D01*
X32711449Y-40934253D01*
X32539297Y-40878318D01*
X32539297Y-40878317D01*
X32360503Y-40850000D01*
X32179497Y-40850000D01*
X32000702Y-40878317D01*
X32000702Y-40878318D01*
X31828548Y-40934254D01*
X31667267Y-41016433D01*
X31667266Y-41016433D01*
X31651466Y-41027912D01*
X32140591Y-41517038D01*
X32077008Y-41534076D01*
X31962994Y-41599902D01*
X31869902Y-41692994D01*
X31804076Y-41807008D01*
X31787038Y-41870591D01*
X31297912Y-41381466D01*
X31286433Y-41397266D01*
X31286433Y-41397267D01*
X31204254Y-41558548D01*
X31148318Y-41730702D01*
X31148316Y-41730707D01*
X31147418Y-41736381D01*
X31116045Y-41806840D01*
X31053646Y-41852173D01*
X30976940Y-41860233D01*
X30906481Y-41828860D01*
X30861148Y-41766461D01*
X30853087Y-41736374D01*
X30852189Y-41730707D01*
X30852171Y-41730591D01*
X30796211Y-41558361D01*
X30713996Y-41397006D01*
X30607553Y-41250499D01*
X30479501Y-41122447D01*
X30332994Y-41016004D01*
X30171639Y-40933789D01*
X29999409Y-40877829D01*
X29820546Y-40849500D01*
X29639454Y-40849500D01*
X29460591Y-40877829D01*
X29288360Y-40933789D01*
X29127004Y-41016005D01*
X29127003Y-41016005D01*
X28980500Y-41122446D01*
X28980497Y-41122448D01*
X28852448Y-41250497D01*
X28852446Y-41250500D01*
X28746005Y-41397003D01*
X28746005Y-41397004D01*
X28663789Y-41558360D01*
X28607827Y-41730595D01*
X28607165Y-41734779D01*
X28575794Y-41805238D01*
X28513396Y-41850573D01*
X28436690Y-41858634D01*
X28366231Y-41827263D01*
X28320896Y-41764865D01*
X28312835Y-41734779D01*
X28312172Y-41730595D01*
X28299955Y-41692994D01*
X28256211Y-41558361D01*
X28173996Y-41397006D01*
X28067553Y-41250499D01*
X27939501Y-41122447D01*
X27792994Y-41016004D01*
X27631639Y-40933789D01*
X27459409Y-40877829D01*
X27280546Y-40849500D01*
X27099454Y-40849500D01*
X26920591Y-40877829D01*
X26748360Y-40933789D01*
X26587004Y-41016005D01*
X26587003Y-41016005D01*
X26440500Y-41122446D01*
X26440497Y-41122448D01*
X26312448Y-41250497D01*
X26312446Y-41250500D01*
X26206005Y-41397003D01*
X26206005Y-41397004D01*
X26123789Y-41558360D01*
X26067827Y-41730595D01*
X26067165Y-41734779D01*
X26035794Y-41805238D01*
X25973396Y-41850573D01*
X25896690Y-41858634D01*
X25826231Y-41827263D01*
X25780896Y-41764865D01*
X25772835Y-41734779D01*
X25772172Y-41730595D01*
X25759955Y-41692994D01*
X25716211Y-41558361D01*
X25633996Y-41397006D01*
X25527553Y-41250499D01*
X25399501Y-41122447D01*
X25252994Y-41016004D01*
X25091639Y-40933789D01*
X24919409Y-40877829D01*
X24740546Y-40849500D01*
X24559454Y-40849500D01*
X24380591Y-40877829D01*
X24208360Y-40933789D01*
X24047004Y-41016005D01*
X24047003Y-41016005D01*
X23900500Y-41122446D01*
X23900497Y-41122448D01*
X23772448Y-41250497D01*
X23772446Y-41250500D01*
X23666005Y-41397003D01*
X23666005Y-41397004D01*
X23583789Y-41558360D01*
X23551207Y-41658639D01*
X23509200Y-41723324D01*
X23440478Y-41758340D01*
X23363456Y-41754304D01*
X23298771Y-41712297D01*
X23263755Y-41643575D01*
X23260499Y-41612596D01*
X23260499Y-41218481D01*
X23258146Y-41203628D01*
X23245646Y-41124696D01*
X23188050Y-41011658D01*
X23098342Y-40921950D01*
X22985305Y-40864354D01*
X22969673Y-40861878D01*
X22891519Y-40849500D01*
X22891514Y-40849500D01*
X21328481Y-40849500D01*
X21234695Y-40864354D01*
X21234693Y-40864355D01*
X21121657Y-40921950D01*
X21031950Y-41011657D01*
X20974354Y-41124694D01*
X20974354Y-41124696D01*
X20959500Y-41218481D01*
X20959500Y-41218482D01*
X20959500Y-41218485D01*
X20959500Y-42781518D01*
X20974354Y-42875304D01*
X21031950Y-42988342D01*
X21121658Y-43078050D01*
X21234696Y-43135646D01*
X21328481Y-43150500D01*
X22891518Y-43150499D01*
X22985304Y-43135646D01*
X23098342Y-43078050D01*
X23188050Y-42988342D01*
X23245646Y-42875304D01*
X23260500Y-42781519D01*
X23260499Y-42387402D01*
X23280461Y-42312905D01*
X23334999Y-42258367D01*
X23409499Y-42238405D01*
X23483999Y-42258367D01*
X23538537Y-42312905D01*
X23551206Y-42341362D01*
X23583785Y-42441631D01*
X23583787Y-42441636D01*
X23583789Y-42441639D01*
X23665873Y-42602737D01*
X23666005Y-42602995D01*
X23666005Y-42602996D01*
X23719225Y-42676247D01*
X23772447Y-42749501D01*
X23900499Y-42877553D01*
X24047006Y-42983996D01*
X24208361Y-43066211D01*
X24380591Y-43122171D01*
X24559454Y-43150500D01*
X24559458Y-43150500D01*
X24740542Y-43150500D01*
X24740546Y-43150500D01*
X24919409Y-43122171D01*
X25091639Y-43066211D01*
X25252994Y-42983996D01*
X25399501Y-42877553D01*
X25527553Y-42749501D01*
X25633996Y-42602994D01*
X25716211Y-42441639D01*
X25772171Y-42269409D01*
X25772834Y-42265223D01*
X25804204Y-42194762D01*
X25866602Y-42149427D01*
X25943307Y-42141364D01*
X26013768Y-42172734D01*
X26059103Y-42235132D01*
X26067166Y-42265223D01*
X26067828Y-42269408D01*
X26110292Y-42400098D01*
X26123789Y-42441639D01*
X26205873Y-42602737D01*
X26206005Y-42602995D01*
X26206005Y-42602996D01*
X26259225Y-42676247D01*
X26312447Y-42749501D01*
X26440499Y-42877553D01*
X26587006Y-42983996D01*
X26748361Y-43066211D01*
X26920591Y-43122171D01*
X27099454Y-43150500D01*
X27099458Y-43150500D01*
X27280542Y-43150500D01*
X27280546Y-43150500D01*
X27459409Y-43122171D01*
X27631639Y-43066211D01*
X27792994Y-42983996D01*
X27939501Y-42877553D01*
X28067553Y-42749501D01*
X28173996Y-42602994D01*
X28256211Y-42441639D01*
X28312171Y-42269409D01*
X28312834Y-42265223D01*
X28344204Y-42194762D01*
X28406602Y-42149427D01*
X28483307Y-42141364D01*
X28553768Y-42172734D01*
X28599103Y-42235132D01*
X28607166Y-42265223D01*
X28607828Y-42269408D01*
X28650292Y-42400098D01*
X28663789Y-42441639D01*
X28745873Y-42602737D01*
X28746005Y-42602995D01*
X28746005Y-42602996D01*
X28799225Y-42676247D01*
X28852447Y-42749501D01*
X28980499Y-42877553D01*
X29127006Y-42983996D01*
X29288361Y-43066211D01*
X29460591Y-43122171D01*
X29639454Y-43150500D01*
X29639458Y-43150500D01*
X29820542Y-43150500D01*
X29820546Y-43150500D01*
X29999409Y-43122171D01*
X30171639Y-43066211D01*
X30332994Y-42983996D01*
X30479501Y-42877553D01*
X30607553Y-42749501D01*
X30713996Y-42602994D01*
X30796211Y-42441639D01*
X30852171Y-42269409D01*
X30853087Y-42263627D01*
X30884455Y-42193166D01*
X30946852Y-42147829D01*
X31023557Y-42139765D01*
X31094018Y-42171133D01*
X31139355Y-42233530D01*
X31147418Y-42263620D01*
X31148316Y-42269289D01*
X31148318Y-42269297D01*
X31204253Y-42441449D01*
X31286433Y-42602732D01*
X31297912Y-42618532D01*
X31297913Y-42618533D01*
X31787038Y-42129407D01*
X31804076Y-42192992D01*
X31869902Y-42307006D01*
X31962994Y-42400098D01*
X32077008Y-42465924D01*
X32140591Y-42482961D01*
X31651467Y-42972085D01*
X31667273Y-42983570D01*
X31828550Y-43065746D01*
X32000702Y-43121681D01*
X32000702Y-43121682D01*
X32179497Y-43150000D01*
X32360503Y-43150000D01*
X32539297Y-43121682D01*
X32539297Y-43121681D01*
X32711449Y-43065746D01*
X32872737Y-42983564D01*
X32872738Y-42983563D01*
X32888532Y-42972087D01*
X32888532Y-42972086D01*
X32399408Y-42482961D01*
X32462992Y-42465924D01*
X32577006Y-42400098D01*
X32670098Y-42307006D01*
X32735924Y-42192992D01*
X32752961Y-42129407D01*
X33242086Y-42618532D01*
X33242087Y-42618532D01*
X33253563Y-42602738D01*
X33253564Y-42602737D01*
X33335746Y-42441449D01*
X33391681Y-42269297D01*
X33391682Y-42269297D01*
X33392834Y-42262024D01*
X33424205Y-42191564D01*
X33486602Y-42146229D01*
X33563308Y-42138166D01*
X33633768Y-42169537D01*
X33679103Y-42231934D01*
X33687166Y-42262024D01*
X33688317Y-42269297D01*
X33744253Y-42441449D01*
X33826433Y-42602732D01*
X33837912Y-42618532D01*
X33837913Y-42618533D01*
X34327038Y-42129407D01*
X34344076Y-42192992D01*
X34409902Y-42307006D01*
X34502994Y-42400098D01*
X34617008Y-42465924D01*
X34680591Y-42482961D01*
X34191467Y-42972085D01*
X34207273Y-42983570D01*
X34368550Y-43065746D01*
X34540702Y-43121681D01*
X34540702Y-43121682D01*
X34719497Y-43150000D01*
X34900503Y-43150000D01*
X35079297Y-43121682D01*
X35079297Y-43121681D01*
X35251449Y-43065746D01*
X35412737Y-42983564D01*
X35412738Y-42983563D01*
X35428532Y-42972087D01*
X35428532Y-42972086D01*
X34939408Y-42482961D01*
X35002992Y-42465924D01*
X35117006Y-42400098D01*
X35210098Y-42307006D01*
X35275924Y-42192992D01*
X35292961Y-42129407D01*
X35782086Y-42618532D01*
X35782087Y-42618532D01*
X35793563Y-42602738D01*
X35793564Y-42602737D01*
X35875746Y-42441449D01*
X35931681Y-42269297D01*
X35931682Y-42269297D01*
X35932834Y-42262024D01*
X35964205Y-42191564D01*
X36026602Y-42146229D01*
X36103308Y-42138166D01*
X36173768Y-42169537D01*
X36219103Y-42231934D01*
X36227166Y-42262024D01*
X36228317Y-42269297D01*
X36284253Y-42441449D01*
X36366433Y-42602732D01*
X36377912Y-42618532D01*
X36377913Y-42618533D01*
X36867038Y-42129407D01*
X36884076Y-42192992D01*
X36949902Y-42307006D01*
X37042994Y-42400098D01*
X37157008Y-42465924D01*
X37220591Y-42482961D01*
X36731467Y-42972085D01*
X36747273Y-42983570D01*
X36908550Y-43065746D01*
X37080702Y-43121681D01*
X37080702Y-43121682D01*
X37259497Y-43150000D01*
X37440503Y-43150000D01*
X37619297Y-43121682D01*
X37619297Y-43121681D01*
X37791449Y-43065746D01*
X37952737Y-42983564D01*
X37952738Y-42983563D01*
X37968532Y-42972087D01*
X37968532Y-42972086D01*
X37479408Y-42482961D01*
X37542992Y-42465924D01*
X37657006Y-42400098D01*
X37750098Y-42307006D01*
X37815924Y-42192992D01*
X37832961Y-42129407D01*
X38322086Y-42618532D01*
X38322087Y-42618532D01*
X38333563Y-42602738D01*
X38333564Y-42602737D01*
X38415746Y-42441449D01*
X38471681Y-42269297D01*
X38471682Y-42269294D01*
X38472579Y-42263633D01*
X38503945Y-42193170D01*
X38566339Y-42147831D01*
X38643044Y-42139764D01*
X38713507Y-42171130D01*
X38758846Y-42233524D01*
X38766910Y-42263614D01*
X38767827Y-42269403D01*
X38767828Y-42269405D01*
X38767829Y-42269409D01*
X38823789Y-42441639D01*
X38905873Y-42602737D01*
X38906005Y-42602995D01*
X38906005Y-42602996D01*
X38959225Y-42676247D01*
X39012447Y-42749501D01*
X39140499Y-42877553D01*
X39287006Y-42983996D01*
X39448361Y-43066211D01*
X39620591Y-43122171D01*
X39799454Y-43150500D01*
X39799458Y-43150500D01*
X39980542Y-43150500D01*
X39980546Y-43150500D01*
X40159409Y-43122171D01*
X40331639Y-43066211D01*
X40492994Y-42983996D01*
X40639501Y-42877553D01*
X40767553Y-42749501D01*
X40873996Y-42602994D01*
X40956211Y-42441639D01*
X41012171Y-42269409D01*
X41040500Y-42090546D01*
X41040500Y-41909454D01*
X41012171Y-41730591D01*
X40956211Y-41558361D01*
X40873996Y-41397006D01*
X40767553Y-41250499D01*
X40639501Y-41122447D01*
X40551920Y-41058816D01*
X40503382Y-40998876D01*
X40490500Y-40938272D01*
X40490500Y-38920943D01*
X40490499Y-38920941D01*
X40449577Y-38768216D01*
X40370520Y-38631284D01*
X40258716Y-38519480D01*
X40121784Y-38440423D01*
X39969057Y-38399500D01*
X7349500Y-38399500D01*
X7275000Y-38379538D01*
X7220462Y-38325000D01*
X7200500Y-38250500D01*
X7200500Y-37772301D01*
X7220462Y-37697801D01*
X7275000Y-37643263D01*
X7349500Y-37623301D01*
X7424000Y-37643263D01*
X7478537Y-37697800D01*
X7519480Y-37768716D01*
X7631284Y-37880520D01*
X7768216Y-37959577D01*
X7920943Y-38000500D01*
X21702935Y-38000500D01*
X21773174Y-38018094D01*
X21778183Y-38020771D01*
X21778189Y-38020775D01*
X21905672Y-38073580D01*
X22041007Y-38100500D01*
X22178993Y-38100500D01*
X22314328Y-38073580D01*
X22441811Y-38020775D01*
X22556542Y-37944114D01*
X22654114Y-37846542D01*
X22730775Y-37731811D01*
X22783580Y-37604328D01*
X22810500Y-37468993D01*
X22810500Y-37331007D01*
X22783580Y-37195672D01*
X22730775Y-37068189D01*
X22654114Y-36953458D01*
X22556542Y-36855886D01*
X22555515Y-36854859D01*
X22516951Y-36788064D01*
X22516951Y-36710936D01*
X22555515Y-36644141D01*
X22622310Y-36605577D01*
X22660874Y-36600500D01*
X24242935Y-36600500D01*
X24313174Y-36618094D01*
X24318183Y-36620771D01*
X24318189Y-36620775D01*
X24445672Y-36673580D01*
X24581007Y-36700500D01*
X24718993Y-36700500D01*
X24854328Y-36673580D01*
X24981811Y-36620775D01*
X25096542Y-36544114D01*
X25194114Y-36446542D01*
X25270775Y-36331811D01*
X25323580Y-36204328D01*
X25350500Y-36068993D01*
X25350500Y-35931007D01*
X25323580Y-35795672D01*
X25270775Y-35668189D01*
X25194114Y-35553458D01*
X25096542Y-35455886D01*
X25012155Y-35399500D01*
X24981815Y-35379227D01*
X24981809Y-35379224D01*
X24854329Y-35326420D01*
X24854325Y-35326419D01*
X24718993Y-35299500D01*
X24581007Y-35299500D01*
X24445674Y-35326419D01*
X24445670Y-35326420D01*
X24318194Y-35379222D01*
X24313174Y-35381906D01*
X24242935Y-35399500D01*
X10149500Y-35399500D01*
X10075000Y-35379538D01*
X10020462Y-35325000D01*
X10000500Y-35250500D01*
X10000500Y-8787065D01*
X10018097Y-8716821D01*
X10020771Y-8711816D01*
X10020775Y-8711811D01*
X10073580Y-8584328D01*
X10100500Y-8448993D01*
X10100500Y-8311007D01*
X10073580Y-8175672D01*
X10020775Y-8048189D01*
X9944114Y-7933458D01*
X9846542Y-7835886D01*
X9786355Y-7795670D01*
X9731815Y-7759227D01*
X9731809Y-7759224D01*
X9604329Y-7706420D01*
X9604325Y-7706419D01*
X9468993Y-7679500D01*
X9331007Y-7679500D01*
X9195674Y-7706419D01*
X9195670Y-7706420D01*
X9068190Y-7759224D01*
X9068184Y-7759227D01*
X8953461Y-7835883D01*
X8953454Y-7835889D01*
X8855889Y-7933454D01*
X8855883Y-7933461D01*
X8779227Y-8048184D01*
X8779224Y-8048190D01*
X8726420Y-8175670D01*
X8726419Y-8175674D01*
X8699500Y-8311006D01*
X8699500Y-8448993D01*
X8726419Y-8584325D01*
X8726420Y-8584329D01*
X8779222Y-8711806D01*
X8781903Y-8716821D01*
X8799500Y-8787065D01*
X8799500Y-10369126D01*
X8779538Y-10443626D01*
X8725000Y-10498164D01*
X8650500Y-10518126D01*
X8576000Y-10498164D01*
X8545141Y-10474485D01*
X8446545Y-10375889D01*
X8446542Y-10375886D01*
X8446538Y-10375883D01*
X8331815Y-10299227D01*
X8331809Y-10299224D01*
X8204329Y-10246420D01*
X8204325Y-10246419D01*
X8068993Y-10219500D01*
X7931007Y-10219500D01*
X7795674Y-10246419D01*
X7795670Y-10246420D01*
X7668190Y-10299224D01*
X7668184Y-10299227D01*
X7553461Y-10375883D01*
X7553454Y-10375889D01*
X7455889Y-10473454D01*
X7455883Y-10473461D01*
X7379227Y-10588184D01*
X7379224Y-10588190D01*
X7326420Y-10715670D01*
X7326419Y-10715674D01*
X7299500Y-10851006D01*
X7299500Y-10988993D01*
X7326419Y-11124325D01*
X7326420Y-11124329D01*
X7379222Y-11251806D01*
X7381903Y-11256821D01*
X7399500Y-11327065D01*
X7399500Y-12909125D01*
X7379538Y-12983625D01*
X7325000Y-13038163D01*
X7250500Y-13058125D01*
X7176000Y-13038163D01*
X7145142Y-13014484D01*
X7046551Y-12915894D01*
X7046538Y-12915883D01*
X6931815Y-12839227D01*
X6931809Y-12839224D01*
X6804329Y-12786420D01*
X6804325Y-12786419D01*
X6668993Y-12759500D01*
X6531007Y-12759500D01*
X6395674Y-12786419D01*
X6395670Y-12786420D01*
X6268190Y-12839224D01*
X6268184Y-12839227D01*
X6153461Y-12915883D01*
X6153454Y-12915889D01*
X6055889Y-13013454D01*
X6055883Y-13013461D01*
X5979227Y-13128184D01*
X5979224Y-13128190D01*
X5926420Y-13255670D01*
X5926419Y-13255674D01*
X5899500Y-13391006D01*
X5300500Y-13391006D01*
X5300500Y-7349500D01*
X5320462Y-7275000D01*
X5375000Y-7220462D01*
X5449500Y-7200500D01*
X10625620Y-7200500D01*
X10700120Y-7220462D01*
X10754658Y-7275000D01*
X10774620Y-7349500D01*
X10767328Y-7395540D01*
X10764355Y-7404688D01*
X10760661Y-7428010D01*
X10749500Y-7498481D01*
X10749500Y-7498482D01*
X10749500Y-7498485D01*
X10749500Y-9261518D01*
X10755580Y-9299904D01*
X10764354Y-9355304D01*
X10821950Y-9468342D01*
X10911658Y-9558050D01*
X11024696Y-9615646D01*
X11118481Y-9630500D01*
X11188793Y-9630499D01*
X11263290Y-9650460D01*
X11317829Y-9704997D01*
X11337792Y-9779497D01*
X11317831Y-9853997D01*
X11276373Y-9900042D01*
X11185358Y-9966169D01*
X11185352Y-9966174D01*
X11046174Y-10105352D01*
X11046165Y-10105363D01*
X10930477Y-10264593D01*
X10930474Y-10264598D01*
X10841121Y-10439963D01*
X10841114Y-10439981D01*
X10841052Y-10440173D01*
X10780291Y-10627174D01*
X10749500Y-10821583D01*
X10749500Y-11018417D01*
X10780291Y-11212826D01*
X10841116Y-11400025D01*
X10841119Y-11400030D01*
X10841121Y-11400036D01*
X10857678Y-11432530D01*
X10930476Y-11575405D01*
X11046172Y-11734646D01*
X11185354Y-11873828D01*
X11344595Y-11989524D01*
X11378902Y-12007004D01*
X11477495Y-12057240D01*
X11534813Y-12108849D01*
X11558647Y-12182202D01*
X11542611Y-12257644D01*
X11491002Y-12314962D01*
X11477495Y-12322760D01*
X11344598Y-12390474D01*
X11344593Y-12390477D01*
X11185363Y-12506165D01*
X11185352Y-12506174D01*
X11046174Y-12645352D01*
X11046165Y-12645363D01*
X10930477Y-12804593D01*
X10930474Y-12804598D01*
X10841121Y-12979963D01*
X10841117Y-12979972D01*
X10841116Y-12979975D01*
X10780291Y-13167174D01*
X10749500Y-13361583D01*
X10749500Y-13558417D01*
X10780291Y-13752826D01*
X10841116Y-13940025D01*
X10841119Y-13940030D01*
X10841121Y-13940036D01*
X10895387Y-14046538D01*
X10930476Y-14115405D01*
X11046172Y-14274646D01*
X11185354Y-14413828D01*
X11344595Y-14529524D01*
X11412744Y-14564247D01*
X11477495Y-14597240D01*
X11534813Y-14648849D01*
X11558647Y-14722202D01*
X11542611Y-14797644D01*
X11491002Y-14854962D01*
X11477495Y-14862760D01*
X11344598Y-14930474D01*
X11344593Y-14930477D01*
X11185363Y-15046165D01*
X11185352Y-15046174D01*
X11046174Y-15185352D01*
X11046165Y-15185363D01*
X10930477Y-15344593D01*
X10930474Y-15344598D01*
X10841121Y-15519963D01*
X10841117Y-15519972D01*
X10841116Y-15519975D01*
X10780291Y-15707174D01*
X10749500Y-15901583D01*
X10749500Y-16098417D01*
X10780291Y-16292826D01*
X10841116Y-16480025D01*
X10841119Y-16480030D01*
X10841121Y-16480036D01*
X10919624Y-16634106D01*
X10930476Y-16655405D01*
X11046172Y-16814646D01*
X11185354Y-16953828D01*
X11344595Y-17069524D01*
X11412744Y-17104247D01*
X11477495Y-17137240D01*
X11534813Y-17188849D01*
X11558647Y-17262202D01*
X11542611Y-17337644D01*
X11491002Y-17394962D01*
X11477495Y-17402760D01*
X11344598Y-17470474D01*
X11344593Y-17470477D01*
X11185363Y-17586165D01*
X11185352Y-17586174D01*
X11046174Y-17725352D01*
X11046165Y-17725363D01*
X10930477Y-17884593D01*
X10930474Y-17884598D01*
X10841121Y-18059963D01*
X10841117Y-18059972D01*
X10841116Y-18059975D01*
X10780291Y-18247174D01*
X10749500Y-18441583D01*
X10749500Y-18638417D01*
X10780291Y-18832826D01*
X10841116Y-19020025D01*
X10841119Y-19020030D01*
X10841121Y-19020036D01*
X10904340Y-19144110D01*
X10930476Y-19195405D01*
X11046172Y-19354646D01*
X11185354Y-19493828D01*
X11344595Y-19609524D01*
X11412744Y-19644247D01*
X11477495Y-19677240D01*
X11534813Y-19728849D01*
X11558647Y-19802202D01*
X11542611Y-19877644D01*
X11491002Y-19934962D01*
X11477495Y-19942760D01*
X11344598Y-20010474D01*
X11344593Y-20010477D01*
X11185363Y-20126165D01*
X11185352Y-20126174D01*
X11046174Y-20265352D01*
X11046165Y-20265363D01*
X10930477Y-20424593D01*
X10930474Y-20424598D01*
X10841121Y-20599963D01*
X10841117Y-20599972D01*
X10841116Y-20599975D01*
X10780291Y-20787174D01*
X10749500Y-20981583D01*
X10749500Y-21178417D01*
X10780291Y-21372826D01*
X10841116Y-21560025D01*
X10841119Y-21560030D01*
X10841121Y-21560036D01*
X10872584Y-21621785D01*
X10930476Y-21735405D01*
X11046172Y-21894646D01*
X11185354Y-22033828D01*
X11344595Y-22149524D01*
X11412744Y-22184247D01*
X11477495Y-22217240D01*
X11534813Y-22268849D01*
X11558647Y-22342202D01*
X11542611Y-22417644D01*
X11491002Y-22474962D01*
X11477495Y-22482760D01*
X11344598Y-22550474D01*
X11344593Y-22550477D01*
X11185363Y-22666165D01*
X11185352Y-22666174D01*
X11046174Y-22805352D01*
X11046165Y-22805363D01*
X10930477Y-22964593D01*
X10930474Y-22964598D01*
X10841121Y-23139963D01*
X10841117Y-23139972D01*
X10841116Y-23139975D01*
X10780291Y-23327174D01*
X10749500Y-23521583D01*
X10749500Y-23718417D01*
X10780291Y-23912826D01*
X10841116Y-24100025D01*
X10841119Y-24100030D01*
X10841121Y-24100036D01*
X10925179Y-24265010D01*
X10930476Y-24275405D01*
X11046172Y-24434646D01*
X11185354Y-24573828D01*
X11185362Y-24573834D01*
X11338081Y-24684791D01*
X11386619Y-24744731D01*
X11399500Y-24805334D01*
X11399500Y-27520943D01*
X11399500Y-27679057D01*
X11440423Y-27831784D01*
X11519480Y-27968716D01*
X11631284Y-28080520D01*
X11768216Y-28159577D01*
X11920943Y-28200500D01*
X17842935Y-28200500D01*
X17913174Y-28218094D01*
X17918183Y-28220771D01*
X17918189Y-28220775D01*
X18045672Y-28273580D01*
X18181007Y-28300500D01*
X18318993Y-28300500D01*
X18454328Y-28273580D01*
X18581811Y-28220775D01*
X18696542Y-28144114D01*
X18794114Y-28046542D01*
X18870775Y-27931811D01*
X18923580Y-27804328D01*
X18950500Y-27668993D01*
X18950500Y-27531007D01*
X18923580Y-27395672D01*
X18870775Y-27268189D01*
X18794114Y-27153458D01*
X18696542Y-27055886D01*
X18612155Y-26999500D01*
X18581815Y-26979227D01*
X18581809Y-26979224D01*
X18454329Y-26926420D01*
X18454325Y-26926419D01*
X18318993Y-26899500D01*
X18181007Y-26899500D01*
X18045674Y-26926419D01*
X18045670Y-26926420D01*
X17918194Y-26979222D01*
X17913174Y-26981906D01*
X17842935Y-26999500D01*
X12749500Y-26999500D01*
X12675000Y-26979538D01*
X12620462Y-26925000D01*
X12600500Y-26850500D01*
X12600500Y-24805334D01*
X12620462Y-24730834D01*
X12661919Y-24684791D01*
X12814646Y-24573828D01*
X12953828Y-24434646D01*
X13069524Y-24275405D01*
X13158884Y-24100025D01*
X13219709Y-23912826D01*
X13250500Y-23718417D01*
X13250500Y-23521583D01*
X13219709Y-23327174D01*
X13158884Y-23139975D01*
X13069524Y-22964595D01*
X12953828Y-22805354D01*
X12814646Y-22666172D01*
X12655405Y-22550476D01*
X12522503Y-22482759D01*
X12465186Y-22431152D01*
X12441352Y-22357799D01*
X12457388Y-22282356D01*
X12508996Y-22225038D01*
X12522504Y-22217240D01*
X12655405Y-22149524D01*
X12814646Y-22033828D01*
X12953828Y-21894646D01*
X13069524Y-21735405D01*
X13158884Y-21560025D01*
X13219709Y-21372826D01*
X13250500Y-21178417D01*
X13250500Y-20981583D01*
X13219709Y-20787174D01*
X13158884Y-20599975D01*
X13069524Y-20424595D01*
X12953828Y-20265354D01*
X12814646Y-20126172D01*
X12655405Y-20010476D01*
X12522503Y-19942759D01*
X12465186Y-19891152D01*
X12441352Y-19817799D01*
X12457388Y-19742356D01*
X12508996Y-19685038D01*
X12522504Y-19677240D01*
X12655405Y-19609524D01*
X12814646Y-19493828D01*
X12953828Y-19354646D01*
X13069524Y-19195405D01*
X13158884Y-19020025D01*
X13219709Y-18832826D01*
X13250500Y-18638417D01*
X13250500Y-18441583D01*
X13219709Y-18247174D01*
X13158884Y-18059975D01*
X13069524Y-17884595D01*
X12953828Y-17725354D01*
X12814646Y-17586172D01*
X12655405Y-17470476D01*
X12522503Y-17402759D01*
X12465186Y-17351152D01*
X12441352Y-17277799D01*
X12457388Y-17202356D01*
X12508996Y-17145038D01*
X12522504Y-17137240D01*
X12655405Y-17069524D01*
X12814646Y-16953828D01*
X12953828Y-16814646D01*
X13069524Y-16655405D01*
X13158884Y-16480025D01*
X13219709Y-16292826D01*
X13250500Y-16098417D01*
X13250500Y-15901583D01*
X13219709Y-15707174D01*
X13158884Y-15519975D01*
X13069524Y-15344595D01*
X12953828Y-15185354D01*
X12814646Y-15046172D01*
X12655405Y-14930476D01*
X12522503Y-14862759D01*
X12465186Y-14811152D01*
X12441352Y-14737799D01*
X12457388Y-14662356D01*
X12508996Y-14605038D01*
X12522504Y-14597240D01*
X12655405Y-14529524D01*
X12814646Y-14413828D01*
X12953828Y-14274646D01*
X13069524Y-14115405D01*
X13158884Y-13940025D01*
X13219709Y-13752826D01*
X13250500Y-13558417D01*
X13250500Y-13361583D01*
X13219709Y-13167174D01*
X13158884Y-12979975D01*
X13069524Y-12804595D01*
X12953828Y-12645354D01*
X12814646Y-12506172D01*
X12655405Y-12390476D01*
X12522503Y-12322759D01*
X12465186Y-12271152D01*
X12441352Y-12197799D01*
X12457388Y-12122356D01*
X12508996Y-12065038D01*
X12522504Y-12057240D01*
X12655405Y-11989524D01*
X12814646Y-11873828D01*
X12953828Y-11734646D01*
X13069524Y-11575405D01*
X13158884Y-11400025D01*
X13219709Y-11212826D01*
X13250500Y-11018417D01*
X13250500Y-10821583D01*
X13219709Y-10627174D01*
X13158884Y-10439975D01*
X13069524Y-10264595D01*
X12953828Y-10105354D01*
X12814646Y-9966172D01*
X12723625Y-9900041D01*
X12675088Y-9840103D01*
X12663022Y-9763924D01*
X12690663Y-9691919D01*
X12750602Y-9643381D01*
X12811205Y-9630499D01*
X12881518Y-9630499D01*
X12881519Y-9630499D01*
X12894341Y-9628468D01*
X12975304Y-9615646D01*
X13088342Y-9558050D01*
X13178050Y-9468342D01*
X13235646Y-9355304D01*
X13250500Y-9261519D01*
X13250499Y-7498482D01*
X13235646Y-7404696D01*
X13235644Y-7404693D01*
X13235644Y-7404690D01*
X13232671Y-7395538D01*
X13228637Y-7318516D01*
X13263655Y-7249795D01*
X13328342Y-7207791D01*
X13374380Y-7200500D01*
X25865620Y-7200500D01*
X25940120Y-7220462D01*
X25994658Y-7275000D01*
X26014620Y-7349500D01*
X26007328Y-7395540D01*
X26004355Y-7404688D01*
X26000661Y-7428010D01*
X25989500Y-7498481D01*
X25989500Y-7498482D01*
X25989500Y-7498485D01*
X25989500Y-9261518D01*
X25995580Y-9299904D01*
X26004354Y-9355304D01*
X26061950Y-9468342D01*
X26151658Y-9558050D01*
X26264696Y-9615646D01*
X26358481Y-9630500D01*
X26429641Y-9630499D01*
X26504138Y-9650460D01*
X26558677Y-9704997D01*
X26578640Y-9779497D01*
X26558679Y-9853997D01*
X26550956Y-9862574D01*
X26549874Y-9876319D01*
X27069756Y-10396202D01*
X27027703Y-10407470D01*
X26902285Y-10479881D01*
X26799881Y-10582285D01*
X26727470Y-10707703D01*
X26716202Y-10749756D01*
X26196319Y-10229874D01*
X26170902Y-10264859D01*
X26170901Y-10264860D01*
X26081585Y-10440155D01*
X26081578Y-10440173D01*
X26020779Y-10627291D01*
X25990000Y-10821627D01*
X25990000Y-11018372D01*
X26020779Y-11212708D01*
X26081578Y-11399826D01*
X26081585Y-11399843D01*
X26170905Y-11575145D01*
X26196320Y-11610124D01*
X26716201Y-11090242D01*
X26727470Y-11132297D01*
X26799881Y-11257715D01*
X26902285Y-11360119D01*
X27027703Y-11432530D01*
X27069755Y-11443797D01*
X26549874Y-11963678D01*
X26584862Y-11989098D01*
X26718046Y-12056959D01*
X26775364Y-12108568D01*
X26799198Y-12181921D01*
X26783162Y-12257363D01*
X26731553Y-12314681D01*
X26718047Y-12322479D01*
X26584593Y-12390477D01*
X26425363Y-12506165D01*
X26425352Y-12506174D01*
X26286174Y-12645352D01*
X26286165Y-12645363D01*
X26170477Y-12804593D01*
X26170474Y-12804598D01*
X26081121Y-12979963D01*
X26081117Y-12979972D01*
X26081116Y-12979975D01*
X26020291Y-13167174D01*
X25989500Y-13361583D01*
X25989500Y-13558417D01*
X26020291Y-13752826D01*
X26081116Y-13940025D01*
X26081119Y-13940030D01*
X26081121Y-13940036D01*
X26135387Y-14046538D01*
X26170476Y-14115405D01*
X26286172Y-14274646D01*
X26425354Y-14413828D01*
X26584595Y-14529524D01*
X26652744Y-14564247D01*
X26717495Y-14597240D01*
X26774813Y-14648849D01*
X26798647Y-14722202D01*
X26782611Y-14797644D01*
X26731002Y-14854962D01*
X26717495Y-14862760D01*
X26584598Y-14930474D01*
X26584593Y-14930477D01*
X26425363Y-15046165D01*
X26425352Y-15046174D01*
X26286174Y-15185352D01*
X26286165Y-15185363D01*
X26170477Y-15344593D01*
X26170474Y-15344598D01*
X26081121Y-15519963D01*
X26081117Y-15519972D01*
X26081116Y-15519975D01*
X26020291Y-15707174D01*
X25989500Y-15901583D01*
X25989500Y-16098417D01*
X26020291Y-16292826D01*
X26081116Y-16480025D01*
X26081119Y-16480030D01*
X26081121Y-16480036D01*
X26159624Y-16634106D01*
X26170476Y-16655405D01*
X26286172Y-16814646D01*
X26425354Y-16953828D01*
X26584595Y-17069524D01*
X26652744Y-17104247D01*
X26717495Y-17137240D01*
X26774813Y-17188849D01*
X26798647Y-17262202D01*
X26782611Y-17337644D01*
X26731002Y-17394962D01*
X26717495Y-17402760D01*
X26584598Y-17470474D01*
X26584593Y-17470477D01*
X26425363Y-17586165D01*
X26425352Y-17586174D01*
X26286174Y-17725352D01*
X26286165Y-17725363D01*
X26170477Y-17884593D01*
X26170474Y-17884598D01*
X26081121Y-18059963D01*
X26081117Y-18059972D01*
X26081116Y-18059975D01*
X26020291Y-18247174D01*
X25989500Y-18441583D01*
X25989500Y-18638417D01*
X26020291Y-18832826D01*
X26081116Y-19020025D01*
X26081119Y-19020030D01*
X26081121Y-19020036D01*
X26144340Y-19144110D01*
X26170476Y-19195405D01*
X26286172Y-19354646D01*
X26425354Y-19493828D01*
X26584595Y-19609524D01*
X26652744Y-19644247D01*
X26717495Y-19677240D01*
X26774813Y-19728849D01*
X26798647Y-19802202D01*
X26782611Y-19877644D01*
X26731002Y-19934962D01*
X26717495Y-19942760D01*
X26584598Y-20010474D01*
X26584593Y-20010477D01*
X26425363Y-20126165D01*
X26425352Y-20126174D01*
X26286174Y-20265352D01*
X26286165Y-20265363D01*
X26170477Y-20424593D01*
X26170474Y-20424598D01*
X26081121Y-20599963D01*
X26081117Y-20599972D01*
X26081116Y-20599975D01*
X26020291Y-20787174D01*
X25989500Y-20981583D01*
X25989500Y-21178417D01*
X26020291Y-21372826D01*
X26081116Y-21560025D01*
X26081119Y-21560030D01*
X26081121Y-21560036D01*
X26112584Y-21621785D01*
X26170476Y-21735405D01*
X26286172Y-21894646D01*
X26425354Y-22033828D01*
X26584595Y-22149524D01*
X26652744Y-22184247D01*
X26717495Y-22217240D01*
X26774813Y-22268849D01*
X26798647Y-22342202D01*
X26782611Y-22417644D01*
X26731002Y-22474962D01*
X26717495Y-22482760D01*
X26584598Y-22550474D01*
X26584593Y-22550477D01*
X26425363Y-22666165D01*
X26425352Y-22666174D01*
X26286174Y-22805352D01*
X26286165Y-22805363D01*
X26170477Y-22964593D01*
X26170474Y-22964598D01*
X26081121Y-23139963D01*
X26081117Y-23139972D01*
X26081116Y-23139975D01*
X26020291Y-23327174D01*
X25989500Y-23521583D01*
X25989500Y-23718417D01*
X26020291Y-23912826D01*
X26081116Y-24100025D01*
X26081119Y-24100030D01*
X26081121Y-24100036D01*
X26165179Y-24265010D01*
X26170476Y-24275405D01*
X26286172Y-24434646D01*
X26425354Y-24573828D01*
X26584595Y-24689524D01*
X26759975Y-24778884D01*
X26947174Y-24839709D01*
X27141583Y-24870500D01*
X27141588Y-24870500D01*
X27338412Y-24870500D01*
X27338417Y-24870500D01*
X27532826Y-24839709D01*
X27720025Y-24778884D01*
X27895405Y-24689524D01*
X28054646Y-24573828D01*
X28193828Y-24434646D01*
X28309524Y-24275405D01*
X28398884Y-24100025D01*
X28459709Y-23912826D01*
X28490500Y-23718417D01*
X28490500Y-23521583D01*
X28459709Y-23327174D01*
X28398884Y-23139975D01*
X28309524Y-22964595D01*
X28193828Y-22805354D01*
X28054646Y-22666172D01*
X27895405Y-22550476D01*
X27762503Y-22482759D01*
X27705186Y-22431152D01*
X27681352Y-22357799D01*
X27697388Y-22282356D01*
X27748996Y-22225038D01*
X27762504Y-22217240D01*
X27895405Y-22149524D01*
X28054646Y-22033828D01*
X28193828Y-21894646D01*
X28309524Y-21735405D01*
X28398884Y-21560025D01*
X28459709Y-21372826D01*
X28490500Y-21178417D01*
X28490500Y-20981583D01*
X28459709Y-20787174D01*
X28398884Y-20599975D01*
X28309524Y-20424595D01*
X28193828Y-20265354D01*
X28054646Y-20126172D01*
X27895405Y-20010476D01*
X27762503Y-19942759D01*
X27705186Y-19891152D01*
X27681352Y-19817799D01*
X27697388Y-19742356D01*
X27748996Y-19685038D01*
X27762504Y-19677240D01*
X27895405Y-19609524D01*
X28054646Y-19493828D01*
X28193828Y-19354646D01*
X28309524Y-19195405D01*
X28398884Y-19020025D01*
X28459709Y-18832826D01*
X28490500Y-18638417D01*
X28490500Y-18441583D01*
X28459709Y-18247174D01*
X28398884Y-18059975D01*
X28309524Y-17884595D01*
X28193828Y-17725354D01*
X28054646Y-17586172D01*
X27895405Y-17470476D01*
X27762503Y-17402759D01*
X27705186Y-17351152D01*
X27681352Y-17277799D01*
X27697388Y-17202356D01*
X27748996Y-17145038D01*
X27762504Y-17137240D01*
X27895405Y-17069524D01*
X28054646Y-16953828D01*
X28193828Y-16814646D01*
X28309524Y-16655405D01*
X28398884Y-16480025D01*
X28459709Y-16292826D01*
X28490500Y-16098417D01*
X28490500Y-15901583D01*
X28459709Y-15707174D01*
X28398884Y-15519975D01*
X28309524Y-15344595D01*
X28193828Y-15185354D01*
X28054646Y-15046172D01*
X27895405Y-14930476D01*
X27762503Y-14862759D01*
X27705186Y-14811152D01*
X27681352Y-14737799D01*
X27697388Y-14662356D01*
X27748996Y-14605038D01*
X27762504Y-14597240D01*
X27895405Y-14529524D01*
X28054646Y-14413828D01*
X28193828Y-14274646D01*
X28309524Y-14115405D01*
X28398884Y-13940025D01*
X28459709Y-13752826D01*
X28490500Y-13558417D01*
X28490500Y-13361583D01*
X28459709Y-13167174D01*
X28398884Y-12979975D01*
X28309524Y-12804595D01*
X28193828Y-12645354D01*
X28054646Y-12506172D01*
X27895405Y-12390476D01*
X27761953Y-12322479D01*
X27704635Y-12270870D01*
X27680801Y-12197517D01*
X27696837Y-12122075D01*
X27748446Y-12064757D01*
X27761953Y-12056959D01*
X27895138Y-11989098D01*
X27930123Y-11963678D01*
X27410243Y-11443797D01*
X27452297Y-11432530D01*
X27577715Y-11360119D01*
X27680119Y-11257715D01*
X27752530Y-11132297D01*
X27763798Y-11090243D01*
X28283678Y-11610123D01*
X28309098Y-11575138D01*
X28398414Y-11399844D01*
X28398421Y-11399826D01*
X28459220Y-11212708D01*
X28490000Y-11018372D01*
X28490000Y-10821627D01*
X28459220Y-10627291D01*
X28398421Y-10440173D01*
X28398414Y-10440155D01*
X28309098Y-10264861D01*
X28283678Y-10229874D01*
X27763797Y-10749755D01*
X27752530Y-10707703D01*
X27680119Y-10582285D01*
X27577715Y-10479881D01*
X27452297Y-10407470D01*
X27410242Y-10396201D01*
X27930124Y-9876320D01*
X27928677Y-9857935D01*
X27914237Y-9840103D01*
X27902171Y-9763925D01*
X27929811Y-9691919D01*
X27989751Y-9643381D01*
X28050354Y-9630499D01*
X28121518Y-9630499D01*
X28121519Y-9630499D01*
X28134341Y-9628468D01*
X28215304Y-9615646D01*
X28328342Y-9558050D01*
X28418050Y-9468342D01*
X28475646Y-9355304D01*
X28490500Y-9261519D01*
X28490499Y-7498482D01*
X28475646Y-7404696D01*
X28475644Y-7404693D01*
X28475644Y-7404690D01*
X28472671Y-7395538D01*
X28468637Y-7318516D01*
X28503655Y-7249795D01*
X28568342Y-7207791D01*
X28614380Y-7200500D01*
X33050500Y-7200500D01*
X33125000Y-7220462D01*
X33179538Y-7275000D01*
X33199500Y-7349500D01*
X33199500Y-29078842D01*
X33230262Y-29233494D01*
X33230263Y-29233498D01*
X33290604Y-29379176D01*
X33290605Y-29379178D01*
X33290606Y-29379179D01*
X33378211Y-29510289D01*
X33489711Y-29621789D01*
X33620821Y-29709394D01*
X33766503Y-29769737D01*
X33921158Y-29800500D01*
X34078842Y-29800500D01*
X39050500Y-29800500D01*
X39125000Y-29820462D01*
X39179538Y-29875000D01*
X39199500Y-29949500D01*
X39199500Y-31078842D01*
X39230262Y-31233494D01*
X39230263Y-31233498D01*
X39290604Y-31379176D01*
X39290605Y-31379178D01*
X39290606Y-31379179D01*
X39378211Y-31510289D01*
X39489711Y-31621789D01*
X39620821Y-31709394D01*
X39766503Y-31769737D01*
X39921158Y-31800500D01*
X40078842Y-31800500D01*
X40233497Y-31769737D01*
X40379179Y-31709394D01*
X40510289Y-31621789D01*
X40621789Y-31510289D01*
X40709394Y-31379179D01*
X40769737Y-31233497D01*
X40800500Y-31078842D01*
X40800500Y-28921158D01*
X40769737Y-28766503D01*
X40709394Y-28620821D01*
X40621789Y-28489711D01*
X40510289Y-28378211D01*
X40379179Y-28290606D01*
X40379178Y-28290605D01*
X40379176Y-28290604D01*
X40233498Y-28230263D01*
X40233494Y-28230262D01*
X40078842Y-28199500D01*
X34949500Y-28199500D01*
X34875000Y-28179538D01*
X34820462Y-28125000D01*
X34800500Y-28050500D01*
X34800500Y-22981006D01*
X42299500Y-22981006D01*
X42299500Y-23118993D01*
X42326419Y-23254325D01*
X42326420Y-23254329D01*
X42379222Y-23381806D01*
X42381903Y-23386821D01*
X42399500Y-23457065D01*
X42399500Y-29592934D01*
X42381908Y-29663168D01*
X42379225Y-29668186D01*
X42326420Y-29795670D01*
X42326419Y-29795674D01*
X42299500Y-29931006D01*
X42299500Y-30068993D01*
X42326419Y-30204325D01*
X42326420Y-30204329D01*
X42379224Y-30331809D01*
X42379227Y-30331815D01*
X42455883Y-30446538D01*
X42455886Y-30446542D01*
X42553458Y-30544114D01*
X42553461Y-30544116D01*
X42668184Y-30620772D01*
X42668186Y-30620773D01*
X42668189Y-30620775D01*
X42795672Y-30673580D01*
X42931007Y-30700500D01*
X43068993Y-30700500D01*
X43204328Y-30673580D01*
X43331811Y-30620775D01*
X43446542Y-30544114D01*
X43544114Y-30446542D01*
X43620775Y-30331811D01*
X43673580Y-30204328D01*
X43700500Y-30068993D01*
X43700500Y-29931007D01*
X43673580Y-29795672D01*
X43620775Y-29668189D01*
X43620774Y-29668186D01*
X43618092Y-29663168D01*
X43600500Y-29592934D01*
X43600500Y-23457065D01*
X43618097Y-23386821D01*
X43620771Y-23381816D01*
X43620775Y-23381811D01*
X43673580Y-23254328D01*
X43700500Y-23118993D01*
X43700500Y-22981007D01*
X43697235Y-22964595D01*
X43673580Y-22845674D01*
X43673579Y-22845670D01*
X43620775Y-22718189D01*
X43544114Y-22603458D01*
X43446542Y-22505886D01*
X43411932Y-22482760D01*
X43331815Y-22429227D01*
X43331809Y-22429224D01*
X43204329Y-22376420D01*
X43204325Y-22376419D01*
X43068993Y-22349500D01*
X42931007Y-22349500D01*
X42795674Y-22376419D01*
X42795670Y-22376420D01*
X42668190Y-22429224D01*
X42668184Y-22429227D01*
X42553461Y-22505883D01*
X42553454Y-22505889D01*
X42455889Y-22603454D01*
X42455883Y-22603461D01*
X42379227Y-22718184D01*
X42379224Y-22718190D01*
X42326420Y-22845670D01*
X42326419Y-22845674D01*
X42299500Y-22981006D01*
X34800500Y-22981006D01*
X34800500Y-15049999D01*
X54029156Y-15049999D01*
X54029157Y-15050000D01*
X54734318Y-15050000D01*
X54729923Y-15054395D01*
X54677262Y-15145606D01*
X54650003Y-15247339D01*
X54650003Y-15352661D01*
X54677262Y-15454394D01*
X54729923Y-15545605D01*
X54734318Y-15550000D01*
X54029157Y-15550000D01*
X54040349Y-15606269D01*
X54040350Y-15606273D01*
X54119499Y-15797357D01*
X54119504Y-15797367D01*
X54234410Y-15969334D01*
X54234414Y-15969339D01*
X54380660Y-16115585D01*
X54380665Y-16115589D01*
X54552632Y-16230495D01*
X54552642Y-16230500D01*
X54743726Y-16309649D01*
X54743728Y-16309650D01*
X54946584Y-16350000D01*
X55900000Y-16350000D01*
X55900000Y-15699999D01*
X56400000Y-15699999D01*
X56400000Y-16350000D01*
X57353416Y-16350000D01*
X57556271Y-16309650D01*
X57556273Y-16309649D01*
X57747357Y-16230500D01*
X57747367Y-16230495D01*
X57919334Y-16115589D01*
X57919339Y-16115585D01*
X58065585Y-15969339D01*
X58065589Y-15969334D01*
X58180495Y-15797367D01*
X58180500Y-15797357D01*
X58259649Y-15606273D01*
X58259650Y-15606269D01*
X58270843Y-15550000D01*
X57565682Y-15550000D01*
X57570077Y-15545605D01*
X57622738Y-15454394D01*
X57649997Y-15352661D01*
X57649997Y-15247339D01*
X57622738Y-15145606D01*
X57570077Y-15054395D01*
X57565682Y-15050000D01*
X58270843Y-15050000D01*
X58270843Y-15049999D01*
X58259650Y-14993730D01*
X58259649Y-14993726D01*
X58180500Y-14802642D01*
X58180495Y-14802632D01*
X58065589Y-14630665D01*
X58065585Y-14630660D01*
X57919339Y-14484414D01*
X57919334Y-14484410D01*
X57747367Y-14369504D01*
X57747357Y-14369499D01*
X57556273Y-14290350D01*
X57556271Y-14290349D01*
X57353416Y-14250000D01*
X56400000Y-14250000D01*
X56400000Y-14900001D01*
X55900000Y-14900001D01*
X55900000Y-14250000D01*
X54946584Y-14250000D01*
X54743728Y-14290349D01*
X54743726Y-14290350D01*
X54552642Y-14369499D01*
X54552632Y-14369504D01*
X54380665Y-14484410D01*
X54380660Y-14484414D01*
X54234414Y-14630660D01*
X54234410Y-14630665D01*
X54119504Y-14802632D01*
X54119499Y-14802642D01*
X54040350Y-14993726D01*
X54040349Y-14993730D01*
X54029156Y-15049999D01*
X34800500Y-15049999D01*
X34800500Y-14205352D01*
X34820462Y-14130852D01*
X34875000Y-14076314D01*
X34949500Y-14056352D01*
X35024000Y-14076314D01*
X35031282Y-14080518D01*
X35031284Y-14080520D01*
X35168216Y-14159577D01*
X35320943Y-14200500D01*
X44192935Y-14200500D01*
X44263174Y-14218094D01*
X44268183Y-14220771D01*
X44268189Y-14220775D01*
X44395672Y-14273580D01*
X44531007Y-14300500D01*
X44668993Y-14300500D01*
X44804328Y-14273580D01*
X44931811Y-14220775D01*
X45046542Y-14144114D01*
X45144114Y-14046542D01*
X45220775Y-13931811D01*
X45273580Y-13804328D01*
X45300500Y-13668993D01*
X45300500Y-13531007D01*
X45300099Y-13528993D01*
X45273580Y-13395674D01*
X45273579Y-13395670D01*
X45271647Y-13391006D01*
X45220775Y-13268189D01*
X45212411Y-13255672D01*
X45144116Y-13153461D01*
X45144114Y-13153458D01*
X45046542Y-13055886D01*
X44983049Y-13013461D01*
X44931815Y-12979227D01*
X44931809Y-12979224D01*
X44804329Y-12926420D01*
X44804325Y-12926419D01*
X44668993Y-12899500D01*
X44531007Y-12899500D01*
X44395674Y-12926419D01*
X44395670Y-12926420D01*
X44268194Y-12979222D01*
X44263174Y-12981906D01*
X44192935Y-12999500D01*
X36149500Y-12999500D01*
X36075000Y-12979538D01*
X36020462Y-12925000D01*
X36000500Y-12850500D01*
X36000500Y-9609496D01*
X51700000Y-9609496D01*
X51700000Y-10450000D01*
X52350001Y-10450000D01*
X52350001Y-10950000D01*
X51700000Y-10950000D01*
X51700000Y-11790503D01*
X51728317Y-11969297D01*
X51784253Y-12141449D01*
X51866432Y-12302732D01*
X51866433Y-12302733D01*
X51972828Y-12449173D01*
X51972830Y-12449176D01*
X52100823Y-12577169D01*
X52100826Y-12577171D01*
X52247266Y-12683566D01*
X52247267Y-12683567D01*
X52408550Y-12765746D01*
X52580702Y-12821681D01*
X52600000Y-12824737D01*
X52600000Y-12133008D01*
X52657008Y-12165922D01*
X52784174Y-12199997D01*
X52915826Y-12199997D01*
X53042992Y-12165922D01*
X53100000Y-12133008D01*
X53100000Y-12824737D01*
X53119297Y-12821681D01*
X53291449Y-12765746D01*
X53452732Y-12683567D01*
X53452733Y-12683566D01*
X53599173Y-12577171D01*
X53599176Y-12577169D01*
X53727169Y-12449176D01*
X53727171Y-12449173D01*
X53833566Y-12302733D01*
X53833567Y-12302732D01*
X53915746Y-12141449D01*
X53971681Y-11969297D01*
X53971682Y-11969297D01*
X54000000Y-11790503D01*
X54000000Y-10950000D01*
X53349999Y-10950000D01*
X53349999Y-10450000D01*
X54000000Y-10450000D01*
X54000000Y-9609496D01*
X53999993Y-9609454D01*
X57999500Y-9609454D01*
X57999500Y-11790546D01*
X58027829Y-11969409D01*
X58083789Y-12141639D01*
X58165871Y-12302733D01*
X58166005Y-12302995D01*
X58166005Y-12302996D01*
X58219225Y-12376247D01*
X58272447Y-12449501D01*
X58400499Y-12577553D01*
X58547006Y-12683996D01*
X58708361Y-12766211D01*
X58880591Y-12822171D01*
X59059454Y-12850500D01*
X59059458Y-12850500D01*
X59240542Y-12850500D01*
X59240546Y-12850500D01*
X59419409Y-12822171D01*
X59591639Y-12766211D01*
X59752994Y-12683996D01*
X59899501Y-12577553D01*
X60027553Y-12449501D01*
X60133996Y-12302994D01*
X60216211Y-12141639D01*
X60272171Y-11969409D01*
X60300500Y-11790546D01*
X60300500Y-9609454D01*
X60272171Y-9430591D01*
X60216211Y-9258361D01*
X60133996Y-9097006D01*
X60027553Y-8950499D01*
X59899501Y-8822447D01*
X59752994Y-8716004D01*
X59591639Y-8633789D01*
X59419409Y-8577829D01*
X59240546Y-8549500D01*
X59059454Y-8549500D01*
X58896805Y-8575261D01*
X58880591Y-8577829D01*
X58708360Y-8633789D01*
X58547004Y-8716005D01*
X58547003Y-8716005D01*
X58400500Y-8822446D01*
X58400497Y-8822448D01*
X58272448Y-8950497D01*
X58272446Y-8950500D01*
X58166005Y-9097003D01*
X58166005Y-9097004D01*
X58083789Y-9258360D01*
X58052290Y-9355306D01*
X58027829Y-9430591D01*
X57999500Y-9609454D01*
X53999993Y-9609454D01*
X53971682Y-9430702D01*
X53915746Y-9258550D01*
X53833567Y-9097267D01*
X53833566Y-9097266D01*
X53727171Y-8950826D01*
X53727169Y-8950823D01*
X53599176Y-8822830D01*
X53599173Y-8822828D01*
X53452733Y-8716433D01*
X53452732Y-8716432D01*
X53291453Y-8634255D01*
X53119292Y-8578317D01*
X53119284Y-8578316D01*
X53100000Y-8575261D01*
X53100000Y-9266991D01*
X53042992Y-9234078D01*
X52915826Y-9200003D01*
X52784174Y-9200003D01*
X52657008Y-9234078D01*
X52600000Y-9266991D01*
X52600000Y-8575261D01*
X52580715Y-8578316D01*
X52580707Y-8578317D01*
X52408546Y-8634255D01*
X52247267Y-8716432D01*
X52247266Y-8716433D01*
X52100826Y-8822828D01*
X52100823Y-8822830D01*
X51972830Y-8950823D01*
X51972828Y-8950826D01*
X51866433Y-9097266D01*
X51866432Y-9097267D01*
X51784253Y-9258550D01*
X51728318Y-9430702D01*
X51728317Y-9430702D01*
X51700000Y-9609496D01*
X36000500Y-9609496D01*
X36000500Y-8407065D01*
X36018097Y-8336821D01*
X36020771Y-8331816D01*
X36020775Y-8331811D01*
X36073580Y-8204328D01*
X36100500Y-8068993D01*
X36100500Y-7931007D01*
X36073580Y-7795672D01*
X36020775Y-7668189D01*
X35999499Y-7636348D01*
X35944116Y-7553461D01*
X35944114Y-7553458D01*
X35846542Y-7455886D01*
X35804823Y-7428010D01*
X35731815Y-7379227D01*
X35731809Y-7379224D01*
X35604329Y-7326420D01*
X35604325Y-7326419D01*
X35468993Y-7299500D01*
X35331007Y-7299500D01*
X35195674Y-7326419D01*
X35195670Y-7326420D01*
X35068190Y-7379224D01*
X35068186Y-7379226D01*
X35032280Y-7403218D01*
X34959245Y-7428010D01*
X34883599Y-7412963D01*
X34825611Y-7362109D01*
X34800819Y-7289074D01*
X34800500Y-7279329D01*
X34800500Y-6321157D01*
X34769737Y-6166505D01*
X34769736Y-6166501D01*
X34709395Y-6020823D01*
X34709394Y-6020821D01*
X34621789Y-5889711D01*
X34510289Y-5778211D01*
X34379179Y-5690606D01*
X34379178Y-5690605D01*
X34379176Y-5690604D01*
X34233498Y-5630263D01*
X34233494Y-5630262D01*
X34078842Y-5599500D01*
X4620635Y-5599500D01*
X4546135Y-5579538D01*
X4491597Y-5525000D01*
X4471635Y-5450500D01*
X4491597Y-5376000D01*
X4546135Y-5321462D01*
X4564346Y-5310947D01*
X4669479Y-5250249D01*
X4887928Y-5082628D01*
X5082628Y-4887928D01*
X5250249Y-4669479D01*
X5387923Y-4431021D01*
X5493295Y-4176632D01*
X5564560Y-3910666D01*
X5600500Y-3637674D01*
X5600500Y-3362326D01*
X5600499Y-3362320D01*
X56399500Y-3362320D01*
X56399500Y-3637679D01*
X56435437Y-3910650D01*
X56435440Y-3910667D01*
X56506703Y-4176629D01*
X56506703Y-4176630D01*
X56572745Y-4336066D01*
X56612077Y-4431021D01*
X56749751Y-4669479D01*
X56917372Y-4887928D01*
X57112072Y-5082628D01*
X57330521Y-5250249D01*
X57568979Y-5387923D01*
X57712420Y-5447338D01*
X57823369Y-5493296D01*
X57941693Y-5525000D01*
X58089334Y-5564560D01*
X58362326Y-5600500D01*
X58637674Y-5600500D01*
X58910666Y-5564560D01*
X59120423Y-5508355D01*
X59176629Y-5493296D01*
X59176630Y-5493296D01*
X59209125Y-5479835D01*
X59431021Y-5387923D01*
X59669479Y-5250249D01*
X59887928Y-5082628D01*
X60082628Y-4887928D01*
X60250249Y-4669479D01*
X60387923Y-4431021D01*
X60493295Y-4176632D01*
X60564560Y-3910666D01*
X60600500Y-3637674D01*
X60600500Y-3362326D01*
X60564560Y-3089334D01*
X60493296Y-2823370D01*
X60493296Y-2823369D01*
X60427255Y-2663934D01*
X60387923Y-2568979D01*
X60250249Y-2330521D01*
X60082628Y-2112072D01*
X59887928Y-1917372D01*
X59669479Y-1749751D01*
X59431021Y-1612077D01*
X59398527Y-1598617D01*
X59176630Y-1506703D01*
X58910667Y-1435440D01*
X58910650Y-1435437D01*
X58637679Y-1399500D01*
X58637674Y-1399500D01*
X58362326Y-1399500D01*
X58362320Y-1399500D01*
X58089349Y-1435437D01*
X58089332Y-1435440D01*
X57823370Y-1506703D01*
X57823369Y-1506703D01*
X57568976Y-1612078D01*
X57330522Y-1749750D01*
X57112070Y-1917373D01*
X56917373Y-2112070D01*
X56749750Y-2330522D01*
X56612078Y-2568976D01*
X56506703Y-2823369D01*
X56506703Y-2823370D01*
X56435440Y-3089332D01*
X56435437Y-3089349D01*
X56399500Y-3362320D01*
X5600499Y-3362320D01*
X5564560Y-3089334D01*
X5493296Y-2823370D01*
X5493296Y-2823369D01*
X5427255Y-2663934D01*
X5387923Y-2568979D01*
X5250249Y-2330521D01*
X5082628Y-2112072D01*
X4887928Y-1917372D01*
X4669479Y-1749751D01*
X4431021Y-1612077D01*
X4398527Y-1598617D01*
X4176630Y-1506703D01*
X3910667Y-1435440D01*
X3910650Y-1435437D01*
X3637679Y-1399500D01*
X3637674Y-1399500D01*
X3362326Y-1399500D01*
X3362320Y-1399500D01*
X3089349Y-1435437D01*
X3089332Y-1435440D01*
X2823370Y-1506703D01*
X2823369Y-1506703D01*
X2568976Y-1612078D01*
X2330522Y-1749750D01*
X2112070Y-1917373D01*
X1917373Y-2112070D01*
X1749750Y-2330522D01*
X1612078Y-2568976D01*
X1506703Y-2823369D01*
X1506703Y-2823370D01*
X1435440Y-3089332D01*
X1435437Y-3089349D01*
X1399500Y-3362320D01*
X500500Y-3362320D01*
X500500Y-649500D01*
X520462Y-575000D01*
X575000Y-520462D01*
X649500Y-500500D01*
X61350500Y-500500D01*
X61425000Y-520462D01*
G37*
%TD.AperFunction*%
%TD*%
M02*
