M48
; DRILL file KiCad 10.0.4 date 2026-07-19T09:17:58
; FORMAT={-:-/ absolute / metric / decimal}
; #@! TF.CreationDate,2026-07-19T09:17:58-07:00
; #@! TF.GenerationSoftware,Kicad,Pcbnew,10.0.4
; #@! TF.FileFunction,Plated,1,2,PTH
FMAT,2
METRIC
; #@! TA.AperFunction,Plated,PTH,ViaDrill
T1C0.300
; #@! TA.AperFunction,Plated,PTH,ComponentDrill
T2C0.800
; #@! TA.AperFunction,Plated,PTH,ComponentDrill
T3C0.900
; #@! TA.AperFunction,Plated,PTH,ComponentDrill
T4C1.000
; #@! TA.AperFunction,Plated,PTH,ComponentDrill
T5C1.100
; #@! TA.AperFunction,Plated,PTH,ComponentDrill
T6C1.100
%
G90
G05
T1
X6.6Y-13.46
X7.0Y-50.0
X8.0Y-10.92
X9.4Y-8.38
X17.5Y-20.0
X18.25Y-27.6
X20.0Y-72.0
X22.11Y-37.4
X24.65Y-36.0
X35.4Y-8.0
X36.0Y-20.0
X36.0Y-50.0
X37.0Y-18.6
X40.0Y-31.0
X41.6Y-16.6
X43.0Y-23.05
X43.0Y-30.0
X44.0Y-72.0
X44.6Y-13.6
X44.6Y-59.9
X45.5Y-54.0
X50.5Y-21.0
X52.0Y-20.0
X52.0Y-45.0
T3
X8.5Y-66.5
X11.0Y-66.5
X13.5Y-66.5
T4
X22.11Y-42.0
X22.11Y-57.24
X24.65Y-42.0
X24.65Y-57.24
X27.19Y-42.0
X27.19Y-57.24
X29.73Y-42.0
X29.73Y-57.24
X32.27Y-42.0
X32.27Y-57.24
X34.81Y-42.0
X34.81Y-57.24
X37.35Y-42.0
X37.35Y-57.24
X39.89Y-42.0
X39.89Y-57.24
T5
X26.25Y-68.0
X28.75Y-68.0
X31.25Y-68.0
X33.75Y-68.0
T6
X12.0Y-8.38
X12.0Y-10.92
X12.0Y-13.46
X12.0Y-16.0
X12.0Y-18.54
X12.0Y-21.08
X12.0Y-23.62
X27.24Y-8.38
X27.24Y-10.92
X27.24Y-13.46
X27.24Y-16.0
X27.24Y-18.54
X27.24Y-21.08
X27.24Y-23.62
T2
X55.05Y-15.3G85X57.25Y-15.3
G05
T4
X52.85Y-9.7G85X52.85Y-11.7
G05
X59.15Y-11.7G85X59.15Y-9.7
G05
M30
