%TF.GenerationSoftware,KiCad,Pcbnew,10.0.4*%
%TF.CreationDate,2026-07-19T10:26:31-07:00*%
%TF.ProjectId,filled,66696c6c-6564-42e6-9b69-6361645f7063,rev?*%
%TF.SameCoordinates,Original*%
%TF.FileFunction,Copper,L1,Top*%
%TF.FilePolarity,Positive*%
%FSLAX46Y46*%
G04 Gerber Fmt 4.6, Leading zero omitted, Abs format (unit mm)*
G04 Created by KiCad (PCBNEW 10.0.4) date 2026-07-19 10:26:31*
%MOMM*%
%LPD*%
G01*
G04 APERTURE LIST*
%TA.AperFunction,SMDPad,CuDef*%
%ADD10R,0.810000X0.860000*%
%TD*%
%TA.AperFunction,SMDPad,CuDef*%
%ADD11R,0.800000X0.900000*%
%TD*%
%TA.AperFunction,SMDPad,CuDef*%
%ADD12R,1.000000X0.800000*%
%TD*%
%TA.AperFunction,ComponentPad*%
%ADD13C,1.800000*%
%TD*%
%TA.AperFunction,ComponentPad*%
%ADD14R,1.700000X1.570000*%
%TD*%
%TA.AperFunction,ComponentPad*%
%ADD15C,1.700000*%
%TD*%
%TA.AperFunction,ComponentPad*%
%ADD16R,1.570000X1.700000*%
%TD*%
%TA.AperFunction,SMDPad,CuDef*%
%ADD17R,1.350000X1.410000*%
%TD*%
%TA.AperFunction,SMDPad,CuDef*%
%ADD18R,1.410000X1.350000*%
%TD*%
%TA.AperFunction,SMDPad,CuDef*%
%ADD19R,1.100000X0.600000*%
%TD*%
%TA.AperFunction,SMDPad,CuDef*%
%ADD20R,0.900000X0.800000*%
%TD*%
%TA.AperFunction,SMDPad,CuDef*%
%ADD21R,2.120000X4.220000*%
%TD*%
%TA.AperFunction,SMDPad,CuDef*%
%ADD22R,0.860000X0.810000*%
%TD*%
%TA.AperFunction,ComponentPad*%
%ADD23O,1.600000X3.100000*%
%TD*%
%TA.AperFunction,ComponentPad*%
%ADD24O,3.100000X1.600000*%
%TD*%
%TA.AperFunction,ComponentPad*%
%ADD25C,1.550000*%
%TD*%
%TA.AperFunction,SMDPad,CuDef*%
%ADD26R,1.200000X0.950000*%
%TD*%
%TA.AperFunction,SMDPad,CuDef*%
%ADD27R,0.800000X0.800000*%
%TD*%
%TA.AperFunction,SMDPad,CuDef*%
%ADD28R,4.500000X1.650000*%
%TD*%
%TA.AperFunction,ViaPad*%
%ADD29C,0.600000*%
%TD*%
%TA.AperFunction,Conductor*%
%ADD30C,0.600000*%
%TD*%
%TA.AperFunction,Conductor*%
%ADD31C,1.000000*%
%TD*%
%TA.AperFunction,Conductor*%
%ADD32C,0.400000*%
%TD*%
%TA.AperFunction,Conductor*%
%ADD33C,0.800000*%
%TD*%
G04 APERTURE END LIST*
D10*
%TO.P,R8,1*%
%TO.N,1-3*%
X18250000Y-30000000D03*
%TO.P,R8,2*%
%TO.N,pdn*%
X19750000Y-30000000D03*
%TD*%
D11*
%TO.P,C5,1*%
%TO.N,vbst*%
X45300000Y-27200000D03*
%TO.P,C5,2*%
%TO.N,2-1*%
X46700000Y-27200000D03*
%TD*%
D12*
%TO.P,Q1,1*%
%TO.N,1-2*%
X43150000Y-11450000D03*
%TO.P,Q1,2*%
%TO.N,1-1*%
X43150000Y-9550000D03*
%TO.P,Q1,3*%
%TO.N,v12_raw*%
X40850000Y-10500000D03*
%TD*%
D13*
%TO.P,J2,1*%
%TO.N,m1a*%
X33750000Y-68000000D03*
%TO.P,J2,2*%
%TO.N,m1b*%
X31250000Y-68000000D03*
%TO.P,J2,3*%
%TO.N,m2a*%
X28750000Y-68000000D03*
%TO.P,J2,4*%
%TO.N,m2b*%
X26250000Y-68000000D03*
%TD*%
D10*
%TO.P,R7,1*%
%TO.N,1*%
X54250000Y-18000000D03*
%TO.P,R7,2*%
%TO.N,2-2*%
X55750000Y-18000000D03*
%TD*%
D14*
%TO.P,J6,1*%
%TO.N,step*%
X12000000Y-8380000D03*
D15*
%TO.P,J6,2*%
%TO.N,dir*%
X12000000Y-10920000D03*
%TO.P,J6,3*%
%TO.N,en_n*%
X12000000Y-13460000D03*
%TO.P,J6,4*%
%TO.N,xiao_left-4*%
X12000000Y-16000000D03*
%TO.P,J6,5*%
%TO.N,5*%
X12000000Y-18540000D03*
%TO.P,J6,6*%
%TO.N,6*%
X12000000Y-21080000D03*
%TO.P,J6,7*%
%TO.N,1-3*%
X12000000Y-23620000D03*
%TD*%
D16*
%TO.P,J4,1*%
%TO.N,2*%
X22110000Y-57240000D03*
D15*
%TO.P,J4,2*%
%TO.N,p3v3*%
X24650000Y-57240000D03*
%TO.P,J4,3*%
%TO.N,m1b*%
X27190000Y-57240000D03*
%TO.P,J4,4*%
%TO.N,m1a*%
X29730000Y-57240000D03*
%TO.P,J4,5*%
%TO.N,m2a*%
X32270000Y-57240000D03*
%TO.P,J4,6*%
%TO.N,m2b*%
X34810000Y-57240000D03*
%TO.P,J4,7*%
%TO.N,2*%
X37350000Y-57240000D03*
%TO.P,J4,8*%
%TO.N,1-1*%
X39890000Y-57240000D03*
%TD*%
D17*
%TO.P,C2,1*%
%TO.N,1-1*%
X51200000Y-23000000D03*
%TO.P,C2,2*%
%TO.N,2*%
X51200000Y-25000000D03*
%TD*%
D18*
%TO.P,C4,1*%
%TO.N,1*%
X52500000Y-34500000D03*
%TO.P,C4,2*%
%TO.N,2*%
X54500000Y-34500000D03*
%TD*%
%TO.P,C3,1*%
%TO.N,1*%
X47500000Y-34500000D03*
%TO.P,C3,2*%
%TO.N,2*%
X49500000Y-34500000D03*
%TD*%
D19*
%TO.P,U1,1*%
%TO.N,2*%
X47350000Y-24950000D03*
%TO.P,U1,2*%
%TO.N,2-1*%
X47350000Y-24000000D03*
%TO.P,U1,3*%
%TO.N,1-1*%
X47350000Y-23050000D03*
%TO.P,U1,4*%
%TO.N,vfb*%
X44650000Y-23050000D03*
%TO.P,U1,5*%
%TO.N,ven*%
X44650000Y-24000000D03*
%TO.P,U1,6*%
%TO.N,vbst*%
X44650000Y-24950000D03*
%TD*%
D20*
%TO.P,C9,1*%
%TO.N,1*%
X42300000Y-19900000D03*
%TO.P,C9,2*%
%TO.N,vfb*%
X42300000Y-21300000D03*
%TD*%
D10*
%TO.P,R1,1*%
%TO.N,1-1*%
X38050000Y-20000000D03*
%TO.P,R1,2*%
%TO.N,ven*%
X39550000Y-20000000D03*
%TD*%
%TO.P,R5,1*%
%TO.N,1-2*%
X36750000Y-8000000D03*
%TO.P,R5,2*%
%TO.N,1-1*%
X38250000Y-8000000D03*
%TD*%
D21*
%TO.P,L1,1*%
%TO.N,1*%
X55500000Y-29500000D03*
%TO.P,L1,2*%
%TO.N,2-1*%
X51500000Y-29500000D03*
%TD*%
D18*
%TO.P,C8,1*%
%TO.N,1*%
X43000000Y-34500000D03*
%TO.P,C8,2*%
%TO.N,2*%
X45000000Y-34500000D03*
%TD*%
D22*
%TO.P,R3,1*%
%TO.N,1*%
X44650000Y-19850000D03*
%TO.P,R3,2*%
%TO.N,vfb*%
X44650000Y-21350000D03*
%TD*%
D14*
%TO.P,J7,1*%
%TO.N,p5v_xiao*%
X27240000Y-8380000D03*
D15*
%TO.P,J7,2*%
%TO.N,2*%
X27240000Y-10920000D03*
%TO.P,J7,3*%
%TO.N,p3v3*%
X27240000Y-13460000D03*
%TO.P,J7,4*%
%TO.N,xiao_right-4*%
X27240000Y-16000000D03*
%TO.P,J7,5*%
%TO.N,xiao_right-5*%
X27240000Y-18540000D03*
%TO.P,J7,6*%
%TO.N,hall_do*%
X27240000Y-21080000D03*
%TO.P,J7,7*%
%TO.N,pdn*%
X27240000Y-23620000D03*
%TD*%
D23*
%TO.P,J3,1*%
%TO.N,v12_raw*%
X59330000Y-10650000D03*
%TO.P,J3,2*%
%TO.N,2*%
X52670000Y-10650000D03*
D24*
%TO.P,J3,3*%
X56770000Y-15350000D03*
%TD*%
D10*
%TO.P,R9,1*%
%TO.N,hall_raw*%
X15750000Y-63000000D03*
%TO.P,R9,2*%
%TO.N,hall_do*%
X17250000Y-63000000D03*
%TD*%
%TO.P,R6,1*%
%TO.N,1-2*%
X36750000Y-12600000D03*
%TO.P,R6,2*%
%TO.N,2*%
X38250000Y-12600000D03*
%TD*%
D25*
%TO.P,J1,1*%
%TO.N,1*%
X8500000Y-66500000D03*
%TO.P,J1,2*%
%TO.N,2*%
X11000000Y-66500000D03*
%TO.P,J1,3*%
%TO.N,hall_raw*%
X13500000Y-66500000D03*
%TD*%
D26*
%TO.P,D2,1*%
%TO.N,p5v_xiao*%
X28800000Y-6400000D03*
%TO.P,D2,2*%
%TO.N,1*%
X32200000Y-6400000D03*
%TD*%
D27*
%TO.P,D1,1*%
%TO.N,2*%
X54250000Y-21000000D03*
%TO.P,D1,2*%
%TO.N,2-2*%
X55750000Y-21000000D03*
%TD*%
D20*
%TO.P,C10,1*%
%TO.N,1-1*%
X39890000Y-54700000D03*
%TO.P,C10,2*%
%TO.N,2*%
X39890000Y-53300000D03*
%TD*%
D16*
%TO.P,J5,1*%
%TO.N,dir*%
X22110000Y-44540000D03*
D15*
%TO.P,J5,2*%
%TO.N,step*%
X24650000Y-44540000D03*
%TO.P,J5,3*%
%TO.N,pdn*%
X27190000Y-44540000D03*
%TO.P,J5,4*%
%TO.N,4*%
X29730000Y-44540000D03*
%TO.P,J5,5*%
%TO.N,2*%
X32270000Y-44540000D03*
%TO.P,J5,6*%
X34810000Y-44540000D03*
%TO.P,J5,7*%
X37350000Y-44540000D03*
%TO.P,J5,8*%
%TO.N,en_n*%
X39890000Y-44540000D03*
%TD*%
D10*
%TO.P,R4,1*%
%TO.N,vfb*%
X46450000Y-21350000D03*
%TO.P,R4,2*%
%TO.N,2*%
X47950000Y-21350000D03*
%TD*%
D11*
%TO.P,C1,1*%
%TO.N,1*%
X57300000Y-34500000D03*
%TO.P,C1,2*%
%TO.N,2*%
X58700000Y-34500000D03*
%TD*%
D28*
%TO.P,C6,1*%
%TO.N,1-1*%
X45500000Y-57240000D03*
%TO.P,C6,2*%
%TO.N,2*%
X54500000Y-57240000D03*
%TD*%
D18*
%TO.P,C7,1*%
%TO.N,1-1*%
X39500000Y-62000000D03*
%TO.P,C7,2*%
%TO.N,2*%
X41500000Y-62000000D03*
%TD*%
D29*
%TO.N,2*%
X36000000Y-20000000D03*
X48500000Y-52500000D03*
X52000000Y-20000000D03*
X17500000Y-20000000D03*
X20000000Y-72000000D03*
X36000000Y-50000000D03*
X44000000Y-72000000D03*
X52000000Y-45000000D03*
X42500000Y-60000000D03*
X7000000Y-50000000D03*
X42500000Y-50000000D03*
X48500000Y-24950000D03*
%TO.N,ven*%
X44200000Y-24000000D03*
X39550000Y-21500000D03*
%TO.N,1-2*%
X35400000Y-8000000D03*
X43800000Y-13600000D03*
%TO.N,dir*%
X22110000Y-37400000D03*
X8000000Y-10920000D03*
%TO.N,step*%
X9400000Y-8380000D03*
X24650000Y-36000000D03*
%TO.N,en_n*%
X6600000Y-13460000D03*
%TO.N,1-3*%
X18250000Y-27600000D03*
%TO.N,1*%
X41000000Y-31000000D03*
X34000000Y-6400000D03*
%TO.N,v12_raw*%
X46500000Y-7000000D03*
X39500000Y-10500000D03*
%TO.N,1-1*%
X51200000Y-21000000D03*
X45000000Y-16600000D03*
X45500000Y-54000000D03*
X37000000Y-18600000D03*
%TO.N,pdn*%
X29000000Y-23620000D03*
X29000000Y-31500000D03*
%TD*%
%TO.N,2*%
D30*
X47350000Y-24950000D02*
X48500000Y-24950000D01*
%TO.N,m1a*%
D31*
X29730000Y-60000000D02*
X33750000Y-63000000D01*
X29730000Y-57240000D02*
X29730000Y-60000000D01*
X33750000Y-63000000D02*
X33750000Y-68000000D01*
%TO.N,ven*%
D32*
X44650000Y-24000000D02*
X44200000Y-24000000D01*
X39550000Y-21500000D02*
X39550000Y-20000000D01*
%TO.N,1-2*%
X36750000Y-12600000D02*
X34400000Y-12600000D01*
X43800000Y-11450000D02*
X43150000Y-11450000D01*
X43800000Y-13600000D02*
X43800000Y-11450000D01*
X36750000Y-8000000D02*
X35400000Y-8000000D01*
X34400000Y-8000000D02*
X35400000Y-8000000D01*
X34400000Y-12600000D02*
X34400000Y-8000000D01*
%TO.N,2-2*%
X55750000Y-18000000D02*
X55750000Y-21000000D01*
%TO.N,m1b*%
D31*
X31210000Y-64500000D02*
X31210000Y-68000000D01*
X27190000Y-61000000D02*
X31210000Y-64500000D01*
X27190000Y-57240000D02*
X27190000Y-61000000D01*
%TO.N,dir*%
D32*
X12000000Y-10920000D02*
X8000000Y-10920000D01*
X22110000Y-37400000D02*
X22110000Y-44540000D01*
%TO.N,step*%
X24650000Y-36000000D02*
X24650000Y-44540000D01*
X12000000Y-8380000D02*
X9400000Y-8380000D01*
%TO.N,en_n*%
X12000000Y-13460000D02*
X6600000Y-13460000D01*
%TO.N,2-1*%
X46700000Y-27200000D02*
X49400000Y-27200000D01*
D30*
X47350000Y-24000000D02*
X49400000Y-24000000D01*
X49400000Y-24000000D02*
X49400000Y-29500000D01*
X49400000Y-29500000D02*
X51500000Y-29500000D01*
%TO.N,vbst*%
D32*
X43600000Y-27200000D02*
X45300000Y-27200000D01*
X43600000Y-24950000D02*
X43600000Y-27200000D01*
X44650000Y-24950000D02*
X43600000Y-24950000D01*
%TO.N,1-3*%
X18250000Y-27600000D02*
X18250000Y-30000000D01*
%TO.N,p3v3*%
X24650000Y-53000000D02*
X24650000Y-57240000D01*
X31600000Y-26000000D02*
X16000000Y-26000000D01*
X31600000Y-13460000D02*
X31600000Y-26000000D01*
X16000000Y-53000000D02*
X24650000Y-53000000D01*
X27240000Y-13460000D02*
X31600000Y-13460000D01*
X16000000Y-26000000D02*
X16000000Y-53000000D01*
%TO.N,1*%
D33*
X55500000Y-29500000D02*
X57600000Y-29500000D01*
X41000000Y-34500000D02*
X41000000Y-31000000D01*
X42300000Y-19900000D02*
X41000000Y-19900000D01*
X47500000Y-34500000D02*
X47500000Y-33000000D01*
X43000000Y-34500000D02*
X43000000Y-33000000D01*
X43000000Y-34500000D02*
X41000000Y-34500000D01*
X43000000Y-33000000D02*
X47500000Y-33000000D01*
D32*
X54250000Y-18000000D02*
X54250000Y-17000000D01*
D33*
X41000000Y-19900000D02*
X41000000Y-32000000D01*
X57600000Y-29500000D02*
X57600000Y-33000000D01*
D32*
X57600000Y-17000000D02*
X57600000Y-29500000D01*
D33*
X34000000Y-6400000D02*
X32200000Y-6400000D01*
X52500000Y-34500000D02*
X52500000Y-33000000D01*
D32*
X54250000Y-17000000D02*
X57600000Y-17000000D01*
X43900000Y-19850000D02*
X44650000Y-19850000D01*
D33*
X41000000Y-32000000D02*
X43000000Y-33000000D01*
X52500000Y-33000000D02*
X57300000Y-33000000D01*
X57600000Y-33000000D02*
X57300000Y-33000000D01*
D32*
X42300000Y-19900000D02*
X43900000Y-19850000D01*
D33*
X47500000Y-33000000D02*
X52500000Y-33000000D01*
X57300000Y-33000000D02*
X57300000Y-34500000D01*
%TO.N,p5v_xiao*%
X27240000Y-6400000D02*
X27240000Y-8380000D01*
X28800000Y-6400000D02*
X27240000Y-6400000D01*
%TO.N,hall_raw*%
D32*
X15750000Y-63000000D02*
X13500000Y-63000000D01*
X13500000Y-63000000D02*
X13500000Y-66500000D01*
%TO.N,v12_raw*%
D31*
X59330000Y-7000000D02*
X46500000Y-7000000D01*
X59330000Y-10650000D02*
X59330000Y-7000000D01*
X39500000Y-10500000D02*
X40850000Y-10500000D01*
%TO.N,1-1*%
D33*
X39500000Y-58500000D02*
X39890000Y-58100000D01*
D30*
X47350000Y-23050000D02*
X47350000Y-22600000D01*
D31*
X43150000Y-9550000D02*
X45000000Y-9550000D01*
D32*
X43150000Y-8000000D02*
X43150000Y-9550000D01*
D33*
X39890000Y-58100000D02*
X39890000Y-57240000D01*
D31*
X45000000Y-9550000D02*
X45000000Y-16600000D01*
D32*
X37000000Y-20000000D02*
X37000000Y-18600000D01*
D31*
X45500000Y-57240000D02*
X45500000Y-54000000D01*
D33*
X51200000Y-23000000D02*
X51200000Y-21000000D01*
D30*
X51200000Y-22600000D02*
X51200000Y-23000000D01*
D32*
X38050000Y-20000000D02*
X37000000Y-20000000D01*
X39890000Y-54700000D02*
X39890000Y-57240000D01*
D30*
X47350000Y-22600000D02*
X51200000Y-22600000D01*
D33*
X39500000Y-62000000D02*
X39500000Y-58500000D01*
D32*
X38250000Y-8000000D02*
X43150000Y-8000000D01*
%TO.N,vfb*%
X46450000Y-21350000D02*
X44650000Y-21350000D01*
X44650000Y-23050000D02*
X44650000Y-21350000D01*
X42300000Y-21300000D02*
X43900000Y-21350000D01*
X43900000Y-21350000D02*
X44650000Y-21350000D01*
%TO.N,hall_do*%
X30600000Y-25000000D02*
X10600000Y-25000000D01*
X19000000Y-63000000D02*
X17250000Y-63000000D01*
X10600000Y-59000000D02*
X19000000Y-59000000D01*
X30600000Y-21080000D02*
X30600000Y-25000000D01*
X10600000Y-25000000D02*
X10600000Y-59000000D01*
X27240000Y-21080000D02*
X30600000Y-21080000D01*
X19000000Y-59000000D02*
X19000000Y-63000000D01*
%TO.N,pdn*%
X27240000Y-23620000D02*
X29000000Y-23620000D01*
X27190000Y-30000000D02*
X27190000Y-44540000D01*
X19750000Y-30000000D02*
X27190000Y-30000000D01*
X29000000Y-31500000D02*
X27190000Y-31500000D01*
%TD*%
%TA.AperFunction,Conductor*%
%TO.N,2*%
G36*
X45666241Y-21970462D02*
G01*
X45712287Y-22011923D01*
X45716949Y-22018340D01*
X45716950Y-22018342D01*
X45806658Y-22108050D01*
X45919696Y-22165646D01*
X46013481Y-22180500D01*
X46443391Y-22180499D01*
X46517890Y-22200461D01*
X46572428Y-22254999D01*
X46592390Y-22329499D01*
X46572428Y-22403999D01*
X46548750Y-22434857D01*
X46471950Y-22511656D01*
X46414354Y-22624694D01*
X46414354Y-22624696D01*
X46399500Y-22718481D01*
X46399500Y-22718482D01*
X46399500Y-22718485D01*
X46399500Y-23381519D01*
X46414353Y-23475301D01*
X46415541Y-23478957D01*
X46415841Y-23484701D01*
X46416188Y-23486886D01*
X46415958Y-23486922D01*
X46419577Y-23555980D01*
X46415542Y-23571040D01*
X46414354Y-23574694D01*
X46414354Y-23574696D01*
X46399500Y-23668481D01*
X46399500Y-23668482D01*
X46399500Y-23668485D01*
X46399500Y-24331518D01*
X46408830Y-24390424D01*
X46414354Y-24425304D01*
X46471950Y-24538342D01*
X46561658Y-24628050D01*
X46674696Y-24685646D01*
X46768481Y-24700500D01*
X47268989Y-24700499D01*
X47269003Y-24700500D01*
X47281007Y-24700500D01*
X48550500Y-24700500D01*
X48625000Y-24720462D01*
X48679538Y-24775000D01*
X48699500Y-24849500D01*
X48699500Y-26450500D01*
X48679538Y-26525000D01*
X48625000Y-26579538D01*
X48550500Y-26599500D01*
X47564115Y-26599500D01*
X47489615Y-26579538D01*
X47435077Y-26525000D01*
X47431356Y-26518146D01*
X47428050Y-26511658D01*
X47338342Y-26421950D01*
X47225305Y-26364354D01*
X47209673Y-26361878D01*
X47131519Y-26349500D01*
X47131514Y-26349500D01*
X46268481Y-26349500D01*
X46174695Y-26364354D01*
X46174690Y-26364356D01*
X46067644Y-26418899D01*
X45992202Y-26434935D01*
X45932356Y-26418899D01*
X45825306Y-26364354D01*
X45798508Y-26360110D01*
X45731519Y-26349500D01*
X45731514Y-26349500D01*
X44868481Y-26349500D01*
X44774695Y-26364354D01*
X44774693Y-26364355D01*
X44661657Y-26421950D01*
X44571949Y-26511658D01*
X44568644Y-26518146D01*
X44565961Y-26521125D01*
X44564923Y-26525000D01*
X44540316Y-26549606D01*
X44517035Y-26575463D01*
X44513220Y-26576702D01*
X44510385Y-26579538D01*
X44476777Y-26588543D01*
X44443682Y-26599296D01*
X44435885Y-26599500D01*
X44349500Y-26599500D01*
X44275000Y-26579538D01*
X44220462Y-26525000D01*
X44200500Y-26450500D01*
X44200500Y-25799499D01*
X44220462Y-25724999D01*
X44275000Y-25670461D01*
X44349500Y-25650499D01*
X45231519Y-25650499D01*
X45244341Y-25648468D01*
X45325304Y-25635646D01*
X45438342Y-25578050D01*
X45528050Y-25488342D01*
X45585646Y-25375304D01*
X45600500Y-25281519D01*
X45600499Y-24618482D01*
X45585646Y-24524696D01*
X45585643Y-24524690D01*
X45584458Y-24521042D01*
X45584157Y-24515299D01*
X45583811Y-24513114D01*
X45584040Y-24513077D01*
X45580422Y-24444019D01*
X45584461Y-24428948D01*
X45585641Y-24425312D01*
X45585646Y-24425304D01*
X45600500Y-24331519D01*
X45600499Y-23668482D01*
X45585646Y-23574696D01*
X45585643Y-23574690D01*
X45584458Y-23571042D01*
X45584157Y-23565299D01*
X45583811Y-23563114D01*
X45584040Y-23563077D01*
X45580422Y-23494019D01*
X45584461Y-23478948D01*
X45585641Y-23475312D01*
X45585646Y-23475304D01*
X45600500Y-23381519D01*
X45600499Y-22718482D01*
X45585646Y-22624696D01*
X45528050Y-22511658D01*
X45438342Y-22421950D01*
X45331854Y-22367691D01*
X45328874Y-22365008D01*
X45325000Y-22363970D01*
X45300394Y-22339364D01*
X45274538Y-22316083D01*
X45273298Y-22312268D01*
X45270462Y-22309432D01*
X45261455Y-22275818D01*
X45250704Y-22242729D01*
X45250500Y-22234932D01*
X45250500Y-22208259D01*
X45270462Y-22133759D01*
X45311923Y-22087713D01*
X45318336Y-22083052D01*
X45318342Y-22083050D01*
X45407251Y-21994141D01*
X45474046Y-21955577D01*
X45512610Y-21950500D01*
X45591741Y-21950500D01*
X45666241Y-21970462D01*
G37*
%TD.AperFunction*%
%TA.AperFunction,Conductor*%
G36*
X61425000Y-520462D02*
G01*
X61479538Y-575000D01*
X61499500Y-649500D01*
X61499500Y-75350500D01*
X61479538Y-75425000D01*
X61425000Y-75479538D01*
X61350500Y-75499500D01*
X649500Y-75499500D01*
X575000Y-75479538D01*
X520462Y-75425000D01*
X500500Y-75350500D01*
X500500Y-72378706D01*
X1649500Y-72378706D01*
X1649500Y-72621293D01*
X1681160Y-72861781D01*
X1681161Y-72861787D01*
X1681162Y-72861789D01*
X1743946Y-73096100D01*
X1836776Y-73320212D01*
X1958064Y-73530289D01*
X2105735Y-73722738D01*
X2277262Y-73894265D01*
X2469711Y-74041936D01*
X2679788Y-74163224D01*
X2903900Y-74256054D01*
X3138211Y-74318838D01*
X3138217Y-74318838D01*
X3138218Y-74318839D01*
X3203600Y-74327446D01*
X3378712Y-74350500D01*
X3621288Y-74350500D01*
X3861789Y-74318838D01*
X4096100Y-74256054D01*
X4320212Y-74163224D01*
X4530289Y-74041936D01*
X4722738Y-73894265D01*
X4894265Y-73722738D01*
X5041936Y-73530289D01*
X5163224Y-73320212D01*
X5256054Y-73096100D01*
X5318838Y-72861789D01*
X5350500Y-72621288D01*
X5350500Y-72378712D01*
X5350499Y-72378706D01*
X56649500Y-72378706D01*
X56649500Y-72621293D01*
X56681160Y-72861781D01*
X56681161Y-72861787D01*
X56681162Y-72861789D01*
X56743946Y-73096100D01*
X56836776Y-73320212D01*
X56958064Y-73530289D01*
X57105735Y-73722738D01*
X57277262Y-73894265D01*
X57469711Y-74041936D01*
X57679788Y-74163224D01*
X57903900Y-74256054D01*
X58138211Y-74318838D01*
X58138217Y-74318838D01*
X58138218Y-74318839D01*
X58203600Y-74327446D01*
X58378712Y-74350500D01*
X58621288Y-74350500D01*
X58861789Y-74318838D01*
X59096100Y-74256054D01*
X59320212Y-74163224D01*
X59530289Y-74041936D01*
X59722738Y-73894265D01*
X59894265Y-73722738D01*
X60041936Y-73530289D01*
X60163224Y-73320212D01*
X60256054Y-73096100D01*
X60318838Y-72861789D01*
X60350500Y-72621288D01*
X60350500Y-72378712D01*
X60318838Y-72138211D01*
X60256054Y-71903900D01*
X60163224Y-71679788D01*
X60041936Y-71469711D01*
X59894265Y-71277262D01*
X59722738Y-71105735D01*
X59530289Y-70958064D01*
X59460263Y-70917634D01*
X59320216Y-70836778D01*
X59320214Y-70836777D01*
X59320212Y-70836776D01*
X59188932Y-70782398D01*
X59096103Y-70743947D01*
X59096101Y-70743946D01*
X59096100Y-70743946D01*
X58861789Y-70681162D01*
X58861787Y-70681161D01*
X58861781Y-70681160D01*
X58621293Y-70649500D01*
X58621288Y-70649500D01*
X58378712Y-70649500D01*
X58378706Y-70649500D01*
X58138218Y-70681160D01*
X57903896Y-70743947D01*
X57679783Y-70836778D01*
X57469712Y-70958063D01*
X57469711Y-70958064D01*
X57277262Y-71105735D01*
X57277260Y-71105736D01*
X57277256Y-71105740D01*
X57105740Y-71277256D01*
X56958063Y-71469712D01*
X56836778Y-71679783D01*
X56743947Y-71903896D01*
X56681160Y-72138218D01*
X56649500Y-72378706D01*
X5350499Y-72378706D01*
X5318838Y-72138211D01*
X5256054Y-71903900D01*
X5163224Y-71679788D01*
X5041936Y-71469711D01*
X4894265Y-71277262D01*
X4722738Y-71105735D01*
X4530289Y-70958064D01*
X4460263Y-70917634D01*
X4320216Y-70836778D01*
X4320214Y-70836777D01*
X4320212Y-70836776D01*
X4188932Y-70782398D01*
X4096103Y-70743947D01*
X4096101Y-70743946D01*
X4096100Y-70743946D01*
X3861789Y-70681162D01*
X3861787Y-70681161D01*
X3861781Y-70681160D01*
X3621293Y-70649500D01*
X3621288Y-70649500D01*
X3378712Y-70649500D01*
X3378706Y-70649500D01*
X3138218Y-70681160D01*
X2903896Y-70743947D01*
X2679783Y-70836778D01*
X2469712Y-70958063D01*
X2469711Y-70958064D01*
X2277262Y-71105735D01*
X2277260Y-71105736D01*
X2277256Y-71105740D01*
X2105740Y-71277256D01*
X1958063Y-71469712D01*
X1836778Y-71679783D01*
X1743947Y-71903896D01*
X1681160Y-72138218D01*
X1649500Y-72378706D01*
X500500Y-72378706D01*
X500500Y-13391006D01*
X5899500Y-13391006D01*
X5899500Y-13528993D01*
X5926419Y-13664325D01*
X5926420Y-13664329D01*
X5979224Y-13791809D01*
X5979227Y-13791815D01*
X5987589Y-13804329D01*
X6055886Y-13906542D01*
X6153458Y-14004114D01*
X6153461Y-14004116D01*
X6268184Y-14080772D01*
X6268186Y-14080773D01*
X6268189Y-14080775D01*
X6395672Y-14133580D01*
X6531007Y-14160500D01*
X6668993Y-14160500D01*
X6804328Y-14133580D01*
X6931811Y-14080775D01*
X6931820Y-14080768D01*
X6936826Y-14078094D01*
X7007065Y-14060500D01*
X10814665Y-14060500D01*
X10889165Y-14080462D01*
X10935208Y-14121919D01*
X10994430Y-14203430D01*
X11046172Y-14274646D01*
X11185354Y-14413828D01*
X11344595Y-14529524D01*
X11412744Y-14564247D01*
X11477495Y-14597240D01*
X11534813Y-14648849D01*
X11558647Y-14722202D01*
X11542611Y-14797644D01*
X11491002Y-14854962D01*
X11477495Y-14862760D01*
X11344598Y-14930474D01*
X11344593Y-14930477D01*
X11185363Y-15046165D01*
X11185352Y-15046174D01*
X11046174Y-15185352D01*
X11046165Y-15185363D01*
X10930477Y-15344593D01*
X10930474Y-15344598D01*
X10841121Y-15519963D01*
X10841117Y-15519972D01*
X10841116Y-15519975D01*
X10780291Y-15707174D01*
X10749500Y-15901583D01*
X10749500Y-16098417D01*
X10780291Y-16292826D01*
X10841116Y-16480025D01*
X10841119Y-16480030D01*
X10841121Y-16480036D01*
X10913928Y-16622928D01*
X10930476Y-16655405D01*
X11046172Y-16814646D01*
X11185354Y-16953828D01*
X11344595Y-17069524D01*
X11412744Y-17104247D01*
X11477495Y-17137240D01*
X11534813Y-17188849D01*
X11558647Y-17262202D01*
X11542611Y-17337644D01*
X11491002Y-17394962D01*
X11477495Y-17402760D01*
X11344598Y-17470474D01*
X11344593Y-17470477D01*
X11185363Y-17586165D01*
X11185352Y-17586174D01*
X11046174Y-17725352D01*
X11046165Y-17725363D01*
X10930477Y-17884593D01*
X10930474Y-17884598D01*
X10841121Y-18059963D01*
X10841117Y-18059972D01*
X10841116Y-18059975D01*
X10780291Y-18247174D01*
X10749500Y-18441583D01*
X10749500Y-18638417D01*
X10780291Y-18832826D01*
X10841116Y-19020025D01*
X10841119Y-19020030D01*
X10841121Y-19020036D01*
X10890501Y-19116950D01*
X10930476Y-19195405D01*
X11046172Y-19354646D01*
X11185354Y-19493828D01*
X11344595Y-19609524D01*
X11412744Y-19644247D01*
X11477495Y-19677240D01*
X11534813Y-19728849D01*
X11558647Y-19802202D01*
X11542611Y-19877644D01*
X11491002Y-19934962D01*
X11477495Y-19942760D01*
X11344598Y-20010474D01*
X11344593Y-20010477D01*
X11185363Y-20126165D01*
X11185352Y-20126174D01*
X11046174Y-20265352D01*
X11046165Y-20265363D01*
X10930477Y-20424593D01*
X10930474Y-20424598D01*
X10841121Y-20599963D01*
X10841117Y-20599972D01*
X10841116Y-20599975D01*
X10780291Y-20787174D01*
X10749500Y-20981583D01*
X10749500Y-21178417D01*
X10780291Y-21372826D01*
X10841116Y-21560025D01*
X10841119Y-21560030D01*
X10841121Y-21560036D01*
X10845685Y-21568993D01*
X10930476Y-21735405D01*
X11046172Y-21894646D01*
X11185354Y-22033828D01*
X11344595Y-22149524D01*
X11384185Y-22169696D01*
X11477495Y-22217240D01*
X11534813Y-22268849D01*
X11558647Y-22342202D01*
X11542611Y-22417644D01*
X11491002Y-22474962D01*
X11477495Y-22482760D01*
X11344598Y-22550474D01*
X11344593Y-22550477D01*
X11185363Y-22666165D01*
X11185352Y-22666174D01*
X11046174Y-22805352D01*
X11046165Y-22805363D01*
X10930477Y-22964593D01*
X10930474Y-22964598D01*
X10841121Y-23139963D01*
X10841117Y-23139972D01*
X10841116Y-23139975D01*
X10780291Y-23327174D01*
X10749500Y-23521583D01*
X10749500Y-23718417D01*
X10780291Y-23912826D01*
X10841116Y-24100025D01*
X10841120Y-24100034D01*
X10841121Y-24100035D01*
X10883320Y-24182856D01*
X10899356Y-24258298D01*
X10875522Y-24331651D01*
X10818204Y-24383260D01*
X10750560Y-24399500D01*
X10679057Y-24399500D01*
X10520943Y-24399500D01*
X10368216Y-24440423D01*
X10368214Y-24440423D01*
X10368214Y-24440424D01*
X10231283Y-24519480D01*
X10119480Y-24631283D01*
X10040424Y-24768214D01*
X10040423Y-24768216D01*
X10021431Y-24839095D01*
X9999500Y-24920941D01*
X9999500Y-24920943D01*
X9999500Y-58920943D01*
X9999500Y-59079057D01*
X10040423Y-59231784D01*
X10119480Y-59368716D01*
X10231284Y-59480520D01*
X10368216Y-59559577D01*
X10520943Y-59600500D01*
X18250500Y-59600500D01*
X18325000Y-59620462D01*
X18379538Y-59675000D01*
X18399500Y-59749500D01*
X18399500Y-62250500D01*
X18379538Y-62325000D01*
X18325000Y-62379538D01*
X18250500Y-62399500D01*
X18108259Y-62399500D01*
X18033759Y-62379538D01*
X17987713Y-62338077D01*
X17983051Y-62331660D01*
X17983050Y-62331658D01*
X17893342Y-62241950D01*
X17780305Y-62184354D01*
X17764673Y-62181878D01*
X17686519Y-62169500D01*
X17686514Y-62169500D01*
X16813481Y-62169500D01*
X16719695Y-62184354D01*
X16719693Y-62184355D01*
X16606657Y-62241950D01*
X16605359Y-62243249D01*
X16602977Y-62244623D01*
X16597169Y-62248844D01*
X16596725Y-62248233D01*
X16538564Y-62281813D01*
X16461436Y-62281813D01*
X16403274Y-62248233D01*
X16402831Y-62248844D01*
X16397022Y-62244623D01*
X16394641Y-62243249D01*
X16393342Y-62241950D01*
X16280305Y-62184354D01*
X16264673Y-62181878D01*
X16186519Y-62169500D01*
X16186514Y-62169500D01*
X15313481Y-62169500D01*
X15219695Y-62184354D01*
X15219693Y-62184355D01*
X15106657Y-62241950D01*
X15016951Y-62331656D01*
X15012287Y-62338077D01*
X14952348Y-62386617D01*
X14891741Y-62399500D01*
X13579057Y-62399500D01*
X13420943Y-62399500D01*
X13268216Y-62440423D01*
X13268214Y-62440423D01*
X13268214Y-62440424D01*
X13131283Y-62519480D01*
X13019480Y-62631283D01*
X12950981Y-62749928D01*
X12940423Y-62768216D01*
X12931825Y-62800304D01*
X12899500Y-62920941D01*
X12899500Y-65407371D01*
X12879538Y-65481871D01*
X12838081Y-65527914D01*
X12734217Y-65603376D01*
X12734211Y-65603381D01*
X12603376Y-65734216D01*
X12494624Y-65883899D01*
X12494623Y-65883902D01*
X12410623Y-66048759D01*
X12410621Y-66048764D01*
X12391443Y-66107788D01*
X12349435Y-66172472D01*
X12280713Y-66207486D01*
X12203690Y-66203449D01*
X12139006Y-66161441D01*
X12108028Y-66107784D01*
X12088914Y-66048958D01*
X12088912Y-66048951D01*
X12004948Y-65884165D01*
X12004945Y-65884160D01*
X11989985Y-65863568D01*
X11442147Y-66411405D01*
X11419344Y-66326302D01*
X11360099Y-66223686D01*
X11276314Y-66139901D01*
X11173698Y-66080656D01*
X11088592Y-66057851D01*
X11636431Y-65510013D01*
X11615831Y-65495048D01*
X11451054Y-65411090D01*
X11451044Y-65411086D01*
X11275142Y-65353932D01*
X11092469Y-65325000D01*
X10907531Y-65325000D01*
X10724857Y-65353932D01*
X10548955Y-65411086D01*
X10548951Y-65411088D01*
X10384167Y-65495049D01*
X10363569Y-65510014D01*
X10911406Y-66057852D01*
X10826302Y-66080656D01*
X10723686Y-66139901D01*
X10639901Y-66223686D01*
X10580656Y-66326302D01*
X10557852Y-66411406D01*
X10010014Y-65863569D01*
X9995049Y-65884167D01*
X9911088Y-66048951D01*
X9911082Y-66048963D01*
X9891970Y-66107786D01*
X9849963Y-66172471D01*
X9781241Y-66207486D01*
X9704219Y-66203449D01*
X9639534Y-66161442D01*
X9608556Y-66107786D01*
X9599741Y-66080656D01*
X9589379Y-66048765D01*
X9505378Y-65883904D01*
X9505375Y-65883900D01*
X9505375Y-65883899D01*
X9396623Y-65734216D01*
X9396621Y-65734213D01*
X9265787Y-65603379D01*
X9265783Y-65603376D01*
X9116100Y-65494624D01*
X9116097Y-65494623D01*
X9116098Y-65494623D01*
X9116096Y-65494622D01*
X9038206Y-65454935D01*
X8951240Y-65410623D01*
X8951236Y-65410621D01*
X8951235Y-65410621D01*
X8897516Y-65393167D01*
X8775269Y-65353446D01*
X8775270Y-65353446D01*
X8775264Y-65353445D01*
X8592514Y-65324500D01*
X8407486Y-65324500D01*
X8246787Y-65349952D01*
X8224729Y-65353446D01*
X8048771Y-65410619D01*
X8048759Y-65410623D01*
X7883902Y-65494623D01*
X7883899Y-65494624D01*
X7734216Y-65603376D01*
X7603376Y-65734216D01*
X7494624Y-65883899D01*
X7494623Y-65883902D01*
X7410623Y-66048759D01*
X7410619Y-66048771D01*
X7353446Y-66224729D01*
X7353445Y-66224736D01*
X7324500Y-66407486D01*
X7324500Y-66592514D01*
X7341445Y-66699500D01*
X7353446Y-66775270D01*
X7389982Y-66887714D01*
X7410560Y-66951048D01*
X7410619Y-66951228D01*
X7410623Y-66951240D01*
X7454912Y-67038161D01*
X7494490Y-67115837D01*
X7494623Y-67116097D01*
X7494624Y-67116100D01*
X7603376Y-67265783D01*
X7603379Y-67265787D01*
X7734213Y-67396621D01*
X7734216Y-67396623D01*
X7883899Y-67505375D01*
X7883900Y-67505375D01*
X7883904Y-67505378D01*
X8048765Y-67589379D01*
X8224730Y-67646553D01*
X8224736Y-67646555D01*
X8407486Y-67675500D01*
X8407491Y-67675500D01*
X8592509Y-67675500D01*
X8592514Y-67675500D01*
X8775264Y-67646555D01*
X8951235Y-67589379D01*
X9116096Y-67505378D01*
X9265787Y-67396621D01*
X9396621Y-67265787D01*
X9505378Y-67116096D01*
X9589379Y-66951235D01*
X9608556Y-66892211D01*
X9650562Y-66827529D01*
X9719284Y-66792513D01*
X9796306Y-66796549D01*
X9860991Y-66838556D01*
X9891970Y-66892213D01*
X9911083Y-66951036D01*
X9911090Y-66951054D01*
X9995048Y-67115831D01*
X10010013Y-67136430D01*
X10557851Y-66588592D01*
X10580656Y-66673698D01*
X10639901Y-66776314D01*
X10723686Y-66860099D01*
X10826302Y-66919344D01*
X10911405Y-66942147D01*
X10363568Y-67489984D01*
X10363568Y-67489985D01*
X10384160Y-67504945D01*
X10384165Y-67504948D01*
X10548951Y-67588912D01*
X10548955Y-67588913D01*
X10724857Y-67646067D01*
X10907531Y-67675000D01*
X11092469Y-67675000D01*
X11275142Y-67646067D01*
X11451044Y-67588913D01*
X11451048Y-67588911D01*
X11615835Y-67504948D01*
X11615837Y-67504947D01*
X11636430Y-67489985D01*
X11636430Y-67489984D01*
X11088593Y-66942147D01*
X11173698Y-66919344D01*
X11276314Y-66860099D01*
X11360099Y-66776314D01*
X11419344Y-66673698D01*
X11442147Y-66588593D01*
X11989984Y-67136430D01*
X11989985Y-67136430D01*
X12004947Y-67115837D01*
X12004948Y-67115835D01*
X12088911Y-66951048D01*
X12088914Y-66951041D01*
X12108028Y-66892215D01*
X12150034Y-66827530D01*
X12218755Y-66792513D01*
X12295778Y-66796549D01*
X12360463Y-66838555D01*
X12391443Y-66892212D01*
X12391444Y-66892214D01*
X12410560Y-66951048D01*
X12410620Y-66951231D01*
X12410623Y-66951240D01*
X12454912Y-67038161D01*
X12494490Y-67115837D01*
X12494623Y-67116097D01*
X12494624Y-67116100D01*
X12603376Y-67265783D01*
X12603379Y-67265787D01*
X12734213Y-67396621D01*
X12734216Y-67396623D01*
X12883899Y-67505375D01*
X12883900Y-67505375D01*
X12883904Y-67505378D01*
X13048765Y-67589379D01*
X13224730Y-67646553D01*
X13224736Y-67646555D01*
X13407486Y-67675500D01*
X13407491Y-67675500D01*
X13592509Y-67675500D01*
X13592514Y-67675500D01*
X13775264Y-67646555D01*
X13951235Y-67589379D01*
X14116096Y-67505378D01*
X14265787Y-67396621D01*
X14396621Y-67265787D01*
X14505378Y-67116096D01*
X14589379Y-66951235D01*
X14646555Y-66775264D01*
X14675500Y-66592514D01*
X14675500Y-66407486D01*
X14646555Y-66224736D01*
X14639638Y-66203449D01*
X14633734Y-66185276D01*
X14589379Y-66048765D01*
X14505378Y-65883904D01*
X14505375Y-65883900D01*
X14505375Y-65883899D01*
X14396623Y-65734216D01*
X14396621Y-65734213D01*
X14265787Y-65603379D01*
X14201884Y-65556951D01*
X14161919Y-65527914D01*
X14113381Y-65467974D01*
X14100500Y-65407371D01*
X14100500Y-63749500D01*
X14120462Y-63675000D01*
X14175000Y-63620462D01*
X14249500Y-63600500D01*
X14891741Y-63600500D01*
X14966241Y-63620462D01*
X15012287Y-63661923D01*
X15016949Y-63668340D01*
X15016950Y-63668342D01*
X15106658Y-63758050D01*
X15219696Y-63815646D01*
X15313481Y-63830500D01*
X16186518Y-63830499D01*
X16280304Y-63815646D01*
X16393342Y-63758050D01*
X16394641Y-63756751D01*
X16397022Y-63755376D01*
X16402831Y-63751156D01*
X16403274Y-63751766D01*
X16461436Y-63718187D01*
X16538564Y-63718187D01*
X16596725Y-63751766D01*
X16597169Y-63751156D01*
X16602977Y-63755376D01*
X16605359Y-63756751D01*
X16606658Y-63758050D01*
X16719696Y-63815646D01*
X16813481Y-63830500D01*
X17686518Y-63830499D01*
X17780304Y-63815646D01*
X17893342Y-63758050D01*
X17983050Y-63668342D01*
X17983052Y-63668336D01*
X17987713Y-63661923D01*
X18047652Y-63613383D01*
X18108259Y-63600500D01*
X19079057Y-63600500D01*
X19231784Y-63559577D01*
X19368716Y-63480520D01*
X19480520Y-63368716D01*
X19559577Y-63231784D01*
X19600500Y-63079057D01*
X19600500Y-58920943D01*
X19559577Y-58768216D01*
X19480520Y-58631284D01*
X19368716Y-58519480D01*
X19231784Y-58440423D01*
X19079057Y-58399500D01*
X11349500Y-58399500D01*
X11275000Y-58379538D01*
X11220462Y-58325000D01*
X11200500Y-58250500D01*
X11200500Y-25749500D01*
X11220462Y-25675000D01*
X11275000Y-25620462D01*
X11349500Y-25600500D01*
X15291182Y-25600500D01*
X15365682Y-25620462D01*
X15420220Y-25675000D01*
X15440182Y-25749500D01*
X15435105Y-25788061D01*
X15432041Y-25799499D01*
X15399500Y-25920941D01*
X15399500Y-25920943D01*
X15399500Y-52920943D01*
X15399500Y-53079057D01*
X15440423Y-53231784D01*
X15519480Y-53368716D01*
X15631284Y-53480520D01*
X15768216Y-53559577D01*
X15920943Y-53600500D01*
X23900500Y-53600500D01*
X23975000Y-53620462D01*
X24029538Y-53675000D01*
X24049500Y-53749500D01*
X24049500Y-56054666D01*
X24029538Y-56129166D01*
X23988081Y-56175208D01*
X23959025Y-56196319D01*
X23835357Y-56286169D01*
X23696174Y-56425352D01*
X23696165Y-56425363D01*
X23580477Y-56584593D01*
X23580476Y-56584594D01*
X23576758Y-56591892D01*
X23525148Y-56649209D01*
X23451794Y-56673041D01*
X23376352Y-56657004D01*
X23319035Y-56605394D01*
X23295203Y-56532040D01*
X23294999Y-56524245D01*
X23294999Y-56358517D01*
X23280165Y-56264853D01*
X23222640Y-56151954D01*
X23133045Y-56062359D01*
X23020150Y-56004836D01*
X23020148Y-56004835D01*
X22926476Y-55990000D01*
X22360000Y-55990000D01*
X22360000Y-56749238D01*
X22322297Y-56727470D01*
X22182410Y-56689988D01*
X22037590Y-56689988D01*
X21897703Y-56727470D01*
X21860000Y-56749238D01*
X21860000Y-55990000D01*
X21293517Y-55990000D01*
X21199853Y-56004834D01*
X21086954Y-56062359D01*
X20997359Y-56151954D01*
X20939836Y-56264849D01*
X20939835Y-56264851D01*
X20925000Y-56358523D01*
X20925000Y-56990000D01*
X21619238Y-56990000D01*
X21597470Y-57027703D01*
X21559988Y-57167590D01*
X21559988Y-57312410D01*
X21597470Y-57452297D01*
X21619238Y-57490000D01*
X20925001Y-57490000D01*
X20925001Y-58121482D01*
X20939834Y-58215146D01*
X20997359Y-58328045D01*
X21086954Y-58417640D01*
X21199849Y-58475163D01*
X21199851Y-58475164D01*
X21293523Y-58489999D01*
X21860000Y-58489999D01*
X21860000Y-57730761D01*
X21897703Y-57752530D01*
X22037590Y-57790012D01*
X22182410Y-57790012D01*
X22322297Y-57752530D01*
X22360000Y-57730761D01*
X22360000Y-58489999D01*
X22926483Y-58489999D01*
X23020146Y-58475165D01*
X23133045Y-58417640D01*
X23222640Y-58328045D01*
X23280163Y-58215150D01*
X23280164Y-58215148D01*
X23294999Y-58121476D01*
X23294999Y-57955757D01*
X23314961Y-57881257D01*
X23369498Y-57826719D01*
X23443998Y-57806756D01*
X23518498Y-57826718D01*
X23573036Y-57881255D01*
X23576755Y-57888104D01*
X23580472Y-57895399D01*
X23580475Y-57895403D01*
X23580476Y-57895405D01*
X23696172Y-58054646D01*
X23835354Y-58193828D01*
X23994595Y-58309524D01*
X24132006Y-58379538D01*
X24169052Y-58398414D01*
X24169975Y-58398884D01*
X24357174Y-58459709D01*
X24551583Y-58490500D01*
X24551588Y-58490500D01*
X24748412Y-58490500D01*
X24748417Y-58490500D01*
X24942826Y-58459709D01*
X25130025Y-58398884D01*
X25305405Y-58309524D01*
X25464646Y-58193828D01*
X25603828Y-58054646D01*
X25719524Y-57895405D01*
X25787240Y-57762503D01*
X25838848Y-57705186D01*
X25912201Y-57681352D01*
X25987644Y-57697388D01*
X26044962Y-57748996D01*
X26052759Y-57762503D01*
X26120476Y-57895405D01*
X26236172Y-58054646D01*
X26245860Y-58064334D01*
X26284423Y-58131127D01*
X26289500Y-58169691D01*
X26289500Y-60942600D01*
X26285527Y-60973640D01*
X26289500Y-61031094D01*
X26289500Y-61088690D01*
X26293752Y-61110067D01*
X26296260Y-61128855D01*
X26297763Y-61150598D01*
X26297764Y-61150601D01*
X26312870Y-61206179D01*
X26324106Y-61262666D01*
X26336076Y-61291565D01*
X26338567Y-61300729D01*
X26338568Y-61300731D01*
X26344287Y-61321771D01*
X26344287Y-61321773D01*
X26367654Y-61368731D01*
X26371913Y-61378088D01*
X26391981Y-61426536D01*
X26391989Y-61426552D01*
X26404099Y-61444675D01*
X26409376Y-61452573D01*
X26423314Y-61480581D01*
X26458535Y-61526143D01*
X26490536Y-61574035D01*
X26512663Y-61596162D01*
X26531802Y-61620920D01*
X26575241Y-61658740D01*
X26615965Y-61699464D01*
X26634086Y-61711571D01*
X26649139Y-61723078D01*
X30258341Y-64865418D01*
X30301420Y-64929392D01*
X30309500Y-64977793D01*
X30309500Y-67039597D01*
X30289538Y-67114097D01*
X30281036Y-67127187D01*
X30274144Y-67136670D01*
X30258034Y-67152781D01*
X30137713Y-67318390D01*
X30127434Y-67338562D01*
X30120536Y-67348056D01*
X30099372Y-67365191D01*
X30081150Y-67385429D01*
X30069837Y-67389104D01*
X30060592Y-67396590D01*
X30033694Y-67400847D01*
X30007796Y-67409262D01*
X29996160Y-67406788D01*
X29984412Y-67408648D01*
X29958991Y-67398887D01*
X29932354Y-67393225D01*
X29923514Y-67385265D01*
X29912410Y-67381002D01*
X29895274Y-67359838D01*
X29875037Y-67341616D01*
X29867241Y-67328112D01*
X29862287Y-67318390D01*
X29741971Y-67152787D01*
X29741964Y-67152779D01*
X29597220Y-67008035D01*
X29597212Y-67008028D01*
X29431612Y-66887714D01*
X29249224Y-66794782D01*
X29249220Y-66794780D01*
X29249219Y-66794780D01*
X29054534Y-66731523D01*
X28852352Y-66699500D01*
X28647648Y-66699500D01*
X28479163Y-66726185D01*
X28445465Y-66731523D01*
X28250787Y-66794778D01*
X28250775Y-66794782D01*
X28068387Y-66887714D01*
X27902787Y-67008028D01*
X27902779Y-67008035D01*
X27758035Y-67152779D01*
X27758028Y-67152787D01*
X27637712Y-67318390D01*
X27632759Y-67328112D01*
X27581150Y-67385429D01*
X27507796Y-67409262D01*
X27432354Y-67393225D01*
X27375037Y-67341616D01*
X27367241Y-67328112D01*
X27362287Y-67318390D01*
X27241971Y-67152787D01*
X27241964Y-67152779D01*
X27097220Y-67008035D01*
X27097212Y-67008028D01*
X26931612Y-66887714D01*
X26749224Y-66794782D01*
X26749220Y-66794780D01*
X26749219Y-66794780D01*
X26554534Y-66731523D01*
X26352352Y-66699500D01*
X26147648Y-66699500D01*
X25979163Y-66726185D01*
X25945465Y-66731523D01*
X25750787Y-66794778D01*
X25750775Y-66794782D01*
X25568387Y-66887714D01*
X25402787Y-67008028D01*
X25402779Y-67008035D01*
X25258035Y-67152779D01*
X25258028Y-67152787D01*
X25137714Y-67318387D01*
X25044782Y-67500775D01*
X25044778Y-67500787D01*
X24997574Y-67646067D01*
X24981523Y-67695466D01*
X24949500Y-67897648D01*
X24949500Y-68102352D01*
X24981523Y-68304534D01*
X25044778Y-68499212D01*
X25044782Y-68499224D01*
X25137714Y-68681612D01*
X25258028Y-68847212D01*
X25258035Y-68847220D01*
X25402779Y-68991964D01*
X25402787Y-68991971D01*
X25568387Y-69112285D01*
X25568390Y-69112287D01*
X25750781Y-69205220D01*
X25945466Y-69268477D01*
X26147648Y-69300500D01*
X26147653Y-69300500D01*
X26352347Y-69300500D01*
X26352352Y-69300500D01*
X26554534Y-69268477D01*
X26749219Y-69205220D01*
X26931610Y-69112287D01*
X27097219Y-68991966D01*
X27241966Y-68847219D01*
X27362287Y-68681610D01*
X27367240Y-68671888D01*
X27418847Y-68614572D01*
X27492200Y-68590737D01*
X27567643Y-68606772D01*
X27624961Y-68658380D01*
X27632755Y-68671881D01*
X27637560Y-68681310D01*
X27637714Y-68681612D01*
X27758028Y-68847212D01*
X27758035Y-68847220D01*
X27902779Y-68991964D01*
X27902787Y-68991971D01*
X28068387Y-69112285D01*
X28068390Y-69112287D01*
X28250781Y-69205220D01*
X28445466Y-69268477D01*
X28647648Y-69300500D01*
X28647653Y-69300500D01*
X28852347Y-69300500D01*
X28852352Y-69300500D01*
X29054534Y-69268477D01*
X29249219Y-69205220D01*
X29431610Y-69112287D01*
X29597219Y-68991966D01*
X29741966Y-68847219D01*
X29862287Y-68681610D01*
X29867240Y-68671888D01*
X29918847Y-68614572D01*
X29992200Y-68590737D01*
X30067643Y-68606772D01*
X30124961Y-68658380D01*
X30132755Y-68671881D01*
X30137560Y-68681310D01*
X30137714Y-68681612D01*
X30258028Y-68847212D01*
X30258035Y-68847220D01*
X30402779Y-68991964D01*
X30402787Y-68991971D01*
X30568387Y-69112285D01*
X30568390Y-69112287D01*
X30750781Y-69205220D01*
X30945466Y-69268477D01*
X31147648Y-69300500D01*
X31147653Y-69300500D01*
X31352347Y-69300500D01*
X31352352Y-69300500D01*
X31554534Y-69268477D01*
X31749219Y-69205220D01*
X31931610Y-69112287D01*
X32097219Y-68991966D01*
X32241966Y-68847219D01*
X32362287Y-68681610D01*
X32367240Y-68671888D01*
X32418847Y-68614572D01*
X32492200Y-68590737D01*
X32567643Y-68606772D01*
X32624961Y-68658380D01*
X32632755Y-68671881D01*
X32637560Y-68681310D01*
X32637714Y-68681612D01*
X32758028Y-68847212D01*
X32758035Y-68847220D01*
X32902779Y-68991964D01*
X32902787Y-68991971D01*
X33068387Y-69112285D01*
X33068390Y-69112287D01*
X33250781Y-69205220D01*
X33445466Y-69268477D01*
X33647648Y-69300500D01*
X33647653Y-69300500D01*
X33852347Y-69300500D01*
X33852352Y-69300500D01*
X34054534Y-69268477D01*
X34249219Y-69205220D01*
X34431610Y-69112287D01*
X34597219Y-68991966D01*
X34741966Y-68847219D01*
X34862287Y-68681610D01*
X34955220Y-68499219D01*
X35018477Y-68304534D01*
X35050500Y-68102352D01*
X35050500Y-67897648D01*
X35018477Y-67695466D01*
X34955220Y-67500781D01*
X34862287Y-67318390D01*
X34824066Y-67265783D01*
X34741971Y-67152787D01*
X34741964Y-67152779D01*
X34694141Y-67104956D01*
X34655577Y-67038161D01*
X34650500Y-66999597D01*
X34650500Y-63023444D01*
X34653895Y-62958288D01*
X34650500Y-62934922D01*
X34650500Y-62911309D01*
X34637770Y-62847312D01*
X34628389Y-62782748D01*
X34620500Y-62760492D01*
X34615894Y-62737334D01*
X34590926Y-62677057D01*
X34569128Y-62615557D01*
X34557048Y-62595267D01*
X34548013Y-62573453D01*
X34548010Y-62573448D01*
X34548009Y-62573446D01*
X34513912Y-62522418D01*
X34513910Y-62522416D01*
X34511762Y-62519201D01*
X34478387Y-62463140D01*
X34462582Y-62445599D01*
X34456598Y-62436642D01*
X34456597Y-62436640D01*
X34449468Y-62425971D01*
X34449465Y-62425967D01*
X34449464Y-62425965D01*
X34406059Y-62382560D01*
X34400738Y-62376954D01*
X34359660Y-62331359D01*
X34359658Y-62331357D01*
X34359655Y-62331354D01*
X34349358Y-62323669D01*
X34340726Y-62317227D01*
X34324035Y-62300536D01*
X34269807Y-62264302D01*
X34266722Y-62261999D01*
X34266691Y-62261977D01*
X30690385Y-59593093D01*
X30642618Y-59532537D01*
X30630500Y-59473679D01*
X30630500Y-58169691D01*
X30650462Y-58095191D01*
X30674137Y-58064336D01*
X30683828Y-58054646D01*
X30799524Y-57895405D01*
X30867240Y-57762503D01*
X30918848Y-57705186D01*
X30992201Y-57681352D01*
X31067644Y-57697388D01*
X31124962Y-57748996D01*
X31132759Y-57762503D01*
X31200476Y-57895405D01*
X31316172Y-58054646D01*
X31455354Y-58193828D01*
X31614595Y-58309524D01*
X31752006Y-58379538D01*
X31789052Y-58398414D01*
X31789975Y-58398884D01*
X31977174Y-58459709D01*
X32171583Y-58490500D01*
X32171588Y-58490500D01*
X32368412Y-58490500D01*
X32368417Y-58490500D01*
X32562826Y-58459709D01*
X32750025Y-58398884D01*
X32925405Y-58309524D01*
X33084646Y-58193828D01*
X33223828Y-58054646D01*
X33339524Y-57895405D01*
X33407240Y-57762503D01*
X33458848Y-57705186D01*
X33532201Y-57681352D01*
X33607644Y-57697388D01*
X33664962Y-57748996D01*
X33672759Y-57762503D01*
X33740476Y-57895405D01*
X33856172Y-58054646D01*
X33995354Y-58193828D01*
X34154595Y-58309524D01*
X34292006Y-58379538D01*
X34329052Y-58398414D01*
X34329975Y-58398884D01*
X34517174Y-58459709D01*
X34711583Y-58490500D01*
X34711588Y-58490500D01*
X34908412Y-58490500D01*
X34908417Y-58490500D01*
X35102826Y-58459709D01*
X35290025Y-58398884D01*
X35465405Y-58309524D01*
X35624646Y-58193828D01*
X35763828Y-58054646D01*
X35879524Y-57895405D01*
X35947523Y-57761948D01*
X35999128Y-57704636D01*
X36072481Y-57680801D01*
X36147924Y-57696836D01*
X36205241Y-57748445D01*
X36213040Y-57761952D01*
X36280907Y-57895148D01*
X36306320Y-57930124D01*
X36826201Y-57410242D01*
X36837470Y-57452297D01*
X36909881Y-57577715D01*
X37012285Y-57680119D01*
X37137703Y-57752530D01*
X37179755Y-57763797D01*
X36659874Y-58283678D01*
X36694861Y-58309098D01*
X36870155Y-58398414D01*
X36870173Y-58398421D01*
X37057291Y-58459220D01*
X37251628Y-58490000D01*
X37448372Y-58490000D01*
X37642708Y-58459220D01*
X37829826Y-58398421D01*
X37829844Y-58398414D01*
X38005138Y-58309098D01*
X38040123Y-58283678D01*
X37520243Y-57763797D01*
X37562297Y-57752530D01*
X37687715Y-57680119D01*
X37790119Y-57577715D01*
X37862530Y-57452297D01*
X37873798Y-57410243D01*
X38393678Y-57930123D01*
X38419098Y-57895138D01*
X38486959Y-57761953D01*
X38491626Y-57756768D01*
X38493695Y-57750105D01*
X38517170Y-57728398D01*
X38538567Y-57704635D01*
X38545203Y-57702478D01*
X38550325Y-57697743D01*
X38581506Y-57690682D01*
X38611920Y-57680801D01*
X38618744Y-57682251D01*
X38625549Y-57680711D01*
X38656088Y-57690189D01*
X38687363Y-57696837D01*
X38692547Y-57701504D01*
X38699211Y-57703573D01*
X38719313Y-57725604D01*
X38744681Y-57748445D01*
X38751573Y-57760203D01*
X38752030Y-57761072D01*
X38820476Y-57895405D01*
X38828648Y-57906653D01*
X38833647Y-57916151D01*
X38839872Y-57943646D01*
X38849977Y-57969968D01*
X38848271Y-57980739D01*
X38850679Y-57991375D01*
X38842322Y-58018300D01*
X38837912Y-58046147D01*
X38828230Y-58063703D01*
X38827817Y-58065037D01*
X38827161Y-58065643D01*
X38825683Y-58068324D01*
X38790599Y-58120830D01*
X38788445Y-58124861D01*
X38788361Y-58125002D01*
X38788048Y-58125596D01*
X38787965Y-58125776D01*
X38785862Y-58129833D01*
X38758857Y-58197436D01*
X38758148Y-58199179D01*
X38730260Y-58266509D01*
X38728936Y-58270875D01*
X38728931Y-58270893D01*
X38728664Y-58271772D01*
X38728637Y-58271883D01*
X38727370Y-58276255D01*
X38714054Y-58347918D01*
X38714055Y-58347919D01*
X38713879Y-58348864D01*
X38699500Y-58421158D01*
X38699500Y-58426263D01*
X38698565Y-58431296D01*
X38699488Y-58504127D01*
X38699500Y-58506014D01*
X38699500Y-60832861D01*
X38679538Y-60907361D01*
X38625000Y-60961899D01*
X38618154Y-60965615D01*
X38602406Y-60973640D01*
X38556657Y-60996950D01*
X38466950Y-61086657D01*
X38409354Y-61199694D01*
X38409354Y-61199696D01*
X38394500Y-61293481D01*
X38394500Y-61293482D01*
X38394500Y-61293485D01*
X38394500Y-62706518D01*
X38409354Y-62800304D01*
X38466950Y-62913342D01*
X38556658Y-63003050D01*
X38669696Y-63060646D01*
X38763481Y-63075500D01*
X40236518Y-63075499D01*
X40330304Y-63060646D01*
X40443342Y-63003050D01*
X40533050Y-62913342D01*
X40590646Y-62800304D01*
X40605500Y-62706519D01*
X40605499Y-61293482D01*
X40590646Y-61199696D01*
X40533050Y-61086658D01*
X40443342Y-60996950D01*
X40381854Y-60965620D01*
X40324538Y-60914012D01*
X40300704Y-60840659D01*
X40300500Y-60832861D01*
X40300500Y-58886273D01*
X40305336Y-58868221D01*
X40305100Y-58849534D01*
X40315145Y-58831615D01*
X40320462Y-58811773D01*
X40342816Y-58782257D01*
X40458958Y-58663136D01*
X40460210Y-58661866D01*
X40511789Y-58610289D01*
X40511800Y-58610271D01*
X40514667Y-58606780D01*
X40514796Y-58606635D01*
X40515246Y-58606080D01*
X40515368Y-58605914D01*
X40518184Y-58602391D01*
X40518198Y-58602378D01*
X40557942Y-58541232D01*
X40558901Y-58539778D01*
X40572465Y-58519480D01*
X40599394Y-58479179D01*
X40599395Y-58479177D01*
X40601506Y-58475226D01*
X40602005Y-58474289D01*
X40602056Y-58474182D01*
X40604135Y-58470172D01*
X40606002Y-58465499D01*
X40631208Y-58402395D01*
X40631821Y-58400890D01*
X40659737Y-58333497D01*
X40659742Y-58333471D01*
X40661039Y-58329197D01*
X40661057Y-58329140D01*
X40661347Y-58328184D01*
X40661373Y-58328078D01*
X40662631Y-58323735D01*
X40665271Y-58309524D01*
X40674241Y-58261239D01*
X40707473Y-58191642D01*
X40715350Y-58183123D01*
X40843828Y-58054646D01*
X40959524Y-57895405D01*
X41048884Y-57720025D01*
X41109709Y-57532826D01*
X41140500Y-57338417D01*
X41140500Y-57141583D01*
X41109709Y-56947174D01*
X41048884Y-56759975D01*
X40959524Y-56584595D01*
X40843828Y-56425354D01*
X40801955Y-56383481D01*
X42849500Y-56383481D01*
X42849500Y-56383482D01*
X42849500Y-56383485D01*
X42849500Y-58096518D01*
X42861089Y-58169691D01*
X42864354Y-58190304D01*
X42921950Y-58303342D01*
X43011658Y-58393050D01*
X43124696Y-58450646D01*
X43218481Y-58465500D01*
X47781518Y-58465499D01*
X47875304Y-58450646D01*
X47988342Y-58393050D01*
X48078050Y-58303342D01*
X48135646Y-58190304D01*
X48150500Y-58096519D01*
X48150499Y-56383482D01*
X48135646Y-56289696D01*
X48078050Y-56176658D01*
X47988342Y-56086950D01*
X47940080Y-56062359D01*
X47875305Y-56029354D01*
X47859673Y-56026878D01*
X47781519Y-56014500D01*
X47781514Y-56014500D01*
X46549500Y-56014500D01*
X46475000Y-55994538D01*
X46420462Y-55940000D01*
X46400500Y-55865500D01*
X46400500Y-53911308D01*
X46365894Y-53737336D01*
X46365893Y-53737332D01*
X46298013Y-53573453D01*
X46298012Y-53573451D01*
X46199466Y-53425968D01*
X46199462Y-53425963D01*
X46074036Y-53300537D01*
X46074031Y-53300533D01*
X45926548Y-53201987D01*
X45926546Y-53201986D01*
X45762667Y-53134106D01*
X45762663Y-53134105D01*
X45588691Y-53099500D01*
X45411309Y-53099500D01*
X45237336Y-53134105D01*
X45237332Y-53134106D01*
X45073453Y-53201986D01*
X45073451Y-53201987D01*
X44925968Y-53300533D01*
X44925963Y-53300537D01*
X44800537Y-53425963D01*
X44800533Y-53425968D01*
X44701987Y-53573451D01*
X44701986Y-53573453D01*
X44634106Y-53737332D01*
X44634105Y-53737336D01*
X44599500Y-53911308D01*
X44599500Y-55865500D01*
X44579538Y-55940000D01*
X44525000Y-55994538D01*
X44450500Y-56014500D01*
X43218481Y-56014500D01*
X43124695Y-56029354D01*
X43124693Y-56029355D01*
X43011657Y-56086950D01*
X42921950Y-56176657D01*
X42864354Y-56289694D01*
X42864354Y-56289696D01*
X42849500Y-56383481D01*
X40801955Y-56383481D01*
X40704646Y-56286172D01*
X40551918Y-56175208D01*
X40503381Y-56115269D01*
X40490500Y-56054666D01*
X40490500Y-55564115D01*
X40510462Y-55489615D01*
X40565000Y-55435077D01*
X40571857Y-55431354D01*
X40578342Y-55428050D01*
X40668050Y-55338342D01*
X40725646Y-55225304D01*
X40740500Y-55131519D01*
X40740499Y-54268482D01*
X40725646Y-54174696D01*
X40668050Y-54061658D01*
X40578342Y-53971950D01*
X40465305Y-53914354D01*
X40449673Y-53911878D01*
X40371519Y-53899500D01*
X40371514Y-53899500D01*
X39408481Y-53899500D01*
X39314695Y-53914354D01*
X39314693Y-53914355D01*
X39201657Y-53971950D01*
X39111950Y-54061657D01*
X39054354Y-54174694D01*
X39054354Y-54174696D01*
X39039500Y-54268481D01*
X39039500Y-54268482D01*
X39039500Y-54268485D01*
X39039500Y-55131518D01*
X39054354Y-55225304D01*
X39111950Y-55338342D01*
X39201658Y-55428050D01*
X39208143Y-55431354D01*
X39265461Y-55482962D01*
X39289296Y-55556315D01*
X39289500Y-55564115D01*
X39289500Y-56054666D01*
X39269538Y-56129166D01*
X39228081Y-56175208D01*
X39199025Y-56196319D01*
X39075357Y-56286169D01*
X38936174Y-56425352D01*
X38936165Y-56425363D01*
X38820477Y-56584593D01*
X38752479Y-56718047D01*
X38700870Y-56775364D01*
X38627517Y-56799198D01*
X38552074Y-56783162D01*
X38494757Y-56731553D01*
X38486959Y-56718046D01*
X38419098Y-56584862D01*
X38393678Y-56549874D01*
X37873797Y-57069755D01*
X37862530Y-57027703D01*
X37790119Y-56902285D01*
X37687715Y-56799881D01*
X37562297Y-56727470D01*
X37520242Y-56716201D01*
X38040124Y-56196320D01*
X38040124Y-56196319D01*
X38005145Y-56170905D01*
X37829843Y-56081585D01*
X37829826Y-56081578D01*
X37642708Y-56020779D01*
X37448372Y-55990000D01*
X37251628Y-55990000D01*
X37057291Y-56020779D01*
X36870173Y-56081578D01*
X36870155Y-56081585D01*
X36694860Y-56170901D01*
X36694859Y-56170902D01*
X36659874Y-56196319D01*
X37179756Y-56716202D01*
X37137703Y-56727470D01*
X37012285Y-56799881D01*
X36909881Y-56902285D01*
X36837470Y-57027703D01*
X36826202Y-57069756D01*
X36306319Y-56549874D01*
X36280903Y-56584858D01*
X36213040Y-56718047D01*
X36161431Y-56775364D01*
X36088078Y-56799198D01*
X36012635Y-56783162D01*
X35955318Y-56731553D01*
X35947520Y-56718046D01*
X35890121Y-56605394D01*
X35879524Y-56584595D01*
X35763828Y-56425354D01*
X35624646Y-56286172D01*
X35465405Y-56170476D01*
X35410499Y-56142500D01*
X35290036Y-56081121D01*
X35290030Y-56081119D01*
X35290025Y-56081116D01*
X35102826Y-56020291D01*
X34908417Y-55989500D01*
X34711583Y-55989500D01*
X34517174Y-56020291D01*
X34329975Y-56081116D01*
X34329972Y-56081117D01*
X34329963Y-56081121D01*
X34154598Y-56170474D01*
X34154593Y-56170477D01*
X33995363Y-56286165D01*
X33995352Y-56286174D01*
X33856174Y-56425352D01*
X33856165Y-56425363D01*
X33740477Y-56584593D01*
X33740474Y-56584598D01*
X33672760Y-56717495D01*
X33621151Y-56774813D01*
X33547798Y-56798647D01*
X33472356Y-56782611D01*
X33415038Y-56731002D01*
X33407240Y-56717495D01*
X33372446Y-56649209D01*
X33339524Y-56584595D01*
X33223828Y-56425354D01*
X33084646Y-56286172D01*
X32925405Y-56170476D01*
X32870499Y-56142500D01*
X32750036Y-56081121D01*
X32750030Y-56081119D01*
X32750025Y-56081116D01*
X32562826Y-56020291D01*
X32368417Y-55989500D01*
X32171583Y-55989500D01*
X31977174Y-56020291D01*
X31789975Y-56081116D01*
X31789972Y-56081117D01*
X31789963Y-56081121D01*
X31614598Y-56170474D01*
X31614593Y-56170477D01*
X31455363Y-56286165D01*
X31455352Y-56286174D01*
X31316174Y-56425352D01*
X31316165Y-56425363D01*
X31200477Y-56584593D01*
X31200474Y-56584598D01*
X31132760Y-56717495D01*
X31081151Y-56774813D01*
X31007798Y-56798647D01*
X30932356Y-56782611D01*
X30875038Y-56731002D01*
X30867240Y-56717495D01*
X30832446Y-56649209D01*
X30799524Y-56584595D01*
X30683828Y-56425354D01*
X30544646Y-56286172D01*
X30385405Y-56170476D01*
X30330499Y-56142500D01*
X30210036Y-56081121D01*
X30210030Y-56081119D01*
X30210025Y-56081116D01*
X30022826Y-56020291D01*
X29828417Y-55989500D01*
X29631583Y-55989500D01*
X29437174Y-56020291D01*
X29249975Y-56081116D01*
X29249972Y-56081117D01*
X29249963Y-56081121D01*
X29074598Y-56170474D01*
X29074593Y-56170477D01*
X28915363Y-56286165D01*
X28915352Y-56286174D01*
X28776174Y-56425352D01*
X28776165Y-56425363D01*
X28660477Y-56584593D01*
X28660474Y-56584598D01*
X28592760Y-56717495D01*
X28541151Y-56774813D01*
X28467798Y-56798647D01*
X28392356Y-56782611D01*
X28335038Y-56731002D01*
X28327240Y-56717495D01*
X28292446Y-56649209D01*
X28259524Y-56584595D01*
X28143828Y-56425354D01*
X28004646Y-56286172D01*
X27845405Y-56170476D01*
X27790499Y-56142500D01*
X27670036Y-56081121D01*
X27670030Y-56081119D01*
X27670025Y-56081116D01*
X27482826Y-56020291D01*
X27288417Y-55989500D01*
X27091583Y-55989500D01*
X26897174Y-56020291D01*
X26709975Y-56081116D01*
X26709972Y-56081117D01*
X26709963Y-56081121D01*
X26534598Y-56170474D01*
X26534593Y-56170477D01*
X26375363Y-56286165D01*
X26375352Y-56286174D01*
X26236174Y-56425352D01*
X26236165Y-56425363D01*
X26120477Y-56584593D01*
X26120474Y-56584598D01*
X26052760Y-56717495D01*
X26001151Y-56774813D01*
X25927798Y-56798647D01*
X25852356Y-56782611D01*
X25795038Y-56731002D01*
X25787240Y-56717495D01*
X25752446Y-56649209D01*
X25719524Y-56584595D01*
X25603828Y-56425354D01*
X25464646Y-56286172D01*
X25311918Y-56175208D01*
X25263381Y-56115269D01*
X25250500Y-56054666D01*
X25250500Y-52920943D01*
X25250499Y-52920941D01*
X25209577Y-52768216D01*
X25130520Y-52631284D01*
X25018716Y-52519480D01*
X24881784Y-52440423D01*
X24729057Y-52399500D01*
X16749500Y-52399500D01*
X16675000Y-52379538D01*
X16620462Y-52325000D01*
X16600500Y-52250500D01*
X16600500Y-29538481D01*
X17444500Y-29538481D01*
X17444500Y-29538484D01*
X17444500Y-29538485D01*
X17444500Y-30461518D01*
X17459354Y-30555304D01*
X17516950Y-30668342D01*
X17606658Y-30758050D01*
X17719696Y-30815646D01*
X17813481Y-30830500D01*
X18686518Y-30830499D01*
X18780304Y-30815646D01*
X18893342Y-30758050D01*
X18894641Y-30756751D01*
X18897022Y-30755376D01*
X18902831Y-30751156D01*
X18903274Y-30751766D01*
X18961436Y-30718187D01*
X19038564Y-30718187D01*
X19096725Y-30751766D01*
X19097169Y-30751156D01*
X19102977Y-30755376D01*
X19105359Y-30756751D01*
X19106658Y-30758050D01*
X19219696Y-30815646D01*
X19313481Y-30830500D01*
X20186518Y-30830499D01*
X20280304Y-30815646D01*
X20393342Y-30758050D01*
X20483050Y-30668342D01*
X20483052Y-30668336D01*
X20487713Y-30661923D01*
X20547652Y-30613383D01*
X20608259Y-30600500D01*
X26440500Y-30600500D01*
X26515000Y-30620462D01*
X26569538Y-30675000D01*
X26589500Y-30749500D01*
X26589500Y-43354666D01*
X26569538Y-43429166D01*
X26528081Y-43475209D01*
X26375357Y-43586169D01*
X26236174Y-43725352D01*
X26236165Y-43725363D01*
X26120477Y-43884593D01*
X26120474Y-43884598D01*
X26052760Y-44017495D01*
X26001151Y-44074813D01*
X25927798Y-44098647D01*
X25852356Y-44082611D01*
X25795038Y-44031002D01*
X25787240Y-44017495D01*
X25729622Y-43904414D01*
X25719524Y-43884595D01*
X25603828Y-43725354D01*
X25464646Y-43586172D01*
X25311918Y-43475208D01*
X25263381Y-43415269D01*
X25250500Y-43354666D01*
X25250500Y-36407065D01*
X25268097Y-36336821D01*
X25270771Y-36331816D01*
X25270775Y-36331811D01*
X25323580Y-36204328D01*
X25350500Y-36068993D01*
X25350500Y-35931007D01*
X25323580Y-35795672D01*
X25270775Y-35668189D01*
X25194114Y-35553458D01*
X25096542Y-35455886D01*
X25032871Y-35413342D01*
X24981815Y-35379227D01*
X24981809Y-35379224D01*
X24854329Y-35326420D01*
X24854325Y-35326419D01*
X24718993Y-35299500D01*
X24581007Y-35299500D01*
X24445674Y-35326419D01*
X24445670Y-35326420D01*
X24318190Y-35379224D01*
X24318184Y-35379227D01*
X24203461Y-35455883D01*
X24203454Y-35455889D01*
X24105889Y-35553454D01*
X24105883Y-35553461D01*
X24029227Y-35668184D01*
X24029224Y-35668190D01*
X23976420Y-35795670D01*
X23976419Y-35795674D01*
X23949500Y-35931006D01*
X23949500Y-36068993D01*
X23976419Y-36204325D01*
X23976420Y-36204329D01*
X24029222Y-36331806D01*
X24031903Y-36336821D01*
X24049500Y-36407065D01*
X24049500Y-43354666D01*
X24029538Y-43429166D01*
X23988081Y-43475209D01*
X23835357Y-43586169D01*
X23696174Y-43725352D01*
X23696165Y-43725363D01*
X23580477Y-43884593D01*
X23580473Y-43884598D01*
X23577258Y-43890910D01*
X23525649Y-43948227D01*
X23452295Y-43972060D01*
X23376853Y-43956023D01*
X23319536Y-43904414D01*
X23295703Y-43831060D01*
X23295499Y-43823264D01*
X23295499Y-43658481D01*
X23284047Y-43586172D01*
X23280646Y-43564696D01*
X23223050Y-43451658D01*
X23133342Y-43361950D01*
X23020305Y-43304354D01*
X23004673Y-43301878D01*
X22926519Y-43289500D01*
X22926514Y-43289500D01*
X22859500Y-43289500D01*
X22785000Y-43269538D01*
X22730462Y-43215000D01*
X22710500Y-43140500D01*
X22710500Y-37807065D01*
X22728097Y-37736821D01*
X22730771Y-37731816D01*
X22730775Y-37731811D01*
X22783580Y-37604328D01*
X22810500Y-37468993D01*
X22810500Y-37331007D01*
X22783580Y-37195672D01*
X22730775Y-37068189D01*
X22654114Y-36953458D01*
X22556542Y-36855886D01*
X22556538Y-36855883D01*
X22441815Y-36779227D01*
X22441809Y-36779224D01*
X22314329Y-36726420D01*
X22314325Y-36726419D01*
X22178993Y-36699500D01*
X22041007Y-36699500D01*
X21905674Y-36726419D01*
X21905670Y-36726420D01*
X21778190Y-36779224D01*
X21778184Y-36779227D01*
X21663461Y-36855883D01*
X21663454Y-36855889D01*
X21565889Y-36953454D01*
X21565883Y-36953461D01*
X21489227Y-37068184D01*
X21489224Y-37068190D01*
X21436420Y-37195670D01*
X21436419Y-37195674D01*
X21409500Y-37331006D01*
X21409500Y-37468993D01*
X21436419Y-37604325D01*
X21436420Y-37604329D01*
X21489222Y-37731806D01*
X21491903Y-37736821D01*
X21509500Y-37807065D01*
X21509500Y-43140500D01*
X21489538Y-43215000D01*
X21435000Y-43269538D01*
X21360502Y-43289500D01*
X21293486Y-43289500D01*
X21199695Y-43304354D01*
X21199693Y-43304355D01*
X21086657Y-43361950D01*
X20996950Y-43451657D01*
X20939354Y-43564694D01*
X20935952Y-43586174D01*
X20924500Y-43658481D01*
X20924500Y-43658482D01*
X20924500Y-43658485D01*
X20924500Y-45421518D01*
X20935952Y-45493825D01*
X20939354Y-45515304D01*
X20996950Y-45628342D01*
X21086658Y-45718050D01*
X21199696Y-45775646D01*
X21293481Y-45790500D01*
X22926518Y-45790499D01*
X23020304Y-45775646D01*
X23133342Y-45718050D01*
X23223050Y-45628342D01*
X23280646Y-45515304D01*
X23295500Y-45421519D01*
X23295499Y-45256734D01*
X23315461Y-45182238D01*
X23369998Y-45127700D01*
X23444498Y-45107737D01*
X23518998Y-45127699D01*
X23573536Y-45182236D01*
X23577256Y-45189086D01*
X23580473Y-45195401D01*
X23580476Y-45195405D01*
X23696172Y-45354646D01*
X23835354Y-45493828D01*
X23994595Y-45609524D01*
X24031528Y-45628342D01*
X24169052Y-45698414D01*
X24169975Y-45698884D01*
X24357174Y-45759709D01*
X24551583Y-45790500D01*
X24551588Y-45790500D01*
X24748412Y-45790500D01*
X24748417Y-45790500D01*
X24942826Y-45759709D01*
X25130025Y-45698884D01*
X25305405Y-45609524D01*
X25464646Y-45493828D01*
X25603828Y-45354646D01*
X25719524Y-45195405D01*
X25787240Y-45062503D01*
X25838848Y-45005186D01*
X25912201Y-44981352D01*
X25987644Y-44997388D01*
X26044962Y-45048996D01*
X26052759Y-45062503D01*
X26120476Y-45195405D01*
X26236172Y-45354646D01*
X26375354Y-45493828D01*
X26534595Y-45609524D01*
X26571528Y-45628342D01*
X26709052Y-45698414D01*
X26709975Y-45698884D01*
X26897174Y-45759709D01*
X27091583Y-45790500D01*
X27091588Y-45790500D01*
X27288412Y-45790500D01*
X27288417Y-45790500D01*
X27482826Y-45759709D01*
X27670025Y-45698884D01*
X27845405Y-45609524D01*
X28004646Y-45493828D01*
X28143828Y-45354646D01*
X28259524Y-45195405D01*
X28327240Y-45062503D01*
X28378848Y-45005186D01*
X28452201Y-44981352D01*
X28527644Y-44997388D01*
X28584962Y-45048996D01*
X28592759Y-45062503D01*
X28660476Y-45195405D01*
X28776172Y-45354646D01*
X28915354Y-45493828D01*
X29074595Y-45609524D01*
X29111528Y-45628342D01*
X29249052Y-45698414D01*
X29249975Y-45698884D01*
X29437174Y-45759709D01*
X29631583Y-45790500D01*
X29631588Y-45790500D01*
X29828412Y-45790500D01*
X29828417Y-45790500D01*
X30022826Y-45759709D01*
X30210025Y-45698884D01*
X30385405Y-45609524D01*
X30544646Y-45493828D01*
X30683828Y-45354646D01*
X30799524Y-45195405D01*
X30867523Y-45061948D01*
X30919128Y-45004636D01*
X30992481Y-44980801D01*
X31067924Y-44996836D01*
X31125241Y-45048445D01*
X31133040Y-45061952D01*
X31200907Y-45195148D01*
X31226320Y-45230124D01*
X31746201Y-44710242D01*
X31757470Y-44752297D01*
X31829881Y-44877715D01*
X31932285Y-44980119D01*
X32057703Y-45052530D01*
X32099755Y-45063797D01*
X31579874Y-45583678D01*
X31614861Y-45609098D01*
X31790155Y-45698414D01*
X31790173Y-45698421D01*
X31977291Y-45759220D01*
X32171628Y-45790000D01*
X32368372Y-45790000D01*
X32562708Y-45759220D01*
X32749826Y-45698421D01*
X32749844Y-45698414D01*
X32925138Y-45609098D01*
X32960123Y-45583678D01*
X32440243Y-45063797D01*
X32482297Y-45052530D01*
X32607715Y-44980119D01*
X32710119Y-44877715D01*
X32782530Y-44752297D01*
X32793798Y-44710243D01*
X33313678Y-45230123D01*
X33339098Y-45195138D01*
X33407240Y-45061401D01*
X33458848Y-45004084D01*
X33532201Y-44980249D01*
X33607644Y-44996285D01*
X33664961Y-45047893D01*
X33672760Y-45061401D01*
X33740905Y-45195145D01*
X33766320Y-45230124D01*
X34286201Y-44710242D01*
X34297470Y-44752297D01*
X34369881Y-44877715D01*
X34472285Y-44980119D01*
X34597703Y-45052530D01*
X34639755Y-45063797D01*
X34119874Y-45583678D01*
X34154861Y-45609098D01*
X34330155Y-45698414D01*
X34330173Y-45698421D01*
X34517291Y-45759220D01*
X34711628Y-45790000D01*
X34908372Y-45790000D01*
X35102708Y-45759220D01*
X35289826Y-45698421D01*
X35289844Y-45698414D01*
X35465138Y-45609098D01*
X35500123Y-45583678D01*
X34980243Y-45063797D01*
X35022297Y-45052530D01*
X35147715Y-44980119D01*
X35250119Y-44877715D01*
X35322530Y-44752297D01*
X35333798Y-44710243D01*
X35853678Y-45230123D01*
X35879098Y-45195138D01*
X35947240Y-45061401D01*
X35998848Y-45004084D01*
X36072201Y-44980249D01*
X36147644Y-44996285D01*
X36204961Y-45047893D01*
X36212760Y-45061401D01*
X36280905Y-45195145D01*
X36306320Y-45230124D01*
X36826201Y-44710242D01*
X36837470Y-44752297D01*
X36909881Y-44877715D01*
X37012285Y-44980119D01*
X37137703Y-45052530D01*
X37179755Y-45063797D01*
X36659874Y-45583678D01*
X36694861Y-45609098D01*
X36870155Y-45698414D01*
X36870173Y-45698421D01*
X37057291Y-45759220D01*
X37251628Y-45790000D01*
X37448372Y-45790000D01*
X37642708Y-45759220D01*
X37829826Y-45698421D01*
X37829844Y-45698414D01*
X38005138Y-45609098D01*
X38040123Y-45583678D01*
X37520243Y-45063797D01*
X37562297Y-45052530D01*
X37687715Y-44980119D01*
X37790119Y-44877715D01*
X37862530Y-44752297D01*
X37873798Y-44710243D01*
X38393678Y-45230123D01*
X38419098Y-45195138D01*
X38486959Y-45061953D01*
X38538567Y-45004635D01*
X38611920Y-44980801D01*
X38687363Y-44996837D01*
X38744681Y-45048445D01*
X38752479Y-45061953D01*
X38820476Y-45195405D01*
X38936172Y-45354646D01*
X39075354Y-45493828D01*
X39234595Y-45609524D01*
X39271528Y-45628342D01*
X39409052Y-45698414D01*
X39409975Y-45698884D01*
X39597174Y-45759709D01*
X39791583Y-45790500D01*
X39791588Y-45790500D01*
X39988412Y-45790500D01*
X39988417Y-45790500D01*
X40182826Y-45759709D01*
X40370025Y-45698884D01*
X40545405Y-45609524D01*
X40704646Y-45493828D01*
X40843828Y-45354646D01*
X40959524Y-45195405D01*
X41048884Y-45020025D01*
X41109709Y-44832826D01*
X41140500Y-44638417D01*
X41140500Y-44441583D01*
X41109709Y-44247174D01*
X41048884Y-44059975D01*
X40959524Y-43884595D01*
X40843828Y-43725354D01*
X40704646Y-43586172D01*
X40545405Y-43470476D01*
X40535010Y-43465179D01*
X40370036Y-43381121D01*
X40370030Y-43381119D01*
X40370025Y-43381116D01*
X40182826Y-43320291D01*
X39988417Y-43289500D01*
X39791583Y-43289500D01*
X39597174Y-43320291D01*
X39468962Y-43361950D01*
X39409975Y-43381116D01*
X39409972Y-43381117D01*
X39409963Y-43381121D01*
X39234598Y-43470474D01*
X39234593Y-43470477D01*
X39075363Y-43586165D01*
X39075352Y-43586174D01*
X38936174Y-43725352D01*
X38936165Y-43725363D01*
X38820477Y-43884593D01*
X38752479Y-44018047D01*
X38700870Y-44075364D01*
X38627517Y-44099198D01*
X38552074Y-44083162D01*
X38494757Y-44031553D01*
X38486959Y-44018046D01*
X38419098Y-43884862D01*
X38393678Y-43849874D01*
X37873797Y-44369755D01*
X37862530Y-44327703D01*
X37790119Y-44202285D01*
X37687715Y-44099881D01*
X37562297Y-44027470D01*
X37520242Y-44016201D01*
X38040124Y-43496320D01*
X38040124Y-43496319D01*
X38005145Y-43470905D01*
X37829843Y-43381585D01*
X37829826Y-43381578D01*
X37642708Y-43320779D01*
X37448372Y-43290000D01*
X37251628Y-43290000D01*
X37057291Y-43320779D01*
X36870173Y-43381578D01*
X36870155Y-43381585D01*
X36694860Y-43470901D01*
X36694859Y-43470902D01*
X36659874Y-43496319D01*
X37179756Y-44016202D01*
X37137703Y-44027470D01*
X37012285Y-44099881D01*
X36909881Y-44202285D01*
X36837470Y-44327703D01*
X36826202Y-44369756D01*
X36306319Y-43849874D01*
X36280903Y-43884858D01*
X36212759Y-44018598D01*
X36161150Y-44075915D01*
X36087797Y-44099749D01*
X36012354Y-44083713D01*
X35955037Y-44032104D01*
X35947239Y-44018597D01*
X35879098Y-43884861D01*
X35853678Y-43849874D01*
X35333797Y-44369755D01*
X35322530Y-44327703D01*
X35250119Y-44202285D01*
X35147715Y-44099881D01*
X35022297Y-44027470D01*
X34980242Y-44016201D01*
X35500124Y-43496320D01*
X35500124Y-43496319D01*
X35465145Y-43470905D01*
X35289843Y-43381585D01*
X35289826Y-43381578D01*
X35102708Y-43320779D01*
X34908372Y-43290000D01*
X34711628Y-43290000D01*
X34517291Y-43320779D01*
X34330173Y-43381578D01*
X34330155Y-43381585D01*
X34154860Y-43470901D01*
X34154859Y-43470902D01*
X34119874Y-43496319D01*
X34639756Y-44016202D01*
X34597703Y-44027470D01*
X34472285Y-44099881D01*
X34369881Y-44202285D01*
X34297470Y-44327703D01*
X34286202Y-44369756D01*
X33766319Y-43849874D01*
X33740903Y-43884858D01*
X33672759Y-44018598D01*
X33621150Y-44075915D01*
X33547797Y-44099749D01*
X33472354Y-44083713D01*
X33415037Y-44032104D01*
X33407239Y-44018597D01*
X33339098Y-43884861D01*
X33313678Y-43849874D01*
X32793797Y-44369755D01*
X32782530Y-44327703D01*
X32710119Y-44202285D01*
X32607715Y-44099881D01*
X32482297Y-44027470D01*
X32440242Y-44016201D01*
X32960124Y-43496320D01*
X32960124Y-43496319D01*
X32925145Y-43470905D01*
X32749843Y-43381585D01*
X32749826Y-43381578D01*
X32562708Y-43320779D01*
X32368372Y-43290000D01*
X32171628Y-43290000D01*
X31977291Y-43320779D01*
X31790173Y-43381578D01*
X31790155Y-43381585D01*
X31614860Y-43470901D01*
X31614859Y-43470902D01*
X31579874Y-43496319D01*
X32099756Y-44016202D01*
X32057703Y-44027470D01*
X31932285Y-44099881D01*
X31829881Y-44202285D01*
X31757470Y-44327703D01*
X31746202Y-44369756D01*
X31226319Y-43849874D01*
X31200903Y-43884858D01*
X31133040Y-44018047D01*
X31081431Y-44075364D01*
X31008078Y-44099198D01*
X30932635Y-44083162D01*
X30875318Y-44031553D01*
X30867520Y-44018046D01*
X30799525Y-43884597D01*
X30799524Y-43884595D01*
X30683828Y-43725354D01*
X30544646Y-43586172D01*
X30385405Y-43470476D01*
X30375010Y-43465179D01*
X30210036Y-43381121D01*
X30210030Y-43381119D01*
X30210025Y-43381116D01*
X30022826Y-43320291D01*
X29828417Y-43289500D01*
X29631583Y-43289500D01*
X29437174Y-43320291D01*
X29308962Y-43361950D01*
X29249975Y-43381116D01*
X29249972Y-43381117D01*
X29249963Y-43381121D01*
X29074598Y-43470474D01*
X29074593Y-43470477D01*
X28915363Y-43586165D01*
X28915352Y-43586174D01*
X28776174Y-43725352D01*
X28776165Y-43725363D01*
X28660477Y-43884593D01*
X28660474Y-43884598D01*
X28592760Y-44017495D01*
X28541151Y-44074813D01*
X28467798Y-44098647D01*
X28392356Y-44082611D01*
X28335038Y-44031002D01*
X28327240Y-44017495D01*
X28269622Y-43904414D01*
X28259524Y-43884595D01*
X28143828Y-43725354D01*
X28004646Y-43586172D01*
X27851918Y-43475208D01*
X27803381Y-43415269D01*
X27790500Y-43354666D01*
X27790500Y-32249500D01*
X27810462Y-32175000D01*
X27865000Y-32120462D01*
X27939500Y-32100500D01*
X28592935Y-32100500D01*
X28663174Y-32118094D01*
X28668183Y-32120771D01*
X28668189Y-32120775D01*
X28795672Y-32173580D01*
X28931007Y-32200500D01*
X29068993Y-32200500D01*
X29204328Y-32173580D01*
X29331811Y-32120775D01*
X29446542Y-32044114D01*
X29544114Y-31946542D01*
X29620775Y-31831811D01*
X29673580Y-31704328D01*
X29700500Y-31568993D01*
X29700500Y-31431007D01*
X29673580Y-31295672D01*
X29620775Y-31168189D01*
X29544114Y-31053458D01*
X29446542Y-30955886D01*
X29446538Y-30955883D01*
X29331815Y-30879227D01*
X29331809Y-30879224D01*
X29204329Y-30826420D01*
X29204325Y-30826419D01*
X29068993Y-30799500D01*
X28931007Y-30799500D01*
X28795674Y-30826419D01*
X28795670Y-30826420D01*
X28668194Y-30879222D01*
X28663174Y-30881906D01*
X28592935Y-30899500D01*
X27939500Y-30899500D01*
X27865000Y-30879538D01*
X27810462Y-30825000D01*
X27790500Y-30750500D01*
X27790500Y-29920943D01*
X27790499Y-29920941D01*
X27749577Y-29768216D01*
X27670520Y-29631284D01*
X27558716Y-29519480D01*
X27421784Y-29440423D01*
X27269057Y-29399500D01*
X20608259Y-29399500D01*
X20533759Y-29379538D01*
X20487713Y-29338077D01*
X20483051Y-29331660D01*
X20483050Y-29331658D01*
X20393342Y-29241950D01*
X20280305Y-29184354D01*
X20264673Y-29181878D01*
X20186519Y-29169500D01*
X20186514Y-29169500D01*
X19313481Y-29169500D01*
X19219695Y-29184354D01*
X19219693Y-29184355D01*
X19106656Y-29241951D01*
X19106651Y-29241955D01*
X19105352Y-29243254D01*
X19105288Y-29243290D01*
X19105252Y-29243354D01*
X19102710Y-29244817D01*
X19097169Y-29248844D01*
X19096741Y-29248256D01*
X19072156Y-29262417D01*
X19038556Y-29281815D01*
X19038481Y-29281814D01*
X19038419Y-29281851D01*
X19000375Y-29281813D01*
X18961427Y-29281811D01*
X18961363Y-29281774D01*
X18961291Y-29281774D01*
X18928202Y-29262625D01*
X18894635Y-29243243D01*
X18894535Y-29243143D01*
X18894036Y-29242643D01*
X18855539Y-29175810D01*
X18850500Y-29137390D01*
X18850500Y-28007065D01*
X18868097Y-27936821D01*
X18870771Y-27931816D01*
X18870775Y-27931811D01*
X18923580Y-27804328D01*
X18950500Y-27668993D01*
X18950500Y-27531007D01*
X18923580Y-27395672D01*
X18870775Y-27268189D01*
X18868440Y-27264695D01*
X18794116Y-27153461D01*
X18794114Y-27153458D01*
X18696542Y-27055886D01*
X18693808Y-27054059D01*
X18581815Y-26979227D01*
X18581809Y-26979224D01*
X18454329Y-26926420D01*
X18454325Y-26926419D01*
X18318993Y-26899500D01*
X18181007Y-26899500D01*
X18045674Y-26926419D01*
X18045670Y-26926420D01*
X17918190Y-26979224D01*
X17918184Y-26979227D01*
X17803461Y-27055883D01*
X17803454Y-27055889D01*
X17705889Y-27153454D01*
X17705883Y-27153461D01*
X17629227Y-27268184D01*
X17629224Y-27268190D01*
X17576420Y-27395670D01*
X17576419Y-27395674D01*
X17549500Y-27531006D01*
X17549500Y-27668993D01*
X17576419Y-27804325D01*
X17576420Y-27804329D01*
X17629222Y-27931806D01*
X17631903Y-27936821D01*
X17649500Y-28007065D01*
X17649500Y-29137390D01*
X17629538Y-29211890D01*
X17605859Y-29242749D01*
X17516950Y-29331657D01*
X17459354Y-29444694D01*
X17459354Y-29444696D01*
X17444500Y-29538481D01*
X16600500Y-29538481D01*
X16600500Y-26749500D01*
X16620462Y-26675000D01*
X16675000Y-26620462D01*
X16749500Y-26600500D01*
X31679057Y-26600500D01*
X31831784Y-26559577D01*
X31968716Y-26480520D01*
X32080520Y-26368716D01*
X32159577Y-26231784D01*
X32200500Y-26079057D01*
X32200500Y-18531006D01*
X36299500Y-18531006D01*
X36299500Y-18668993D01*
X36326419Y-18804325D01*
X36326420Y-18804329D01*
X36379222Y-18931806D01*
X36381903Y-18936821D01*
X36399500Y-19007065D01*
X36399500Y-20079057D01*
X36440423Y-20231784D01*
X36519480Y-20368716D01*
X36631284Y-20480520D01*
X36768216Y-20559577D01*
X36920943Y-20600500D01*
X37079057Y-20600500D01*
X37191741Y-20600500D01*
X37266241Y-20620462D01*
X37312287Y-20661923D01*
X37316949Y-20668340D01*
X37316950Y-20668342D01*
X37406658Y-20758050D01*
X37519696Y-20815646D01*
X37613481Y-20830500D01*
X38486518Y-20830499D01*
X38580304Y-20815646D01*
X38693342Y-20758050D01*
X38694641Y-20756751D01*
X38697022Y-20755376D01*
X38702831Y-20751156D01*
X38703274Y-20751766D01*
X38761436Y-20718187D01*
X38838564Y-20718187D01*
X38905359Y-20756751D01*
X38905859Y-20757251D01*
X38944423Y-20824046D01*
X38949500Y-20862610D01*
X38949500Y-21092934D01*
X38931908Y-21163168D01*
X38929225Y-21168186D01*
X38876420Y-21295670D01*
X38876419Y-21295674D01*
X38849500Y-21431006D01*
X38849500Y-21568993D01*
X38876419Y-21704325D01*
X38876420Y-21704329D01*
X38929224Y-21831809D01*
X38929227Y-21831815D01*
X38996520Y-21932525D01*
X39005886Y-21946542D01*
X39103458Y-22044114D01*
X39103461Y-22044116D01*
X39218184Y-22120772D01*
X39218186Y-22120773D01*
X39218189Y-22120775D01*
X39345672Y-22173580D01*
X39481007Y-22200500D01*
X39618993Y-22200500D01*
X39754328Y-22173580D01*
X39881811Y-22120775D01*
X39967719Y-22063373D01*
X40040754Y-22038580D01*
X40116400Y-22053627D01*
X40174388Y-22104480D01*
X40199181Y-22177515D01*
X40199500Y-22187261D01*
X40199500Y-30921158D01*
X40199500Y-31971592D01*
X40195925Y-32021897D01*
X40199500Y-32050256D01*
X40199500Y-34578842D01*
X40230262Y-34733494D01*
X40230263Y-34733498D01*
X40290604Y-34879176D01*
X40290605Y-34879178D01*
X40290606Y-34879179D01*
X40378211Y-35010289D01*
X40489711Y-35121789D01*
X40620821Y-35209394D01*
X40766503Y-35269737D01*
X40921158Y-35300500D01*
X41078842Y-35300500D01*
X41818147Y-35300500D01*
X41892647Y-35320462D01*
X41947185Y-35375000D01*
X41950899Y-35381841D01*
X41966950Y-35413342D01*
X42056658Y-35503050D01*
X42169696Y-35560646D01*
X42263481Y-35575500D01*
X43736518Y-35575499D01*
X43830304Y-35560646D01*
X43943342Y-35503050D01*
X44033050Y-35413342D01*
X44090646Y-35300304D01*
X44105500Y-35206519D01*
X44105499Y-33949499D01*
X44125461Y-33875000D01*
X44179999Y-33820462D01*
X44254499Y-33800500D01*
X46245500Y-33800500D01*
X46320000Y-33820462D01*
X46374538Y-33875000D01*
X46394500Y-33949500D01*
X46394500Y-35206518D01*
X46409227Y-35299500D01*
X46409354Y-35300304D01*
X46466950Y-35413342D01*
X46556658Y-35503050D01*
X46669696Y-35560646D01*
X46763481Y-35575500D01*
X48236518Y-35575499D01*
X48330304Y-35560646D01*
X48443342Y-35503050D01*
X48533050Y-35413342D01*
X48590646Y-35300304D01*
X48605500Y-35206519D01*
X48605499Y-33949499D01*
X48625461Y-33875000D01*
X48679999Y-33820462D01*
X48754499Y-33800500D01*
X51245500Y-33800500D01*
X51320000Y-33820462D01*
X51374538Y-33875000D01*
X51394500Y-33949500D01*
X51394500Y-35206518D01*
X51409227Y-35299500D01*
X51409354Y-35300304D01*
X51466950Y-35413342D01*
X51556658Y-35503050D01*
X51669696Y-35560646D01*
X51763481Y-35575500D01*
X53236518Y-35575499D01*
X53330304Y-35560646D01*
X53443342Y-35503050D01*
X53533050Y-35413342D01*
X53590646Y-35300304D01*
X53605500Y-35206519D01*
X53605499Y-33949499D01*
X53625461Y-33875000D01*
X53679999Y-33820462D01*
X53754499Y-33800500D01*
X56350500Y-33800500D01*
X56425000Y-33820462D01*
X56479538Y-33875000D01*
X56499500Y-33949500D01*
X56499500Y-34981518D01*
X56514354Y-35075304D01*
X56571950Y-35188342D01*
X56661658Y-35278050D01*
X56774696Y-35335646D01*
X56868481Y-35350500D01*
X57731518Y-35350499D01*
X57825304Y-35335646D01*
X57938342Y-35278050D01*
X58028050Y-35188342D01*
X58085646Y-35075304D01*
X58100500Y-34981519D01*
X58100500Y-34578842D01*
X58100500Y-33693295D01*
X58120462Y-33618795D01*
X58144138Y-33587939D01*
X58221789Y-33510289D01*
X58309394Y-33379179D01*
X58369737Y-33233497D01*
X58400500Y-33078842D01*
X58400500Y-29421158D01*
X58369737Y-29266503D01*
X58309394Y-29120821D01*
X58225611Y-28995431D01*
X58200819Y-28922396D01*
X58200500Y-28912651D01*
X58200500Y-16920943D01*
X58200499Y-16920941D01*
X58159577Y-16768216D01*
X58080520Y-16631284D01*
X58079732Y-16630496D01*
X58079173Y-16629527D01*
X58074574Y-16623534D01*
X58075362Y-16622928D01*
X58041168Y-16563701D01*
X58041168Y-16486573D01*
X58079732Y-16419778D01*
X58117447Y-16392377D01*
X58148934Y-16376333D01*
X58148939Y-16376330D01*
X58301746Y-16265309D01*
X58301749Y-16265307D01*
X58435307Y-16131749D01*
X58435309Y-16131746D01*
X58546330Y-15978939D01*
X58546330Y-15978938D01*
X58632083Y-15810642D01*
X58690450Y-15631006D01*
X58690451Y-15631006D01*
X58695362Y-15600000D01*
X57835683Y-15600000D01*
X57840078Y-15595605D01*
X57892739Y-15504394D01*
X57919998Y-15402661D01*
X57919998Y-15297339D01*
X57892739Y-15195606D01*
X57840078Y-15104395D01*
X57835683Y-15100000D01*
X58695361Y-15100000D01*
X58690451Y-15068993D01*
X58632083Y-14889357D01*
X58546330Y-14721061D01*
X58546330Y-14721060D01*
X58435309Y-14568253D01*
X58435307Y-14568250D01*
X58301749Y-14434692D01*
X58301746Y-14434690D01*
X58148938Y-14323669D01*
X57980642Y-14237916D01*
X57801006Y-14179549D01*
X57801006Y-14179548D01*
X57614438Y-14150000D01*
X57020000Y-14150000D01*
X57020000Y-14950001D01*
X56520000Y-14950001D01*
X56520000Y-14150000D01*
X55925562Y-14150000D01*
X55738993Y-14179548D01*
X55738993Y-14179549D01*
X55559357Y-14237916D01*
X55391061Y-14323669D01*
X55391060Y-14323669D01*
X55238253Y-14434690D01*
X55238250Y-14434692D01*
X55104692Y-14568250D01*
X55104690Y-14568253D01*
X54993669Y-14721060D01*
X54993669Y-14721061D01*
X54907916Y-14889357D01*
X54849549Y-15068993D01*
X54849548Y-15068993D01*
X54844638Y-15100000D01*
X55704317Y-15100000D01*
X55699922Y-15104395D01*
X55647261Y-15195606D01*
X55620002Y-15297339D01*
X55620002Y-15402661D01*
X55647261Y-15504394D01*
X55699922Y-15595605D01*
X55704317Y-15600000D01*
X54844638Y-15600000D01*
X54849548Y-15631006D01*
X54907916Y-15810642D01*
X54993669Y-15978938D01*
X54993669Y-15978939D01*
X55104690Y-16131746D01*
X55104692Y-16131749D01*
X55118084Y-16145141D01*
X55156648Y-16211936D01*
X55156648Y-16289064D01*
X55118084Y-16355859D01*
X55051289Y-16394423D01*
X55012725Y-16399500D01*
X54329057Y-16399500D01*
X54170943Y-16399500D01*
X54018216Y-16440423D01*
X54018214Y-16440423D01*
X54018214Y-16440424D01*
X53881283Y-16519480D01*
X53769480Y-16631283D01*
X53690424Y-16768214D01*
X53649500Y-16920941D01*
X53649500Y-17137390D01*
X53629538Y-17211890D01*
X53605859Y-17242749D01*
X53516950Y-17331657D01*
X53459354Y-17444694D01*
X53455271Y-17470474D01*
X53444500Y-17538481D01*
X53444500Y-17538484D01*
X53444500Y-17538485D01*
X53444500Y-18461518D01*
X53455506Y-18531006D01*
X53459354Y-18555304D01*
X53516950Y-18668342D01*
X53606658Y-18758050D01*
X53719696Y-18815646D01*
X53813481Y-18830500D01*
X54686518Y-18830499D01*
X54780304Y-18815646D01*
X54893342Y-18758050D01*
X54894641Y-18756751D01*
X54897022Y-18755376D01*
X54902831Y-18751156D01*
X54903274Y-18751766D01*
X54961436Y-18718187D01*
X55038564Y-18718187D01*
X55105359Y-18756751D01*
X55105859Y-18757251D01*
X55144423Y-18824046D01*
X55149500Y-18862610D01*
X55149500Y-20172390D01*
X55129538Y-20246890D01*
X55105859Y-20277749D01*
X55021950Y-20361657D01*
X54964354Y-20474694D01*
X54961976Y-20489711D01*
X54949500Y-20568481D01*
X54949500Y-20568482D01*
X54949500Y-20568485D01*
X54949500Y-21431518D01*
X54964354Y-21525304D01*
X55021950Y-21638342D01*
X55111658Y-21728050D01*
X55224696Y-21785646D01*
X55318481Y-21800500D01*
X56181518Y-21800499D01*
X56275304Y-21785646D01*
X56388342Y-21728050D01*
X56478050Y-21638342D01*
X56535646Y-21525304D01*
X56550500Y-21431519D01*
X56550499Y-20568482D01*
X56535646Y-20474696D01*
X56478050Y-20361658D01*
X56394141Y-20277749D01*
X56355577Y-20210954D01*
X56350500Y-20172390D01*
X56350500Y-18862610D01*
X56370462Y-18788110D01*
X56394141Y-18757251D01*
X56433205Y-18718187D01*
X56483050Y-18668342D01*
X56540646Y-18555304D01*
X56555500Y-18461519D01*
X56555499Y-17749499D01*
X56575461Y-17675000D01*
X56629999Y-17620462D01*
X56704499Y-17600500D01*
X56850500Y-17600500D01*
X56925000Y-17620462D01*
X56979538Y-17675000D01*
X56999500Y-17749500D01*
X56999500Y-26921299D01*
X56979538Y-26995799D01*
X56925000Y-27050337D01*
X56850500Y-27070299D01*
X56782855Y-27054059D01*
X56685305Y-27004354D01*
X56669673Y-27001878D01*
X56591519Y-26989500D01*
X56591514Y-26989500D01*
X54408481Y-26989500D01*
X54314695Y-27004354D01*
X54314693Y-27004355D01*
X54201657Y-27061950D01*
X54111950Y-27151657D01*
X54054354Y-27264694D01*
X54052079Y-27279057D01*
X54039500Y-27358481D01*
X54039500Y-27358482D01*
X54039500Y-27358485D01*
X54039500Y-31641518D01*
X54054354Y-31735304D01*
X54054355Y-31735306D01*
X54111950Y-31848342D01*
X54208749Y-31945141D01*
X54247313Y-32011936D01*
X54247313Y-32089064D01*
X54208749Y-32155859D01*
X54141954Y-32194423D01*
X54103390Y-32199500D01*
X52896610Y-32199500D01*
X52822110Y-32179538D01*
X52767572Y-32125000D01*
X52747610Y-32050500D01*
X52767572Y-31976000D01*
X52791251Y-31945141D01*
X52799500Y-31936892D01*
X52888050Y-31848342D01*
X52945646Y-31735304D01*
X52960500Y-31641519D01*
X52960499Y-27358482D01*
X52945646Y-27264696D01*
X52888050Y-27151658D01*
X52798342Y-27061950D01*
X52782855Y-27054059D01*
X52685305Y-27004354D01*
X52669673Y-27001878D01*
X52591519Y-26989500D01*
X52591514Y-26989500D01*
X50408481Y-26989500D01*
X50314695Y-27004354D01*
X50303540Y-27007979D01*
X50302937Y-27006125D01*
X50241699Y-27019142D01*
X50168346Y-26995306D01*
X50116739Y-26937988D01*
X50100500Y-26870346D01*
X50100500Y-24181343D01*
X50120462Y-24106843D01*
X50175000Y-24052305D01*
X50249500Y-24032343D01*
X50317144Y-24048583D01*
X50399694Y-24090645D01*
X50399696Y-24090646D01*
X50493481Y-24105500D01*
X51906518Y-24105499D01*
X52000304Y-24090646D01*
X52113342Y-24033050D01*
X52203050Y-23943342D01*
X52260646Y-23830304D01*
X52275500Y-23736519D01*
X52275499Y-22263482D01*
X52273284Y-22249499D01*
X52271603Y-22238884D01*
X52260646Y-22169696D01*
X52203050Y-22056658D01*
X52113342Y-21966950D01*
X52113341Y-21966949D01*
X52113339Y-21966948D01*
X52081854Y-21950905D01*
X52024537Y-21899296D01*
X52000704Y-21825943D01*
X52000500Y-21818146D01*
X52000500Y-20921157D01*
X51975345Y-20794696D01*
X51969737Y-20766503D01*
X51934593Y-20681657D01*
X51909395Y-20620823D01*
X51906807Y-20616950D01*
X51821789Y-20489711D01*
X51710289Y-20378211D01*
X51579179Y-20290606D01*
X51579178Y-20290605D01*
X51579176Y-20290604D01*
X51433498Y-20230263D01*
X51433494Y-20230262D01*
X51278842Y-20199500D01*
X51121158Y-20199500D01*
X50966505Y-20230262D01*
X50966501Y-20230263D01*
X50820823Y-20290604D01*
X50733012Y-20349278D01*
X50703922Y-20368716D01*
X50689707Y-20378214D01*
X50578214Y-20489707D01*
X50578211Y-20489710D01*
X50578211Y-20489711D01*
X50561985Y-20513995D01*
X50490604Y-20620823D01*
X50430263Y-20766501D01*
X50430262Y-20766505D01*
X50399500Y-20921157D01*
X50399500Y-21750500D01*
X50379538Y-21825000D01*
X50325000Y-21879538D01*
X50250500Y-21899500D01*
X47404500Y-21899500D01*
X47330000Y-21879538D01*
X47275462Y-21825000D01*
X47255500Y-21750500D01*
X47255499Y-20888481D01*
X47245294Y-20824046D01*
X47240646Y-20794696D01*
X47183050Y-20681658D01*
X47093342Y-20591950D01*
X47047282Y-20568481D01*
X46980305Y-20534354D01*
X46964673Y-20531878D01*
X46886519Y-20519500D01*
X46886514Y-20519500D01*
X46013481Y-20519500D01*
X45919695Y-20534354D01*
X45919693Y-20534355D01*
X45806657Y-20591950D01*
X45716951Y-20681656D01*
X45712287Y-20688077D01*
X45688177Y-20707601D01*
X45666241Y-20729538D01*
X45658542Y-20731600D01*
X45652348Y-20736617D01*
X45591741Y-20749500D01*
X45512610Y-20749500D01*
X45438110Y-20729538D01*
X45407251Y-20705859D01*
X45406751Y-20705359D01*
X45396943Y-20688371D01*
X45383572Y-20675000D01*
X45378677Y-20656734D01*
X45368187Y-20638564D01*
X45368187Y-20617581D01*
X45363610Y-20600500D01*
X45368187Y-20583418D01*
X45368187Y-20561436D01*
X45379177Y-20542399D01*
X45383572Y-20526000D01*
X45395576Y-20513995D01*
X45401766Y-20503274D01*
X45401156Y-20502831D01*
X45405376Y-20497022D01*
X45406751Y-20494641D01*
X45408050Y-20493342D01*
X45465646Y-20380304D01*
X45480500Y-20286519D01*
X45480499Y-19413482D01*
X45465646Y-19319696D01*
X45408050Y-19206658D01*
X45318342Y-19116950D01*
X45275263Y-19095000D01*
X45205305Y-19059354D01*
X45189673Y-19056878D01*
X45111519Y-19044500D01*
X45111514Y-19044500D01*
X44188481Y-19044500D01*
X44094695Y-19059354D01*
X44094693Y-19059355D01*
X43981656Y-19116951D01*
X43981653Y-19116953D01*
X43889492Y-19209114D01*
X43822697Y-19247678D01*
X43788788Y-19252682D01*
X43155314Y-19272477D01*
X43080227Y-19254852D01*
X43045301Y-19228909D01*
X42988342Y-19171950D01*
X42875305Y-19114354D01*
X42859673Y-19111878D01*
X42781519Y-19099500D01*
X42378844Y-19099500D01*
X42378842Y-19099500D01*
X41078842Y-19099500D01*
X40921158Y-19099500D01*
X40766505Y-19130262D01*
X40766501Y-19130263D01*
X40620823Y-19190604D01*
X40489707Y-19278214D01*
X40465016Y-19302906D01*
X40398221Y-19341470D01*
X40321093Y-19341470D01*
X40254298Y-19302906D01*
X40193342Y-19241950D01*
X40080305Y-19184354D01*
X40064673Y-19181878D01*
X39986519Y-19169500D01*
X39986514Y-19169500D01*
X39113481Y-19169500D01*
X39019695Y-19184354D01*
X39019693Y-19184355D01*
X38906657Y-19241950D01*
X38905359Y-19243249D01*
X38902977Y-19244623D01*
X38897169Y-19248844D01*
X38896725Y-19248233D01*
X38838564Y-19281813D01*
X38761436Y-19281813D01*
X38703274Y-19248233D01*
X38702831Y-19248844D01*
X38697022Y-19244623D01*
X38694641Y-19243249D01*
X38693342Y-19241950D01*
X38580305Y-19184354D01*
X38564673Y-19181878D01*
X38486519Y-19169500D01*
X38486514Y-19169500D01*
X37749500Y-19169500D01*
X37675000Y-19149538D01*
X37620462Y-19095000D01*
X37600500Y-19020500D01*
X37600500Y-19007065D01*
X37618097Y-18936821D01*
X37620771Y-18931816D01*
X37620775Y-18931811D01*
X37673580Y-18804328D01*
X37700500Y-18668993D01*
X37700500Y-18531007D01*
X37673580Y-18395672D01*
X37620775Y-18268189D01*
X37544114Y-18153458D01*
X37446542Y-18055886D01*
X37446538Y-18055883D01*
X37331815Y-17979227D01*
X37331809Y-17979224D01*
X37204329Y-17926420D01*
X37204325Y-17926419D01*
X37068993Y-17899500D01*
X36931007Y-17899500D01*
X36795674Y-17926419D01*
X36795670Y-17926420D01*
X36668190Y-17979224D01*
X36668184Y-17979227D01*
X36553461Y-18055883D01*
X36553454Y-18055889D01*
X36455889Y-18153454D01*
X36455883Y-18153461D01*
X36379227Y-18268184D01*
X36379224Y-18268190D01*
X36326420Y-18395670D01*
X36326419Y-18395674D01*
X36299500Y-18531006D01*
X32200500Y-18531006D01*
X32200500Y-13380943D01*
X32159577Y-13228216D01*
X32080520Y-13091284D01*
X31968716Y-12979480D01*
X31831784Y-12900423D01*
X31679057Y-12859500D01*
X28425335Y-12859500D01*
X28350835Y-12839538D01*
X28304792Y-12798081D01*
X28255501Y-12730239D01*
X28193828Y-12645354D01*
X28054646Y-12506172D01*
X27895405Y-12390476D01*
X27877507Y-12381357D01*
X27761953Y-12322479D01*
X27704635Y-12270870D01*
X27680801Y-12197517D01*
X27696837Y-12122075D01*
X27748446Y-12064757D01*
X27761953Y-12056959D01*
X27895138Y-11989098D01*
X27930123Y-11963678D01*
X27410243Y-11443797D01*
X27452297Y-11432530D01*
X27577715Y-11360119D01*
X27680119Y-11257715D01*
X27752530Y-11132297D01*
X27763798Y-11090243D01*
X28283678Y-11610123D01*
X28309098Y-11575138D01*
X28398414Y-11399844D01*
X28398421Y-11399826D01*
X28459220Y-11212708D01*
X28490000Y-11018372D01*
X28490000Y-10821627D01*
X28459220Y-10627291D01*
X28398421Y-10440173D01*
X28398414Y-10440155D01*
X28309098Y-10264861D01*
X28283678Y-10229874D01*
X27763797Y-10749755D01*
X27752530Y-10707703D01*
X27680119Y-10582285D01*
X27577715Y-10479881D01*
X27452297Y-10407470D01*
X27410242Y-10396201D01*
X27930124Y-9876320D01*
X27930124Y-9876319D01*
X27895146Y-9850906D01*
X27887990Y-9847260D01*
X27830672Y-9795653D01*
X27806836Y-9722300D01*
X27822871Y-9646857D01*
X27874478Y-9589539D01*
X27947831Y-9565703D01*
X27955628Y-9565499D01*
X28121518Y-9565499D01*
X28121519Y-9565499D01*
X28134341Y-9563468D01*
X28215304Y-9550646D01*
X28328342Y-9493050D01*
X28418050Y-9403342D01*
X28475646Y-9290304D01*
X28490500Y-9196519D01*
X28490499Y-7563482D01*
X28475646Y-7469696D01*
X28475645Y-7469694D01*
X28473811Y-7458114D01*
X28475257Y-7457884D01*
X28471884Y-7393521D01*
X28506899Y-7324799D01*
X28571584Y-7282792D01*
X28617628Y-7275499D01*
X29431519Y-7275499D01*
X29444341Y-7273468D01*
X29525304Y-7260646D01*
X29638342Y-7203050D01*
X29728050Y-7113342D01*
X29785646Y-7000304D01*
X29800500Y-6906519D01*
X29800499Y-5893482D01*
X29800499Y-5893481D01*
X31199500Y-5893481D01*
X31199500Y-5893482D01*
X31199500Y-5893485D01*
X31199500Y-6906518D01*
X31214354Y-7000304D01*
X31214355Y-7000306D01*
X31259390Y-7088691D01*
X31271950Y-7113342D01*
X31361658Y-7203050D01*
X31474696Y-7260646D01*
X31568481Y-7275500D01*
X32831518Y-7275499D01*
X32925304Y-7260646D01*
X33011474Y-7216739D01*
X33079118Y-7200500D01*
X34027699Y-7200500D01*
X34102199Y-7220462D01*
X34156737Y-7275000D01*
X34176699Y-7349500D01*
X34156737Y-7424000D01*
X34102199Y-7478537D01*
X34102198Y-7478538D01*
X34031284Y-7519479D01*
X33919480Y-7631283D01*
X33845614Y-7759224D01*
X33840423Y-7768216D01*
X33832439Y-7798012D01*
X33799500Y-7920941D01*
X33799500Y-7920943D01*
X33799500Y-12679057D01*
X33840423Y-12831784D01*
X33919480Y-12968716D01*
X34031284Y-13080520D01*
X34168216Y-13159577D01*
X34320943Y-13200500D01*
X34479057Y-13200500D01*
X35891741Y-13200500D01*
X35966241Y-13220462D01*
X36012287Y-13261923D01*
X36016949Y-13268340D01*
X36016950Y-13268342D01*
X36106658Y-13358050D01*
X36219696Y-13415646D01*
X36313481Y-13430500D01*
X37186518Y-13430499D01*
X37280304Y-13415646D01*
X37393342Y-13358050D01*
X37483050Y-13268342D01*
X37540646Y-13155304D01*
X37555500Y-13061519D01*
X37555499Y-12138482D01*
X37540646Y-12044696D01*
X37483050Y-11931658D01*
X37393342Y-11841950D01*
X37280305Y-11784354D01*
X37264673Y-11781878D01*
X37186519Y-11769500D01*
X37186514Y-11769500D01*
X36313481Y-11769500D01*
X36219695Y-11784354D01*
X36219693Y-11784355D01*
X36106657Y-11841950D01*
X36016951Y-11931656D01*
X36012287Y-11938077D01*
X35952348Y-11986617D01*
X35891741Y-11999500D01*
X35149500Y-11999500D01*
X35075000Y-11979538D01*
X35020462Y-11925000D01*
X35000500Y-11850500D01*
X35000500Y-10411308D01*
X38599500Y-10411308D01*
X38599500Y-10588691D01*
X38634105Y-10762663D01*
X38634106Y-10762667D01*
X38701986Y-10926546D01*
X38701987Y-10926548D01*
X38767975Y-11025305D01*
X38800536Y-11074035D01*
X38925965Y-11199464D01*
X38925968Y-11199466D01*
X39073451Y-11298012D01*
X39073453Y-11298013D01*
X39237334Y-11365894D01*
X39411309Y-11400500D01*
X40938691Y-11400500D01*
X41112666Y-11365894D01*
X41186138Y-11335460D01*
X41243163Y-11311841D01*
X41300182Y-11300499D01*
X41381519Y-11300499D01*
X41397215Y-11298013D01*
X41475304Y-11285646D01*
X41588342Y-11228050D01*
X41678050Y-11138342D01*
X41735646Y-11025304D01*
X41750500Y-10931519D01*
X41750500Y-10551284D01*
X41750500Y-10411309D01*
X41750500Y-10411308D01*
X41750500Y-10402181D01*
X41750499Y-10402163D01*
X41750499Y-10068481D01*
X41736726Y-9981518D01*
X41735646Y-9974696D01*
X41678050Y-9861658D01*
X41588342Y-9771950D01*
X41536616Y-9745594D01*
X41475305Y-9714354D01*
X41459673Y-9711878D01*
X41381519Y-9699500D01*
X41381514Y-9699500D01*
X41300180Y-9699500D01*
X41243161Y-9688158D01*
X41112667Y-9634106D01*
X41112663Y-9634105D01*
X40938691Y-9599500D01*
X39411309Y-9599500D01*
X39237336Y-9634105D01*
X39237332Y-9634106D01*
X39073453Y-9701986D01*
X39073451Y-9701987D01*
X38925968Y-9800533D01*
X38925963Y-9800537D01*
X38800537Y-9925963D01*
X38800533Y-9925968D01*
X38701987Y-10073451D01*
X38701986Y-10073453D01*
X38634106Y-10237332D01*
X38634105Y-10237336D01*
X38599500Y-10411308D01*
X35000500Y-10411308D01*
X35000500Y-8815278D01*
X35020462Y-8740778D01*
X35075000Y-8686240D01*
X35149500Y-8666278D01*
X35192760Y-8672696D01*
X35195664Y-8673576D01*
X35195672Y-8673580D01*
X35331007Y-8700500D01*
X35468993Y-8700500D01*
X35604328Y-8673580D01*
X35731811Y-8620775D01*
X35731820Y-8620768D01*
X35736826Y-8618094D01*
X35807065Y-8600500D01*
X35891741Y-8600500D01*
X35966241Y-8620462D01*
X36012287Y-8661923D01*
X36016949Y-8668340D01*
X36016950Y-8668342D01*
X36106658Y-8758050D01*
X36219696Y-8815646D01*
X36313481Y-8830500D01*
X37186518Y-8830499D01*
X37280304Y-8815646D01*
X37393342Y-8758050D01*
X37394641Y-8756751D01*
X37397022Y-8755376D01*
X37402831Y-8751156D01*
X37403274Y-8751766D01*
X37461436Y-8718187D01*
X37538564Y-8718187D01*
X37596725Y-8751766D01*
X37597169Y-8751156D01*
X37602977Y-8755376D01*
X37605359Y-8756751D01*
X37606658Y-8758050D01*
X37719696Y-8815646D01*
X37813481Y-8830500D01*
X38686518Y-8830499D01*
X38780304Y-8815646D01*
X38893342Y-8758050D01*
X38983050Y-8668342D01*
X38983052Y-8668336D01*
X38987713Y-8661923D01*
X39047652Y-8613383D01*
X39108259Y-8600500D01*
X42273390Y-8600500D01*
X42347890Y-8620462D01*
X42402428Y-8675000D01*
X42422390Y-8749500D01*
X42402428Y-8824000D01*
X42378749Y-8854859D01*
X42321950Y-8911657D01*
X42264354Y-9024694D01*
X42264354Y-9024696D01*
X42249500Y-9118481D01*
X42249500Y-9118485D01*
X42249500Y-9981513D01*
X42249501Y-9981518D01*
X42264354Y-10075304D01*
X42321950Y-10188342D01*
X42411658Y-10278050D01*
X42524696Y-10335646D01*
X42618481Y-10350500D01*
X42699817Y-10350499D01*
X42756789Y-10361820D01*
X42759211Y-10362824D01*
X42820415Y-10409754D01*
X42849956Y-10481000D01*
X42839915Y-10557472D01*
X42792983Y-10618678D01*
X42721737Y-10648219D01*
X42702239Y-10649500D01*
X42618481Y-10649500D01*
X42524695Y-10664354D01*
X42524693Y-10664355D01*
X42411657Y-10721950D01*
X42321950Y-10811657D01*
X42264354Y-10924694D01*
X42263590Y-10929518D01*
X42249500Y-11018481D01*
X42249500Y-11018484D01*
X42249500Y-11018485D01*
X42249500Y-11881518D01*
X42264354Y-11975304D01*
X42264355Y-11975306D01*
X42299710Y-12044693D01*
X42321950Y-12088342D01*
X42411658Y-12178050D01*
X42524696Y-12235646D01*
X42618481Y-12250500D01*
X43050500Y-12250499D01*
X43125000Y-12270461D01*
X43179538Y-12324999D01*
X43199500Y-12399499D01*
X43199500Y-13192934D01*
X43181908Y-13263168D01*
X43179225Y-13268186D01*
X43126420Y-13395670D01*
X43126419Y-13395674D01*
X43099500Y-13531006D01*
X43099500Y-13668993D01*
X43126419Y-13804325D01*
X43126420Y-13804329D01*
X43179224Y-13931809D01*
X43179227Y-13931815D01*
X43255883Y-14046538D01*
X43255886Y-14046542D01*
X43353458Y-14144114D01*
X43353461Y-14144116D01*
X43468184Y-14220772D01*
X43468186Y-14220773D01*
X43468189Y-14220775D01*
X43595672Y-14273580D01*
X43731007Y-14300500D01*
X43868992Y-14300500D01*
X43868993Y-14300500D01*
X43921432Y-14290069D01*
X43998394Y-14295113D01*
X44062524Y-14337963D01*
X44096637Y-14407137D01*
X44099500Y-14436206D01*
X44099500Y-16688691D01*
X44134105Y-16862663D01*
X44134106Y-16862667D01*
X44201986Y-17026546D01*
X44201987Y-17026548D01*
X44290412Y-17158884D01*
X44300536Y-17174035D01*
X44425965Y-17299464D01*
X44425968Y-17299466D01*
X44573451Y-17398012D01*
X44573453Y-17398013D01*
X44737334Y-17465894D01*
X44911309Y-17500500D01*
X45088691Y-17500500D01*
X45262666Y-17465894D01*
X45426547Y-17398013D01*
X45574035Y-17299464D01*
X45699464Y-17174035D01*
X45798013Y-17026547D01*
X45865894Y-16862666D01*
X45900500Y-16688691D01*
X45900500Y-9805561D01*
X51470000Y-9805561D01*
X51470000Y-10400000D01*
X52270001Y-10400000D01*
X52270001Y-10900000D01*
X51470000Y-10900000D01*
X51470000Y-11494438D01*
X51499548Y-11681006D01*
X51557916Y-11860642D01*
X51643669Y-12028938D01*
X51643669Y-12028939D01*
X51754690Y-12181746D01*
X51754692Y-12181749D01*
X51888250Y-12315307D01*
X51888253Y-12315309D01*
X52041061Y-12426330D01*
X52209357Y-12512083D01*
X52388993Y-12570450D01*
X52388993Y-12570451D01*
X52420000Y-12575361D01*
X52420000Y-11715696D01*
X52424395Y-11720091D01*
X52515606Y-11772752D01*
X52617339Y-11800011D01*
X52722661Y-11800011D01*
X52824394Y-11772752D01*
X52915605Y-11720091D01*
X52920000Y-11715696D01*
X52920000Y-12575361D01*
X52951006Y-12570451D01*
X52951006Y-12570450D01*
X53130642Y-12512083D01*
X53298938Y-12426330D01*
X53298939Y-12426330D01*
X53451746Y-12315309D01*
X53451749Y-12315307D01*
X53585307Y-12181749D01*
X53585309Y-12181746D01*
X53696330Y-12028939D01*
X53696330Y-12028938D01*
X53782083Y-11860642D01*
X53840450Y-11681006D01*
X53840451Y-11681006D01*
X53870000Y-11494438D01*
X53870000Y-10900000D01*
X53069999Y-10900000D01*
X53069999Y-10400000D01*
X53870000Y-10400000D01*
X53870000Y-9805561D01*
X53840451Y-9618993D01*
X53782083Y-9439357D01*
X53696330Y-9271061D01*
X53696330Y-9271060D01*
X53585309Y-9118253D01*
X53585307Y-9118250D01*
X53451749Y-8984692D01*
X53451746Y-8984690D01*
X53298938Y-8873669D01*
X53130642Y-8787916D01*
X52951010Y-8729550D01*
X52950997Y-8729547D01*
X52920000Y-8724637D01*
X52920000Y-9584304D01*
X52915605Y-9579909D01*
X52824394Y-9527248D01*
X52722661Y-9499989D01*
X52617339Y-9499989D01*
X52515606Y-9527248D01*
X52424395Y-9579909D01*
X52420000Y-9584304D01*
X52420000Y-8724637D01*
X52389002Y-8729547D01*
X52388989Y-8729550D01*
X52209357Y-8787916D01*
X52041061Y-8873669D01*
X52041060Y-8873669D01*
X51888253Y-8984690D01*
X51888250Y-8984692D01*
X51754692Y-9118250D01*
X51754690Y-9118253D01*
X51643669Y-9271060D01*
X51643669Y-9271061D01*
X51557916Y-9439357D01*
X51499549Y-9618993D01*
X51499548Y-9618993D01*
X51470000Y-9805561D01*
X45900500Y-9805561D01*
X45900500Y-9461309D01*
X45896133Y-9439357D01*
X45866485Y-9290305D01*
X45865894Y-9287334D01*
X45798013Y-9123453D01*
X45794693Y-9118485D01*
X45699466Y-8975968D01*
X45699462Y-8975963D01*
X45574036Y-8850537D01*
X45574031Y-8850533D01*
X45426548Y-8751987D01*
X45426546Y-8751986D01*
X45262667Y-8684106D01*
X45262663Y-8684105D01*
X45088691Y-8649500D01*
X43899500Y-8649500D01*
X43825000Y-8629538D01*
X43770462Y-8575000D01*
X43750500Y-8500500D01*
X43750500Y-7920943D01*
X43750499Y-7920941D01*
X43745022Y-7900500D01*
X43709577Y-7768216D01*
X43630520Y-7631284D01*
X43518716Y-7519480D01*
X43381784Y-7440423D01*
X43229057Y-7399500D01*
X39108259Y-7399500D01*
X39033759Y-7379538D01*
X38987713Y-7338077D01*
X38983051Y-7331660D01*
X38983050Y-7331658D01*
X38893342Y-7241950D01*
X38843865Y-7216740D01*
X38780305Y-7184354D01*
X38764673Y-7181878D01*
X38686519Y-7169500D01*
X38686514Y-7169500D01*
X37813481Y-7169500D01*
X37719695Y-7184354D01*
X37719693Y-7184355D01*
X37606657Y-7241950D01*
X37605359Y-7243249D01*
X37602977Y-7244623D01*
X37597169Y-7248844D01*
X37596725Y-7248233D01*
X37538564Y-7281813D01*
X37461436Y-7281813D01*
X37403274Y-7248233D01*
X37402831Y-7248844D01*
X37397022Y-7244623D01*
X37394641Y-7243249D01*
X37393342Y-7241950D01*
X37280305Y-7184354D01*
X37264673Y-7181878D01*
X37186519Y-7169500D01*
X37186514Y-7169500D01*
X36313481Y-7169500D01*
X36219695Y-7184354D01*
X36219693Y-7184355D01*
X36106657Y-7241950D01*
X36016951Y-7331656D01*
X36012287Y-7338077D01*
X35988177Y-7357601D01*
X35966241Y-7379538D01*
X35958542Y-7381600D01*
X35952348Y-7386617D01*
X35891741Y-7399500D01*
X35807065Y-7399500D01*
X35736826Y-7381906D01*
X35731805Y-7379222D01*
X35604329Y-7326420D01*
X35604325Y-7326419D01*
X35468993Y-7299500D01*
X35331007Y-7299500D01*
X35195674Y-7326419D01*
X35195670Y-7326420D01*
X35068194Y-7379222D01*
X35063174Y-7381906D01*
X34992935Y-7399500D01*
X34427874Y-7399500D01*
X34353374Y-7379538D01*
X34298836Y-7325000D01*
X34278874Y-7250500D01*
X34298836Y-7176000D01*
X34353374Y-7121462D01*
X34370850Y-7112843D01*
X34379179Y-7109394D01*
X34510289Y-7021789D01*
X34620770Y-6911308D01*
X45599500Y-6911308D01*
X45599500Y-7088691D01*
X45634105Y-7262663D01*
X45634106Y-7262667D01*
X45701986Y-7426546D01*
X45701987Y-7426548D01*
X45800533Y-7574031D01*
X45800536Y-7574035D01*
X45925965Y-7699464D01*
X45925968Y-7699466D01*
X46073451Y-7798012D01*
X46073453Y-7798013D01*
X46237334Y-7865894D01*
X46411309Y-7900500D01*
X58280500Y-7900500D01*
X58355000Y-7920462D01*
X58409538Y-7975000D01*
X58429500Y-8049500D01*
X58429500Y-9048607D01*
X58409538Y-9123107D01*
X58401043Y-9136187D01*
X58303241Y-9270798D01*
X58303238Y-9270804D01*
X58217458Y-9439157D01*
X58217455Y-9439163D01*
X58217453Y-9439168D01*
X58159060Y-9618882D01*
X58129500Y-9805519D01*
X58129500Y-11494481D01*
X58159060Y-11681118D01*
X58217453Y-11860832D01*
X58217457Y-11860841D01*
X58217458Y-11860842D01*
X58256811Y-11938077D01*
X58303240Y-12029199D01*
X58414310Y-12182073D01*
X58547927Y-12315690D01*
X58700801Y-12426760D01*
X58869168Y-12512547D01*
X59048882Y-12570940D01*
X59235519Y-12600500D01*
X59235524Y-12600500D01*
X59424476Y-12600500D01*
X59424481Y-12600500D01*
X59611118Y-12570940D01*
X59790832Y-12512547D01*
X59959199Y-12426760D01*
X60112073Y-12315690D01*
X60245690Y-12182073D01*
X60356760Y-12029199D01*
X60442547Y-11860832D01*
X60500940Y-11681118D01*
X60530500Y-11494481D01*
X60530500Y-9805519D01*
X60500940Y-9618882D01*
X60442547Y-9439168D01*
X60356760Y-9270801D01*
X60258957Y-9136187D01*
X60231316Y-9064182D01*
X60230500Y-9048607D01*
X60230500Y-6911308D01*
X60204218Y-6779181D01*
X60195894Y-6737334D01*
X60128013Y-6573453D01*
X60029464Y-6425965D01*
X59904035Y-6300536D01*
X59904031Y-6300533D01*
X59756548Y-6201987D01*
X59756546Y-6201986D01*
X59592667Y-6134106D01*
X59592663Y-6134105D01*
X59418691Y-6099500D01*
X46411309Y-6099500D01*
X46237336Y-6134105D01*
X46237332Y-6134106D01*
X46073453Y-6201986D01*
X46073451Y-6201987D01*
X45925968Y-6300533D01*
X45925963Y-6300537D01*
X45800537Y-6425963D01*
X45800533Y-6425968D01*
X45701987Y-6573451D01*
X45701986Y-6573453D01*
X45634106Y-6737332D01*
X45634105Y-6737336D01*
X45599500Y-6911308D01*
X34620770Y-6911308D01*
X34621789Y-6910289D01*
X34647063Y-6872462D01*
X34681312Y-6821208D01*
X34697562Y-6796886D01*
X34709394Y-6779179D01*
X34769737Y-6633497D01*
X34800500Y-6478842D01*
X34800500Y-6321158D01*
X34796397Y-6300533D01*
X34769737Y-6166505D01*
X34769736Y-6166501D01*
X34709395Y-6020823D01*
X34709394Y-6020821D01*
X34621789Y-5889711D01*
X34510289Y-5778211D01*
X34379179Y-5690606D01*
X34379178Y-5690605D01*
X34379176Y-5690604D01*
X34233498Y-5630263D01*
X34233494Y-5630262D01*
X34078842Y-5599500D01*
X33079118Y-5599500D01*
X33011474Y-5583260D01*
X32968725Y-5561478D01*
X32925305Y-5539354D01*
X32909673Y-5536878D01*
X32831519Y-5524500D01*
X32831514Y-5524500D01*
X31568481Y-5524500D01*
X31474695Y-5539354D01*
X31474693Y-5539355D01*
X31361657Y-5596950D01*
X31271950Y-5686657D01*
X31214354Y-5799694D01*
X31214354Y-5799696D01*
X31199500Y-5893481D01*
X29800499Y-5893481D01*
X29785646Y-5799696D01*
X29728050Y-5686658D01*
X29638342Y-5596950D01*
X29611474Y-5583260D01*
X29525305Y-5539354D01*
X29509673Y-5536878D01*
X29431519Y-5524500D01*
X29431514Y-5524500D01*
X28168481Y-5524500D01*
X28074695Y-5539354D01*
X28074693Y-5539355D01*
X28030483Y-5561881D01*
X27988525Y-5583260D01*
X27920882Y-5599500D01*
X27161158Y-5599500D01*
X27006505Y-5630262D01*
X27006501Y-5630263D01*
X26860823Y-5690604D01*
X26729707Y-5778214D01*
X26618214Y-5889707D01*
X26618211Y-5889710D01*
X26618211Y-5889711D01*
X26589278Y-5933012D01*
X26530604Y-6020823D01*
X26470263Y-6166501D01*
X26470262Y-6166505D01*
X26439500Y-6321157D01*
X26439500Y-7054410D01*
X26419538Y-7128910D01*
X26365000Y-7183448D01*
X26313809Y-7201575D01*
X26304508Y-7203049D01*
X26264694Y-7209354D01*
X26264693Y-7209355D01*
X26151657Y-7266950D01*
X26061950Y-7356657D01*
X26004354Y-7469694D01*
X25999402Y-7500957D01*
X25989500Y-7563481D01*
X25989500Y-7563482D01*
X25989500Y-7563485D01*
X25989500Y-9196518D01*
X26001265Y-9270798D01*
X26004354Y-9290304D01*
X26061950Y-9403342D01*
X26151658Y-9493050D01*
X26264696Y-9550646D01*
X26358481Y-9565500D01*
X26524365Y-9565499D01*
X26598862Y-9585461D01*
X26653400Y-9639998D01*
X26673363Y-9714498D01*
X26653401Y-9788998D01*
X26598864Y-9843536D01*
X26592018Y-9847254D01*
X26584860Y-9850901D01*
X26584859Y-9850902D01*
X26549874Y-9876319D01*
X27069756Y-10396202D01*
X27027703Y-10407470D01*
X26902285Y-10479881D01*
X26799881Y-10582285D01*
X26727470Y-10707703D01*
X26716202Y-10749756D01*
X26196319Y-10229874D01*
X26170902Y-10264859D01*
X26170901Y-10264860D01*
X26081585Y-10440155D01*
X26081578Y-10440173D01*
X26020779Y-10627291D01*
X25990000Y-10821627D01*
X25990000Y-11018372D01*
X26020779Y-11212708D01*
X26081578Y-11399826D01*
X26081585Y-11399843D01*
X26170905Y-11575145D01*
X26196320Y-11610124D01*
X26716201Y-11090242D01*
X26727470Y-11132297D01*
X26799881Y-11257715D01*
X26902285Y-11360119D01*
X27027703Y-11432530D01*
X27069755Y-11443797D01*
X26549874Y-11963678D01*
X26584862Y-11989098D01*
X26718046Y-12056959D01*
X26775364Y-12108568D01*
X26799198Y-12181921D01*
X26783162Y-12257363D01*
X26731553Y-12314681D01*
X26718047Y-12322479D01*
X26584593Y-12390477D01*
X26425363Y-12506165D01*
X26425352Y-12506174D01*
X26286174Y-12645352D01*
X26286165Y-12645363D01*
X26170477Y-12804593D01*
X26170474Y-12804598D01*
X26081121Y-12979963D01*
X26081117Y-12979972D01*
X26081116Y-12979975D01*
X26020291Y-13167174D01*
X25989500Y-13361583D01*
X25989500Y-13558417D01*
X26020291Y-13752826D01*
X26081116Y-13940025D01*
X26081119Y-13940030D01*
X26081121Y-13940036D01*
X26135387Y-14046538D01*
X26170476Y-14115405D01*
X26286172Y-14274646D01*
X26425354Y-14413828D01*
X26584595Y-14529524D01*
X26652744Y-14564247D01*
X26717495Y-14597240D01*
X26774813Y-14648849D01*
X26798647Y-14722202D01*
X26782611Y-14797644D01*
X26731002Y-14854962D01*
X26717495Y-14862760D01*
X26584598Y-14930474D01*
X26584593Y-14930477D01*
X26425363Y-15046165D01*
X26425352Y-15046174D01*
X26286174Y-15185352D01*
X26286165Y-15185363D01*
X26170477Y-15344593D01*
X26170474Y-15344598D01*
X26081121Y-15519963D01*
X26081117Y-15519972D01*
X26081116Y-15519975D01*
X26020291Y-15707174D01*
X25989500Y-15901583D01*
X25989500Y-16098417D01*
X26020291Y-16292826D01*
X26081116Y-16480025D01*
X26081119Y-16480030D01*
X26081121Y-16480036D01*
X26153928Y-16622928D01*
X26170476Y-16655405D01*
X26286172Y-16814646D01*
X26425354Y-16953828D01*
X26584595Y-17069524D01*
X26652744Y-17104247D01*
X26717495Y-17137240D01*
X26774813Y-17188849D01*
X26798647Y-17262202D01*
X26782611Y-17337644D01*
X26731002Y-17394962D01*
X26717495Y-17402760D01*
X26584598Y-17470474D01*
X26584593Y-17470477D01*
X26425363Y-17586165D01*
X26425352Y-17586174D01*
X26286174Y-17725352D01*
X26286165Y-17725363D01*
X26170477Y-17884593D01*
X26170474Y-17884598D01*
X26081121Y-18059963D01*
X26081117Y-18059972D01*
X26081116Y-18059975D01*
X26020291Y-18247174D01*
X25989500Y-18441583D01*
X25989500Y-18638417D01*
X26020291Y-18832826D01*
X26081116Y-19020025D01*
X26081119Y-19020030D01*
X26081121Y-19020036D01*
X26130501Y-19116950D01*
X26170476Y-19195405D01*
X26286172Y-19354646D01*
X26425354Y-19493828D01*
X26584595Y-19609524D01*
X26652744Y-19644247D01*
X26717495Y-19677240D01*
X26774813Y-19728849D01*
X26798647Y-19802202D01*
X26782611Y-19877644D01*
X26731002Y-19934962D01*
X26717495Y-19942760D01*
X26584598Y-20010474D01*
X26584593Y-20010477D01*
X26425363Y-20126165D01*
X26425352Y-20126174D01*
X26286174Y-20265352D01*
X26286165Y-20265363D01*
X26170477Y-20424593D01*
X26170474Y-20424598D01*
X26081121Y-20599963D01*
X26081117Y-20599972D01*
X26081116Y-20599975D01*
X26020291Y-20787174D01*
X25989500Y-20981583D01*
X25989500Y-21178417D01*
X26020291Y-21372826D01*
X26081116Y-21560025D01*
X26081119Y-21560030D01*
X26081121Y-21560036D01*
X26085685Y-21568993D01*
X26170476Y-21735405D01*
X26286172Y-21894646D01*
X26425354Y-22033828D01*
X26584595Y-22149524D01*
X26624185Y-22169696D01*
X26717495Y-22217240D01*
X26774813Y-22268849D01*
X26798647Y-22342202D01*
X26782611Y-22417644D01*
X26731002Y-22474962D01*
X26717495Y-22482760D01*
X26584598Y-22550474D01*
X26584593Y-22550477D01*
X26425363Y-22666165D01*
X26425352Y-22666174D01*
X26286174Y-22805352D01*
X26286165Y-22805363D01*
X26170477Y-22964593D01*
X26170474Y-22964598D01*
X26081121Y-23139963D01*
X26081117Y-23139972D01*
X26081116Y-23139975D01*
X26020291Y-23327174D01*
X25989500Y-23521583D01*
X25989500Y-23718417D01*
X26020291Y-23912826D01*
X26081116Y-24100025D01*
X26081120Y-24100034D01*
X26081121Y-24100035D01*
X26123320Y-24182856D01*
X26139356Y-24258298D01*
X26115522Y-24331651D01*
X26058204Y-24383260D01*
X25990560Y-24399500D01*
X13249440Y-24399500D01*
X13174940Y-24379538D01*
X13120402Y-24325000D01*
X13100440Y-24250500D01*
X13116680Y-24182856D01*
X13135896Y-24145141D01*
X13158884Y-24100025D01*
X13219709Y-23912826D01*
X13250500Y-23718417D01*
X13250500Y-23521583D01*
X13219709Y-23327174D01*
X13158884Y-23139975D01*
X13069524Y-22964595D01*
X12953828Y-22805354D01*
X12814646Y-22666172D01*
X12655405Y-22550476D01*
X12522503Y-22482759D01*
X12465186Y-22431152D01*
X12441352Y-22357799D01*
X12457388Y-22282356D01*
X12508996Y-22225038D01*
X12522504Y-22217240D01*
X12555358Y-22200500D01*
X12655405Y-22149524D01*
X12814646Y-22033828D01*
X12953828Y-21894646D01*
X13069524Y-21735405D01*
X13158884Y-21560025D01*
X13219709Y-21372826D01*
X13250500Y-21178417D01*
X13250500Y-20981583D01*
X13219709Y-20787174D01*
X13158884Y-20599975D01*
X13069524Y-20424595D01*
X12953828Y-20265354D01*
X12814646Y-20126172D01*
X12655405Y-20010476D01*
X12522503Y-19942759D01*
X12465186Y-19891152D01*
X12441352Y-19817799D01*
X12457388Y-19742356D01*
X12508996Y-19685038D01*
X12522504Y-19677240D01*
X12655405Y-19609524D01*
X12814646Y-19493828D01*
X12953828Y-19354646D01*
X13069524Y-19195405D01*
X13158884Y-19020025D01*
X13219709Y-18832826D01*
X13250500Y-18638417D01*
X13250500Y-18441583D01*
X13219709Y-18247174D01*
X13158884Y-18059975D01*
X13069524Y-17884595D01*
X12953828Y-17725354D01*
X12814646Y-17586172D01*
X12655405Y-17470476D01*
X12522503Y-17402759D01*
X12465186Y-17351152D01*
X12441352Y-17277799D01*
X12457388Y-17202356D01*
X12508996Y-17145038D01*
X12522504Y-17137240D01*
X12655405Y-17069524D01*
X12814646Y-16953828D01*
X12953828Y-16814646D01*
X13069524Y-16655405D01*
X13158884Y-16480025D01*
X13219709Y-16292826D01*
X13250500Y-16098417D01*
X13250500Y-15901583D01*
X13219709Y-15707174D01*
X13158884Y-15519975D01*
X13069524Y-15344595D01*
X12953828Y-15185354D01*
X12814646Y-15046172D01*
X12655405Y-14930476D01*
X12522503Y-14862759D01*
X12465186Y-14811152D01*
X12441352Y-14737799D01*
X12457388Y-14662356D01*
X12508996Y-14605038D01*
X12522504Y-14597240D01*
X12655405Y-14529524D01*
X12814646Y-14413828D01*
X12953828Y-14274646D01*
X13069524Y-14115405D01*
X13158884Y-13940025D01*
X13219709Y-13752826D01*
X13250500Y-13558417D01*
X13250500Y-13361583D01*
X13219709Y-13167174D01*
X13158884Y-12979975D01*
X13069524Y-12804595D01*
X12953828Y-12645354D01*
X12814646Y-12506172D01*
X12655405Y-12390476D01*
X12522503Y-12322759D01*
X12465186Y-12271152D01*
X12441352Y-12197799D01*
X12457388Y-12122356D01*
X12508996Y-12065038D01*
X12522504Y-12057240D01*
X12655405Y-11989524D01*
X12814646Y-11873828D01*
X12953828Y-11734646D01*
X13069524Y-11575405D01*
X13158884Y-11400025D01*
X13219709Y-11212826D01*
X13250500Y-11018417D01*
X13250500Y-10821583D01*
X13219709Y-10627174D01*
X13158884Y-10439975D01*
X13069524Y-10264595D01*
X12953828Y-10105354D01*
X12814646Y-9966172D01*
X12655406Y-9850477D01*
X12655407Y-9850477D01*
X12655211Y-9850377D01*
X12649092Y-9847259D01*
X12591775Y-9795653D01*
X12567939Y-9722301D01*
X12583973Y-9646858D01*
X12635581Y-9589539D01*
X12708933Y-9565703D01*
X12716731Y-9565499D01*
X12881518Y-9565499D01*
X12881519Y-9565499D01*
X12894341Y-9563468D01*
X12975304Y-9550646D01*
X13088342Y-9493050D01*
X13178050Y-9403342D01*
X13235646Y-9290304D01*
X13250500Y-9196519D01*
X13250499Y-7563482D01*
X13235646Y-7469696D01*
X13178050Y-7356658D01*
X13088342Y-7266950D01*
X13044523Y-7244623D01*
X12975305Y-7209354D01*
X12959673Y-7206878D01*
X12881519Y-7194500D01*
X12881514Y-7194500D01*
X11118481Y-7194500D01*
X11024695Y-7209354D01*
X11024693Y-7209355D01*
X10911657Y-7266950D01*
X10821950Y-7356657D01*
X10764354Y-7469694D01*
X10759402Y-7500957D01*
X10749500Y-7563481D01*
X10749500Y-7563482D01*
X10749500Y-7563485D01*
X10749500Y-7630500D01*
X10729538Y-7705000D01*
X10675000Y-7759538D01*
X10600500Y-7779500D01*
X9807065Y-7779500D01*
X9736826Y-7761906D01*
X9731805Y-7759222D01*
X9604329Y-7706420D01*
X9604325Y-7706419D01*
X9468993Y-7679500D01*
X9331007Y-7679500D01*
X9195674Y-7706419D01*
X9195670Y-7706420D01*
X9068190Y-7759224D01*
X9068184Y-7759227D01*
X8953461Y-7835883D01*
X8953454Y-7835889D01*
X8855889Y-7933454D01*
X8855883Y-7933461D01*
X8779227Y-8048184D01*
X8779224Y-8048190D01*
X8726420Y-8175670D01*
X8726419Y-8175674D01*
X8699500Y-8311006D01*
X8699500Y-8448993D01*
X8726419Y-8584325D01*
X8726420Y-8584329D01*
X8779224Y-8711809D01*
X8779227Y-8711815D01*
X8854187Y-8824000D01*
X8855886Y-8826542D01*
X8953458Y-8924114D01*
X8953461Y-8924116D01*
X9068184Y-9000772D01*
X9068186Y-9000773D01*
X9068189Y-9000775D01*
X9195672Y-9053580D01*
X9331007Y-9080500D01*
X9468993Y-9080500D01*
X9604328Y-9053580D01*
X9731811Y-9000775D01*
X9731820Y-9000768D01*
X9736826Y-8998094D01*
X9807065Y-8980500D01*
X10600501Y-8980500D01*
X10675001Y-9000462D01*
X10729539Y-9055000D01*
X10749501Y-9129500D01*
X10749501Y-9196518D01*
X10764354Y-9290304D01*
X10821950Y-9403342D01*
X10911658Y-9493050D01*
X11024696Y-9550646D01*
X11118481Y-9565500D01*
X11283264Y-9565499D01*
X11357761Y-9585461D01*
X11412299Y-9639998D01*
X11432262Y-9714498D01*
X11412300Y-9788998D01*
X11357763Y-9843536D01*
X11350917Y-9847253D01*
X11344607Y-9850468D01*
X11344593Y-9850477D01*
X11185363Y-9966165D01*
X11185352Y-9966174D01*
X11046174Y-10105352D01*
X11046169Y-10105358D01*
X10935208Y-10258081D01*
X10875268Y-10306619D01*
X10814665Y-10319500D01*
X8407065Y-10319500D01*
X8336826Y-10301906D01*
X8331805Y-10299222D01*
X8204329Y-10246420D01*
X8204325Y-10246419D01*
X8068993Y-10219500D01*
X7931007Y-10219500D01*
X7795674Y-10246419D01*
X7795670Y-10246420D01*
X7668190Y-10299224D01*
X7668184Y-10299227D01*
X7553461Y-10375883D01*
X7553454Y-10375889D01*
X7455889Y-10473454D01*
X7455883Y-10473461D01*
X7379227Y-10588184D01*
X7379224Y-10588190D01*
X7326420Y-10715670D01*
X7326419Y-10715674D01*
X7299500Y-10851006D01*
X7299500Y-10988993D01*
X7326419Y-11124325D01*
X7326420Y-11124329D01*
X7379224Y-11251809D01*
X7379227Y-11251815D01*
X7451594Y-11360119D01*
X7455886Y-11366542D01*
X7553458Y-11464114D01*
X7553461Y-11464116D01*
X7668184Y-11540772D01*
X7668186Y-11540773D01*
X7668189Y-11540775D01*
X7795672Y-11593580D01*
X7931007Y-11620500D01*
X8068993Y-11620500D01*
X8204328Y-11593580D01*
X8331811Y-11540775D01*
X8331820Y-11540768D01*
X8336826Y-11538094D01*
X8407065Y-11520500D01*
X10814665Y-11520500D01*
X10889165Y-11540462D01*
X10935208Y-11581919D01*
X10981488Y-11645617D01*
X11046172Y-11734646D01*
X11185354Y-11873828D01*
X11344595Y-11989524D01*
X11412744Y-12024247D01*
X11477495Y-12057240D01*
X11534813Y-12108849D01*
X11558647Y-12182202D01*
X11542611Y-12257644D01*
X11491002Y-12314962D01*
X11477495Y-12322760D01*
X11344598Y-12390474D01*
X11344593Y-12390477D01*
X11185363Y-12506165D01*
X11185352Y-12506174D01*
X11046174Y-12645352D01*
X11046169Y-12645358D01*
X10935208Y-12798081D01*
X10875268Y-12846619D01*
X10814665Y-12859500D01*
X7007065Y-12859500D01*
X6936826Y-12841906D01*
X6931805Y-12839222D01*
X6804329Y-12786420D01*
X6804325Y-12786419D01*
X6668993Y-12759500D01*
X6531007Y-12759500D01*
X6395674Y-12786419D01*
X6395670Y-12786420D01*
X6268190Y-12839224D01*
X6268184Y-12839227D01*
X6153461Y-12915883D01*
X6153454Y-12915889D01*
X6055889Y-13013454D01*
X6055883Y-13013461D01*
X5979227Y-13128184D01*
X5979224Y-13128190D01*
X5926420Y-13255670D01*
X5926419Y-13255674D01*
X5899500Y-13391006D01*
X500500Y-13391006D01*
X500500Y-3378706D01*
X1649500Y-3378706D01*
X1649500Y-3621293D01*
X1681160Y-3861781D01*
X1681161Y-3861787D01*
X1681162Y-3861789D01*
X1743946Y-4096100D01*
X1836776Y-4320212D01*
X1958064Y-4530289D01*
X2105735Y-4722738D01*
X2277262Y-4894265D01*
X2469711Y-5041936D01*
X2679788Y-5163224D01*
X2903900Y-5256054D01*
X3138211Y-5318838D01*
X3138217Y-5318838D01*
X3138218Y-5318839D01*
X3203600Y-5327446D01*
X3378712Y-5350500D01*
X3621288Y-5350500D01*
X3861789Y-5318838D01*
X4096100Y-5256054D01*
X4320212Y-5163224D01*
X4530289Y-5041936D01*
X4722738Y-4894265D01*
X4894265Y-4722738D01*
X5041936Y-4530289D01*
X5163224Y-4320212D01*
X5256054Y-4096100D01*
X5318838Y-3861789D01*
X5350500Y-3621288D01*
X5350500Y-3378712D01*
X5350499Y-3378706D01*
X56649500Y-3378706D01*
X56649500Y-3621293D01*
X56681160Y-3861781D01*
X56681161Y-3861787D01*
X56681162Y-3861789D01*
X56743946Y-4096100D01*
X56836776Y-4320212D01*
X56958064Y-4530289D01*
X57105735Y-4722738D01*
X57277262Y-4894265D01*
X57469711Y-5041936D01*
X57679788Y-5163224D01*
X57903900Y-5256054D01*
X58138211Y-5318838D01*
X58138217Y-5318838D01*
X58138218Y-5318839D01*
X58203600Y-5327446D01*
X58378712Y-5350500D01*
X58621288Y-5350500D01*
X58861789Y-5318838D01*
X59096100Y-5256054D01*
X59320212Y-5163224D01*
X59530289Y-5041936D01*
X59722738Y-4894265D01*
X59894265Y-4722738D01*
X60041936Y-4530289D01*
X60163224Y-4320212D01*
X60256054Y-4096100D01*
X60318838Y-3861789D01*
X60350500Y-3621288D01*
X60350500Y-3378712D01*
X60318838Y-3138211D01*
X60256054Y-2903900D01*
X60163224Y-2679788D01*
X60041936Y-2469711D01*
X59894265Y-2277262D01*
X59722738Y-2105735D01*
X59530289Y-1958064D01*
X59460263Y-1917634D01*
X59320216Y-1836778D01*
X59320214Y-1836777D01*
X59320212Y-1836776D01*
X59188932Y-1782398D01*
X59096103Y-1743947D01*
X59096101Y-1743946D01*
X59096100Y-1743946D01*
X58861789Y-1681162D01*
X58861787Y-1681161D01*
X58861781Y-1681160D01*
X58621293Y-1649500D01*
X58621288Y-1649500D01*
X58378712Y-1649500D01*
X58378706Y-1649500D01*
X58138218Y-1681160D01*
X57903896Y-1743947D01*
X57679783Y-1836778D01*
X57469712Y-1958063D01*
X57469711Y-1958064D01*
X57277262Y-2105735D01*
X57277260Y-2105736D01*
X57277256Y-2105740D01*
X57105740Y-2277256D01*
X56958063Y-2469712D01*
X56836778Y-2679783D01*
X56743947Y-2903896D01*
X56681160Y-3138218D01*
X56649500Y-3378706D01*
X5350499Y-3378706D01*
X5318838Y-3138211D01*
X5256054Y-2903900D01*
X5163224Y-2679788D01*
X5041936Y-2469711D01*
X4894265Y-2277262D01*
X4722738Y-2105735D01*
X4530289Y-1958064D01*
X4460263Y-1917634D01*
X4320216Y-1836778D01*
X4320214Y-1836777D01*
X4320212Y-1836776D01*
X4188932Y-1782398D01*
X4096103Y-1743947D01*
X4096101Y-1743946D01*
X4096100Y-1743946D01*
X3861789Y-1681162D01*
X3861787Y-1681161D01*
X3861781Y-1681160D01*
X3621293Y-1649500D01*
X3621288Y-1649500D01*
X3378712Y-1649500D01*
X3378706Y-1649500D01*
X3138218Y-1681160D01*
X2903896Y-1743947D01*
X2679783Y-1836778D01*
X2469712Y-1958063D01*
X2469711Y-1958064D01*
X2277262Y-2105735D01*
X2277260Y-2105736D01*
X2277256Y-2105740D01*
X2105740Y-2277256D01*
X1958063Y-2469712D01*
X1836778Y-2679783D01*
X1743947Y-2903896D01*
X1681160Y-3138218D01*
X1649500Y-3378706D01*
X500500Y-3378706D01*
X500500Y-649500D01*
X520462Y-575000D01*
X575000Y-520462D01*
X649500Y-500500D01*
X61350500Y-500500D01*
X61425000Y-520462D01*
G37*
%TD.AperFunction*%
%TD*%
M02*
