M48
; DRILL file KiCad 10.0.4 date 2026-07-19T10:26:32
; FORMAT={-:-/ absolute / metric / decimal}
; #@! TF.CreationDate,2026-07-19T10:26:32-07:00
; #@! TF.GenerationSoftware,Kicad,Pcbnew,10.0.4
; #@! TF.FileFunction,Plated,1,2,PTH
FMAT,2
METRIC
; #@! TA.AperFunction,Plated,PTH,ViaDrill
T1C0.300
; #@! TA.AperFunction,Plated,PTH,ComponentDrill
T2C0.800
; #@! TA.AperFunction,Plated,PTH,ComponentDrill
T3C0.900
; #@! TA.AperFunction,Plated,PTH,ComponentDrill
T4C1.100
%
G90
G05
T1
X6.6Y-13.46
X7.0Y-50.0
X8.0Y-10.92
X9.4Y-8.38
X17.5Y-20.0
X18.25Y-27.6
X20.0Y-72.0
X22.11Y-37.4
X24.65Y-36.0
X29.0Y-23.62
X29.0Y-31.5
X34.0Y-6.4
X35.4Y-8.0
X36.0Y-20.0
X36.0Y-50.0
X37.0Y-18.6
X39.5Y-10.5
X39.55Y-21.5
X41.0Y-31.0
X42.5Y-50.0
X42.5Y-60.0
X43.8Y-13.6
X44.0Y-72.0
X44.2Y-24.0
X45.0Y-16.6
X45.5Y-54.0
X46.5Y-7.0
X48.5Y-24.95
X48.5Y-52.5
X51.2Y-21.0
X52.0Y-20.0
X52.0Y-45.0
T3
X8.5Y-66.5
X11.0Y-66.5
X13.5Y-66.5
T4
X12.0Y-8.38
X12.0Y-10.92
X12.0Y-13.46
X12.0Y-16.0
X12.0Y-18.54
X12.0Y-21.08
X12.0Y-23.62
X22.11Y-44.54
X22.11Y-57.24
X24.65Y-44.54
X24.65Y-57.24
X26.25Y-68.0
X27.19Y-44.54
X27.19Y-57.24
X27.24Y-8.38
X27.24Y-10.92
X27.24Y-13.46
X27.24Y-16.0
X27.24Y-18.54
X27.24Y-21.08
X27.24Y-23.62
X28.75Y-68.0
X29.73Y-44.54
X29.73Y-57.24
X31.25Y-68.0
X32.27Y-44.54
X32.27Y-57.24
X33.75Y-68.0
X34.81Y-44.54
X34.81Y-57.24
X37.35Y-44.54
X37.35Y-57.24
X39.89Y-44.54
X39.89Y-57.24
T2
X52.67Y-9.9G85X52.67Y-11.4
G05
X56.02Y-15.35G85X57.52Y-15.35
G05
X59.33Y-9.9G85X59.33Y-11.4
G05
M30
