%TF.GenerationSoftware,KiCad,Pcbnew,10.0.4*%
%TF.CreationDate,2026-07-19T10:20:52-07:00*%
%TF.ProjectId,filled,66696c6c-6564-42e6-9b69-6361645f7063,rev?*%
%TF.SameCoordinates,Original*%
%TF.FileFunction,Soldermask,Bot*%
%TF.FilePolarity,Negative*%
%FSLAX46Y46*%
G04 Gerber Fmt 4.6, Leading zero omitted, Abs format (unit mm)*
G04 Created by KiCad (PCBNEW 10.0.4) date 2026-07-19 10:20:52*
%MOMM*%
%LPD*%
G01*
G04 APERTURE LIST*
G04 Aperture macros list*
%AMRoundRect*
0 Rectangle with rounded corners*
0 $1 Rounding radius*
0 $2 $3 $4 $5 $6 $7 $8 $9 X,Y pos of 4 corners*
0 Add a 4 corners polygon primitive as box body*
4,1,4,$2,$3,$4,$5,$6,$7,$8,$9,$2,$3,0*
0 Add four circle primitives for the rounded corners*
1,1,$1+$1,$2,$3*
1,1,$1+$1,$4,$5*
1,1,$1+$1,$6,$7*
1,1,$1+$1,$8,$9*
0 Add four rect primitives between the rounded corners*
20,1,$1+$1,$2,$3,$4,$5,0*
20,1,$1+$1,$4,$5,$6,$7,0*
20,1,$1+$1,$6,$7,$8,$9,0*
20,1,$1+$1,$8,$9,$2,$3,0*%
G04 Aperture macros list end*
%ADD10C,1.900000*%
%ADD11RoundRect,0.050000X-0.850000X0.785000X-0.850000X-0.785000X0.850000X-0.785000X0.850000X0.785000X0*%
%ADD12C,1.800000*%
%ADD13C,3.300000*%
%ADD14RoundRect,0.050000X-0.785000X-0.850000X0.785000X-0.850000X0.785000X0.850000X-0.785000X0.850000X0*%
%ADD15O,1.700000X3.200000*%
%ADD16O,3.200000X1.700000*%
%ADD17C,1.650000*%
G04 APERTURE END LIST*
D10*
%TO.C,J2*%
X33750000Y-68000000D03*
X31250000Y-68000000D03*
X28750000Y-68000000D03*
X26250000Y-68000000D03*
%TD*%
D11*
%TO.C,J6*%
X12000000Y-8380000D03*
D12*
X12000000Y-10920000D03*
X12000000Y-13460000D03*
X12000000Y-16000000D03*
X12000000Y-18540000D03*
X12000000Y-21080000D03*
X12000000Y-23620000D03*
%TD*%
D13*
%TO.C,*%
X58500000Y-72500000D03*
%TD*%
D14*
%TO.C,J4*%
X22110000Y-57240000D03*
D12*
X24650000Y-57240000D03*
X27190000Y-57240000D03*
X29730000Y-57240000D03*
X32270000Y-57240000D03*
X34810000Y-57240000D03*
X37350000Y-57240000D03*
X39890000Y-57240000D03*
%TD*%
D13*
%TO.C,*%
X58500000Y-3500000D03*
%TD*%
D11*
%TO.C,J7*%
X27240000Y-8380000D03*
D12*
X27240000Y-10920000D03*
X27240000Y-13460000D03*
X27240000Y-16000000D03*
X27240000Y-18540000D03*
X27240000Y-21080000D03*
X27240000Y-23620000D03*
%TD*%
D15*
%TO.C,J3*%
X59330000Y-10650000D03*
X52670000Y-10650000D03*
D16*
X56770000Y-15350000D03*
%TD*%
D13*
%TO.C,*%
X3500000Y-3500000D03*
%TD*%
%TO.C,*%
X3500000Y-72500000D03*
%TD*%
D17*
%TO.C,J1*%
X8500000Y-66500000D03*
X11000000Y-66500000D03*
X13500000Y-66500000D03*
%TD*%
D14*
%TO.C,J5*%
X22110000Y-44540000D03*
D12*
X24650000Y-44540000D03*
X27190000Y-44540000D03*
X29730000Y-44540000D03*
X32270000Y-44540000D03*
X34810000Y-44540000D03*
X37350000Y-44540000D03*
X39890000Y-44540000D03*
%TD*%
M02*
