<svg xmlns="http://www.w3.org/2000/svg" viewBox="-40 -40 710.0 920.0" font-family="monospace">
<rect x="-40" y="-40" width="710.0" height="920.0" fill="#10141a"/>
<rect x="0" y="0" width="630.0" height="840.0" rx="8" fill="#173425" stroke="#c8a038" stroke-width="2"/>
<line x1="208.3" y1="89.3" x2="336.0" y2="89.3" stroke="#3b6ea5" stroke-width="5.6" stroke-linecap="round" opacity="0.9"/>
<line x1="336.0" y1="89.3" x2="336.0" y2="538.3" stroke="#3b6ea5" stroke-width="5.6" stroke-linecap="round" opacity="0.9"/>
<line x1="208.3" y1="124.9" x2="325.5" y2="124.9" stroke="#3b6ea5" stroke-width="5.6" stroke-linecap="round" opacity="0.9"/>
<line x1="325.5" y1="124.9" x2="325.5" y2="520.4" stroke="#3b6ea5" stroke-width="5.6" stroke-linecap="round" opacity="0.9"/>
<line x1="208.3" y1="160.4" x2="315.0" y2="160.4" stroke="#3b6ea5" stroke-width="5.6" stroke-linecap="round" opacity="0.9"/>
<line x1="315.0" y1="160.4" x2="315.0" y2="502.6" stroke="#3b6ea5" stroke-width="5.6" stroke-linecap="round" opacity="0.9"/>
<line x1="208.3" y1="196.0" x2="304.5" y2="196.0" stroke="#3b6ea5" stroke-width="5.6" stroke-linecap="round" opacity="0.9"/>
<line x1="304.5" y1="196.0" x2="304.5" y2="484.8" stroke="#3b6ea5" stroke-width="5.6" stroke-linecap="round" opacity="0.9"/>
<line x1="196.0" y1="538.3" x2="253.1" y2="616.0" stroke="#3b6ea5" stroke-width="5.6" stroke-linecap="round" opacity="0.9"/>
<line x1="168.0" y1="520.4" x2="217.6" y2="616.0" stroke="#3b6ea5" stroke-width="5.6" stroke-linecap="round" opacity="0.9"/>
<line x1="142.8" y1="502.6" x2="182.0" y2="616.0" stroke="#3b6ea5" stroke-width="5.6" stroke-linecap="round" opacity="0.9"/>
<line x1="117.6" y1="484.8" x2="146.4" y2="616.0" stroke="#3b6ea5" stroke-width="5.6" stroke-linecap="round" opacity="0.9"/>
<line x1="421.7" y1="89.3" x2="525.0" y2="89.3" stroke="#3b6ea5" stroke-width="11.2" stroke-linecap="round" opacity="0.9"/>
<line x1="525.0" y1="89.3" x2="525.0" y2="756.0" stroke="#3b6ea5" stroke-width="11.2" stroke-linecap="round" opacity="0.9"/>
<line x1="525.0" y1="756.0" x2="110.9" y2="756.0" stroke="#3b6ea5" stroke-width="11.2" stroke-linecap="round" opacity="0.9"/>
<line x1="110.9" y1="756.0" x2="110.9" y2="616.0" stroke="#3b6ea5" stroke-width="11.2" stroke-linecap="round" opacity="0.9"/>
<line x1="421.7" y1="124.9" x2="490.0" y2="124.9" stroke="#3b6ea5" stroke-width="11.2" stroke-linecap="round" opacity="0.9"/>
<line x1="490.0" y1="124.9" x2="490.0" y2="637.0" stroke="#3b6ea5" stroke-width="11.2" stroke-linecap="round" opacity="0.9"/>
<line x1="490.0" y1="637.0" x2="420.0" y2="637.0" stroke="#3b6ea5" stroke-width="11.2" stroke-linecap="round" opacity="0.9"/>
<line x1="420.0" y1="637.0" x2="420.0" y2="707.0" stroke="#3b6ea5" stroke-width="11.2" stroke-linecap="round" opacity="0.9"/>
<line x1="336.0" y1="538.3" x2="290.4" y2="538.3" stroke="#b0433b" stroke-width="5.6" stroke-linecap="round" opacity="0.9"/>
<line x1="325.5" y1="520.4" x2="290.4" y2="520.4" stroke="#b0433b" stroke-width="5.6" stroke-linecap="round" opacity="0.9"/>
<line x1="315.0" y1="502.6" x2="290.4" y2="502.6" stroke="#b0433b" stroke-width="5.6" stroke-linecap="round" opacity="0.9"/>
<line x1="304.5" y1="484.8" x2="290.4" y2="484.8" stroke="#b0433b" stroke-width="5.6" stroke-linecap="round" opacity="0.9"/>
<line x1="213.6" y1="538.3" x2="196.0" y2="538.3" stroke="#b0433b" stroke-width="5.6" stroke-linecap="round" opacity="0.9"/>
<line x1="213.6" y1="520.4" x2="168.0" y2="520.4" stroke="#b0433b" stroke-width="5.6" stroke-linecap="round" opacity="0.9"/>
<line x1="213.6" y1="502.6" x2="142.8" y2="502.6" stroke="#b0433b" stroke-width="5.6" stroke-linecap="round" opacity="0.9"/>
<line x1="213.6" y1="484.8" x2="117.6" y2="484.8" stroke="#b0433b" stroke-width="5.6" stroke-linecap="round" opacity="0.9"/>
<line x1="525.0" y1="658.0" x2="385.0" y2="658.0" stroke="#b0433b" stroke-width="11.2" stroke-linecap="round" opacity="0.9"/>
<line x1="385.0" y1="658.0" x2="385.0" y2="707.0" stroke="#b0433b" stroke-width="11.2" stroke-linecap="round" opacity="0.9"/>
<line x1="525.0" y1="329.0" x2="198.8" y2="329.0" stroke="#b0433b" stroke-width="11.2" stroke-linecap="round" opacity="0.9"/>
<line x1="198.8" y1="329.0" x2="198.8" y2="413.7" stroke="#b0433b" stroke-width="11.2" stroke-linecap="round" opacity="0.9"/>
<line x1="198.8" y1="413.7" x2="213.6" y2="413.7" stroke="#b0433b" stroke-width="11.2" stroke-linecap="round" opacity="0.9"/>
<line x1="525.0" y1="567.0" x2="357.0" y2="567.0" stroke="#b0433b" stroke-width="11.2" stroke-linecap="round" opacity="0.9"/>
<line x1="357.0" y1="567.0" x2="357.0" y2="485.8" stroke="#b0433b" stroke-width="11.2" stroke-linecap="round" opacity="0.9"/>
<line x1="525.0" y1="520.4" x2="427.0" y2="520.4" stroke="#b0433b" stroke-width="11.2" stroke-linecap="round" opacity="0.9"/>
<line x1="490.0" y1="371.0" x2="290.4" y2="371.0" stroke="#b0433b" stroke-width="11.2" stroke-linecap="round" opacity="0.9"/>
<line x1="290.4" y1="371.0" x2="290.4" y2="413.7" stroke="#b0433b" stroke-width="11.2" stroke-linecap="round" opacity="0.9"/>
<line x1="490.0" y1="406.0" x2="357.0" y2="406.0" stroke="#b0433b" stroke-width="11.2" stroke-linecap="round" opacity="0.9"/>
<line x1="357.0" y1="406.0" x2="357.0" y2="466.2" stroke="#b0433b" stroke-width="11.2" stroke-linecap="round" opacity="0.9"/>
<line x1="490.0" y1="445.6" x2="427.0" y2="445.6" stroke="#b0433b" stroke-width="11.2" stroke-linecap="round" opacity="0.9"/>
<line x1="421.7" y1="267.1" x2="560.0" y2="308.0" stroke="#b0433b" stroke-width="5.6" stroke-linecap="round" opacity="0.9"/>
<line x1="560.0" y1="308.0" x2="560.0" y2="672.0" stroke="#b0433b" stroke-width="5.6" stroke-linecap="round" opacity="0.9"/>
<line x1="560.0" y1="672.0" x2="455.0" y2="707.0" stroke="#b0433b" stroke-width="5.6" stroke-linecap="round" opacity="0.9"/>
<line x1="225.8" y1="107.1" x2="190.8" y2="107.1" stroke="#8fa3b8" stroke-width="1.2"/>
<line x1="190.8" y1="71.5" x2="190.8" y2="320.5" stroke="#8fa3b8" stroke-width="1.2"/>
<line x1="225.8" y1="71.5" x2="190.8" y2="71.5" stroke="#8fa3b8" stroke-width="1.2"/>
<line x1="190.8" y1="320.5" x2="225.8" y2="320.5" stroke="#8fa3b8" stroke-width="1.2"/>
<line x1="225.8" y1="320.5" x2="225.8" y2="71.5" stroke="#8fa3b8" stroke-width="1.2"/>
<rect x="196.4" y="77.4" width="23.8" height="23.8" rx="0" fill="#d4b03c"/>
<circle cx="208.3" cy="89.3" r="7.7" fill="#10141a"/>
<circle cx="208.3" cy="124.9" r="11.9" fill="#d4b03c"/>
<circle cx="208.3" cy="124.9" r="7.7" fill="#10141a"/>
<circle cx="208.3" cy="160.4" r="11.9" fill="#d4b03c"/>
<circle cx="208.3" cy="160.4" r="7.7" fill="#10141a"/>
<circle cx="208.3" cy="196.0" r="11.9" fill="#d4b03c"/>
<circle cx="208.3" cy="196.0" r="7.7" fill="#10141a"/>
<circle cx="208.3" cy="231.6" r="11.9" fill="#d4b03c"/>
<circle cx="208.3" cy="231.6" r="7.7" fill="#10141a"/>
<circle cx="208.3" cy="267.1" r="11.9" fill="#d4b03c"/>
<circle cx="208.3" cy="267.1" r="7.7" fill="#10141a"/>
<circle cx="208.3" cy="302.7" r="11.9" fill="#d4b03c"/>
<circle cx="208.3" cy="302.7" r="7.7" fill="#10141a"/>
<text x="208.3" y="192.0" fill="#e8e0d0" font-size="11" text-anchor="middle">J3 xiao_left</text>
<line x1="439.2" y1="107.1" x2="404.2" y2="107.1" stroke="#8fa3b8" stroke-width="1.2"/>
<line x1="404.2" y1="71.5" x2="404.2" y2="320.5" stroke="#8fa3b8" stroke-width="1.2"/>
<line x1="439.2" y1="71.5" x2="404.2" y2="71.5" stroke="#8fa3b8" stroke-width="1.2"/>
<line x1="404.2" y1="320.5" x2="439.2" y2="320.5" stroke="#8fa3b8" stroke-width="1.2"/>
<line x1="439.2" y1="320.5" x2="439.2" y2="71.5" stroke="#8fa3b8" stroke-width="1.2"/>
<rect x="409.8" y="77.4" width="23.8" height="23.8" rx="0" fill="#d4b03c"/>
<circle cx="421.7" cy="89.3" r="7.7" fill="#10141a"/>
<circle cx="421.7" cy="124.9" r="11.9" fill="#d4b03c"/>
<circle cx="421.7" cy="124.9" r="7.7" fill="#10141a"/>
<circle cx="421.7" cy="160.4" r="11.9" fill="#d4b03c"/>
<circle cx="421.7" cy="160.4" r="7.7" fill="#10141a"/>
<circle cx="421.7" cy="196.0" r="11.9" fill="#d4b03c"/>
<circle cx="421.7" cy="196.0" r="7.7" fill="#10141a"/>
<circle cx="421.7" cy="231.6" r="11.9" fill="#d4b03c"/>
<circle cx="421.7" cy="231.6" r="7.7" fill="#10141a"/>
<circle cx="421.7" cy="267.1" r="11.9" fill="#d4b03c"/>
<circle cx="421.7" cy="267.1" r="7.7" fill="#10141a"/>
<circle cx="421.7" cy="302.7" r="11.9" fill="#d4b03c"/>
<circle cx="421.7" cy="302.7" r="7.7" fill="#10141a"/>
<text x="421.7" y="192.0" fill="#e8e0d0" font-size="11" text-anchor="middle">J4 xiao_right</text>
<line x1="273.3" y1="546.4" x2="230.7" y2="546.4" stroke="#8fa3b8" stroke-width="1.2"/>
<line x1="230.7" y1="546.4" x2="230.7" y2="405.6" stroke="#8fa3b8" stroke-width="1.2"/>
<line x1="230.7" y1="405.6" x2="273.3" y2="405.6" stroke="#8fa3b8" stroke-width="1.2"/>
<line x1="273.3" y1="405.6" x2="273.3" y2="546.4" stroke="#8fa3b8" stroke-width="1.2"/>
<rect x="276.6" y="534.1" width="27.6" height="8.4" rx="2" fill="#c87533"/>
<rect x="276.6" y="516.2" width="27.6" height="8.4" rx="2" fill="#c87533"/>
<rect x="276.6" y="498.4" width="27.6" height="8.4" rx="2" fill="#c87533"/>
<rect x="276.6" y="480.6" width="27.6" height="8.4" rx="2" fill="#c87533"/>
<rect x="276.6" y="463.0" width="27.6" height="8.4" rx="2" fill="#c87533"/>
<rect x="276.6" y="445.2" width="27.6" height="8.4" rx="2" fill="#c87533"/>
<rect x="276.6" y="427.4" width="27.6" height="8.4" rx="2" fill="#c87533"/>
<rect x="276.6" y="409.5" width="27.6" height="8.4" rx="2" fill="#c87533"/>
<rect x="199.8" y="534.1" width="27.6" height="8.4" rx="2" fill="#c87533"/>
<rect x="199.8" y="516.2" width="27.6" height="8.4" rx="2" fill="#c87533"/>
<rect x="199.8" y="498.4" width="27.6" height="8.4" rx="2" fill="#c87533"/>
<rect x="199.8" y="480.6" width="27.6" height="8.4" rx="2" fill="#c87533"/>
<rect x="199.8" y="463.0" width="27.6" height="8.4" rx="2" fill="#c87533"/>
<rect x="199.8" y="445.2" width="27.6" height="8.4" rx="2" fill="#c87533"/>
<rect x="199.8" y="427.4" width="27.6" height="8.4" rx="2" fill="#c87533"/>
<rect x="199.8" y="409.5" width="27.6" height="8.4" rx="2" fill="#c87533"/>
<text x="252.0" y="472.0" fill="#e8e0d0" font-size="11" text-anchor="middle">U1 uln</text>
<line x1="126.4" y1="631.3" x2="96.2" y2="631.3" stroke="#8fa3b8" stroke-width="1.2"/>
<line x1="96.2" y1="631.3" x2="96.2" y2="622.7" stroke="#8fa3b8" stroke-width="1.2"/>
<line x1="96.2" y1="622.7" x2="76.3" y2="622.7" stroke="#8fa3b8" stroke-width="1.2"/>
<line x1="167.2" y1="624.1" x2="161.8" y2="624.1" stroke="#8fa3b8" stroke-width="1.2"/>
<line x1="161.8" y1="624.1" x2="161.8" y2="631.0" stroke="#8fa3b8" stroke-width="1.2"/>
<line x1="161.8" y1="631.0" x2="132.3" y2="631.0" stroke="#8fa3b8" stroke-width="1.2"/>
<line x1="132.3" y1="631.0" x2="132.3" y2="624.3" stroke="#8fa3b8" stroke-width="1.2"/>
<line x1="132.3" y1="624.3" x2="126.7" y2="624.3" stroke="#8fa3b8" stroke-width="1.2"/>
<line x1="126.7" y1="624.3" x2="126.7" y2="630.7" stroke="#8fa3b8" stroke-width="1.2"/>
<line x1="202.9" y1="623.4" x2="196.4" y2="623.4" stroke="#8fa3b8" stroke-width="1.2"/>
<line x1="196.4" y1="623.4" x2="196.4" y2="631.0" stroke="#8fa3b8" stroke-width="1.2"/>
<line x1="196.4" y1="631.0" x2="167.6" y2="631.0" stroke="#8fa3b8" stroke-width="1.2"/>
<line x1="167.6" y1="631.0" x2="167.6" y2="624.1" stroke="#8fa3b8" stroke-width="1.2"/>
<line x1="167.6" y1="624.1" x2="161.8" y2="624.1" stroke="#8fa3b8" stroke-width="1.2"/>
<line x1="161.8" y1="624.1" x2="161.8" y2="630.6" stroke="#8fa3b8" stroke-width="1.2"/>
<line x1="237.0" y1="623.4" x2="231.6" y2="623.4" stroke="#8fa3b8" stroke-width="1.2"/>
<line x1="231.6" y1="623.4" x2="231.6" y2="631.0" stroke="#8fa3b8" stroke-width="1.2"/>
<line x1="231.6" y1="631.0" x2="202.9" y2="631.0" stroke="#8fa3b8" stroke-width="1.2"/>
<line x1="202.9" y1="631.0" x2="202.9" y2="623.6" stroke="#8fa3b8" stroke-width="1.2"/>
<line x1="202.9" y1="623.6" x2="196.4" y2="623.6" stroke="#8fa3b8" stroke-width="1.2"/>
<line x1="196.4" y1="623.6" x2="196.4" y2="630.0" stroke="#8fa3b8" stroke-width="1.2"/>
<line x1="273.3" y1="622.7" x2="267.1" y2="622.7" stroke="#8fa3b8" stroke-width="1.2"/>
<line x1="267.1" y1="622.7" x2="267.1" y2="631.0" stroke="#8fa3b8" stroke-width="1.2"/>
<line x1="267.1" y1="631.0" x2="237.3" y2="631.0" stroke="#8fa3b8" stroke-width="1.2"/>
<line x1="237.3" y1="631.0" x2="237.3" y2="623.4" stroke="#8fa3b8" stroke-width="1.2"/>
<line x1="237.3" y1="623.4" x2="231.6" y2="623.4" stroke="#8fa3b8" stroke-width="1.2"/>
<line x1="231.6" y1="623.4" x2="231.6" y2="629.9" stroke="#8fa3b8" stroke-width="1.2"/>
<line x1="286.7" y1="622.7" x2="273.3" y2="622.7" stroke="#8fa3b8" stroke-width="1.2"/>
<line x1="76.3" y1="622.9" x2="76.3" y2="720.9" stroke="#8fa3b8" stroke-width="1.2"/>
<line x1="286.7" y1="720.9" x2="76.3" y2="720.9" stroke="#8fa3b8" stroke-width="1.2"/>
<line x1="286.7" y1="622.9" x2="286.7" y2="720.9" stroke="#8fa3b8" stroke-width="1.2"/>
<circle cx="252.0" cy="616.0" r="12.6" fill="#d4b03c"/>
<circle cx="252.0" cy="616.0" r="8.4" fill="#10141a"/>
<circle cx="217.0" cy="616.0" r="12.6" fill="#d4b03c"/>
<circle cx="217.0" cy="616.0" r="8.4" fill="#10141a"/>
<circle cx="182.0" cy="616.0" r="12.6" fill="#d4b03c"/>
<circle cx="182.0" cy="616.0" r="8.4" fill="#10141a"/>
<circle cx="147.0" cy="616.0" r="12.6" fill="#d4b03c"/>
<circle cx="147.0" cy="616.0" r="8.4" fill="#10141a"/>
<circle cx="112.0" cy="616.0" r="12.6" fill="#d4b03c"/>
<circle cx="112.0" cy="616.0" r="8.4" fill="#10141a"/>
<text x="182.0" y="612.0" fill="#e8e0d0" font-size="11" text-anchor="middle">J2 j_motor</text>
<line x1="484.4" y1="709.8" x2="491.1" y2="709.8" stroke="#8fa3b8" stroke-width="1.2"/>
<line x1="491.1" y1="709.8" x2="491.1" y2="709.1" stroke="#8fa3b8" stroke-width="1.2"/>
<line x1="484.4" y1="701.4" x2="491.1" y2="701.4" stroke="#8fa3b8" stroke-width="1.2"/>
<line x1="491.1" y1="701.4" x2="491.1" y2="701.4" stroke="#8fa3b8" stroke-width="1.2"/>
<line x1="350.4" y1="710.4" x2="357.0" y2="710.4" stroke="#8fa3b8" stroke-width="1.2"/>
<line x1="357.0" y1="710.4" x2="357.0" y2="709.8" stroke="#8fa3b8" stroke-width="1.2"/>
<line x1="350.4" y1="702.4" x2="357.0" y2="702.4" stroke="#8fa3b8" stroke-width="1.2"/>
<line x1="357.0" y1="702.4" x2="357.0" y2="702.8" stroke="#8fa3b8" stroke-width="1.2"/>
<line x1="350.4" y1="754.6" x2="489.6" y2="754.6" stroke="#8fa3b8" stroke-width="1.2"/>
<line x1="373.8" y1="680.0" x2="373.8" y2="672.8" stroke="#8fa3b8" stroke-width="1.2"/>
<line x1="395.1" y1="680.0" x2="395.1" y2="672.8" stroke="#8fa3b8" stroke-width="1.2"/>
<line x1="466.2" y1="680.0" x2="466.2" y2="676.1" stroke="#8fa3b8" stroke-width="1.2"/>
<line x1="466.2" y1="676.1" x2="466.2" y2="672.8" stroke="#8fa3b8" stroke-width="1.2"/>
<line x1="444.9" y1="680.0" x2="444.9" y2="672.8" stroke="#8fa3b8" stroke-width="1.2"/>
<line x1="489.6" y1="672.8" x2="350.4" y2="672.8" stroke="#8fa3b8" stroke-width="1.2"/>
<line x1="491.1" y1="754.6" x2="491.1" y2="672.8" stroke="#8fa3b8" stroke-width="1.2"/>
<line x1="350.4" y1="672.8" x2="350.4" y2="754.6" stroke="#8fa3b8" stroke-width="1.2"/>
<line x1="357.8" y1="680.0" x2="484.0" y2="680.0" stroke="#8fa3b8" stroke-width="1.2"/>
<line x1="484.0" y1="680.0" x2="484.0" y2="747.6" stroke="#8fa3b8" stroke-width="1.2"/>
<line x1="484.0" y1="747.6" x2="357.8" y2="747.6" stroke="#8fa3b8" stroke-width="1.2"/>
<line x1="357.8" y1="747.6" x2="357.8" y2="680.0" stroke="#8fa3b8" stroke-width="1.2"/>
<circle cx="385.0" cy="707.0" r="10.8" fill="#d4b03c"/>
<circle cx="385.0" cy="707.0" r="6.3" fill="#10141a"/>
<circle cx="420.0" cy="707.0" r="10.8" fill="#d4b03c"/>
<circle cx="420.0" cy="707.0" r="6.3" fill="#10141a"/>
<circle cx="455.0" cy="707.0" r="10.8" fill="#d4b03c"/>
<circle cx="455.0" cy="707.0" r="6.3" fill="#10141a"/>
<text x="420.0" y="703.0" fill="#e8e0d0" font-size="11" text-anchor="middle">J1 j_hall</text>
<line x1="437.4" y1="436.0" x2="474.3" y2="435.7" stroke="#8fa3b8" stroke-width="1.2"/>
<line x1="474.3" y1="435.7" x2="474.3" y2="510.7" stroke="#8fa3b8" stroke-width="1.2"/>
<line x1="474.3" y1="510.7" x2="454.7" y2="530.3" stroke="#8fa3b8" stroke-width="1.2"/>
<line x1="454.7" y1="530.3" x2="436.7" y2="530.0" stroke="#8fa3b8" stroke-width="1.2"/>
<line x1="417.1" y1="435.8" x2="379.7" y2="435.7" stroke="#8fa3b8" stroke-width="1.2"/>
<line x1="379.7" y1="435.7" x2="379.7" y2="510.7" stroke="#8fa3b8" stroke-width="1.2"/>
<line x1="379.7" y1="510.7" x2="399.3" y2="530.3" stroke="#8fa3b8" stroke-width="1.2"/>
<line x1="399.3" y1="530.3" x2="417.3" y2="530.3" stroke="#8fa3b8" stroke-width="1.2"/>
<rect x="418.6" y="495.9" width="16.8" height="49.0" rx="0" fill="#c87533"/>
<rect x="418.6" y="421.1" width="16.8" height="49.0" rx="0" fill="#c87533"/>
<text x="427.0" y="479.0" fill="#e8e0d0" font-size="11" text-anchor="middle">C1 c_bulk</text>
<line x1="366.9" y1="479.9" x2="366.9" y2="491.1" stroke="#8fa3b8" stroke-width="1.2"/>
<line x1="366.9" y1="472.1" x2="366.9" y2="460.9" stroke="#8fa3b8" stroke-width="1.2"/>
<line x1="347.1" y1="479.9" x2="347.1" y2="491.1" stroke="#8fa3b8" stroke-width="1.2"/>
<line x1="347.1" y1="472.1" x2="347.1" y2="460.9" stroke="#8fa3b8" stroke-width="1.2"/>
<line x1="362.6" y1="495.5" x2="351.4" y2="495.5" stroke="#8fa3b8" stroke-width="1.2"/>
<line x1="351.4" y1="456.5" x2="362.6" y2="456.5" stroke="#8fa3b8" stroke-width="1.2"/>
<rect x="350.7" y="460.6" width="12.6" height="11.2" rx="0" fill="#c87533"/>
<rect x="350.7" y="480.2" width="12.6" height="11.2" rx="0" fill="#c87533"/>
<text x="357.0" y="472.0" fill="#e8e0d0" font-size="11" text-anchor="middle">C2 c_hf</text>
<circle cx="336.0" cy="538.3" r="4.2" fill="#d4b03c"/><circle cx="336.0" cy="538.3" r="2.1" fill="#10141a"/>
<circle cx="325.5" cy="520.4" r="4.2" fill="#d4b03c"/><circle cx="325.5" cy="520.4" r="2.1" fill="#10141a"/>
<circle cx="315.0" cy="502.6" r="4.2" fill="#d4b03c"/><circle cx="315.0" cy="502.6" r="2.1" fill="#10141a"/>
<circle cx="304.5" cy="484.8" r="4.2" fill="#d4b03c"/><circle cx="304.5" cy="484.8" r="2.1" fill="#10141a"/>
<circle cx="196.0" cy="538.3" r="4.2" fill="#d4b03c"/><circle cx="196.0" cy="538.3" r="2.1" fill="#10141a"/>
<circle cx="168.0" cy="520.4" r="4.2" fill="#d4b03c"/><circle cx="168.0" cy="520.4" r="2.1" fill="#10141a"/>
<circle cx="142.8" cy="502.6" r="4.2" fill="#d4b03c"/><circle cx="142.8" cy="502.6" r="2.1" fill="#10141a"/>
<circle cx="117.6" cy="484.8" r="4.2" fill="#d4b03c"/><circle cx="117.6" cy="484.8" r="2.1" fill="#10141a"/>
<circle cx="525.0" cy="658.0" r="4.2" fill="#d4b03c"/><circle cx="525.0" cy="658.0" r="2.1" fill="#10141a"/>
<circle cx="525.0" cy="329.0" r="4.2" fill="#d4b03c"/><circle cx="525.0" cy="329.0" r="2.1" fill="#10141a"/>
<circle cx="525.0" cy="567.0" r="4.2" fill="#d4b03c"/><circle cx="525.0" cy="567.0" r="2.1" fill="#10141a"/>
<circle cx="525.0" cy="520.4" r="4.2" fill="#d4b03c"/><circle cx="525.0" cy="520.4" r="2.1" fill="#10141a"/>
<circle cx="490.0" cy="371.0" r="4.2" fill="#d4b03c"/><circle cx="490.0" cy="371.0" r="2.1" fill="#10141a"/>
<circle cx="490.0" cy="406.0" r="4.2" fill="#d4b03c"/><circle cx="490.0" cy="406.0" r="2.1" fill="#10141a"/>
<circle cx="490.0" cy="445.6" r="4.2" fill="#d4b03c"/><circle cx="490.0" cy="445.6" r="2.1" fill="#10141a"/>
<text x="315.0" y="-14" fill="#e8e0d0" font-size="14" text-anchor="middle">split-flap driver v1 — 36x48mm — red=F.Cu blue=B.Cu</text>
</svg>