%TF.GenerationSoftware,KiCad,Pcbnew,10.0.4*%
%TF.CreationDate,2026-07-18T16:11:46-07:00*%
%TF.ProjectId,default,64656661-756c-4742-9e6b-696361645f70,rev?*%
%TF.SameCoordinates,Original*%
%TF.FileFunction,Other,User*%
%FSLAX46Y46*%
G04 Gerber Fmt 4.6, Leading zero omitted, Abs format (unit mm)*
G04 Created by KiCad (PCBNEW 10.0.4) date 2026-07-18 16:11:46*
%MOMM*%
%LPD*%
G01*
G04 APERTURE LIST*
%ADD10C,0.050000*%
G04 APERTURE END LIST*
%TO.C,J3*%
D10*
X16130000Y-22890000D02*
X16130000Y-5110000D01*
X16130000Y-5110000D02*
X13630000Y-5110000D01*
X13630000Y-5110000D02*
X13630000Y-22890000D01*
X13630000Y-22890000D02*
X16130000Y-22890000D01*
%TO.C,J4*%
X31370000Y-22890000D02*
X31370000Y-5110000D01*
X31370000Y-5110000D02*
X28870000Y-5110000D01*
X28870000Y-5110000D02*
X28870000Y-22890000D01*
X28870000Y-22890000D02*
X31370000Y-22890000D01*
%TO.C,U1*%
X19950000Y-38950000D02*
X16050000Y-38950000D01*
X16050000Y-38950000D02*
X16050000Y-29050000D01*
X16050000Y-29050000D02*
X19950000Y-29050000D01*
X19950000Y-29050000D02*
X19950000Y-38950000D01*
%TO.C,J2*%
X5330000Y-43100000D02*
X20610000Y-43100000D01*
X20610000Y-43100000D02*
X20610000Y-51620000D01*
X20610000Y-51620000D02*
X5330000Y-51620000D01*
X5330000Y-51620000D02*
X5330000Y-43100000D01*
%TO.C,J1*%
X25000000Y-53780000D02*
X25000000Y-48030000D01*
X25000000Y-48030000D02*
X35000000Y-48030000D01*
X35000000Y-48030000D02*
X35000000Y-53780000D01*
X35000000Y-53780000D02*
X25000000Y-53780000D01*
%TO.C,C1*%
X27200000Y-31200000D02*
X33800000Y-31200000D01*
X33800000Y-31200000D02*
X33800000Y-36480000D01*
X33800000Y-36480000D02*
X32480000Y-37800000D01*
X32480000Y-37800000D02*
X28520000Y-37800000D01*
X28520000Y-37800000D02*
X27200000Y-36480000D01*
X27200000Y-36480000D02*
X27200000Y-31200000D01*
%TO.C,C2*%
X25900000Y-34800000D02*
X25100000Y-34800000D01*
X25100000Y-34800000D02*
X25100000Y-33200000D01*
X25100000Y-33200000D02*
X25900000Y-33200000D01*
X25900000Y-33200000D02*
X25900000Y-34800000D01*
%TD*%
M02*
