%TF.GenerationSoftware,KiCad,Pcbnew,10.0.4*%
%TF.CreationDate,2026-07-19T09:46:45-07:00*%
%TF.ProjectId,default,64656661-756c-4742-9e6b-696361645f70,rev?*%
%TF.SameCoordinates,Original*%
%TF.FileFunction,AssemblyDrawing,Top*%
%FSLAX46Y46*%
G04 Gerber Fmt 4.6, Leading zero omitted, Abs format (unit mm)*
G04 Created by KiCad (PCBNEW 10.0.4) date 2026-07-19 09:46:45*
%MOMM*%
%LPD*%
G01*
G04 APERTURE LIST*
%ADD10C,0.150000*%
%ADD11C,3.000000*%
%ADD12C,0.060000*%
%ADD13C,0.500000*%
G04 APERTURE END LIST*
D10*
X15239580Y-17023809D02*
X15287200Y-17071428D01*
X15287200Y-17071428D02*
X15334819Y-17214285D01*
X15334819Y-17214285D02*
X15334819Y-17309523D01*
X15334819Y-17309523D02*
X15287200Y-17452380D01*
X15287200Y-17452380D02*
X15191961Y-17547618D01*
X15191961Y-17547618D02*
X15096723Y-17595237D01*
X15096723Y-17595237D02*
X14906247Y-17642856D01*
X14906247Y-17642856D02*
X14763390Y-17642856D01*
X14763390Y-17642856D02*
X14572914Y-17595237D01*
X14572914Y-17595237D02*
X14477676Y-17547618D01*
X14477676Y-17547618D02*
X14382438Y-17452380D01*
X14382438Y-17452380D02*
X14334819Y-17309523D01*
X14334819Y-17309523D02*
X14334819Y-17214285D01*
X14334819Y-17214285D02*
X14382438Y-17071428D01*
X14382438Y-17071428D02*
X14430057Y-17023809D01*
X14430057Y-16642856D02*
X14382438Y-16595237D01*
X14382438Y-16595237D02*
X14334819Y-16499999D01*
X14334819Y-16499999D02*
X14334819Y-16261904D01*
X14334819Y-16261904D02*
X14382438Y-16166666D01*
X14382438Y-16166666D02*
X14430057Y-16119047D01*
X14430057Y-16119047D02*
X14525295Y-16071428D01*
X14525295Y-16071428D02*
X14620533Y-16071428D01*
X14620533Y-16071428D02*
X14763390Y-16119047D01*
X14763390Y-16119047D02*
X15334819Y-16690475D01*
X15334819Y-16690475D02*
X15334819Y-16071428D01*
X15334819Y-15595237D02*
X15334819Y-15404761D01*
X15334819Y-15404761D02*
X15287200Y-15309523D01*
X15287200Y-15309523D02*
X15239580Y-15261904D01*
X15239580Y-15261904D02*
X15096723Y-15166666D01*
X15096723Y-15166666D02*
X14906247Y-15119047D01*
X14906247Y-15119047D02*
X14525295Y-15119047D01*
X14525295Y-15119047D02*
X14430057Y-15166666D01*
X14430057Y-15166666D02*
X14382438Y-15214285D01*
X14382438Y-15214285D02*
X14334819Y-15309523D01*
X14334819Y-15309523D02*
X14334819Y-15499999D01*
X14334819Y-15499999D02*
X14382438Y-15595237D01*
X14382438Y-15595237D02*
X14430057Y-15642856D01*
X14430057Y-15642856D02*
X14525295Y-15690475D01*
X14525295Y-15690475D02*
X14763390Y-15690475D01*
X14763390Y-15690475D02*
X14858628Y-15642856D01*
X14858628Y-15642856D02*
X14906247Y-15595237D01*
X14906247Y-15595237D02*
X14953866Y-15499999D01*
X14953866Y-15499999D02*
X14953866Y-15309523D01*
X14953866Y-15309523D02*
X14906247Y-15214285D01*
X14906247Y-15214285D02*
X14858628Y-15166666D01*
X14858628Y-15166666D02*
X14763390Y-15119047D01*
X14334819Y-14785713D02*
X14334819Y-14166666D01*
X14334819Y-14166666D02*
X14715771Y-14499999D01*
X14715771Y-14499999D02*
X14715771Y-14357142D01*
X14715771Y-14357142D02*
X14763390Y-14261904D01*
X14763390Y-14261904D02*
X14811009Y-14214285D01*
X14811009Y-14214285D02*
X14906247Y-14166666D01*
X14906247Y-14166666D02*
X15144342Y-14166666D01*
X15144342Y-14166666D02*
X15239580Y-14214285D01*
X15239580Y-14214285D02*
X15287200Y-14261904D01*
X15287200Y-14261904D02*
X15334819Y-14357142D01*
X15334819Y-14357142D02*
X15334819Y-14642856D01*
X15334819Y-14642856D02*
X15287200Y-14738094D01*
X15287200Y-14738094D02*
X15239580Y-14785713D01*
X14430057Y-13785713D02*
X14382438Y-13738094D01*
X14382438Y-13738094D02*
X14334819Y-13642856D01*
X14334819Y-13642856D02*
X14334819Y-13404761D01*
X14334819Y-13404761D02*
X14382438Y-13309523D01*
X14382438Y-13309523D02*
X14430057Y-13261904D01*
X14430057Y-13261904D02*
X14525295Y-13214285D01*
X14525295Y-13214285D02*
X14620533Y-13214285D01*
X14620533Y-13214285D02*
X14763390Y-13261904D01*
X14763390Y-13261904D02*
X15334819Y-13833332D01*
X15334819Y-13833332D02*
X15334819Y-13214285D01*
X14334819Y-12357142D02*
X14334819Y-12547618D01*
X14334819Y-12547618D02*
X14382438Y-12642856D01*
X14382438Y-12642856D02*
X14430057Y-12690475D01*
X14430057Y-12690475D02*
X14572914Y-12785713D01*
X14572914Y-12785713D02*
X14763390Y-12833332D01*
X14763390Y-12833332D02*
X15144342Y-12833332D01*
X15144342Y-12833332D02*
X15239580Y-12785713D01*
X15239580Y-12785713D02*
X15287200Y-12738094D01*
X15287200Y-12738094D02*
X15334819Y-12642856D01*
X15334819Y-12642856D02*
X15334819Y-12452380D01*
X15334819Y-12452380D02*
X15287200Y-12357142D01*
X15287200Y-12357142D02*
X15239580Y-12309523D01*
X15239580Y-12309523D02*
X15144342Y-12261904D01*
X15144342Y-12261904D02*
X14906247Y-12261904D01*
X14906247Y-12261904D02*
X14811009Y-12309523D01*
X14811009Y-12309523D02*
X14763390Y-12357142D01*
X14763390Y-12357142D02*
X14715771Y-12452380D01*
X14715771Y-12452380D02*
X14715771Y-12642856D01*
X14715771Y-12642856D02*
X14763390Y-12738094D01*
X14763390Y-12738094D02*
X14811009Y-12785713D01*
X14811009Y-12785713D02*
X14906247Y-12833332D01*
X14334819Y-11928570D02*
X14334819Y-11261904D01*
X14334819Y-11261904D02*
X15334819Y-11690475D01*
X14430057Y-10928570D02*
X14382438Y-10880951D01*
X14382438Y-10880951D02*
X14334819Y-10785713D01*
X14334819Y-10785713D02*
X14334819Y-10547618D01*
X14334819Y-10547618D02*
X14382438Y-10452380D01*
X14382438Y-10452380D02*
X14430057Y-10404761D01*
X14430057Y-10404761D02*
X14525295Y-10357142D01*
X14525295Y-10357142D02*
X14620533Y-10357142D01*
X14620533Y-10357142D02*
X14763390Y-10404761D01*
X14763390Y-10404761D02*
X15334819Y-10976189D01*
X15334819Y-10976189D02*
X15334819Y-10357142D01*
X30479580Y-17023809D02*
X30527200Y-17071428D01*
X30527200Y-17071428D02*
X30574819Y-17214285D01*
X30574819Y-17214285D02*
X30574819Y-17309523D01*
X30574819Y-17309523D02*
X30527200Y-17452380D01*
X30527200Y-17452380D02*
X30431961Y-17547618D01*
X30431961Y-17547618D02*
X30336723Y-17595237D01*
X30336723Y-17595237D02*
X30146247Y-17642856D01*
X30146247Y-17642856D02*
X30003390Y-17642856D01*
X30003390Y-17642856D02*
X29812914Y-17595237D01*
X29812914Y-17595237D02*
X29717676Y-17547618D01*
X29717676Y-17547618D02*
X29622438Y-17452380D01*
X29622438Y-17452380D02*
X29574819Y-17309523D01*
X29574819Y-17309523D02*
X29574819Y-17214285D01*
X29574819Y-17214285D02*
X29622438Y-17071428D01*
X29622438Y-17071428D02*
X29670057Y-17023809D01*
X29670057Y-16642856D02*
X29622438Y-16595237D01*
X29622438Y-16595237D02*
X29574819Y-16499999D01*
X29574819Y-16499999D02*
X29574819Y-16261904D01*
X29574819Y-16261904D02*
X29622438Y-16166666D01*
X29622438Y-16166666D02*
X29670057Y-16119047D01*
X29670057Y-16119047D02*
X29765295Y-16071428D01*
X29765295Y-16071428D02*
X29860533Y-16071428D01*
X29860533Y-16071428D02*
X30003390Y-16119047D01*
X30003390Y-16119047D02*
X30574819Y-16690475D01*
X30574819Y-16690475D02*
X30574819Y-16071428D01*
X30574819Y-15595237D02*
X30574819Y-15404761D01*
X30574819Y-15404761D02*
X30527200Y-15309523D01*
X30527200Y-15309523D02*
X30479580Y-15261904D01*
X30479580Y-15261904D02*
X30336723Y-15166666D01*
X30336723Y-15166666D02*
X30146247Y-15119047D01*
X30146247Y-15119047D02*
X29765295Y-15119047D01*
X29765295Y-15119047D02*
X29670057Y-15166666D01*
X29670057Y-15166666D02*
X29622438Y-15214285D01*
X29622438Y-15214285D02*
X29574819Y-15309523D01*
X29574819Y-15309523D02*
X29574819Y-15499999D01*
X29574819Y-15499999D02*
X29622438Y-15595237D01*
X29622438Y-15595237D02*
X29670057Y-15642856D01*
X29670057Y-15642856D02*
X29765295Y-15690475D01*
X29765295Y-15690475D02*
X30003390Y-15690475D01*
X30003390Y-15690475D02*
X30098628Y-15642856D01*
X30098628Y-15642856D02*
X30146247Y-15595237D01*
X30146247Y-15595237D02*
X30193866Y-15499999D01*
X30193866Y-15499999D02*
X30193866Y-15309523D01*
X30193866Y-15309523D02*
X30146247Y-15214285D01*
X30146247Y-15214285D02*
X30098628Y-15166666D01*
X30098628Y-15166666D02*
X30003390Y-15119047D01*
X29574819Y-14785713D02*
X29574819Y-14166666D01*
X29574819Y-14166666D02*
X29955771Y-14499999D01*
X29955771Y-14499999D02*
X29955771Y-14357142D01*
X29955771Y-14357142D02*
X30003390Y-14261904D01*
X30003390Y-14261904D02*
X30051009Y-14214285D01*
X30051009Y-14214285D02*
X30146247Y-14166666D01*
X30146247Y-14166666D02*
X30384342Y-14166666D01*
X30384342Y-14166666D02*
X30479580Y-14214285D01*
X30479580Y-14214285D02*
X30527200Y-14261904D01*
X30527200Y-14261904D02*
X30574819Y-14357142D01*
X30574819Y-14357142D02*
X30574819Y-14642856D01*
X30574819Y-14642856D02*
X30527200Y-14738094D01*
X30527200Y-14738094D02*
X30479580Y-14785713D01*
X29670057Y-13785713D02*
X29622438Y-13738094D01*
X29622438Y-13738094D02*
X29574819Y-13642856D01*
X29574819Y-13642856D02*
X29574819Y-13404761D01*
X29574819Y-13404761D02*
X29622438Y-13309523D01*
X29622438Y-13309523D02*
X29670057Y-13261904D01*
X29670057Y-13261904D02*
X29765295Y-13214285D01*
X29765295Y-13214285D02*
X29860533Y-13214285D01*
X29860533Y-13214285D02*
X30003390Y-13261904D01*
X30003390Y-13261904D02*
X30574819Y-13833332D01*
X30574819Y-13833332D02*
X30574819Y-13214285D01*
X29574819Y-12357142D02*
X29574819Y-12547618D01*
X29574819Y-12547618D02*
X29622438Y-12642856D01*
X29622438Y-12642856D02*
X29670057Y-12690475D01*
X29670057Y-12690475D02*
X29812914Y-12785713D01*
X29812914Y-12785713D02*
X30003390Y-12833332D01*
X30003390Y-12833332D02*
X30384342Y-12833332D01*
X30384342Y-12833332D02*
X30479580Y-12785713D01*
X30479580Y-12785713D02*
X30527200Y-12738094D01*
X30527200Y-12738094D02*
X30574819Y-12642856D01*
X30574819Y-12642856D02*
X30574819Y-12452380D01*
X30574819Y-12452380D02*
X30527200Y-12357142D01*
X30527200Y-12357142D02*
X30479580Y-12309523D01*
X30479580Y-12309523D02*
X30384342Y-12261904D01*
X30384342Y-12261904D02*
X30146247Y-12261904D01*
X30146247Y-12261904D02*
X30051009Y-12309523D01*
X30051009Y-12309523D02*
X30003390Y-12357142D01*
X30003390Y-12357142D02*
X29955771Y-12452380D01*
X29955771Y-12452380D02*
X29955771Y-12642856D01*
X29955771Y-12642856D02*
X30003390Y-12738094D01*
X30003390Y-12738094D02*
X30051009Y-12785713D01*
X30051009Y-12785713D02*
X30146247Y-12833332D01*
X29574819Y-11928570D02*
X29574819Y-11261904D01*
X29574819Y-11261904D02*
X30574819Y-11690475D01*
X29670057Y-10928570D02*
X29622438Y-10880951D01*
X29622438Y-10880951D02*
X29574819Y-10785713D01*
X29574819Y-10785713D02*
X29574819Y-10547618D01*
X29574819Y-10547618D02*
X29622438Y-10452380D01*
X29622438Y-10452380D02*
X29670057Y-10404761D01*
X29670057Y-10404761D02*
X29765295Y-10357142D01*
X29765295Y-10357142D02*
X29860533Y-10357142D01*
X29860533Y-10357142D02*
X30003390Y-10404761D01*
X30003390Y-10404761D02*
X30574819Y-10976189D01*
X30574819Y-10976189D02*
X30574819Y-10357142D01*
X18359580Y-35595238D02*
X18407200Y-35642857D01*
X18407200Y-35642857D02*
X18454819Y-35785714D01*
X18454819Y-35785714D02*
X18454819Y-35880952D01*
X18454819Y-35880952D02*
X18407200Y-36023809D01*
X18407200Y-36023809D02*
X18311961Y-36119047D01*
X18311961Y-36119047D02*
X18216723Y-36166666D01*
X18216723Y-36166666D02*
X18026247Y-36214285D01*
X18026247Y-36214285D02*
X17883390Y-36214285D01*
X17883390Y-36214285D02*
X17692914Y-36166666D01*
X17692914Y-36166666D02*
X17597676Y-36119047D01*
X17597676Y-36119047D02*
X17502438Y-36023809D01*
X17502438Y-36023809D02*
X17454819Y-35880952D01*
X17454819Y-35880952D02*
X17454819Y-35785714D01*
X17454819Y-35785714D02*
X17502438Y-35642857D01*
X17502438Y-35642857D02*
X17550057Y-35595238D01*
X17454819Y-35261904D02*
X17454819Y-34595238D01*
X17454819Y-34595238D02*
X18454819Y-35023809D01*
X17454819Y-33738095D02*
X17454819Y-34214285D01*
X17454819Y-34214285D02*
X17931009Y-34261904D01*
X17931009Y-34261904D02*
X17883390Y-34214285D01*
X17883390Y-34214285D02*
X17835771Y-34119047D01*
X17835771Y-34119047D02*
X17835771Y-33880952D01*
X17835771Y-33880952D02*
X17883390Y-33785714D01*
X17883390Y-33785714D02*
X17931009Y-33738095D01*
X17931009Y-33738095D02*
X18026247Y-33690476D01*
X18026247Y-33690476D02*
X18264342Y-33690476D01*
X18264342Y-33690476D02*
X18359580Y-33738095D01*
X18359580Y-33738095D02*
X18407200Y-33785714D01*
X18407200Y-33785714D02*
X18454819Y-33880952D01*
X18454819Y-33880952D02*
X18454819Y-34119047D01*
X18454819Y-34119047D02*
X18407200Y-34214285D01*
X18407200Y-34214285D02*
X18359580Y-34261904D01*
X18454819Y-32738095D02*
X18454819Y-33309523D01*
X18454819Y-33023809D02*
X17454819Y-33023809D01*
X17454819Y-33023809D02*
X17597676Y-33119047D01*
X17597676Y-33119047D02*
X17692914Y-33214285D01*
X17692914Y-33214285D02*
X17740533Y-33309523D01*
X17550057Y-32357142D02*
X17502438Y-32309523D01*
X17502438Y-32309523D02*
X17454819Y-32214285D01*
X17454819Y-32214285D02*
X17454819Y-31976190D01*
X17454819Y-31976190D02*
X17502438Y-31880952D01*
X17502438Y-31880952D02*
X17550057Y-31833333D01*
X17550057Y-31833333D02*
X17645295Y-31785714D01*
X17645295Y-31785714D02*
X17740533Y-31785714D01*
X17740533Y-31785714D02*
X17883390Y-31833333D01*
X17883390Y-31833333D02*
X18454819Y-32404761D01*
X18454819Y-32404761D02*
X18454819Y-31785714D01*
X10928571Y-44359580D02*
X10880952Y-44407200D01*
X10880952Y-44407200D02*
X10738095Y-44454819D01*
X10738095Y-44454819D02*
X10642857Y-44454819D01*
X10642857Y-44454819D02*
X10500000Y-44407200D01*
X10500000Y-44407200D02*
X10404762Y-44311961D01*
X10404762Y-44311961D02*
X10357143Y-44216723D01*
X10357143Y-44216723D02*
X10309524Y-44026247D01*
X10309524Y-44026247D02*
X10309524Y-43883390D01*
X10309524Y-43883390D02*
X10357143Y-43692914D01*
X10357143Y-43692914D02*
X10404762Y-43597676D01*
X10404762Y-43597676D02*
X10500000Y-43502438D01*
X10500000Y-43502438D02*
X10642857Y-43454819D01*
X10642857Y-43454819D02*
X10738095Y-43454819D01*
X10738095Y-43454819D02*
X10880952Y-43502438D01*
X10880952Y-43502438D02*
X10928571Y-43550057D01*
X11309524Y-43550057D02*
X11357143Y-43502438D01*
X11357143Y-43502438D02*
X11452381Y-43454819D01*
X11452381Y-43454819D02*
X11690476Y-43454819D01*
X11690476Y-43454819D02*
X11785714Y-43502438D01*
X11785714Y-43502438D02*
X11833333Y-43550057D01*
X11833333Y-43550057D02*
X11880952Y-43645295D01*
X11880952Y-43645295D02*
X11880952Y-43740533D01*
X11880952Y-43740533D02*
X11833333Y-43883390D01*
X11833333Y-43883390D02*
X11261905Y-44454819D01*
X11261905Y-44454819D02*
X11880952Y-44454819D01*
X12738095Y-43788152D02*
X12738095Y-44454819D01*
X12500000Y-43407200D02*
X12261905Y-44121485D01*
X12261905Y-44121485D02*
X12880952Y-44121485D01*
X13452381Y-43454819D02*
X13547619Y-43454819D01*
X13547619Y-43454819D02*
X13642857Y-43502438D01*
X13642857Y-43502438D02*
X13690476Y-43550057D01*
X13690476Y-43550057D02*
X13738095Y-43645295D01*
X13738095Y-43645295D02*
X13785714Y-43835771D01*
X13785714Y-43835771D02*
X13785714Y-44073866D01*
X13785714Y-44073866D02*
X13738095Y-44264342D01*
X13738095Y-44264342D02*
X13690476Y-44359580D01*
X13690476Y-44359580D02*
X13642857Y-44407200D01*
X13642857Y-44407200D02*
X13547619Y-44454819D01*
X13547619Y-44454819D02*
X13452381Y-44454819D01*
X13452381Y-44454819D02*
X13357143Y-44407200D01*
X13357143Y-44407200D02*
X13309524Y-44359580D01*
X13309524Y-44359580D02*
X13261905Y-44264342D01*
X13261905Y-44264342D02*
X13214286Y-44073866D01*
X13214286Y-44073866D02*
X13214286Y-43835771D01*
X13214286Y-43835771D02*
X13261905Y-43645295D01*
X13261905Y-43645295D02*
X13309524Y-43550057D01*
X13309524Y-43550057D02*
X13357143Y-43502438D01*
X13357143Y-43502438D02*
X13452381Y-43454819D01*
X14166667Y-43550057D02*
X14214286Y-43502438D01*
X14214286Y-43502438D02*
X14309524Y-43454819D01*
X14309524Y-43454819D02*
X14547619Y-43454819D01*
X14547619Y-43454819D02*
X14642857Y-43502438D01*
X14642857Y-43502438D02*
X14690476Y-43550057D01*
X14690476Y-43550057D02*
X14738095Y-43645295D01*
X14738095Y-43645295D02*
X14738095Y-43740533D01*
X14738095Y-43740533D02*
X14690476Y-43883390D01*
X14690476Y-43883390D02*
X14119048Y-44454819D01*
X14119048Y-44454819D02*
X14738095Y-44454819D01*
X15071429Y-43454819D02*
X15690476Y-43454819D01*
X15690476Y-43454819D02*
X15357143Y-43835771D01*
X15357143Y-43835771D02*
X15500000Y-43835771D01*
X15500000Y-43835771D02*
X15595238Y-43883390D01*
X15595238Y-43883390D02*
X15642857Y-43931009D01*
X15642857Y-43931009D02*
X15690476Y-44026247D01*
X15690476Y-44026247D02*
X15690476Y-44264342D01*
X15690476Y-44264342D02*
X15642857Y-44359580D01*
X15642857Y-44359580D02*
X15595238Y-44407200D01*
X15595238Y-44407200D02*
X15500000Y-44454819D01*
X15500000Y-44454819D02*
X15214286Y-44454819D01*
X15214286Y-44454819D02*
X15119048Y-44407200D01*
X15119048Y-44407200D02*
X15071429Y-44359580D01*
X26499999Y-50859580D02*
X26452380Y-50907200D01*
X26452380Y-50907200D02*
X26309523Y-50954819D01*
X26309523Y-50954819D02*
X26214285Y-50954819D01*
X26214285Y-50954819D02*
X26071428Y-50907200D01*
X26071428Y-50907200D02*
X25976190Y-50811961D01*
X25976190Y-50811961D02*
X25928571Y-50716723D01*
X25928571Y-50716723D02*
X25880952Y-50526247D01*
X25880952Y-50526247D02*
X25880952Y-50383390D01*
X25880952Y-50383390D02*
X25928571Y-50192914D01*
X25928571Y-50192914D02*
X25976190Y-50097676D01*
X25976190Y-50097676D02*
X26071428Y-50002438D01*
X26071428Y-50002438D02*
X26214285Y-49954819D01*
X26214285Y-49954819D02*
X26309523Y-49954819D01*
X26309523Y-49954819D02*
X26452380Y-50002438D01*
X26452380Y-50002438D02*
X26499999Y-50050057D01*
X27404761Y-49954819D02*
X26928571Y-49954819D01*
X26928571Y-49954819D02*
X26880952Y-50431009D01*
X26880952Y-50431009D02*
X26928571Y-50383390D01*
X26928571Y-50383390D02*
X27023809Y-50335771D01*
X27023809Y-50335771D02*
X27261904Y-50335771D01*
X27261904Y-50335771D02*
X27357142Y-50383390D01*
X27357142Y-50383390D02*
X27404761Y-50431009D01*
X27404761Y-50431009D02*
X27452380Y-50526247D01*
X27452380Y-50526247D02*
X27452380Y-50764342D01*
X27452380Y-50764342D02*
X27404761Y-50859580D01*
X27404761Y-50859580D02*
X27357142Y-50907200D01*
X27357142Y-50907200D02*
X27261904Y-50954819D01*
X27261904Y-50954819D02*
X27023809Y-50954819D01*
X27023809Y-50954819D02*
X26928571Y-50907200D01*
X26928571Y-50907200D02*
X26880952Y-50859580D01*
X28404761Y-50954819D02*
X27833333Y-50954819D01*
X28119047Y-50954819D02*
X28119047Y-49954819D01*
X28119047Y-49954819D02*
X28023809Y-50097676D01*
X28023809Y-50097676D02*
X27928571Y-50192914D01*
X27928571Y-50192914D02*
X27833333Y-50240533D01*
X28880952Y-50954819D02*
X29071428Y-50954819D01*
X29071428Y-50954819D02*
X29166666Y-50907200D01*
X29166666Y-50907200D02*
X29214285Y-50859580D01*
X29214285Y-50859580D02*
X29309523Y-50716723D01*
X29309523Y-50716723D02*
X29357142Y-50526247D01*
X29357142Y-50526247D02*
X29357142Y-50145295D01*
X29357142Y-50145295D02*
X29309523Y-50050057D01*
X29309523Y-50050057D02*
X29261904Y-50002438D01*
X29261904Y-50002438D02*
X29166666Y-49954819D01*
X29166666Y-49954819D02*
X28976190Y-49954819D01*
X28976190Y-49954819D02*
X28880952Y-50002438D01*
X28880952Y-50002438D02*
X28833333Y-50050057D01*
X28833333Y-50050057D02*
X28785714Y-50145295D01*
X28785714Y-50145295D02*
X28785714Y-50383390D01*
X28785714Y-50383390D02*
X28833333Y-50478628D01*
X28833333Y-50478628D02*
X28880952Y-50526247D01*
X28880952Y-50526247D02*
X28976190Y-50573866D01*
X28976190Y-50573866D02*
X29166666Y-50573866D01*
X29166666Y-50573866D02*
X29261904Y-50526247D01*
X29261904Y-50526247D02*
X29309523Y-50478628D01*
X29309523Y-50478628D02*
X29357142Y-50383390D01*
X30214285Y-50288152D02*
X30214285Y-50954819D01*
X29976190Y-49907200D02*
X29738095Y-50621485D01*
X29738095Y-50621485D02*
X30357142Y-50621485D01*
X30928571Y-49954819D02*
X31023809Y-49954819D01*
X31023809Y-49954819D02*
X31119047Y-50002438D01*
X31119047Y-50002438D02*
X31166666Y-50050057D01*
X31166666Y-50050057D02*
X31214285Y-50145295D01*
X31214285Y-50145295D02*
X31261904Y-50335771D01*
X31261904Y-50335771D02*
X31261904Y-50573866D01*
X31261904Y-50573866D02*
X31214285Y-50764342D01*
X31214285Y-50764342D02*
X31166666Y-50859580D01*
X31166666Y-50859580D02*
X31119047Y-50907200D01*
X31119047Y-50907200D02*
X31023809Y-50954819D01*
X31023809Y-50954819D02*
X30928571Y-50954819D01*
X30928571Y-50954819D02*
X30833333Y-50907200D01*
X30833333Y-50907200D02*
X30785714Y-50859580D01*
X30785714Y-50859580D02*
X30738095Y-50764342D01*
X30738095Y-50764342D02*
X30690476Y-50573866D01*
X30690476Y-50573866D02*
X30690476Y-50335771D01*
X30690476Y-50335771D02*
X30738095Y-50145295D01*
X30738095Y-50145295D02*
X30785714Y-50050057D01*
X30785714Y-50050057D02*
X30833333Y-50002438D01*
X30833333Y-50002438D02*
X30928571Y-49954819D01*
X32214285Y-50954819D02*
X31642857Y-50954819D01*
X31928571Y-50954819D02*
X31928571Y-49954819D01*
X31928571Y-49954819D02*
X31833333Y-50097676D01*
X31833333Y-50097676D02*
X31738095Y-50192914D01*
X31738095Y-50192914D02*
X31642857Y-50240533D01*
X32785714Y-50383390D02*
X32690476Y-50335771D01*
X32690476Y-50335771D02*
X32642857Y-50288152D01*
X32642857Y-50288152D02*
X32595238Y-50192914D01*
X32595238Y-50192914D02*
X32595238Y-50145295D01*
X32595238Y-50145295D02*
X32642857Y-50050057D01*
X32642857Y-50050057D02*
X32690476Y-50002438D01*
X32690476Y-50002438D02*
X32785714Y-49954819D01*
X32785714Y-49954819D02*
X32976190Y-49954819D01*
X32976190Y-49954819D02*
X33071428Y-50002438D01*
X33071428Y-50002438D02*
X33119047Y-50050057D01*
X33119047Y-50050057D02*
X33166666Y-50145295D01*
X33166666Y-50145295D02*
X33166666Y-50192914D01*
X33166666Y-50192914D02*
X33119047Y-50288152D01*
X33119047Y-50288152D02*
X33071428Y-50335771D01*
X33071428Y-50335771D02*
X32976190Y-50383390D01*
X32976190Y-50383390D02*
X32785714Y-50383390D01*
X32785714Y-50383390D02*
X32690476Y-50431009D01*
X32690476Y-50431009D02*
X32642857Y-50478628D01*
X32642857Y-50478628D02*
X32595238Y-50573866D01*
X32595238Y-50573866D02*
X32595238Y-50764342D01*
X32595238Y-50764342D02*
X32642857Y-50859580D01*
X32642857Y-50859580D02*
X32690476Y-50907200D01*
X32690476Y-50907200D02*
X32785714Y-50954819D01*
X32785714Y-50954819D02*
X32976190Y-50954819D01*
X32976190Y-50954819D02*
X33071428Y-50907200D01*
X33071428Y-50907200D02*
X33119047Y-50859580D01*
X33119047Y-50859580D02*
X33166666Y-50764342D01*
X33166666Y-50764342D02*
X33166666Y-50573866D01*
X33166666Y-50573866D02*
X33119047Y-50478628D01*
X33119047Y-50478628D02*
X33071428Y-50431009D01*
X33071428Y-50431009D02*
X32976190Y-50383390D01*
X33738095Y-50383390D02*
X33642857Y-50335771D01*
X33642857Y-50335771D02*
X33595238Y-50288152D01*
X33595238Y-50288152D02*
X33547619Y-50192914D01*
X33547619Y-50192914D02*
X33547619Y-50145295D01*
X33547619Y-50145295D02*
X33595238Y-50050057D01*
X33595238Y-50050057D02*
X33642857Y-50002438D01*
X33642857Y-50002438D02*
X33738095Y-49954819D01*
X33738095Y-49954819D02*
X33928571Y-49954819D01*
X33928571Y-49954819D02*
X34023809Y-50002438D01*
X34023809Y-50002438D02*
X34071428Y-50050057D01*
X34071428Y-50050057D02*
X34119047Y-50145295D01*
X34119047Y-50145295D02*
X34119047Y-50192914D01*
X34119047Y-50192914D02*
X34071428Y-50288152D01*
X34071428Y-50288152D02*
X34023809Y-50335771D01*
X34023809Y-50335771D02*
X33928571Y-50383390D01*
X33928571Y-50383390D02*
X33738095Y-50383390D01*
X33738095Y-50383390D02*
X33642857Y-50431009D01*
X33642857Y-50431009D02*
X33595238Y-50478628D01*
X33595238Y-50478628D02*
X33547619Y-50573866D01*
X33547619Y-50573866D02*
X33547619Y-50764342D01*
X33547619Y-50764342D02*
X33595238Y-50859580D01*
X33595238Y-50859580D02*
X33642857Y-50907200D01*
X33642857Y-50907200D02*
X33738095Y-50954819D01*
X33738095Y-50954819D02*
X33928571Y-50954819D01*
X33928571Y-50954819D02*
X34023809Y-50907200D01*
X34023809Y-50907200D02*
X34071428Y-50859580D01*
X34071428Y-50859580D02*
X34119047Y-50764342D01*
X34119047Y-50764342D02*
X34119047Y-50573866D01*
X34119047Y-50573866D02*
X34071428Y-50478628D01*
X34071428Y-50478628D02*
X34023809Y-50431009D01*
X34023809Y-50431009D02*
X33928571Y-50383390D01*
X30859580Y-37523809D02*
X30907200Y-37571428D01*
X30907200Y-37571428D02*
X30954819Y-37714285D01*
X30954819Y-37714285D02*
X30954819Y-37809523D01*
X30954819Y-37809523D02*
X30907200Y-37952380D01*
X30907200Y-37952380D02*
X30811961Y-38047618D01*
X30811961Y-38047618D02*
X30716723Y-38095237D01*
X30716723Y-38095237D02*
X30526247Y-38142856D01*
X30526247Y-38142856D02*
X30383390Y-38142856D01*
X30383390Y-38142856D02*
X30192914Y-38095237D01*
X30192914Y-38095237D02*
X30097676Y-38047618D01*
X30097676Y-38047618D02*
X30002438Y-37952380D01*
X30002438Y-37952380D02*
X29954819Y-37809523D01*
X29954819Y-37809523D02*
X29954819Y-37714285D01*
X29954819Y-37714285D02*
X30002438Y-37571428D01*
X30002438Y-37571428D02*
X30050057Y-37523809D01*
X30050057Y-37142856D02*
X30002438Y-37095237D01*
X30002438Y-37095237D02*
X29954819Y-36999999D01*
X29954819Y-36999999D02*
X29954819Y-36761904D01*
X29954819Y-36761904D02*
X30002438Y-36666666D01*
X30002438Y-36666666D02*
X30050057Y-36619047D01*
X30050057Y-36619047D02*
X30145295Y-36571428D01*
X30145295Y-36571428D02*
X30240533Y-36571428D01*
X30240533Y-36571428D02*
X30383390Y-36619047D01*
X30383390Y-36619047D02*
X30954819Y-37190475D01*
X30954819Y-37190475D02*
X30954819Y-36571428D01*
X30383390Y-35999999D02*
X30335771Y-36095237D01*
X30335771Y-36095237D02*
X30288152Y-36142856D01*
X30288152Y-36142856D02*
X30192914Y-36190475D01*
X30192914Y-36190475D02*
X30145295Y-36190475D01*
X30145295Y-36190475D02*
X30050057Y-36142856D01*
X30050057Y-36142856D02*
X30002438Y-36095237D01*
X30002438Y-36095237D02*
X29954819Y-35999999D01*
X29954819Y-35999999D02*
X29954819Y-35809523D01*
X29954819Y-35809523D02*
X30002438Y-35714285D01*
X30002438Y-35714285D02*
X30050057Y-35666666D01*
X30050057Y-35666666D02*
X30145295Y-35619047D01*
X30145295Y-35619047D02*
X30192914Y-35619047D01*
X30192914Y-35619047D02*
X30288152Y-35666666D01*
X30288152Y-35666666D02*
X30335771Y-35714285D01*
X30335771Y-35714285D02*
X30383390Y-35809523D01*
X30383390Y-35809523D02*
X30383390Y-35999999D01*
X30383390Y-35999999D02*
X30431009Y-36095237D01*
X30431009Y-36095237D02*
X30478628Y-36142856D01*
X30478628Y-36142856D02*
X30573866Y-36190475D01*
X30573866Y-36190475D02*
X30764342Y-36190475D01*
X30764342Y-36190475D02*
X30859580Y-36142856D01*
X30859580Y-36142856D02*
X30907200Y-36095237D01*
X30907200Y-36095237D02*
X30954819Y-35999999D01*
X30954819Y-35999999D02*
X30954819Y-35809523D01*
X30954819Y-35809523D02*
X30907200Y-35714285D01*
X30907200Y-35714285D02*
X30859580Y-35666666D01*
X30859580Y-35666666D02*
X30764342Y-35619047D01*
X30764342Y-35619047D02*
X30573866Y-35619047D01*
X30573866Y-35619047D02*
X30478628Y-35666666D01*
X30478628Y-35666666D02*
X30431009Y-35714285D01*
X30431009Y-35714285D02*
X30383390Y-35809523D01*
X30383390Y-35047618D02*
X30335771Y-35142856D01*
X30335771Y-35142856D02*
X30288152Y-35190475D01*
X30288152Y-35190475D02*
X30192914Y-35238094D01*
X30192914Y-35238094D02*
X30145295Y-35238094D01*
X30145295Y-35238094D02*
X30050057Y-35190475D01*
X30050057Y-35190475D02*
X30002438Y-35142856D01*
X30002438Y-35142856D02*
X29954819Y-35047618D01*
X29954819Y-35047618D02*
X29954819Y-34857142D01*
X29954819Y-34857142D02*
X30002438Y-34761904D01*
X30002438Y-34761904D02*
X30050057Y-34714285D01*
X30050057Y-34714285D02*
X30145295Y-34666666D01*
X30145295Y-34666666D02*
X30192914Y-34666666D01*
X30192914Y-34666666D02*
X30288152Y-34714285D01*
X30288152Y-34714285D02*
X30335771Y-34761904D01*
X30335771Y-34761904D02*
X30383390Y-34857142D01*
X30383390Y-34857142D02*
X30383390Y-35047618D01*
X30383390Y-35047618D02*
X30431009Y-35142856D01*
X30431009Y-35142856D02*
X30478628Y-35190475D01*
X30478628Y-35190475D02*
X30573866Y-35238094D01*
X30573866Y-35238094D02*
X30764342Y-35238094D01*
X30764342Y-35238094D02*
X30859580Y-35190475D01*
X30859580Y-35190475D02*
X30907200Y-35142856D01*
X30907200Y-35142856D02*
X30954819Y-35047618D01*
X30954819Y-35047618D02*
X30954819Y-34857142D01*
X30954819Y-34857142D02*
X30907200Y-34761904D01*
X30907200Y-34761904D02*
X30859580Y-34714285D01*
X30859580Y-34714285D02*
X30764342Y-34666666D01*
X30764342Y-34666666D02*
X30573866Y-34666666D01*
X30573866Y-34666666D02*
X30478628Y-34714285D01*
X30478628Y-34714285D02*
X30431009Y-34761904D01*
X30431009Y-34761904D02*
X30383390Y-34857142D01*
X29954819Y-34333332D02*
X29954819Y-33666666D01*
X29954819Y-33666666D02*
X30954819Y-34095237D01*
X30050057Y-33333332D02*
X30002438Y-33285713D01*
X30002438Y-33285713D02*
X29954819Y-33190475D01*
X29954819Y-33190475D02*
X29954819Y-32952380D01*
X29954819Y-32952380D02*
X30002438Y-32857142D01*
X30002438Y-32857142D02*
X30050057Y-32809523D01*
X30050057Y-32809523D02*
X30145295Y-32761904D01*
X30145295Y-32761904D02*
X30240533Y-32761904D01*
X30240533Y-32761904D02*
X30383390Y-32809523D01*
X30383390Y-32809523D02*
X30954819Y-33380951D01*
X30954819Y-33380951D02*
X30954819Y-32761904D01*
X29954819Y-32428570D02*
X29954819Y-31761904D01*
X29954819Y-31761904D02*
X30954819Y-32190475D01*
X29954819Y-31476189D02*
X29954819Y-30857142D01*
X29954819Y-30857142D02*
X30335771Y-31190475D01*
X30335771Y-31190475D02*
X30335771Y-31047618D01*
X30335771Y-31047618D02*
X30383390Y-30952380D01*
X30383390Y-30952380D02*
X30431009Y-30904761D01*
X30431009Y-30904761D02*
X30526247Y-30857142D01*
X30526247Y-30857142D02*
X30764342Y-30857142D01*
X30764342Y-30857142D02*
X30859580Y-30904761D01*
X30859580Y-30904761D02*
X30907200Y-30952380D01*
X30907200Y-30952380D02*
X30954819Y-31047618D01*
X30954819Y-31047618D02*
X30954819Y-31333332D01*
X30954819Y-31333332D02*
X30907200Y-31428570D01*
X30907200Y-31428570D02*
X30859580Y-31476189D01*
X25859580Y-36071428D02*
X25907200Y-36119047D01*
X25907200Y-36119047D02*
X25954819Y-36261904D01*
X25954819Y-36261904D02*
X25954819Y-36357142D01*
X25954819Y-36357142D02*
X25907200Y-36499999D01*
X25907200Y-36499999D02*
X25811961Y-36595237D01*
X25811961Y-36595237D02*
X25716723Y-36642856D01*
X25716723Y-36642856D02*
X25526247Y-36690475D01*
X25526247Y-36690475D02*
X25383390Y-36690475D01*
X25383390Y-36690475D02*
X25192914Y-36642856D01*
X25192914Y-36642856D02*
X25097676Y-36595237D01*
X25097676Y-36595237D02*
X25002438Y-36499999D01*
X25002438Y-36499999D02*
X24954819Y-36357142D01*
X24954819Y-36357142D02*
X24954819Y-36261904D01*
X24954819Y-36261904D02*
X25002438Y-36119047D01*
X25002438Y-36119047D02*
X25050057Y-36071428D01*
X25954819Y-35119047D02*
X25954819Y-35690475D01*
X25954819Y-35404761D02*
X24954819Y-35404761D01*
X24954819Y-35404761D02*
X25097676Y-35499999D01*
X25097676Y-35499999D02*
X25192914Y-35595237D01*
X25192914Y-35595237D02*
X25240533Y-35690475D01*
X25288152Y-34261904D02*
X25954819Y-34261904D01*
X24907200Y-34499999D02*
X25621485Y-34738094D01*
X25621485Y-34738094D02*
X25621485Y-34119047D01*
X24954819Y-33309523D02*
X24954819Y-33499999D01*
X24954819Y-33499999D02*
X25002438Y-33595237D01*
X25002438Y-33595237D02*
X25050057Y-33642856D01*
X25050057Y-33642856D02*
X25192914Y-33738094D01*
X25192914Y-33738094D02*
X25383390Y-33785713D01*
X25383390Y-33785713D02*
X25764342Y-33785713D01*
X25764342Y-33785713D02*
X25859580Y-33738094D01*
X25859580Y-33738094D02*
X25907200Y-33690475D01*
X25907200Y-33690475D02*
X25954819Y-33595237D01*
X25954819Y-33595237D02*
X25954819Y-33404761D01*
X25954819Y-33404761D02*
X25907200Y-33309523D01*
X25907200Y-33309523D02*
X25859580Y-33261904D01*
X25859580Y-33261904D02*
X25764342Y-33214285D01*
X25764342Y-33214285D02*
X25526247Y-33214285D01*
X25526247Y-33214285D02*
X25431009Y-33261904D01*
X25431009Y-33261904D02*
X25383390Y-33309523D01*
X25383390Y-33309523D02*
X25335771Y-33404761D01*
X25335771Y-33404761D02*
X25335771Y-33595237D01*
X25335771Y-33595237D02*
X25383390Y-33690475D01*
X25383390Y-33690475D02*
X25431009Y-33738094D01*
X25431009Y-33738094D02*
X25526247Y-33785713D01*
X24954819Y-32357142D02*
X24954819Y-32547618D01*
X24954819Y-32547618D02*
X25002438Y-32642856D01*
X25002438Y-32642856D02*
X25050057Y-32690475D01*
X25050057Y-32690475D02*
X25192914Y-32785713D01*
X25192914Y-32785713D02*
X25383390Y-32833332D01*
X25383390Y-32833332D02*
X25764342Y-32833332D01*
X25764342Y-32833332D02*
X25859580Y-32785713D01*
X25859580Y-32785713D02*
X25907200Y-32738094D01*
X25907200Y-32738094D02*
X25954819Y-32642856D01*
X25954819Y-32642856D02*
X25954819Y-32452380D01*
X25954819Y-32452380D02*
X25907200Y-32357142D01*
X25907200Y-32357142D02*
X25859580Y-32309523D01*
X25859580Y-32309523D02*
X25764342Y-32261904D01*
X25764342Y-32261904D02*
X25526247Y-32261904D01*
X25526247Y-32261904D02*
X25431009Y-32309523D01*
X25431009Y-32309523D02*
X25383390Y-32357142D01*
X25383390Y-32357142D02*
X25335771Y-32452380D01*
X25335771Y-32452380D02*
X25335771Y-32642856D01*
X25335771Y-32642856D02*
X25383390Y-32738094D01*
X25383390Y-32738094D02*
X25431009Y-32785713D01*
X25431009Y-32785713D02*
X25526247Y-32833332D01*
X24954819Y-31928570D02*
X24954819Y-31309523D01*
X24954819Y-31309523D02*
X25335771Y-31642856D01*
X25335771Y-31642856D02*
X25335771Y-31499999D01*
X25335771Y-31499999D02*
X25383390Y-31404761D01*
X25383390Y-31404761D02*
X25431009Y-31357142D01*
X25431009Y-31357142D02*
X25526247Y-31309523D01*
X25526247Y-31309523D02*
X25764342Y-31309523D01*
X25764342Y-31309523D02*
X25859580Y-31357142D01*
X25859580Y-31357142D02*
X25907200Y-31404761D01*
X25907200Y-31404761D02*
X25954819Y-31499999D01*
X25954819Y-31499999D02*
X25954819Y-31785713D01*
X25954819Y-31785713D02*
X25907200Y-31880951D01*
X25907200Y-31880951D02*
X25859580Y-31928570D01*
%TO.C,J3*%
D11*
X16080000Y-4870000D02*
X16080000Y-23130000D01*
X16080000Y-23130000D02*
X13680000Y-23130000D01*
X13680000Y-23130000D02*
X13680000Y-4870000D01*
X16080000Y-4870000D02*
X16080000Y-4870000D01*
D12*
X13660000Y-4860000D02*
G75*
G02*
X13600000Y-4860000I-30000J0D01*
G01*
X13600000Y-4860000D02*
G75*
G02*
X13660000Y-4860000I30000J0D01*
G01*
%TO.C,J4*%
D11*
X31320000Y-4870000D02*
X31320000Y-23130000D01*
X31320000Y-23130000D02*
X28920000Y-23130000D01*
X28920000Y-23130000D02*
X28920000Y-4870000D01*
X31320000Y-4870000D02*
X31320000Y-4870000D01*
D12*
X28900000Y-4860000D02*
G75*
G02*
X28840000Y-4860000I-30000J0D01*
G01*
X28840000Y-4860000D02*
G75*
G02*
X28900000Y-4860000I30000J0D01*
G01*
%TO.C,J2*%
D13*
X18250000Y-44000000D02*
G75*
G02*
X17750000Y-44000000I-250000J0D01*
G01*
X17750000Y-44000000D02*
G75*
G02*
X18250000Y-44000000I250000J0D01*
G01*
X15750000Y-44000000D02*
G75*
G02*
X15250000Y-44000000I-250000J0D01*
G01*
X15250000Y-44000000D02*
G75*
G02*
X15750000Y-44000000I250000J0D01*
G01*
X13250000Y-44000000D02*
G75*
G02*
X12750000Y-44000000I-250000J0D01*
G01*
X12750000Y-44000000D02*
G75*
G02*
X13250000Y-44000000I250000J0D01*
G01*
X10750000Y-44000000D02*
G75*
G02*
X10250000Y-44000000I-250000J0D01*
G01*
X10250000Y-44000000D02*
G75*
G02*
X10750000Y-44000000I250000J0D01*
G01*
X8250000Y-44000000D02*
G75*
G02*
X7750000Y-44000000I-250000J0D01*
G01*
X7750000Y-44000000D02*
G75*
G02*
X8250000Y-44000000I250000J0D01*
G01*
%TD*%
M02*
