%TF.GenerationSoftware,KiCad,Pcbnew,10.0.4*%
%TF.CreationDate,2026-07-19T11:13:16-07:00*%
%TF.ProjectId,filled,66696c6c-6564-42e6-9b69-6361645f7063,rev?*%
%TF.SameCoordinates,Original*%
%TF.FileFunction,Soldermask,Top*%
%TF.FilePolarity,Negative*%
%FSLAX46Y46*%
G04 Gerber Fmt 4.6, Leading zero omitted, Abs format (unit mm)*
G04 Created by KiCad (PCBNEW 10.0.4) date 2026-07-19 11:13:16*
%MOMM*%
%LPD*%
G01*
G04 APERTURE LIST*
G04 Aperture macros list*
%AMRoundRect*
0 Rectangle with rounded corners*
0 $1 Rounding radius*
0 $2 $3 $4 $5 $6 $7 $8 $9 X,Y pos of 4 corners*
0 Add a 4 corners polygon primitive as box body*
4,1,4,$2,$3,$4,$5,$6,$7,$8,$9,$2,$3,0*
0 Add four circle primitives for the rounded corners*
1,1,$1+$1,$2,$3*
1,1,$1+$1,$4,$5*
1,1,$1+$1,$6,$7*
1,1,$1+$1,$8,$9*
0 Add four rect primitives between the rounded corners*
20,1,$1+$1,$2,$3,$4,$5,0*
20,1,$1+$1,$4,$5,$6,$7,0*
20,1,$1+$1,$6,$7,$8,$9,0*
20,1,$1+$1,$8,$9,$2,$3,0*%
G04 Aperture macros list end*
%ADD10RoundRect,0.050000X-0.850000X0.785000X-0.850000X-0.785000X0.850000X-0.785000X0.850000X0.785000X0*%
%ADD11C,1.800000*%
%ADD12RoundRect,0.050000X0.600000X-1.750000X0.600000X1.750000X-0.600000X1.750000X-0.600000X-1.750000X0*%
%ADD13RoundRect,0.050000X0.450000X-0.400000X0.450000X0.400000X-0.450000X0.400000X-0.450000X-0.400000X0*%
%ADD14C,3.300000*%
%ADD15O,2.071000X0.702000*%
%ADD16C,1.900000*%
%ADD17C,1.650000*%
G04 APERTURE END LIST*
D10*
%TO.C,J3*%
X14880000Y-6380000D03*
D11*
X14880000Y-8920000D03*
X14880000Y-11460000D03*
X14880000Y-14000000D03*
X14880000Y-16540000D03*
X14880000Y-19080000D03*
X14880000Y-21620000D03*
%TD*%
D12*
%TO.C,C1*%
X30500000Y-37170000D03*
X30500000Y-31830000D03*
%TD*%
D13*
%TO.C,C2*%
X25500000Y-34700000D03*
X25500000Y-33300000D03*
%TD*%
D10*
%TO.C,J4*%
X30120000Y-6380000D03*
D11*
X30120000Y-8920000D03*
X30120000Y-11460000D03*
X30120000Y-14000000D03*
X30120000Y-16540000D03*
X30120000Y-19080000D03*
X30120000Y-21620000D03*
%TD*%
D14*
%TO.C,*%
X41500000Y-56500000D03*
%TD*%
%TO.C,*%
X3500000Y-3500000D03*
%TD*%
%TO.C,*%
X3500000Y-56500000D03*
%TD*%
D15*
%TO.C,U1*%
X20740000Y-38450000D03*
X20740000Y-37170000D03*
X20740000Y-35900000D03*
X20740000Y-34630000D03*
X20740000Y-33370000D03*
X20740000Y-32100000D03*
X20740000Y-30830000D03*
X20740000Y-29550000D03*
X15260000Y-29550000D03*
X15260000Y-30830000D03*
X15260000Y-32100000D03*
X15260000Y-33370000D03*
X15260000Y-34630000D03*
X15260000Y-35900000D03*
X15260000Y-37170000D03*
X15260000Y-38450000D03*
%TD*%
D16*
%TO.C,J2*%
X18000000Y-44000000D03*
X15500000Y-44000000D03*
X13000000Y-44000000D03*
X10500000Y-44000000D03*
X8000000Y-44000000D03*
%TD*%
D14*
%TO.C,*%
X41500000Y-3500000D03*
%TD*%
D17*
%TO.C,J1*%
X27500000Y-50500000D03*
X30000000Y-50500000D03*
X32500000Y-50500000D03*
%TD*%
M02*
