%TF.GenerationSoftware,KiCad,Pcbnew,10.0.4*%
%TF.CreationDate,2026-07-19T11:13:16-07:00*%
%TF.ProjectId,filled,66696c6c-6564-42e6-9b69-6361645f7063,rev?*%
%TF.SameCoordinates,Original*%
%TF.FileFunction,Copper,L1,Top*%
%TF.FilePolarity,Positive*%
%FSLAX46Y46*%
G04 Gerber Fmt 4.6, Leading zero omitted, Abs format (unit mm)*
G04 Created by KiCad (PCBNEW 10.0.4) date 2026-07-19 11:13:16*
%MOMM*%
%LPD*%
G01*
G04 APERTURE LIST*
%TA.AperFunction,ComponentPad*%
%ADD10R,1.700000X1.570000*%
%TD*%
%TA.AperFunction,ComponentPad*%
%ADD11C,1.700000*%
%TD*%
%TA.AperFunction,SMDPad,CuDef*%
%ADD12R,1.200000X3.500000*%
%TD*%
%TA.AperFunction,SMDPad,CuDef*%
%ADD13R,0.900000X0.800000*%
%TD*%
%TA.AperFunction,SMDPad,CuDef*%
%ADD14O,1.971000X0.602000*%
%TD*%
%TA.AperFunction,ComponentPad*%
%ADD15C,1.800000*%
%TD*%
%TA.AperFunction,ComponentPad*%
%ADD16C,1.550000*%
%TD*%
%TA.AperFunction,ViaPad*%
%ADD17C,0.600000*%
%TD*%
%TA.AperFunction,Conductor*%
%ADD18C,0.400000*%
%TD*%
%TA.AperFunction,Conductor*%
%ADD19C,0.800000*%
%TD*%
G04 APERTURE END LIST*
D10*
%TO.P,J3,1*%
%TO.N,1-1*%
X14880000Y-6380000D03*
D11*
%TO.P,J3,2*%
%TO.N,2-1*%
X14880000Y-8920000D03*
%TO.P,J3,3*%
%TO.N,3*%
X14880000Y-11460000D03*
%TO.P,J3,4*%
%TO.N,4*%
X14880000Y-14000000D03*
%TO.P,J3,5*%
%TO.N,xiao_left-5*%
X14880000Y-16540000D03*
%TO.P,J3,6*%
%TO.N,xiao_left-6*%
X14880000Y-19080000D03*
%TO.P,J3,7*%
%TO.N,xiao_left-7*%
X14880000Y-21620000D03*
%TD*%
D12*
%TO.P,C1,1*%
%TO.N,1*%
X30500000Y-37170000D03*
%TO.P,C1,2*%
%TO.N,2*%
X30500000Y-31830000D03*
%TD*%
D13*
%TO.P,C2,1*%
%TO.N,1*%
X25500000Y-34700000D03*
%TO.P,C2,2*%
%TO.N,2*%
X25500000Y-33300000D03*
%TD*%
D10*
%TO.P,J4,1*%
%TO.N,1*%
X30120000Y-6380000D03*
D11*
%TO.P,J4,2*%
%TO.N,2*%
X30120000Y-8920000D03*
%TO.P,J4,3*%
%TO.N,p3v3*%
X30120000Y-11460000D03*
%TO.P,J4,4*%
%TO.N,xiao_right-4*%
X30120000Y-14000000D03*
%TO.P,J4,5*%
%TO.N,xiao_right-5*%
X30120000Y-16540000D03*
%TO.P,J4,6*%
%TO.N,hall_do*%
X30120000Y-19080000D03*
%TO.P,J4,7*%
%TO.N,xiao_right-7*%
X30120000Y-21620000D03*
%TD*%
D14*
%TO.P,U1,1*%
%TO.N,1-1*%
X20740000Y-38450000D03*
%TO.P,U1,2*%
%TO.N,2-1*%
X20740000Y-37170000D03*
%TO.P,U1,3*%
%TO.N,3*%
X20740000Y-35900000D03*
%TO.P,U1,4*%
%TO.N,4*%
X20740000Y-34630000D03*
%TO.P,U1,5*%
%TO.N,5*%
X20740000Y-33370000D03*
%TO.P,U1,6*%
%TO.N,6*%
X20740000Y-32100000D03*
%TO.P,U1,7*%
%TO.N,7*%
X20740000Y-30830000D03*
%TO.P,U1,8*%
%TO.N,2*%
X20740000Y-29550000D03*
%TO.P,U1,9*%
%TO.N,1*%
X15260000Y-29550000D03*
%TO.P,U1,10*%
%TO.N,10*%
X15260000Y-30830000D03*
%TO.P,U1,11*%
%TO.N,11*%
X15260000Y-32100000D03*
%TO.P,U1,12*%
%TO.N,12*%
X15260000Y-33370000D03*
%TO.P,U1,13*%
%TO.N,13*%
X15260000Y-34630000D03*
%TO.P,U1,14*%
%TO.N,14*%
X15260000Y-35900000D03*
%TO.P,U1,15*%
%TO.N,15*%
X15260000Y-37170000D03*
%TO.P,U1,16*%
%TO.N,1-2*%
X15260000Y-38450000D03*
%TD*%
D15*
%TO.P,J2,1*%
%TO.N,1-2*%
X18000000Y-44000000D03*
%TO.P,J2,2*%
%TO.N,15*%
X15500000Y-44000000D03*
%TO.P,J2,3*%
%TO.N,14*%
X13000000Y-44000000D03*
%TO.P,J2,4*%
%TO.N,13*%
X10500000Y-44000000D03*
%TO.P,J2,5*%
%TO.N,1*%
X8000000Y-44000000D03*
%TD*%
D16*
%TO.P,J1,1*%
%TO.N,1*%
X27500000Y-50500000D03*
%TO.P,J1,2*%
%TO.N,2*%
X30000000Y-50500000D03*
%TO.P,J1,3*%
%TO.N,hall_do*%
X32500000Y-50500000D03*
%TD*%
D17*
%TO.N,1-2*%
X14000000Y-38450000D03*
%TO.N,13*%
X8400000Y-34630000D03*
%TO.N,14*%
X10200000Y-35900000D03*
%TO.N,15*%
X12000000Y-37170000D03*
%TO.N,2-1*%
X23250000Y-37170000D03*
%TO.N,4*%
X21750000Y-34630000D03*
%TO.N,1-1*%
X24000000Y-38450000D03*
%TO.N,3*%
X22500000Y-35900000D03*
%TO.N,1*%
X37500000Y-40500000D03*
X37500000Y-47000000D03*
X37500000Y-23500000D03*
X37500000Y-37170000D03*
%TO.N,2*%
X35000000Y-31830000D03*
X35000000Y-29000000D03*
X35000000Y-26500000D03*
%TD*%
%TO.N,hall_do*%
D18*
X40000000Y-48000000D02*
X32500000Y-50500000D01*
X40000000Y-22000000D02*
X40000000Y-48000000D01*
X30120000Y-19080000D02*
X40000000Y-22000000D01*
%TO.N,1-2*%
X15260000Y-38450000D02*
X14000000Y-38450000D01*
%TO.N,13*%
X15260000Y-34630000D02*
X8400000Y-34630000D01*
%TO.N,14*%
X15260000Y-35900000D02*
X10200000Y-35900000D01*
%TO.N,15*%
X15260000Y-37170000D02*
X12000000Y-37170000D01*
%TO.N,2-1*%
X23250000Y-37170000D02*
X20740000Y-37170000D01*
%TO.N,4*%
X21750000Y-34630000D02*
X20740000Y-34630000D01*
%TO.N,1-1*%
X24000000Y-38450000D02*
X20740000Y-38450000D01*
%TO.N,3*%
X22500000Y-35900000D02*
X20740000Y-35900000D01*
%TO.N,1*%
D19*
X27500000Y-47000000D02*
X27500000Y-50500000D01*
X14200000Y-23500000D02*
X14200000Y-29550000D01*
X37500000Y-47000000D02*
X27500000Y-47000000D01*
X25500000Y-40500000D02*
X25500000Y-34700000D01*
X37500000Y-40500000D02*
X25500000Y-40500000D01*
X37500000Y-23500000D02*
X14200000Y-23500000D01*
X37500000Y-37170000D02*
X30500000Y-37170000D01*
X14200000Y-29550000D02*
X15260000Y-29550000D01*
%TO.N,2*%
X25500000Y-29000000D02*
X25500000Y-33300000D01*
X35000000Y-31830000D02*
X30500000Y-31830000D01*
X20740000Y-26500000D02*
X20740000Y-29550000D01*
X35000000Y-29000000D02*
X25500000Y-29000000D01*
X35000000Y-26500000D02*
X20740000Y-26500000D01*
%TD*%
M02*
